<svg width="651pt" height="199pt"
 viewBox="0.00 0.00 651.00 199.00" xmlns="http://www.w3.org/2000/svg" xmlns:xlink="http://www.w3.org/1999/xlink">
<!-- pyspec-contract-input-sha256: bf42dd4fc7c89b22c281a136e89be0f8f76c05b40a7a78f910f11109ff7b925f -->
<g id="graph0" class="graph" transform="scale(1 1) rotate(0) translate(18 181)">
<title>entrypoint_entry_point_cli_project_board</title>
<!-- entrypoint_entry_point_cli_project_board -->
<g id="node1" class="node">
<title>entrypoint_entry_point_cli_project_board</title>
<polygon fill="#ffffff" stroke="transparent" points="0,-26 0,-137 201,-137 201,-26 0,-26"/>
<polygon fill="#0891b2" stroke="transparent" points="1.5,-127.5 1.5,-135.5 200.5,-135.5 200.5,-127.5 1.5,-127.5"/>
<polygon fill="#ecfeff" stroke="transparent" points="1.5,-96.5 1.5,-127.5 200.5,-127.5 200.5,-96.5 1.5,-96.5"/>
<text text-anchor="start" x="5.5" y="-114.1" font-family="Arial" font-weight="bold" font-size="13.00">project board</text>
<text text-anchor="start" x="5.5" y="-103.1" font-family="Arial" font-size="8.00" fill="#64748b">cli entry point</text>
<text text-anchor="start" x="5.5" y="-85.5" font-family="Arial" font-style="italic" font-size="10.00" fill="#3f3f46">CLI launcher for the Textual dispatch board.</text>
<text text-anchor="start" x="6.5" y="-65.5" font-family="Arial" font-weight="bold" font-size="10.00">cli command:</text>
<text text-anchor="start" x="70.5" y="-65.5" font-family="Arial" font-size="10.00">  cli_command.project.board</text>
<text text-anchor="start" x="5.5" y="-45.5" font-family="Arial" font-weight="bold" font-size="10.00">args</text>
<text text-anchor="start" x="5.5" y="-34.5" font-family="Arial" font-size="10.00">workspace_id</text>
<text text-anchor="start" x="66.5" y="-34.5" font-family="Arial" font-size="8.00" fill="#94a3b8">  ID</text>
<polygon fill="none" stroke="#0891b2" points="0,-26 0,-137 201,-137 201,-26 0,-26"/>
</g>
<!-- entrypoint_target_state_machine_project_board -->
<g id="node2" class="node">
<title>entrypoint_target_state_machine_project_board</title>
<polygon fill="#ffffff" stroke="transparent" points="262,0 262,-163 615,-163 615,0 262,0"/>
<polygon fill="#9333ea" stroke="transparent" points="263.5,-153.5 263.5,-161.5 614.5,-161.5 614.5,-153.5 263.5,-153.5"/>
<polygon fill="#faf5ff" stroke="transparent" points="263.5,-122.5 263.5,-153.5 614.5,-153.5 614.5,-122.5 263.5,-122.5"/>
<text text-anchor="start" x="267.5" y="-140.1" font-family="Arial" font-weight="bold" font-size="13.00">state_machine.project.board</text>
<text text-anchor="start" x="267.5" y="-129.1" font-family="Arial" font-size="8.00" fill="#64748b">target state machine (textual)</text>
<text text-anchor="start" x="267.5" y="-111.5" font-family="Arial" font-style="italic" font-size="10.00" fill="#3f3f46">The dispatch board composes list, detail, and</text>
<text text-anchor="start" x="267.5" y="-100.5" font-family="Arial" font-style="italic" font-size="10.00" fill="#3f3f46">activity state machines through shared</text>
<text text-anchor="start" x="267.5" y="-89.5" font-family="Arial" font-style="italic" font-size="10.00" fill="#3f3f46">selected&#45;project context.</text>
<text text-anchor="start" x="268.5" y="-69.5" font-family="Arial" font-weight="bold" font-size="10.00">input:</text>
<text text-anchor="start" x="296.5" y="-69.5" font-family="Arial" font-size="10.00">  workspace_id</text>
<text text-anchor="start" x="363.5" y="-69.5" font-family="Arial" font-size="8.00" fill="#94a3b8">  ID</text>
<text text-anchor="start" x="268.5" y="-57.5" font-family="Arial" font-weight="bold" font-size="10.00">query:</text>
<text text-anchor="start" x="298.5" y="-57.5" font-family="Arial" font-size="10.00">  query.project.board.list</text>
<text text-anchor="start" x="268.5" y="-45.5" font-family="Arial" font-weight="bold" font-size="10.00">load:</text>
<text text-anchor="start" x="292.5" y="-45.5" font-family="Arial" font-size="10.00">  operation.project.list</text>
<text text-anchor="start" x="386.5" y="-45.5" font-family="Arial" font-size="8.00" fill="#94a3b8">  array&lt;Project&gt;</text>
<text text-anchor="start" x="268.5" y="-33.5" font-family="Arial" font-weight="bold" font-size="10.00">authorization_policies:</text>
<text text-anchor="start" x="375.5" y="-33.5" font-family="Arial" font-size="10.00">  operation.project.list: authorization_policy.project.list</text>
<text text-anchor="start" x="268.5" y="-21.5" font-family="Arial" font-weight="bold" font-size="10.00">model:</text>
<text text-anchor="start" x="301.5" y="-21.5" font-family="Arial" font-size="10.00">  Project</text>
<text text-anchor="start" x="268.5" y="-9.5" font-family="Arial" font-weight="bold" font-size="10.00">signal_sync_rules:</text>
<text text-anchor="start" x="356.5" y="-9.5" font-family="Arial" font-size="10.00">  select_project_updates_state_machines</text>
<polygon fill="none" stroke="#9333ea" points="262,0 262,-163 615,-163 615,0 262,0"/>
</g>
<!-- entrypoint_entry_point_cli_project_board&#45;&gt;entrypoint_target_state_machine_project_board -->
<g id="edge1" class="edge">
<title>entrypoint_entry_point_cli_project_board&#45;&gt;entrypoint_target_state_machine_project_board</title>
<path fill="none" stroke="#3f3f46" d="M201.4,-81.5C218.01,-81.5 235.69,-81.5 253.6,-81.5"/>
<polygon fill="#3f3f46" stroke="#3f3f46" points="253.85,-84.3 261.85,-81.5 253.85,-78.7 253.85,-84.3"/>
</g>
</g>
</svg>
