<svg width="822pt" height="199pt"
 viewBox="0.00 0.00 822.00 199.00" xmlns="http://www.w3.org/2000/svg" xmlns:xlink="http://www.w3.org/1999/xlink">
<!-- pyspec-contract-input-sha256: a9f0c2262b40a5d2a64257c1a0bd5ca25eb979f649e2e104febca0880428d892 -->
<g id="graph0" class="graph" transform="scale(1 1) rotate(0) translate(18 181)">
<title>entrypoint_entry_point_cli_project_board</title>
<!-- entrypoint_entry_point_cli_project_board -->
<g id="node1" class="node">
<title>entrypoint_entry_point_cli_project_board</title>
<polygon fill="#ffffff" stroke="transparent" points="0,-41 0,-122 201,-122 201,-41 0,-41"/>
<polygon fill="#0891b2" stroke="transparent" points="1.5,-112.5 1.5,-120.5 200.5,-120.5 200.5,-112.5 1.5,-112.5"/>
<polygon fill="#ecfeff" stroke="transparent" points="1.5,-81.5 1.5,-112.5 200.5,-112.5 200.5,-81.5 1.5,-81.5"/>
<text text-anchor="start" x="5.5" y="-99.1" font-family="Arial" font-weight="bold" font-size="13.00">project board</text>
<text text-anchor="start" x="5.5" y="-88.1" font-family="Arial" font-size="8.00" fill="#64748b">cli entry point</text>
<text text-anchor="start" x="5.5" y="-70.5" font-family="Arial" font-style="italic" font-size="10.00" fill="#3f3f46">CLI launcher for the Textual dispatch board.</text>
<text text-anchor="start" x="6.5" y="-50.5" font-family="Arial" font-weight="bold" font-size="10.00">cli command:</text>
<text text-anchor="start" x="70.5" y="-50.5" font-family="Arial" font-size="10.00">  cli_command.project.board</text>
<polygon fill="none" stroke="#0891b2" points="0,-41 0,-122 201,-122 201,-41 0,-41"/>
</g>
<!-- entrypoint_input_entry_point_cli_project_board -->
<g id="node2" class="node">
<title>entrypoint_input_entry_point_cli_project_board</title>
<polygon fill="#ffffff" stroke="transparent" points="262,-46 262,-117 372,-117 372,-46 262,-46"/>
<polygon fill="#64748b" stroke="transparent" points="263,-107.5 263,-115.5 371,-115.5 371,-107.5 263,-107.5"/>
<polygon fill="#f8fafc" stroke="transparent" points="263,-76.5 263,-107.5 371,-107.5 371,-76.5 263,-76.5"/>
<text text-anchor="start" x="267" y="-94.1" font-family="Arial" font-weight="bold" font-size="13.00">command input</text>
<text text-anchor="start" x="267" y="-83.1" font-family="Arial" font-size="8.00" fill="#64748b">external data</text>
<text text-anchor="start" x="267" y="-65.5" font-family="Arial" font-weight="bold" font-size="10.00">args</text>
<text text-anchor="start" x="267" y="-54.5" font-family="Arial" font-size="10.00">workspace_id</text>
<text text-anchor="start" x="328" y="-54.5" font-family="Arial" font-size="8.00" fill="#94a3b8">  ID</text>
<polygon fill="none" stroke="#64748b" points="262,-46 262,-117 372,-117 372,-46 262,-46"/>
</g>
<!-- entrypoint_entry_point_cli_project_board&#45;&gt;entrypoint_input_entry_point_cli_project_board -->
<g id="edge1" class="edge">
<title>entrypoint_entry_point_cli_project_board&#45;&gt;entrypoint_input_entry_point_cli_project_board</title>
<path fill="none" stroke="#3f3f46" d="M201.21,-81.5C219.01,-81.5 237.08,-81.5 253.46,-81.5"/>
<polygon fill="#3f3f46" stroke="#3f3f46" points="253.86,-84.3 261.86,-81.5 253.86,-78.7 253.86,-84.3"/>
</g>
<!-- entrypoint_target_state_machine_project_board -->
<g id="node3" class="node">
<title>entrypoint_target_state_machine_project_board</title>
<polygon fill="#ffffff" stroke="transparent" points="433,0 433,-163 786,-163 786,0 433,0"/>
<polygon fill="#9333ea" stroke="transparent" points="434.5,-153.5 434.5,-161.5 785.5,-161.5 785.5,-153.5 434.5,-153.5"/>
<polygon fill="#faf5ff" stroke="transparent" points="434.5,-122.5 434.5,-153.5 785.5,-153.5 785.5,-122.5 434.5,-122.5"/>
<text text-anchor="start" x="438.5" y="-140.1" font-family="Arial" font-weight="bold" font-size="13.00">state_machine.project.board</text>
<text text-anchor="start" x="438.5" y="-129.1" font-family="Arial" font-size="8.00" fill="#64748b">target state machine (textual)</text>
<text text-anchor="start" x="438.5" y="-111.5" font-family="Arial" font-style="italic" font-size="10.00" fill="#3f3f46">The dispatch board composes list, detail, and</text>
<text text-anchor="start" x="438.5" y="-100.5" font-family="Arial" font-style="italic" font-size="10.00" fill="#3f3f46">activity state machines through shared</text>
<text text-anchor="start" x="438.5" y="-89.5" font-family="Arial" font-style="italic" font-size="10.00" fill="#3f3f46">selected&#45;project context.</text>
<text text-anchor="start" x="439.5" y="-69.5" font-family="Arial" font-weight="bold" font-size="10.00">input:</text>
<text text-anchor="start" x="467.5" y="-69.5" font-family="Arial" font-size="10.00">  workspace_id</text>
<text text-anchor="start" x="534.5" y="-69.5" font-family="Arial" font-size="8.00" fill="#94a3b8">  ID</text>
<text text-anchor="start" x="439.5" y="-57.5" font-family="Arial" font-weight="bold" font-size="10.00">query:</text>
<text text-anchor="start" x="469.5" y="-57.5" font-family="Arial" font-size="10.00">  query.project.board.list</text>
<text text-anchor="start" x="439.5" y="-45.5" font-family="Arial" font-weight="bold" font-size="10.00">load:</text>
<text text-anchor="start" x="463.5" y="-45.5" font-family="Arial" font-size="10.00">  operation.project.list</text>
<text text-anchor="start" x="557.5" y="-45.5" font-family="Arial" font-size="8.00" fill="#94a3b8">  array&lt;Project&gt;</text>
<text text-anchor="start" x="439.5" y="-33.5" font-family="Arial" font-weight="bold" font-size="10.00">authorization_policies:</text>
<text text-anchor="start" x="546.5" y="-33.5" font-family="Arial" font-size="10.00">  operation.project.list: authorization_policy.project.list</text>
<text text-anchor="start" x="439.5" y="-21.5" font-family="Arial" font-weight="bold" font-size="10.00">model:</text>
<text text-anchor="start" x="472.5" y="-21.5" font-family="Arial" font-size="10.00">  Project</text>
<text text-anchor="start" x="439.5" y="-9.5" font-family="Arial" font-weight="bold" font-size="10.00">signal_sync_rules:</text>
<text text-anchor="start" x="527.5" y="-9.5" font-family="Arial" font-size="10.00">  select_project_updates_state_machines</text>
<polygon fill="none" stroke="#9333ea" points="433,0 433,-163 786,-163 786,0 433,0"/>
</g>
<!-- entrypoint_input_entry_point_cli_project_board&#45;&gt;entrypoint_target_state_machine_project_board -->
<g id="edge2" class="edge">
<title>entrypoint_input_entry_point_cli_project_board&#45;&gt;entrypoint_target_state_machine_project_board</title>
<path fill="none" stroke="#3f3f46" d="M372.3,-81.5C387.89,-81.5 405.82,-81.5 424.69,-81.5"/>
<polygon fill="#3f3f46" stroke="#3f3f46" points="424.83,-84.3 432.83,-81.5 424.83,-78.7 424.83,-84.3"/>
</g>
</g>
</svg>
