<svg width="579pt" height="226pt"
 viewBox="0.00 0.00 579.00 226.00" xmlns="http://www.w3.org/2000/svg" xmlns:xlink="http://www.w3.org/1999/xlink">
<!-- pyspec-contract-input-sha256: f4fddf6082687ce25713dabb4316855b74ea9449ebe41df0bee7c2b977b593aa -->
<g id="graph0" class="graph" transform="scale(1 1) rotate(0) translate(18 208)">
<title>entrypoint_entry_point_cli_project_board</title>
<!-- entrypoint_entry_point_cli_project_board -->
<g id="node1" class="node">
<title>entrypoint_entry_point_cli_project_board</title>
<polygon fill="#ffffff" stroke="transparent" points="0,-39.5 0,-150.5 201,-150.5 201,-39.5 0,-39.5"/>
<polygon fill="#0891b2" stroke="transparent" points="1.5,-141 1.5,-149 200.5,-149 200.5,-141 1.5,-141"/>
<polygon fill="#ecfeff" stroke="transparent" points="1.5,-110 1.5,-141 200.5,-141 200.5,-110 1.5,-110"/>
<text text-anchor="start" x="5.5" y="-127.6" font-family="Arial" font-weight="bold" font-size="13.00">project board</text>
<text text-anchor="start" x="5.5" y="-116.6" font-family="Arial" font-size="8.00" fill="#64748b">cli entry point</text>
<text text-anchor="start" x="5.5" y="-99" font-family="Arial" font-style="italic" font-size="10.00" fill="#3f3f46">CLI launcher for the Textual dispatch board.</text>
<text text-anchor="start" x="6.5" y="-79" font-family="Arial" font-weight="bold" font-size="10.00">cli command:</text>
<text text-anchor="start" x="70.5" y="-79" font-family="Arial" font-size="10.00">  cli_command.project.board</text>
<text text-anchor="start" x="5.5" y="-59" font-family="Arial" font-weight="bold" font-size="10.00">args</text>
<text text-anchor="start" x="5.5" y="-48" font-family="Arial" font-size="10.00">workspace_id</text>
<text text-anchor="start" x="66.5" y="-48" font-family="Arial" font-size="8.00" fill="#94a3b8">  ID</text>
<polygon fill="none" stroke="#0891b2" points="0,-39.5 0,-150.5 201,-150.5 201,-39.5 0,-39.5"/>
</g>
<!-- entrypoint_target_state_machine_project_board -->
<g id="node2" class="node">
<title>entrypoint_target_state_machine_project_board</title>
<polygon fill="#ffffff" stroke="transparent" points="262,0 262,-190 543,-190 543,0 262,0"/>
<polygon fill="#9333ea" stroke="transparent" points="263.5,-181 263.5,-189 542.5,-189 542.5,-181 263.5,-181"/>
<polygon fill="#faf5ff" stroke="transparent" points="263.5,-150 263.5,-181 542.5,-181 542.5,-150 263.5,-150"/>
<text text-anchor="start" x="267.5" y="-167.6" font-family="Arial" font-weight="bold" font-size="13.00">state_machine.project.board</text>
<text text-anchor="start" x="267.5" y="-156.6" font-family="Arial" font-size="8.00" fill="#64748b">target state machine (textual)</text>
<text text-anchor="start" x="267.5" y="-139" font-family="Arial" font-style="italic" font-size="10.00" fill="#3f3f46">The dispatch board composes list, detail, and</text>
<text text-anchor="start" x="267.5" y="-128" font-family="Arial" font-style="italic" font-size="10.00" fill="#3f3f46">activity state machines through shared</text>
<text text-anchor="start" x="267.5" y="-117" font-family="Arial" font-style="italic" font-size="10.00" fill="#3f3f46">selected&#45;project context.</text>
<text text-anchor="start" x="268.5" y="-97" font-family="Arial" font-weight="bold" font-size="10.00">input:</text>
<text text-anchor="start" x="296.5" y="-97" font-family="Arial" font-size="10.00">  list_board.workspace_id</text>
<text text-anchor="start" x="408.5" y="-97" font-family="Arial" font-size="8.00" fill="#94a3b8">  ID</text>
<text text-anchor="start" x="268.5" y="-85" font-family="Arial" font-weight="bold" font-size="10.00">data_loaders:</text>
<text text-anchor="start" x="331.5" y="-85" font-family="Arial" font-size="10.00">  list_board</text>
<text text-anchor="start" x="268.5" y="-73" font-family="Arial" font-weight="bold" font-size="10.00">load:</text>
<text text-anchor="start" x="292.5" y="-73" font-family="Arial" font-size="10.00">  application_action.project.list</text>
<text text-anchor="start" x="425.5" y="-73" font-family="Arial" font-size="8.00" fill="#94a3b8">  array&lt;Project&gt;</text>
<text text-anchor="start" x="267.5" y="-53" font-family="Arial" font-weight="bold" font-size="10.00">authorization_policies:</text>
<text text-anchor="start" x="374.5" y="-53" font-family="Arial" font-size="10.00">  application_action.project.list:</text>
<text text-anchor="start" x="267.5" y="-41" font-family="Arial" font-size="10.00">  authorization_policy.project.member</text>
<text text-anchor="start" x="268.5" y="-22" font-family="Arial" font-weight="bold" font-size="10.00">model:</text>
<text text-anchor="start" x="301.5" y="-22" font-family="Arial" font-size="10.00">  Project</text>
<text text-anchor="start" x="268.5" y="-10" font-family="Arial" font-weight="bold" font-size="10.00">signal_sync_rules:</text>
<text text-anchor="start" x="356.5" y="-10" font-family="Arial" font-size="10.00">  select_project_updates_state_machines</text>
<polygon fill="none" stroke="#9333ea" points="262,0 262,-190 543,-190 543,0 262,0"/>
</g>
<!-- entrypoint_entry_point_cli_project_board&#45;&gt;entrypoint_target_state_machine_project_board -->
<g id="edge1" class="edge">
<title>entrypoint_entry_point_cli_project_board&#45;&gt;entrypoint_target_state_machine_project_board</title>
<path fill="none" stroke="#3f3f46" d="M201.4,-95C218.25,-95 236.05,-95 253.81,-95"/>
<polygon fill="#3f3f46" stroke="#3f3f46" points="253.96,-97.8 261.96,-95 253.96,-92.2 253.96,-97.8"/>
</g>
</g>
</svg>
