<svg width="1181pt" height="247pt"
 viewBox="0.00 0.00 1181.00 247.00" xmlns="http://www.w3.org/2000/svg" xmlns:xlink="http://www.w3.org/1999/xlink">
<!-- pyspec-contract-input-sha256: 15b1164c04bcafe34248393651e68c2306cec4c75aa83abc56af69e6977c0cca -->
<g id="graph0" class="graph" transform="scale(1 1) rotate(0) translate(18 229)">
<title>entrypoint_entry_point_api_project_list</title>
<!-- entry_start -->
<g id="node1" class="node">
<title>entry_start</title>
<ellipse fill="none" stroke="#0891b2" cx="21" cy="-105" rx="21" ry="21"/>
<text text-anchor="middle" x="21" y="-102.8" font-family="Arial" font-size="9.00" fill="#155e75">entry</text>
</g>
<!-- entrypoint_entry_point_api_project_list -->
<g id="node2" class="node">
<title>entrypoint_entry_point_api_project_list</title>
<polygon fill="#ffffff" stroke="transparent" points="103,-64.5 103,-145.5 384,-145.5 384,-64.5 103,-64.5"/>
<polygon fill="#0891b2" stroke="transparent" points="104.5,-136 104.5,-144 383.5,-144 383.5,-136 104.5,-136"/>
<polygon fill="#ecfeff" stroke="transparent" points="104.5,-105 104.5,-136 383.5,-136 383.5,-105 104.5,-105"/>
<text text-anchor="start" x="108.5" y="-122.6" font-family="Arial" font-weight="bold" font-size="13.00">GET /workspaces/{workspace_id}/projects</text>
<text text-anchor="start" x="108.5" y="-111.6" font-family="Arial" font-size="8.00" fill="#64748b">api entry</text>
<text text-anchor="start" x="108.5" y="-94" font-family="Arial" font-style="italic" font-size="10.00" fill="#3f3f46">HTTP endpoint for listing dispatch projects.</text>
<text text-anchor="start" x="109.5" y="-74" font-family="Arial" font-weight="bold" font-size="10.00">endpoint:</text>
<text text-anchor="start" x="154.5" y="-74" font-family="Arial" font-size="10.00">  endpoint.project.list</text>
<polygon fill="none" stroke="#0891b2" points="103,-64.5 103,-145.5 384,-145.5 384,-64.5 103,-64.5"/>
</g>
<!-- entry_start&#45;&gt;entrypoint_entry_point_api_project_list -->
<g id="edge1" class="edge">
<title>entry_start&#45;&gt;entrypoint_entry_point_api_project_list</title>
<path fill="none" stroke="#3f3f46" d="M42.35,-105C55.63,-105 74.3,-105 94.95,-105"/>
<polygon fill="#3f3f46" stroke="#3f3f46" points="94.95,-107.8 102.95,-105 94.95,-102.2 94.95,-107.8"/>
</g>
<!-- entrypoint_input_entry_point_api_project_list -->
<g id="node3" class="node">
<title>entrypoint_input_entry_point_api_project_list</title>
<polygon fill="#ffffff" stroke="transparent" points="445,-69.5 445,-140.5 529,-140.5 529,-69.5 445,-69.5"/>
<polygon fill="#64748b" stroke="transparent" points="446,-131 446,-139 528,-139 528,-131 446,-131"/>
<polygon fill="#f8fafc" stroke="transparent" points="446,-100 446,-131 528,-131 528,-100 446,-100"/>
<text text-anchor="start" x="450" y="-117.6" font-family="Arial" font-weight="bold" font-size="13.00">request</text>
<text text-anchor="start" x="450" y="-106.6" font-family="Arial" font-size="8.00" fill="#64748b">external data</text>
<text text-anchor="start" x="450" y="-89" font-family="Arial" font-weight="bold" font-size="10.00">params</text>
<text text-anchor="start" x="450" y="-78" font-family="Arial" font-size="10.00">workspace_id</text>
<text text-anchor="start" x="511" y="-78" font-family="Arial" font-size="8.00" fill="#94a3b8">  ID</text>
<polygon fill="none" stroke="#64748b" points="445,-69.5 445,-140.5 529,-140.5 529,-69.5 445,-69.5"/>
</g>
<!-- entrypoint_entry_point_api_project_list&#45;&gt;entrypoint_input_entry_point_api_project_list -->
<g id="edge2" class="edge">
<title>entrypoint_entry_point_api_project_list&#45;&gt;entrypoint_input_entry_point_api_project_list</title>
<path fill="none" stroke="#3f3f46" d="M384.28,-105C402.94,-105 420.98,-105 436.55,-105"/>
<polygon fill="#3f3f46" stroke="#3f3f46" points="436.93,-107.8 444.93,-105 436.93,-102.2 436.93,-107.8"/>
</g>
<!-- entrypoint_target_operation_project_list -->
<g id="node4" class="node">
<title>entrypoint_target_operation_project_list</title>
<polygon fill="#ffffff" stroke="transparent" points="590,-23 590,-187 813,-187 813,-23 590,-23"/>
<polygon fill="#2563eb" stroke="transparent" points="591.5,-178 591.5,-186 812.5,-186 812.5,-178 591.5,-178"/>
<polygon fill="#eff6ff" stroke="transparent" points="591.5,-147 591.5,-178 812.5,-178 812.5,-147 591.5,-147"/>
<text text-anchor="start" x="595.5" y="-164.6" font-family="Arial" font-weight="bold" font-size="13.00">operation.project.list</text>
<text text-anchor="start" x="595.5" y="-153.6" font-family="Arial" font-size="8.00" fill="#64748b">target operation</text>
<text text-anchor="start" x="595.5" y="-136" font-family="Arial" font-style="italic" font-size="10.00" fill="#3f3f46">The board requires a project list query scoped by</text>
<text text-anchor="start" x="595.5" y="-125" font-family="Arial" font-style="italic" font-size="10.00" fill="#3f3f46">workspace.</text>
<text text-anchor="start" x="596.5" y="-105" font-family="Arial" font-weight="bold" font-size="10.00">reads:</text>
<text text-anchor="start" x="625.5" y="-105" font-family="Arial" font-size="10.00">  Project</text>
<text text-anchor="start" x="596.5" y="-93" font-family="Arial" font-weight="bold" font-size="10.00">input:</text>
<text text-anchor="start" x="624.5" y="-93" font-family="Arial" font-size="10.00">  workspace_id</text>
<text text-anchor="start" x="691.5" y="-93" font-family="Arial" font-size="8.00" fill="#94a3b8">  ID</text>
<text text-anchor="start" x="595.5" y="-73" font-family="Arial" font-weight="bold" font-size="10.00">success</text>
<text text-anchor="start" x="595.5" y="-62" font-family="Arial" font-size="10.00">listed</text>
<text text-anchor="start" x="619.5" y="-62" font-family="Arial" font-size="8.00" fill="#94a3b8">  array&lt;Project&gt;</text>
<text text-anchor="start" x="595.5" y="-43" font-family="Arial" font-weight="bold" font-size="10.00">failure</text>
<text text-anchor="start" x="595.5" y="-32" font-family="Arial" font-size="10.00">unavailable</text>
<text text-anchor="start" x="644.5" y="-32" font-family="Arial" font-size="8.00" fill="#94a3b8">  Problem</text>
<polygon fill="none" stroke="#2563eb" points="590,-23 590,-187 813,-187 813,-23 590,-23"/>
</g>
<!-- entrypoint_input_entry_point_api_project_list&#45;&gt;entrypoint_target_operation_project_list -->
<g id="edge3" class="edge">
<title>entrypoint_input_entry_point_api_project_list&#45;&gt;entrypoint_target_operation_project_list</title>
<path fill="none" stroke="#3f3f46" d="M529.22,-105C544.54,-105 562.78,-105 581.56,-105"/>
<polygon fill="#3f3f46" stroke="#3f3f46" points="581.63,-107.8 589.63,-105 581.63,-102.2 581.63,-107.8"/>
</g>
<!-- entrypoint_response_entry_point_api_project_list_listed -->
<g id="node6" class="node">
<title>entrypoint_response_entry_point_api_project_list_listed</title>
<polygon fill="#ffffff" stroke="transparent" points="874,-119 874,-211 1034,-211 1034,-119 874,-119"/>
<polygon fill="#64748b" stroke="transparent" points="875,-202 875,-210 1033,-210 1033,-202 875,-202"/>
<polygon fill="#f8fafc" stroke="transparent" points="875,-171 875,-202 1033,-202 1033,-171 875,-171"/>
<text text-anchor="start" x="879" y="-188.6" font-family="Arial" font-weight="bold" font-size="13.00">listed</text>
<text text-anchor="start" x="879" y="-177.6" font-family="Arial" font-size="8.00" fill="#64748b">success response</text>
<text text-anchor="start" x="880" y="-159" font-family="Arial" font-weight="bold" font-size="10.00">status:</text>
<text text-anchor="start" x="911" y="-159" font-family="Arial" font-size="10.00">  200</text>
<text text-anchor="start" x="879" y="-139" font-family="Arial" font-weight="bold" font-size="10.00">body</text>
<text text-anchor="start" x="879" y="-128" font-family="Arial" font-size="10.00">body</text>
<text text-anchor="start" x="901" y="-128" font-family="Arial" font-size="8.00" fill="#94a3b8">  array&lt;Project&gt;</text>
<text text-anchor="start" x="959" y="-128" font-family="Arial" font-size="8.00"> ← $outcome.result</text>
<polygon fill="none" stroke="#64748b" points="874,-119 874,-211 1034,-211 1034,-119 874,-119"/>
</g>
<!-- entrypoint_target_operation_project_list&#45;&gt;entrypoint_response_entry_point_api_project_list_listed -->
<g id="edge4" class="edge">
<title>entrypoint_target_operation_project_list&#45;&gt;entrypoint_response_entry_point_api_project_list_listed</title>
<path fill="none" stroke="#3f3f46" d="M813.1,-131.49C830.67,-135.7 848.63,-140 865.58,-144.06"/>
<polygon fill="#3f3f46" stroke="#3f3f46" points="865.37,-146.89 873.8,-146.03 866.68,-141.44 865.37,-146.89"/>
</g>
<!-- entrypoint_response_entry_point_api_project_list_unavailable -->
<g id="node7" class="node">
<title>entrypoint_response_entry_point_api_project_list_unavailable</title>
<polygon fill="#ffffff" stroke="transparent" points="885.5,0 885.5,-92 1022.5,-92 1022.5,0 885.5,0"/>
<polygon fill="#64748b" stroke="transparent" points="887,-83 887,-91 1022,-91 1022,-83 887,-83"/>
<polygon fill="#f8fafc" stroke="transparent" points="887,-52 887,-83 1022,-83 1022,-52 887,-52"/>
<text text-anchor="start" x="891" y="-69.6" font-family="Arial" font-weight="bold" font-size="13.00">unavailable</text>
<text text-anchor="start" x="891" y="-58.6" font-family="Arial" font-size="8.00" fill="#64748b">failure response</text>
<text text-anchor="start" x="892" y="-40" font-family="Arial" font-weight="bold" font-size="10.00">status:</text>
<text text-anchor="start" x="923" y="-40" font-family="Arial" font-size="10.00">  503</text>
<text text-anchor="start" x="891" y="-20" font-family="Arial" font-weight="bold" font-size="10.00">body</text>
<text text-anchor="start" x="891" y="-9" font-family="Arial" font-size="10.00">body</text>
<text text-anchor="start" x="913" y="-9" font-family="Arial" font-size="8.00" fill="#94a3b8">  Problem</text>
<text text-anchor="start" x="948" y="-9" font-family="Arial" font-size="8.00"> ← $outcome.result</text>
<polygon fill="none" stroke="#64748b" points="885.5,0 885.5,-92 1022.5,-92 1022.5,0 885.5,0"/>
</g>
<!-- entrypoint_target_operation_project_list&#45;&gt;entrypoint_response_entry_point_api_project_list_unavailable -->
<g id="edge6" class="edge">
<title>entrypoint_target_operation_project_list&#45;&gt;entrypoint_response_entry_point_api_project_list_unavailable</title>
<path fill="none" stroke="#3f3f46" d="M813.1,-78.95C834.85,-73.83 857.21,-68.56 877.48,-63.79"/>
<polygon fill="#3f3f46" stroke="#3f3f46" points="878.29,-66.47 885.44,-61.91 877.01,-61.02 878.29,-66.47"/>
</g>
<!-- entry_exit -->
<g id="node5" class="node">
<title>entry_exit</title>
<ellipse fill="none" stroke="#0891b2" cx="1120" cy="-105" rx="21" ry="21"/>
<ellipse fill="none" stroke="#0891b2" cx="1120" cy="-105" rx="25" ry="25"/>
<text text-anchor="middle" x="1120" y="-102.8" font-family="Arial" font-size="9.00" fill="#155e75">exit</text>
</g>
<!-- entrypoint_response_entry_point_api_project_list_listed&#45;&gt;entry_exit -->
<g id="edge5" class="edge">
<title>entrypoint_response_entry_point_api_project_list_listed&#45;&gt;entry_exit</title>
<path fill="none" stroke="#3f3f46" d="M1034.12,-136.05C1053.51,-128.96 1073.11,-121.79 1088.59,-116.13"/>
<polygon fill="#3f3f46" stroke="#3f3f46" points="1089.73,-118.69 1096.29,-113.31 1087.81,-113.43 1089.73,-118.69"/>
</g>
<!-- entrypoint_response_entry_point_api_project_list_listed&#45;&gt;entrypoint_response_entry_point_api_project_list_unavailable -->
<!-- entrypoint_response_entry_point_api_project_list_unavailable&#45;&gt;entry_exit -->
<g id="edge7" class="edge">
<title>entrypoint_response_entry_point_api_project_list_unavailable&#45;&gt;entry_exit</title>
<path fill="none" stroke="#3f3f46" d="M1022.65,-70.34C1045.66,-78.62 1070.22,-87.45 1088.79,-94.13"/>
<polygon fill="#3f3f46" stroke="#3f3f46" points="1087.88,-96.78 1096.36,-96.85 1089.78,-91.51 1087.88,-96.78"/>
</g>
</g>
</svg>
