<svg width="934pt" height="247pt"
 viewBox="0.00 0.00 934.00 247.00" xmlns="http://www.w3.org/2000/svg" xmlns:xlink="http://www.w3.org/1999/xlink">
<!-- pyspec-contract-input-sha256: 8c8cdc9285876e1f37f35af257872cf74f25de0350f858fa9449e664053ccc9b -->
<g id="graph0" class="graph" transform="scale(1 1) rotate(0) translate(18 229)">
<title>entrypoint_entry_point_api_project_create</title>
<!-- entrypoint_entry_point_api_project_create -->
<g id="node1" class="node">
<title>entrypoint_entry_point_api_project_create</title>
<polygon fill="#ffffff" stroke="transparent" points="0,-58.5 0,-151.5 290,-151.5 290,-58.5 0,-58.5"/>
<polygon fill="#0891b2" stroke="transparent" points="1,-142 1,-150 289,-150 289,-142 1,-142"/>
<polygon fill="#ecfeff" stroke="transparent" points="1,-111 1,-142 289,-142 289,-111 1,-111"/>
<text text-anchor="start" x="5" y="-128.6" font-family="Arial" font-weight="bold" font-size="13.00">POST /workspaces/{workspace_id}/projects</text>
<text text-anchor="start" x="5" y="-117.6" font-family="Arial" font-size="8.00" fill="#64748b">http_api entry point</text>
<text text-anchor="start" x="5" y="-100" font-family="Arial" font-style="italic" font-size="10.00" fill="#3f3f46">HTTP endpoint for creating a dispatch project.</text>
<text text-anchor="start" x="6" y="-80" font-family="Arial" font-weight="bold" font-size="10.00">endpoint:</text>
<text text-anchor="start" x="51" y="-80" font-family="Arial" font-size="10.00">  endpoint.project.create</text>
<text text-anchor="start" x="6" y="-68" font-family="Arial" font-weight="bold" font-size="10.00">authorization_policy:</text>
<text text-anchor="start" x="105" y="-68" font-family="Arial" font-size="10.00">  authorization_policy.project.create</text>
<polygon fill="none" stroke="#0891b2" points="0,-58.5 0,-151.5 290,-151.5 290,-58.5 0,-58.5"/>
</g>
<!-- entrypoint_input_entry_point_api_project_create -->
<g id="node2" class="node">
<title>entrypoint_input_entry_point_api_project_create</title>
<polygon fill="#ffffff" stroke="transparent" points="351,-43.5 351,-166.5 435,-166.5 435,-43.5 351,-43.5"/>
<polygon fill="#64748b" stroke="transparent" points="352,-157 352,-165 434,-165 434,-157 352,-157"/>
<polygon fill="#f8fafc" stroke="transparent" points="352,-126 352,-157 434,-157 434,-126 352,-126"/>
<text text-anchor="start" x="356" y="-143.6" font-family="Arial" font-weight="bold" font-size="13.00">request</text>
<text text-anchor="start" x="356" y="-132.6" font-family="Arial" font-size="8.00" fill="#64748b">external data</text>
<text text-anchor="start" x="356" y="-115" font-family="Arial" font-weight="bold" font-size="10.00">path params</text>
<text text-anchor="start" x="356" y="-104" font-family="Arial" font-size="10.00">workspace_id</text>
<text text-anchor="start" x="417" y="-104" font-family="Arial" font-size="8.00" fill="#94a3b8">  ID</text>
<text text-anchor="start" x="356" y="-85" font-family="Arial" font-weight="bold" font-size="10.00">body</text>
<text text-anchor="start" x="356" y="-74" font-family="Arial" font-size="10.00">customer</text>
<text text-anchor="start" x="397" y="-74" font-family="Arial" font-size="8.00" fill="#94a3b8">  Text</text>
<text text-anchor="start" x="356" y="-63" font-family="Arial" font-size="10.00">priority</text>
<text text-anchor="start" x="386" y="-63" font-family="Arial" font-size="8.00" fill="#94a3b8">  Text</text>
<text text-anchor="start" x="356" y="-52" font-family="Arial" font-size="10.00">title</text>
<text text-anchor="start" x="372" y="-52" font-family="Arial" font-size="8.00" fill="#94a3b8">  Text</text>
<polygon fill="none" stroke="#64748b" points="351,-43.5 351,-166.5 435,-166.5 435,-43.5 351,-43.5"/>
</g>
<!-- entrypoint_entry_point_api_project_create&#45;&gt;entrypoint_input_entry_point_api_project_create -->
<g id="edge1" class="edge">
<title>entrypoint_entry_point_api_project_create&#45;&gt;entrypoint_input_entry_point_api_project_create</title>
<path fill="none" stroke="#3f3f46" d="M290.17,-105C308.92,-105 327,-105 342.59,-105"/>
<polygon fill="#3f3f46" stroke="#3f3f46" points="342.98,-107.8 350.98,-105 342.98,-102.2 342.98,-107.8"/>
</g>
<!-- entrypoint_target_operation_project_create -->
<g id="node3" class="node">
<title>entrypoint_target_operation_project_create</title>
<polygon fill="#ffffff" stroke="transparent" points="496,-64.5 496,-145.5 700,-145.5 700,-64.5 496,-64.5"/>
<polygon fill="#2563eb" stroke="transparent" points="497,-136 497,-144 699,-144 699,-136 497,-136"/>
<polygon fill="#eff6ff" stroke="transparent" points="497,-105 497,-136 699,-136 699,-105 497,-105"/>
<text text-anchor="start" x="501" y="-122.6" font-family="Arial" font-weight="bold" font-size="13.00">operation.project.create</text>
<text text-anchor="start" x="501" y="-111.6" font-family="Arial" font-size="8.00" fill="#64748b">target operation</text>
<text text-anchor="start" x="501" y="-94" font-family="Arial" font-style="italic" font-size="10.00" fill="#3f3f46">Members can create a new dispatch project.</text>
<text text-anchor="start" x="502" y="-74" font-family="Arial" font-weight="bold" font-size="10.00">kind:</text>
<text text-anchor="start" x="526" y="-74" font-family="Arial" font-size="10.00">  command</text>
<polygon fill="none" stroke="#2563eb" points="496,-64.5 496,-145.5 700,-145.5 700,-64.5 496,-64.5"/>
</g>
<!-- entrypoint_input_entry_point_api_project_create&#45;&gt;entrypoint_target_operation_project_create -->
<g id="edge2" class="edge">
<title>entrypoint_input_entry_point_api_project_create&#45;&gt;entrypoint_target_operation_project_create</title>
<path fill="none" stroke="#3f3f46" d="M435.08,-105C450.59,-105 469.06,-105 487.88,-105"/>
<polygon fill="#3f3f46" stroke="#3f3f46" points="487.96,-107.8 495.96,-105 487.96,-102.2 487.96,-107.8"/>
</g>
<!-- entrypoint_response_entry_point_api_project_create_created -->
<g id="node4" class="node">
<title>entrypoint_response_entry_point_api_project_create_created</title>
<polygon fill="#ffffff" stroke="transparent" points="763.5,-119 763.5,-211 895.5,-211 895.5,-119 763.5,-119"/>
<polygon fill="#16a34a" stroke="transparent" points="764.5,-202 764.5,-210 894.5,-210 894.5,-202 764.5,-202"/>
<polygon fill="#f0fdf4" stroke="transparent" points="764.5,-171 764.5,-202 894.5,-202 894.5,-171 764.5,-171"/>
<text text-anchor="start" x="768.5" y="-188.6" font-family="Arial" font-weight="bold" font-size="13.00">created</text>
<text text-anchor="start" x="768.5" y="-177.6" font-family="Arial" font-size="8.00" fill="#64748b">success response</text>
<text text-anchor="start" x="769.5" y="-159" font-family="Arial" font-weight="bold" font-size="10.00">status:</text>
<text text-anchor="start" x="800.5" y="-159" font-family="Arial" font-size="10.00">  201</text>
<text text-anchor="start" x="768.5" y="-139" font-family="Arial" font-weight="bold" font-size="10.00">body</text>
<text text-anchor="start" x="768.5" y="-128" font-family="Arial" font-size="10.00">body</text>
<text text-anchor="start" x="790.5" y="-128" font-family="Arial" font-size="8.00" fill="#94a3b8">  Project</text>
<text text-anchor="start" x="820.5" y="-128" font-family="Arial" font-size="8.00"> ← $outcome.result</text>
<polygon fill="none" stroke="#16a34a" points="763.5,-119 763.5,-211 895.5,-211 895.5,-119 763.5,-119"/>
</g>
<!-- entrypoint_target_operation_project_create&#45;&gt;entrypoint_response_entry_point_api_project_create_created -->
<g id="edge3" class="edge">
<title>entrypoint_target_operation_project_create&#45;&gt;entrypoint_response_entry_point_api_project_create_created</title>
<path fill="none" stroke="#3f3f46" d="M700.33,-131.49C718.87,-136.34 737.87,-141.31 755.39,-145.89"/>
<polygon fill="#3f3f46" stroke="#3f3f46" points="754.87,-148.64 763.32,-147.96 756.29,-143.23 754.87,-148.64"/>
</g>
<!-- entrypoint_response_entry_point_api_project_create_validation_failed -->
<g id="node5" class="node">
<title>entrypoint_response_entry_point_api_project_create_validation_failed</title>
<polygon fill="#ffffff" stroke="transparent" points="761,0 761,-92 898,-92 898,0 761,0"/>
<polygon fill="#dc2626" stroke="transparent" points="762.5,-83 762.5,-91 897.5,-91 897.5,-83 762.5,-83"/>
<polygon fill="#fef2f2" stroke="transparent" points="762.5,-52 762.5,-83 897.5,-83 897.5,-52 762.5,-52"/>
<text text-anchor="start" x="766.5" y="-69.6" font-family="Arial" font-weight="bold" font-size="13.00">validation_failed</text>
<text text-anchor="start" x="766.5" y="-58.6" font-family="Arial" font-size="8.00" fill="#64748b">failure response</text>
<text text-anchor="start" x="767.5" y="-40" font-family="Arial" font-weight="bold" font-size="10.00">status:</text>
<text text-anchor="start" x="798.5" y="-40" font-family="Arial" font-size="10.00">  422</text>
<text text-anchor="start" x="766.5" y="-20" font-family="Arial" font-weight="bold" font-size="10.00">body</text>
<text text-anchor="start" x="766.5" y="-9" font-family="Arial" font-size="10.00">body</text>
<text text-anchor="start" x="788.5" y="-9" font-family="Arial" font-size="8.00" fill="#94a3b8">  Problem</text>
<text text-anchor="start" x="823.5" y="-9" font-family="Arial" font-size="8.00"> ← $outcome.result</text>
<polygon fill="none" stroke="#dc2626" points="761,0 761,-92 898,-92 898,0 761,0"/>
</g>
<!-- entrypoint_target_operation_project_create&#45;&gt;entrypoint_response_entry_point_api_project_create_validation_failed -->
<g id="edge4" class="edge">
<title>entrypoint_target_operation_project_create&#45;&gt;entrypoint_response_entry_point_api_project_create_validation_failed</title>
<path fill="none" stroke="#3f3f46" d="M700.33,-78.95C717.98,-74.41 736.05,-69.77 752.86,-65.45"/>
<polygon fill="#3f3f46" stroke="#3f3f46" points="753.94,-68.06 760.99,-63.35 752.55,-62.63 753.94,-68.06"/>
</g>
<!-- entrypoint_response_entry_point_api_project_create_created&#45;&gt;entrypoint_response_entry_point_api_project_create_validation_failed -->
</g>
</svg>
