<svg width="789pt" height="247pt"
 viewBox="0.00 0.00 789.00 247.00" xmlns="http://www.w3.org/2000/svg" xmlns:xlink="http://www.w3.org/1999/xlink">
<!-- pyspec-contract-input-sha256: c426c1f13aafea18513c9eaa4e9ec6f1efabd97a15ffee6788639592dd15d8a6 -->
<g id="graph0" class="graph" transform="scale(1 1) rotate(0) translate(18 229)">
<title>entrypoint_entry_point_api_project_create</title>
<!-- entrypoint_entry_point_api_project_create -->
<g id="node1" class="node">
<title>entrypoint_entry_point_api_project_create</title>
<polygon fill="#ffffff" stroke="transparent" points="0,-17.5 0,-192.5 290,-192.5 290,-17.5 0,-17.5"/>
<polygon fill="#0891b2" stroke="transparent" points="1,-183 1,-191 289,-191 289,-183 1,-183"/>
<polygon fill="#ecfeff" stroke="transparent" points="1,-152 1,-183 289,-183 289,-152 1,-152"/>
<text text-anchor="start" x="5" y="-169.6" font-family="Arial" font-weight="bold" font-size="13.00">POST /workspaces/{workspace_id}/projects</text>
<text text-anchor="start" x="5" y="-158.6" font-family="Arial" font-size="8.00" fill="#64748b">http_api entry point</text>
<text text-anchor="start" x="5" y="-141" font-family="Arial" font-style="italic" font-size="10.00" fill="#3f3f46">HTTP endpoint for creating a dispatch project.</text>
<text text-anchor="start" x="6" y="-121" font-family="Arial" font-weight="bold" font-size="10.00">endpoint:</text>
<text text-anchor="start" x="51" y="-121" font-family="Arial" font-size="10.00">  endpoint.project.create</text>
<text text-anchor="start" x="6" y="-109" font-family="Arial" font-weight="bold" font-size="10.00">authorization_policy:</text>
<text text-anchor="start" x="105" y="-109" font-family="Arial" font-size="10.00">  authorization_policy.project.create</text>
<text text-anchor="start" x="5" y="-89" font-family="Arial" font-weight="bold" font-size="10.00">path params</text>
<text text-anchor="start" x="5" y="-78" font-family="Arial" font-size="10.00">workspace_id</text>
<text text-anchor="start" x="66" y="-78" font-family="Arial" font-size="8.00" fill="#94a3b8">  ID</text>
<text text-anchor="start" x="5" y="-59" font-family="Arial" font-weight="bold" font-size="10.00">body</text>
<text text-anchor="start" x="5" y="-48" font-family="Arial" font-size="10.00">customer</text>
<text text-anchor="start" x="46" y="-48" font-family="Arial" font-size="8.00" fill="#94a3b8">  Text</text>
<text text-anchor="start" x="5" y="-37" font-family="Arial" font-size="10.00">priority</text>
<text text-anchor="start" x="35" y="-37" font-family="Arial" font-size="8.00" fill="#94a3b8">  Text</text>
<text text-anchor="start" x="5" y="-26" font-family="Arial" font-size="10.00">title</text>
<text text-anchor="start" x="21" y="-26" font-family="Arial" font-size="8.00" fill="#94a3b8">  Text</text>
<polygon fill="none" stroke="#0891b2" points="0,-17.5 0,-192.5 290,-192.5 290,-17.5 0,-17.5"/>
</g>
<!-- entrypoint_target_operation_project_create -->
<g id="node2" class="node">
<title>entrypoint_target_operation_project_create</title>
<polygon fill="#ffffff" stroke="transparent" points="351,-64.5 351,-145.5 555,-145.5 555,-64.5 351,-64.5"/>
<polygon fill="#2563eb" stroke="transparent" points="352,-136 352,-144 554,-144 554,-136 352,-136"/>
<polygon fill="#eff6ff" stroke="transparent" points="352,-105 352,-136 554,-136 554,-105 352,-105"/>
<text text-anchor="start" x="356" y="-122.6" font-family="Arial" font-weight="bold" font-size="13.00">operation.project.create</text>
<text text-anchor="start" x="356" y="-111.6" font-family="Arial" font-size="8.00" fill="#64748b">target operation</text>
<text text-anchor="start" x="356" y="-94" font-family="Arial" font-style="italic" font-size="10.00" fill="#3f3f46">Members can create a new dispatch project.</text>
<text text-anchor="start" x="357" y="-74" font-family="Arial" font-weight="bold" font-size="10.00">kind:</text>
<text text-anchor="start" x="381" y="-74" font-family="Arial" font-size="10.00">  command</text>
<polygon fill="none" stroke="#2563eb" points="351,-64.5 351,-145.5 555,-145.5 555,-64.5 351,-64.5"/>
</g>
<!-- entrypoint_entry_point_api_project_create&#45;&gt;entrypoint_target_operation_project_create -->
<g id="edge1" class="edge">
<title>entrypoint_entry_point_api_project_create&#45;&gt;entrypoint_target_operation_project_create</title>
<path fill="none" stroke="#3f3f46" d="M290.04,-105C307.62,-105 325.37,-105 342.33,-105"/>
<polygon fill="#3f3f46" stroke="#3f3f46" points="342.6,-107.8 350.6,-105 342.6,-102.2 342.6,-107.8"/>
</g>
<!-- entrypoint_response_entry_point_api_project_create_created -->
<g id="node3" class="node">
<title>entrypoint_response_entry_point_api_project_create_created</title>
<polygon fill="#ffffff" stroke="transparent" points="618.5,-119 618.5,-211 750.5,-211 750.5,-119 618.5,-119"/>
<polygon fill="#16a34a" stroke="transparent" points="619.5,-202 619.5,-210 749.5,-210 749.5,-202 619.5,-202"/>
<polygon fill="#f0fdf4" stroke="transparent" points="619.5,-171 619.5,-202 749.5,-202 749.5,-171 619.5,-171"/>
<text text-anchor="start" x="623.5" y="-188.6" font-family="Arial" font-weight="bold" font-size="13.00">created</text>
<text text-anchor="start" x="623.5" y="-177.6" font-family="Arial" font-size="8.00" fill="#64748b">success response</text>
<text text-anchor="start" x="624.5" y="-159" font-family="Arial" font-weight="bold" font-size="10.00">status:</text>
<text text-anchor="start" x="655.5" y="-159" font-family="Arial" font-size="10.00">  201</text>
<text text-anchor="start" x="623.5" y="-139" font-family="Arial" font-weight="bold" font-size="10.00">body</text>
<text text-anchor="start" x="623.5" y="-128" font-family="Arial" font-size="10.00">body</text>
<text text-anchor="start" x="645.5" y="-128" font-family="Arial" font-size="8.00" fill="#94a3b8">  Project</text>
<text text-anchor="start" x="675.5" y="-128" font-family="Arial" font-size="8.00"> ← $outcome.result</text>
<polygon fill="none" stroke="#16a34a" points="618.5,-119 618.5,-211 750.5,-211 750.5,-119 618.5,-119"/>
</g>
<!-- entrypoint_target_operation_project_create&#45;&gt;entrypoint_response_entry_point_api_project_create_created -->
<g id="edge2" class="edge">
<title>entrypoint_target_operation_project_create&#45;&gt;entrypoint_response_entry_point_api_project_create_created</title>
<path fill="none" stroke="#3f3f46" d="M555.33,-131.49C573.87,-136.34 592.87,-141.31 610.39,-145.89"/>
<polygon fill="#3f3f46" stroke="#3f3f46" points="609.87,-148.64 618.32,-147.96 611.29,-143.23 609.87,-148.64"/>
</g>
<!-- entrypoint_response_entry_point_api_project_create_validation_failed -->
<g id="node4" class="node">
<title>entrypoint_response_entry_point_api_project_create_validation_failed</title>
<polygon fill="#ffffff" stroke="transparent" points="616,0 616,-92 753,-92 753,0 616,0"/>
<polygon fill="#dc2626" stroke="transparent" points="617.5,-83 617.5,-91 752.5,-91 752.5,-83 617.5,-83"/>
<polygon fill="#fef2f2" stroke="transparent" points="617.5,-52 617.5,-83 752.5,-83 752.5,-52 617.5,-52"/>
<text text-anchor="start" x="621.5" y="-69.6" font-family="Arial" font-weight="bold" font-size="13.00">validation_failed</text>
<text text-anchor="start" x="621.5" y="-58.6" font-family="Arial" font-size="8.00" fill="#64748b">failure response</text>
<text text-anchor="start" x="622.5" y="-40" font-family="Arial" font-weight="bold" font-size="10.00">status:</text>
<text text-anchor="start" x="653.5" y="-40" font-family="Arial" font-size="10.00">  422</text>
<text text-anchor="start" x="621.5" y="-20" font-family="Arial" font-weight="bold" font-size="10.00">body</text>
<text text-anchor="start" x="621.5" y="-9" font-family="Arial" font-size="10.00">body</text>
<text text-anchor="start" x="643.5" y="-9" font-family="Arial" font-size="8.00" fill="#94a3b8">  Problem</text>
<text text-anchor="start" x="678.5" y="-9" font-family="Arial" font-size="8.00"> ← $outcome.result</text>
<polygon fill="none" stroke="#dc2626" points="616,0 616,-92 753,-92 753,0 616,0"/>
</g>
<!-- entrypoint_target_operation_project_create&#45;&gt;entrypoint_response_entry_point_api_project_create_validation_failed -->
<g id="edge3" class="edge">
<title>entrypoint_target_operation_project_create&#45;&gt;entrypoint_response_entry_point_api_project_create_validation_failed</title>
<path fill="none" stroke="#3f3f46" d="M555.33,-78.95C572.98,-74.41 591.05,-69.77 607.86,-65.45"/>
<polygon fill="#3f3f46" stroke="#3f3f46" points="608.94,-68.06 615.99,-63.35 607.55,-62.63 608.94,-68.06"/>
</g>
<!-- entrypoint_response_entry_point_api_project_create_created&#45;&gt;entrypoint_response_entry_point_api_project_create_validation_failed -->
</g>
</svg>
