<svg width="845pt" height="485pt"
 viewBox="0.00 0.00 845.00 485.00" xmlns="http://www.w3.org/2000/svg" xmlns:xlink="http://www.w3.org/1999/xlink">
<!-- pyspec-contract-input-sha256: a368c7f4c82843599535b4ba81aba93e1cd5b4edfc278cb08a98f30976bedbd5 -->
<g id="graph0" class="graph" transform="scale(1 1) rotate(0) translate(18 467)">
<title>entrypoint_entry_point_api_project_create</title>
<!-- entrypoint_entry_point_api_project_create -->
<g id="node1" class="node">
<title>entrypoint_entry_point_api_project_create</title>
<polygon fill="#ffffff" stroke="transparent" points="0,-136.5 0,-311.5 290,-311.5 290,-136.5 0,-136.5"/>
<polygon fill="#0891b2" stroke="transparent" points="1,-302 1,-310 289,-310 289,-302 1,-302"/>
<polygon fill="#ecfeff" stroke="transparent" points="1,-271 1,-302 289,-302 289,-271 1,-271"/>
<text text-anchor="start" x="5" y="-288.6" font-family="Arial" font-weight="bold" font-size="13.00">POST /workspaces/{workspace_id}/projects</text>
<text text-anchor="start" x="5" y="-277.6" font-family="Arial" font-size="8.00" fill="#64748b">http_api entry point</text>
<text text-anchor="start" x="5" y="-260" font-family="Arial" font-style="italic" font-size="10.00" fill="#3f3f46">HTTP endpoint for creating a dispatch project.</text>
<text text-anchor="start" x="6" y="-240" font-family="Arial" font-weight="bold" font-size="10.00">endpoint:</text>
<text text-anchor="start" x="51" y="-240" font-family="Arial" font-size="10.00">  endpoint.project.create</text>
<text text-anchor="start" x="6" y="-228" font-family="Arial" font-weight="bold" font-size="10.00">authorization_policy:</text>
<text text-anchor="start" x="105" y="-228" font-family="Arial" font-size="10.00">  authorization_policy.project.member</text>
<text text-anchor="start" x="5" y="-208" font-family="Arial" font-weight="bold" font-size="10.00">path params</text>
<text text-anchor="start" x="5" y="-197" font-family="Arial" font-size="10.00">workspace_id</text>
<text text-anchor="start" x="66" y="-197" font-family="Arial" font-size="8.00" fill="#94a3b8">  string</text>
<text text-anchor="start" x="5" y="-178" font-family="Arial" font-weight="bold" font-size="10.00">body</text>
<text text-anchor="start" x="5" y="-167" font-family="Arial" font-size="10.00">customer</text>
<text text-anchor="start" x="46" y="-167" font-family="Arial" font-size="8.00" fill="#94a3b8">  string</text>
<text text-anchor="start" x="5" y="-156" font-family="Arial" font-size="10.00">priority</text>
<text text-anchor="start" x="35" y="-156" font-family="Arial" font-size="8.00" fill="#94a3b8">  string</text>
<text text-anchor="start" x="5" y="-145" font-family="Arial" font-size="10.00">title</text>
<text text-anchor="start" x="21" y="-145" font-family="Arial" font-size="8.00" fill="#94a3b8">  string</text>
<polygon fill="none" stroke="#0891b2" points="0,-136.5 0,-311.5 290,-311.5 290,-136.5 0,-136.5"/>
</g>
<!-- entrypoint_target_application_action_project_create -->
<g id="node2" class="node">
<title>entrypoint_target_application_action_project_create</title>
<polygon fill="#ffffff" stroke="transparent" points="351,-157.5 351,-290.5 584,-290.5 584,-157.5 351,-157.5"/>
<polygon fill="#2563eb" stroke="transparent" points="352.5,-281 352.5,-289 583.5,-289 583.5,-281 352.5,-281"/>
<polygon fill="#eff6ff" stroke="transparent" points="352.5,-250 352.5,-281 583.5,-281 583.5,-250 352.5,-250"/>
<text text-anchor="start" x="356.5" y="-267.6" font-family="Arial" font-weight="bold" font-size="13.00">application_action.project.create</text>
<text text-anchor="start" x="356.5" y="-256.6" font-family="Arial" font-size="8.00" fill="#64748b">target application action</text>
<text text-anchor="start" x="356.5" y="-239" font-family="Arial" font-style="italic" font-size="10.00" fill="#3f3f46">Members can create a new dispatch project.</text>
<text text-anchor="start" x="357.5" y="-219" font-family="Arial" font-weight="bold" font-size="10.00">kind:</text>
<text text-anchor="start" x="381.5" y="-219" font-family="Arial" font-size="10.00">  command</text>
<text text-anchor="start" x="356.5" y="-199" font-family="Arial" font-weight="bold" font-size="10.00">authorization</text>
<text text-anchor="start" x="356.5" y="-187" font-family="Arial" font-size="10.00">policy: authorization_policy.project.member</text>
<text text-anchor="start" x="356.5" y="-176" font-family="Arial" font-size="10.00">authentication_required_as: authentication_required</text>
<text text-anchor="start" x="356.5" y="-165" font-family="Arial" font-size="10.00">access_denied_as: access_denied</text>
<polygon fill="none" stroke="#2563eb" points="351,-157.5 351,-290.5 584,-290.5 584,-157.5 351,-157.5"/>
</g>
<!-- entrypoint_entry_point_api_project_create&#45;&gt;entrypoint_target_application_action_project_create -->
<g id="edge1" class="edge">
<title>entrypoint_entry_point_api_project_create&#45;&gt;entrypoint_target_application_action_project_create</title>
<path fill="none" stroke="#3f3f46" d="M290.31,-224C307.73,-224 325.4,-224 342.5,-224"/>
<polygon fill="#3f3f46" stroke="#3f3f46" points="342.84,-226.8 350.84,-224 342.84,-221.2 342.84,-226.8"/>
</g>
<!-- entrypoint_response_entry_point_api_project_create_access_denied -->
<g id="node3" class="node">
<title>entrypoint_response_entry_point_api_project_create_access_denied</title>
<polygon fill="#ffffff" stroke="transparent" points="658.5,-357 658.5,-449 795.5,-449 795.5,-357 658.5,-357"/>
<polygon fill="#dc2626" stroke="transparent" points="660,-440 660,-448 795,-448 795,-440 660,-440"/>
<polygon fill="#fef2f2" stroke="transparent" points="660,-409 660,-440 795,-440 795,-409 660,-409"/>
<text text-anchor="start" x="664" y="-426.6" font-family="Arial" font-weight="bold" font-size="13.00">access_denied</text>
<text text-anchor="start" x="664" y="-415.6" font-family="Arial" font-size="8.00" fill="#64748b">failure response</text>
<text text-anchor="start" x="665" y="-397" font-family="Arial" font-weight="bold" font-size="10.00">status:</text>
<text text-anchor="start" x="696" y="-397" font-family="Arial" font-size="10.00">  403</text>
<text text-anchor="start" x="664" y="-377" font-family="Arial" font-weight="bold" font-size="10.00">body</text>
<text text-anchor="start" x="664" y="-366" font-family="Arial" font-size="10.00">body</text>
<text text-anchor="start" x="686" y="-366" font-family="Arial" font-size="8.00" fill="#94a3b8">  Problem</text>
<text text-anchor="start" x="721" y="-366" font-family="Arial" font-size="8.00"> ← $outcome.result</text>
<polygon fill="none" stroke="#dc2626" points="658.5,-357 658.5,-449 795.5,-449 795.5,-357 658.5,-357"/>
</g>
<!-- entrypoint_target_application_action_project_create&#45;&gt;entrypoint_response_entry_point_api_project_create_access_denied -->
<g id="edge2" class="edge">
<title>entrypoint_target_application_action_project_create&#45;&gt;entrypoint_response_entry_point_api_project_create_access_denied</title>
<path fill="none" stroke="#3f3f46" d="M564.38,-290.65C593.65,-311 625.34,-333.03 652.84,-352.14"/>
<polygon fill="#3f3f46" stroke="#3f3f46" points="651.57,-354.67 659.74,-356.94 654.77,-350.07 651.57,-354.67"/>
</g>
<!-- entrypoint_response_entry_point_api_project_create_authentication_required -->
<g id="node4" class="node">
<title>entrypoint_response_entry_point_api_project_create_authentication_required</title>
<polygon fill="#ffffff" stroke="transparent" points="645,-238 645,-330 809,-330 809,-238 645,-238"/>
<polygon fill="#dc2626" stroke="transparent" points="646,-321 646,-329 808,-329 808,-321 646,-321"/>
<polygon fill="#fef2f2" stroke="transparent" points="646,-290 646,-321 808,-321 808,-290 646,-290"/>
<text text-anchor="start" x="650" y="-307.6" font-family="Arial" font-weight="bold" font-size="13.00">authentication_required</text>
<text text-anchor="start" x="650" y="-296.6" font-family="Arial" font-size="8.00" fill="#64748b">failure response</text>
<text text-anchor="start" x="651" y="-278" font-family="Arial" font-weight="bold" font-size="10.00">status:</text>
<text text-anchor="start" x="682" y="-278" font-family="Arial" font-size="10.00">  401</text>
<text text-anchor="start" x="650" y="-258" font-family="Arial" font-weight="bold" font-size="10.00">body</text>
<text text-anchor="start" x="650" y="-247" font-family="Arial" font-size="10.00">body</text>
<text text-anchor="start" x="672" y="-247" font-family="Arial" font-size="8.00" fill="#94a3b8">  Problem</text>
<text text-anchor="start" x="707" y="-247" font-family="Arial" font-size="8.00"> ← $outcome.result</text>
<polygon fill="none" stroke="#dc2626" points="645,-238 645,-330 809,-330 809,-238 645,-238"/>
</g>
<!-- entrypoint_target_application_action_project_create&#45;&gt;entrypoint_response_entry_point_api_project_create_authentication_required -->
<g id="edge3" class="edge">
<title>entrypoint_target_application_action_project_create&#45;&gt;entrypoint_response_entry_point_api_project_create_authentication_required</title>
<path fill="none" stroke="#3f3f46" d="M584.07,-250.93C601.65,-255.02 619.56,-259.2 636.47,-263.14"/>
<polygon fill="#3f3f46" stroke="#3f3f46" points="636.26,-265.96 644.69,-265.05 637.53,-260.51 636.26,-265.96"/>
</g>
<!-- entrypoint_response_entry_point_api_project_create_created -->
<g id="node5" class="node">
<title>entrypoint_response_entry_point_api_project_create_created</title>
<polygon fill="#ffffff" stroke="transparent" points="661,-119 661,-211 793,-211 793,-119 661,-119"/>
<polygon fill="#16a34a" stroke="transparent" points="662,-202 662,-210 792,-210 792,-202 662,-202"/>
<polygon fill="#f0fdf4" stroke="transparent" points="662,-171 662,-202 792,-202 792,-171 662,-171"/>
<text text-anchor="start" x="666" y="-188.6" font-family="Arial" font-weight="bold" font-size="13.00">created</text>
<text text-anchor="start" x="666" y="-177.6" font-family="Arial" font-size="8.00" fill="#64748b">success response</text>
<text text-anchor="start" x="667" y="-159" font-family="Arial" font-weight="bold" font-size="10.00">status:</text>
<text text-anchor="start" x="698" y="-159" font-family="Arial" font-size="10.00">  201</text>
<text text-anchor="start" x="666" y="-139" font-family="Arial" font-weight="bold" font-size="10.00">body</text>
<text text-anchor="start" x="666" y="-128" font-family="Arial" font-size="10.00">body</text>
<text text-anchor="start" x="688" y="-128" font-family="Arial" font-size="8.00" fill="#94a3b8">  Project</text>
<text text-anchor="start" x="718" y="-128" font-family="Arial" font-size="8.00"> ← $outcome.result</text>
<polygon fill="none" stroke="#16a34a" points="661,-119 661,-211 793,-211 793,-119 661,-119"/>
</g>
<!-- entrypoint_target_application_action_project_create&#45;&gt;entrypoint_response_entry_point_api_project_create_created -->
<g id="edge4" class="edge">
<title>entrypoint_target_application_action_project_create&#45;&gt;entrypoint_response_entry_point_api_project_create_created</title>
<path fill="none" stroke="#3f3f46" d="M584.07,-197.52C607.42,-192.17 631.36,-186.68 652.77,-181.78"/>
<polygon fill="#3f3f46" stroke="#3f3f46" points="653.67,-184.44 660.84,-179.93 652.42,-178.99 653.67,-184.44"/>
</g>
<!-- entrypoint_response_entry_point_api_project_create_validation_failed -->
<g id="node6" class="node">
<title>entrypoint_response_entry_point_api_project_create_validation_failed</title>
<polygon fill="#ffffff" stroke="transparent" points="658.5,0 658.5,-92 795.5,-92 795.5,0 658.5,0"/>
<polygon fill="#dc2626" stroke="transparent" points="660,-83 660,-91 795,-91 795,-83 660,-83"/>
<polygon fill="#fef2f2" stroke="transparent" points="660,-52 660,-83 795,-83 795,-52 660,-52"/>
<text text-anchor="start" x="664" y="-69.6" font-family="Arial" font-weight="bold" font-size="13.00">validation_failed</text>
<text text-anchor="start" x="664" y="-58.6" font-family="Arial" font-size="8.00" fill="#64748b">failure response</text>
<text text-anchor="start" x="665" y="-40" font-family="Arial" font-weight="bold" font-size="10.00">status:</text>
<text text-anchor="start" x="696" y="-40" font-family="Arial" font-size="10.00">  422</text>
<text text-anchor="start" x="664" y="-20" font-family="Arial" font-weight="bold" font-size="10.00">body</text>
<text text-anchor="start" x="664" y="-9" font-family="Arial" font-size="10.00">body</text>
<text text-anchor="start" x="686" y="-9" font-family="Arial" font-size="8.00" fill="#94a3b8">  Problem</text>
<text text-anchor="start" x="721" y="-9" font-family="Arial" font-size="8.00"> ← $outcome.result</text>
<polygon fill="none" stroke="#dc2626" points="658.5,0 658.5,-92 795.5,-92 795.5,0 658.5,0"/>
</g>
<!-- entrypoint_target_application_action_project_create&#45;&gt;entrypoint_response_entry_point_api_project_create_validation_failed -->
<g id="edge5" class="edge">
<title>entrypoint_target_application_action_project_create&#45;&gt;entrypoint_response_entry_point_api_project_create_validation_failed</title>
<path fill="none" stroke="#3f3f46" d="M564.75,-157.47C593.72,-137.44 625.04,-115.79 652.31,-96.94"/>
<polygon fill="#3f3f46" stroke="#3f3f46" points="654.16,-99.07 659.15,-92.21 650.97,-94.46 654.16,-99.07"/>
</g>
<!-- entrypoint_response_entry_point_api_project_create_access_denied&#45;&gt;entrypoint_response_entry_point_api_project_create_authentication_required -->
<!-- entrypoint_response_entry_point_api_project_create_authentication_required&#45;&gt;entrypoint_response_entry_point_api_project_create_created -->
<!-- entrypoint_response_entry_point_api_project_create_created&#45;&gt;entrypoint_response_entry_point_api_project_create_validation_failed -->
</g>
</svg>
