<svg width="995pt" height="371pt"
 viewBox="0.00 0.00 995.00 371.00" xmlns="http://www.w3.org/2000/svg" xmlns:xlink="http://www.w3.org/1999/xlink">
<!-- pyspec-contract-input-sha256: 11490ab82ce056e08d1e4d87153dccc4ea56ed7129fabe3a87656b13bba06fd8 -->
<g id="graph0" class="graph" transform="scale(1 1) rotate(0) translate(18 353)">
<title>entrypoint_entry_point_api_project_create</title>
<!-- entrypoint_entry_point_api_project_create -->
<g id="node1" class="node">
<title>entrypoint_entry_point_api_project_create</title>
<polygon fill="#ffffff" stroke="transparent" points="0,-121 0,-214 290,-214 290,-121 0,-121"/>
<polygon fill="#0891b2" stroke="transparent" points="1,-204.5 1,-212.5 289,-212.5 289,-204.5 1,-204.5"/>
<polygon fill="#ecfeff" stroke="transparent" points="1,-173.5 1,-204.5 289,-204.5 289,-173.5 1,-173.5"/>
<text text-anchor="start" x="5" y="-191.1" font-family="Arial" font-weight="bold" font-size="13.00">POST /workspaces/{workspace_id}/projects</text>
<text text-anchor="start" x="5" y="-180.1" font-family="Arial" font-size="8.00" fill="#64748b">http_api entry point</text>
<text text-anchor="start" x="5" y="-162.5" font-family="Arial" font-style="italic" font-size="10.00" fill="#3f3f46">HTTP endpoint for creating a dispatch project.</text>
<text text-anchor="start" x="6" y="-142.5" font-family="Arial" font-weight="bold" font-size="10.00">endpoint:</text>
<text text-anchor="start" x="51" y="-142.5" font-family="Arial" font-size="10.00">  endpoint.project.create</text>
<text text-anchor="start" x="6" y="-130.5" font-family="Arial" font-weight="bold" font-size="10.00">authorization_policy:</text>
<text text-anchor="start" x="105" y="-130.5" font-family="Arial" font-size="10.00">  authorization_policy.project.create</text>
<polygon fill="none" stroke="#0891b2" points="0,-121 0,-214 290,-214 290,-121 0,-121"/>
</g>
<!-- entrypoint_input_entry_point_api_project_create -->
<g id="node2" class="node">
<title>entrypoint_input_entry_point_api_project_create</title>
<polygon fill="#ffffff" stroke="transparent" points="351,-106 351,-229 435,-229 435,-106 351,-106"/>
<polygon fill="#64748b" stroke="transparent" points="352,-219.5 352,-227.5 434,-227.5 434,-219.5 352,-219.5"/>
<polygon fill="#f8fafc" stroke="transparent" points="352,-188.5 352,-219.5 434,-219.5 434,-188.5 352,-188.5"/>
<text text-anchor="start" x="356" y="-206.1" font-family="Arial" font-weight="bold" font-size="13.00">request</text>
<text text-anchor="start" x="356" y="-195.1" font-family="Arial" font-size="8.00" fill="#64748b">external data</text>
<text text-anchor="start" x="356" y="-177.5" font-family="Arial" font-weight="bold" font-size="10.00">path params</text>
<text text-anchor="start" x="356" y="-166.5" font-family="Arial" font-size="10.00">workspace_id</text>
<text text-anchor="start" x="417" y="-166.5" font-family="Arial" font-size="8.00" fill="#94a3b8">  ID</text>
<text text-anchor="start" x="356" y="-147.5" font-family="Arial" font-weight="bold" font-size="10.00">body</text>
<text text-anchor="start" x="356" y="-136.5" font-family="Arial" font-size="10.00">customer</text>
<text text-anchor="start" x="397" y="-136.5" font-family="Arial" font-size="8.00" fill="#94a3b8">  Text</text>
<text text-anchor="start" x="356" y="-125.5" font-family="Arial" font-size="10.00">priority</text>
<text text-anchor="start" x="386" y="-125.5" font-family="Arial" font-size="8.00" fill="#94a3b8">  Text</text>
<text text-anchor="start" x="356" y="-114.5" font-family="Arial" font-size="10.00">title</text>
<text text-anchor="start" x="372" y="-114.5" font-family="Arial" font-size="8.00" fill="#94a3b8">  Text</text>
<polygon fill="none" stroke="#64748b" points="351,-106 351,-229 435,-229 435,-106 351,-106"/>
</g>
<!-- entrypoint_entry_point_api_project_create&#45;&gt;entrypoint_input_entry_point_api_project_create -->
<g id="edge1" class="edge">
<title>entrypoint_entry_point_api_project_create&#45;&gt;entrypoint_input_entry_point_api_project_create</title>
<path fill="none" stroke="#3f3f46" d="M290.17,-167.5C308.92,-167.5 327,-167.5 342.59,-167.5"/>
<polygon fill="#3f3f46" stroke="#3f3f46" points="342.98,-170.3 350.98,-167.5 342.98,-164.7 342.98,-170.3"/>
</g>
<!-- entrypoint_target_operation_project_create -->
<g id="node3" class="node">
<title>entrypoint_target_operation_project_create</title>
<polygon fill="#ffffff" stroke="transparent" points="496,0 496,-335 761,-335 761,0 496,0"/>
<polygon fill="#2563eb" stroke="transparent" points="497.5,-325.5 497.5,-333.5 760.5,-333.5 760.5,-325.5 497.5,-325.5"/>
<polygon fill="#eff6ff" stroke="transparent" points="497.5,-294.5 497.5,-325.5 760.5,-325.5 760.5,-294.5 497.5,-294.5"/>
<text text-anchor="start" x="501.5" y="-312.1" font-family="Arial" font-weight="bold" font-size="13.00">operation.project.create</text>
<text text-anchor="start" x="501.5" y="-301.1" font-family="Arial" font-size="8.00" fill="#64748b">target operation</text>
<text text-anchor="start" x="501.5" y="-283.5" font-family="Arial" font-style="italic" font-size="10.00" fill="#3f3f46">Members can create a new dispatch project.</text>
<text text-anchor="start" x="502.5" y="-263.5" font-family="Arial" font-weight="bold" font-size="10.00">authorization_policy:</text>
<text text-anchor="start" x="601.5" y="-263.5" font-family="Arial" font-size="10.00">  authorization_policy.project.create</text>
<text text-anchor="start" x="502.5" y="-251.5" font-family="Arial" font-weight="bold" font-size="10.00">authorization_effect:</text>
<text text-anchor="start" x="597.5" y="-251.5" font-family="Arial" font-size="10.00">  allow</text>
<text text-anchor="start" x="502.5" y="-239.5" font-family="Arial" font-weight="bold" font-size="10.00">authorization_subjects:</text>
<text text-anchor="start" x="611.5" y="-239.5" font-family="Arial" font-size="10.00">  actor</text>
<text text-anchor="start" x="501.5" y="-219.5" font-family="Arial" font-weight="bold" font-size="10.00">authorization_targets</text>
<text text-anchor="start" x="501.5" y="-207.5" font-family="Arial" font-size="10.00">operation: operation.project.create</text>
<text text-anchor="start" x="501.5" y="-196.5" font-family="Arial" font-size="10.00">model: Project</text>
<text text-anchor="start" x="502.5" y="-177.5" font-family="Arial" font-weight="bold" font-size="10.00">authorization_conditions:</text>
<text text-anchor="start" x="622.5" y="-177.5" font-family="Arial" font-size="10.00">  unconditional true</text>
<text text-anchor="start" x="502.5" y="-165.5" font-family="Arial" font-weight="bold" font-size="10.00">creates:</text>
<text text-anchor="start" x="539.5" y="-165.5" font-family="Arial" font-size="10.00">  Project</text>
<text text-anchor="start" x="501.5" y="-145.5" font-family="Arial" font-weight="bold" font-size="10.00">input</text>
<text text-anchor="start" x="501.5" y="-134.5" font-family="Arial" font-size="10.00">customer</text>
<text text-anchor="start" x="542.5" y="-134.5" font-family="Arial" font-size="8.00" fill="#94a3b8">  Text</text>
<text text-anchor="start" x="501.5" y="-123.5" font-family="Arial" font-size="10.00">priority</text>
<text text-anchor="start" x="531.5" y="-123.5" font-family="Arial" font-size="8.00" fill="#94a3b8">  Text</text>
<text text-anchor="start" x="501.5" y="-112.5" font-family="Arial" font-size="10.00">title</text>
<text text-anchor="start" x="517.5" y="-112.5" font-family="Arial" font-size="8.00" fill="#94a3b8">  Text</text>
<text text-anchor="start" x="501.5" y="-101.5" font-family="Arial" font-size="10.00">workspace_id</text>
<text text-anchor="start" x="562.5" y="-101.5" font-family="Arial" font-size="8.00" fill="#94a3b8">  ID</text>
<text text-anchor="start" x="501.5" y="-82.5" font-family="Arial" font-weight="bold" font-size="10.00">success</text>
<text text-anchor="start" x="501.5" y="-71.5" font-family="Arial" font-size="10.00">created</text>
<text text-anchor="start" x="534.5" y="-71.5" font-family="Arial" font-size="8.00" fill="#94a3b8">  Project</text>
<text text-anchor="start" x="501.5" y="-52.5" font-family="Arial" font-weight="bold" font-size="10.00">failure</text>
<text text-anchor="start" x="501.5" y="-41.5" font-family="Arial" font-size="10.00">validation_failed</text>
<text text-anchor="start" x="571.5" y="-41.5" font-family="Arial" font-size="8.00" fill="#94a3b8">  Problem</text>
<text text-anchor="start" x="502.5" y="-21.5" font-family="Arial" font-weight="bold" font-size="10.00">emit:</text>
<text text-anchor="start" x="526.5" y="-21.5" font-family="Arial" font-size="10.00">  created → event.project.created</text>
<text text-anchor="start" x="502.5" y="-9.5" font-family="Arial" font-weight="bold" font-size="10.00">payload_schema:</text>
<text text-anchor="start" x="584.5" y="-9.5" font-family="Arial" font-size="10.00">  payload_schema</text>
<text text-anchor="start" x="664.5" y="-9.5" font-family="Arial" font-size="8.00" fill="#94a3b8">  Project</text>
<polygon fill="none" stroke="#2563eb" points="496,0 496,-335 761,-335 761,0 496,0"/>
</g>
<!-- entrypoint_input_entry_point_api_project_create&#45;&gt;entrypoint_target_operation_project_create -->
<g id="edge2" class="edge">
<title>entrypoint_input_entry_point_api_project_create&#45;&gt;entrypoint_target_operation_project_create</title>
<path fill="none" stroke="#3f3f46" d="M435.21,-167.5C450.33,-167.5 468.41,-167.5 487.36,-167.5"/>
<polygon fill="#3f3f46" stroke="#3f3f46" points="487.52,-170.3 495.52,-167.5 487.52,-164.7 487.52,-170.3"/>
</g>
<!-- entrypoint_response_entry_point_api_project_create_created -->
<g id="node4" class="node">
<title>entrypoint_response_entry_point_api_project_create_created</title>
<polygon fill="#ffffff" stroke="transparent" points="824.5,-181.5 824.5,-273.5 956.5,-273.5 956.5,-181.5 824.5,-181.5"/>
<polygon fill="#64748b" stroke="transparent" points="825.5,-264.5 825.5,-272.5 955.5,-272.5 955.5,-264.5 825.5,-264.5"/>
<polygon fill="#f8fafc" stroke="transparent" points="825.5,-233.5 825.5,-264.5 955.5,-264.5 955.5,-233.5 825.5,-233.5"/>
<text text-anchor="start" x="829.5" y="-251.1" font-family="Arial" font-weight="bold" font-size="13.00">created</text>
<text text-anchor="start" x="829.5" y="-240.1" font-family="Arial" font-size="8.00" fill="#64748b">success response</text>
<text text-anchor="start" x="830.5" y="-221.5" font-family="Arial" font-weight="bold" font-size="10.00">status:</text>
<text text-anchor="start" x="861.5" y="-221.5" font-family="Arial" font-size="10.00">  201</text>
<text text-anchor="start" x="829.5" y="-201.5" font-family="Arial" font-weight="bold" font-size="10.00">body</text>
<text text-anchor="start" x="829.5" y="-190.5" font-family="Arial" font-size="10.00">body</text>
<text text-anchor="start" x="851.5" y="-190.5" font-family="Arial" font-size="8.00" fill="#94a3b8">  Project</text>
<text text-anchor="start" x="881.5" y="-190.5" font-family="Arial" font-size="8.00"> ← $outcome.result</text>
<polygon fill="none" stroke="#64748b" points="824.5,-181.5 824.5,-273.5 956.5,-273.5 956.5,-181.5 824.5,-181.5"/>
</g>
<!-- entrypoint_target_operation_project_create&#45;&gt;entrypoint_response_entry_point_api_project_create_created -->
<g id="edge3" class="edge">
<title>entrypoint_target_operation_project_create&#45;&gt;entrypoint_response_entry_point_api_project_create_created</title>
<path fill="none" stroke="#3f3f46" d="M761.02,-197.85C780.14,-202.26 799.21,-206.66 816.58,-210.67"/>
<polygon fill="#3f3f46" stroke="#3f3f46" points="816.01,-213.42 824.44,-212.49 817.27,-207.96 816.01,-213.42"/>
</g>
<!-- entrypoint_response_entry_point_api_project_create_validation_failed -->
<g id="node5" class="node">
<title>entrypoint_response_entry_point_api_project_create_validation_failed</title>
<polygon fill="#ffffff" stroke="transparent" points="822,-62.5 822,-154.5 959,-154.5 959,-62.5 822,-62.5"/>
<polygon fill="#64748b" stroke="transparent" points="823.5,-145.5 823.5,-153.5 958.5,-153.5 958.5,-145.5 823.5,-145.5"/>
<polygon fill="#f8fafc" stroke="transparent" points="823.5,-114.5 823.5,-145.5 958.5,-145.5 958.5,-114.5 823.5,-114.5"/>
<text text-anchor="start" x="827.5" y="-132.1" font-family="Arial" font-weight="bold" font-size="13.00">validation_failed</text>
<text text-anchor="start" x="827.5" y="-121.1" font-family="Arial" font-size="8.00" fill="#64748b">failure response</text>
<text text-anchor="start" x="828.5" y="-102.5" font-family="Arial" font-weight="bold" font-size="10.00">status:</text>
<text text-anchor="start" x="859.5" y="-102.5" font-family="Arial" font-size="10.00">  422</text>
<text text-anchor="start" x="827.5" y="-82.5" font-family="Arial" font-weight="bold" font-size="10.00">body</text>
<text text-anchor="start" x="827.5" y="-71.5" font-family="Arial" font-size="10.00">body</text>
<text text-anchor="start" x="849.5" y="-71.5" font-family="Arial" font-size="8.00" fill="#94a3b8">  Problem</text>
<text text-anchor="start" x="884.5" y="-71.5" font-family="Arial" font-size="8.00"> ← $outcome.result</text>
<polygon fill="none" stroke="#64748b" points="822,-62.5 822,-154.5 959,-154.5 959,-62.5 822,-62.5"/>
</g>
<!-- entrypoint_target_operation_project_create&#45;&gt;entrypoint_response_entry_point_api_project_create_validation_failed -->
<g id="edge4" class="edge">
<title>entrypoint_target_operation_project_create&#45;&gt;entrypoint_response_entry_point_api_project_create_validation_failed</title>
<path fill="none" stroke="#3f3f46" d="M761.02,-137.65C779.1,-133.55 797.14,-129.46 813.74,-125.69"/>
<polygon fill="#3f3f46" stroke="#3f3f46" points="814.58,-128.37 821.76,-123.87 813.34,-122.91 814.58,-128.37"/>
</g>
<!-- entrypoint_response_entry_point_api_project_create_created&#45;&gt;entrypoint_response_entry_point_api_project_create_validation_failed -->
</g>
</svg>
