<svg width="806pt" height="485pt"
 viewBox="0.00 0.00 806.00 485.00" xmlns="http://www.w3.org/2000/svg" xmlns:xlink="http://www.w3.org/1999/xlink">
<!-- pyspec-contract-input-sha256: 27dd18d849ae494993bc63377fe9d34aad3039f9a988ee28d5e618c9a7afd822 -->
<g id="graph0" class="graph" transform="scale(1 1) rotate(0) translate(18 467)">
<title>entrypoint_entry_point_api_project_create</title>
<!-- entrypoint_entry_point_api_project_create -->
<g id="node1" class="node">
<title>entrypoint_entry_point_api_project_create</title>
<polygon fill="#ffffff" stroke="transparent" points="0,-136.5 0,-311.5 290,-311.5 290,-136.5 0,-136.5"/>
<polygon fill="#0891b2" stroke="transparent" points="1,-302 1,-310 289,-310 289,-302 1,-302"/>
<polygon fill="#ecfeff" stroke="transparent" points="1,-271 1,-302 289,-302 289,-271 1,-271"/>
<text text-anchor="start" x="5" y="-288.6" font-family="Arial" font-weight="bold" font-size="13.00">POST /workspaces/{workspace_id}/projects</text>
<text text-anchor="start" x="5" y="-277.6" font-family="Arial" font-size="8.00" fill="#64748b">http_api entry point</text>
<text text-anchor="start" x="5" y="-260" font-family="Arial" font-style="italic" font-size="10.00" fill="#3f3f46">HTTP endpoint for creating a dispatch project.</text>
<text text-anchor="start" x="6" y="-240" font-family="Arial" font-weight="bold" font-size="10.00">endpoint:</text>
<text text-anchor="start" x="51" y="-240" font-family="Arial" font-size="10.00">  endpoint.project.create</text>
<text text-anchor="start" x="6" y="-228" font-family="Arial" font-weight="bold" font-size="10.00">authorization_policy:</text>
<text text-anchor="start" x="105" y="-228" font-family="Arial" font-size="10.00">  authorization_policy.project.member</text>
<text text-anchor="start" x="5" y="-208" font-family="Arial" font-weight="bold" font-size="10.00">path params</text>
<text text-anchor="start" x="5" y="-197" font-family="Arial" font-size="10.00">workspace_id</text>
<text text-anchor="start" x="66" y="-197" font-family="Arial" font-size="8.00" fill="#94a3b8">  string</text>
<text text-anchor="start" x="5" y="-178" font-family="Arial" font-weight="bold" font-size="10.00">body</text>
<text text-anchor="start" x="5" y="-167" font-family="Arial" font-size="10.00">customer</text>
<text text-anchor="start" x="46" y="-167" font-family="Arial" font-size="8.00" fill="#94a3b8">  string</text>
<text text-anchor="start" x="5" y="-156" font-family="Arial" font-size="10.00">priority</text>
<text text-anchor="start" x="35" y="-156" font-family="Arial" font-size="8.00" fill="#94a3b8">  string</text>
<text text-anchor="start" x="5" y="-145" font-family="Arial" font-size="10.00">title</text>
<text text-anchor="start" x="21" y="-145" font-family="Arial" font-size="8.00" fill="#94a3b8">  string</text>
<polygon fill="none" stroke="#0891b2" points="0,-136.5 0,-311.5 290,-311.5 290,-136.5 0,-136.5"/>
</g>
<!-- entrypoint_target_application_action_project_create -->
<g id="node2" class="node">
<title>entrypoint_target_application_action_project_create</title>
<polygon fill="#ffffff" stroke="transparent" points="351,-157.5 351,-290.5 572,-290.5 572,-157.5 351,-157.5"/>
<polygon fill="#2563eb" stroke="transparent" points="352.5,-281 352.5,-289 571.5,-289 571.5,-281 352.5,-281"/>
<polygon fill="#eff6ff" stroke="transparent" points="352.5,-250 352.5,-281 571.5,-281 571.5,-250 352.5,-250"/>
<text text-anchor="start" x="356.5" y="-267.6" font-family="Arial" font-weight="bold" font-size="13.00">application_action.project.create</text>
<text text-anchor="start" x="356.5" y="-256.6" font-family="Arial" font-size="8.00" fill="#64748b">target application action</text>
<text text-anchor="start" x="356.5" y="-239" font-family="Arial" font-style="italic" font-size="10.00" fill="#3f3f46">Members can create a new dispatch project.</text>
<text text-anchor="start" x="357.5" y="-219" font-family="Arial" font-weight="bold" font-size="10.00">kind:</text>
<text text-anchor="start" x="381.5" y="-219" font-family="Arial" font-size="10.00">  command</text>
<text text-anchor="start" x="356.5" y="-199" font-family="Arial" font-weight="bold" font-size="10.00">authorization</text>
<text text-anchor="start" x="356.5" y="-187" font-family="Arial" font-size="10.00">policy: authorization_policy.project.member</text>
<text text-anchor="start" x="356.5" y="-176" font-family="Arial" font-size="10.00">unauthenticated_as: unauthenticated</text>
<text text-anchor="start" x="356.5" y="-165" font-family="Arial" font-size="10.00">forbidden_as: forbidden</text>
<polygon fill="none" stroke="#2563eb" points="351,-157.5 351,-290.5 572,-290.5 572,-157.5 351,-157.5"/>
</g>
<!-- entrypoint_entry_point_api_project_create&#45;&gt;entrypoint_target_application_action_project_create -->
<g id="edge1" class="edge">
<title>entrypoint_entry_point_api_project_create&#45;&gt;entrypoint_target_application_action_project_create</title>
<path fill="none" stroke="#3f3f46" d="M290.36,-224C307.85,-224 325.55,-224 342.59,-224"/>
<polygon fill="#3f3f46" stroke="#3f3f46" points="342.9,-226.8 350.9,-224 342.9,-221.2 342.9,-226.8"/>
</g>
<!-- entrypoint_response_entry_point_api_project_create_created -->
<g id="node3" class="node">
<title>entrypoint_response_entry_point_api_project_create_created</title>
<polygon fill="#ffffff" stroke="transparent" points="635.5,-357 635.5,-449 767.5,-449 767.5,-357 635.5,-357"/>
<polygon fill="#16a34a" stroke="transparent" points="636.5,-440 636.5,-448 766.5,-448 766.5,-440 636.5,-440"/>
<polygon fill="#f0fdf4" stroke="transparent" points="636.5,-409 636.5,-440 766.5,-440 766.5,-409 636.5,-409"/>
<text text-anchor="start" x="640.5" y="-426.6" font-family="Arial" font-weight="bold" font-size="13.00">created</text>
<text text-anchor="start" x="640.5" y="-415.6" font-family="Arial" font-size="8.00" fill="#64748b">success response</text>
<text text-anchor="start" x="641.5" y="-397" font-family="Arial" font-weight="bold" font-size="10.00">status:</text>
<text text-anchor="start" x="672.5" y="-397" font-family="Arial" font-size="10.00">  201</text>
<text text-anchor="start" x="640.5" y="-377" font-family="Arial" font-weight="bold" font-size="10.00">body</text>
<text text-anchor="start" x="640.5" y="-366" font-family="Arial" font-size="10.00">body</text>
<text text-anchor="start" x="662.5" y="-366" font-family="Arial" font-size="8.00" fill="#94a3b8">  Project</text>
<text text-anchor="start" x="692.5" y="-366" font-family="Arial" font-size="8.00"> ← $outcome.result</text>
<polygon fill="none" stroke="#16a34a" points="635.5,-357 635.5,-449 767.5,-449 767.5,-357 635.5,-357"/>
</g>
<!-- entrypoint_target_application_action_project_create&#45;&gt;entrypoint_response_entry_point_api_project_create_created -->
<g id="edge2" class="edge">
<title>entrypoint_target_application_action_project_create&#45;&gt;entrypoint_response_entry_point_api_project_create_created</title>
<path fill="none" stroke="#3f3f46" d="M551.12,-290.65C578.06,-310.91 607.21,-332.84 632.56,-351.9"/>
<polygon fill="#3f3f46" stroke="#3f3f46" points="631.18,-354.37 639.26,-356.94 634.55,-349.89 631.18,-354.37"/>
</g>
<!-- entrypoint_response_entry_point_api_project_create_forbidden -->
<g id="node4" class="node">
<title>entrypoint_response_entry_point_api_project_create_forbidden</title>
<polygon fill="#ffffff" stroke="transparent" points="633,-238 633,-330 770,-330 770,-238 633,-238"/>
<polygon fill="#dc2626" stroke="transparent" points="634.5,-321 634.5,-329 769.5,-329 769.5,-321 634.5,-321"/>
<polygon fill="#fef2f2" stroke="transparent" points="634.5,-290 634.5,-321 769.5,-321 769.5,-290 634.5,-290"/>
<text text-anchor="start" x="638.5" y="-307.6" font-family="Arial" font-weight="bold" font-size="13.00">forbidden</text>
<text text-anchor="start" x="638.5" y="-296.6" font-family="Arial" font-size="8.00" fill="#64748b">failure response</text>
<text text-anchor="start" x="639.5" y="-278" font-family="Arial" font-weight="bold" font-size="10.00">status:</text>
<text text-anchor="start" x="670.5" y="-278" font-family="Arial" font-size="10.00">  403</text>
<text text-anchor="start" x="638.5" y="-258" font-family="Arial" font-weight="bold" font-size="10.00">body</text>
<text text-anchor="start" x="638.5" y="-247" font-family="Arial" font-size="10.00">body</text>
<text text-anchor="start" x="660.5" y="-247" font-family="Arial" font-size="8.00" fill="#94a3b8">  Problem</text>
<text text-anchor="start" x="695.5" y="-247" font-family="Arial" font-size="8.00"> ← $outcome.result</text>
<polygon fill="none" stroke="#dc2626" points="633,-238 633,-330 770,-330 770,-238 633,-238"/>
</g>
<!-- entrypoint_target_application_action_project_create&#45;&gt;entrypoint_response_entry_point_api_project_create_forbidden -->
<g id="edge3" class="edge">
<title>entrypoint_target_application_action_project_create&#45;&gt;entrypoint_response_entry_point_api_project_create_forbidden</title>
<path fill="none" stroke="#3f3f46" d="M572.1,-251.63C589.92,-256.12 608.03,-260.69 624.8,-264.92"/>
<polygon fill="#3f3f46" stroke="#3f3f46" points="624.48,-267.72 632.92,-266.96 625.85,-262.29 624.48,-267.72"/>
</g>
<!-- entrypoint_response_entry_point_api_project_create_unauthenticated -->
<g id="node5" class="node">
<title>entrypoint_response_entry_point_api_project_create_unauthenticated</title>
<polygon fill="#ffffff" stroke="transparent" points="633,-119 633,-211 770,-211 770,-119 633,-119"/>
<polygon fill="#dc2626" stroke="transparent" points="634.5,-202 634.5,-210 769.5,-210 769.5,-202 634.5,-202"/>
<polygon fill="#fef2f2" stroke="transparent" points="634.5,-171 634.5,-202 769.5,-202 769.5,-171 634.5,-171"/>
<text text-anchor="start" x="638.5" y="-188.6" font-family="Arial" font-weight="bold" font-size="13.00">unauthenticated</text>
<text text-anchor="start" x="638.5" y="-177.6" font-family="Arial" font-size="8.00" fill="#64748b">failure response</text>
<text text-anchor="start" x="639.5" y="-159" font-family="Arial" font-weight="bold" font-size="10.00">status:</text>
<text text-anchor="start" x="670.5" y="-159" font-family="Arial" font-size="10.00">  401</text>
<text text-anchor="start" x="638.5" y="-139" font-family="Arial" font-weight="bold" font-size="10.00">body</text>
<text text-anchor="start" x="638.5" y="-128" font-family="Arial" font-size="10.00">body</text>
<text text-anchor="start" x="660.5" y="-128" font-family="Arial" font-size="8.00" fill="#94a3b8">  Problem</text>
<text text-anchor="start" x="695.5" y="-128" font-family="Arial" font-size="8.00"> ← $outcome.result</text>
<polygon fill="none" stroke="#dc2626" points="633,-119 633,-211 770,-211 770,-119 633,-119"/>
</g>
<!-- entrypoint_target_application_action_project_create&#45;&gt;entrypoint_response_entry_point_api_project_create_unauthenticated -->
<g id="edge4" class="edge">
<title>entrypoint_target_application_action_project_create&#45;&gt;entrypoint_response_entry_point_api_project_create_unauthenticated</title>
<path fill="none" stroke="#3f3f46" d="M572.1,-196.83C589.92,-192.41 608.03,-187.92 624.8,-183.77"/>
<polygon fill="#3f3f46" stroke="#3f3f46" points="625.83,-186.39 632.92,-181.75 624.49,-180.96 625.83,-186.39"/>
</g>
<!-- entrypoint_response_entry_point_api_project_create_validation_failed -->
<g id="node6" class="node">
<title>entrypoint_response_entry_point_api_project_create_validation_failed</title>
<polygon fill="#ffffff" stroke="transparent" points="633,0 633,-92 770,-92 770,0 633,0"/>
<polygon fill="#dc2626" stroke="transparent" points="634.5,-83 634.5,-91 769.5,-91 769.5,-83 634.5,-83"/>
<polygon fill="#fef2f2" stroke="transparent" points="634.5,-52 634.5,-83 769.5,-83 769.5,-52 634.5,-52"/>
<text text-anchor="start" x="638.5" y="-69.6" font-family="Arial" font-weight="bold" font-size="13.00">validation_failed</text>
<text text-anchor="start" x="638.5" y="-58.6" font-family="Arial" font-size="8.00" fill="#64748b">failure response</text>
<text text-anchor="start" x="639.5" y="-40" font-family="Arial" font-weight="bold" font-size="10.00">status:</text>
<text text-anchor="start" x="670.5" y="-40" font-family="Arial" font-size="10.00">  422</text>
<text text-anchor="start" x="638.5" y="-20" font-family="Arial" font-weight="bold" font-size="10.00">body</text>
<text text-anchor="start" x="638.5" y="-9" font-family="Arial" font-size="10.00">body</text>
<text text-anchor="start" x="660.5" y="-9" font-family="Arial" font-size="8.00" fill="#94a3b8">  Problem</text>
<text text-anchor="start" x="695.5" y="-9" font-family="Arial" font-size="8.00"> ← $outcome.result</text>
<polygon fill="none" stroke="#dc2626" points="633,0 633,-92 770,-92 770,0 633,0"/>
</g>
<!-- entrypoint_target_application_action_project_create&#45;&gt;entrypoint_response_entry_point_api_project_create_validation_failed -->
<g id="edge5" class="edge">
<title>entrypoint_target_application_action_project_create&#45;&gt;entrypoint_response_entry_point_api_project_create_validation_failed</title>
<path fill="none" stroke="#3f3f46" d="M551.46,-157.47C578.13,-137.52 606.94,-115.97 632.07,-97.18"/>
<polygon fill="#3f3f46" stroke="#3f3f46" points="633.98,-99.25 638.71,-92.21 630.62,-94.76 633.98,-99.25"/>
</g>
<!-- entrypoint_response_entry_point_api_project_create_created&#45;&gt;entrypoint_response_entry_point_api_project_create_forbidden -->
<!-- entrypoint_response_entry_point_api_project_create_forbidden&#45;&gt;entrypoint_response_entry_point_api_project_create_unauthenticated -->
<!-- entrypoint_response_entry_point_api_project_create_unauthenticated&#45;&gt;entrypoint_response_entry_point_api_project_create_validation_failed -->
</g>
</svg>
