<svg width="1471pt" height="391pt"
 viewBox="0.00 0.00 1471.00 391.00" xmlns="http://www.w3.org/2000/svg" xmlns:xlink="http://www.w3.org/1999/xlink">
<!-- pyspec-contract-input-sha256: dbb5909dbeb11dea2d73d913a979a74a1e9e954c5823efb4d5fbb58f1fd7b641 -->
<g id="graph0" class="graph" transform="scale(1 1) rotate(0) translate(18 373)">
<title>workflow_workflow_project_approval_notice</title>
<!-- workflow_start -->
<g id="node1" class="node">
<title>workflow_start</title>
<ellipse fill="none" stroke="#4f46e5" cx="24.5" cy="-177.5" rx="24.5" ry="24.5"/>
<text text-anchor="middle" x="24.5" y="-175.3" font-family="Arial" font-size="9.00" fill="#312e81">trigger</text>
</g>
<!-- workflow_trigger_event_event_project_approved -->
<g id="node2" class="node">
<title>workflow_trigger_event_event_project_approved</title>
<polygon fill="#ffffff" stroke="transparent" points="112,-125.5 112,-229.5 402,-229.5 402,-125.5 112,-125.5"/>
<polygon fill="#4f46e5" stroke="transparent" points="113,-220.5 113,-228.5 401,-228.5 401,-220.5 113,-220.5"/>
<polygon fill="#eef2ff" stroke="transparent" points="113,-189.5 113,-220.5 401,-220.5 401,-189.5 113,-189.5"/>
<text text-anchor="start" x="117" y="-207.1" font-family="Arial" font-weight="bold" font-size="13.00">event.project.approved</text>
<text text-anchor="start" x="117" y="-196.1" font-family="Arial" font-size="8.00" fill="#64748b">event trigger</text>
<text text-anchor="start" x="117" y="-178.5" font-family="Arial" font-style="italic" font-size="10.00" fill="#3f3f46">Approval events carry the reviewer and project</text>
<text text-anchor="start" x="117" y="-167.5" font-family="Arial" font-style="italic" font-size="10.00" fill="#3f3f46">identity needed by notification workflows.</text>
<text text-anchor="start" x="118" y="-147.5" font-family="Arial" font-weight="bold" font-size="10.00">payload_schema:</text>
<text text-anchor="start" x="200" y="-147.5" font-family="Arial" font-size="10.00">  payload_schema</text>
<text text-anchor="start" x="280" y="-147.5" font-family="Arial" font-size="8.00" fill="#94a3b8">  data_contract.project.approved</text>
<text text-anchor="start" x="118" y="-135.5" font-family="Arial" font-weight="bold" font-size="10.00">emitted by:</text>
<text text-anchor="start" x="170" y="-135.5" font-family="Arial" font-size="10.00">  operation.project.approve</text>
<polygon fill="none" stroke="#4f46e5" points="112,-125.5 112,-229.5 402,-229.5 402,-125.5 112,-125.5"/>
</g>
<!-- workflow_start&#45;&gt;workflow_trigger_event_event_project_approved -->
<g id="edge1" class="edge">
<title>workflow_start&#45;&gt;workflow_trigger_event_event_project_approved</title>
<path fill="none" stroke="#3f3f46" d="M49.3,-177.5C63.43,-177.5 82.67,-177.5 103.76,-177.5"/>
<polygon fill="#3f3f46" stroke="#3f3f46" points="103.93,-180.3 111.93,-177.5 103.93,-174.7 103.93,-180.3"/>
</g>
<!-- workflow_workflow_project_approval_notice -->
<g id="node3" class="node">
<title>workflow_workflow_project_approval_notice</title>
<polygon fill="#ffffff" stroke="transparent" points="465,-110.5 465,-244.5 749,-244.5 749,-110.5 465,-110.5"/>
<polygon fill="#a16207" stroke="transparent" points="466,-235.5 466,-243.5 748,-243.5 748,-235.5 466,-235.5"/>
<polygon fill="#fefce8" stroke="transparent" points="466,-204.5 466,-235.5 748,-235.5 748,-204.5 466,-204.5"/>
<text text-anchor="start" x="470" y="-222.1" font-family="Arial" font-weight="bold" font-size="13.00">workflow.project.approval_notice</text>
<text text-anchor="start" x="470" y="-211.1" font-family="Arial" font-size="8.00" fill="#64748b">workflow</text>
<text text-anchor="start" x="470" y="-193.5" font-family="Arial" font-style="italic" font-size="10.00" fill="#3f3f46">Approval event sends a downstream notice.</text>
<text text-anchor="start" x="471" y="-173.5" font-family="Arial" font-weight="bold" font-size="10.00">ref:</text>
<text text-anchor="start" x="487" y="-173.5" font-family="Arial" font-size="10.00">  workflow.project.approval_notice</text>
<text text-anchor="start" x="471" y="-161.5" font-family="Arial" font-weight="bold" font-size="10.00">steps:</text>
<text text-anchor="start" x="499" y="-161.5" font-family="Arial" font-size="10.00">  send_notice → operation.project.send_approval_notice</text>
<text text-anchor="start" x="470" y="-141.5" font-family="Arial" font-weight="bold" font-size="10.00">outcomes</text>
<text text-anchor="start" x="470" y="-130.5" font-family="Arial" font-size="10.00">completed</text>
<text text-anchor="start" x="516" y="-130.5" font-family="Arial" font-size="8.00" fill="#94a3b8">  data_contract.project.notice_result</text>
<text text-anchor="start" x="643" y="-130.5" font-family="Arial" font-size="8.00"> ← success</text>
<text text-anchor="start" x="470" y="-119.5" font-family="Arial" font-size="10.00">delivery_failed</text>
<text text-anchor="start" x="533" y="-119.5" font-family="Arial" font-size="8.00" fill="#94a3b8">  Problem</text>
<text text-anchor="start" x="568" y="-119.5" font-family="Arial" font-size="8.00"> ← failure</text>
<polygon fill="none" stroke="#a16207" points="465,-110.5 465,-244.5 749,-244.5 749,-110.5 465,-110.5"/>
</g>
<!-- workflow_trigger_event_event_project_approved&#45;&gt;workflow_workflow_project_approval_notice -->
<g id="edge2" class="edge">
<title>workflow_trigger_event_event_project_approved&#45;&gt;workflow_workflow_project_approval_notice</title>
<path fill="none" stroke="#3f3f46" d="M402.06,-177.5C420.06,-177.5 438.5,-177.5 456.57,-177.5"/>
<polygon fill="#3f3f46" stroke="#3f3f46" points="456.85,-180.3 464.85,-177.5 456.85,-174.7 456.85,-180.3"/>
</g>
<!-- workflow_step_workflow_project_approval_notice_send_notice -->
<g id="node4" class="node">
<title>workflow_step_workflow_project_approval_notice_send_notice</title>
<polygon fill="#ffffff" stroke="transparent" points="812,0 812,-355 1148,-355 1148,0 812,0"/>
<polygon fill="#71717a" stroke="transparent" points="813,-345.5 813,-353.5 1147,-353.5 1147,-345.5 813,-345.5"/>
<polygon fill="#f8fafc" stroke="transparent" points="813,-314.5 813,-345.5 1147,-345.5 1147,-314.5 813,-314.5"/>
<text text-anchor="start" x="817" y="-332.1" font-family="Arial" font-weight="bold" font-size="13.00">send_notice</text>
<text text-anchor="start" x="817" y="-321.1" font-family="Arial" font-size="8.00" fill="#64748b">workflow step</text>
<text text-anchor="start" x="817" y="-303.5" font-family="Arial" font-style="italic" font-size="10.00" fill="#3f3f46">Approval triggers a notification command for</text>
<text text-anchor="start" x="817" y="-292.5" font-family="Arial" font-style="italic" font-size="10.00" fill="#3f3f46">downstream coordination.</text>
<text text-anchor="start" x="818" y="-272.5" font-family="Arial" font-weight="bold" font-size="10.00">operation:</text>
<text text-anchor="start" x="866" y="-272.5" font-family="Arial" font-size="10.00">  operation.project.send_approval_notice</text>
<text text-anchor="start" x="817" y="-252.5" font-family="Arial" font-weight="bold" font-size="10.00">input bindings</text>
<text text-anchor="start" x="817" y="-240.5" font-family="Arial" font-size="10.00">approved_by ← {&#39;from&#39;: &#39;$trigger.payload.approved_by&#39;}</text>
<text text-anchor="start" x="817" y="-229.5" font-family="Arial" font-size="10.00">project_id ← {&#39;from&#39;: &#39;$trigger.payload.project_id&#39;}</text>
<text text-anchor="start" x="817" y="-211.5" font-family="Arial" font-weight="bold" font-size="10.00">routes</text>
<text text-anchor="start" x="817" y="-199.5" font-family="Arial" font-size="10.00">delivery_failed: retry_policy → delivery_failed (3</text>
<text text-anchor="start" x="817" y="-188.5" font-family="Arial" font-size="10.00">exponential)</text>
<text text-anchor="start" x="817" y="-177.5" font-family="Arial" font-size="10.00">sent: complete_as → completed</text>
<text text-anchor="start" x="818" y="-158.5" font-family="Arial" font-weight="bold" font-size="10.00">authorization_policy:</text>
<text text-anchor="start" x="917" y="-158.5" font-family="Arial" font-size="10.00">  authorization_policy.project.send_approval_notice</text>
<text text-anchor="start" x="818" y="-146.5" font-family="Arial" font-weight="bold" font-size="10.00">authorization_effect:</text>
<text text-anchor="start" x="913" y="-146.5" font-family="Arial" font-size="10.00">  allow</text>
<text text-anchor="start" x="818" y="-134.5" font-family="Arial" font-weight="bold" font-size="10.00">authorization_subjects:</text>
<text text-anchor="start" x="927" y="-134.5" font-family="Arial" font-size="10.00">  actor ← input.approved_by</text>
<text text-anchor="start" x="818" y="-122.5" font-family="Arial" font-weight="bold" font-size="10.00">authorization_targets:</text>
<text text-anchor="start" x="920" y="-122.5" font-family="Arial" font-size="10.00">  operation: operation.project.send_approval_notice</text>
<text text-anchor="start" x="818" y="-110.5" font-family="Arial" font-weight="bold" font-size="10.00">authorization_conditions:</text>
<text text-anchor="start" x="938" y="-110.5" font-family="Arial" font-size="10.00">  unconditional true</text>
<text text-anchor="start" x="817" y="-90.5" font-family="Arial" font-weight="bold" font-size="10.00">input</text>
<text text-anchor="start" x="817" y="-79.5" font-family="Arial" font-size="10.00">approved_by</text>
<text text-anchor="start" x="873" y="-79.5" font-family="Arial" font-size="8.00" fill="#94a3b8">  ID</text>
<text text-anchor="start" x="817" y="-68.5" font-family="Arial" font-size="10.00">project_id</text>
<text text-anchor="start" x="860" y="-68.5" font-family="Arial" font-size="8.00" fill="#94a3b8">  ID</text>
<text text-anchor="start" x="817" y="-49.5" font-family="Arial" font-weight="bold" font-size="10.00">failure</text>
<text text-anchor="start" x="817" y="-38.5" font-family="Arial" font-size="10.00">delivery_failed</text>
<text text-anchor="start" x="880" y="-38.5" font-family="Arial" font-size="8.00" fill="#94a3b8">  Problem</text>
<text text-anchor="start" x="817" y="-19.5" font-family="Arial" font-weight="bold" font-size="10.00">success</text>
<text text-anchor="start" x="817" y="-8.5" font-family="Arial" font-size="10.00">sent</text>
<text text-anchor="start" x="836" y="-8.5" font-family="Arial" font-size="8.00" fill="#94a3b8">  data_contract.project.notice_result</text>
<polygon fill="none" stroke="#71717a" points="812,0 812,-355 1148,-355 1148,0 812,0"/>
</g>
<!-- workflow_workflow_project_approval_notice&#45;&gt;workflow_step_workflow_project_approval_notice_send_notice -->
<g id="edge3" class="edge">
<title>workflow_workflow_project_approval_notice&#45;&gt;workflow_step_workflow_project_approval_notice_send_notice</title>
<path fill="none" stroke="#3f3f46" d="M749.05,-177.5C766.82,-177.5 785.16,-177.5 803.38,-177.5"/>
<polygon fill="#3f3f46" stroke="#3f3f46" points="803.74,-180.3 811.74,-177.5 803.74,-174.7 803.74,-180.3"/>
</g>
<!-- workflow_outcome_workflow_project_approval_notice_completed -->
<g id="node5" class="node">
<title>workflow_outcome_workflow_project_approval_notice_completed</title>
<polygon fill="#ffffff" stroke="transparent" points="1273,-205 1273,-276 1435,-276 1435,-205 1273,-205"/>
<polygon fill="#64748b" stroke="transparent" points="1274,-266.5 1274,-274.5 1434,-274.5 1434,-266.5 1274,-266.5"/>
<polygon fill="#f8fafc" stroke="transparent" points="1274,-235.5 1274,-266.5 1434,-266.5 1434,-235.5 1274,-235.5"/>
<text text-anchor="start" x="1278" y="-253.1" font-family="Arial" font-weight="bold" font-size="13.00">completed</text>
<text text-anchor="start" x="1278" y="-242.1" font-family="Arial" font-size="8.00" fill="#64748b">success workflow outcome</text>
<text text-anchor="start" x="1278" y="-224.5" font-family="Arial" font-weight="bold" font-size="10.00">result</text>
<text text-anchor="start" x="1278" y="-213.5" font-family="Arial" font-size="10.00">result</text>
<text text-anchor="start" x="1303" y="-213.5" font-family="Arial" font-size="8.00" fill="#94a3b8">  data_contract.project.notice_result</text>
<polygon fill="none" stroke="#64748b" points="1273,-205 1273,-276 1435,-276 1435,-205 1273,-205"/>
</g>
<!-- workflow_step_workflow_project_approval_notice_send_notice&#45;&gt;workflow_outcome_workflow_project_approval_notice_completed -->
<g id="edge5" class="edge">
<title>workflow_step_workflow_project_approval_notice_send_notice&#45;&gt;workflow_outcome_workflow_project_approval_notice_completed</title>
<path fill="none" stroke="#3f3f46" d="M1148.23,-205.82C1188.25,-212.6 1229.45,-219.58 1264.3,-225.48"/>
<polygon fill="#3f3f46" stroke="#3f3f46" points="1264.2,-228.3 1272.55,-226.88 1265.13,-222.78 1264.2,-228.3"/>
<text text-anchor="middle" x="1210.5" y="-222.5" font-family="Arial" font-size="10.00">sent</text>
</g>
<!-- workflow_outcome_workflow_project_approval_notice_delivery_failed -->
<g id="node6" class="node">
<title>workflow_outcome_workflow_project_approval_notice_delivery_failed</title>
<polygon fill="#ffffff" stroke="transparent" points="1302,-80 1302,-151 1406,-151 1406,-80 1302,-80"/>
<polygon fill="#64748b" stroke="transparent" points="1303,-141.5 1303,-149.5 1405,-149.5 1405,-141.5 1303,-141.5"/>
<polygon fill="#f8fafc" stroke="transparent" points="1303,-110.5 1303,-141.5 1405,-141.5 1405,-110.5 1303,-110.5"/>
<text text-anchor="start" x="1307" y="-128.1" font-family="Arial" font-weight="bold" font-size="13.00">delivery_failed</text>
<text text-anchor="start" x="1307" y="-117.1" font-family="Arial" font-size="8.00" fill="#64748b">failure workflow outcome</text>
<text text-anchor="start" x="1307" y="-99.5" font-family="Arial" font-weight="bold" font-size="10.00">result</text>
<text text-anchor="start" x="1307" y="-88.5" font-family="Arial" font-size="10.00">result</text>
<text text-anchor="start" x="1332" y="-88.5" font-family="Arial" font-size="8.00" fill="#94a3b8">  Problem</text>
<polygon fill="none" stroke="#64748b" points="1302,-80 1302,-151 1406,-151 1406,-80 1302,-80"/>
</g>
<!-- workflow_step_workflow_project_approval_notice_send_notice&#45;&gt;workflow_outcome_workflow_project_approval_notice_delivery_failed -->
<g id="edge4" class="edge">
<title>workflow_step_workflow_project_approval_notice_send_notice&#45;&gt;workflow_outcome_workflow_project_approval_notice_delivery_failed</title>
<path fill="none" stroke="#3f3f46" d="M1148.23,-149.63C1200.12,-140.98 1253.98,-132 1293.44,-125.43"/>
<polygon fill="#3f3f46" stroke="#3f3f46" points="1294.2,-128.14 1301.63,-124.06 1293.28,-122.62 1294.2,-128.14"/>
<text text-anchor="middle" x="1210.5" y="-146.5" font-family="Arial" font-size="10.00">delivery_failed</text>
</g>
<!-- workflow_outcome_workflow_project_approval_notice_completed&#45;&gt;workflow_outcome_workflow_project_approval_notice_delivery_failed -->
</g>
</svg>
