<svg width="1237pt" height="322pt"
 viewBox="0.00 0.00 1237.00 322.00" xmlns="http://www.w3.org/2000/svg" xmlns:xlink="http://www.w3.org/1999/xlink">
<!-- pyspec-contract-input-sha256: c6e67805556bee8345de9bd099dab750bc15c072e702fca6293bb0c560ff443b -->
<g id="graph0" class="graph" transform="scale(1 1) rotate(0) translate(18 304)">
<title>workflow_workflow_project_approval_notice</title>
<!-- workflow_start -->
<g id="node1" class="node">
<title>workflow_start</title>
<ellipse fill="none" stroke="#4f46e5" cx="24.5" cy="-143" rx="24.5" ry="24.5"/>
<text text-anchor="middle" x="24.5" y="-140.8" font-family="Arial" font-size="9.00" fill="#312e81">trigger</text>
</g>
<!-- workflow_trigger_event_event_project_approved -->
<g id="node2" class="node">
<title>workflow_trigger_event_event_project_approved</title>
<polygon fill="#ffffff" stroke="transparent" points="112,-91 112,-195 325,-195 325,-91 112,-91"/>
<polygon fill="#4f46e5" stroke="transparent" points="113.5,-186 113.5,-194 324.5,-194 324.5,-186 113.5,-186"/>
<polygon fill="#eef2ff" stroke="transparent" points="113.5,-155 113.5,-186 324.5,-186 324.5,-155 113.5,-155"/>
<text text-anchor="start" x="117.5" y="-172.6" font-family="Arial" font-weight="bold" font-size="13.00">event.project.approved</text>
<text text-anchor="start" x="117.5" y="-161.6" font-family="Arial" font-size="8.00" fill="#64748b">event trigger</text>
<text text-anchor="start" x="117.5" y="-144" font-family="Arial" font-style="italic" font-size="10.00" fill="#3f3f46">Approval events carry the reviewer and project</text>
<text text-anchor="start" x="117.5" y="-133" font-family="Arial" font-style="italic" font-size="10.00" fill="#3f3f46">identity needed by notification workflows.</text>
<text text-anchor="start" x="118.5" y="-113" font-family="Arial" font-weight="bold" font-size="10.00">payload:</text>
<text text-anchor="start" x="158.5" y="-113" font-family="Arial" font-size="10.00">  payload</text>
<text text-anchor="start" x="198.5" y="-113" font-family="Arial" font-size="8.00" fill="#94a3b8">  ProjectApproved</text>
<text text-anchor="start" x="118.5" y="-101" font-family="Arial" font-weight="bold" font-size="10.00">emitted by:</text>
<text text-anchor="start" x="170.5" y="-101" font-family="Arial" font-size="10.00">  operation.project.approve</text>
<polygon fill="none" stroke="#4f46e5" points="112,-91 112,-195 325,-195 325,-91 112,-91"/>
</g>
<!-- workflow_start&#45;&gt;workflow_trigger_event_event_project_approved -->
<g id="edge1" class="edge">
<title>workflow_start&#45;&gt;workflow_trigger_event_event_project_approved</title>
<path fill="none" stroke="#3f3f46" d="M49.04,-143C63.36,-143 82.83,-143 103.44,-143"/>
<polygon fill="#3f3f46" stroke="#3f3f46" points="103.71,-145.8 111.71,-143 103.71,-140.2 103.71,-145.8"/>
</g>
<!-- workflow_workflow_project_approval_notice -->
<g id="node3" class="node">
<title>workflow_workflow_project_approval_notice</title>
<polygon fill="#ffffff" stroke="transparent" points="388,-76 388,-210 672,-210 672,-76 388,-76"/>
<polygon fill="#a16207" stroke="transparent" points="389,-201 389,-209 671,-209 671,-201 389,-201"/>
<polygon fill="#fefce8" stroke="transparent" points="389,-170 389,-201 671,-201 671,-170 389,-170"/>
<text text-anchor="start" x="393" y="-187.6" font-family="Arial" font-weight="bold" font-size="13.00">workflow.project.approval_notice</text>
<text text-anchor="start" x="393" y="-176.6" font-family="Arial" font-size="8.00" fill="#64748b">workflow</text>
<text text-anchor="start" x="393" y="-159" font-family="Arial" font-style="italic" font-size="10.00" fill="#3f3f46">Approval event sends a downstream notice.</text>
<text text-anchor="start" x="394" y="-139" font-family="Arial" font-weight="bold" font-size="10.00">ref:</text>
<text text-anchor="start" x="410" y="-139" font-family="Arial" font-size="10.00">  workflow.project.approval_notice</text>
<text text-anchor="start" x="394" y="-127" font-family="Arial" font-weight="bold" font-size="10.00">steps:</text>
<text text-anchor="start" x="422" y="-127" font-family="Arial" font-size="10.00">  send_notice → operation.project.send_approval_notice</text>
<text text-anchor="start" x="393" y="-107" font-family="Arial" font-weight="bold" font-size="10.00">outcomes</text>
<text text-anchor="start" x="393" y="-96" font-family="Arial" font-size="10.00">completed</text>
<text text-anchor="start" x="439" y="-96" font-family="Arial" font-size="8.00" fill="#94a3b8">  NoticeResult</text>
<text text-anchor="start" x="489" y="-96" font-family="Arial" font-size="8.00"> ← success</text>
<text text-anchor="start" x="393" y="-85" font-family="Arial" font-size="10.00">delivery_failed</text>
<text text-anchor="start" x="456" y="-85" font-family="Arial" font-size="8.00" fill="#94a3b8">  Problem</text>
<text text-anchor="start" x="491" y="-85" font-family="Arial" font-size="8.00"> ← failure</text>
<polygon fill="none" stroke="#a16207" points="388,-76 388,-210 672,-210 672,-76 388,-76"/>
</g>
<!-- workflow_trigger_event_event_project_approved&#45;&gt;workflow_workflow_project_approval_notice -->
<g id="edge2" class="edge">
<title>workflow_trigger_event_event_project_approved&#45;&gt;workflow_workflow_project_approval_notice</title>
<path fill="none" stroke="#3f3f46" d="M325.15,-143C342.69,-143 361.17,-143 379.54,-143"/>
<polygon fill="#3f3f46" stroke="#3f3f46" points="379.98,-145.8 387.98,-143 379.98,-140.2 379.98,-145.8"/>
</g>
<!-- workflow_step_workflow_project_approval_notice_send_notice -->
<g id="node4" class="node">
<title>workflow_step_workflow_project_approval_notice_send_notice</title>
<polygon fill="#ffffff" stroke="transparent" points="735,0 735,-286 971,-286 971,0 735,0"/>
<polygon fill="#71717a" stroke="transparent" points="736,-277 736,-285 970,-285 970,-277 736,-277"/>
<polygon fill="#f8fafc" stroke="transparent" points="736,-246 736,-277 970,-277 970,-246 736,-246"/>
<text text-anchor="start" x="740" y="-263.6" font-family="Arial" font-weight="bold" font-size="13.00">send_notice</text>
<text text-anchor="start" x="740" y="-252.6" font-family="Arial" font-size="8.00" fill="#64748b">workflow step</text>
<text text-anchor="start" x="740" y="-235" font-family="Arial" font-style="italic" font-size="10.00" fill="#3f3f46">Approval triggers a notification command for</text>
<text text-anchor="start" x="740" y="-224" font-family="Arial" font-style="italic" font-size="10.00" fill="#3f3f46">downstream coordination.</text>
<text text-anchor="start" x="741" y="-204" font-family="Arial" font-weight="bold" font-size="10.00">operation:</text>
<text text-anchor="start" x="789" y="-204" font-family="Arial" font-size="10.00">  operation.project.send_approval_notice</text>
<text text-anchor="start" x="740" y="-184" font-family="Arial" font-weight="bold" font-size="10.00">with</text>
<text text-anchor="start" x="740" y="-172" font-family="Arial" font-size="10.00">approved_by ← $trigger.payload.approved_by</text>
<text text-anchor="start" x="740" y="-161" font-family="Arial" font-size="10.00">project_id ← $trigger.payload.project_id</text>
<text text-anchor="start" x="740" y="-143" font-family="Arial" font-weight="bold" font-size="10.00">routes</text>
<text text-anchor="start" x="740" y="-131" font-family="Arial" font-size="10.00">delivery_failed: fail → delivery_failed (retry 3</text>
<text text-anchor="start" x="740" y="-120" font-family="Arial" font-size="10.00">exponential)</text>
<text text-anchor="start" x="740" y="-109" font-family="Arial" font-size="10.00">sent: complete → completed</text>
<text text-anchor="start" x="740" y="-91" font-family="Arial" font-weight="bold" font-size="10.00">input</text>
<text text-anchor="start" x="740" y="-80" font-family="Arial" font-size="10.00">approved_by</text>
<text text-anchor="start" x="796" y="-80" font-family="Arial" font-size="8.00" fill="#94a3b8">  ID</text>
<text text-anchor="start" x="740" y="-69" font-family="Arial" font-size="10.00">project_id</text>
<text text-anchor="start" x="783" y="-69" font-family="Arial" font-size="8.00" fill="#94a3b8">  ID</text>
<text text-anchor="start" x="740" y="-50" font-family="Arial" font-weight="bold" font-size="10.00">failure</text>
<text text-anchor="start" x="740" y="-39" font-family="Arial" font-size="10.00">delivery_failed</text>
<text text-anchor="start" x="803" y="-39" font-family="Arial" font-size="8.00" fill="#94a3b8">  Problem</text>
<text text-anchor="start" x="740" y="-20" font-family="Arial" font-weight="bold" font-size="10.00">success</text>
<text text-anchor="start" x="740" y="-9" font-family="Arial" font-size="10.00">sent</text>
<text text-anchor="start" x="759" y="-9" font-family="Arial" font-size="8.00" fill="#94a3b8">  NoticeResult</text>
<polygon fill="none" stroke="#71717a" points="735,0 735,-286 971,-286 971,0 735,0"/>
</g>
<!-- workflow_workflow_project_approval_notice&#45;&gt;workflow_step_workflow_project_approval_notice_send_notice -->
<g id="edge3" class="edge">
<title>workflow_workflow_project_approval_notice&#45;&gt;workflow_step_workflow_project_approval_notice_send_notice</title>
<path fill="none" stroke="#3f3f46" d="M672.26,-143C690.35,-143 708.77,-143 726.58,-143"/>
<polygon fill="#3f3f46" stroke="#3f3f46" points="726.72,-145.8 734.72,-143 726.72,-140.2 726.72,-145.8"/>
</g>
<!-- workflow_outcome_workflow_project_approval_notice_completed -->
<g id="node5" class="node">
<title>workflow_outcome_workflow_project_approval_notice_completed</title>
<polygon fill="#ffffff" stroke="transparent" points="1096,-170.5 1096,-241.5 1201,-241.5 1201,-170.5 1096,-170.5"/>
<polygon fill="#64748b" stroke="transparent" points="1097.5,-232 1097.5,-240 1200.5,-240 1200.5,-232 1097.5,-232"/>
<polygon fill="#f8fafc" stroke="transparent" points="1097.5,-201 1097.5,-232 1200.5,-232 1200.5,-201 1097.5,-201"/>
<text text-anchor="start" x="1101.5" y="-218.6" font-family="Arial" font-weight="bold" font-size="13.00">completed</text>
<text text-anchor="start" x="1101.5" y="-207.6" font-family="Arial" font-size="8.00" fill="#64748b">success workflow outcome</text>
<text text-anchor="start" x="1101.5" y="-190" font-family="Arial" font-weight="bold" font-size="10.00">result</text>
<text text-anchor="start" x="1101.5" y="-179" font-family="Arial" font-size="10.00">result</text>
<text text-anchor="start" x="1126.5" y="-179" font-family="Arial" font-size="8.00" fill="#94a3b8">  NoticeResult</text>
<polygon fill="none" stroke="#64748b" points="1096,-170.5 1096,-241.5 1201,-241.5 1201,-170.5 1096,-170.5"/>
</g>
<!-- workflow_step_workflow_project_approval_notice_send_notice&#45;&gt;workflow_outcome_workflow_project_approval_notice_completed -->
<g id="edge5" class="edge">
<title>workflow_step_workflow_project_approval_notice_send_notice&#45;&gt;workflow_outcome_workflow_project_approval_notice_completed</title>
<path fill="none" stroke="#3f3f46" d="M971.26,-168.17C1011.32,-176.77 1054.44,-186.02 1088,-193.23"/>
<polygon fill="#3f3f46" stroke="#3f3f46" points="1087.47,-195.98 1095.88,-194.92 1088.65,-190.5 1087.47,-195.98"/>
<text text-anchor="middle" x="1033.5" y="-190" font-family="Arial" font-size="10.00">sent</text>
</g>
<!-- workflow_outcome_workflow_project_approval_notice_delivery_failed -->
<g id="node6" class="node">
<title>workflow_outcome_workflow_project_approval_notice_delivery_failed</title>
<polygon fill="#ffffff" stroke="transparent" points="1096.5,-45.5 1096.5,-116.5 1200.5,-116.5 1200.5,-45.5 1096.5,-45.5"/>
<polygon fill="#64748b" stroke="transparent" points="1097.5,-107 1097.5,-115 1199.5,-115 1199.5,-107 1097.5,-107"/>
<polygon fill="#f8fafc" stroke="transparent" points="1097.5,-76 1097.5,-107 1199.5,-107 1199.5,-76 1097.5,-76"/>
<text text-anchor="start" x="1101.5" y="-93.6" font-family="Arial" font-weight="bold" font-size="13.00">delivery_failed</text>
<text text-anchor="start" x="1101.5" y="-82.6" font-family="Arial" font-size="8.00" fill="#64748b">failure workflow outcome</text>
<text text-anchor="start" x="1101.5" y="-65" font-family="Arial" font-weight="bold" font-size="10.00">result</text>
<text text-anchor="start" x="1101.5" y="-54" font-family="Arial" font-size="10.00">result</text>
<text text-anchor="start" x="1126.5" y="-54" font-family="Arial" font-size="8.00" fill="#94a3b8">  Problem</text>
<polygon fill="none" stroke="#64748b" points="1096.5,-45.5 1096.5,-116.5 1200.5,-116.5 1200.5,-45.5 1096.5,-45.5"/>
</g>
<!-- workflow_step_workflow_project_approval_notice_send_notice&#45;&gt;workflow_outcome_workflow_project_approval_notice_delivery_failed -->
<g id="edge4" class="edge">
<title>workflow_step_workflow_project_approval_notice_send_notice&#45;&gt;workflow_outcome_workflow_project_approval_notice_delivery_failed</title>
<path fill="none" stroke="#3f3f46" d="M971.26,-118.23C1011.47,-109.74 1054.76,-100.59 1088.37,-93.49"/>
<polygon fill="#3f3f46" stroke="#3f3f46" points="1089.01,-96.22 1096.26,-91.82 1087.85,-90.74 1089.01,-96.22"/>
<text text-anchor="middle" x="1033.5" y="-114" font-family="Arial" font-size="10.00">delivery_failed</text>
</g>
<!-- workflow_outcome_workflow_project_approval_notice_completed&#45;&gt;workflow_outcome_workflow_project_approval_notice_delivery_failed -->
</g>
</svg>
