<svg width="1343pt" height="403pt"
 viewBox="0.00 0.00 1343.00 403.00" xmlns="http://www.w3.org/2000/svg" xmlns:xlink="http://www.w3.org/1999/xlink">
<!-- pyspec-contract-input-sha256: d890893092e49a19f22b009e0c7a0f98e81c99fc4113b189e027eb314bc67122 -->
<g id="graph0" class="graph" transform="scale(1 1) rotate(0) translate(18 385)">
<title>workflow_workflow_project_approval_notice</title>
<!-- workflow_start -->
<g id="node1" class="node">
<title>workflow_start</title>
<ellipse fill="none" stroke="#4f46e5" cx="24.5" cy="-183.5" rx="24.5" ry="24.5"/>
<text text-anchor="middle" x="24.5" y="-181.3" font-family="Arial" font-size="9.00" fill="#312e81">trigger</text>
</g>
<!-- workflow_trigger_event_event_project_approved -->
<g id="node2" class="node">
<title>workflow_trigger_event_event_project_approved</title>
<polygon fill="#ffffff" stroke="transparent" points="112,-131.5 112,-235.5 350,-235.5 350,-131.5 112,-131.5"/>
<polygon fill="#4f46e5" stroke="transparent" points="113,-226.5 113,-234.5 349,-234.5 349,-226.5 113,-226.5"/>
<polygon fill="#eef2ff" stroke="transparent" points="113,-195.5 113,-226.5 349,-226.5 349,-195.5 113,-195.5"/>
<text text-anchor="start" x="117" y="-213.1" font-family="Arial" font-weight="bold" font-size="13.00">event.project.approved</text>
<text text-anchor="start" x="117" y="-202.1" font-family="Arial" font-size="8.00" fill="#64748b">event trigger</text>
<text text-anchor="start" x="117" y="-184.5" font-family="Arial" font-style="italic" font-size="10.00" fill="#3f3f46">Approval events carry the reviewer and project</text>
<text text-anchor="start" x="117" y="-173.5" font-family="Arial" font-style="italic" font-size="10.00" fill="#3f3f46">identity needed by notification workflows.</text>
<text text-anchor="start" x="118" y="-153.5" font-family="Arial" font-weight="bold" font-size="10.00">payload_schema:</text>
<text text-anchor="start" x="200" y="-153.5" font-family="Arial" font-size="10.00">  payload_schema</text>
<text text-anchor="start" x="280" y="-153.5" font-family="Arial" font-size="8.00" fill="#94a3b8">  ProjectApproved</text>
<text text-anchor="start" x="118" y="-141.5" font-family="Arial" font-weight="bold" font-size="10.00">emitted by:</text>
<text text-anchor="start" x="170" y="-141.5" font-family="Arial" font-size="10.00">  operation.project.approve</text>
<polygon fill="none" stroke="#4f46e5" points="112,-131.5 112,-235.5 350,-235.5 350,-131.5 112,-131.5"/>
</g>
<!-- workflow_start&#45;&gt;workflow_trigger_event_event_project_approved -->
<g id="edge1" class="edge">
<title>workflow_start&#45;&gt;workflow_trigger_event_event_project_approved</title>
<path fill="none" stroke="#3f3f46" d="M49.36,-183.5C63.65,-183.5 83.06,-183.5 103.85,-183.5"/>
<polygon fill="#3f3f46" stroke="#3f3f46" points="103.89,-186.3 111.89,-183.5 103.89,-180.7 103.89,-186.3"/>
</g>
<!-- workflow_workflow_project_approval_notice -->
<g id="node3" class="node">
<title>workflow_workflow_project_approval_notice</title>
<polygon fill="#ffffff" stroke="transparent" points="413,-116.5 413,-250.5 697,-250.5 697,-116.5 413,-116.5"/>
<polygon fill="#a16207" stroke="transparent" points="414,-241.5 414,-249.5 696,-249.5 696,-241.5 414,-241.5"/>
<polygon fill="#fefce8" stroke="transparent" points="414,-210.5 414,-241.5 696,-241.5 696,-210.5 414,-210.5"/>
<text text-anchor="start" x="418" y="-228.1" font-family="Arial" font-weight="bold" font-size="13.00">workflow.project.approval_notice</text>
<text text-anchor="start" x="418" y="-217.1" font-family="Arial" font-size="8.00" fill="#64748b">workflow</text>
<text text-anchor="start" x="418" y="-199.5" font-family="Arial" font-style="italic" font-size="10.00" fill="#3f3f46">Approval event sends a downstream notice.</text>
<text text-anchor="start" x="419" y="-179.5" font-family="Arial" font-weight="bold" font-size="10.00">ref:</text>
<text text-anchor="start" x="435" y="-179.5" font-family="Arial" font-size="10.00">  workflow.project.approval_notice</text>
<text text-anchor="start" x="419" y="-167.5" font-family="Arial" font-weight="bold" font-size="10.00">steps:</text>
<text text-anchor="start" x="447" y="-167.5" font-family="Arial" font-size="10.00">  send_notice → operation.project.send_approval_notice</text>
<text text-anchor="start" x="418" y="-147.5" font-family="Arial" font-weight="bold" font-size="10.00">outcomes</text>
<text text-anchor="start" x="418" y="-136.5" font-family="Arial" font-size="10.00">completed</text>
<text text-anchor="start" x="464" y="-136.5" font-family="Arial" font-size="8.00" fill="#94a3b8">  NoticeResult</text>
<text text-anchor="start" x="514" y="-136.5" font-family="Arial" font-size="8.00"> ← success</text>
<text text-anchor="start" x="418" y="-125.5" font-family="Arial" font-size="10.00">delivery_failed</text>
<text text-anchor="start" x="481" y="-125.5" font-family="Arial" font-size="8.00" fill="#94a3b8">  Problem</text>
<text text-anchor="start" x="516" y="-125.5" font-family="Arial" font-size="8.00"> ← failure</text>
<polygon fill="none" stroke="#a16207" points="413,-116.5 413,-250.5 697,-250.5 697,-116.5 413,-116.5"/>
</g>
<!-- workflow_trigger_event_event_project_approved&#45;&gt;workflow_workflow_project_approval_notice -->
<g id="edge2" class="edge">
<title>workflow_trigger_event_event_project_approved&#45;&gt;workflow_workflow_project_approval_notice</title>
<path fill="none" stroke="#3f3f46" d="M350.07,-183.5C367.82,-183.5 386.31,-183.5 404.61,-183.5"/>
<polygon fill="#3f3f46" stroke="#3f3f46" points="404.99,-186.3 412.99,-183.5 404.99,-180.7 404.99,-186.3"/>
</g>
<!-- workflow_step_workflow_project_approval_notice_send_notice -->
<g id="node4" class="node">
<title>workflow_step_workflow_project_approval_notice_send_notice</title>
<polygon fill="#ffffff" stroke="transparent" points="760,0 760,-367 1077,-367 1077,0 760,0"/>
<polygon fill="#71717a" stroke="transparent" points="761.5,-357.5 761.5,-365.5 1076.5,-365.5 1076.5,-357.5 761.5,-357.5"/>
<polygon fill="#f8fafc" stroke="transparent" points="761.5,-326.5 761.5,-357.5 1076.5,-357.5 1076.5,-326.5 761.5,-326.5"/>
<text text-anchor="start" x="765.5" y="-344.1" font-family="Arial" font-weight="bold" font-size="13.00">send_notice</text>
<text text-anchor="start" x="765.5" y="-333.1" font-family="Arial" font-size="8.00" fill="#64748b">workflow step</text>
<text text-anchor="start" x="765.5" y="-315.5" font-family="Arial" font-style="italic" font-size="10.00" fill="#3f3f46">Approval triggers a notification command for</text>
<text text-anchor="start" x="765.5" y="-304.5" font-family="Arial" font-style="italic" font-size="10.00" fill="#3f3f46">downstream coordination.</text>
<text text-anchor="start" x="766.5" y="-284.5" font-family="Arial" font-weight="bold" font-size="10.00">operation:</text>
<text text-anchor="start" x="814.5" y="-284.5" font-family="Arial" font-size="10.00">  operation.project.send_approval_notice</text>
<text text-anchor="start" x="765.5" y="-264.5" font-family="Arial" font-weight="bold" font-size="10.00">input bindings</text>
<text text-anchor="start" x="765.5" y="-252.5" font-family="Arial" font-size="10.00">approved_by ← $trigger.payload.approved_by</text>
<text text-anchor="start" x="765.5" y="-241.5" font-family="Arial" font-size="10.00">project_id ← $trigger.payload.project_id</text>
<text text-anchor="start" x="765.5" y="-223.5" font-family="Arial" font-weight="bold" font-size="10.00">routes</text>
<text text-anchor="start" x="765.5" y="-211.5" font-family="Arial" font-size="10.00">delivery_failed: retry_policy → delivery_failed (3</text>
<text text-anchor="start" x="765.5" y="-200.5" font-family="Arial" font-size="10.00">exponential)</text>
<text text-anchor="start" x="765.5" y="-189.5" font-family="Arial" font-size="10.00">sent: complete_as → completed</text>
<text text-anchor="start" x="766.5" y="-170.5" font-family="Arial" font-weight="bold" font-size="10.00">policy_guard:</text>
<text text-anchor="start" x="830.5" y="-170.5" font-family="Arial" font-size="10.00">  policy.project.send_approval_notice</text>
<text text-anchor="start" x="766.5" y="-158.5" font-family="Arial" font-weight="bold" font-size="10.00">policy_effect:</text>
<text text-anchor="start" x="828.5" y="-158.5" font-family="Arial" font-size="10.00">  allow</text>
<text text-anchor="start" x="766.5" y="-146.5" font-family="Arial" font-weight="bold" font-size="10.00">policy_subjects:</text>
<text text-anchor="start" x="842.5" y="-146.5" font-family="Arial" font-size="10.00">  actor ← input.approved_by</text>
<text text-anchor="start" x="766.5" y="-134.5" font-family="Arial" font-weight="bold" font-size="10.00">policy_actions:</text>
<text text-anchor="start" x="837.5" y="-134.5" font-family="Arial" font-size="10.00">  operation: operation.project.send_approval_notice</text>
<text text-anchor="start" x="766.5" y="-122.5" font-family="Arial" font-weight="bold" font-size="10.00">policy_resources:</text>
<text text-anchor="start" x="849.5" y="-122.5" font-family="Arial" font-size="10.00">  operation: operation.project.send_approval_notice</text>
<text text-anchor="start" x="766.5" y="-110.5" font-family="Arial" font-weight="bold" font-size="10.00">policy_conditions:</text>
<text text-anchor="start" x="853.5" y="-110.5" font-family="Arial" font-size="10.00">  always true</text>
<text text-anchor="start" x="765.5" y="-90.5" font-family="Arial" font-weight="bold" font-size="10.00">input</text>
<text text-anchor="start" x="765.5" y="-79.5" font-family="Arial" font-size="10.00">approved_by</text>
<text text-anchor="start" x="821.5" y="-79.5" font-family="Arial" font-size="8.00" fill="#94a3b8">  ID</text>
<text text-anchor="start" x="765.5" y="-68.5" font-family="Arial" font-size="10.00">project_id</text>
<text text-anchor="start" x="808.5" y="-68.5" font-family="Arial" font-size="8.00" fill="#94a3b8">  ID</text>
<text text-anchor="start" x="765.5" y="-49.5" font-family="Arial" font-weight="bold" font-size="10.00">failure</text>
<text text-anchor="start" x="765.5" y="-38.5" font-family="Arial" font-size="10.00">delivery_failed</text>
<text text-anchor="start" x="828.5" y="-38.5" font-family="Arial" font-size="8.00" fill="#94a3b8">  Problem</text>
<text text-anchor="start" x="765.5" y="-19.5" font-family="Arial" font-weight="bold" font-size="10.00">success</text>
<text text-anchor="start" x="765.5" y="-8.5" font-family="Arial" font-size="10.00">sent</text>
<text text-anchor="start" x="784.5" y="-8.5" font-family="Arial" font-size="8.00" fill="#94a3b8">  NoticeResult</text>
<polygon fill="none" stroke="#71717a" points="760,0 760,-367 1077,-367 1077,0 760,0"/>
</g>
<!-- workflow_workflow_project_approval_notice&#45;&gt;workflow_step_workflow_project_approval_notice_send_notice -->
<g id="edge3" class="edge">
<title>workflow_workflow_project_approval_notice&#45;&gt;workflow_step_workflow_project_approval_notice_send_notice</title>
<path fill="none" stroke="#3f3f46" d="M697.06,-183.5C714.93,-183.5 733.34,-183.5 751.56,-183.5"/>
<polygon fill="#3f3f46" stroke="#3f3f46" points="751.91,-186.3 759.91,-183.5 751.91,-180.7 751.91,-186.3"/>
</g>
<!-- workflow_outcome_workflow_project_approval_notice_completed -->
<g id="node5" class="node">
<title>workflow_outcome_workflow_project_approval_notice_completed</title>
<polygon fill="#ffffff" stroke="transparent" points="1202,-211 1202,-282 1307,-282 1307,-211 1202,-211"/>
<polygon fill="#64748b" stroke="transparent" points="1203.5,-272.5 1203.5,-280.5 1306.5,-280.5 1306.5,-272.5 1203.5,-272.5"/>
<polygon fill="#f8fafc" stroke="transparent" points="1203.5,-241.5 1203.5,-272.5 1306.5,-272.5 1306.5,-241.5 1203.5,-241.5"/>
<text text-anchor="start" x="1207.5" y="-259.1" font-family="Arial" font-weight="bold" font-size="13.00">completed</text>
<text text-anchor="start" x="1207.5" y="-248.1" font-family="Arial" font-size="8.00" fill="#64748b">success workflow outcome</text>
<text text-anchor="start" x="1207.5" y="-230.5" font-family="Arial" font-weight="bold" font-size="10.00">result</text>
<text text-anchor="start" x="1207.5" y="-219.5" font-family="Arial" font-size="10.00">result</text>
<text text-anchor="start" x="1232.5" y="-219.5" font-family="Arial" font-size="8.00" fill="#94a3b8">  NoticeResult</text>
<polygon fill="none" stroke="#64748b" points="1202,-211 1202,-282 1307,-282 1307,-211 1202,-211"/>
</g>
<!-- workflow_step_workflow_project_approval_notice_send_notice&#45;&gt;workflow_outcome_workflow_project_approval_notice_completed -->
<g id="edge5" class="edge">
<title>workflow_step_workflow_project_approval_notice_send_notice&#45;&gt;workflow_outcome_workflow_project_approval_notice_completed</title>
<path fill="none" stroke="#3f3f46" d="M1077.21,-213.25C1118.63,-221.06 1160.81,-229.02 1193.52,-235.19"/>
<polygon fill="#3f3f46" stroke="#3f3f46" points="1193.25,-237.99 1201.63,-236.72 1194.29,-232.48 1193.25,-237.99"/>
<text text-anchor="middle" x="1139.5" y="-232.5" font-family="Arial" font-size="10.00">sent</text>
</g>
<!-- workflow_outcome_workflow_project_approval_notice_delivery_failed -->
<g id="node6" class="node">
<title>workflow_outcome_workflow_project_approval_notice_delivery_failed</title>
<polygon fill="#ffffff" stroke="transparent" points="1202.5,-86 1202.5,-157 1306.5,-157 1306.5,-86 1202.5,-86"/>
<polygon fill="#64748b" stroke="transparent" points="1203.5,-147.5 1203.5,-155.5 1305.5,-155.5 1305.5,-147.5 1203.5,-147.5"/>
<polygon fill="#f8fafc" stroke="transparent" points="1203.5,-116.5 1203.5,-147.5 1305.5,-147.5 1305.5,-116.5 1203.5,-116.5"/>
<text text-anchor="start" x="1207.5" y="-134.1" font-family="Arial" font-weight="bold" font-size="13.00">delivery_failed</text>
<text text-anchor="start" x="1207.5" y="-123.1" font-family="Arial" font-size="8.00" fill="#64748b">failure workflow outcome</text>
<text text-anchor="start" x="1207.5" y="-105.5" font-family="Arial" font-weight="bold" font-size="10.00">result</text>
<text text-anchor="start" x="1207.5" y="-94.5" font-family="Arial" font-size="10.00">result</text>
<text text-anchor="start" x="1232.5" y="-94.5" font-family="Arial" font-size="8.00" fill="#94a3b8">  Problem</text>
<polygon fill="none" stroke="#64748b" points="1202.5,-86 1202.5,-157 1306.5,-157 1306.5,-86 1202.5,-86"/>
</g>
<!-- workflow_step_workflow_project_approval_notice_send_notice&#45;&gt;workflow_outcome_workflow_project_approval_notice_delivery_failed -->
<g id="edge4" class="edge">
<title>workflow_step_workflow_project_approval_notice_send_notice&#45;&gt;workflow_outcome_workflow_project_approval_notice_delivery_failed</title>
<path fill="none" stroke="#3f3f46" d="M1077.21,-154.22C1118.94,-146.48 1161.44,-138.59 1194.26,-132.5"/>
<polygon fill="#3f3f46" stroke="#3f3f46" points="1195.03,-135.2 1202.39,-130.99 1194.01,-129.69 1195.03,-135.2"/>
<text text-anchor="middle" x="1139.5" y="-150.5" font-family="Arial" font-size="10.00">delivery_failed</text>
</g>
<!-- workflow_outcome_workflow_project_approval_notice_completed&#45;&gt;workflow_outcome_workflow_project_approval_notice_delivery_failed -->
</g>
</svg>
