<svg width="1468pt" height="391pt"
 viewBox="0.00 0.00 1468.00 391.00" xmlns="http://www.w3.org/2000/svg" xmlns:xlink="http://www.w3.org/1999/xlink">
<!-- pyspec-contract-input-sha256: 4d86738067d451fea9bbdf15453a5f0c223be9dbf39cb102b6f4eb4c63bb3b3a -->
<g id="graph0" class="graph" transform="scale(1 1) rotate(0) translate(18 373)">
<title>workflow_workflow_project_approval_notice</title>
<!-- workflow_start -->
<g id="node1" class="node">
<title>workflow_start</title>
<ellipse fill="none" stroke="#4f46e5" cx="24.5" cy="-177.5" rx="24.5" ry="24.5"/>
<text text-anchor="middle" x="24.5" y="-175.3" font-family="Arial" font-size="9.00" fill="#312e81">trigger</text>
</g>
<!-- workflow_trigger_event_event_project_approved -->
<g id="node2" class="node">
<title>workflow_trigger_event_event_project_approved</title>
<polygon fill="#ffffff" stroke="transparent" points="112,-125.5 112,-229.5 402,-229.5 402,-125.5 112,-125.5"/>
<polygon fill="#4f46e5" stroke="transparent" points="113,-220.5 113,-228.5 401,-228.5 401,-220.5 113,-220.5"/>
<polygon fill="#eef2ff" stroke="transparent" points="113,-189.5 113,-220.5 401,-220.5 401,-189.5 113,-189.5"/>
<text text-anchor="start" x="117" y="-207.1" font-family="Arial" font-weight="bold" font-size="13.00">event.project.approved</text>
<text text-anchor="start" x="117" y="-196.1" font-family="Arial" font-size="8.00" fill="#64748b">event trigger</text>
<text text-anchor="start" x="117" y="-178.5" font-family="Arial" font-style="italic" font-size="10.00" fill="#3f3f46">Approval events carry the reviewer and project</text>
<text text-anchor="start" x="117" y="-167.5" font-family="Arial" font-style="italic" font-size="10.00" fill="#3f3f46">identity needed by notification workflows.</text>
<text text-anchor="start" x="118" y="-147.5" font-family="Arial" font-weight="bold" font-size="10.00">payload_schema:</text>
<text text-anchor="start" x="200" y="-147.5" font-family="Arial" font-size="10.00">  payload_schema</text>
<text text-anchor="start" x="280" y="-147.5" font-family="Arial" font-size="8.00" fill="#94a3b8">  data_contract.project.approved</text>
<text text-anchor="start" x="118" y="-135.5" font-family="Arial" font-weight="bold" font-size="10.00">emitted by:</text>
<text text-anchor="start" x="170" y="-135.5" font-family="Arial" font-size="10.00">  operation.project.approve</text>
<polygon fill="none" stroke="#4f46e5" points="112,-125.5 112,-229.5 402,-229.5 402,-125.5 112,-125.5"/>
</g>
<!-- workflow_start&#45;&gt;workflow_trigger_event_event_project_approved -->
<g id="edge1" class="edge">
<title>workflow_start&#45;&gt;workflow_trigger_event_event_project_approved</title>
<path fill="none" stroke="#3f3f46" d="M49.3,-177.5C63.43,-177.5 82.67,-177.5 103.76,-177.5"/>
<polygon fill="#3f3f46" stroke="#3f3f46" points="103.93,-180.3 111.93,-177.5 103.93,-174.7 103.93,-180.3"/>
</g>
<!-- workflow_workflow_project_approval_notice -->
<g id="node3" class="node">
<title>workflow_workflow_project_approval_notice</title>
<polygon fill="#ffffff" stroke="transparent" points="465,-110.5 465,-244.5 749,-244.5 749,-110.5 465,-110.5"/>
<polygon fill="#a16207" stroke="transparent" points="466,-235.5 466,-243.5 748,-243.5 748,-235.5 466,-235.5"/>
<polygon fill="#fefce8" stroke="transparent" points="466,-204.5 466,-235.5 748,-235.5 748,-204.5 466,-204.5"/>
<text text-anchor="start" x="470" y="-222.1" font-family="Arial" font-weight="bold" font-size="13.00">workflow.project.approval_notice</text>
<text text-anchor="start" x="470" y="-211.1" font-family="Arial" font-size="8.00" fill="#64748b">workflow</text>
<text text-anchor="start" x="470" y="-193.5" font-family="Arial" font-style="italic" font-size="10.00" fill="#3f3f46">Approval event sends a downstream notice.</text>
<text text-anchor="start" x="471" y="-173.5" font-family="Arial" font-weight="bold" font-size="10.00">ref:</text>
<text text-anchor="start" x="487" y="-173.5" font-family="Arial" font-size="10.00">  workflow.project.approval_notice</text>
<text text-anchor="start" x="471" y="-161.5" font-family="Arial" font-weight="bold" font-size="10.00">steps:</text>
<text text-anchor="start" x="499" y="-161.5" font-family="Arial" font-size="10.00">  send_notice → operation.project.send_approval_notice</text>
<text text-anchor="start" x="470" y="-141.5" font-family="Arial" font-weight="bold" font-size="10.00">outcomes</text>
<text text-anchor="start" x="470" y="-130.5" font-family="Arial" font-size="10.00">completed</text>
<text text-anchor="start" x="516" y="-130.5" font-family="Arial" font-size="8.00" fill="#94a3b8">  data_contract.project.notice_result</text>
<text text-anchor="start" x="643" y="-130.5" font-family="Arial" font-size="8.00"> ← success</text>
<text text-anchor="start" x="470" y="-119.5" font-family="Arial" font-size="10.00">delivery_failed</text>
<text text-anchor="start" x="533" y="-119.5" font-family="Arial" font-size="8.00" fill="#94a3b8">  Problem</text>
<text text-anchor="start" x="568" y="-119.5" font-family="Arial" font-size="8.00"> ← failure</text>
<polygon fill="none" stroke="#a16207" points="465,-110.5 465,-244.5 749,-244.5 749,-110.5 465,-110.5"/>
</g>
<!-- workflow_trigger_event_event_project_approved&#45;&gt;workflow_workflow_project_approval_notice -->
<g id="edge2" class="edge">
<title>workflow_trigger_event_event_project_approved&#45;&gt;workflow_workflow_project_approval_notice</title>
<path fill="none" stroke="#3f3f46" d="M402.06,-177.5C420.06,-177.5 438.5,-177.5 456.57,-177.5"/>
<polygon fill="#3f3f46" stroke="#3f3f46" points="456.85,-180.3 464.85,-177.5 456.85,-174.7 456.85,-180.3"/>
</g>
<!-- workflow_step_workflow_project_approval_notice_send_notice -->
<g id="node4" class="node">
<title>workflow_step_workflow_project_approval_notice_send_notice</title>
<polygon fill="#ffffff" stroke="transparent" points="812,0 812,-355 1145,-355 1145,0 812,0"/>
<polygon fill="#71717a" stroke="transparent" points="813.5,-345.5 813.5,-353.5 1144.5,-353.5 1144.5,-345.5 813.5,-345.5"/>
<polygon fill="#f8fafc" stroke="transparent" points="813.5,-314.5 813.5,-345.5 1144.5,-345.5 1144.5,-314.5 813.5,-314.5"/>
<text text-anchor="start" x="817.5" y="-332.1" font-family="Arial" font-weight="bold" font-size="13.00">send_notice</text>
<text text-anchor="start" x="817.5" y="-321.1" font-family="Arial" font-size="8.00" fill="#64748b">workflow step</text>
<text text-anchor="start" x="817.5" y="-303.5" font-family="Arial" font-style="italic" font-size="10.00" fill="#3f3f46">Approval triggers a notification command for</text>
<text text-anchor="start" x="817.5" y="-292.5" font-family="Arial" font-style="italic" font-size="10.00" fill="#3f3f46">downstream coordination.</text>
<text text-anchor="start" x="818.5" y="-272.5" font-family="Arial" font-weight="bold" font-size="10.00">operation:</text>
<text text-anchor="start" x="866.5" y="-272.5" font-family="Arial" font-size="10.00">  operation.project.send_approval_notice</text>
<text text-anchor="start" x="817.5" y="-252.5" font-family="Arial" font-weight="bold" font-size="10.00">input bindings</text>
<text text-anchor="start" x="817.5" y="-240.5" font-family="Arial" font-size="10.00">approved_by ← $trigger.payload.approved_by</text>
<text text-anchor="start" x="817.5" y="-229.5" font-family="Arial" font-size="10.00">project_id ← $trigger.payload.project_id</text>
<text text-anchor="start" x="817.5" y="-211.5" font-family="Arial" font-weight="bold" font-size="10.00">routes</text>
<text text-anchor="start" x="817.5" y="-199.5" font-family="Arial" font-size="10.00">delivery_failed: retry_policy → delivery_failed (3</text>
<text text-anchor="start" x="817.5" y="-188.5" font-family="Arial" font-size="10.00">exponential)</text>
<text text-anchor="start" x="817.5" y="-177.5" font-family="Arial" font-size="10.00">sent: complete_as → completed</text>
<text text-anchor="start" x="818.5" y="-158.5" font-family="Arial" font-weight="bold" font-size="10.00">authorization_policy:</text>
<text text-anchor="start" x="917.5" y="-158.5" font-family="Arial" font-size="10.00">  authorization_policy.project.send_approval_notice</text>
<text text-anchor="start" x="818.5" y="-146.5" font-family="Arial" font-weight="bold" font-size="10.00">policy_effect:</text>
<text text-anchor="start" x="880.5" y="-146.5" font-family="Arial" font-size="10.00">  allow</text>
<text text-anchor="start" x="818.5" y="-134.5" font-family="Arial" font-weight="bold" font-size="10.00">policy_subjects:</text>
<text text-anchor="start" x="894.5" y="-134.5" font-family="Arial" font-size="10.00">  actor ← input.approved_by</text>
<text text-anchor="start" x="818.5" y="-122.5" font-family="Arial" font-weight="bold" font-size="10.00">policy_targets:</text>
<text text-anchor="start" x="887.5" y="-122.5" font-family="Arial" font-size="10.00">  operation: operation.project.send_approval_notice</text>
<text text-anchor="start" x="818.5" y="-110.5" font-family="Arial" font-weight="bold" font-size="10.00">policy_conditions:</text>
<text text-anchor="start" x="905.5" y="-110.5" font-family="Arial" font-size="10.00">  unconditional true</text>
<text text-anchor="start" x="817.5" y="-90.5" font-family="Arial" font-weight="bold" font-size="10.00">input</text>
<text text-anchor="start" x="817.5" y="-79.5" font-family="Arial" font-size="10.00">approved_by</text>
<text text-anchor="start" x="873.5" y="-79.5" font-family="Arial" font-size="8.00" fill="#94a3b8">  ID</text>
<text text-anchor="start" x="817.5" y="-68.5" font-family="Arial" font-size="10.00">project_id</text>
<text text-anchor="start" x="860.5" y="-68.5" font-family="Arial" font-size="8.00" fill="#94a3b8">  ID</text>
<text text-anchor="start" x="817.5" y="-49.5" font-family="Arial" font-weight="bold" font-size="10.00">failure</text>
<text text-anchor="start" x="817.5" y="-38.5" font-family="Arial" font-size="10.00">delivery_failed</text>
<text text-anchor="start" x="880.5" y="-38.5" font-family="Arial" font-size="8.00" fill="#94a3b8">  Problem</text>
<text text-anchor="start" x="817.5" y="-19.5" font-family="Arial" font-weight="bold" font-size="10.00">success</text>
<text text-anchor="start" x="817.5" y="-8.5" font-family="Arial" font-size="10.00">sent</text>
<text text-anchor="start" x="836.5" y="-8.5" font-family="Arial" font-size="8.00" fill="#94a3b8">  data_contract.project.notice_result</text>
<polygon fill="none" stroke="#71717a" points="812,0 812,-355 1145,-355 1145,0 812,0"/>
</g>
<!-- workflow_workflow_project_approval_notice&#45;&gt;workflow_step_workflow_project_approval_notice_send_notice -->
<g id="edge3" class="edge">
<title>workflow_workflow_project_approval_notice&#45;&gt;workflow_step_workflow_project_approval_notice_send_notice</title>
<path fill="none" stroke="#3f3f46" d="M749.01,-177.5C766.86,-177.5 785.3,-177.5 803.58,-177.5"/>
<polygon fill="#3f3f46" stroke="#3f3f46" points="803.98,-180.3 811.98,-177.5 803.98,-174.7 803.98,-180.3"/>
</g>
<!-- workflow_outcome_workflow_project_approval_notice_completed -->
<g id="node5" class="node">
<title>workflow_outcome_workflow_project_approval_notice_completed</title>
<polygon fill="#ffffff" stroke="transparent" points="1270,-205 1270,-276 1432,-276 1432,-205 1270,-205"/>
<polygon fill="#64748b" stroke="transparent" points="1271,-266.5 1271,-274.5 1431,-274.5 1431,-266.5 1271,-266.5"/>
<polygon fill="#f8fafc" stroke="transparent" points="1271,-235.5 1271,-266.5 1431,-266.5 1431,-235.5 1271,-235.5"/>
<text text-anchor="start" x="1275" y="-253.1" font-family="Arial" font-weight="bold" font-size="13.00">completed</text>
<text text-anchor="start" x="1275" y="-242.1" font-family="Arial" font-size="8.00" fill="#64748b">success workflow outcome</text>
<text text-anchor="start" x="1275" y="-224.5" font-family="Arial" font-weight="bold" font-size="10.00">result</text>
<text text-anchor="start" x="1275" y="-213.5" font-family="Arial" font-size="10.00">result</text>
<text text-anchor="start" x="1300" y="-213.5" font-family="Arial" font-size="8.00" fill="#94a3b8">  data_contract.project.notice_result</text>
<polygon fill="none" stroke="#64748b" points="1270,-205 1270,-276 1432,-276 1432,-205 1270,-205"/>
</g>
<!-- workflow_step_workflow_project_approval_notice_send_notice&#45;&gt;workflow_outcome_workflow_project_approval_notice_completed -->
<g id="edge5" class="edge">
<title>workflow_step_workflow_project_approval_notice_send_notice&#45;&gt;workflow_outcome_workflow_project_approval_notice_completed</title>
<path fill="none" stroke="#3f3f46" d="M1145.24,-205.68C1185.38,-212.51 1226.75,-219.54 1261.7,-225.49"/>
<polygon fill="#3f3f46" stroke="#3f3f46" points="1261.63,-228.31 1269.98,-226.89 1262.56,-222.79 1261.63,-228.31"/>
<text text-anchor="middle" x="1207.5" y="-222.5" font-family="Arial" font-size="10.00">sent</text>
</g>
<!-- workflow_outcome_workflow_project_approval_notice_delivery_failed -->
<g id="node6" class="node">
<title>workflow_outcome_workflow_project_approval_notice_delivery_failed</title>
<polygon fill="#ffffff" stroke="transparent" points="1299,-80 1299,-151 1403,-151 1403,-80 1299,-80"/>
<polygon fill="#64748b" stroke="transparent" points="1300,-141.5 1300,-149.5 1402,-149.5 1402,-141.5 1300,-141.5"/>
<polygon fill="#f8fafc" stroke="transparent" points="1300,-110.5 1300,-141.5 1402,-141.5 1402,-110.5 1300,-110.5"/>
<text text-anchor="start" x="1304" y="-128.1" font-family="Arial" font-weight="bold" font-size="13.00">delivery_failed</text>
<text text-anchor="start" x="1304" y="-117.1" font-family="Arial" font-size="8.00" fill="#64748b">failure workflow outcome</text>
<text text-anchor="start" x="1304" y="-99.5" font-family="Arial" font-weight="bold" font-size="10.00">result</text>
<text text-anchor="start" x="1304" y="-88.5" font-family="Arial" font-size="10.00">result</text>
<text text-anchor="start" x="1329" y="-88.5" font-family="Arial" font-size="8.00" fill="#94a3b8">  Problem</text>
<polygon fill="none" stroke="#64748b" points="1299,-80 1299,-151 1403,-151 1403,-80 1299,-80"/>
</g>
<!-- workflow_step_workflow_project_approval_notice_send_notice&#45;&gt;workflow_outcome_workflow_project_approval_notice_delivery_failed -->
<g id="edge4" class="edge">
<title>workflow_step_workflow_project_approval_notice_send_notice&#45;&gt;workflow_outcome_workflow_project_approval_notice_delivery_failed</title>
<path fill="none" stroke="#3f3f46" d="M1145.24,-149.76C1197.23,-141.07 1251.28,-132.02 1290.79,-125.41"/>
<polygon fill="#3f3f46" stroke="#3f3f46" points="1291.57,-128.12 1299,-124.03 1290.64,-122.59 1291.57,-128.12"/>
<text text-anchor="middle" x="1207.5" y="-146.5" font-family="Arial" font-size="10.00">delivery_failed</text>
</g>
<!-- workflow_outcome_workflow_project_approval_notice_completed&#45;&gt;workflow_outcome_workflow_project_approval_notice_delivery_failed -->
</g>
</svg>
