<svg width="1230pt" height="482pt"
 viewBox="0.00 0.00 1230.00 482.00" xmlns="http://www.w3.org/2000/svg" xmlns:xlink="http://www.w3.org/1999/xlink">
<!-- pyspec-contract-input-sha256: 74559dbe891e306caaa7db13fe595085c5cb1ba864291da88f520dff1285b1fa -->
<g id="graph0" class="graph" transform="scale(1 1) rotate(0) translate(18 464)">
<title>workflow_workflow_project_approval_notice</title>
<!-- workflow_trigger_domain_event_domain_event_project_approved -->
<g id="node1" class="node">
<title>workflow_trigger_domain_event_domain_event_project_approved</title>
<polygon fill="#ffffff" stroke="transparent" points="0,-149.5 0,-253.5 223,-253.5 223,-149.5 0,-149.5"/>
<polygon fill="#4f46e5" stroke="transparent" points="1.5,-244.5 1.5,-252.5 222.5,-252.5 222.5,-244.5 1.5,-244.5"/>
<polygon fill="#eef2ff" stroke="transparent" points="1.5,-213.5 1.5,-244.5 222.5,-244.5 222.5,-213.5 1.5,-213.5"/>
<text text-anchor="start" x="5.5" y="-231.1" font-family="Arial" font-weight="bold" font-size="13.00">domain_event.project.approved</text>
<text text-anchor="start" x="5.5" y="-220.1" font-family="Arial" font-size="8.00" fill="#64748b">domain event trigger</text>
<text text-anchor="start" x="5.5" y="-202.5" font-family="Arial" font-style="italic" font-size="10.00" fill="#3f3f46">Approval domain events carry the reviewer and</text>
<text text-anchor="start" x="5.5" y="-191.5" font-family="Arial" font-style="italic" font-size="10.00" fill="#3f3f46">project identity needed by notification workflows.</text>
<text text-anchor="start" x="6.5" y="-171.5" font-family="Arial" font-weight="bold" font-size="10.00">payload:</text>
<text text-anchor="start" x="46.5" y="-171.5" font-family="Arial" font-size="10.00">  payload</text>
<text text-anchor="start" x="86.5" y="-171.5" font-family="Arial" font-size="8.00" fill="#94a3b8">  schema.project.approved</text>
<text text-anchor="start" x="6.5" y="-159.5" font-family="Arial" font-weight="bold" font-size="10.00">emitted by:</text>
<text text-anchor="start" x="58.5" y="-159.5" font-family="Arial" font-size="10.00">  application_action.project.approve</text>
<polygon fill="none" stroke="#4f46e5" points="0,-149.5 0,-253.5 223,-253.5 223,-149.5 0,-149.5"/>
</g>
<!-- workflow_workflow_project_approval_notice -->
<g id="node2" class="node">
<title>workflow_workflow_project_approval_notice</title>
<polygon fill="#ffffff" stroke="transparent" points="286,-114.5 286,-288.5 522,-288.5 522,-114.5 286,-114.5"/>
<polygon fill="#a16207" stroke="transparent" points="287,-279.5 287,-287.5 521,-287.5 521,-279.5 287,-279.5"/>
<polygon fill="#fefce8" stroke="transparent" points="287,-248.5 287,-279.5 521,-279.5 521,-248.5 287,-248.5"/>
<text text-anchor="start" x="291" y="-266.1" font-family="Arial" font-weight="bold" font-size="13.00">workflow.project.approval_notice</text>
<text text-anchor="start" x="291" y="-255.1" font-family="Arial" font-size="8.00" fill="#64748b">workflow</text>
<text text-anchor="start" x="291" y="-237.5" font-family="Arial" font-style="italic" font-size="10.00" fill="#3f3f46">Approval domain event sends a downstream notice.</text>
<text text-anchor="start" x="292" y="-217.5" font-family="Arial" font-weight="bold" font-size="10.00">ref:</text>
<text text-anchor="start" x="308" y="-217.5" font-family="Arial" font-size="10.00">  workflow.project.approval_notice</text>
<text text-anchor="start" x="291" y="-197.5" font-family="Arial" font-weight="bold" font-size="10.00">steps:</text>
<text text-anchor="start" x="319" y="-197.5" font-family="Arial" font-size="10.00">  send_notice →</text>
<text text-anchor="start" x="291" y="-185.5" font-family="Arial" font-size="10.00">  application_action.project.send_approval_notice</text>
<text text-anchor="start" x="291" y="-167.5" font-family="Arial" font-weight="bold" font-size="10.00">outcomes</text>
<text text-anchor="start" x="291" y="-156.5" font-family="Arial" font-size="10.00">completed</text>
<text text-anchor="start" x="337" y="-156.5" font-family="Arial" font-size="8.00" fill="#94a3b8">  schema.project.notice_result</text>
<text text-anchor="start" x="443" y="-156.5" font-family="Arial" font-size="8.00"> ← success</text>
<text text-anchor="start" x="291" y="-145.5" font-family="Arial" font-size="10.00">delivery_failed</text>
<text text-anchor="start" x="354" y="-145.5" font-family="Arial" font-size="8.00" fill="#94a3b8">  Problem</text>
<text text-anchor="start" x="389" y="-145.5" font-family="Arial" font-size="8.00"> ← failure</text>
<text text-anchor="start" x="291" y="-134.5" font-family="Arial" font-size="10.00">notice_forbidden</text>
<text text-anchor="start" x="363" y="-134.5" font-family="Arial" font-size="8.00" fill="#94a3b8">  Problem</text>
<text text-anchor="start" x="398" y="-134.5" font-family="Arial" font-size="8.00"> ← failure</text>
<text text-anchor="start" x="291" y="-123.5" font-family="Arial" font-size="10.00">notice_unauthenticated</text>
<text text-anchor="start" x="392" y="-123.5" font-family="Arial" font-size="8.00" fill="#94a3b8">  Problem</text>
<text text-anchor="start" x="427" y="-123.5" font-family="Arial" font-size="8.00"> ← failure</text>
<polygon fill="none" stroke="#a16207" points="286,-114.5 286,-288.5 522,-288.5 522,-114.5 286,-114.5"/>
</g>
<!-- workflow_trigger_domain_event_domain_event_project_approved&#45;&gt;workflow_workflow_project_approval_notice -->
<g id="edge1" class="edge">
<title>workflow_trigger_domain_event_domain_event_project_approved&#45;&gt;workflow_workflow_project_approval_notice</title>
<path fill="none" stroke="#3f3f46" d="M223.15,-201.5C240.95,-201.5 259.49,-201.5 277.6,-201.5"/>
<polygon fill="#3f3f46" stroke="#3f3f46" points="277.89,-204.3 285.89,-201.5 277.89,-198.7 277.89,-204.3"/>
</g>
<!-- workflow_step_workflow_project_approval_notice_send_notice -->
<g id="node3" class="node">
<title>workflow_step_workflow_project_approval_notice_send_notice</title>
<polygon fill="#ffffff" stroke="transparent" points="585,-61.5 585,-341.5 900,-341.5 900,-61.5 585,-61.5"/>
<polygon fill="#71717a" stroke="transparent" points="586.5,-332.5 586.5,-340.5 899.5,-340.5 899.5,-332.5 586.5,-332.5"/>
<polygon fill="#f8fafc" stroke="transparent" points="586.5,-301.5 586.5,-332.5 899.5,-332.5 899.5,-301.5 586.5,-301.5"/>
<text text-anchor="start" x="590.5" y="-319.1" font-family="Arial" font-weight="bold" font-size="13.00">send_notice</text>
<text text-anchor="start" x="590.5" y="-308.1" font-family="Arial" font-size="8.00" fill="#64748b">workflow step</text>
<text text-anchor="start" x="590.5" y="-290.5" font-family="Arial" font-style="italic" font-size="10.00" fill="#3f3f46">Approval triggers a notification command for</text>
<text text-anchor="start" x="590.5" y="-279.5" font-family="Arial" font-style="italic" font-size="10.00" fill="#3f3f46">downstream coordination.</text>
<text text-anchor="start" x="591.5" y="-259.5" font-family="Arial" font-weight="bold" font-size="10.00">application_action:</text>
<text text-anchor="start" x="680.5" y="-259.5" font-family="Arial" font-size="10.00">  application_action.project.send_approval_notice</text>
<text text-anchor="start" x="590.5" y="-239.5" font-family="Arial" font-weight="bold" font-size="10.00">input bindings</text>
<text text-anchor="start" x="590.5" y="-227.5" font-family="Arial" font-size="10.00">approved_by ← trigger.payload.approved_by</text>
<text text-anchor="start" x="590.5" y="-216.5" font-family="Arial" font-size="10.00">project_id ← trigger.payload.project_id</text>
<text text-anchor="start" x="590.5" y="-198.5" font-family="Arial" font-weight="bold" font-size="10.00">transitions</text>
<text text-anchor="start" x="590.5" y="-186.5" font-family="Arial" font-size="10.00">delivery_failed: retry_policy → delivery_failed (3</text>
<text text-anchor="start" x="590.5" y="-175.5" font-family="Arial" font-size="10.00">exponential)</text>
<text text-anchor="start" x="590.5" y="-164.5" font-family="Arial" font-size="10.00">forbidden: fail_as → notice_forbidden</text>
<text text-anchor="start" x="590.5" y="-153.5" font-family="Arial" font-size="10.00">sent: complete_as → completed</text>
<text text-anchor="start" x="590.5" y="-142.5" font-family="Arial" font-size="10.00">unauthenticated: fail_as → notice_unauthenticated</text>
<text text-anchor="start" x="591.5" y="-123.5" font-family="Arial" font-weight="bold" font-size="10.00">kind:</text>
<text text-anchor="start" x="615.5" y="-123.5" font-family="Arial" font-size="10.00">  command</text>
<text text-anchor="start" x="590.5" y="-103.5" font-family="Arial" font-weight="bold" font-size="10.00">authorization</text>
<text text-anchor="start" x="590.5" y="-91.5" font-family="Arial" font-size="10.00">policy: authorization_policy.project.reviewer</text>
<text text-anchor="start" x="590.5" y="-80.5" font-family="Arial" font-size="10.00">unauthenticated_as: unauthenticated</text>
<text text-anchor="start" x="590.5" y="-69.5" font-family="Arial" font-size="10.00">forbidden_as: forbidden</text>
<polygon fill="none" stroke="#71717a" points="585,-61.5 585,-341.5 900,-341.5 900,-61.5 585,-61.5"/>
</g>
<!-- workflow_workflow_project_approval_notice&#45;&gt;workflow_step_workflow_project_approval_notice_send_notice -->
<g id="edge2" class="edge">
<title>workflow_workflow_project_approval_notice&#45;&gt;workflow_step_workflow_project_approval_notice_send_notice</title>
<path fill="none" stroke="#3f3f46" d="M522.22,-201.5C539.74,-201.5 558.07,-201.5 576.35,-201.5"/>
<polygon fill="#3f3f46" stroke="#3f3f46" points="576.75,-204.3 584.75,-201.5 576.75,-198.7 576.75,-204.3"/>
</g>
<!-- workflow_outcome_workflow_project_approval_notice_completed -->
<g id="node4" class="node">
<title>workflow_outcome_workflow_project_approval_notice_completed</title>
<polygon fill="#ffffff" stroke="transparent" points="1042.5,-375 1042.5,-446 1183.5,-446 1183.5,-375 1042.5,-375"/>
<polygon fill="#16a34a" stroke="transparent" points="1044,-436.5 1044,-444.5 1183,-444.5 1183,-436.5 1044,-436.5"/>
<polygon fill="#f0fdf4" stroke="transparent" points="1044,-405.5 1044,-436.5 1183,-436.5 1183,-405.5 1044,-405.5"/>
<text text-anchor="start" x="1048" y="-423.1" font-family="Arial" font-weight="bold" font-size="13.00">completed</text>
<text text-anchor="start" x="1048" y="-412.1" font-family="Arial" font-size="8.00" fill="#64748b">success workflow outcome</text>
<text text-anchor="start" x="1048" y="-394.5" font-family="Arial" font-weight="bold" font-size="10.00">result</text>
<text text-anchor="start" x="1048" y="-383.5" font-family="Arial" font-size="10.00">result</text>
<text text-anchor="start" x="1073" y="-383.5" font-family="Arial" font-size="8.00" fill="#94a3b8">  schema.project.notice_result</text>
<polygon fill="none" stroke="#16a34a" points="1042.5,-375 1042.5,-446 1183.5,-446 1183.5,-375 1042.5,-375"/>
</g>
<!-- workflow_step_workflow_project_approval_notice_send_notice&#45;&gt;workflow_outcome_workflow_project_approval_notice_completed -->
<g id="edge5" class="edge">
<title>workflow_step_workflow_project_approval_notice_send_notice&#45;&gt;workflow_outcome_workflow_project_approval_notice_completed</title>
<path fill="none" stroke="#3f3f46" d="M900.04,-290.29C949.5,-318.34 1001.68,-347.93 1041.9,-370.74"/>
<polygon fill="#3f3f46" stroke="#3f3f46" points="1040.92,-373.41 1049.26,-374.92 1043.68,-368.54 1040.92,-373.41"/>
<text text-anchor="middle" x="966" y="-345.5" font-family="Arial" font-size="10.00">sent</text>
</g>
<!-- workflow_outcome_workflow_project_approval_notice_delivery_failed -->
<g id="node5" class="node">
<title>workflow_outcome_workflow_project_approval_notice_delivery_failed</title>
<polygon fill="#ffffff" stroke="transparent" points="1061,-250 1061,-321 1165,-321 1165,-250 1061,-250"/>
<polygon fill="#dc2626" stroke="transparent" points="1062,-311.5 1062,-319.5 1164,-319.5 1164,-311.5 1062,-311.5"/>
<polygon fill="#fef2f2" stroke="transparent" points="1062,-280.5 1062,-311.5 1164,-311.5 1164,-280.5 1062,-280.5"/>
<text text-anchor="start" x="1066" y="-298.1" font-family="Arial" font-weight="bold" font-size="13.00">delivery_failed</text>
<text text-anchor="start" x="1066" y="-287.1" font-family="Arial" font-size="8.00" fill="#64748b">failure workflow outcome</text>
<text text-anchor="start" x="1066" y="-269.5" font-family="Arial" font-weight="bold" font-size="10.00">result</text>
<text text-anchor="start" x="1066" y="-258.5" font-family="Arial" font-size="10.00">result</text>
<text text-anchor="start" x="1091" y="-258.5" font-family="Arial" font-size="8.00" fill="#94a3b8">  Problem</text>
<polygon fill="none" stroke="#dc2626" points="1061,-250 1061,-321 1165,-321 1165,-250 1061,-250"/>
</g>
<!-- workflow_step_workflow_project_approval_notice_send_notice&#45;&gt;workflow_outcome_workflow_project_approval_notice_delivery_failed -->
<g id="edge3" class="edge">
<title>workflow_step_workflow_project_approval_notice_send_notice&#45;&gt;workflow_outcome_workflow_project_approval_notice_delivery_failed</title>
<path fill="none" stroke="#3f3f46" d="M900.04,-237.18C954.07,-249.5 1011.36,-262.56 1052.73,-271.99"/>
<polygon fill="#3f3f46" stroke="#3f3f46" points="1052.37,-274.78 1060.79,-273.83 1053.61,-269.32 1052.37,-274.78"/>
<text text-anchor="middle" x="966" y="-260.5" font-family="Arial" font-size="10.00">delivery_failed</text>
</g>
<!-- workflow_outcome_workflow_project_approval_notice_notice_forbidden -->
<g id="node6" class="node">
<title>workflow_outcome_workflow_project_approval_notice_notice_forbidden</title>
<polygon fill="#ffffff" stroke="transparent" points="1053,-125 1053,-196 1173,-196 1173,-125 1053,-125"/>
<polygon fill="#dc2626" stroke="transparent" points="1054,-186.5 1054,-194.5 1172,-194.5 1172,-186.5 1054,-186.5"/>
<polygon fill="#fef2f2" stroke="transparent" points="1054,-155.5 1054,-186.5 1172,-186.5 1172,-155.5 1054,-155.5"/>
<text text-anchor="start" x="1058" y="-173.1" font-family="Arial" font-weight="bold" font-size="13.00">notice_forbidden</text>
<text text-anchor="start" x="1058" y="-162.1" font-family="Arial" font-size="8.00" fill="#64748b">failure workflow outcome</text>
<text text-anchor="start" x="1058" y="-144.5" font-family="Arial" font-weight="bold" font-size="10.00">result</text>
<text text-anchor="start" x="1058" y="-133.5" font-family="Arial" font-size="10.00">result</text>
<text text-anchor="start" x="1083" y="-133.5" font-family="Arial" font-size="8.00" fill="#94a3b8">  Problem</text>
<polygon fill="none" stroke="#dc2626" points="1053,-125 1053,-196 1173,-196 1173,-125 1053,-125"/>
</g>
<!-- workflow_step_workflow_project_approval_notice_send_notice&#45;&gt;workflow_outcome_workflow_project_approval_notice_notice_forbidden -->
<g id="edge4" class="edge">
<title>workflow_step_workflow_project_approval_notice_send_notice&#45;&gt;workflow_outcome_workflow_project_approval_notice_notice_forbidden</title>
<path fill="none" stroke="#3f3f46" d="M900.04,-184.08C950.66,-178.45 1004.13,-172.5 1044.7,-167.99"/>
<polygon fill="#3f3f46" stroke="#3f3f46" points="1045.26,-170.74 1052.9,-167.08 1044.64,-165.18 1045.26,-170.74"/>
<text text-anchor="middle" x="966" y="-182.5" font-family="Arial" font-size="10.00">forbidden</text>
</g>
<!-- workflow_outcome_workflow_project_approval_notice_notice_unauthenticated -->
<g id="node7" class="node">
<title>workflow_outcome_workflow_project_approval_notice_notice_unauthenticated</title>
<polygon fill="#ffffff" stroke="transparent" points="1032,0 1032,-71 1194,-71 1194,0 1032,0"/>
<polygon fill="#dc2626" stroke="transparent" points="1033,-61.5 1033,-69.5 1193,-69.5 1193,-61.5 1033,-61.5"/>
<polygon fill="#fef2f2" stroke="transparent" points="1033,-30.5 1033,-61.5 1193,-61.5 1193,-30.5 1033,-30.5"/>
<text text-anchor="start" x="1037" y="-48.1" font-family="Arial" font-weight="bold" font-size="13.00">notice_unauthenticated</text>
<text text-anchor="start" x="1037" y="-37.1" font-family="Arial" font-size="8.00" fill="#64748b">failure workflow outcome</text>
<text text-anchor="start" x="1037" y="-19.5" font-family="Arial" font-weight="bold" font-size="10.00">result</text>
<text text-anchor="start" x="1037" y="-8.5" font-family="Arial" font-size="10.00">result</text>
<text text-anchor="start" x="1062" y="-8.5" font-family="Arial" font-size="8.00" fill="#94a3b8">  Problem</text>
<polygon fill="none" stroke="#dc2626" points="1032,0 1032,-71 1194,-71 1194,0 1032,0"/>
</g>
<!-- workflow_step_workflow_project_approval_notice_send_notice&#45;&gt;workflow_outcome_workflow_project_approval_notice_notice_unauthenticated -->
<g id="edge6" class="edge">
<title>workflow_step_workflow_project_approval_notice_send_notice&#45;&gt;workflow_outcome_workflow_project_approval_notice_notice_unauthenticated</title>
<path fill="none" stroke="#3f3f46" d="M900.04,-130.98C943.05,-111.61 988.11,-91.31 1025.58,-74.43"/>
<polygon fill="#3f3f46" stroke="#3f3f46" points="1026.82,-76.94 1032.96,-71.1 1024.52,-71.84 1026.82,-76.94"/>
<text text-anchor="middle" x="966" y="-116.5" font-family="Arial" font-size="10.00">unauthenticated</text>
</g>
<!-- workflow_outcome_workflow_project_approval_notice_completed&#45;&gt;workflow_outcome_workflow_project_approval_notice_delivery_failed -->
<!-- workflow_outcome_workflow_project_approval_notice_delivery_failed&#45;&gt;workflow_outcome_workflow_project_approval_notice_notice_forbidden -->
<!-- workflow_outcome_workflow_project_approval_notice_notice_forbidden&#45;&gt;workflow_outcome_workflow_project_approval_notice_notice_unauthenticated -->
</g>
</svg>
