<svg width="1262pt" height="322pt"
 viewBox="0.00 0.00 1262.00 322.00" xmlns="http://www.w3.org/2000/svg" xmlns:xlink="http://www.w3.org/1999/xlink">
<!-- pyspec-contract-input-sha256: 87d6cec615cf2ff5b84914ef4d2c97660175d342e2c2a4f11eb7906254423c75 -->
<g id="graph0" class="graph" transform="scale(1 1) rotate(0) translate(18 304)">
<title>workflow_workflow_project_approval_notice</title>
<!-- workflow_start -->
<g id="node1" class="node">
<title>workflow_start</title>
<ellipse fill="none" stroke="#4f46e5" cx="24.5" cy="-143" rx="24.5" ry="24.5"/>
<text text-anchor="middle" x="24.5" y="-140.8" font-family="Arial" font-size="9.00" fill="#312e81">trigger</text>
</g>
<!-- workflow_trigger_event_event_project_approved -->
<g id="node2" class="node">
<title>workflow_trigger_event_event_project_approved</title>
<polygon fill="#ffffff" stroke="transparent" points="112,-91 112,-195 350,-195 350,-91 112,-91"/>
<polygon fill="#4f46e5" stroke="transparent" points="113,-186 113,-194 349,-194 349,-186 113,-186"/>
<polygon fill="#eef2ff" stroke="transparent" points="113,-155 113,-186 349,-186 349,-155 113,-155"/>
<text text-anchor="start" x="117" y="-172.6" font-family="Arial" font-weight="bold" font-size="13.00">event.project.approved</text>
<text text-anchor="start" x="117" y="-161.6" font-family="Arial" font-size="8.00" fill="#64748b">event trigger</text>
<text text-anchor="start" x="117" y="-144" font-family="Arial" font-style="italic" font-size="10.00" fill="#3f3f46">Approval events carry the reviewer and project</text>
<text text-anchor="start" x="117" y="-133" font-family="Arial" font-style="italic" font-size="10.00" fill="#3f3f46">identity needed by notification workflows.</text>
<text text-anchor="start" x="118" y="-113" font-family="Arial" font-weight="bold" font-size="10.00">payload_schema:</text>
<text text-anchor="start" x="200" y="-113" font-family="Arial" font-size="10.00">  payload_schema</text>
<text text-anchor="start" x="280" y="-113" font-family="Arial" font-size="8.00" fill="#94a3b8">  ProjectApproved</text>
<text text-anchor="start" x="118" y="-101" font-family="Arial" font-weight="bold" font-size="10.00">emitted by:</text>
<text text-anchor="start" x="170" y="-101" font-family="Arial" font-size="10.00">  operation.project.approve</text>
<polygon fill="none" stroke="#4f46e5" points="112,-91 112,-195 350,-195 350,-91 112,-91"/>
</g>
<!-- workflow_start&#45;&gt;workflow_trigger_event_event_project_approved -->
<g id="edge1" class="edge">
<title>workflow_start&#45;&gt;workflow_trigger_event_event_project_approved</title>
<path fill="none" stroke="#3f3f46" d="M49.36,-143C63.65,-143 83.06,-143 103.85,-143"/>
<polygon fill="#3f3f46" stroke="#3f3f46" points="103.89,-145.8 111.89,-143 103.89,-140.2 103.89,-145.8"/>
</g>
<!-- workflow_workflow_project_approval_notice -->
<g id="node3" class="node">
<title>workflow_workflow_project_approval_notice</title>
<polygon fill="#ffffff" stroke="transparent" points="413,-76 413,-210 697,-210 697,-76 413,-76"/>
<polygon fill="#a16207" stroke="transparent" points="414,-201 414,-209 696,-209 696,-201 414,-201"/>
<polygon fill="#fefce8" stroke="transparent" points="414,-170 414,-201 696,-201 696,-170 414,-170"/>
<text text-anchor="start" x="418" y="-187.6" font-family="Arial" font-weight="bold" font-size="13.00">workflow.project.approval_notice</text>
<text text-anchor="start" x="418" y="-176.6" font-family="Arial" font-size="8.00" fill="#64748b">workflow</text>
<text text-anchor="start" x="418" y="-159" font-family="Arial" font-style="italic" font-size="10.00" fill="#3f3f46">Approval event sends a downstream notice.</text>
<text text-anchor="start" x="419" y="-139" font-family="Arial" font-weight="bold" font-size="10.00">ref:</text>
<text text-anchor="start" x="435" y="-139" font-family="Arial" font-size="10.00">  workflow.project.approval_notice</text>
<text text-anchor="start" x="419" y="-127" font-family="Arial" font-weight="bold" font-size="10.00">steps:</text>
<text text-anchor="start" x="447" y="-127" font-family="Arial" font-size="10.00">  send_notice → operation.project.send_approval_notice</text>
<text text-anchor="start" x="418" y="-107" font-family="Arial" font-weight="bold" font-size="10.00">outcomes</text>
<text text-anchor="start" x="418" y="-96" font-family="Arial" font-size="10.00">completed</text>
<text text-anchor="start" x="464" y="-96" font-family="Arial" font-size="8.00" fill="#94a3b8">  NoticeResult</text>
<text text-anchor="start" x="514" y="-96" font-family="Arial" font-size="8.00"> ← success</text>
<text text-anchor="start" x="418" y="-85" font-family="Arial" font-size="10.00">delivery_failed</text>
<text text-anchor="start" x="481" y="-85" font-family="Arial" font-size="8.00" fill="#94a3b8">  Problem</text>
<text text-anchor="start" x="516" y="-85" font-family="Arial" font-size="8.00"> ← failure</text>
<polygon fill="none" stroke="#a16207" points="413,-76 413,-210 697,-210 697,-76 413,-76"/>
</g>
<!-- workflow_trigger_event_event_project_approved&#45;&gt;workflow_workflow_project_approval_notice -->
<g id="edge2" class="edge">
<title>workflow_trigger_event_event_project_approved&#45;&gt;workflow_workflow_project_approval_notice</title>
<path fill="none" stroke="#3f3f46" d="M350.07,-143C367.82,-143 386.31,-143 404.61,-143"/>
<polygon fill="#3f3f46" stroke="#3f3f46" points="404.99,-145.8 412.99,-143 404.99,-140.2 404.99,-145.8"/>
</g>
<!-- workflow_step_workflow_project_approval_notice_send_notice -->
<g id="node4" class="node">
<title>workflow_step_workflow_project_approval_notice_send_notice</title>
<polygon fill="#ffffff" stroke="transparent" points="760,0 760,-286 996,-286 996,0 760,0"/>
<polygon fill="#71717a" stroke="transparent" points="761,-277 761,-285 995,-285 995,-277 761,-277"/>
<polygon fill="#f8fafc" stroke="transparent" points="761,-246 761,-277 995,-277 995,-246 761,-246"/>
<text text-anchor="start" x="765" y="-263.6" font-family="Arial" font-weight="bold" font-size="13.00">send_notice</text>
<text text-anchor="start" x="765" y="-252.6" font-family="Arial" font-size="8.00" fill="#64748b">workflow step</text>
<text text-anchor="start" x="765" y="-235" font-family="Arial" font-style="italic" font-size="10.00" fill="#3f3f46">Approval triggers a notification command for</text>
<text text-anchor="start" x="765" y="-224" font-family="Arial" font-style="italic" font-size="10.00" fill="#3f3f46">downstream coordination.</text>
<text text-anchor="start" x="766" y="-204" font-family="Arial" font-weight="bold" font-size="10.00">operation:</text>
<text text-anchor="start" x="814" y="-204" font-family="Arial" font-size="10.00">  operation.project.send_approval_notice</text>
<text text-anchor="start" x="765" y="-184" font-family="Arial" font-weight="bold" font-size="10.00">with</text>
<text text-anchor="start" x="765" y="-172" font-family="Arial" font-size="10.00">approved_by ← $trigger.payload.approved_by</text>
<text text-anchor="start" x="765" y="-161" font-family="Arial" font-size="10.00">project_id ← $trigger.payload.project_id</text>
<text text-anchor="start" x="765" y="-143" font-family="Arial" font-weight="bold" font-size="10.00">routes</text>
<text text-anchor="start" x="765" y="-131" font-family="Arial" font-size="10.00">delivery_failed: fail → delivery_failed (retry 3</text>
<text text-anchor="start" x="765" y="-120" font-family="Arial" font-size="10.00">exponential)</text>
<text text-anchor="start" x="765" y="-109" font-family="Arial" font-size="10.00">sent: complete → completed</text>
<text text-anchor="start" x="765" y="-91" font-family="Arial" font-weight="bold" font-size="10.00">input</text>
<text text-anchor="start" x="765" y="-80" font-family="Arial" font-size="10.00">approved_by</text>
<text text-anchor="start" x="821" y="-80" font-family="Arial" font-size="8.00" fill="#94a3b8">  ID</text>
<text text-anchor="start" x="765" y="-69" font-family="Arial" font-size="10.00">project_id</text>
<text text-anchor="start" x="808" y="-69" font-family="Arial" font-size="8.00" fill="#94a3b8">  ID</text>
<text text-anchor="start" x="765" y="-50" font-family="Arial" font-weight="bold" font-size="10.00">failure</text>
<text text-anchor="start" x="765" y="-39" font-family="Arial" font-size="10.00">delivery_failed</text>
<text text-anchor="start" x="828" y="-39" font-family="Arial" font-size="8.00" fill="#94a3b8">  Problem</text>
<text text-anchor="start" x="765" y="-20" font-family="Arial" font-weight="bold" font-size="10.00">success</text>
<text text-anchor="start" x="765" y="-9" font-family="Arial" font-size="10.00">sent</text>
<text text-anchor="start" x="784" y="-9" font-family="Arial" font-size="8.00" fill="#94a3b8">  NoticeResult</text>
<polygon fill="none" stroke="#71717a" points="760,0 760,-286 996,-286 996,0 760,0"/>
</g>
<!-- workflow_workflow_project_approval_notice&#45;&gt;workflow_step_workflow_project_approval_notice_send_notice -->
<g id="edge3" class="edge">
<title>workflow_workflow_project_approval_notice&#45;&gt;workflow_step_workflow_project_approval_notice_send_notice</title>
<path fill="none" stroke="#3f3f46" d="M697.26,-143C715.35,-143 733.77,-143 751.58,-143"/>
<polygon fill="#3f3f46" stroke="#3f3f46" points="751.72,-145.8 759.72,-143 751.72,-140.2 751.72,-145.8"/>
</g>
<!-- workflow_outcome_workflow_project_approval_notice_completed -->
<g id="node5" class="node">
<title>workflow_outcome_workflow_project_approval_notice_completed</title>
<polygon fill="#ffffff" stroke="transparent" points="1121,-170.5 1121,-241.5 1226,-241.5 1226,-170.5 1121,-170.5"/>
<polygon fill="#64748b" stroke="transparent" points="1122.5,-232 1122.5,-240 1225.5,-240 1225.5,-232 1122.5,-232"/>
<polygon fill="#f8fafc" stroke="transparent" points="1122.5,-201 1122.5,-232 1225.5,-232 1225.5,-201 1122.5,-201"/>
<text text-anchor="start" x="1126.5" y="-218.6" font-family="Arial" font-weight="bold" font-size="13.00">completed</text>
<text text-anchor="start" x="1126.5" y="-207.6" font-family="Arial" font-size="8.00" fill="#64748b">success workflow outcome</text>
<text text-anchor="start" x="1126.5" y="-190" font-family="Arial" font-weight="bold" font-size="10.00">result</text>
<text text-anchor="start" x="1126.5" y="-179" font-family="Arial" font-size="10.00">result</text>
<text text-anchor="start" x="1151.5" y="-179" font-family="Arial" font-size="8.00" fill="#94a3b8">  NoticeResult</text>
<polygon fill="none" stroke="#64748b" points="1121,-170.5 1121,-241.5 1226,-241.5 1226,-170.5 1121,-170.5"/>
</g>
<!-- workflow_step_workflow_project_approval_notice_send_notice&#45;&gt;workflow_outcome_workflow_project_approval_notice_completed -->
<g id="edge5" class="edge">
<title>workflow_step_workflow_project_approval_notice_send_notice&#45;&gt;workflow_outcome_workflow_project_approval_notice_completed</title>
<path fill="none" stroke="#3f3f46" d="M996.26,-168.17C1036.32,-176.77 1079.44,-186.02 1113,-193.23"/>
<polygon fill="#3f3f46" stroke="#3f3f46" points="1112.47,-195.98 1120.88,-194.92 1113.65,-190.5 1112.47,-195.98"/>
<text text-anchor="middle" x="1058.5" y="-190" font-family="Arial" font-size="10.00">sent</text>
</g>
<!-- workflow_outcome_workflow_project_approval_notice_delivery_failed -->
<g id="node6" class="node">
<title>workflow_outcome_workflow_project_approval_notice_delivery_failed</title>
<polygon fill="#ffffff" stroke="transparent" points="1121.5,-45.5 1121.5,-116.5 1225.5,-116.5 1225.5,-45.5 1121.5,-45.5"/>
<polygon fill="#64748b" stroke="transparent" points="1122.5,-107 1122.5,-115 1224.5,-115 1224.5,-107 1122.5,-107"/>
<polygon fill="#f8fafc" stroke="transparent" points="1122.5,-76 1122.5,-107 1224.5,-107 1224.5,-76 1122.5,-76"/>
<text text-anchor="start" x="1126.5" y="-93.6" font-family="Arial" font-weight="bold" font-size="13.00">delivery_failed</text>
<text text-anchor="start" x="1126.5" y="-82.6" font-family="Arial" font-size="8.00" fill="#64748b">failure workflow outcome</text>
<text text-anchor="start" x="1126.5" y="-65" font-family="Arial" font-weight="bold" font-size="10.00">result</text>
<text text-anchor="start" x="1126.5" y="-54" font-family="Arial" font-size="10.00">result</text>
<text text-anchor="start" x="1151.5" y="-54" font-family="Arial" font-size="8.00" fill="#94a3b8">  Problem</text>
<polygon fill="none" stroke="#64748b" points="1121.5,-45.5 1121.5,-116.5 1225.5,-116.5 1225.5,-45.5 1121.5,-45.5"/>
</g>
<!-- workflow_step_workflow_project_approval_notice_send_notice&#45;&gt;workflow_outcome_workflow_project_approval_notice_delivery_failed -->
<g id="edge4" class="edge">
<title>workflow_step_workflow_project_approval_notice_send_notice&#45;&gt;workflow_outcome_workflow_project_approval_notice_delivery_failed</title>
<path fill="none" stroke="#3f3f46" d="M996.26,-118.23C1036.47,-109.74 1079.76,-100.59 1113.37,-93.49"/>
<polygon fill="#3f3f46" stroke="#3f3f46" points="1114.01,-96.22 1121.26,-91.82 1112.85,-90.74 1114.01,-96.22"/>
<text text-anchor="middle" x="1058.5" y="-114" font-family="Arial" font-size="10.00">delivery_failed</text>
</g>
<!-- workflow_outcome_workflow_project_approval_notice_completed&#45;&gt;workflow_outcome_workflow_project_approval_notice_delivery_failed -->
</g>
</svg>
