<svg width="1213pt" height="482pt"
 viewBox="0.00 0.00 1213.00 482.00" xmlns="http://www.w3.org/2000/svg" xmlns:xlink="http://www.w3.org/1999/xlink">
<!-- pyspec-contract-input-sha256: 2dd4a5fe09deeaf4f9857f07ee62a45276fe964621f854ee96b745ad1b13c1d6 -->
<g id="graph0" class="graph" transform="scale(1 1) rotate(0) translate(18 464)">
<title>workflow_workflow_project_approval_notice</title>
<!-- workflow_trigger_event_event_project_approved -->
<g id="node1" class="node">
<title>workflow_trigger_event_event_project_approved</title>
<polygon fill="#ffffff" stroke="transparent" points="0,-149.5 0,-253.5 218,-253.5 218,-149.5 0,-149.5"/>
<polygon fill="#4f46e5" stroke="transparent" points="1,-244.5 1,-252.5 217,-252.5 217,-244.5 1,-244.5"/>
<polygon fill="#eef2ff" stroke="transparent" points="1,-213.5 1,-244.5 217,-244.5 217,-213.5 1,-213.5"/>
<text text-anchor="start" x="5" y="-231.1" font-family="Arial" font-weight="bold" font-size="13.00">event.project.approved</text>
<text text-anchor="start" x="5" y="-220.1" font-family="Arial" font-size="8.00" fill="#64748b">event trigger</text>
<text text-anchor="start" x="5" y="-202.5" font-family="Arial" font-style="italic" font-size="10.00" fill="#3f3f46">Approval events carry the reviewer and project</text>
<text text-anchor="start" x="5" y="-191.5" font-family="Arial" font-style="italic" font-size="10.00" fill="#3f3f46">identity needed by notification workflows.</text>
<text text-anchor="start" x="6" y="-171.5" font-family="Arial" font-weight="bold" font-size="10.00">payload:</text>
<text text-anchor="start" x="46" y="-171.5" font-family="Arial" font-size="10.00">  payload</text>
<text text-anchor="start" x="86" y="-171.5" font-family="Arial" font-size="8.00" fill="#94a3b8">  data_contract.project.approved</text>
<text text-anchor="start" x="6" y="-159.5" font-family="Arial" font-weight="bold" font-size="10.00">emitted by:</text>
<text text-anchor="start" x="58" y="-159.5" font-family="Arial" font-size="10.00">  application_action.project.approve</text>
<polygon fill="none" stroke="#4f46e5" points="0,-149.5 0,-253.5 218,-253.5 218,-149.5 0,-149.5"/>
</g>
<!-- workflow_workflow_project_approval_notice -->
<g id="node2" class="node">
<title>workflow_workflow_project_approval_notice</title>
<polygon fill="#ffffff" stroke="transparent" points="281,-114.5 281,-288.5 505,-288.5 505,-114.5 281,-114.5"/>
<polygon fill="#a16207" stroke="transparent" points="282,-279.5 282,-287.5 504,-287.5 504,-279.5 282,-279.5"/>
<polygon fill="#fefce8" stroke="transparent" points="282,-248.5 282,-279.5 504,-279.5 504,-248.5 282,-248.5"/>
<text text-anchor="start" x="286" y="-266.1" font-family="Arial" font-weight="bold" font-size="13.00">workflow.project.approval_notice</text>
<text text-anchor="start" x="286" y="-255.1" font-family="Arial" font-size="8.00" fill="#64748b">workflow</text>
<text text-anchor="start" x="286" y="-237.5" font-family="Arial" font-style="italic" font-size="10.00" fill="#3f3f46">Approval event sends a downstream notice.</text>
<text text-anchor="start" x="287" y="-217.5" font-family="Arial" font-weight="bold" font-size="10.00">ref:</text>
<text text-anchor="start" x="303" y="-217.5" font-family="Arial" font-size="10.00">  workflow.project.approval_notice</text>
<text text-anchor="start" x="286" y="-197.5" font-family="Arial" font-weight="bold" font-size="10.00">steps:</text>
<text text-anchor="start" x="314" y="-197.5" font-family="Arial" font-size="10.00">  send_notice →</text>
<text text-anchor="start" x="286" y="-185.5" font-family="Arial" font-size="10.00">  application_action.project.send_approval_notice</text>
<text text-anchor="start" x="286" y="-167.5" font-family="Arial" font-weight="bold" font-size="10.00">outcomes</text>
<text text-anchor="start" x="286" y="-156.5" font-family="Arial" font-size="10.00">completed</text>
<text text-anchor="start" x="332" y="-156.5" font-family="Arial" font-size="8.00" fill="#94a3b8">  data_contract.project.notice_result</text>
<text text-anchor="start" x="459" y="-156.5" font-family="Arial" font-size="8.00"> ← success</text>
<text text-anchor="start" x="286" y="-145.5" font-family="Arial" font-size="10.00">delivery_failed</text>
<text text-anchor="start" x="349" y="-145.5" font-family="Arial" font-size="8.00" fill="#94a3b8">  Problem</text>
<text text-anchor="start" x="384" y="-145.5" font-family="Arial" font-size="8.00"> ← failure</text>
<text text-anchor="start" x="286" y="-134.5" font-family="Arial" font-size="10.00">notice_forbidden</text>
<text text-anchor="start" x="358" y="-134.5" font-family="Arial" font-size="8.00" fill="#94a3b8">  Problem</text>
<text text-anchor="start" x="393" y="-134.5" font-family="Arial" font-size="8.00"> ← failure</text>
<text text-anchor="start" x="286" y="-123.5" font-family="Arial" font-size="10.00">notice_unauthenticated</text>
<text text-anchor="start" x="387" y="-123.5" font-family="Arial" font-size="8.00" fill="#94a3b8">  Problem</text>
<text text-anchor="start" x="422" y="-123.5" font-family="Arial" font-size="8.00"> ← failure</text>
<polygon fill="none" stroke="#a16207" points="281,-114.5 281,-288.5 505,-288.5 505,-114.5 281,-114.5"/>
</g>
<!-- workflow_trigger_event_event_project_approved&#45;&gt;workflow_workflow_project_approval_notice -->
<g id="edge1" class="edge">
<title>workflow_trigger_event_event_project_approved&#45;&gt;workflow_workflow_project_approval_notice</title>
<path fill="none" stroke="#3f3f46" d="M218.22,-201.5C236,-201.5 254.52,-201.5 272.55,-201.5"/>
<polygon fill="#3f3f46" stroke="#3f3f46" points="272.8,-204.3 280.8,-201.5 272.8,-198.7 272.8,-204.3"/>
</g>
<!-- workflow_step_workflow_project_approval_notice_send_notice -->
<g id="node3" class="node">
<title>workflow_step_workflow_project_approval_notice_send_notice</title>
<polygon fill="#ffffff" stroke="transparent" points="568,-61.5 568,-341.5 883,-341.5 883,-61.5 568,-61.5"/>
<polygon fill="#71717a" stroke="transparent" points="569.5,-332.5 569.5,-340.5 882.5,-340.5 882.5,-332.5 569.5,-332.5"/>
<polygon fill="#f8fafc" stroke="transparent" points="569.5,-301.5 569.5,-332.5 882.5,-332.5 882.5,-301.5 569.5,-301.5"/>
<text text-anchor="start" x="573.5" y="-319.1" font-family="Arial" font-weight="bold" font-size="13.00">send_notice</text>
<text text-anchor="start" x="573.5" y="-308.1" font-family="Arial" font-size="8.00" fill="#64748b">workflow step</text>
<text text-anchor="start" x="573.5" y="-290.5" font-family="Arial" font-style="italic" font-size="10.00" fill="#3f3f46">Approval triggers a notification command for</text>
<text text-anchor="start" x="573.5" y="-279.5" font-family="Arial" font-style="italic" font-size="10.00" fill="#3f3f46">downstream coordination.</text>
<text text-anchor="start" x="574.5" y="-259.5" font-family="Arial" font-weight="bold" font-size="10.00">application_action:</text>
<text text-anchor="start" x="663.5" y="-259.5" font-family="Arial" font-size="10.00">  application_action.project.send_approval_notice</text>
<text text-anchor="start" x="573.5" y="-239.5" font-family="Arial" font-weight="bold" font-size="10.00">input bindings</text>
<text text-anchor="start" x="573.5" y="-227.5" font-family="Arial" font-size="10.00">approved_by ← trigger.payload.approved_by</text>
<text text-anchor="start" x="573.5" y="-216.5" font-family="Arial" font-size="10.00">project_id ← trigger.payload.project_id</text>
<text text-anchor="start" x="573.5" y="-198.5" font-family="Arial" font-weight="bold" font-size="10.00">routes</text>
<text text-anchor="start" x="573.5" y="-186.5" font-family="Arial" font-size="10.00">delivery_failed: retry_policy → delivery_failed (3</text>
<text text-anchor="start" x="573.5" y="-175.5" font-family="Arial" font-size="10.00">exponential)</text>
<text text-anchor="start" x="573.5" y="-164.5" font-family="Arial" font-size="10.00">forbidden: fail_as → notice_forbidden</text>
<text text-anchor="start" x="573.5" y="-153.5" font-family="Arial" font-size="10.00">sent: complete_as → completed</text>
<text text-anchor="start" x="573.5" y="-142.5" font-family="Arial" font-size="10.00">unauthenticated: fail_as → notice_unauthenticated</text>
<text text-anchor="start" x="574.5" y="-123.5" font-family="Arial" font-weight="bold" font-size="10.00">kind:</text>
<text text-anchor="start" x="598.5" y="-123.5" font-family="Arial" font-size="10.00">  command</text>
<text text-anchor="start" x="573.5" y="-103.5" font-family="Arial" font-weight="bold" font-size="10.00">authorization</text>
<text text-anchor="start" x="573.5" y="-91.5" font-family="Arial" font-size="10.00">policy: authorization_policy.project.reviewer</text>
<text text-anchor="start" x="573.5" y="-80.5" font-family="Arial" font-size="10.00">unauthenticated_as: unauthenticated</text>
<text text-anchor="start" x="573.5" y="-69.5" font-family="Arial" font-size="10.00">forbidden_as: forbidden</text>
<polygon fill="none" stroke="#71717a" points="568,-61.5 568,-341.5 883,-341.5 883,-61.5 568,-61.5"/>
</g>
<!-- workflow_workflow_project_approval_notice&#45;&gt;workflow_step_workflow_project_approval_notice_send_notice -->
<g id="edge2" class="edge">
<title>workflow_workflow_project_approval_notice&#45;&gt;workflow_step_workflow_project_approval_notice_send_notice</title>
<path fill="none" stroke="#3f3f46" d="M505.43,-201.5C522.82,-201.5 541.1,-201.5 559.38,-201.5"/>
<polygon fill="#3f3f46" stroke="#3f3f46" points="559.77,-204.3 567.77,-201.5 559.77,-198.7 559.77,-204.3"/>
</g>
<!-- workflow_outcome_workflow_project_approval_notice_completed -->
<g id="node4" class="node">
<title>workflow_outcome_workflow_project_approval_notice_completed</title>
<polygon fill="#ffffff" stroke="transparent" points="1015,-375 1015,-446 1177,-446 1177,-375 1015,-375"/>
<polygon fill="#16a34a" stroke="transparent" points="1016,-436.5 1016,-444.5 1176,-444.5 1176,-436.5 1016,-436.5"/>
<polygon fill="#f0fdf4" stroke="transparent" points="1016,-405.5 1016,-436.5 1176,-436.5 1176,-405.5 1016,-405.5"/>
<text text-anchor="start" x="1020" y="-423.1" font-family="Arial" font-weight="bold" font-size="13.00">completed</text>
<text text-anchor="start" x="1020" y="-412.1" font-family="Arial" font-size="8.00" fill="#64748b">success workflow outcome</text>
<text text-anchor="start" x="1020" y="-394.5" font-family="Arial" font-weight="bold" font-size="10.00">result</text>
<text text-anchor="start" x="1020" y="-383.5" font-family="Arial" font-size="10.00">result</text>
<text text-anchor="start" x="1045" y="-383.5" font-family="Arial" font-size="8.00" fill="#94a3b8">  data_contract.project.notice_result</text>
<polygon fill="none" stroke="#16a34a" points="1015,-375 1015,-446 1177,-446 1177,-375 1015,-375"/>
</g>
<!-- workflow_step_workflow_project_approval_notice_send_notice&#45;&gt;workflow_outcome_workflow_project_approval_notice_completed -->
<g id="edge5" class="edge">
<title>workflow_step_workflow_project_approval_notice_send_notice&#45;&gt;workflow_outcome_workflow_project_approval_notice_completed</title>
<path fill="none" stroke="#3f3f46" d="M883.04,-290.29C932.5,-318.34 984.68,-347.93 1024.9,-370.74"/>
<polygon fill="#3f3f46" stroke="#3f3f46" points="1023.92,-373.41 1032.26,-374.92 1026.68,-368.54 1023.92,-373.41"/>
<text text-anchor="middle" x="949" y="-345.5" font-family="Arial" font-size="10.00">sent</text>
</g>
<!-- workflow_outcome_workflow_project_approval_notice_delivery_failed -->
<g id="node5" class="node">
<title>workflow_outcome_workflow_project_approval_notice_delivery_failed</title>
<polygon fill="#ffffff" stroke="transparent" points="1044,-250 1044,-321 1148,-321 1148,-250 1044,-250"/>
<polygon fill="#dc2626" stroke="transparent" points="1045,-311.5 1045,-319.5 1147,-319.5 1147,-311.5 1045,-311.5"/>
<polygon fill="#fef2f2" stroke="transparent" points="1045,-280.5 1045,-311.5 1147,-311.5 1147,-280.5 1045,-280.5"/>
<text text-anchor="start" x="1049" y="-298.1" font-family="Arial" font-weight="bold" font-size="13.00">delivery_failed</text>
<text text-anchor="start" x="1049" y="-287.1" font-family="Arial" font-size="8.00" fill="#64748b">failure workflow outcome</text>
<text text-anchor="start" x="1049" y="-269.5" font-family="Arial" font-weight="bold" font-size="10.00">result</text>
<text text-anchor="start" x="1049" y="-258.5" font-family="Arial" font-size="10.00">result</text>
<text text-anchor="start" x="1074" y="-258.5" font-family="Arial" font-size="8.00" fill="#94a3b8">  Problem</text>
<polygon fill="none" stroke="#dc2626" points="1044,-250 1044,-321 1148,-321 1148,-250 1044,-250"/>
</g>
<!-- workflow_step_workflow_project_approval_notice_send_notice&#45;&gt;workflow_outcome_workflow_project_approval_notice_delivery_failed -->
<g id="edge3" class="edge">
<title>workflow_step_workflow_project_approval_notice_send_notice&#45;&gt;workflow_outcome_workflow_project_approval_notice_delivery_failed</title>
<path fill="none" stroke="#3f3f46" d="M883.04,-237.18C937.07,-249.5 994.36,-262.56 1035.73,-271.99"/>
<polygon fill="#3f3f46" stroke="#3f3f46" points="1035.37,-274.78 1043.79,-273.83 1036.61,-269.32 1035.37,-274.78"/>
<text text-anchor="middle" x="949" y="-260.5" font-family="Arial" font-size="10.00">delivery_failed</text>
</g>
<!-- workflow_outcome_workflow_project_approval_notice_notice_forbidden -->
<g id="node6" class="node">
<title>workflow_outcome_workflow_project_approval_notice_notice_forbidden</title>
<polygon fill="#ffffff" stroke="transparent" points="1036,-125 1036,-196 1156,-196 1156,-125 1036,-125"/>
<polygon fill="#dc2626" stroke="transparent" points="1037,-186.5 1037,-194.5 1155,-194.5 1155,-186.5 1037,-186.5"/>
<polygon fill="#fef2f2" stroke="transparent" points="1037,-155.5 1037,-186.5 1155,-186.5 1155,-155.5 1037,-155.5"/>
<text text-anchor="start" x="1041" y="-173.1" font-family="Arial" font-weight="bold" font-size="13.00">notice_forbidden</text>
<text text-anchor="start" x="1041" y="-162.1" font-family="Arial" font-size="8.00" fill="#64748b">failure workflow outcome</text>
<text text-anchor="start" x="1041" y="-144.5" font-family="Arial" font-weight="bold" font-size="10.00">result</text>
<text text-anchor="start" x="1041" y="-133.5" font-family="Arial" font-size="10.00">result</text>
<text text-anchor="start" x="1066" y="-133.5" font-family="Arial" font-size="8.00" fill="#94a3b8">  Problem</text>
<polygon fill="none" stroke="#dc2626" points="1036,-125 1036,-196 1156,-196 1156,-125 1036,-125"/>
</g>
<!-- workflow_step_workflow_project_approval_notice_send_notice&#45;&gt;workflow_outcome_workflow_project_approval_notice_notice_forbidden -->
<g id="edge4" class="edge">
<title>workflow_step_workflow_project_approval_notice_send_notice&#45;&gt;workflow_outcome_workflow_project_approval_notice_notice_forbidden</title>
<path fill="none" stroke="#3f3f46" d="M883.04,-184.08C933.66,-178.45 987.13,-172.5 1027.7,-167.99"/>
<polygon fill="#3f3f46" stroke="#3f3f46" points="1028.26,-170.74 1035.9,-167.08 1027.64,-165.18 1028.26,-170.74"/>
<text text-anchor="middle" x="949" y="-182.5" font-family="Arial" font-size="10.00">forbidden</text>
</g>
<!-- workflow_outcome_workflow_project_approval_notice_notice_unauthenticated -->
<g id="node7" class="node">
<title>workflow_outcome_workflow_project_approval_notice_notice_unauthenticated</title>
<polygon fill="#ffffff" stroke="transparent" points="1015,0 1015,-71 1177,-71 1177,0 1015,0"/>
<polygon fill="#dc2626" stroke="transparent" points="1016,-61.5 1016,-69.5 1176,-69.5 1176,-61.5 1016,-61.5"/>
<polygon fill="#fef2f2" stroke="transparent" points="1016,-30.5 1016,-61.5 1176,-61.5 1176,-30.5 1016,-30.5"/>
<text text-anchor="start" x="1020" y="-48.1" font-family="Arial" font-weight="bold" font-size="13.00">notice_unauthenticated</text>
<text text-anchor="start" x="1020" y="-37.1" font-family="Arial" font-size="8.00" fill="#64748b">failure workflow outcome</text>
<text text-anchor="start" x="1020" y="-19.5" font-family="Arial" font-weight="bold" font-size="10.00">result</text>
<text text-anchor="start" x="1020" y="-8.5" font-family="Arial" font-size="10.00">result</text>
<text text-anchor="start" x="1045" y="-8.5" font-family="Arial" font-size="8.00" fill="#94a3b8">  Problem</text>
<polygon fill="none" stroke="#dc2626" points="1015,0 1015,-71 1177,-71 1177,0 1015,0"/>
</g>
<!-- workflow_step_workflow_project_approval_notice_send_notice&#45;&gt;workflow_outcome_workflow_project_approval_notice_notice_unauthenticated -->
<g id="edge6" class="edge">
<title>workflow_step_workflow_project_approval_notice_send_notice&#45;&gt;workflow_outcome_workflow_project_approval_notice_notice_unauthenticated</title>
<path fill="none" stroke="#3f3f46" d="M883.04,-130.98C926.05,-111.61 971.11,-91.31 1008.58,-74.43"/>
<polygon fill="#3f3f46" stroke="#3f3f46" points="1009.82,-76.94 1015.96,-71.1 1007.52,-71.84 1009.82,-76.94"/>
<text text-anchor="middle" x="949" y="-116.5" font-family="Arial" font-size="10.00">unauthenticated</text>
</g>
<!-- workflow_outcome_workflow_project_approval_notice_completed&#45;&gt;workflow_outcome_workflow_project_approval_notice_delivery_failed -->
<!-- workflow_outcome_workflow_project_approval_notice_delivery_failed&#45;&gt;workflow_outcome_workflow_project_approval_notice_notice_forbidden -->
<!-- workflow_outcome_workflow_project_approval_notice_notice_forbidden&#45;&gt;workflow_outcome_workflow_project_approval_notice_notice_unauthenticated -->
</g>
</svg>
