<svg width="1189pt" height="482pt"
 viewBox="0.00 0.00 1189.00 482.00" xmlns="http://www.w3.org/2000/svg" xmlns:xlink="http://www.w3.org/1999/xlink">
<!-- pyspec-contract-input-sha256: d16acc2f527b8e30f4e76598b7295dd18fa3f301b4c7d347a94a9442e6e31033 -->
<g id="graph0" class="graph" transform="scale(1 1) rotate(0) translate(18 464)">
<title>workflow_workflow_project_approval_notice</title>
<!-- workflow_trigger_event_event_project_approved -->
<g id="node1" class="node">
<title>workflow_trigger_event_event_project_approved</title>
<polygon fill="#ffffff" stroke="transparent" points="0,-149.5 0,-253.5 213,-253.5 213,-149.5 0,-149.5"/>
<polygon fill="#4f46e5" stroke="transparent" points="1.5,-244.5 1.5,-252.5 212.5,-252.5 212.5,-244.5 1.5,-244.5"/>
<polygon fill="#eef2ff" stroke="transparent" points="1.5,-213.5 1.5,-244.5 212.5,-244.5 212.5,-213.5 1.5,-213.5"/>
<text text-anchor="start" x="5.5" y="-231.1" font-family="Arial" font-weight="bold" font-size="13.00">event.project.approved</text>
<text text-anchor="start" x="5.5" y="-220.1" font-family="Arial" font-size="8.00" fill="#64748b">event trigger</text>
<text text-anchor="start" x="5.5" y="-202.5" font-family="Arial" font-style="italic" font-size="10.00" fill="#3f3f46">Approval events carry the reviewer and project</text>
<text text-anchor="start" x="5.5" y="-191.5" font-family="Arial" font-style="italic" font-size="10.00" fill="#3f3f46">identity needed by notification workflows.</text>
<text text-anchor="start" x="6.5" y="-171.5" font-family="Arial" font-weight="bold" font-size="10.00">payload:</text>
<text text-anchor="start" x="46.5" y="-171.5" font-family="Arial" font-size="10.00">  payload</text>
<text text-anchor="start" x="86.5" y="-171.5" font-family="Arial" font-size="8.00" fill="#94a3b8">  data_contract.project.approved</text>
<text text-anchor="start" x="6.5" y="-159.5" font-family="Arial" font-weight="bold" font-size="10.00">emitted by:</text>
<text text-anchor="start" x="58.5" y="-159.5" font-family="Arial" font-size="10.00">  operation.project.approve</text>
<polygon fill="none" stroke="#4f46e5" points="0,-149.5 0,-253.5 213,-253.5 213,-149.5 0,-149.5"/>
</g>
<!-- workflow_workflow_project_approval_notice -->
<g id="node2" class="node">
<title>workflow_workflow_project_approval_notice</title>
<polygon fill="#ffffff" stroke="transparent" points="276,-123.5 276,-279.5 560,-279.5 560,-123.5 276,-123.5"/>
<polygon fill="#a16207" stroke="transparent" points="277,-270.5 277,-278.5 559,-278.5 559,-270.5 277,-270.5"/>
<polygon fill="#fefce8" stroke="transparent" points="277,-239.5 277,-270.5 559,-270.5 559,-239.5 277,-239.5"/>
<text text-anchor="start" x="281" y="-257.1" font-family="Arial" font-weight="bold" font-size="13.00">workflow.project.approval_notice</text>
<text text-anchor="start" x="281" y="-246.1" font-family="Arial" font-size="8.00" fill="#64748b">workflow</text>
<text text-anchor="start" x="281" y="-228.5" font-family="Arial" font-style="italic" font-size="10.00" fill="#3f3f46">Approval event sends a downstream notice.</text>
<text text-anchor="start" x="282" y="-208.5" font-family="Arial" font-weight="bold" font-size="10.00">ref:</text>
<text text-anchor="start" x="298" y="-208.5" font-family="Arial" font-size="10.00">  workflow.project.approval_notice</text>
<text text-anchor="start" x="282" y="-196.5" font-family="Arial" font-weight="bold" font-size="10.00">steps:</text>
<text text-anchor="start" x="310" y="-196.5" font-family="Arial" font-size="10.00">  send_notice → operation.project.send_approval_notice</text>
<text text-anchor="start" x="281" y="-176.5" font-family="Arial" font-weight="bold" font-size="10.00">outcomes</text>
<text text-anchor="start" x="281" y="-165.5" font-family="Arial" font-size="10.00">completed</text>
<text text-anchor="start" x="327" y="-165.5" font-family="Arial" font-size="8.00" fill="#94a3b8">  data_contract.project.notice_result</text>
<text text-anchor="start" x="454" y="-165.5" font-family="Arial" font-size="8.00"> ← success</text>
<text text-anchor="start" x="281" y="-154.5" font-family="Arial" font-size="10.00">delivery_failed</text>
<text text-anchor="start" x="344" y="-154.5" font-family="Arial" font-size="8.00" fill="#94a3b8">  Problem</text>
<text text-anchor="start" x="379" y="-154.5" font-family="Arial" font-size="8.00"> ← failure</text>
<text text-anchor="start" x="281" y="-143.5" font-family="Arial" font-size="10.00">notice_forbidden</text>
<text text-anchor="start" x="353" y="-143.5" font-family="Arial" font-size="8.00" fill="#94a3b8">  Problem</text>
<text text-anchor="start" x="388" y="-143.5" font-family="Arial" font-size="8.00"> ← failure</text>
<text text-anchor="start" x="281" y="-132.5" font-family="Arial" font-size="10.00">notice_unauthenticated</text>
<text text-anchor="start" x="382" y="-132.5" font-family="Arial" font-size="8.00" fill="#94a3b8">  Problem</text>
<text text-anchor="start" x="417" y="-132.5" font-family="Arial" font-size="8.00"> ← failure</text>
<polygon fill="none" stroke="#a16207" points="276,-123.5 276,-279.5 560,-279.5 560,-123.5 276,-123.5"/>
</g>
<!-- workflow_trigger_event_event_project_approved&#45;&gt;workflow_workflow_project_approval_notice -->
<g id="edge1" class="edge">
<title>workflow_trigger_event_event_project_approved&#45;&gt;workflow_workflow_project_approval_notice</title>
<path fill="none" stroke="#3f3f46" d="M213.15,-201.5C230.69,-201.5 249.17,-201.5 267.54,-201.5"/>
<polygon fill="#3f3f46" stroke="#3f3f46" points="267.98,-204.3 275.98,-201.5 267.98,-198.7 267.98,-204.3"/>
</g>
<!-- workflow_step_workflow_project_approval_notice_send_notice -->
<g id="node3" class="node">
<title>workflow_step_workflow_project_approval_notice_send_notice</title>
<polygon fill="#ffffff" stroke="transparent" points="623,-61.5 623,-341.5 859,-341.5 859,-61.5 623,-61.5"/>
<polygon fill="#71717a" stroke="transparent" points="624,-332.5 624,-340.5 858,-340.5 858,-332.5 624,-332.5"/>
<polygon fill="#f8fafc" stroke="transparent" points="624,-301.5 624,-332.5 858,-332.5 858,-301.5 624,-301.5"/>
<text text-anchor="start" x="628" y="-319.1" font-family="Arial" font-weight="bold" font-size="13.00">send_notice</text>
<text text-anchor="start" x="628" y="-308.1" font-family="Arial" font-size="8.00" fill="#64748b">workflow step</text>
<text text-anchor="start" x="628" y="-290.5" font-family="Arial" font-style="italic" font-size="10.00" fill="#3f3f46">Approval triggers a notification command for</text>
<text text-anchor="start" x="628" y="-279.5" font-family="Arial" font-style="italic" font-size="10.00" fill="#3f3f46">downstream coordination.</text>
<text text-anchor="start" x="629" y="-259.5" font-family="Arial" font-weight="bold" font-size="10.00">operation:</text>
<text text-anchor="start" x="677" y="-259.5" font-family="Arial" font-size="10.00">  operation.project.send_approval_notice</text>
<text text-anchor="start" x="628" y="-239.5" font-family="Arial" font-weight="bold" font-size="10.00">input bindings</text>
<text text-anchor="start" x="628" y="-227.5" font-family="Arial" font-size="10.00">approved_by ← trigger.payload.approved_by</text>
<text text-anchor="start" x="628" y="-216.5" font-family="Arial" font-size="10.00">project_id ← trigger.payload.project_id</text>
<text text-anchor="start" x="628" y="-198.5" font-family="Arial" font-weight="bold" font-size="10.00">routes</text>
<text text-anchor="start" x="628" y="-186.5" font-family="Arial" font-size="10.00">delivery_failed: retry_policy → delivery_failed (3</text>
<text text-anchor="start" x="628" y="-175.5" font-family="Arial" font-size="10.00">exponential)</text>
<text text-anchor="start" x="628" y="-164.5" font-family="Arial" font-size="10.00">forbidden: fail_as → notice_forbidden</text>
<text text-anchor="start" x="628" y="-153.5" font-family="Arial" font-size="10.00">sent: complete_as → completed</text>
<text text-anchor="start" x="628" y="-142.5" font-family="Arial" font-size="10.00">unauthenticated: fail_as → notice_unauthenticated</text>
<text text-anchor="start" x="629" y="-123.5" font-family="Arial" font-weight="bold" font-size="10.00">kind:</text>
<text text-anchor="start" x="653" y="-123.5" font-family="Arial" font-size="10.00">  command</text>
<text text-anchor="start" x="628" y="-103.5" font-family="Arial" font-weight="bold" font-size="10.00">authorization</text>
<text text-anchor="start" x="628" y="-91.5" font-family="Arial" font-size="10.00">policy: authorization_policy.project.reviewer</text>
<text text-anchor="start" x="628" y="-80.5" font-family="Arial" font-size="10.00">unauthenticated_as: unauthenticated</text>
<text text-anchor="start" x="628" y="-69.5" font-family="Arial" font-size="10.00">forbidden_as: forbidden</text>
<polygon fill="none" stroke="#71717a" points="623,-61.5 623,-341.5 859,-341.5 859,-61.5 623,-61.5"/>
</g>
<!-- workflow_workflow_project_approval_notice&#45;&gt;workflow_step_workflow_project_approval_notice_send_notice -->
<g id="edge2" class="edge">
<title>workflow_workflow_project_approval_notice&#45;&gt;workflow_step_workflow_project_approval_notice_send_notice</title>
<path fill="none" stroke="#3f3f46" d="M560.26,-201.5C578.35,-201.5 596.77,-201.5 614.58,-201.5"/>
<polygon fill="#3f3f46" stroke="#3f3f46" points="614.72,-204.3 622.72,-201.5 614.72,-198.7 614.72,-204.3"/>
</g>
<!-- workflow_outcome_workflow_project_approval_notice_completed -->
<g id="node4" class="node">
<title>workflow_outcome_workflow_project_approval_notice_completed</title>
<polygon fill="#ffffff" stroke="transparent" points="991,-375 991,-446 1153,-446 1153,-375 991,-375"/>
<polygon fill="#16a34a" stroke="transparent" points="992,-436.5 992,-444.5 1152,-444.5 1152,-436.5 992,-436.5"/>
<polygon fill="#f0fdf4" stroke="transparent" points="992,-405.5 992,-436.5 1152,-436.5 1152,-405.5 992,-405.5"/>
<text text-anchor="start" x="996" y="-423.1" font-family="Arial" font-weight="bold" font-size="13.00">completed</text>
<text text-anchor="start" x="996" y="-412.1" font-family="Arial" font-size="8.00" fill="#64748b">success workflow outcome</text>
<text text-anchor="start" x="996" y="-394.5" font-family="Arial" font-weight="bold" font-size="10.00">result</text>
<text text-anchor="start" x="996" y="-383.5" font-family="Arial" font-size="10.00">result</text>
<text text-anchor="start" x="1021" y="-383.5" font-family="Arial" font-size="8.00" fill="#94a3b8">  data_contract.project.notice_result</text>
<polygon fill="none" stroke="#16a34a" points="991,-375 991,-446 1153,-446 1153,-375 991,-375"/>
</g>
<!-- workflow_step_workflow_project_approval_notice_send_notice&#45;&gt;workflow_outcome_workflow_project_approval_notice_completed -->
<g id="edge5" class="edge">
<title>workflow_step_workflow_project_approval_notice_send_notice&#45;&gt;workflow_outcome_workflow_project_approval_notice_completed</title>
<path fill="none" stroke="#3f3f46" d="M859.38,-276.07C909.55,-307.94 966.11,-343.87 1008.12,-370.56"/>
<polygon fill="#3f3f46" stroke="#3f3f46" points="1006.75,-373 1015,-374.93 1009.75,-368.27 1006.75,-373"/>
<text text-anchor="middle" x="925" y="-339.5" font-family="Arial" font-size="10.00">sent</text>
</g>
<!-- workflow_outcome_workflow_project_approval_notice_delivery_failed -->
<g id="node5" class="node">
<title>workflow_outcome_workflow_project_approval_notice_delivery_failed</title>
<polygon fill="#ffffff" stroke="transparent" points="1020,-250 1020,-321 1124,-321 1124,-250 1020,-250"/>
<polygon fill="#dc2626" stroke="transparent" points="1021,-311.5 1021,-319.5 1123,-319.5 1123,-311.5 1021,-311.5"/>
<polygon fill="#fef2f2" stroke="transparent" points="1021,-280.5 1021,-311.5 1123,-311.5 1123,-280.5 1021,-280.5"/>
<text text-anchor="start" x="1025" y="-298.1" font-family="Arial" font-weight="bold" font-size="13.00">delivery_failed</text>
<text text-anchor="start" x="1025" y="-287.1" font-family="Arial" font-size="8.00" fill="#64748b">failure workflow outcome</text>
<text text-anchor="start" x="1025" y="-269.5" font-family="Arial" font-weight="bold" font-size="10.00">result</text>
<text text-anchor="start" x="1025" y="-258.5" font-family="Arial" font-size="10.00">result</text>
<text text-anchor="start" x="1050" y="-258.5" font-family="Arial" font-size="8.00" fill="#94a3b8">  Problem</text>
<polygon fill="none" stroke="#dc2626" points="1020,-250 1020,-321 1124,-321 1124,-250 1020,-250"/>
</g>
<!-- workflow_step_workflow_project_approval_notice_send_notice&#45;&gt;workflow_outcome_workflow_project_approval_notice_delivery_failed -->
<g id="edge3" class="edge">
<title>workflow_step_workflow_project_approval_notice_send_notice&#45;&gt;workflow_outcome_workflow_project_approval_notice_delivery_failed</title>
<path fill="none" stroke="#3f3f46" d="M859.38,-231.47C911.05,-244.66 969.48,-259.58 1011.84,-270.39"/>
<polygon fill="#3f3f46" stroke="#3f3f46" points="1011.37,-273.17 1019.82,-272.43 1012.76,-267.74 1011.37,-273.17"/>
<text text-anchor="middle" x="925" y="-258.5" font-family="Arial" font-size="10.00">delivery_failed</text>
</g>
<!-- workflow_outcome_workflow_project_approval_notice_notice_forbidden -->
<g id="node6" class="node">
<title>workflow_outcome_workflow_project_approval_notice_notice_forbidden</title>
<polygon fill="#ffffff" stroke="transparent" points="1012,-125 1012,-196 1132,-196 1132,-125 1012,-125"/>
<polygon fill="#dc2626" stroke="transparent" points="1013,-186.5 1013,-194.5 1131,-194.5 1131,-186.5 1013,-186.5"/>
<polygon fill="#fef2f2" stroke="transparent" points="1013,-155.5 1013,-186.5 1131,-186.5 1131,-155.5 1013,-155.5"/>
<text text-anchor="start" x="1017" y="-173.1" font-family="Arial" font-weight="bold" font-size="13.00">notice_forbidden</text>
<text text-anchor="start" x="1017" y="-162.1" font-family="Arial" font-size="8.00" fill="#64748b">failure workflow outcome</text>
<text text-anchor="start" x="1017" y="-144.5" font-family="Arial" font-weight="bold" font-size="10.00">result</text>
<text text-anchor="start" x="1017" y="-133.5" font-family="Arial" font-size="10.00">result</text>
<text text-anchor="start" x="1042" y="-133.5" font-family="Arial" font-size="8.00" fill="#94a3b8">  Problem</text>
<polygon fill="none" stroke="#dc2626" points="1012,-125 1012,-196 1132,-196 1132,-125 1012,-125"/>
</g>
<!-- workflow_step_workflow_project_approval_notice_send_notice&#45;&gt;workflow_outcome_workflow_project_approval_notice_notice_forbidden -->
<g id="edge4" class="edge">
<title>workflow_step_workflow_project_approval_notice_send_notice&#45;&gt;workflow_outcome_workflow_project_approval_notice_notice_forbidden</title>
<path fill="none" stroke="#3f3f46" d="M859.38,-186.87C907.82,-180.83 962.22,-174.06 1003.73,-168.88"/>
<polygon fill="#3f3f46" stroke="#3f3f46" points="1004.26,-171.64 1011.85,-167.87 1003.57,-166.08 1004.26,-171.64"/>
<text text-anchor="middle" x="925" y="-184.5" font-family="Arial" font-size="10.00">forbidden</text>
</g>
<!-- workflow_outcome_workflow_project_approval_notice_notice_unauthenticated -->
<g id="node7" class="node">
<title>workflow_outcome_workflow_project_approval_notice_notice_unauthenticated</title>
<polygon fill="#ffffff" stroke="transparent" points="991,0 991,-71 1153,-71 1153,0 991,0"/>
<polygon fill="#dc2626" stroke="transparent" points="992,-61.5 992,-69.5 1152,-69.5 1152,-61.5 992,-61.5"/>
<polygon fill="#fef2f2" stroke="transparent" points="992,-30.5 992,-61.5 1152,-61.5 1152,-30.5 992,-30.5"/>
<text text-anchor="start" x="996" y="-48.1" font-family="Arial" font-weight="bold" font-size="13.00">notice_unauthenticated</text>
<text text-anchor="start" x="996" y="-37.1" font-family="Arial" font-size="8.00" fill="#64748b">failure workflow outcome</text>
<text text-anchor="start" x="996" y="-19.5" font-family="Arial" font-weight="bold" font-size="10.00">result</text>
<text text-anchor="start" x="996" y="-8.5" font-family="Arial" font-size="10.00">result</text>
<text text-anchor="start" x="1021" y="-8.5" font-family="Arial" font-size="8.00" fill="#94a3b8">  Problem</text>
<polygon fill="none" stroke="#dc2626" points="991,0 991,-71 1153,-71 1153,0 991,0"/>
</g>
<!-- workflow_step_workflow_project_approval_notice_send_notice&#45;&gt;workflow_outcome_workflow_project_approval_notice_notice_unauthenticated -->
<g id="edge6" class="edge">
<title>workflow_step_workflow_project_approval_notice_send_notice&#45;&gt;workflow_outcome_workflow_project_approval_notice_notice_unauthenticated</title>
<path fill="none" stroke="#3f3f46" d="M859.38,-142.27C903.86,-119.83 953.35,-94.86 993.28,-74.71"/>
<polygon fill="#3f3f46" stroke="#3f3f46" points="994.74,-77.11 1000.62,-71.01 992.22,-72.11 994.74,-77.11"/>
<text text-anchor="middle" x="925" y="-125.5" font-family="Arial" font-size="10.00">unauthenticated</text>
</g>
<!-- workflow_outcome_workflow_project_approval_notice_completed&#45;&gt;workflow_outcome_workflow_project_approval_notice_delivery_failed -->
<!-- workflow_outcome_workflow_project_approval_notice_delivery_failed&#45;&gt;workflow_outcome_workflow_project_approval_notice_notice_forbidden -->
<!-- workflow_outcome_workflow_project_approval_notice_notice_forbidden&#45;&gt;workflow_outcome_workflow_project_approval_notice_notice_unauthenticated -->
</g>
</svg>
