<svg width="1267pt" height="492pt"
 viewBox="0.00 0.00 1267.00 491.50" xmlns="http://www.w3.org/2000/svg" xmlns:xlink="http://www.w3.org/1999/xlink">
<!-- pyspec-contract-input-sha256: 54c31780f3be4a622544a97ad1d16ead8506f22136e3a46cdf65895564695644 -->
<g id="graph0" class="graph" transform="scale(1 1) rotate(0) translate(18 473.5)">
<title>application_action_application_action_project_create</title>
<!-- application_action_input_application_action_project_create -->
<g id="node1" class="node">
<title>application_action_input_application_action_project_create</title>
<polygon fill="#ffffff" stroke="transparent" points="0,-162.5 0,-266.5 96,-266.5 96,-162.5 0,-162.5"/>
<polygon fill="#64748b" stroke="transparent" points="1,-257.5 1,-265.5 95,-265.5 95,-257.5 1,-257.5"/>
<polygon fill="#f8fafc" stroke="transparent" points="1,-226.5 1,-257.5 95,-257.5 95,-226.5 1,-226.5"/>
<text text-anchor="start" x="5" y="-244.1" font-family="Arial" font-weight="bold" font-size="13.00">input</text>
<text text-anchor="start" x="5" y="-233.1" font-family="Arial" font-size="8.00" fill="#64748b">action input</text>
<text text-anchor="start" x="5" y="-215.5" font-family="Arial" font-weight="bold" font-size="10.00">fields</text>
<text text-anchor="start" x="5" y="-204.5" font-family="Arial" font-size="10.00">customer</text>
<text text-anchor="start" x="46" y="-204.5" font-family="Arial" font-size="8.00" fill="#94a3b8">  string</text>
<text text-anchor="start" x="5" y="-193.5" font-family="Arial" font-size="10.00">priority</text>
<text text-anchor="start" x="35" y="-193.5" font-family="Arial" font-size="8.00" fill="#94a3b8">  string</text>
<text text-anchor="start" x="5" y="-182.5" font-family="Arial" font-size="10.00">title</text>
<text text-anchor="start" x="21" y="-182.5" font-family="Arial" font-size="8.00" fill="#94a3b8">  string</text>
<text text-anchor="start" x="5" y="-171.5" font-family="Arial" font-size="10.00">workspace_id</text>
<text text-anchor="start" x="66" y="-171.5" font-family="Arial" font-size="8.00" fill="#94a3b8">  string</text>
<polygon fill="none" stroke="#64748b" points="0,-162.5 0,-266.5 96,-266.5 96,-162.5 0,-162.5"/>
</g>
<!-- application_action_policy_authorization_policy_project_member -->
<g id="node2" class="node">
<title>application_action_policy_authorization_policy_project_member</title>
<polygon fill="#ffffff" stroke="transparent" points="198,-156.5 198,-272.5 442,-272.5 442,-156.5 198,-156.5"/>
<polygon fill="#c2410c" stroke="transparent" points="199,-263.5 199,-271.5 441,-271.5 441,-263.5 199,-263.5"/>
<polygon fill="#fff7ed" stroke="transparent" points="199,-232.5 199,-263.5 441,-263.5 441,-232.5 199,-232.5"/>
<text text-anchor="start" x="203" y="-250.1" font-family="Arial" font-weight="bold" font-size="13.00">authorization_policy.project.member</text>
<text text-anchor="start" x="203" y="-239.1" font-family="Arial" font-size="8.00" fill="#64748b">authorization gate</text>
<text text-anchor="start" x="203" y="-221.5" font-family="Arial" font-style="italic" font-size="10.00" fill="#3f3f46">Workspace members may create, read, list, and</text>
<text text-anchor="start" x="203" y="-210.5" font-family="Arial" font-style="italic" font-size="10.00" fill="#3f3f46">submit dispatch projects.</text>
<text text-anchor="start" x="204" y="-190.5" font-family="Arial" font-weight="bold" font-size="10.00">effect:</text>
<text text-anchor="start" x="232" y="-190.5" font-family="Arial" font-size="10.00">  allow</text>
<text text-anchor="start" x="204" y="-178.5" font-family="Arial" font-weight="bold" font-size="10.00">subjects:</text>
<text text-anchor="start" x="247" y="-178.5" font-family="Arial" font-size="10.00">  actor</text>
<text text-anchor="start" x="204" y="-166.5" font-family="Arial" font-weight="bold" font-size="10.00">conditions:</text>
<text text-anchor="start" x="257" y="-166.5" font-family="Arial" font-size="10.00">  subject_has_role member</text>
<polygon fill="none" stroke="#c2410c" points="198,-156.5 198,-272.5 442,-272.5 442,-156.5 198,-156.5"/>
</g>
<!-- application_action_input_application_action_project_create&#45;&gt;application_action_policy_authorization_policy_project_member -->
<g id="edge1" class="edge">
<title>application_action_input_application_action_project_create&#45;&gt;application_action_policy_authorization_policy_project_member</title>
<path fill="none" stroke="#3f3f46" stroke-width="1.2" d="M96.03,-214.5C122.26,-214.5 156.33,-214.5 189.91,-214.5"/>
<polygon fill="#3f3f46" stroke="#3f3f46" stroke-width="1.2" points="189.98,-217.3 197.97,-214.5 189.97,-211.7 189.98,-217.3"/>
<text text-anchor="middle" x="147" y="-217.5" font-family="Arial" font-size="10.00">authorize</text>
</g>
<!-- application_action_resource_application_action_project_create_creates_entity_type_project -->
<g id="node3" class="node">
<title>application_action_resource_application_action_project_create_creates_entity_type_project</title>
<polygon fill="#ffffff" stroke="transparent" points="537,-129.5 537,-299.5 731,-299.5 731,-129.5 537,-129.5"/>
<polygon fill="#15803d" stroke="transparent" points="538,-290.5 538,-298.5 730,-298.5 730,-290.5 538,-290.5"/>
<polygon fill="#f0fdfa" stroke="transparent" points="538,-259.5 538,-290.5 730,-290.5 730,-259.5 538,-259.5"/>
<text text-anchor="start" x="542" y="-277.1" font-family="Arial" font-weight="bold" font-size="13.00">entity_type.project</text>
<text text-anchor="start" x="542" y="-266.1" font-family="Arial" font-size="8.00" fill="#64748b">entity_type resource</text>
<text text-anchor="start" x="542" y="-248.5" font-family="Arial" font-weight="bold" font-size="10.00">fields</text>
<text text-anchor="start" x="542" y="-237.5" font-family="Arial" font-size="10.00">assignee</text>
<text text-anchor="start" x="582" y="-237.5" font-family="Arial" font-size="8.00" fill="#94a3b8">  string</text>
<text text-anchor="start" x="542" y="-226.5" font-family="Arial" font-size="10.00">created_at</text>
<text text-anchor="start" x="588" y="-226.5" font-family="Arial" font-size="8.00" fill="#94a3b8">  string:date&#45;time</text>
<text text-anchor="start" x="542" y="-215.5" font-family="Arial" font-size="10.00">customer</text>
<text text-anchor="start" x="583" y="-215.5" font-family="Arial" font-size="8.00" fill="#94a3b8">  string</text>
<text text-anchor="start" x="542" y="-204.5" font-family="Arial" font-size="10.00">id</text>
<text text-anchor="start" x="550" y="-204.5" font-family="Arial" font-size="8.00" fill="#94a3b8">  string</text>
<text text-anchor="start" x="542" y="-193.5" font-family="Arial" font-size="10.00">priority</text>
<text text-anchor="start" x="572" y="-193.5" font-family="Arial" font-size="8.00" fill="#94a3b8">  string</text>
<text text-anchor="start" x="542" y="-182.5" font-family="Arial" font-size="10.00">status</text>
<text text-anchor="start" x="570" y="-182.5" font-family="Arial" font-size="8.00" fill="#94a3b8">  enum&lt;draft|submitted|approved|archived&gt;</text>
<text text-anchor="start" x="542" y="-171.5" font-family="Arial" font-size="10.00">summary</text>
<text text-anchor="start" x="583" y="-171.5" font-family="Arial" font-size="8.00" fill="#94a3b8">  string</text>
<text text-anchor="start" x="542" y="-160.5" font-family="Arial" font-size="10.00">title</text>
<text text-anchor="start" x="558" y="-160.5" font-family="Arial" font-size="8.00" fill="#94a3b8">  string</text>
<text text-anchor="start" x="542" y="-149.5" font-family="Arial" font-size="10.00">updated_at</text>
<text text-anchor="start" x="591" y="-149.5" font-family="Arial" font-size="8.00" fill="#94a3b8">  string:date&#45;time</text>
<text text-anchor="start" x="542" y="-138.5" font-family="Arial" font-size="10.00">workspace_id</text>
<text text-anchor="start" x="603" y="-138.5" font-family="Arial" font-size="8.00" fill="#94a3b8">  string</text>
<polygon fill="none" stroke="#15803d" points="537,-129.5 537,-299.5 731,-299.5 731,-129.5 537,-129.5"/>
</g>
<!-- application_action_policy_authorization_policy_project_member&#45;&gt;application_action_resource_application_action_project_create_creates_entity_type_project -->
<g id="edge2" class="edge">
<title>application_action_policy_authorization_policy_project_member&#45;&gt;application_action_resource_application_action_project_create_creates_entity_type_project</title>
<path fill="none" stroke="#3f3f46" d="M442.07,-214.5C470.6,-214.5 500.78,-214.5 528.5,-214.5"/>
<polygon fill="#3f3f46" stroke="#3f3f46" points="528.64,-217.3 536.64,-214.5 528.64,-211.7 528.64,-217.3"/>
<text text-anchor="middle" x="489.5" y="-217.5" font-family="Arial" font-size="10.00">creates</text>
</g>
<!-- action_outcome_application_action_project_create_forbidden -->
<g id="node5" class="node">
<title>action_outcome_application_action_project_create_forbidden</title>
<polygon fill="#ffffff" stroke="transparent" points="851.5,-250 851.5,-321 924.5,-321 924.5,-250 851.5,-250"/>
<polygon fill="#dc2626" stroke="transparent" points="853,-311.5 853,-319.5 924,-319.5 924,-311.5 853,-311.5"/>
<polygon fill="#fef2f2" stroke="transparent" points="853,-280.5 853,-311.5 924,-311.5 924,-280.5 853,-280.5"/>
<text text-anchor="start" x="857" y="-298.1" font-family="Arial" font-weight="bold" font-size="13.00">forbidden</text>
<text text-anchor="start" x="857" y="-287.1" font-family="Arial" font-size="8.00" fill="#64748b">failure outcome</text>
<text text-anchor="start" x="857" y="-269.5" font-family="Arial" font-weight="bold" font-size="10.00">result</text>
<text text-anchor="start" x="857" y="-258.5" font-family="Arial" font-size="10.00">result</text>
<text text-anchor="start" x="882" y="-258.5" font-family="Arial" font-size="8.00" fill="#94a3b8">  Problem</text>
<polygon fill="none" stroke="#dc2626" points="851.5,-250 851.5,-321 924.5,-321 924.5,-250 851.5,-250"/>
</g>
<!-- application_action_policy_authorization_policy_project_member&#45;&gt;action_outcome_application_action_project_create_forbidden -->
<g id="edge5" class="edge">
<title>application_action_policy_authorization_policy_project_member&#45;&gt;action_outcome_application_action_project_create_forbidden</title>
<path fill="none" stroke="#3f3f46" d="M429.08,-272.55C462.78,-288.3 500.66,-303.69 537,-313.5 649.82,-343.95 686.02,-365.35 799,-335.5 814.62,-331.37 830.38,-323.76 844.16,-315.69"/>
<polygon fill="#3f3f46" stroke="#3f3f46" points="845.77,-317.99 851.17,-311.45 842.87,-313.2 845.77,-317.99"/>
<text text-anchor="middle" x="634" y="-352.5" font-family="Arial" font-size="10.00">forbidden_as</text>
</g>
<!-- action_outcome_application_action_project_create_unauthenticated -->
<g id="node6" class="node">
<title>action_outcome_application_action_project_create_unauthenticated</title>
<polygon fill="#ffffff" stroke="transparent" points="830.5,-125 830.5,-196 945.5,-196 945.5,-125 830.5,-125"/>
<polygon fill="#dc2626" stroke="transparent" points="832,-186.5 832,-194.5 945,-194.5 945,-186.5 832,-186.5"/>
<polygon fill="#fef2f2" stroke="transparent" points="832,-155.5 832,-186.5 945,-186.5 945,-155.5 832,-155.5"/>
<text text-anchor="start" x="836" y="-173.1" font-family="Arial" font-weight="bold" font-size="13.00">unauthenticated</text>
<text text-anchor="start" x="836" y="-162.1" font-family="Arial" font-size="8.00" fill="#64748b">failure outcome</text>
<text text-anchor="start" x="836" y="-144.5" font-family="Arial" font-weight="bold" font-size="10.00">result</text>
<text text-anchor="start" x="836" y="-133.5" font-family="Arial" font-size="10.00">result</text>
<text text-anchor="start" x="861" y="-133.5" font-family="Arial" font-size="8.00" fill="#94a3b8">  Problem</text>
<polygon fill="none" stroke="#dc2626" points="830.5,-125 830.5,-196 945.5,-196 945.5,-125 830.5,-125"/>
</g>
<!-- application_action_policy_authorization_policy_project_member&#45;&gt;action_outcome_application_action_project_create_unauthenticated -->
<g id="edge6" class="edge">
<title>application_action_policy_authorization_policy_project_member&#45;&gt;action_outcome_application_action_project_create_unauthenticated</title>
<path fill="none" stroke="#3f3f46" d="M412.48,-156.42C449.63,-136.08 493.89,-115.76 537,-105.5 650.29,-78.53 687.47,-75.98 799,-109.5 808.47,-112.35 818.02,-116.39 827.14,-120.97"/>
<polygon fill="#3f3f46" stroke="#3f3f46" points="825.98,-123.52 834.36,-124.75 828.57,-118.56 825.98,-123.52"/>
<text text-anchor="middle" x="634" y="-108.5" font-family="Arial" font-size="10.00">unauthenticated_as</text>
</g>
<!-- action_outcome_application_action_project_create_created -->
<g id="node4" class="node">
<title>action_outcome_application_action_project_create_created</title>
<polygon fill="#ffffff" stroke="transparent" points="852.5,-375 852.5,-446 923.5,-446 923.5,-375 852.5,-375"/>
<polygon fill="#16a34a" stroke="transparent" points="854,-436.5 854,-444.5 923,-444.5 923,-436.5 854,-436.5"/>
<polygon fill="#f0fdf4" stroke="transparent" points="854,-405.5 854,-436.5 923,-436.5 923,-405.5 854,-405.5"/>
<text text-anchor="start" x="858" y="-423.1" font-family="Arial" font-weight="bold" font-size="13.00">created</text>
<text text-anchor="start" x="858" y="-412.1" font-family="Arial" font-size="8.00" fill="#64748b">success outcome</text>
<text text-anchor="start" x="858" y="-394.5" font-family="Arial" font-weight="bold" font-size="10.00">result</text>
<text text-anchor="start" x="858" y="-383.5" font-family="Arial" font-size="10.00">result</text>
<text text-anchor="start" x="883" y="-383.5" font-family="Arial" font-size="8.00" fill="#94a3b8">  Project</text>
<polygon fill="none" stroke="#16a34a" points="852.5,-375 852.5,-446 923.5,-446 923.5,-375 852.5,-375"/>
</g>
<!-- application_action_resource_application_action_project_create_creates_entity_type_project&#45;&gt;action_outcome_application_action_project_create_created -->
<g id="edge3" class="edge">
<title>application_action_resource_application_action_project_create_creates_entity_type_project&#45;&gt;action_outcome_application_action_project_create_created</title>
<path fill="none" stroke="#3f3f46" d="M731.35,-289.44C771.04,-320.31 814.9,-354.42 845.92,-378.55"/>
<polygon fill="#3f3f46" stroke="#3f3f46" points="844.3,-380.84 852.33,-383.54 847.74,-376.42 844.3,-380.84"/>
<text text-anchor="middle" x="780.5" y="-344.5" font-family="Arial" font-size="10.00">success</text>
</g>
<!-- action_outcome_application_action_project_create_validation_failed -->
<g id="node7" class="node">
<title>action_outcome_application_action_project_create_validation_failed</title>
<polygon fill="#ffffff" stroke="transparent" points="830,0 830,-71 946,-71 946,0 830,0"/>
<polygon fill="#dc2626" stroke="transparent" points="831,-61.5 831,-69.5 945,-69.5 945,-61.5 831,-61.5"/>
<polygon fill="#fef2f2" stroke="transparent" points="831,-30.5 831,-61.5 945,-61.5 945,-30.5 831,-30.5"/>
<text text-anchor="start" x="835" y="-48.1" font-family="Arial" font-weight="bold" font-size="13.00">validation_failed</text>
<text text-anchor="start" x="835" y="-37.1" font-family="Arial" font-size="8.00" fill="#64748b">failure outcome</text>
<text text-anchor="start" x="835" y="-19.5" font-family="Arial" font-weight="bold" font-size="10.00">result</text>
<text text-anchor="start" x="835" y="-8.5" font-family="Arial" font-size="10.00">result</text>
<text text-anchor="start" x="860" y="-8.5" font-family="Arial" font-size="8.00" fill="#94a3b8">  Problem</text>
<polygon fill="none" stroke="#dc2626" points="830,0 830,-71 946,-71 946,0 830,0"/>
</g>
<!-- application_action_resource_application_action_project_create_creates_entity_type_project&#45;&gt;action_outcome_application_action_project_create_validation_failed -->
<g id="edge7" class="edge">
<title>application_action_resource_application_action_project_create_creates_entity_type_project&#45;&gt;action_outcome_application_action_project_create_validation_failed</title>
<path fill="none" stroke="#3f3f46" d="M731.35,-146.06C764.67,-122.4 800.91,-96.65 830.04,-75.96"/>
<polygon fill="#3f3f46" stroke="#3f3f46" points="832,-78 836.9,-71.08 828.76,-73.43 832,-78"/>
<text text-anchor="middle" x="780.5" y="-122.5" font-family="Arial" font-size="10.00">failure</text>
</g>
<!-- action_outcome_application_action_project_create_created&#45;&gt;action_outcome_application_action_project_create_forbidden -->
<!-- application_action_event_application_action_project_create_domain_event_project_created -->
<g id="node8" class="node">
<title>application_action_event_application_action_project_create_domain_event_project_created</title>
<polygon fill="#ffffff" stroke="transparent" points="1027,-365.5 1027,-455.5 1231,-455.5 1231,-365.5 1027,-365.5"/>
<polygon fill="#4f46e5" stroke="transparent" points="1028,-446.5 1028,-454.5 1230,-454.5 1230,-446.5 1028,-446.5"/>
<polygon fill="#eef2ff" stroke="transparent" points="1028,-415.5 1028,-446.5 1230,-446.5 1230,-415.5 1028,-415.5"/>
<text text-anchor="start" x="1032" y="-433.1" font-family="Arial" font-weight="bold" font-size="13.00">domain_event.project.created</text>
<text text-anchor="start" x="1032" y="-422.1" font-family="Arial" font-size="8.00" fill="#64748b">emitted event</text>
<text text-anchor="start" x="1032" y="-404.5" font-family="Arial" font-style="italic" font-size="10.00" fill="#3f3f46">Members can create a new dispatch project.</text>
<text text-anchor="start" x="1032" y="-385.5" font-family="Arial" font-weight="bold" font-size="10.00">payload</text>
<text text-anchor="start" x="1032" y="-374.5" font-family="Arial" font-size="10.00">payload</text>
<text text-anchor="start" x="1066" y="-374.5" font-family="Arial" font-size="8.00" fill="#94a3b8">  Project</text>
<polygon fill="none" stroke="#4f46e5" points="1027,-365.5 1027,-455.5 1231,-455.5 1231,-365.5 1027,-365.5"/>
</g>
<!-- action_outcome_application_action_project_create_created&#45;&gt;application_action_event_application_action_project_create_domain_event_project_created -->
<g id="edge4" class="edge">
<title>action_outcome_application_action_project_create_created&#45;&gt;application_action_event_application_action_project_create_domain_event_project_created</title>
<path fill="none" stroke="#3f3f46" stroke-width="1.2" d="M923.75,-410.5C948.86,-410.5 984.26,-410.5 1018.54,-410.5"/>
<polygon fill="#3f3f46" stroke="#3f3f46" stroke-width="1.2" points="1018.76,-413.3 1026.76,-410.5 1018.76,-407.7 1018.76,-413.3"/>
<text text-anchor="middle" x="986.5" y="-413.5" font-family="Arial" font-size="10.00">emit</text>
</g>
<!-- action_outcome_application_action_project_create_forbidden&#45;&gt;action_outcome_application_action_project_create_unauthenticated -->
<!-- action_outcome_application_action_project_create_unauthenticated&#45;&gt;action_outcome_application_action_project_create_validation_failed -->
</g>
</svg>
