<svg width="1315pt" height="482pt"
 viewBox="0.00 0.00 1315.00 482.00" xmlns="http://www.w3.org/2000/svg" xmlns:xlink="http://www.w3.org/1999/xlink">
<!-- pyspec-contract-input-sha256: 26e1a842341e1422714f50713012cced7437b669e5d20fa9fe84827c97f4e46f -->
<g id="graph0" class="graph" transform="scale(1 1) rotate(0) translate(18 464)">
<title>application_action_application_action_project_create</title>
<!-- application_action_input_application_action_project_create -->
<g id="node1" class="node">
<title>application_action_input_application_action_project_create</title>
<polygon fill="#ffffff" stroke="transparent" points="0,-236.5 0,-340.5 96,-340.5 96,-236.5 0,-236.5"/>
<polygon fill="#64748b" stroke="transparent" points="1,-331.5 1,-339.5 95,-339.5 95,-331.5 1,-331.5"/>
<polygon fill="#f8fafc" stroke="transparent" points="1,-300.5 1,-331.5 95,-331.5 95,-300.5 1,-300.5"/>
<text text-anchor="start" x="5" y="-318.1" font-family="Arial" font-weight="bold" font-size="13.00">input</text>
<text text-anchor="start" x="5" y="-307.1" font-family="Arial" font-size="8.00" fill="#64748b">action input</text>
<text text-anchor="start" x="5" y="-289.5" font-family="Arial" font-weight="bold" font-size="10.00">fields</text>
<text text-anchor="start" x="5" y="-278.5" font-family="Arial" font-size="10.00">customer</text>
<text text-anchor="start" x="46" y="-278.5" font-family="Arial" font-size="8.00" fill="#94a3b8">  string</text>
<text text-anchor="start" x="5" y="-267.5" font-family="Arial" font-size="10.00">priority</text>
<text text-anchor="start" x="35" y="-267.5" font-family="Arial" font-size="8.00" fill="#94a3b8">  string</text>
<text text-anchor="start" x="5" y="-256.5" font-family="Arial" font-size="10.00">title</text>
<text text-anchor="start" x="21" y="-256.5" font-family="Arial" font-size="8.00" fill="#94a3b8">  string</text>
<text text-anchor="start" x="5" y="-245.5" font-family="Arial" font-size="10.00">workspace_id</text>
<text text-anchor="start" x="66" y="-245.5" font-family="Arial" font-size="8.00" fill="#94a3b8">  string</text>
<polygon fill="none" stroke="#64748b" points="0,-236.5 0,-340.5 96,-340.5 96,-236.5 0,-236.5"/>
</g>
<!-- application_action_policy_authorization_policy_project_member -->
<g id="node2" class="node">
<title>application_action_policy_authorization_policy_project_member</title>
<polygon fill="#ffffff" stroke="transparent" points="198,-230.5 198,-346.5 442,-346.5 442,-230.5 198,-230.5"/>
<polygon fill="#c2410c" stroke="transparent" points="199,-337.5 199,-345.5 441,-345.5 441,-337.5 199,-337.5"/>
<polygon fill="#fff7ed" stroke="transparent" points="199,-306.5 199,-337.5 441,-337.5 441,-306.5 199,-306.5"/>
<text text-anchor="start" x="203" y="-324.1" font-family="Arial" font-weight="bold" font-size="13.00">authorization_policy.project.member</text>
<text text-anchor="start" x="203" y="-313.1" font-family="Arial" font-size="8.00" fill="#64748b">authorization gate</text>
<text text-anchor="start" x="203" y="-295.5" font-family="Arial" font-style="italic" font-size="10.00" fill="#3f3f46">Workspace members may create, read, list, and</text>
<text text-anchor="start" x="203" y="-284.5" font-family="Arial" font-style="italic" font-size="10.00" fill="#3f3f46">submit dispatch projects.</text>
<text text-anchor="start" x="204" y="-264.5" font-family="Arial" font-weight="bold" font-size="10.00">effect:</text>
<text text-anchor="start" x="232" y="-264.5" font-family="Arial" font-size="10.00">  permit</text>
<text text-anchor="start" x="204" y="-252.5" font-family="Arial" font-weight="bold" font-size="10.00">subjects:</text>
<text text-anchor="start" x="247" y="-252.5" font-family="Arial" font-size="10.00">  actor</text>
<text text-anchor="start" x="204" y="-240.5" font-family="Arial" font-weight="bold" font-size="10.00">conditions:</text>
<text text-anchor="start" x="257" y="-240.5" font-family="Arial" font-size="10.00">  subject_has_role member</text>
<polygon fill="none" stroke="#c2410c" points="198,-230.5 198,-346.5 442,-346.5 442,-230.5 198,-230.5"/>
</g>
<!-- application_action_input_application_action_project_create&#45;&gt;application_action_policy_authorization_policy_project_member -->
<g id="edge1" class="edge">
<title>application_action_input_application_action_project_create&#45;&gt;application_action_policy_authorization_policy_project_member</title>
<path fill="none" stroke="#3f3f46" stroke-width="1.2" d="M96.03,-288.5C122.26,-288.5 156.33,-288.5 189.91,-288.5"/>
<polygon fill="#3f3f46" stroke="#3f3f46" stroke-width="1.2" points="189.98,-291.3 197.97,-288.5 189.97,-285.7 189.98,-291.3"/>
<text text-anchor="middle" x="147" y="-291.5" font-family="Arial" font-size="10.00">authorize</text>
</g>
<!-- application_action_resource_application_action_project_create_creates_entity_type_project -->
<g id="node3" class="node">
<title>application_action_resource_application_action_project_create_creates_entity_type_project</title>
<polygon fill="#ffffff" stroke="transparent" points="537,-64.5 537,-234.5 731,-234.5 731,-64.5 537,-64.5"/>
<polygon fill="#15803d" stroke="transparent" points="538,-225.5 538,-233.5 730,-233.5 730,-225.5 538,-225.5"/>
<polygon fill="#f0fdfa" stroke="transparent" points="538,-194.5 538,-225.5 730,-225.5 730,-194.5 538,-194.5"/>
<text text-anchor="start" x="542" y="-212.1" font-family="Arial" font-weight="bold" font-size="13.00">entity_type.project</text>
<text text-anchor="start" x="542" y="-201.1" font-family="Arial" font-size="8.00" fill="#64748b">entity_type resource</text>
<text text-anchor="start" x="542" y="-183.5" font-family="Arial" font-weight="bold" font-size="10.00">fields</text>
<text text-anchor="start" x="542" y="-172.5" font-family="Arial" font-size="10.00">assignee</text>
<text text-anchor="start" x="582" y="-172.5" font-family="Arial" font-size="8.00" fill="#94a3b8">  string</text>
<text text-anchor="start" x="542" y="-161.5" font-family="Arial" font-size="10.00">created_at</text>
<text text-anchor="start" x="588" y="-161.5" font-family="Arial" font-size="8.00" fill="#94a3b8">  string:date&#45;time</text>
<text text-anchor="start" x="542" y="-150.5" font-family="Arial" font-size="10.00">customer</text>
<text text-anchor="start" x="583" y="-150.5" font-family="Arial" font-size="8.00" fill="#94a3b8">  string</text>
<text text-anchor="start" x="542" y="-139.5" font-family="Arial" font-size="10.00">id</text>
<text text-anchor="start" x="550" y="-139.5" font-family="Arial" font-size="8.00" fill="#94a3b8">  string</text>
<text text-anchor="start" x="542" y="-128.5" font-family="Arial" font-size="10.00">priority</text>
<text text-anchor="start" x="572" y="-128.5" font-family="Arial" font-size="8.00" fill="#94a3b8">  string</text>
<text text-anchor="start" x="542" y="-117.5" font-family="Arial" font-size="10.00">status</text>
<text text-anchor="start" x="570" y="-117.5" font-family="Arial" font-size="8.00" fill="#94a3b8">  enum&lt;draft|submitted|approved|archived&gt;</text>
<text text-anchor="start" x="542" y="-106.5" font-family="Arial" font-size="10.00">summary</text>
<text text-anchor="start" x="583" y="-106.5" font-family="Arial" font-size="8.00" fill="#94a3b8">  string</text>
<text text-anchor="start" x="542" y="-95.5" font-family="Arial" font-size="10.00">title</text>
<text text-anchor="start" x="558" y="-95.5" font-family="Arial" font-size="8.00" fill="#94a3b8">  string</text>
<text text-anchor="start" x="542" y="-84.5" font-family="Arial" font-size="10.00">updated_at</text>
<text text-anchor="start" x="591" y="-84.5" font-family="Arial" font-size="8.00" fill="#94a3b8">  string:date&#45;time</text>
<text text-anchor="start" x="542" y="-73.5" font-family="Arial" font-size="10.00">workspace_id</text>
<text text-anchor="start" x="603" y="-73.5" font-family="Arial" font-size="8.00" fill="#94a3b8">  string</text>
<polygon fill="none" stroke="#15803d" points="537,-64.5 537,-234.5 731,-234.5 731,-64.5 537,-64.5"/>
</g>
<!-- application_action_policy_authorization_policy_project_member&#45;&gt;application_action_resource_application_action_project_create_creates_entity_type_project -->
<g id="edge2" class="edge">
<title>application_action_policy_authorization_policy_project_member&#45;&gt;application_action_resource_application_action_project_create_creates_entity_type_project</title>
<path fill="none" stroke="#3f3f46" d="M442.07,-234.56C470.85,-221.74 501.29,-208.18 529.22,-195.74"/>
<polygon fill="#3f3f46" stroke="#3f3f46" points="530.47,-198.24 536.64,-192.43 528.19,-193.13 530.47,-198.24"/>
<text text-anchor="middle" x="489.5" y="-222.5" font-family="Arial" font-size="10.00">creates</text>
</g>
<!-- action_outcome_application_action_project_create_access_denied -->
<g id="node4" class="node">
<title>action_outcome_application_action_project_create_access_denied</title>
<polygon fill="#ffffff" stroke="transparent" points="858.5,-375 858.5,-446 965.5,-446 965.5,-375 858.5,-375"/>
<polygon fill="#dc2626" stroke="transparent" points="860,-436.5 860,-444.5 965,-444.5 965,-436.5 860,-436.5"/>
<polygon fill="#fef2f2" stroke="transparent" points="860,-405.5 860,-436.5 965,-436.5 965,-405.5 860,-405.5"/>
<text text-anchor="start" x="864" y="-423.1" font-family="Arial" font-weight="bold" font-size="13.00">access_denied</text>
<text text-anchor="start" x="864" y="-412.1" font-family="Arial" font-size="8.00" fill="#64748b">failure outcome</text>
<text text-anchor="start" x="864" y="-394.5" font-family="Arial" font-weight="bold" font-size="10.00">result</text>
<text text-anchor="start" x="864" y="-383.5" font-family="Arial" font-size="10.00">result</text>
<text text-anchor="start" x="889" y="-383.5" font-family="Arial" font-size="8.00" fill="#94a3b8">  Problem</text>
<polygon fill="none" stroke="#dc2626" points="858.5,-375 858.5,-446 965.5,-446 965.5,-375 858.5,-375"/>
</g>
<!-- application_action_policy_authorization_policy_project_member&#45;&gt;action_outcome_application_action_project_create_access_denied -->
<g id="edge3" class="edge">
<title>application_action_policy_authorization_policy_project_member&#45;&gt;action_outcome_application_action_project_create_access_denied</title>
<path fill="none" stroke="#3f3f46" d="M442.18,-313.56C566.49,-339.26 754.83,-378.21 850.55,-398"/>
<polygon fill="#3f3f46" stroke="#3f3f46" points="850,-400.75 858.4,-399.62 851.14,-395.26 850,-400.75"/>
<text text-anchor="middle" x="634" y="-374.5" font-family="Arial" font-size="10.00">access_denied_as</text>
</g>
<!-- action_outcome_application_action_project_create_authentication_required -->
<g id="node5" class="node">
<title>action_outcome_application_action_project_create_authentication_required</title>
<polygon fill="#ffffff" stroke="transparent" points="830,-250 830,-321 994,-321 994,-250 830,-250"/>
<polygon fill="#dc2626" stroke="transparent" points="831,-311.5 831,-319.5 993,-319.5 993,-311.5 831,-311.5"/>
<polygon fill="#fef2f2" stroke="transparent" points="831,-280.5 831,-311.5 993,-311.5 993,-280.5 831,-280.5"/>
<text text-anchor="start" x="835" y="-298.1" font-family="Arial" font-weight="bold" font-size="13.00">authentication_required</text>
<text text-anchor="start" x="835" y="-287.1" font-family="Arial" font-size="8.00" fill="#64748b">failure outcome</text>
<text text-anchor="start" x="835" y="-269.5" font-family="Arial" font-weight="bold" font-size="10.00">result</text>
<text text-anchor="start" x="835" y="-258.5" font-family="Arial" font-size="10.00">result</text>
<text text-anchor="start" x="860" y="-258.5" font-family="Arial" font-size="8.00" fill="#94a3b8">  Problem</text>
<polygon fill="none" stroke="#dc2626" points="830,-250 830,-321 994,-321 994,-250 830,-250"/>
</g>
<!-- application_action_policy_authorization_policy_project_member&#45;&gt;action_outcome_application_action_project_create_authentication_required -->
<g id="edge4" class="edge">
<title>application_action_policy_authorization_policy_project_member&#45;&gt;action_outcome_application_action_project_create_authentication_required</title>
<path fill="none" stroke="#3f3f46" d="M442.18,-287.88C554.96,-287.31 720.44,-286.47 821.65,-285.95"/>
<polygon fill="#3f3f46" stroke="#3f3f46" points="821.74,-288.75 829.73,-285.91 821.71,-283.15 821.74,-288.75"/>
<text text-anchor="middle" x="634" y="-290.5" font-family="Arial" font-size="10.00">authentication_required_as</text>
</g>
<!-- action_outcome_application_action_project_create_created -->
<g id="node6" class="node">
<title>action_outcome_application_action_project_create_created</title>
<polygon fill="#ffffff" stroke="transparent" points="876.5,-125 876.5,-196 947.5,-196 947.5,-125 876.5,-125"/>
<polygon fill="#16a34a" stroke="transparent" points="878,-186.5 878,-194.5 947,-194.5 947,-186.5 878,-186.5"/>
<polygon fill="#f0fdf4" stroke="transparent" points="878,-155.5 878,-186.5 947,-186.5 947,-155.5 878,-155.5"/>
<text text-anchor="start" x="882" y="-173.1" font-family="Arial" font-weight="bold" font-size="13.00">created</text>
<text text-anchor="start" x="882" y="-162.1" font-family="Arial" font-size="8.00" fill="#64748b">success outcome</text>
<text text-anchor="start" x="882" y="-144.5" font-family="Arial" font-weight="bold" font-size="10.00">result</text>
<text text-anchor="start" x="882" y="-133.5" font-family="Arial" font-size="10.00">result</text>
<text text-anchor="start" x="907" y="-133.5" font-family="Arial" font-size="8.00" fill="#94a3b8">  Project</text>
<polygon fill="none" stroke="#16a34a" points="876.5,-125 876.5,-196 947.5,-196 947.5,-125 876.5,-125"/>
</g>
<!-- application_action_resource_application_action_project_create_creates_entity_type_project&#45;&gt;action_outcome_application_action_project_create_created -->
<g id="edge5" class="edge">
<title>application_action_resource_application_action_project_create_creates_entity_type_project&#45;&gt;action_outcome_application_action_project_create_created</title>
<path fill="none" stroke="#3f3f46" d="M731.14,-153.33C777.81,-155.19 831.53,-157.33 868.02,-158.79"/>
<polygon fill="#3f3f46" stroke="#3f3f46" points="868.34,-161.6 876.45,-159.12 868.57,-156.01 868.34,-161.6"/>
<text text-anchor="middle" x="780.5" y="-159.5" font-family="Arial" font-size="10.00">success</text>
</g>
<!-- action_outcome_application_action_project_create_validation_failed -->
<g id="node7" class="node">
<title>action_outcome_application_action_project_create_validation_failed</title>
<polygon fill="#ffffff" stroke="transparent" points="854,0 854,-71 970,-71 970,0 854,0"/>
<polygon fill="#dc2626" stroke="transparent" points="855,-61.5 855,-69.5 969,-69.5 969,-61.5 855,-61.5"/>
<polygon fill="#fef2f2" stroke="transparent" points="855,-30.5 855,-61.5 969,-61.5 969,-30.5 855,-30.5"/>
<text text-anchor="start" x="859" y="-48.1" font-family="Arial" font-weight="bold" font-size="13.00">validation_failed</text>
<text text-anchor="start" x="859" y="-37.1" font-family="Arial" font-size="8.00" fill="#64748b">failure outcome</text>
<text text-anchor="start" x="859" y="-19.5" font-family="Arial" font-weight="bold" font-size="10.00">result</text>
<text text-anchor="start" x="859" y="-8.5" font-family="Arial" font-size="10.00">result</text>
<text text-anchor="start" x="884" y="-8.5" font-family="Arial" font-size="8.00" fill="#94a3b8">  Problem</text>
<polygon fill="none" stroke="#dc2626" points="854,0 854,-71 970,-71 970,0 854,0"/>
</g>
<!-- application_action_resource_application_action_project_create_creates_entity_type_project&#45;&gt;action_outcome_application_action_project_create_validation_failed -->
<g id="edge7" class="edge">
<title>application_action_resource_application_action_project_create_creates_entity_type_project&#45;&gt;action_outcome_application_action_project_create_validation_failed</title>
<path fill="none" stroke="#3f3f46" d="M731.14,-109.79C769.18,-94.08 811.91,-76.43 846.17,-62.28"/>
<polygon fill="#3f3f46" stroke="#3f3f46" points="847.47,-64.77 853.79,-59.13 845.33,-59.6 847.47,-64.77"/>
<text text-anchor="middle" x="780.5" y="-99.5" font-family="Arial" font-size="10.00">failure</text>
</g>
<!-- action_outcome_application_action_project_create_access_denied&#45;&gt;action_outcome_application_action_project_create_authentication_required -->
<!-- action_outcome_application_action_project_create_authentication_required&#45;&gt;action_outcome_application_action_project_create_created -->
<!-- action_outcome_application_action_project_create_created&#45;&gt;action_outcome_application_action_project_create_validation_failed -->
<!-- application_action_event_application_action_project_create_domain_event_project_created -->
<g id="node8" class="node">
<title>application_action_event_application_action_project_create_domain_event_project_created</title>
<polygon fill="#ffffff" stroke="transparent" points="1075,-115.5 1075,-205.5 1279,-205.5 1279,-115.5 1075,-115.5"/>
<polygon fill="#4f46e5" stroke="transparent" points="1076,-196.5 1076,-204.5 1278,-204.5 1278,-196.5 1076,-196.5"/>
<polygon fill="#eef2ff" stroke="transparent" points="1076,-165.5 1076,-196.5 1278,-196.5 1278,-165.5 1076,-165.5"/>
<text text-anchor="start" x="1080" y="-183.1" font-family="Arial" font-weight="bold" font-size="13.00">domain_event.project.created</text>
<text text-anchor="start" x="1080" y="-172.1" font-family="Arial" font-size="8.00" fill="#64748b">emitted event</text>
<text text-anchor="start" x="1080" y="-154.5" font-family="Arial" font-style="italic" font-size="10.00" fill="#3f3f46">Members can create a new dispatch project.</text>
<text text-anchor="start" x="1080" y="-135.5" font-family="Arial" font-weight="bold" font-size="10.00">payload</text>
<text text-anchor="start" x="1080" y="-124.5" font-family="Arial" font-size="10.00">payload</text>
<text text-anchor="start" x="1114" y="-124.5" font-family="Arial" font-size="8.00" fill="#94a3b8">  Project</text>
<polygon fill="none" stroke="#4f46e5" points="1075,-115.5 1075,-205.5 1279,-205.5 1279,-115.5 1075,-115.5"/>
</g>
<!-- action_outcome_application_action_project_create_created&#45;&gt;application_action_event_application_action_project_create_domain_event_project_created -->
<g id="edge6" class="edge">
<title>action_outcome_application_action_project_create_created&#45;&gt;application_action_event_application_action_project_create_domain_event_project_created</title>
<path fill="none" stroke="#3f3f46" stroke-width="1.2" d="M947.65,-160.5C978.05,-160.5 1023.95,-160.5 1066.64,-160.5"/>
<polygon fill="#3f3f46" stroke="#3f3f46" stroke-width="1.2" points="1066.85,-163.3 1074.85,-160.5 1066.85,-157.7 1066.85,-163.3"/>
<text text-anchor="middle" x="1034.5" y="-163.5" font-family="Arial" font-size="10.00">emit</text>
</g>
</g>
</svg>
