<svg width="1123pt" height="187pt"
 viewBox="0.00 0.00 1123.00 187.00" xmlns="http://www.w3.org/2000/svg" xmlns:xlink="http://www.w3.org/1999/xlink">
<!-- pyspec-contract-input-sha256: a57f27aad09570a0b3950e722225cdc96eaea01f2e3d727e915f8ad0ad08ad2c -->
<g id="graph0" class="graph" transform="scale(1 1) rotate(0) translate(18 169)">
<title>state_machine_state_machine_project_activity</title>
<!-- initial_view_state -->
<g id="node1" class="node">
<title>initial_view_state</title>
<ellipse fill="none" stroke="#0891b2" cx="21" cy="-41" rx="21" ry="21"/>
<text text-anchor="middle" x="21" y="-38.8" font-family="Arial" font-size="9.00" fill="#155e75">initial_view_state</text>
</g>
<!-- view_state_empty -->
<g id="node2" class="node">
<title>view_state_empty</title>
<polygon fill="#ffffff" stroke="transparent" points="103,0 103,-82 262,-82 262,0 103,0"/>
<polygon fill="#0891b2" stroke="transparent" points="104.5,-73 104.5,-81 261.5,-81 261.5,-73 104.5,-73"/>
<polygon fill="#ecfeff" stroke="transparent" points="104.5,-42 104.5,-73 261.5,-73 261.5,-42 104.5,-42"/>
<text text-anchor="start" x="108.5" y="-59.6" font-family="Arial" font-weight="bold" font-size="13.00">empty</text>
<text text-anchor="start" x="108.5" y="-48.6" font-family="Arial" font-size="8.00" fill="#64748b">initial view state</text>
<text text-anchor="start" x="108.5" y="-31" font-family="Arial" font-weight="bold" font-size="10.00">text</text>
<text text-anchor="start" x="108.5" y="-19" font-family="Arial" font-size="10.00">text.project.activity.empty.heading</text>
<text text-anchor="start" x="108.5" y="-8" font-family="Arial" font-size="10.00">text.project.activity.empty.body</text>
<polygon fill="none" stroke="#0891b2" points="103,0 103,-82 262,-82 262,0 103,0"/>
</g>
<!-- initial_view_state&#45;&gt;view_state_empty -->
<g id="edge1" class="edge">
<title>initial_view_state&#45;&gt;view_state_empty</title>
<path fill="none" stroke="#3f3f46" d="M42.2,-41C55.9,-41 75.06,-41 94.78,-41"/>
<polygon fill="#3f3f46" stroke="#3f3f46" points="94.96,-43.8 102.96,-41 94.96,-38.2 94.96,-43.8"/>
</g>
<!-- transition_0_empty_ready_message_project_selection_changed -->
<g id="node4" class="node">
<title>transition_0_empty_ready_message_project_selection_changed</title>
<polygon fill="#ffffff" stroke="transparent" points="323,-41 323,-139 590,-139 590,-41 323,-41"/>
<polygon fill="#2563eb" stroke="transparent" points="324.5,-130 324.5,-138 589.5,-138 589.5,-130 324.5,-130"/>
<polygon fill="#eff6ff" stroke="transparent" points="324.5,-99 324.5,-130 589.5,-130 589.5,-99 324.5,-99"/>
<text text-anchor="start" x="328.5" y="-116.6" font-family="Arial" font-weight="bold" font-size="13.00">message.project.selection_changed</text>
<text text-anchor="start" x="328.5" y="-105.6" font-family="Arial" font-size="8.00" fill="#64748b">transition event</text>
<text text-anchor="start" x="329.5" y="-87" font-family="Arial" font-weight="bold" font-size="10.00">input:</text>
<text text-anchor="start" x="357.5" y="-87" font-family="Arial" font-size="10.00">  project_id</text>
<text text-anchor="start" x="406.5" y="-87" font-family="Arial" font-size="8.00" fill="#94a3b8">  ID</text>
<text text-anchor="start" x="329.5" y="-75" font-family="Arial" font-weight="bold" font-size="10.00">query:</text>
<text text-anchor="start" x="359.5" y="-75" font-family="Arial" font-size="10.00">  query.project.activity.read</text>
<text text-anchor="start" x="329.5" y="-63" font-family="Arial" font-weight="bold" font-size="10.00">load:</text>
<text text-anchor="start" x="353.5" y="-63" font-family="Arial" font-size="10.00">  operation.project.read</text>
<text text-anchor="start" x="453.5" y="-63" font-family="Arial" font-size="8.00" fill="#94a3b8">  Project</text>
<text text-anchor="start" x="329.5" y="-51" font-family="Arial" font-weight="bold" font-size="10.00">policy_guards:</text>
<text text-anchor="start" x="399.5" y="-51" font-family="Arial" font-size="10.00">  operation.project.read: policy.project.read</text>
<polygon fill="none" stroke="#2563eb" points="323,-41 323,-139 590,-139 590,-41 323,-41"/>
</g>
<!-- view_state_empty&#45;&gt;transition_0_empty_ready_message_project_selection_changed -->
<g id="edge2" class="edge">
<title>view_state_empty&#45;&gt;transition_0_empty_ready_message_project_selection_changed</title>
<path fill="none" stroke="#3f3f46" d="M262.17,-55.17C278.7,-58.15 296.62,-61.38 314.65,-64.63"/>
<polygon fill="#3f3f46" stroke="#3f3f46" points="314.56,-67.46 322.93,-66.12 315.56,-61.94 314.56,-67.46"/>
</g>
<!-- view_state_ready -->
<g id="node3" class="node">
<title>view_state_ready</title>
<polygon fill="#ffffff" stroke="transparent" points="651,-37 651,-151 845,-151 845,-37 651,-37"/>
<polygon fill="#71717a" stroke="transparent" points="652,-142 652,-150 844,-150 844,-142 652,-142"/>
<polygon fill="#f8fafc" stroke="transparent" points="652,-111 652,-142 844,-142 844,-111 652,-111"/>
<text text-anchor="start" x="656" y="-128.6" font-family="Arial" font-weight="bold" font-size="13.00">ready</text>
<text text-anchor="start" x="656" y="-117.6" font-family="Arial" font-size="8.00" fill="#64748b">view state</text>
<text text-anchor="start" x="657" y="-99" font-family="Arial" font-weight="bold" font-size="10.00">text:</text>
<text text-anchor="start" x="677" y="-99" font-family="Arial" font-size="10.00">  text.project.activity.ready.heading</text>
<text text-anchor="start" x="656" y="-79" font-family="Arial" font-weight="bold" font-size="10.00">operation.project.read fields</text>
<text text-anchor="start" x="656" y="-68" font-family="Arial" font-size="10.00">updated_at</text>
<text text-anchor="start" x="705" y="-68" font-family="Arial" font-size="8.00" fill="#94a3b8">  Timestamp</text>
<text text-anchor="start" x="656" y="-57" font-family="Arial" font-size="10.00">status</text>
<text text-anchor="start" x="684" y="-57" font-family="Arial" font-size="8.00" fill="#94a3b8">  enum&lt;draft|submitted|approved|archived&gt;</text>
<text text-anchor="start" x="656" y="-46" font-family="Arial" font-size="10.00">assignee</text>
<text text-anchor="start" x="696" y="-46" font-family="Arial" font-size="8.00" fill="#94a3b8">  Text</text>
<polygon fill="none" stroke="#71717a" points="651,-37 651,-151 845,-151 845,-37 651,-37"/>
</g>
<!-- transition_1_ready_empty_message_selection_cleared -->
<g id="node5" class="node">
<title>transition_1_ready_empty_message_selection_cleared</title>
<polygon fill="#ffffff" stroke="transparent" points="906,-14 906,-76 1087,-76 1087,-14 906,-14"/>
<polygon fill="#2563eb" stroke="transparent" points="907.5,-67 907.5,-75 1086.5,-75 1086.5,-67 907.5,-67"/>
<polygon fill="#eff6ff" stroke="transparent" points="907.5,-36 907.5,-67 1086.5,-67 1086.5,-36 907.5,-36"/>
<text text-anchor="start" x="911.5" y="-53.6" font-family="Arial" font-weight="bold" font-size="13.00">message.selection.cleared</text>
<text text-anchor="start" x="911.5" y="-42.6" font-family="Arial" font-size="8.00" fill="#64748b">transition event</text>
<text text-anchor="start" x="912.5" y="-24" font-family="Arial" font-weight="bold" font-size="10.00">set:</text>
<text text-anchor="start" x="929.5" y="-24" font-family="Arial" font-size="10.00">  project_id</text>
<text text-anchor="start" x="978.5" y="-24" font-family="Arial" font-size="8.00" fill="#94a3b8">  ID</text>
<text text-anchor="start" x="991.5" y="-24" font-family="Arial" font-size="8.00"> ← null</text>
<polygon fill="none" stroke="#2563eb" points="906,-14 906,-76 1087,-76 1087,-14 906,-14"/>
</g>
<!-- view_state_ready&#45;&gt;transition_1_ready_empty_message_selection_cleared -->
<g id="edge4" class="edge">
<title>view_state_ready&#45;&gt;transition_1_ready_empty_message_selection_cleared</title>
<path fill="none" stroke="#3f3f46" d="M845.01,-74.92C862.36,-71.47 880.47,-67.87 897.86,-64.41"/>
<polygon fill="#3f3f46" stroke="#3f3f46" points="898.5,-67.14 905.8,-62.83 897.41,-61.64 898.5,-67.14"/>
</g>
<!-- transition_0_empty_ready_message_project_selection_changed&#45;&gt;view_state_ready -->
<g id="edge3" class="edge">
<title>transition_0_empty_ready_message_project_selection_changed&#45;&gt;view_state_ready</title>
<path fill="none" stroke="#3f3f46" d="M590.39,-91.84C607.89,-92.08 625.62,-92.32 642.55,-92.56"/>
<polygon fill="#3f3f46" stroke="#3f3f46" points="642.76,-95.36 650.8,-92.67 642.84,-89.76 642.76,-95.36"/>
</g>
<!-- transition_1_ready_empty_message_selection_cleared&#45;&gt;view_state_empty -->
<g id="edge5" class="edge">
<title>transition_1_ready_empty_message_selection_cleared&#45;&gt;view_state_empty</title>
<path fill="none" stroke="#3f3f46" d="M905.79,-30.41C885.83,-27.74 864.74,-25.37 845,-24 613.55,-7.93 554.69,-15.81 323,-28 306.09,-28.89 288.06,-30.26 270.78,-31.78"/>
<polygon fill="#3f3f46" stroke="#3f3f46" points="270.08,-29.03 262.36,-32.53 270.58,-34.6 270.08,-29.03"/>
</g>
</g>
</svg>
