<svg width="1046pt" height="212pt"
 viewBox="0.00 0.00 1046.00 211.50" xmlns="http://www.w3.org/2000/svg" xmlns:xlink="http://www.w3.org/1999/xlink">
<!-- pyspec-contract-input-sha256: 588c12d164830a2154892f09636d5c601a199f52642f7087b908de46089a0e2b -->
<g id="graph0" class="graph" transform="scale(1 1) rotate(0) translate(18 193.5)">
<title>state_machine_state_machine_project_activity</title>
<!-- view_state_empty -->
<g id="node1" class="node">
<title>view_state_empty</title>
<polygon fill="#ffffff" stroke="transparent" points="0,0 0,-82 159,-82 159,0 0,0"/>
<polygon fill="#0891b2" stroke="transparent" points="1.5,-73 1.5,-81 158.5,-81 158.5,-73 1.5,-73"/>
<polygon fill="#ecfeff" stroke="transparent" points="1.5,-42 1.5,-73 158.5,-73 158.5,-42 1.5,-42"/>
<text text-anchor="start" x="5.5" y="-59.6" font-family="Arial" font-weight="bold" font-size="13.00">empty</text>
<text text-anchor="start" x="5.5" y="-48.6" font-family="Arial" font-size="8.00" fill="#64748b">initial view state</text>
<text text-anchor="start" x="5.5" y="-31" font-family="Arial" font-weight="bold" font-size="10.00">text</text>
<text text-anchor="start" x="5.5" y="-19" font-family="Arial" font-size="10.00">text.project.activity.empty.heading</text>
<text text-anchor="start" x="5.5" y="-8" font-family="Arial" font-size="10.00">text.project.activity.empty.body</text>
<polygon fill="none" stroke="#0891b2" points="0,0 0,-82 159,-82 159,0 0,0"/>
</g>
<!-- transition_0_empty_ready_local_signal_selection_changed -->
<g id="node3" class="node">
<title>transition_0_empty_ready_local_signal_selection_changed</title>
<polygon fill="#ffffff" stroke="transparent" points="220,-52 220,-138 433,-138 433,-52 220,-52"/>
<polygon fill="#2563eb" stroke="transparent" points="221.5,-129 221.5,-137 432.5,-137 432.5,-129 221.5,-129"/>
<polygon fill="#eff6ff" stroke="transparent" points="221.5,-98 221.5,-129 432.5,-129 432.5,-98 221.5,-98"/>
<text text-anchor="start" x="225.5" y="-115.6" font-family="Arial" font-weight="bold" font-size="13.00">local_signal.selection_changed</text>
<text text-anchor="start" x="225.5" y="-104.6" font-family="Arial" font-size="8.00" fill="#64748b">transition signal</text>
<text text-anchor="start" x="226.5" y="-86" font-family="Arial" font-weight="bold" font-size="10.00">input:</text>
<text text-anchor="start" x="254.5" y="-86" font-family="Arial" font-size="10.00">  read_activity.project_id</text>
<text text-anchor="start" x="360.5" y="-86" font-family="Arial" font-size="8.00" fill="#94a3b8">  string</text>
<text text-anchor="start" x="226.5" y="-74" font-family="Arial" font-weight="bold" font-size="10.00">data_loaders:</text>
<text text-anchor="start" x="289.5" y="-74" font-family="Arial" font-size="10.00">  read_activity</text>
<text text-anchor="start" x="226.5" y="-62" font-family="Arial" font-weight="bold" font-size="10.00">load:</text>
<text text-anchor="start" x="250.5" y="-62" font-family="Arial" font-size="10.00">  query.project.read</text>
<text text-anchor="start" x="334.5" y="-62" font-family="Arial" font-size="8.00" fill="#94a3b8">  Project</text>
<polygon fill="none" stroke="#2563eb" points="220,-52 220,-138 433,-138 433,-52 220,-52"/>
</g>
<!-- view_state_empty&#45;&gt;transition_0_empty_ready_local_signal_selection_changed -->
<g id="edge1" class="edge">
<title>view_state_empty&#45;&gt;transition_0_empty_ready_local_signal_selection_changed</title>
<path fill="none" stroke="#3f3f46" d="M159.03,-58.31C175.78,-62 193.79,-65.97 211.57,-69.89"/>
<polygon fill="#3f3f46" stroke="#3f3f46" points="211.3,-72.7 219.71,-71.68 212.5,-67.23 211.3,-72.7"/>
</g>
<!-- view_state_ready -->
<g id="node2" class="node">
<title>view_state_ready</title>
<polygon fill="#ffffff" stroke="transparent" points="494,-40.5 494,-175.5 744,-175.5 744,-40.5 494,-40.5"/>
<polygon fill="#71717a" stroke="transparent" points="495,-166 495,-174 743,-174 743,-166 495,-166"/>
<polygon fill="#f8fafc" stroke="transparent" points="495,-135 495,-166 743,-166 743,-135 495,-135"/>
<text text-anchor="start" x="499" y="-152.6" font-family="Arial" font-weight="bold" font-size="13.00">ready</text>
<text text-anchor="start" x="499" y="-141.6" font-family="Arial" font-size="8.00" fill="#64748b">view state</text>
<text text-anchor="start" x="500" y="-123" font-family="Arial" font-weight="bold" font-size="10.00">text:</text>
<text text-anchor="start" x="520" y="-123" font-family="Arial" font-size="10.00">  text.project.activity.ready.heading</text>
<text text-anchor="start" x="499" y="-103" font-family="Arial" font-weight="bold" font-size="10.00">query.project.read fields</text>
<text text-anchor="start" x="499" y="-92" font-family="Arial" font-size="10.00">updated_at</text>
<text text-anchor="start" x="548" y="-92" font-family="Arial" font-size="8.00" fill="#94a3b8">  string:date&#45;time</text>
<text text-anchor="start" x="499" y="-81" font-family="Arial" font-size="10.00">status</text>
<text text-anchor="start" x="527" y="-81" font-family="Arial" font-size="8.00" fill="#94a3b8">  enum&lt;draft|submitted|approved|archived&gt;</text>
<text text-anchor="start" x="499" y="-70" font-family="Arial" font-size="10.00">assignee</text>
<text text-anchor="start" x="539" y="-70" font-family="Arial" font-size="8.00" fill="#94a3b8">  string</text>
<text text-anchor="start" x="500" y="-50" font-family="Arial" font-weight="bold" font-size="10.00">data_loaders:</text>
<text text-anchor="start" x="563" y="-50" font-family="Arial" font-size="10.00">  read_activity: query.project.read</text>
<text text-anchor="start" x="708" y="-50" font-family="Arial" font-size="8.00" fill="#94a3b8">  Project</text>
<polygon fill="none" stroke="#71717a" points="494,-40.5 494,-175.5 744,-175.5 744,-40.5 494,-40.5"/>
</g>
<!-- transition_1_ready_empty_local_signal_selection_cleared -->
<g id="node4" class="node">
<title>transition_1_ready_empty_local_signal_selection_cleared</title>
<polygon fill="#ffffff" stroke="transparent" points="805,-22 805,-84 1010,-84 1010,-22 805,-22"/>
<polygon fill="#2563eb" stroke="transparent" points="806.5,-75 806.5,-83 1009.5,-83 1009.5,-75 806.5,-75"/>
<polygon fill="#eff6ff" stroke="transparent" points="806.5,-44 806.5,-75 1009.5,-75 1009.5,-44 806.5,-44"/>
<text text-anchor="start" x="810.5" y="-61.6" font-family="Arial" font-weight="bold" font-size="13.00">local_signal.selection_cleared</text>
<text text-anchor="start" x="810.5" y="-50.6" font-family="Arial" font-size="8.00" fill="#64748b">transition signal</text>
<text text-anchor="start" x="811.5" y="-32" font-family="Arial" font-weight="bold" font-size="10.00">set:</text>
<text text-anchor="start" x="828.5" y="-32" font-family="Arial" font-size="10.00">  project_id</text>
<text text-anchor="start" x="877.5" y="-32" font-family="Arial" font-size="8.00" fill="#94a3b8">  string | null</text>
<text text-anchor="start" x="920.5" y="-32" font-family="Arial" font-size="8.00"> ← null</text>
<polygon fill="none" stroke="#2563eb" points="805,-22 805,-84 1010,-84 1010,-22 805,-22"/>
</g>
<!-- view_state_ready&#45;&gt;transition_1_ready_empty_local_signal_selection_cleared -->
<g id="edge3" class="edge">
<title>view_state_ready&#45;&gt;transition_1_ready_empty_local_signal_selection_cleared</title>
<path fill="none" stroke="#3f3f46" d="M744.41,-84.12C761.96,-80.75 779.89,-77.3 797.13,-74"/>
<polygon fill="#3f3f46" stroke="#3f3f46" points="797.67,-76.74 805,-72.49 796.61,-71.24 797.67,-76.74"/>
</g>
<!-- transition_0_empty_ready_local_signal_selection_changed&#45;&gt;view_state_ready -->
<g id="edge2" class="edge">
<title>transition_0_empty_ready_local_signal_selection_changed&#45;&gt;view_state_ready</title>
<path fill="none" stroke="#3f3f46" d="M433.2,-99.73C450.22,-100.49 468.03,-101.29 485.58,-102.07"/>
<polygon fill="#3f3f46" stroke="#3f3f46" points="485.51,-104.87 493.63,-102.43 485.76,-99.28 485.51,-104.87"/>
</g>
<!-- transition_1_ready_empty_local_signal_selection_cleared&#45;&gt;view_state_empty -->
<g id="edge4" class="edge">
<title>transition_1_ready_empty_local_signal_selection_cleared&#45;&gt;view_state_empty</title>
<path fill="none" stroke="#3f3f46" d="M804.94,-34.21C784.82,-31.21 763.79,-28.57 744,-27 537.63,-10.59 294.09,-24.12 167.23,-33.63"/>
<polygon fill="#3f3f46" stroke="#3f3f46" points="166.8,-30.86 159.04,-34.26 167.23,-36.44 166.8,-30.86"/>
</g>
</g>
</svg>
