<svg width="1102pt" height="212pt"
 viewBox="0.00 0.00 1102.00 211.50" xmlns="http://www.w3.org/2000/svg" xmlns:xlink="http://www.w3.org/1999/xlink">
<!-- pyspec-contract-input-sha256: f5ebfda30b3978d4879bb1eee4af80db426cf7c9630ab6829c3655f456f5a4de -->
<g id="graph0" class="graph" transform="scale(1 1) rotate(0) translate(18 193.5)">
<title>state_machine_state_machine_project_activity</title>
<!-- state_empty -->
<g id="node1" class="node">
<title>state_empty</title>
<polygon fill="#ffffff" stroke="transparent" points="0,0 0,-82 202,-82 202,0 0,0"/>
<polygon fill="#0891b2" stroke="transparent" points="1,-73 1,-81 201,-81 201,-73 1,-73"/>
<polygon fill="#ecfeff" stroke="transparent" points="1,-42 1,-73 201,-73 201,-42 1,-42"/>
<text text-anchor="start" x="5" y="-59.6" font-family="Arial" font-weight="bold" font-size="13.00">empty</text>
<text text-anchor="start" x="5" y="-48.6" font-family="Arial" font-size="8.00" fill="#64748b">initial state</text>
<text text-anchor="start" x="5" y="-31" font-family="Arial" font-weight="bold" font-size="10.00">text</text>
<text text-anchor="start" x="5" y="-19" font-family="Arial" font-size="10.00">text_resource.project.activity.empty.heading</text>
<text text-anchor="start" x="5" y="-8" font-family="Arial" font-size="10.00">text_resource.project.activity.empty.body</text>
<polygon fill="none" stroke="#0891b2" points="0,0 0,-82 202,-82 202,0 0,0"/>
</g>
<!-- transition_0_empty_ready_local_signal_selection_changed -->
<g id="node3" class="node">
<title>transition_0_empty_ready_local_signal_selection_changed</title>
<polygon fill="#ffffff" stroke="transparent" points="263,-52 263,-138 476,-138 476,-52 263,-52"/>
<polygon fill="#2563eb" stroke="transparent" points="264.5,-129 264.5,-137 475.5,-137 475.5,-129 264.5,-129"/>
<polygon fill="#eff6ff" stroke="transparent" points="264.5,-98 264.5,-129 475.5,-129 475.5,-98 264.5,-98"/>
<text text-anchor="start" x="268.5" y="-115.6" font-family="Arial" font-weight="bold" font-size="13.00">local_signal.selection_changed</text>
<text text-anchor="start" x="268.5" y="-104.6" font-family="Arial" font-size="8.00" fill="#64748b">transition signal</text>
<text text-anchor="start" x="269.5" y="-86" font-family="Arial" font-weight="bold" font-size="10.00">input:</text>
<text text-anchor="start" x="297.5" y="-86" font-family="Arial" font-size="10.00">  read_activity.project_id</text>
<text text-anchor="start" x="403.5" y="-86" font-family="Arial" font-size="8.00" fill="#94a3b8">  string</text>
<text text-anchor="start" x="269.5" y="-74" font-family="Arial" font-weight="bold" font-size="10.00">query_bindings:</text>
<text text-anchor="start" x="345.5" y="-74" font-family="Arial" font-size="10.00">  read_activity</text>
<text text-anchor="start" x="269.5" y="-62" font-family="Arial" font-weight="bold" font-size="10.00">load:</text>
<text text-anchor="start" x="293.5" y="-62" font-family="Arial" font-size="10.00">  query.project.read</text>
<text text-anchor="start" x="377.5" y="-62" font-family="Arial" font-size="8.00" fill="#94a3b8">  Project</text>
<polygon fill="none" stroke="#2563eb" points="263,-52 263,-138 476,-138 476,-52 263,-52"/>
</g>
<!-- state_empty&#45;&gt;transition_0_empty_ready_local_signal_selection_changed -->
<g id="edge1" class="edge">
<title>state_empty&#45;&gt;transition_0_empty_ready_local_signal_selection_changed</title>
<path fill="none" stroke="#3f3f46" d="M202.37,-61.34C219.52,-64.81 237.44,-68.44 254.9,-71.98"/>
<polygon fill="#3f3f46" stroke="#3f3f46" points="254.49,-74.75 262.88,-73.6 255.6,-69.27 254.49,-74.75"/>
</g>
<!-- state_ready -->
<g id="node2" class="node">
<title>state_ready</title>
<polygon fill="#ffffff" stroke="transparent" points="537,-40.5 537,-175.5 800,-175.5 800,-40.5 537,-40.5"/>
<polygon fill="#71717a" stroke="transparent" points="538.5,-166 538.5,-174 799.5,-174 799.5,-166 538.5,-166"/>
<polygon fill="#f8fafc" stroke="transparent" points="538.5,-135 538.5,-166 799.5,-166 799.5,-135 538.5,-135"/>
<text text-anchor="start" x="542.5" y="-152.6" font-family="Arial" font-weight="bold" font-size="13.00">ready</text>
<text text-anchor="start" x="542.5" y="-141.6" font-family="Arial" font-size="8.00" fill="#64748b">state</text>
<text text-anchor="start" x="543.5" y="-123" font-family="Arial" font-weight="bold" font-size="10.00">text:</text>
<text text-anchor="start" x="563.5" y="-123" font-family="Arial" font-size="10.00">  text_resource.project.activity.ready.heading</text>
<text text-anchor="start" x="542.5" y="-103" font-family="Arial" font-weight="bold" font-size="10.00">query.project.read fields</text>
<text text-anchor="start" x="542.5" y="-92" font-family="Arial" font-size="10.00">updated_at</text>
<text text-anchor="start" x="591.5" y="-92" font-family="Arial" font-size="8.00" fill="#94a3b8">  string:date&#45;time</text>
<text text-anchor="start" x="542.5" y="-81" font-family="Arial" font-size="10.00">status</text>
<text text-anchor="start" x="570.5" y="-81" font-family="Arial" font-size="8.00" fill="#94a3b8">  enum&lt;draft|submitted|approved|archived&gt;</text>
<text text-anchor="start" x="542.5" y="-70" font-family="Arial" font-size="10.00">assignee</text>
<text text-anchor="start" x="582.5" y="-70" font-family="Arial" font-size="8.00" fill="#94a3b8">  string</text>
<text text-anchor="start" x="543.5" y="-50" font-family="Arial" font-weight="bold" font-size="10.00">query_bindings:</text>
<text text-anchor="start" x="619.5" y="-50" font-family="Arial" font-size="10.00">  read_activity: query.project.read</text>
<text text-anchor="start" x="764.5" y="-50" font-family="Arial" font-size="8.00" fill="#94a3b8">  Project</text>
<polygon fill="none" stroke="#71717a" points="537,-40.5 537,-175.5 800,-175.5 800,-40.5 537,-40.5"/>
</g>
<!-- transition_1_ready_empty_local_signal_selection_cleared -->
<g id="node4" class="node">
<title>transition_1_ready_empty_local_signal_selection_cleared</title>
<polygon fill="#ffffff" stroke="transparent" points="861,-22 861,-84 1066,-84 1066,-22 861,-22"/>
<polygon fill="#2563eb" stroke="transparent" points="862.5,-75 862.5,-83 1065.5,-83 1065.5,-75 862.5,-75"/>
<polygon fill="#eff6ff" stroke="transparent" points="862.5,-44 862.5,-75 1065.5,-75 1065.5,-44 862.5,-44"/>
<text text-anchor="start" x="866.5" y="-61.6" font-family="Arial" font-weight="bold" font-size="13.00">local_signal.selection_cleared</text>
<text text-anchor="start" x="866.5" y="-50.6" font-family="Arial" font-size="8.00" fill="#64748b">transition signal</text>
<text text-anchor="start" x="867.5" y="-32" font-family="Arial" font-weight="bold" font-size="10.00">set:</text>
<text text-anchor="start" x="884.5" y="-32" font-family="Arial" font-size="10.00">  project_id</text>
<text text-anchor="start" x="933.5" y="-32" font-family="Arial" font-size="8.00" fill="#94a3b8">  string | null</text>
<text text-anchor="start" x="976.5" y="-32" font-family="Arial" font-size="8.00"> ← null</text>
<polygon fill="none" stroke="#2563eb" points="861,-22 861,-84 1066,-84 1066,-22 861,-22"/>
</g>
<!-- state_ready&#45;&gt;transition_1_ready_empty_local_signal_selection_cleared -->
<g id="edge3" class="edge">
<title>state_ready&#45;&gt;transition_1_ready_empty_local_signal_selection_cleared</title>
<path fill="none" stroke="#3f3f46" d="M800.15,-83.48C817.59,-80.2 835.33,-76.87 852.38,-73.67"/>
<polygon fill="#3f3f46" stroke="#3f3f46" points="853.34,-76.34 860.69,-72.11 852.31,-70.84 853.34,-76.34"/>
</g>
<!-- transition_0_empty_ready_local_signal_selection_changed&#45;&gt;state_ready -->
<g id="edge2" class="edge">
<title>transition_0_empty_ready_local_signal_selection_changed&#45;&gt;state_ready</title>
<path fill="none" stroke="#3f3f46" d="M476.05,-99.62C493.11,-100.37 511,-101.15 528.7,-101.92"/>
<polygon fill="#3f3f46" stroke="#3f3f46" points="528.7,-104.73 536.82,-102.28 528.95,-99.13 528.7,-104.73"/>
</g>
<!-- transition_1_ready_empty_local_signal_selection_cleared&#45;&gt;state_empty -->
<g id="edge4" class="edge">
<title>transition_1_ready_empty_local_signal_selection_cleared&#45;&gt;state_empty</title>
<path fill="none" stroke="#3f3f46" d="M860.94,-34.21C840.82,-31.21 819.79,-28.57 800,-27 591.8,-10.45 347.63,-22.52 210.25,-32.18"/>
<polygon fill="#3f3f46" stroke="#3f3f46" points="209.95,-29.4 202.17,-32.76 210.35,-34.98 209.95,-29.4"/>
</g>
</g>
</svg>
