<svg width="955pt" height="482pt"
 viewBox="0.00 0.00 955.00 482.00" xmlns="http://www.w3.org/2000/svg" xmlns:xlink="http://www.w3.org/1999/xlink">
<!-- pyspec-contract-input-sha256: bbd07147b2b8957b62d097b861d6a08a718551f6d04baf625c169784ad46ebcd -->
<g id="graph0" class="graph" transform="scale(1 1) rotate(0) translate(18 464)">
<title>application_action_application_action_project_read</title>
<!-- application_action_input_application_action_project_read -->
<g id="node1" class="node">
<title>application_action_input_application_action_project_read</title>
<polygon fill="#ffffff" stroke="transparent" points="0,-143 0,-214 78,-214 78,-143 0,-143"/>
<polygon fill="#64748b" stroke="transparent" points="1,-204.5 1,-212.5 77,-212.5 77,-204.5 1,-204.5"/>
<polygon fill="#f8fafc" stroke="transparent" points="1,-173.5 1,-204.5 77,-204.5 77,-173.5 1,-173.5"/>
<text text-anchor="start" x="5" y="-191.1" font-family="Arial" font-weight="bold" font-size="13.00">input</text>
<text text-anchor="start" x="5" y="-180.1" font-family="Arial" font-size="8.00" fill="#64748b">action input</text>
<text text-anchor="start" x="5" y="-162.5" font-family="Arial" font-weight="bold" font-size="10.00">fields</text>
<text text-anchor="start" x="5" y="-151.5" font-family="Arial" font-size="10.00">project_id</text>
<text text-anchor="start" x="48" y="-151.5" font-family="Arial" font-size="8.00" fill="#94a3b8">  string</text>
<polygon fill="none" stroke="#64748b" points="0,-143 0,-214 78,-214 78,-143 0,-143"/>
</g>
<!-- application_action_policy_authorization_policy_project_member -->
<g id="node2" class="node">
<title>application_action_policy_authorization_policy_project_member</title>
<polygon fill="#ffffff" stroke="transparent" points="180,-120.5 180,-236.5 424,-236.5 424,-120.5 180,-120.5"/>
<polygon fill="#c2410c" stroke="transparent" points="181,-227.5 181,-235.5 423,-235.5 423,-227.5 181,-227.5"/>
<polygon fill="#fff7ed" stroke="transparent" points="181,-196.5 181,-227.5 423,-227.5 423,-196.5 181,-196.5"/>
<text text-anchor="start" x="185" y="-214.1" font-family="Arial" font-weight="bold" font-size="13.00">authorization_policy.project.member</text>
<text text-anchor="start" x="185" y="-203.1" font-family="Arial" font-size="8.00" fill="#64748b">authorization gate</text>
<text text-anchor="start" x="185" y="-185.5" font-family="Arial" font-style="italic" font-size="10.00" fill="#3f3f46">Workspace members may create, read, list, and</text>
<text text-anchor="start" x="185" y="-174.5" font-family="Arial" font-style="italic" font-size="10.00" fill="#3f3f46">submit dispatch projects.</text>
<text text-anchor="start" x="186" y="-154.5" font-family="Arial" font-weight="bold" font-size="10.00">effect:</text>
<text text-anchor="start" x="214" y="-154.5" font-family="Arial" font-size="10.00">  allow</text>
<text text-anchor="start" x="186" y="-142.5" font-family="Arial" font-weight="bold" font-size="10.00">subjects:</text>
<text text-anchor="start" x="229" y="-142.5" font-family="Arial" font-size="10.00">  actor</text>
<text text-anchor="start" x="186" y="-130.5" font-family="Arial" font-weight="bold" font-size="10.00">conditions:</text>
<text text-anchor="start" x="239" y="-130.5" font-family="Arial" font-size="10.00">  subject_has_role member</text>
<polygon fill="none" stroke="#c2410c" points="180,-120.5 180,-236.5 424,-236.5 424,-120.5 180,-120.5"/>
</g>
<!-- application_action_input_application_action_project_read&#45;&gt;application_action_policy_authorization_policy_project_member -->
<g id="edge1" class="edge">
<title>application_action_input_application_action_project_read&#45;&gt;application_action_policy_authorization_policy_project_member</title>
<path fill="none" stroke="#3f3f46" stroke-width="1.2" d="M78.23,-178.5C103.27,-178.5 137.58,-178.5 171.78,-178.5"/>
<polygon fill="#3f3f46" stroke="#3f3f46" stroke-width="1.2" points="172,-181.3 180,-178.5 172,-175.7 172,-181.3"/>
<text text-anchor="middle" x="129" y="-181.5" font-family="Arial" font-size="10.00">authorize</text>
</g>
<!-- application_action_resource_application_action_project_read_reads_entity_type_project -->
<g id="node3" class="node">
<title>application_action_resource_application_action_project_read_reads_entity_type_project</title>
<polygon fill="#ffffff" stroke="transparent" points="511,-93.5 511,-263.5 705,-263.5 705,-93.5 511,-93.5"/>
<polygon fill="#15803d" stroke="transparent" points="512,-254.5 512,-262.5 704,-262.5 704,-254.5 512,-254.5"/>
<polygon fill="#f0fdfa" stroke="transparent" points="512,-223.5 512,-254.5 704,-254.5 704,-223.5 512,-223.5"/>
<text text-anchor="start" x="516" y="-241.1" font-family="Arial" font-weight="bold" font-size="13.00">entity_type.project</text>
<text text-anchor="start" x="516" y="-230.1" font-family="Arial" font-size="8.00" fill="#64748b">entity_type resource</text>
<text text-anchor="start" x="516" y="-212.5" font-family="Arial" font-weight="bold" font-size="10.00">fields</text>
<text text-anchor="start" x="516" y="-201.5" font-family="Arial" font-size="10.00">assignee</text>
<text text-anchor="start" x="556" y="-201.5" font-family="Arial" font-size="8.00" fill="#94a3b8">  string</text>
<text text-anchor="start" x="516" y="-190.5" font-family="Arial" font-size="10.00">created_at</text>
<text text-anchor="start" x="562" y="-190.5" font-family="Arial" font-size="8.00" fill="#94a3b8">  string:date&#45;time</text>
<text text-anchor="start" x="516" y="-179.5" font-family="Arial" font-size="10.00">customer</text>
<text text-anchor="start" x="557" y="-179.5" font-family="Arial" font-size="8.00" fill="#94a3b8">  string</text>
<text text-anchor="start" x="516" y="-168.5" font-family="Arial" font-size="10.00">id</text>
<text text-anchor="start" x="524" y="-168.5" font-family="Arial" font-size="8.00" fill="#94a3b8">  string</text>
<text text-anchor="start" x="516" y="-157.5" font-family="Arial" font-size="10.00">priority</text>
<text text-anchor="start" x="546" y="-157.5" font-family="Arial" font-size="8.00" fill="#94a3b8">  string</text>
<text text-anchor="start" x="516" y="-146.5" font-family="Arial" font-size="10.00">status</text>
<text text-anchor="start" x="544" y="-146.5" font-family="Arial" font-size="8.00" fill="#94a3b8">  enum&lt;draft|submitted|approved|archived&gt;</text>
<text text-anchor="start" x="516" y="-135.5" font-family="Arial" font-size="10.00">summary</text>
<text text-anchor="start" x="557" y="-135.5" font-family="Arial" font-size="8.00" fill="#94a3b8">  string</text>
<text text-anchor="start" x="516" y="-124.5" font-family="Arial" font-size="10.00">title</text>
<text text-anchor="start" x="532" y="-124.5" font-family="Arial" font-size="8.00" fill="#94a3b8">  string</text>
<text text-anchor="start" x="516" y="-113.5" font-family="Arial" font-size="10.00">updated_at</text>
<text text-anchor="start" x="565" y="-113.5" font-family="Arial" font-size="8.00" fill="#94a3b8">  string:date&#45;time</text>
<text text-anchor="start" x="516" y="-102.5" font-family="Arial" font-size="10.00">workspace_id</text>
<text text-anchor="start" x="577" y="-102.5" font-family="Arial" font-size="8.00" fill="#94a3b8">  string</text>
<polygon fill="none" stroke="#15803d" points="511,-93.5 511,-263.5 705,-263.5 705,-93.5 511,-93.5"/>
</g>
<!-- application_action_policy_authorization_policy_project_member&#45;&gt;application_action_resource_application_action_project_read_reads_entity_type_project -->
<g id="edge2" class="edge">
<title>application_action_policy_authorization_policy_project_member&#45;&gt;application_action_resource_application_action_project_read_reads_entity_type_project</title>
<path fill="none" stroke="#3f3f46" d="M424.02,-178.5C450.02,-178.5 477.28,-178.5 502.58,-178.5"/>
<polygon fill="#3f3f46" stroke="#3f3f46" points="502.72,-181.3 510.72,-178.5 502.72,-175.7 502.72,-181.3"/>
<text text-anchor="middle" x="467.5" y="-181.5" font-family="Arial" font-size="10.00">reads</text>
</g>
<!-- action_outcome_application_action_project_read_forbidden -->
<g id="node4" class="node">
<title>action_outcome_application_action_project_read_forbidden</title>
<polygon fill="#ffffff" stroke="transparent" points="825,-375 825,-446 898,-446 898,-375 825,-375"/>
<polygon fill="#dc2626" stroke="transparent" points="826.5,-436.5 826.5,-444.5 897.5,-444.5 897.5,-436.5 826.5,-436.5"/>
<polygon fill="#fef2f2" stroke="transparent" points="826.5,-405.5 826.5,-436.5 897.5,-436.5 897.5,-405.5 826.5,-405.5"/>
<text text-anchor="start" x="830.5" y="-423.1" font-family="Arial" font-weight="bold" font-size="13.00">forbidden</text>
<text text-anchor="start" x="830.5" y="-412.1" font-family="Arial" font-size="8.00" fill="#64748b">failure outcome</text>
<text text-anchor="start" x="830.5" y="-394.5" font-family="Arial" font-weight="bold" font-size="10.00">result</text>
<text text-anchor="start" x="830.5" y="-383.5" font-family="Arial" font-size="10.00">result</text>
<text text-anchor="start" x="855.5" y="-383.5" font-family="Arial" font-size="8.00" fill="#94a3b8">  Problem</text>
<polygon fill="none" stroke="#dc2626" points="825,-375 825,-446 898,-446 898,-375 825,-375"/>
</g>
<!-- application_action_policy_authorization_policy_project_member&#45;&gt;action_outcome_application_action_project_read_forbidden -->
<g id="edge3" class="edge">
<title>application_action_policy_authorization_policy_project_member&#45;&gt;action_outcome_application_action_project_read_forbidden</title>
<path fill="none" stroke="#3f3f46" d="M422.2,-236.52C451.08,-250.06 481.99,-264.13 511,-276.5 619.84,-322.93 750.68,-371.11 817.15,-395.05"/>
<polygon fill="#3f3f46" stroke="#3f3f46" points="816.46,-397.78 824.93,-397.85 818.35,-392.51 816.46,-397.78"/>
<text text-anchor="middle" x="608" y="-355.5" font-family="Arial" font-size="10.00">forbidden_as</text>
</g>
<!-- action_outcome_application_action_project_read_unauthenticated -->
<g id="node7" class="node">
<title>action_outcome_application_action_project_read_unauthenticated</title>
<polygon fill="#ffffff" stroke="transparent" points="804,0 804,-71 919,-71 919,0 804,0"/>
<polygon fill="#dc2626" stroke="transparent" points="805.5,-61.5 805.5,-69.5 918.5,-69.5 918.5,-61.5 805.5,-61.5"/>
<polygon fill="#fef2f2" stroke="transparent" points="805.5,-30.5 805.5,-61.5 918.5,-61.5 918.5,-30.5 805.5,-30.5"/>
<text text-anchor="start" x="809.5" y="-48.1" font-family="Arial" font-weight="bold" font-size="13.00">unauthenticated</text>
<text text-anchor="start" x="809.5" y="-37.1" font-family="Arial" font-size="8.00" fill="#64748b">failure outcome</text>
<text text-anchor="start" x="809.5" y="-19.5" font-family="Arial" font-weight="bold" font-size="10.00">result</text>
<text text-anchor="start" x="809.5" y="-8.5" font-family="Arial" font-size="10.00">result</text>
<text text-anchor="start" x="834.5" y="-8.5" font-family="Arial" font-size="8.00" fill="#94a3b8">  Problem</text>
<polygon fill="none" stroke="#dc2626" points="804,0 804,-71 919,-71 919,0 804,0"/>
</g>
<!-- application_action_policy_authorization_policy_project_member&#45;&gt;action_outcome_application_action_project_read_unauthenticated -->
<g id="edge6" class="edge">
<title>application_action_policy_authorization_policy_project_member&#45;&gt;action_outcome_application_action_project_read_unauthenticated</title>
<path fill="none" stroke="#3f3f46" d="M393.88,-120.5C429.14,-100.7 470.69,-80.54 511,-68.5 607.29,-39.73 724.54,-34.33 795.8,-34.13"/>
<polygon fill="#3f3f46" stroke="#3f3f46" points="795.83,-36.93 803.83,-34.13 795.83,-31.33 795.83,-36.93"/>
<text text-anchor="middle" x="608" y="-71.5" font-family="Arial" font-size="10.00">unauthenticated_as</text>
</g>
<!-- action_outcome_application_action_project_read_found -->
<g id="node5" class="node">
<title>action_outcome_application_action_project_read_found</title>
<polygon fill="#ffffff" stroke="transparent" points="826,-250 826,-321 897,-321 897,-250 826,-250"/>
<polygon fill="#16a34a" stroke="transparent" points="827.5,-311.5 827.5,-319.5 896.5,-319.5 896.5,-311.5 827.5,-311.5"/>
<polygon fill="#f0fdf4" stroke="transparent" points="827.5,-280.5 827.5,-311.5 896.5,-311.5 896.5,-280.5 827.5,-280.5"/>
<text text-anchor="start" x="831.5" y="-298.1" font-family="Arial" font-weight="bold" font-size="13.00">found</text>
<text text-anchor="start" x="831.5" y="-287.1" font-family="Arial" font-size="8.00" fill="#64748b">success outcome</text>
<text text-anchor="start" x="831.5" y="-269.5" font-family="Arial" font-weight="bold" font-size="10.00">result</text>
<text text-anchor="start" x="831.5" y="-258.5" font-family="Arial" font-size="10.00">result</text>
<text text-anchor="start" x="856.5" y="-258.5" font-family="Arial" font-size="8.00" fill="#94a3b8">  Project</text>
<polygon fill="none" stroke="#16a34a" points="826,-250 826,-321 897,-321 897,-250 826,-250"/>
</g>
<!-- application_action_resource_application_action_project_read_reads_entity_type_project&#45;&gt;action_outcome_application_action_project_read_found -->
<g id="edge4" class="edge">
<title>application_action_resource_application_action_project_read_reads_entity_type_project&#45;&gt;action_outcome_application_action_project_read_found</title>
<path fill="none" stroke="#3f3f46" d="M705.16,-219.41C744.28,-236.05 787.44,-254.42 818.33,-267.56"/>
<polygon fill="#3f3f46" stroke="#3f3f46" points="817.44,-270.22 825.9,-270.78 819.64,-265.07 817.44,-270.22"/>
<text text-anchor="middle" x="754.5" y="-251.5" font-family="Arial" font-size="10.00">success</text>
</g>
<!-- action_outcome_application_action_project_read_not_found -->
<g id="node6" class="node">
<title>action_outcome_application_action_project_read_not_found</title>
<polygon fill="#ffffff" stroke="transparent" points="823,-125 823,-196 900,-196 900,-125 823,-125"/>
<polygon fill="#dc2626" stroke="transparent" points="824.5,-186.5 824.5,-194.5 899.5,-194.5 899.5,-186.5 824.5,-186.5"/>
<polygon fill="#fef2f2" stroke="transparent" points="824.5,-155.5 824.5,-186.5 899.5,-186.5 899.5,-155.5 824.5,-155.5"/>
<text text-anchor="start" x="828.5" y="-173.1" font-family="Arial" font-weight="bold" font-size="13.00">not_found</text>
<text text-anchor="start" x="828.5" y="-162.1" font-family="Arial" font-size="8.00" fill="#64748b">failure outcome</text>
<text text-anchor="start" x="828.5" y="-144.5" font-family="Arial" font-weight="bold" font-size="10.00">result</text>
<text text-anchor="start" x="828.5" y="-133.5" font-family="Arial" font-size="10.00">result</text>
<text text-anchor="start" x="853.5" y="-133.5" font-family="Arial" font-size="8.00" fill="#94a3b8">  Problem</text>
<polygon fill="none" stroke="#dc2626" points="823,-125 823,-196 900,-196 900,-125 823,-125"/>
</g>
<!-- application_action_resource_application_action_project_read_reads_entity_type_project&#45;&gt;action_outcome_application_action_project_read_not_found -->
<g id="edge5" class="edge">
<title>application_action_resource_application_action_project_read_reads_entity_type_project&#45;&gt;action_outcome_application_action_project_read_not_found</title>
<path fill="none" stroke="#3f3f46" d="M705.16,-171.62C742.68,-168.93 783.92,-165.98 814.48,-163.79"/>
<polygon fill="#3f3f46" stroke="#3f3f46" points="815.02,-166.56 822.8,-163.2 814.62,-160.98 815.02,-166.56"/>
<text text-anchor="middle" x="754.5" y="-172.5" font-family="Arial" font-size="10.00">failure</text>
</g>
<!-- action_outcome_application_action_project_read_forbidden&#45;&gt;action_outcome_application_action_project_read_found -->
<!-- action_outcome_application_action_project_read_found&#45;&gt;action_outcome_application_action_project_read_not_found -->
<!-- action_outcome_application_action_project_read_not_found&#45;&gt;action_outcome_application_action_project_read_unauthenticated -->
</g>
</svg>
