<svg width="1004pt" height="482pt"
 viewBox="0.00 0.00 1004.00 482.00" xmlns="http://www.w3.org/2000/svg" xmlns:xlink="http://www.w3.org/1999/xlink">
<!-- pyspec-contract-input-sha256: 003278bd172e03c936945599d2cc054cb9dc91c66e280db9aabb9b433e330a81 -->
<g id="graph0" class="graph" transform="scale(1 1) rotate(0) translate(18 464)">
<title>application_action_application_action_project_read</title>
<!-- application_action_input_application_action_project_read -->
<g id="node1" class="node">
<title>application_action_input_application_action_project_read</title>
<polygon fill="#ffffff" stroke="transparent" points="0,-253 0,-324 78,-324 78,-253 0,-253"/>
<polygon fill="#64748b" stroke="transparent" points="1,-314.5 1,-322.5 77,-322.5 77,-314.5 1,-314.5"/>
<polygon fill="#f8fafc" stroke="transparent" points="1,-283.5 1,-314.5 77,-314.5 77,-283.5 1,-283.5"/>
<text text-anchor="start" x="5" y="-301.1" font-family="Arial" font-weight="bold" font-size="13.00">input</text>
<text text-anchor="start" x="5" y="-290.1" font-family="Arial" font-size="8.00" fill="#64748b">action input</text>
<text text-anchor="start" x="5" y="-272.5" font-family="Arial" font-weight="bold" font-size="10.00">fields</text>
<text text-anchor="start" x="5" y="-261.5" font-family="Arial" font-size="10.00">project_id</text>
<text text-anchor="start" x="48" y="-261.5" font-family="Arial" font-size="8.00" fill="#94a3b8">  string</text>
<polygon fill="none" stroke="#64748b" points="0,-253 0,-324 78,-324 78,-253 0,-253"/>
</g>
<!-- application_action_policy_authorization_policy_project_member -->
<g id="node2" class="node">
<title>application_action_policy_authorization_policy_project_member</title>
<polygon fill="#ffffff" stroke="transparent" points="180,-230.5 180,-346.5 424,-346.5 424,-230.5 180,-230.5"/>
<polygon fill="#c2410c" stroke="transparent" points="181,-337.5 181,-345.5 423,-345.5 423,-337.5 181,-337.5"/>
<polygon fill="#fff7ed" stroke="transparent" points="181,-306.5 181,-337.5 423,-337.5 423,-306.5 181,-306.5"/>
<text text-anchor="start" x="185" y="-324.1" font-family="Arial" font-weight="bold" font-size="13.00">authorization_policy.project.member</text>
<text text-anchor="start" x="185" y="-313.1" font-family="Arial" font-size="8.00" fill="#64748b">authorization gate</text>
<text text-anchor="start" x="185" y="-295.5" font-family="Arial" font-style="italic" font-size="10.00" fill="#3f3f46">Workspace members may create, read, list, and</text>
<text text-anchor="start" x="185" y="-284.5" font-family="Arial" font-style="italic" font-size="10.00" fill="#3f3f46">submit dispatch projects.</text>
<text text-anchor="start" x="186" y="-264.5" font-family="Arial" font-weight="bold" font-size="10.00">effect:</text>
<text text-anchor="start" x="214" y="-264.5" font-family="Arial" font-size="10.00">  permit</text>
<text text-anchor="start" x="186" y="-252.5" font-family="Arial" font-weight="bold" font-size="10.00">subjects:</text>
<text text-anchor="start" x="229" y="-252.5" font-family="Arial" font-size="10.00">  actor</text>
<text text-anchor="start" x="186" y="-240.5" font-family="Arial" font-weight="bold" font-size="10.00">conditions:</text>
<text text-anchor="start" x="239" y="-240.5" font-family="Arial" font-size="10.00">  subject_has_role member</text>
<polygon fill="none" stroke="#c2410c" points="180,-230.5 180,-346.5 424,-346.5 424,-230.5 180,-230.5"/>
</g>
<!-- application_action_input_application_action_project_read&#45;&gt;application_action_policy_authorization_policy_project_member -->
<g id="edge1" class="edge">
<title>application_action_input_application_action_project_read&#45;&gt;application_action_policy_authorization_policy_project_member</title>
<path fill="none" stroke="#3f3f46" stroke-width="1.2" d="M78.23,-288.5C103.27,-288.5 137.58,-288.5 171.78,-288.5"/>
<polygon fill="#3f3f46" stroke="#3f3f46" stroke-width="1.2" points="172,-291.3 180,-288.5 172,-285.7 172,-291.3"/>
<text text-anchor="middle" x="129" y="-291.5" font-family="Arial" font-size="10.00">authorize</text>
</g>
<!-- application_action_resource_application_action_project_read_reads_entity_type_project -->
<g id="node3" class="node">
<title>application_action_resource_application_action_project_read_reads_entity_type_project</title>
<polygon fill="#ffffff" stroke="transparent" points="511,-64.5 511,-234.5 705,-234.5 705,-64.5 511,-64.5"/>
<polygon fill="#15803d" stroke="transparent" points="512,-225.5 512,-233.5 704,-233.5 704,-225.5 512,-225.5"/>
<polygon fill="#f0fdfa" stroke="transparent" points="512,-194.5 512,-225.5 704,-225.5 704,-194.5 512,-194.5"/>
<text text-anchor="start" x="516" y="-212.1" font-family="Arial" font-weight="bold" font-size="13.00">entity_type.project</text>
<text text-anchor="start" x="516" y="-201.1" font-family="Arial" font-size="8.00" fill="#64748b">entity_type resource</text>
<text text-anchor="start" x="516" y="-183.5" font-family="Arial" font-weight="bold" font-size="10.00">fields</text>
<text text-anchor="start" x="516" y="-172.5" font-family="Arial" font-size="10.00">assignee</text>
<text text-anchor="start" x="556" y="-172.5" font-family="Arial" font-size="8.00" fill="#94a3b8">  string</text>
<text text-anchor="start" x="516" y="-161.5" font-family="Arial" font-size="10.00">created_at</text>
<text text-anchor="start" x="562" y="-161.5" font-family="Arial" font-size="8.00" fill="#94a3b8">  string:date&#45;time</text>
<text text-anchor="start" x="516" y="-150.5" font-family="Arial" font-size="10.00">customer</text>
<text text-anchor="start" x="557" y="-150.5" font-family="Arial" font-size="8.00" fill="#94a3b8">  string</text>
<text text-anchor="start" x="516" y="-139.5" font-family="Arial" font-size="10.00">id</text>
<text text-anchor="start" x="524" y="-139.5" font-family="Arial" font-size="8.00" fill="#94a3b8">  string</text>
<text text-anchor="start" x="516" y="-128.5" font-family="Arial" font-size="10.00">priority</text>
<text text-anchor="start" x="546" y="-128.5" font-family="Arial" font-size="8.00" fill="#94a3b8">  string</text>
<text text-anchor="start" x="516" y="-117.5" font-family="Arial" font-size="10.00">status</text>
<text text-anchor="start" x="544" y="-117.5" font-family="Arial" font-size="8.00" fill="#94a3b8">  enum&lt;draft|submitted|approved|archived&gt;</text>
<text text-anchor="start" x="516" y="-106.5" font-family="Arial" font-size="10.00">summary</text>
<text text-anchor="start" x="557" y="-106.5" font-family="Arial" font-size="8.00" fill="#94a3b8">  string</text>
<text text-anchor="start" x="516" y="-95.5" font-family="Arial" font-size="10.00">title</text>
<text text-anchor="start" x="532" y="-95.5" font-family="Arial" font-size="8.00" fill="#94a3b8">  string</text>
<text text-anchor="start" x="516" y="-84.5" font-family="Arial" font-size="10.00">updated_at</text>
<text text-anchor="start" x="565" y="-84.5" font-family="Arial" font-size="8.00" fill="#94a3b8">  string:date&#45;time</text>
<text text-anchor="start" x="516" y="-73.5" font-family="Arial" font-size="10.00">workspace_id</text>
<text text-anchor="start" x="577" y="-73.5" font-family="Arial" font-size="8.00" fill="#94a3b8">  string</text>
<polygon fill="none" stroke="#15803d" points="511,-64.5 511,-234.5 705,-234.5 705,-64.5 511,-64.5"/>
</g>
<!-- application_action_policy_authorization_policy_project_member&#45;&gt;application_action_resource_application_action_project_read_reads_entity_type_project -->
<g id="edge2" class="edge">
<title>application_action_policy_authorization_policy_project_member&#45;&gt;application_action_resource_application_action_project_read_reads_entity_type_project</title>
<path fill="none" stroke="#3f3f46" d="M424.02,-233.16C450.24,-221.17 477.75,-208.6 503.24,-196.94"/>
<polygon fill="#3f3f46" stroke="#3f3f46" points="504.61,-199.39 510.72,-193.52 502.28,-194.3 504.61,-199.39"/>
<text text-anchor="middle" x="467.5" y="-222.5" font-family="Arial" font-size="10.00">reads</text>
</g>
<!-- action_outcome_application_action_project_read_access_denied -->
<g id="node4" class="node">
<title>action_outcome_application_action_project_read_access_denied</title>
<polygon fill="#ffffff" stroke="transparent" points="832.5,-375 832.5,-446 939.5,-446 939.5,-375 832.5,-375"/>
<polygon fill="#dc2626" stroke="transparent" points="834,-436.5 834,-444.5 939,-444.5 939,-436.5 834,-436.5"/>
<polygon fill="#fef2f2" stroke="transparent" points="834,-405.5 834,-436.5 939,-436.5 939,-405.5 834,-405.5"/>
<text text-anchor="start" x="838" y="-423.1" font-family="Arial" font-weight="bold" font-size="13.00">access_denied</text>
<text text-anchor="start" x="838" y="-412.1" font-family="Arial" font-size="8.00" fill="#64748b">failure outcome</text>
<text text-anchor="start" x="838" y="-394.5" font-family="Arial" font-weight="bold" font-size="10.00">result</text>
<text text-anchor="start" x="838" y="-383.5" font-family="Arial" font-size="10.00">result</text>
<text text-anchor="start" x="863" y="-383.5" font-family="Arial" font-size="8.00" fill="#94a3b8">  Problem</text>
<polygon fill="none" stroke="#dc2626" points="832.5,-375 832.5,-446 939.5,-446 939.5,-375 832.5,-375"/>
</g>
<!-- application_action_policy_authorization_policy_project_member&#45;&gt;action_outcome_application_action_project_read_access_denied -->
<g id="edge3" class="edge">
<title>application_action_policy_authorization_policy_project_member&#45;&gt;action_outcome_application_action_project_read_access_denied</title>
<path fill="none" stroke="#3f3f46" d="M424.3,-313.93C546.5,-339.54 730.06,-378.02 824.35,-397.79"/>
<polygon fill="#3f3f46" stroke="#3f3f46" points="823.96,-400.56 832.36,-399.47 825.11,-395.08 823.96,-400.56"/>
<text text-anchor="middle" x="608" y="-374.5" font-family="Arial" font-size="10.00">access_denied_as</text>
</g>
<!-- action_outcome_application_action_project_read_authentication_required -->
<g id="node5" class="node">
<title>action_outcome_application_action_project_read_authentication_required</title>
<polygon fill="#ffffff" stroke="transparent" points="804,-250 804,-321 968,-321 968,-250 804,-250"/>
<polygon fill="#dc2626" stroke="transparent" points="805,-311.5 805,-319.5 967,-319.5 967,-311.5 805,-311.5"/>
<polygon fill="#fef2f2" stroke="transparent" points="805,-280.5 805,-311.5 967,-311.5 967,-280.5 805,-280.5"/>
<text text-anchor="start" x="809" y="-298.1" font-family="Arial" font-weight="bold" font-size="13.00">authentication_required</text>
<text text-anchor="start" x="809" y="-287.1" font-family="Arial" font-size="8.00" fill="#64748b">failure outcome</text>
<text text-anchor="start" x="809" y="-269.5" font-family="Arial" font-weight="bold" font-size="10.00">result</text>
<text text-anchor="start" x="809" y="-258.5" font-family="Arial" font-size="10.00">result</text>
<text text-anchor="start" x="834" y="-258.5" font-family="Arial" font-size="8.00" fill="#94a3b8">  Problem</text>
<polygon fill="none" stroke="#dc2626" points="804,-250 804,-321 968,-321 968,-250 804,-250"/>
</g>
<!-- application_action_policy_authorization_policy_project_member&#45;&gt;action_outcome_application_action_project_read_authentication_required -->
<g id="edge4" class="edge">
<title>application_action_policy_authorization_policy_project_member&#45;&gt;action_outcome_application_action_project_read_authentication_required</title>
<path fill="none" stroke="#3f3f46" d="M424.3,-287.87C534.95,-287.3 695.93,-286.47 795.37,-285.96"/>
<polygon fill="#3f3f46" stroke="#3f3f46" points="795.62,-288.76 803.61,-285.92 795.59,-283.16 795.62,-288.76"/>
<text text-anchor="middle" x="608" y="-290.5" font-family="Arial" font-size="10.00">authentication_required_as</text>
</g>
<!-- action_outcome_application_action_project_read_found -->
<g id="node6" class="node">
<title>action_outcome_application_action_project_read_found</title>
<polygon fill="#ffffff" stroke="transparent" points="850.5,-125 850.5,-196 921.5,-196 921.5,-125 850.5,-125"/>
<polygon fill="#16a34a" stroke="transparent" points="852,-186.5 852,-194.5 921,-194.5 921,-186.5 852,-186.5"/>
<polygon fill="#f0fdf4" stroke="transparent" points="852,-155.5 852,-186.5 921,-186.5 921,-155.5 852,-155.5"/>
<text text-anchor="start" x="856" y="-173.1" font-family="Arial" font-weight="bold" font-size="13.00">found</text>
<text text-anchor="start" x="856" y="-162.1" font-family="Arial" font-size="8.00" fill="#64748b">success outcome</text>
<text text-anchor="start" x="856" y="-144.5" font-family="Arial" font-weight="bold" font-size="10.00">result</text>
<text text-anchor="start" x="856" y="-133.5" font-family="Arial" font-size="10.00">result</text>
<text text-anchor="start" x="881" y="-133.5" font-family="Arial" font-size="8.00" fill="#94a3b8">  Project</text>
<polygon fill="none" stroke="#16a34a" points="850.5,-125 850.5,-196 921.5,-196 921.5,-125 850.5,-125"/>
</g>
<!-- application_action_resource_application_action_project_read_reads_entity_type_project&#45;&gt;action_outcome_application_action_project_read_found -->
<g id="edge5" class="edge">
<title>application_action_resource_application_action_project_read_reads_entity_type_project&#45;&gt;action_outcome_application_action_project_read_found</title>
<path fill="none" stroke="#3f3f46" d="M705.14,-153.33C751.81,-155.19 805.53,-157.33 842.02,-158.79"/>
<polygon fill="#3f3f46" stroke="#3f3f46" points="842.34,-161.6 850.45,-159.12 842.57,-156.01 842.34,-161.6"/>
<text text-anchor="middle" x="754.5" y="-159.5" font-family="Arial" font-size="10.00">success</text>
</g>
<!-- action_outcome_application_action_project_read_not_found -->
<g id="node7" class="node">
<title>action_outcome_application_action_project_read_not_found</title>
<polygon fill="#ffffff" stroke="transparent" points="847.5,0 847.5,-71 924.5,-71 924.5,0 847.5,0"/>
<polygon fill="#dc2626" stroke="transparent" points="849,-61.5 849,-69.5 924,-69.5 924,-61.5 849,-61.5"/>
<polygon fill="#fef2f2" stroke="transparent" points="849,-30.5 849,-61.5 924,-61.5 924,-30.5 849,-30.5"/>
<text text-anchor="start" x="853" y="-48.1" font-family="Arial" font-weight="bold" font-size="13.00">not_found</text>
<text text-anchor="start" x="853" y="-37.1" font-family="Arial" font-size="8.00" fill="#64748b">failure outcome</text>
<text text-anchor="start" x="853" y="-19.5" font-family="Arial" font-weight="bold" font-size="10.00">result</text>
<text text-anchor="start" x="853" y="-8.5" font-family="Arial" font-size="10.00">result</text>
<text text-anchor="start" x="878" y="-8.5" font-family="Arial" font-size="8.00" fill="#94a3b8">  Problem</text>
<polygon fill="none" stroke="#dc2626" points="847.5,0 847.5,-71 924.5,-71 924.5,0 847.5,0"/>
</g>
<!-- application_action_resource_application_action_project_read_reads_entity_type_project&#45;&gt;action_outcome_application_action_project_read_not_found -->
<g id="edge6" class="edge">
<title>application_action_resource_application_action_project_read_reads_entity_type_project&#45;&gt;action_outcome_application_action_project_read_not_found</title>
<path fill="none" stroke="#3f3f46" d="M705.14,-109.79C750.9,-90.89 803.43,-69.19 839.85,-54.15"/>
<polygon fill="#3f3f46" stroke="#3f3f46" points="841.05,-56.68 847.37,-51.04 838.91,-51.51 841.05,-56.68"/>
<text text-anchor="middle" x="754.5" y="-99.5" font-family="Arial" font-size="10.00">failure</text>
</g>
<!-- action_outcome_application_action_project_read_access_denied&#45;&gt;action_outcome_application_action_project_read_authentication_required -->
<!-- action_outcome_application_action_project_read_authentication_required&#45;&gt;action_outcome_application_action_project_read_found -->
<!-- action_outcome_application_action_project_read_found&#45;&gt;action_outcome_application_action_project_read_not_found -->
</g>
</svg>
