<svg width="918pt" height="232pt"
 viewBox="0.00 0.00 918.00 232.00" xmlns="http://www.w3.org/2000/svg" xmlns:xlink="http://www.w3.org/1999/xlink">
<!-- pyspec-contract-input-sha256: 1d343406816a80ac1c8b3212be1300ed72d192c51b95b53073ea7da919dec5e2 -->
<g id="graph0" class="graph" transform="scale(1 1) rotate(0) translate(18 214)">
<title>operation_operation_project_list</title>
<!-- operation_input_operation_project_list -->
<g id="node1" class="node">
<title>operation_input_operation_project_list</title>
<polygon fill="#ffffff" stroke="transparent" points="0,-62 0,-133 84,-133 84,-62 0,-62"/>
<polygon fill="#64748b" stroke="transparent" points="1,-123.5 1,-131.5 83,-131.5 83,-123.5 1,-123.5"/>
<polygon fill="#f8fafc" stroke="transparent" points="1,-92.5 1,-123.5 83,-123.5 83,-92.5 1,-92.5"/>
<text text-anchor="start" x="5" y="-110.1" font-family="Arial" font-weight="bold" font-size="13.00">input</text>
<text text-anchor="start" x="5" y="-99.1" font-family="Arial" font-size="8.00" fill="#64748b">operation input</text>
<text text-anchor="start" x="5" y="-81.5" font-family="Arial" font-weight="bold" font-size="10.00">fields</text>
<text text-anchor="start" x="5" y="-70.5" font-family="Arial" font-size="10.00">workspace_id</text>
<text text-anchor="start" x="66" y="-70.5" font-family="Arial" font-size="8.00" fill="#94a3b8">  ID</text>
<polygon fill="none" stroke="#64748b" points="0,-62 0,-133 84,-133 84,-62 0,-62"/>
</g>
<!-- operation_policy_authorization_policy_project_list -->
<g id="node2" class="node">
<title>operation_policy_authorization_policy_project_list</title>
<polygon fill="#ffffff" stroke="transparent" points="186,-39.5 186,-155.5 409,-155.5 409,-39.5 186,-39.5"/>
<polygon fill="#c2410c" stroke="transparent" points="187.5,-146.5 187.5,-154.5 408.5,-154.5 408.5,-146.5 187.5,-146.5"/>
<polygon fill="#fff7ed" stroke="transparent" points="187.5,-115.5 187.5,-146.5 408.5,-146.5 408.5,-115.5 187.5,-115.5"/>
<text text-anchor="start" x="191.5" y="-133.1" font-family="Arial" font-weight="bold" font-size="13.00">authorization_policy.project.list</text>
<text text-anchor="start" x="191.5" y="-122.1" font-family="Arial" font-size="8.00" fill="#64748b">authorization gate</text>
<text text-anchor="start" x="191.5" y="-104.5" font-family="Arial" font-style="italic" font-size="10.00" fill="#3f3f46">The board requires a project list query scoped by</text>
<text text-anchor="start" x="191.5" y="-93.5" font-family="Arial" font-style="italic" font-size="10.00" fill="#3f3f46">workspace.</text>
<text text-anchor="start" x="192.5" y="-73.5" font-family="Arial" font-weight="bold" font-size="10.00">effect:</text>
<text text-anchor="start" x="220.5" y="-73.5" font-family="Arial" font-size="10.00">  allow</text>
<text text-anchor="start" x="192.5" y="-61.5" font-family="Arial" font-weight="bold" font-size="10.00">subjects:</text>
<text text-anchor="start" x="235.5" y="-61.5" font-family="Arial" font-size="10.00">  actor</text>
<text text-anchor="start" x="192.5" y="-49.5" font-family="Arial" font-weight="bold" font-size="10.00">conditions:</text>
<text text-anchor="start" x="245.5" y="-49.5" font-family="Arial" font-size="10.00">  unconditional true</text>
<polygon fill="none" stroke="#c2410c" points="186,-39.5 186,-155.5 409,-155.5 409,-39.5 186,-39.5"/>
</g>
<!-- operation_input_operation_project_list&#45;&gt;operation_policy_authorization_policy_project_list -->
<g id="edge1" class="edge">
<title>operation_input_operation_project_list&#45;&gt;operation_policy_authorization_policy_project_list</title>
<path fill="none" stroke="#c2410c" stroke-width="1.2" d="M84.01,-97.5C109.63,-97.5 144.05,-97.5 177.72,-97.5"/>
<polygon fill="#c2410c" stroke="#c2410c" stroke-width="1.2" points="177.8,-100.3 185.8,-97.5 177.8,-94.7 177.8,-100.3"/>
<text text-anchor="middle" x="135" y="-100.5" font-family="Arial" font-size="10.00">authorize</text>
</g>
<!-- operation_resource_operation_project_list_reads_Project -->
<g id="node3" class="node">
<title>operation_resource_operation_project_list_reads_Project</title>
<polygon fill="#ffffff" stroke="transparent" points="496,-12.5 496,-182.5 690,-182.5 690,-12.5 496,-12.5"/>
<polygon fill="#15803d" stroke="transparent" points="497,-173.5 497,-181.5 689,-181.5 689,-173.5 497,-173.5"/>
<polygon fill="#f0fdfa" stroke="transparent" points="497,-142.5 497,-173.5 689,-173.5 689,-142.5 497,-142.5"/>
<text text-anchor="start" x="501" y="-160.1" font-family="Arial" font-weight="bold" font-size="13.00">Project</text>
<text text-anchor="start" x="501" y="-149.1" font-family="Arial" font-size="8.00" fill="#64748b">model resource</text>
<text text-anchor="start" x="501" y="-131.5" font-family="Arial" font-weight="bold" font-size="10.00">fields</text>
<text text-anchor="start" x="501" y="-120.5" font-family="Arial" font-size="10.00">assignee</text>
<text text-anchor="start" x="541" y="-120.5" font-family="Arial" font-size="8.00" fill="#94a3b8">  Text</text>
<text text-anchor="start" x="501" y="-109.5" font-family="Arial" font-size="10.00">created_at</text>
<text text-anchor="start" x="547" y="-109.5" font-family="Arial" font-size="8.00" fill="#94a3b8">  Timestamp</text>
<text text-anchor="start" x="501" y="-98.5" font-family="Arial" font-size="10.00">customer</text>
<text text-anchor="start" x="542" y="-98.5" font-family="Arial" font-size="8.00" fill="#94a3b8">  Text</text>
<text text-anchor="start" x="501" y="-87.5" font-family="Arial" font-size="10.00">id</text>
<text text-anchor="start" x="509" y="-87.5" font-family="Arial" font-size="8.00" fill="#94a3b8">  ID</text>
<text text-anchor="start" x="501" y="-76.5" font-family="Arial" font-size="10.00">priority</text>
<text text-anchor="start" x="531" y="-76.5" font-family="Arial" font-size="8.00" fill="#94a3b8">  Text</text>
<text text-anchor="start" x="501" y="-65.5" font-family="Arial" font-size="10.00">status</text>
<text text-anchor="start" x="529" y="-65.5" font-family="Arial" font-size="8.00" fill="#94a3b8">  enum&lt;draft|submitted|approved|archived&gt;</text>
<text text-anchor="start" x="501" y="-54.5" font-family="Arial" font-size="10.00">summary</text>
<text text-anchor="start" x="542" y="-54.5" font-family="Arial" font-size="8.00" fill="#94a3b8">  Text</text>
<text text-anchor="start" x="501" y="-43.5" font-family="Arial" font-size="10.00">title</text>
<text text-anchor="start" x="517" y="-43.5" font-family="Arial" font-size="8.00" fill="#94a3b8">  Text</text>
<text text-anchor="start" x="501" y="-32.5" font-family="Arial" font-size="10.00">updated_at</text>
<text text-anchor="start" x="550" y="-32.5" font-family="Arial" font-size="8.00" fill="#94a3b8">  Timestamp</text>
<text text-anchor="start" x="501" y="-21.5" font-family="Arial" font-size="10.00">workspace_id</text>
<text text-anchor="start" x="562" y="-21.5" font-family="Arial" font-size="8.00" fill="#94a3b8">  ID</text>
<polygon fill="none" stroke="#15803d" points="496,-12.5 496,-182.5 690,-182.5 690,-12.5 496,-12.5"/>
</g>
<!-- operation_policy_authorization_policy_project_list&#45;&gt;operation_resource_operation_project_list_reads_Project -->
<g id="edge2" class="edge">
<title>operation_policy_authorization_policy_project_list&#45;&gt;operation_resource_operation_project_list_reads_Project</title>
<path fill="none" stroke="#15803d" d="M409.04,-97.5C434.85,-97.5 462.25,-97.5 487.77,-97.5"/>
<polygon fill="#15803d" stroke="#15803d" points="487.99,-100.3 495.99,-97.5 487.99,-94.7 487.99,-100.3"/>
<text text-anchor="middle" x="452.5" y="-100.5" font-family="Arial" font-size="10.00">reads</text>
</g>
<!-- operation_outcome_operation_project_list_listed -->
<g id="node4" class="node">
<title>operation_outcome_operation_project_list_listed</title>
<polygon fill="#ffffff" stroke="transparent" points="789,-125 789,-196 882,-196 882,-125 789,-125"/>
<polygon fill="#16a34a" stroke="transparent" points="790.5,-186.5 790.5,-194.5 881.5,-194.5 881.5,-186.5 790.5,-186.5"/>
<polygon fill="#f0fdf4" stroke="transparent" points="790.5,-155.5 790.5,-186.5 881.5,-186.5 881.5,-155.5 790.5,-155.5"/>
<text text-anchor="start" x="794.5" y="-173.1" font-family="Arial" font-weight="bold" font-size="13.00">listed</text>
<text text-anchor="start" x="794.5" y="-162.1" font-family="Arial" font-size="8.00" fill="#64748b">success outcome</text>
<text text-anchor="start" x="794.5" y="-144.5" font-family="Arial" font-weight="bold" font-size="10.00">result</text>
<text text-anchor="start" x="794.5" y="-133.5" font-family="Arial" font-size="10.00">result</text>
<text text-anchor="start" x="819.5" y="-133.5" font-family="Arial" font-size="8.00" fill="#94a3b8">  array&lt;Project&gt;</text>
<polygon fill="none" stroke="#16a34a" points="789,-125 789,-196 882,-196 882,-125 789,-125"/>
</g>
<!-- operation_resource_operation_project_list_reads_Project&#45;&gt;operation_outcome_operation_project_list_listed -->
<g id="edge3" class="edge">
<title>operation_resource_operation_project_list_reads_Project&#45;&gt;operation_outcome_operation_project_list_listed</title>
<path fill="none" stroke="#16a34a" d="M690.09,-122.67C720.92,-130.75 753.96,-139.4 780.64,-146.39"/>
<polygon fill="#16a34a" stroke="#16a34a" points="780.26,-149.19 788.71,-148.5 781.68,-143.77 780.26,-149.19"/>
<text text-anchor="middle" x="739.5" y="-142.5" font-family="Arial" font-size="10.00">success</text>
</g>
<!-- operation_outcome_operation_project_list_unavailable -->
<g id="node5" class="node">
<title>operation_outcome_operation_project_list_unavailable</title>
<polygon fill="#ffffff" stroke="transparent" points="793.5,0 793.5,-71 877.5,-71 877.5,0 793.5,0"/>
<polygon fill="#dc2626" stroke="transparent" points="794.5,-61.5 794.5,-69.5 876.5,-69.5 876.5,-61.5 794.5,-61.5"/>
<polygon fill="#fef2f2" stroke="transparent" points="794.5,-30.5 794.5,-61.5 876.5,-61.5 876.5,-30.5 794.5,-30.5"/>
<text text-anchor="start" x="798.5" y="-48.1" font-family="Arial" font-weight="bold" font-size="13.00">unavailable</text>
<text text-anchor="start" x="798.5" y="-37.1" font-family="Arial" font-size="8.00" fill="#64748b">failure outcome</text>
<text text-anchor="start" x="798.5" y="-19.5" font-family="Arial" font-weight="bold" font-size="10.00">result</text>
<text text-anchor="start" x="798.5" y="-8.5" font-family="Arial" font-size="10.00">result</text>
<text text-anchor="start" x="823.5" y="-8.5" font-family="Arial" font-size="8.00" fill="#94a3b8">  Problem</text>
<polygon fill="none" stroke="#dc2626" points="793.5,0 793.5,-71 877.5,-71 877.5,0 793.5,0"/>
</g>
<!-- operation_resource_operation_project_list_reads_Project&#45;&gt;operation_outcome_operation_project_list_unavailable -->
<g id="edge4" class="edge">
<title>operation_resource_operation_project_list_reads_Project&#45;&gt;operation_outcome_operation_project_list_unavailable</title>
<path fill="none" stroke="#dc2626" d="M690.09,-72.73C722.84,-64.29 758.08,-55.2 785.55,-48.12"/>
<polygon fill="#dc2626" stroke="#dc2626" points="786.4,-50.79 793.45,-46.08 785,-45.37 786.4,-50.79"/>
<text text-anchor="middle" x="739.5" y="-68.5" font-family="Arial" font-size="10.00">failure</text>
</g>
<!-- operation_outcome_operation_project_list_listed&#45;&gt;operation_outcome_operation_project_list_unavailable -->
</g>
</svg>
