<svg width="961pt" height="482pt"
 viewBox="0.00 0.00 961.00 482.00" xmlns="http://www.w3.org/2000/svg" xmlns:xlink="http://www.w3.org/1999/xlink">
<!-- pyspec-contract-input-sha256: 1bfc7b63acdbb93b9cc19c37178e95432ccd53ad6cd1fe31d8f13412c9945020 -->
<g id="graph0" class="graph" transform="scale(1 1) rotate(0) translate(18 464)">
<title>operation_operation_project_list</title>
<!-- operation_input_operation_project_list -->
<g id="node1" class="node">
<title>operation_input_operation_project_list</title>
<polygon fill="#ffffff" stroke="transparent" points="0,-239 0,-310 84,-310 84,-239 0,-239"/>
<polygon fill="#64748b" stroke="transparent" points="1,-300.5 1,-308.5 83,-308.5 83,-300.5 1,-300.5"/>
<polygon fill="#f8fafc" stroke="transparent" points="1,-269.5 1,-300.5 83,-300.5 83,-269.5 1,-269.5"/>
<text text-anchor="start" x="5" y="-287.1" font-family="Arial" font-weight="bold" font-size="13.00">input</text>
<text text-anchor="start" x="5" y="-276.1" font-family="Arial" font-size="8.00" fill="#64748b">operation input</text>
<text text-anchor="start" x="5" y="-258.5" font-family="Arial" font-weight="bold" font-size="10.00">fields</text>
<text text-anchor="start" x="5" y="-247.5" font-family="Arial" font-size="10.00">workspace_id</text>
<text text-anchor="start" x="66" y="-247.5" font-family="Arial" font-size="8.00" fill="#94a3b8">  ID</text>
<polygon fill="none" stroke="#64748b" points="0,-239 0,-310 84,-310 84,-239 0,-239"/>
</g>
<!-- operation_policy_authorization_policy_project_member -->
<g id="node2" class="node">
<title>operation_policy_authorization_policy_project_member</title>
<polygon fill="#ffffff" stroke="transparent" points="186,-216.5 186,-332.5 430,-332.5 430,-216.5 186,-216.5"/>
<polygon fill="#c2410c" stroke="transparent" points="187,-323.5 187,-331.5 429,-331.5 429,-323.5 187,-323.5"/>
<polygon fill="#fff7ed" stroke="transparent" points="187,-292.5 187,-323.5 429,-323.5 429,-292.5 187,-292.5"/>
<text text-anchor="start" x="191" y="-310.1" font-family="Arial" font-weight="bold" font-size="13.00">authorization_policy.project.member</text>
<text text-anchor="start" x="191" y="-299.1" font-family="Arial" font-size="8.00" fill="#64748b">authorization gate</text>
<text text-anchor="start" x="191" y="-281.5" font-family="Arial" font-style="italic" font-size="10.00" fill="#3f3f46">Workspace members may create, read, list, and</text>
<text text-anchor="start" x="191" y="-270.5" font-family="Arial" font-style="italic" font-size="10.00" fill="#3f3f46">submit dispatch projects.</text>
<text text-anchor="start" x="192" y="-250.5" font-family="Arial" font-weight="bold" font-size="10.00">effect:</text>
<text text-anchor="start" x="220" y="-250.5" font-family="Arial" font-size="10.00">  allow</text>
<text text-anchor="start" x="192" y="-238.5" font-family="Arial" font-weight="bold" font-size="10.00">subjects:</text>
<text text-anchor="start" x="235" y="-238.5" font-family="Arial" font-size="10.00">  actor</text>
<text text-anchor="start" x="192" y="-226.5" font-family="Arial" font-weight="bold" font-size="10.00">conditions:</text>
<text text-anchor="start" x="245" y="-226.5" font-family="Arial" font-size="10.00">  subject_has_role member</text>
<polygon fill="none" stroke="#c2410c" points="186,-216.5 186,-332.5 430,-332.5 430,-216.5 186,-216.5"/>
</g>
<!-- operation_input_operation_project_list&#45;&gt;operation_policy_authorization_policy_project_member -->
<g id="edge1" class="edge">
<title>operation_input_operation_project_list&#45;&gt;operation_policy_authorization_policy_project_member</title>
<path fill="none" stroke="#3f3f46" stroke-width="1.2" d="M84.25,-274.5C109.69,-274.5 143.85,-274.5 177.77,-274.5"/>
<polygon fill="#3f3f46" stroke="#3f3f46" stroke-width="1.2" points="177.91,-277.3 185.91,-274.5 177.91,-271.7 177.91,-277.3"/>
<text text-anchor="middle" x="135" y="-277.5" font-family="Arial" font-size="10.00">authorize</text>
</g>
<!-- operation_resource_operation_project_list_reads_Project -->
<g id="node3" class="node">
<title>operation_resource_operation_project_list_reads_Project</title>
<polygon fill="#ffffff" stroke="transparent" points="517,-189.5 517,-359.5 711,-359.5 711,-189.5 517,-189.5"/>
<polygon fill="#15803d" stroke="transparent" points="518,-350.5 518,-358.5 710,-358.5 710,-350.5 518,-350.5"/>
<polygon fill="#f0fdfa" stroke="transparent" points="518,-319.5 518,-350.5 710,-350.5 710,-319.5 518,-319.5"/>
<text text-anchor="start" x="522" y="-337.1" font-family="Arial" font-weight="bold" font-size="13.00">Project</text>
<text text-anchor="start" x="522" y="-326.1" font-family="Arial" font-size="8.00" fill="#64748b">model resource</text>
<text text-anchor="start" x="522" y="-308.5" font-family="Arial" font-weight="bold" font-size="10.00">fields</text>
<text text-anchor="start" x="522" y="-297.5" font-family="Arial" font-size="10.00">assignee</text>
<text text-anchor="start" x="562" y="-297.5" font-family="Arial" font-size="8.00" fill="#94a3b8">  Text</text>
<text text-anchor="start" x="522" y="-286.5" font-family="Arial" font-size="10.00">created_at</text>
<text text-anchor="start" x="568" y="-286.5" font-family="Arial" font-size="8.00" fill="#94a3b8">  Timestamp</text>
<text text-anchor="start" x="522" y="-275.5" font-family="Arial" font-size="10.00">customer</text>
<text text-anchor="start" x="563" y="-275.5" font-family="Arial" font-size="8.00" fill="#94a3b8">  Text</text>
<text text-anchor="start" x="522" y="-264.5" font-family="Arial" font-size="10.00">id</text>
<text text-anchor="start" x="530" y="-264.5" font-family="Arial" font-size="8.00" fill="#94a3b8">  ID</text>
<text text-anchor="start" x="522" y="-253.5" font-family="Arial" font-size="10.00">priority</text>
<text text-anchor="start" x="552" y="-253.5" font-family="Arial" font-size="8.00" fill="#94a3b8">  Text</text>
<text text-anchor="start" x="522" y="-242.5" font-family="Arial" font-size="10.00">status</text>
<text text-anchor="start" x="550" y="-242.5" font-family="Arial" font-size="8.00" fill="#94a3b8">  enum&lt;draft|submitted|approved|archived&gt;</text>
<text text-anchor="start" x="522" y="-231.5" font-family="Arial" font-size="10.00">summary</text>
<text text-anchor="start" x="563" y="-231.5" font-family="Arial" font-size="8.00" fill="#94a3b8">  Text</text>
<text text-anchor="start" x="522" y="-220.5" font-family="Arial" font-size="10.00">title</text>
<text text-anchor="start" x="538" y="-220.5" font-family="Arial" font-size="8.00" fill="#94a3b8">  Text</text>
<text text-anchor="start" x="522" y="-209.5" font-family="Arial" font-size="10.00">updated_at</text>
<text text-anchor="start" x="571" y="-209.5" font-family="Arial" font-size="8.00" fill="#94a3b8">  Timestamp</text>
<text text-anchor="start" x="522" y="-198.5" font-family="Arial" font-size="10.00">workspace_id</text>
<text text-anchor="start" x="583" y="-198.5" font-family="Arial" font-size="8.00" fill="#94a3b8">  ID</text>
<polygon fill="none" stroke="#15803d" points="517,-189.5 517,-359.5 711,-359.5 711,-189.5 517,-189.5"/>
</g>
<!-- operation_policy_authorization_policy_project_member&#45;&gt;operation_resource_operation_project_list_reads_Project -->
<g id="edge2" class="edge">
<title>operation_policy_authorization_policy_project_member&#45;&gt;operation_resource_operation_project_list_reads_Project</title>
<path fill="none" stroke="#3f3f46" d="M430.02,-274.5C456.02,-274.5 483.28,-274.5 508.58,-274.5"/>
<polygon fill="#3f3f46" stroke="#3f3f46" points="508.72,-277.3 516.72,-274.5 508.72,-271.7 508.72,-277.3"/>
<text text-anchor="middle" x="473.5" y="-277.5" font-family="Arial" font-size="10.00">reads</text>
</g>
<!-- operation_outcome_operation_project_list_forbidden -->
<g id="node4" class="node">
<title>operation_outcome_operation_project_list_forbidden</title>
<polygon fill="#ffffff" stroke="transparent" points="831,-375 831,-446 904,-446 904,-375 831,-375"/>
<polygon fill="#dc2626" stroke="transparent" points="832.5,-436.5 832.5,-444.5 903.5,-444.5 903.5,-436.5 832.5,-436.5"/>
<polygon fill="#fef2f2" stroke="transparent" points="832.5,-405.5 832.5,-436.5 903.5,-436.5 903.5,-405.5 832.5,-405.5"/>
<text text-anchor="start" x="836.5" y="-423.1" font-family="Arial" font-weight="bold" font-size="13.00">forbidden</text>
<text text-anchor="start" x="836.5" y="-412.1" font-family="Arial" font-size="8.00" fill="#64748b">failure outcome</text>
<text text-anchor="start" x="836.5" y="-394.5" font-family="Arial" font-weight="bold" font-size="10.00">result</text>
<text text-anchor="start" x="836.5" y="-383.5" font-family="Arial" font-size="10.00">result</text>
<text text-anchor="start" x="861.5" y="-383.5" font-family="Arial" font-size="8.00" fill="#94a3b8">  Problem</text>
<polygon fill="none" stroke="#dc2626" points="831,-375 831,-446 904,-446 904,-375 831,-375"/>
</g>
<!-- operation_policy_authorization_policy_project_member&#45;&gt;operation_outcome_operation_project_list_forbidden -->
<g id="edge3" class="edge">
<title>operation_policy_authorization_policy_project_member&#45;&gt;operation_outcome_operation_project_list_forbidden</title>
<path fill="none" stroke="#3f3f46" d="M414.6,-332.53C446.64,-347.85 482.51,-362.8 517,-372.5 623.91,-402.58 755.42,-409.1 822.54,-410.35"/>
<polygon fill="#3f3f46" stroke="#3f3f46" points="822.75,-413.16 830.79,-410.49 822.84,-407.56 822.75,-413.16"/>
<text text-anchor="middle" x="614" y="-408.5" font-family="Arial" font-size="10.00">forbidden_as</text>
</g>
<!-- operation_outcome_operation_project_list_unauthenticated -->
<g id="node6" class="node">
<title>operation_outcome_operation_project_list_unauthenticated</title>
<polygon fill="#ffffff" stroke="transparent" points="810,-125 810,-196 925,-196 925,-125 810,-125"/>
<polygon fill="#dc2626" stroke="transparent" points="811.5,-186.5 811.5,-194.5 924.5,-194.5 924.5,-186.5 811.5,-186.5"/>
<polygon fill="#fef2f2" stroke="transparent" points="811.5,-155.5 811.5,-186.5 924.5,-186.5 924.5,-155.5 811.5,-155.5"/>
<text text-anchor="start" x="815.5" y="-173.1" font-family="Arial" font-weight="bold" font-size="13.00">unauthenticated</text>
<text text-anchor="start" x="815.5" y="-162.1" font-family="Arial" font-size="8.00" fill="#64748b">failure outcome</text>
<text text-anchor="start" x="815.5" y="-144.5" font-family="Arial" font-weight="bold" font-size="10.00">result</text>
<text text-anchor="start" x="815.5" y="-133.5" font-family="Arial" font-size="10.00">result</text>
<text text-anchor="start" x="840.5" y="-133.5" font-family="Arial" font-size="8.00" fill="#94a3b8">  Problem</text>
<polygon fill="none" stroke="#dc2626" points="810,-125 810,-196 925,-196 925,-125 810,-125"/>
</g>
<!-- operation_policy_authorization_policy_project_member&#45;&gt;operation_outcome_operation_project_list_unauthenticated -->
<g id="edge5" class="edge">
<title>operation_policy_authorization_policy_project_member&#45;&gt;operation_outcome_operation_project_list_unauthenticated</title>
<path fill="none" stroke="#3f3f46" d="M396.32,-216.45C432.16,-195.86 475.03,-175.17 517,-164.5 613.83,-139.88 730.69,-145.28 801.75,-152.26"/>
<polygon fill="#3f3f46" stroke="#3f3f46" points="801.51,-155.05 809.76,-153.07 802.08,-149.48 801.51,-155.05"/>
<text text-anchor="middle" x="614" y="-167.5" font-family="Arial" font-size="10.00">unauthenticated_as</text>
</g>
<!-- operation_outcome_operation_project_list_listed -->
<g id="node5" class="node">
<title>operation_outcome_operation_project_list_listed</title>
<polygon fill="#ffffff" stroke="transparent" points="821,-250 821,-321 914,-321 914,-250 821,-250"/>
<polygon fill="#16a34a" stroke="transparent" points="822.5,-311.5 822.5,-319.5 913.5,-319.5 913.5,-311.5 822.5,-311.5"/>
<polygon fill="#f0fdf4" stroke="transparent" points="822.5,-280.5 822.5,-311.5 913.5,-311.5 913.5,-280.5 822.5,-280.5"/>
<text text-anchor="start" x="826.5" y="-298.1" font-family="Arial" font-weight="bold" font-size="13.00">listed</text>
<text text-anchor="start" x="826.5" y="-287.1" font-family="Arial" font-size="8.00" fill="#64748b">success outcome</text>
<text text-anchor="start" x="826.5" y="-269.5" font-family="Arial" font-weight="bold" font-size="10.00">result</text>
<text text-anchor="start" x="826.5" y="-258.5" font-family="Arial" font-size="10.00">result</text>
<text text-anchor="start" x="851.5" y="-258.5" font-family="Arial" font-size="8.00" fill="#94a3b8">  array&lt;Project&gt;</text>
<polygon fill="none" stroke="#16a34a" points="821,-250 821,-321 914,-321 914,-250 821,-250"/>
</g>
<!-- operation_resource_operation_project_list_reads_Project&#45;&gt;operation_outcome_operation_project_list_listed -->
<g id="edge4" class="edge">
<title>operation_resource_operation_project_list_reads_Project&#45;&gt;operation_outcome_operation_project_list_listed</title>
<path fill="none" stroke="#3f3f46" d="M711.16,-278.71C745.63,-280.21 783.26,-281.86 812.84,-283.15"/>
<polygon fill="#3f3f46" stroke="#3f3f46" points="812.85,-285.96 820.96,-283.51 813.09,-280.36 812.85,-285.96"/>
<text text-anchor="middle" x="760.5" y="-285.5" font-family="Arial" font-size="10.00">success</text>
</g>
<!-- operation_outcome_operation_project_list_unavailable -->
<g id="node7" class="node">
<title>operation_outcome_operation_project_list_unavailable</title>
<polygon fill="#ffffff" stroke="transparent" points="825.5,0 825.5,-71 909.5,-71 909.5,0 825.5,0"/>
<polygon fill="#dc2626" stroke="transparent" points="826.5,-61.5 826.5,-69.5 908.5,-69.5 908.5,-61.5 826.5,-61.5"/>
<polygon fill="#fef2f2" stroke="transparent" points="826.5,-30.5 826.5,-61.5 908.5,-61.5 908.5,-30.5 826.5,-30.5"/>
<text text-anchor="start" x="830.5" y="-48.1" font-family="Arial" font-weight="bold" font-size="13.00">unavailable</text>
<text text-anchor="start" x="830.5" y="-37.1" font-family="Arial" font-size="8.00" fill="#64748b">failure outcome</text>
<text text-anchor="start" x="830.5" y="-19.5" font-family="Arial" font-weight="bold" font-size="10.00">result</text>
<text text-anchor="start" x="830.5" y="-8.5" font-family="Arial" font-size="10.00">result</text>
<text text-anchor="start" x="855.5" y="-8.5" font-family="Arial" font-size="8.00" fill="#94a3b8">  Problem</text>
<polygon fill="none" stroke="#dc2626" points="825.5,0 825.5,-71 909.5,-71 909.5,0 825.5,0"/>
</g>
<!-- operation_resource_operation_project_list_reads_Project&#45;&gt;operation_outcome_operation_project_list_unavailable -->
<g id="edge6" class="edge">
<title>operation_resource_operation_project_list_reads_Project&#45;&gt;operation_outcome_operation_project_list_unavailable</title>
<path fill="none" stroke="#3f3f46" d="M704.73,-189.23C744.97,-150.99 790.58,-107.64 823.09,-76.75"/>
<polygon fill="#3f3f46" stroke="#3f3f46" points="825.14,-78.67 829.01,-71.13 821.28,-74.61 825.14,-78.67"/>
<text text-anchor="middle" x="760.5" y="-151.5" font-family="Arial" font-size="10.00">failure</text>
</g>
<!-- operation_outcome_operation_project_list_forbidden&#45;&gt;operation_outcome_operation_project_list_listed -->
<!-- operation_outcome_operation_project_list_listed&#45;&gt;operation_outcome_operation_project_list_unauthenticated -->
<!-- operation_outcome_operation_project_list_unauthenticated&#45;&gt;operation_outcome_operation_project_list_unavailable -->
</g>
</svg>
