<svg width="857pt" height="723pt"
 viewBox="0.00 0.00 857.00 723.00" xmlns="http://www.w3.org/2000/svg" xmlns:xlink="http://www.w3.org/1999/xlink">
<!-- pyspec-contract-input-sha256: 0f4c74c7c7cce154fe2eb6237fa40ae5ad4ed93c47f1412758cb2c824a6abaf6 -->
<g id="graph0" class="graph" transform="scale(1 1) rotate(0) translate(18 705)">
<title>external_interface_external_interface_api_project_approve</title>
<!-- external_interface_external_interface_api_project_approve -->
<g id="node1" class="node">
<title>external_interface_external_interface_api_project_approve</title>
<polygon fill="#ffffff" stroke="transparent" points="0,-240.5 0,-445.5 242,-445.5 242,-240.5 0,-240.5"/>
<polygon fill="#0891b2" stroke="transparent" points="1,-436 1,-444 241,-444 241,-436 1,-436"/>
<polygon fill="#ecfeff" stroke="transparent" points="1,-405 1,-436 241,-436 241,-405 1,-405"/>
<text text-anchor="start" x="5" y="-422.6" font-family="Arial" font-weight="bold" font-size="13.00">POST /projects/{project_id}/approve</text>
<text text-anchor="start" x="5" y="-411.6" font-family="Arial" font-size="8.00" fill="#64748b">http_api external interface</text>
<text text-anchor="start" x="5" y="-394" font-family="Arial" font-style="italic" font-size="10.00" fill="#3f3f46">HTTP operation for approving submitted dispatch</text>
<text text-anchor="start" x="5" y="-383" font-family="Arial" font-style="italic" font-size="10.00" fill="#3f3f46">projects.</text>
<text text-anchor="start" x="6" y="-363" font-family="Arial" font-weight="bold" font-size="10.00">http operation:</text>
<text text-anchor="start" x="75" y="-363" font-family="Arial" font-size="10.00">  http_operation.project.approve</text>
<text text-anchor="start" x="6" y="-351" font-family="Arial" font-weight="bold" font-size="10.00">access_policy:</text>
<text text-anchor="start" x="75" y="-351" font-family="Arial" font-size="10.00">  access_policy.project.reviewer</text>
<text text-anchor="start" x="5" y="-331" font-family="Arial" font-weight="bold" font-size="10.00">path params</text>
<text text-anchor="start" x="5" y="-320" font-family="Arial" font-size="10.00">project_id</text>
<text text-anchor="start" x="48" y="-320" font-family="Arial" font-size="8.00" fill="#94a3b8">  string</text>
<text text-anchor="start" x="5" y="-301" font-family="Arial" font-weight="bold" font-size="10.00">body</text>
<text text-anchor="start" x="5" y="-290" font-family="Arial" font-size="10.00">approved_by</text>
<text text-anchor="start" x="61" y="-290" font-family="Arial" font-size="8.00" fill="#94a3b8">  string</text>
<text text-anchor="start" x="5" y="-271" font-family="Arial" font-weight="bold" font-size="10.00">input mapping</text>
<text text-anchor="start" x="5" y="-259" font-family="Arial" font-size="10.00">approved_by ← adapter_input.body.approved_by</text>
<text text-anchor="start" x="5" y="-248" font-family="Arial" font-size="10.00">project_id ← adapter_input.path_params.project_id</text>
<polygon fill="none" stroke="#0891b2" points="0,-240.5 0,-445.5 242,-445.5 242,-240.5 0,-240.5"/>
</g>
<!-- external_interface_invocation_command_project_approve -->
<g id="node2" class="node">
<title>external_interface_invocation_command_project_approve</title>
<polygon fill="#ffffff" stroke="transparent" points="303,-276.5 303,-409.5 542,-409.5 542,-276.5 303,-276.5"/>
<polygon fill="#2563eb" stroke="transparent" points="304.5,-400 304.5,-408 541.5,-408 541.5,-400 304.5,-400"/>
<polygon fill="#eff6ff" stroke="transparent" points="304.5,-369 304.5,-400 541.5,-400 541.5,-369 304.5,-369"/>
<text text-anchor="start" x="308.5" y="-386.6" font-family="Arial" font-weight="bold" font-size="13.00">command.project.approve</text>
<text text-anchor="start" x="308.5" y="-375.6" font-family="Arial" font-size="8.00" fill="#64748b">invoked command</text>
<text text-anchor="start" x="308.5" y="-358" font-family="Arial" font-style="italic" font-size="10.00" fill="#3f3f46">Reviewers can approve submitted dispatch projects.</text>
<text text-anchor="start" x="309.5" y="-338" font-family="Arial" font-weight="bold" font-size="10.00">kind:</text>
<text text-anchor="start" x="333.5" y="-338" font-family="Arial" font-size="10.00">  entity_lifecycle_transition</text>
<text text-anchor="start" x="308.5" y="-318" font-family="Arial" font-weight="bold" font-size="10.00">authorization</text>
<text text-anchor="start" x="308.5" y="-306" font-family="Arial" font-size="10.00">policy: access_policy.project.reviewer</text>
<text text-anchor="start" x="308.5" y="-295" font-family="Arial" font-size="10.00">authentication_required_as: authentication_required</text>
<text text-anchor="start" x="308.5" y="-284" font-family="Arial" font-size="10.00">access_denied_as: access_denied</text>
<polygon fill="none" stroke="#2563eb" points="303,-276.5 303,-409.5 542,-409.5 542,-276.5 303,-276.5"/>
</g>
<!-- external_interface_external_interface_api_project_approve&#45;&gt;external_interface_invocation_command_project_approve -->
<g id="edge1" class="edge">
<title>external_interface_external_interface_api_project_approve&#45;&gt;external_interface_invocation_command_project_approve</title>
<path fill="none" stroke="#3f3f46" d="M242.09,-343C259.29,-343 277.04,-343 294.37,-343"/>
<polygon fill="#3f3f46" stroke="#3f3f46" points="294.84,-345.8 302.84,-343 294.84,-340.2 294.84,-345.8"/>
</g>
<!-- external_interface_response_external_interface_api_project_approve_access_denied -->
<g id="node3" class="node">
<title>external_interface_response_external_interface_api_project_approve_access_denied</title>
<polygon fill="#ffffff" stroke="transparent" points="623.5,-595 623.5,-687 800.5,-687 800.5,-595 623.5,-595"/>
<polygon fill="#dc2626" stroke="transparent" points="625,-678 625,-686 800,-686 800,-678 625,-678"/>
<polygon fill="#fef2f2" stroke="transparent" points="625,-647 625,-678 800,-678 800,-647 625,-647"/>
<text text-anchor="start" x="629" y="-664.6" font-family="Arial" font-weight="bold" font-size="13.00">access_denied</text>
<text text-anchor="start" x="629" y="-653.6" font-family="Arial" font-size="8.00" fill="#64748b">failure response</text>
<text text-anchor="start" x="630" y="-635" font-family="Arial" font-weight="bold" font-size="10.00">status:</text>
<text text-anchor="start" x="661" y="-635" font-family="Arial" font-size="10.00">  403</text>
<text text-anchor="start" x="629" y="-615" font-family="Arial" font-weight="bold" font-size="10.00">body schema</text>
<text text-anchor="start" x="629" y="-604" font-family="Arial" font-size="10.00">body</text>
<text text-anchor="start" x="651" y="-604" font-family="Arial" font-size="8.00" fill="#94a3b8">  Problem</text>
<text text-anchor="start" x="686" y="-604" font-family="Arial" font-size="8.00"> ← $invocation_outcome.result</text>
<polygon fill="none" stroke="#dc2626" points="623.5,-595 623.5,-687 800.5,-687 800.5,-595 623.5,-595"/>
</g>
<!-- external_interface_invocation_command_project_approve&#45;&gt;external_interface_response_external_interface_api_project_approve_access_denied -->
<g id="edge2" class="edge">
<title>external_interface_invocation_command_project_approve&#45;&gt;external_interface_response_external_interface_api_project_approve_access_denied</title>
<path fill="none" stroke="#3f3f46" d="M462.54,-409.73C495.21,-461.42 545.61,-532.34 603,-582 607.33,-585.75 611.94,-589.36 616.72,-592.82"/>
<polygon fill="#3f3f46" stroke="#3f3f46" points="615.18,-595.16 623.34,-597.44 618.39,-590.57 615.18,-595.16"/>
</g>
<!-- external_interface_response_external_interface_api_project_approve_approved -->
<g id="node4" class="node">
<title>external_interface_response_external_interface_api_project_approve_approved</title>
<polygon fill="#ffffff" stroke="transparent" points="626,-476 626,-568 798,-568 798,-476 626,-476"/>
<polygon fill="#16a34a" stroke="transparent" points="627,-559 627,-567 797,-567 797,-559 627,-559"/>
<polygon fill="#f0fdf4" stroke="transparent" points="627,-528 627,-559 797,-559 797,-528 627,-528"/>
<text text-anchor="start" x="631" y="-545.6" font-family="Arial" font-weight="bold" font-size="13.00">approved</text>
<text text-anchor="start" x="631" y="-534.6" font-family="Arial" font-size="8.00" fill="#64748b">success response</text>
<text text-anchor="start" x="632" y="-516" font-family="Arial" font-weight="bold" font-size="10.00">status:</text>
<text text-anchor="start" x="663" y="-516" font-family="Arial" font-size="10.00">  200</text>
<text text-anchor="start" x="631" y="-496" font-family="Arial" font-weight="bold" font-size="10.00">body schema</text>
<text text-anchor="start" x="631" y="-485" font-family="Arial" font-size="10.00">body</text>
<text text-anchor="start" x="653" y="-485" font-family="Arial" font-size="8.00" fill="#94a3b8">  Project</text>
<text text-anchor="start" x="683" y="-485" font-family="Arial" font-size="8.00"> ← $invocation_outcome.result</text>
<polygon fill="none" stroke="#16a34a" points="626,-476 626,-568 798,-568 798,-476 626,-476"/>
</g>
<!-- external_interface_invocation_command_project_approve&#45;&gt;external_interface_response_external_interface_api_project_approve_approved -->
<g id="edge3" class="edge">
<title>external_interface_invocation_command_project_approve&#45;&gt;external_interface_response_external_interface_api_project_approve_approved</title>
<path fill="none" stroke="#3f3f46" d="M519.83,-409.69C546.46,-427.5 575.59,-446.39 603,-463 608.2,-466.15 613.59,-469.33 619.04,-472.5"/>
<polygon fill="#3f3f46" stroke="#3f3f46" points="617.66,-474.93 625.99,-476.49 620.45,-470.08 617.66,-474.93"/>
</g>
<!-- external_interface_response_external_interface_api_project_approve_authentication_required -->
<g id="node5" class="node">
<title>external_interface_response_external_interface_api_project_approve_authentication_required</title>
<polygon fill="#ffffff" stroke="transparent" points="623.5,-357 623.5,-449 800.5,-449 800.5,-357 623.5,-357"/>
<polygon fill="#dc2626" stroke="transparent" points="625,-440 625,-448 800,-448 800,-440 625,-440"/>
<polygon fill="#fef2f2" stroke="transparent" points="625,-409 625,-440 800,-440 800,-409 625,-409"/>
<text text-anchor="start" x="629" y="-426.6" font-family="Arial" font-weight="bold" font-size="13.00">authentication_required</text>
<text text-anchor="start" x="629" y="-415.6" font-family="Arial" font-size="8.00" fill="#64748b">failure response</text>
<text text-anchor="start" x="630" y="-397" font-family="Arial" font-weight="bold" font-size="10.00">status:</text>
<text text-anchor="start" x="661" y="-397" font-family="Arial" font-size="10.00">  401</text>
<text text-anchor="start" x="629" y="-377" font-family="Arial" font-weight="bold" font-size="10.00">body schema</text>
<text text-anchor="start" x="629" y="-366" font-family="Arial" font-size="10.00">body</text>
<text text-anchor="start" x="651" y="-366" font-family="Arial" font-size="8.00" fill="#94a3b8">  Problem</text>
<text text-anchor="start" x="686" y="-366" font-family="Arial" font-size="8.00"> ← $invocation_outcome.result</text>
<polygon fill="none" stroke="#dc2626" points="623.5,-357 623.5,-449 800.5,-449 800.5,-357 623.5,-357"/>
</g>
<!-- external_interface_invocation_command_project_approve&#45;&gt;external_interface_response_external_interface_api_project_approve_authentication_required -->
<g id="edge4" class="edge">
<title>external_interface_invocation_command_project_approve&#45;&gt;external_interface_response_external_interface_api_project_approve_authentication_required</title>
<path fill="none" stroke="#3f3f46" d="M542.1,-367.75C566.56,-372.86 592.02,-378.17 615.53,-383.08"/>
<polygon fill="#3f3f46" stroke="#3f3f46" points="615.02,-385.83 623.42,-384.72 616.16,-380.35 615.02,-385.83"/>
</g>
<!-- external_interface_response_external_interface_api_project_approve_lifecycle_transition_not_allowed -->
<g id="node6" class="node">
<title>external_interface_response_external_interface_api_project_approve_lifecycle_transition_not_allowed</title>
<polygon fill="#ffffff" stroke="transparent" points="603,-238 603,-330 821,-330 821,-238 603,-238"/>
<polygon fill="#dc2626" stroke="transparent" points="604,-321 604,-329 820,-329 820,-321 604,-321"/>
<polygon fill="#fef2f2" stroke="transparent" points="604,-290 604,-321 820,-321 820,-290 604,-290"/>
<text text-anchor="start" x="608" y="-307.6" font-family="Arial" font-weight="bold" font-size="13.00">lifecycle_transition_not_allowed</text>
<text text-anchor="start" x="608" y="-296.6" font-family="Arial" font-size="8.00" fill="#64748b">failure response</text>
<text text-anchor="start" x="609" y="-278" font-family="Arial" font-weight="bold" font-size="10.00">status:</text>
<text text-anchor="start" x="640" y="-278" font-family="Arial" font-size="10.00">  409</text>
<text text-anchor="start" x="608" y="-258" font-family="Arial" font-weight="bold" font-size="10.00">body schema</text>
<text text-anchor="start" x="608" y="-247" font-family="Arial" font-size="10.00">body</text>
<text text-anchor="start" x="630" y="-247" font-family="Arial" font-size="8.00" fill="#94a3b8">  Problem</text>
<text text-anchor="start" x="665" y="-247" font-family="Arial" font-size="8.00"> ← $invocation_outcome.result</text>
<polygon fill="none" stroke="#dc2626" points="603,-238 603,-330 821,-330 821,-238 603,-238"/>
</g>
<!-- external_interface_invocation_command_project_approve&#45;&gt;external_interface_response_external_interface_api_project_approve_lifecycle_transition_not_allowed -->
<g id="edge5" class="edge">
<title>external_interface_invocation_command_project_approve&#45;&gt;external_interface_response_external_interface_api_project_approve_lifecycle_transition_not_allowed</title>
<path fill="none" stroke="#3f3f46" d="M542.1,-318.66C559.53,-315.08 577.48,-311.4 594.87,-307.83"/>
<polygon fill="#3f3f46" stroke="#3f3f46" points="595.54,-310.55 602.81,-306.2 594.41,-305.07 595.54,-310.55"/>
</g>
<!-- external_interface_response_external_interface_api_project_approve_not_found -->
<g id="node7" class="node">
<title>external_interface_response_external_interface_api_project_approve_not_found</title>
<polygon fill="#ffffff" stroke="transparent" points="623.5,-119 623.5,-211 800.5,-211 800.5,-119 623.5,-119"/>
<polygon fill="#dc2626" stroke="transparent" points="625,-202 625,-210 800,-210 800,-202 625,-202"/>
<polygon fill="#fef2f2" stroke="transparent" points="625,-171 625,-202 800,-202 800,-171 625,-171"/>
<text text-anchor="start" x="629" y="-188.6" font-family="Arial" font-weight="bold" font-size="13.00">not_found</text>
<text text-anchor="start" x="629" y="-177.6" font-family="Arial" font-size="8.00" fill="#64748b">failure response</text>
<text text-anchor="start" x="630" y="-159" font-family="Arial" font-weight="bold" font-size="10.00">status:</text>
<text text-anchor="start" x="661" y="-159" font-family="Arial" font-size="10.00">  404</text>
<text text-anchor="start" x="629" y="-139" font-family="Arial" font-weight="bold" font-size="10.00">body schema</text>
<text text-anchor="start" x="629" y="-128" font-family="Arial" font-size="10.00">body</text>
<text text-anchor="start" x="651" y="-128" font-family="Arial" font-size="8.00" fill="#94a3b8">  Problem</text>
<text text-anchor="start" x="686" y="-128" font-family="Arial" font-size="8.00"> ← $invocation_outcome.result</text>
<polygon fill="none" stroke="#dc2626" points="623.5,-119 623.5,-211 800.5,-211 800.5,-119 623.5,-119"/>
</g>
<!-- external_interface_invocation_command_project_approve&#45;&gt;external_interface_response_external_interface_api_project_approve_not_found -->
<g id="edge6" class="edge">
<title>external_interface_invocation_command_project_approve&#45;&gt;external_interface_response_external_interface_api_project_approve_not_found</title>
<path fill="none" stroke="#3f3f46" d="M521.88,-276.44C548,-259.29 576.36,-241.13 603,-225 608.35,-221.76 613.89,-218.48 619.5,-215.21"/>
<polygon fill="#3f3f46" stroke="#3f3f46" points="621.11,-217.51 626.63,-211.07 618.31,-212.66 621.11,-217.51"/>
</g>
<!-- external_interface_response_external_interface_api_project_approve_unavailable -->
<g id="node8" class="node">
<title>external_interface_response_external_interface_api_project_approve_unavailable</title>
<polygon fill="#ffffff" stroke="transparent" points="623.5,0 623.5,-92 800.5,-92 800.5,0 623.5,0"/>
<polygon fill="#dc2626" stroke="transparent" points="625,-83 625,-91 800,-91 800,-83 625,-83"/>
<polygon fill="#fef2f2" stroke="transparent" points="625,-52 625,-83 800,-83 800,-52 625,-52"/>
<text text-anchor="start" x="629" y="-69.6" font-family="Arial" font-weight="bold" font-size="13.00">unavailable</text>
<text text-anchor="start" x="629" y="-58.6" font-family="Arial" font-size="8.00" fill="#64748b">failure response</text>
<text text-anchor="start" x="630" y="-40" font-family="Arial" font-weight="bold" font-size="10.00">status:</text>
<text text-anchor="start" x="661" y="-40" font-family="Arial" font-size="10.00">  503</text>
<text text-anchor="start" x="629" y="-20" font-family="Arial" font-weight="bold" font-size="10.00">body schema</text>
<text text-anchor="start" x="629" y="-9" font-family="Arial" font-size="10.00">body</text>
<text text-anchor="start" x="651" y="-9" font-family="Arial" font-size="8.00" fill="#94a3b8">  Problem</text>
<text text-anchor="start" x="686" y="-9" font-family="Arial" font-size="8.00"> ← $invocation_outcome.result</text>
<polygon fill="none" stroke="#dc2626" points="623.5,0 623.5,-92 800.5,-92 800.5,0 623.5,0"/>
</g>
<!-- external_interface_invocation_command_project_approve&#45;&gt;external_interface_response_external_interface_api_project_approve_unavailable -->
<g id="edge7" class="edge">
<title>external_interface_invocation_command_project_approve&#45;&gt;external_interface_response_external_interface_api_project_approve_unavailable</title>
<path fill="none" stroke="#3f3f46" d="M463.09,-276.43C495.88,-225.3 546.19,-155.31 603,-106 607.34,-102.23 611.96,-98.59 616.75,-95.1"/>
<polygon fill="#3f3f46" stroke="#3f3f46" points="618.45,-97.33 623.37,-90.43 615.22,-92.75 618.45,-97.33"/>
</g>
<!-- external_interface_response_external_interface_api_project_approve_access_denied&#45;&gt;external_interface_response_external_interface_api_project_approve_approved -->
<!-- external_interface_response_external_interface_api_project_approve_approved&#45;&gt;external_interface_response_external_interface_api_project_approve_authentication_required -->
<!-- external_interface_response_external_interface_api_project_approve_authentication_required&#45;&gt;external_interface_response_external_interface_api_project_approve_lifecycle_transition_not_allowed -->
<!-- external_interface_response_external_interface_api_project_approve_lifecycle_transition_not_allowed&#45;&gt;external_interface_response_external_interface_api_project_approve_not_found -->
<!-- external_interface_response_external_interface_api_project_approve_not_found&#45;&gt;external_interface_response_external_interface_api_project_approve_unavailable -->
</g>
</svg>
