<svg width="803pt" height="723pt"
 viewBox="0.00 0.00 803.00 723.00" xmlns="http://www.w3.org/2000/svg" xmlns:xlink="http://www.w3.org/1999/xlink">
<!-- pyspec-contract-input-sha256: f757b1ec6ff680c79bb1cce7cc0a87487b6e24e40064e01997f1c095a7f3f665 -->
<g id="graph0" class="graph" transform="scale(1 1) rotate(0) translate(18 705)">
<title>external_interface_external_interface_api_project_approve</title>
<!-- external_interface_external_interface_api_project_approve -->
<g id="node1" class="node">
<title>external_interface_external_interface_api_project_approve</title>
<polygon fill="#ffffff" stroke="transparent" points="0,-240.5 0,-445.5 242,-445.5 242,-240.5 0,-240.5"/>
<polygon fill="#0891b2" stroke="transparent" points="1,-436 1,-444 241,-444 241,-436 1,-436"/>
<polygon fill="#ecfeff" stroke="transparent" points="1,-405 1,-436 241,-436 241,-405 1,-405"/>
<text text-anchor="start" x="5" y="-422.6" font-family="Arial" font-weight="bold" font-size="13.00">POST /projects/{project_id}/approve</text>
<text text-anchor="start" x="5" y="-411.6" font-family="Arial" font-size="8.00" fill="#64748b">http_api external interface</text>
<text text-anchor="start" x="5" y="-394" font-family="Arial" font-style="italic" font-size="10.00" fill="#3f3f46">HTTP endpoint for approving submitted dispatch</text>
<text text-anchor="start" x="5" y="-383" font-family="Arial" font-style="italic" font-size="10.00" fill="#3f3f46">projects.</text>
<text text-anchor="start" x="6" y="-363" font-family="Arial" font-weight="bold" font-size="10.00">endpoint:</text>
<text text-anchor="start" x="51" y="-363" font-family="Arial" font-size="10.00">  endpoint.project.approve</text>
<text text-anchor="start" x="6" y="-351" font-family="Arial" font-weight="bold" font-size="10.00">access_policy:</text>
<text text-anchor="start" x="75" y="-351" font-family="Arial" font-size="10.00">  access_policy.project.reviewer</text>
<text text-anchor="start" x="5" y="-331" font-family="Arial" font-weight="bold" font-size="10.00">path params</text>
<text text-anchor="start" x="5" y="-320" font-family="Arial" font-size="10.00">project_id</text>
<text text-anchor="start" x="48" y="-320" font-family="Arial" font-size="8.00" fill="#94a3b8">  string</text>
<text text-anchor="start" x="5" y="-301" font-family="Arial" font-weight="bold" font-size="10.00">body</text>
<text text-anchor="start" x="5" y="-290" font-family="Arial" font-size="10.00">approved_by</text>
<text text-anchor="start" x="61" y="-290" font-family="Arial" font-size="8.00" fill="#94a3b8">  string</text>
<text text-anchor="start" x="5" y="-271" font-family="Arial" font-weight="bold" font-size="10.00">input mapping</text>
<text text-anchor="start" x="5" y="-259" font-family="Arial" font-size="10.00">approved_by ← adapter_input.body.approved_by</text>
<text text-anchor="start" x="5" y="-248" font-family="Arial" font-size="10.00">project_id ← adapter_input.path_params.project_id</text>
<polygon fill="none" stroke="#0891b2" points="0,-240.5 0,-445.5 242,-445.5 242,-240.5 0,-240.5"/>
</g>
<!-- external_interface_invocation_command_project_approve -->
<g id="node2" class="node">
<title>external_interface_invocation_command_project_approve</title>
<polygon fill="#ffffff" stroke="transparent" points="303,-276.5 303,-409.5 542,-409.5 542,-276.5 303,-276.5"/>
<polygon fill="#2563eb" stroke="transparent" points="304.5,-400 304.5,-408 541.5,-408 541.5,-400 304.5,-400"/>
<polygon fill="#eff6ff" stroke="transparent" points="304.5,-369 304.5,-400 541.5,-400 541.5,-369 304.5,-369"/>
<text text-anchor="start" x="308.5" y="-386.6" font-family="Arial" font-weight="bold" font-size="13.00">command.project.approve</text>
<text text-anchor="start" x="308.5" y="-375.6" font-family="Arial" font-size="8.00" fill="#64748b">invoked command</text>
<text text-anchor="start" x="308.5" y="-358" font-family="Arial" font-style="italic" font-size="10.00" fill="#3f3f46">Reviewers can approve submitted dispatch projects.</text>
<text text-anchor="start" x="309.5" y="-338" font-family="Arial" font-weight="bold" font-size="10.00">kind:</text>
<text text-anchor="start" x="333.5" y="-338" font-family="Arial" font-size="10.00">  lifecycle_transition</text>
<text text-anchor="start" x="308.5" y="-318" font-family="Arial" font-weight="bold" font-size="10.00">authorization</text>
<text text-anchor="start" x="308.5" y="-306" font-family="Arial" font-size="10.00">policy: access_policy.project.reviewer</text>
<text text-anchor="start" x="308.5" y="-295" font-family="Arial" font-size="10.00">authentication_required_as: authentication_required</text>
<text text-anchor="start" x="308.5" y="-284" font-family="Arial" font-size="10.00">access_denied_as: access_denied</text>
<polygon fill="none" stroke="#2563eb" points="303,-276.5 303,-409.5 542,-409.5 542,-276.5 303,-276.5"/>
</g>
<!-- external_interface_external_interface_api_project_approve&#45;&gt;external_interface_invocation_command_project_approve -->
<g id="edge1" class="edge">
<title>external_interface_external_interface_api_project_approve&#45;&gt;external_interface_invocation_command_project_approve</title>
<path fill="none" stroke="#3f3f46" d="M242.09,-343C259.29,-343 277.04,-343 294.37,-343"/>
<polygon fill="#3f3f46" stroke="#3f3f46" points="294.84,-345.8 302.84,-343 294.84,-340.2 294.84,-345.8"/>
</g>
<!-- external_interface_response_external_interface_api_project_approve_access_denied -->
<g id="node3" class="node">
<title>external_interface_response_external_interface_api_project_approve_access_denied</title>
<polygon fill="#ffffff" stroke="transparent" points="603.5,-595 603.5,-687 766.5,-687 766.5,-595 603.5,-595"/>
<polygon fill="#dc2626" stroke="transparent" points="605,-678 605,-686 766,-686 766,-678 605,-678"/>
<polygon fill="#fef2f2" stroke="transparent" points="605,-647 605,-678 766,-678 766,-647 605,-647"/>
<text text-anchor="start" x="609" y="-664.6" font-family="Arial" font-weight="bold" font-size="13.00">access_denied</text>
<text text-anchor="start" x="609" y="-653.6" font-family="Arial" font-size="8.00" fill="#64748b">failure response</text>
<text text-anchor="start" x="610" y="-635" font-family="Arial" font-weight="bold" font-size="10.00">status:</text>
<text text-anchor="start" x="641" y="-635" font-family="Arial" font-size="10.00">  403</text>
<text text-anchor="start" x="609" y="-615" font-family="Arial" font-weight="bold" font-size="10.00">body</text>
<text text-anchor="start" x="609" y="-604" font-family="Arial" font-size="10.00">body</text>
<text text-anchor="start" x="631" y="-604" font-family="Arial" font-size="8.00" fill="#94a3b8">  Problem</text>
<text text-anchor="start" x="666" y="-604" font-family="Arial" font-size="8.00"> ← $action_outcome.result</text>
<polygon fill="none" stroke="#dc2626" points="603.5,-595 603.5,-687 766.5,-687 766.5,-595 603.5,-595"/>
</g>
<!-- external_interface_invocation_command_project_approve&#45;&gt;external_interface_response_external_interface_api_project_approve_access_denied -->
<g id="edge2" class="edge">
<title>external_interface_invocation_command_project_approve&#45;&gt;external_interface_response_external_interface_api_project_approve_access_denied</title>
<path fill="none" stroke="#3f3f46" d="M465.6,-409.57C499.29,-460.01 549.59,-529.37 603,-582 605.51,-584.47 608.13,-586.92 610.82,-589.34"/>
<polygon fill="#3f3f46" stroke="#3f3f46" points="609.36,-591.78 617.24,-594.91 613.04,-587.55 609.36,-591.78"/>
</g>
<!-- external_interface_response_external_interface_api_project_approve_approved -->
<g id="node4" class="node">
<title>external_interface_response_external_interface_api_project_approve_approved</title>
<polygon fill="#ffffff" stroke="transparent" points="606,-476 606,-568 764,-568 764,-476 606,-476"/>
<polygon fill="#16a34a" stroke="transparent" points="607,-559 607,-567 763,-567 763,-559 607,-559"/>
<polygon fill="#f0fdf4" stroke="transparent" points="607,-528 607,-559 763,-559 763,-528 607,-528"/>
<text text-anchor="start" x="611" y="-545.6" font-family="Arial" font-weight="bold" font-size="13.00">approved</text>
<text text-anchor="start" x="611" y="-534.6" font-family="Arial" font-size="8.00" fill="#64748b">success response</text>
<text text-anchor="start" x="612" y="-516" font-family="Arial" font-weight="bold" font-size="10.00">status:</text>
<text text-anchor="start" x="643" y="-516" font-family="Arial" font-size="10.00">  200</text>
<text text-anchor="start" x="611" y="-496" font-family="Arial" font-weight="bold" font-size="10.00">body</text>
<text text-anchor="start" x="611" y="-485" font-family="Arial" font-size="10.00">body</text>
<text text-anchor="start" x="633" y="-485" font-family="Arial" font-size="8.00" fill="#94a3b8">  Project</text>
<text text-anchor="start" x="663" y="-485" font-family="Arial" font-size="8.00"> ← $action_outcome.result</text>
<polygon fill="none" stroke="#16a34a" points="606,-476 606,-568 764,-568 764,-476 606,-476"/>
</g>
<!-- external_interface_invocation_command_project_approve&#45;&gt;external_interface_response_external_interface_api_project_approve_approved -->
<g id="edge3" class="edge">
<title>external_interface_invocation_command_project_approve&#45;&gt;external_interface_response_external_interface_api_project_approve_approved</title>
<path fill="none" stroke="#3f3f46" d="M520.5,-409.65C550.23,-430.08 582.44,-452.21 610.34,-471.39"/>
<polygon fill="#3f3f46" stroke="#3f3f46" points="608.79,-473.72 616.97,-475.94 611.96,-469.1 608.79,-473.72"/>
</g>
<!-- external_interface_response_external_interface_api_project_approve_authentication_required -->
<g id="node5" class="node">
<title>external_interface_response_external_interface_api_project_approve_authentication_required</title>
<polygon fill="#ffffff" stroke="transparent" points="603,-357 603,-449 767,-449 767,-357 603,-357"/>
<polygon fill="#dc2626" stroke="transparent" points="604,-440 604,-448 766,-448 766,-440 604,-440"/>
<polygon fill="#fef2f2" stroke="transparent" points="604,-409 604,-440 766,-440 766,-409 604,-409"/>
<text text-anchor="start" x="608" y="-426.6" font-family="Arial" font-weight="bold" font-size="13.00">authentication_required</text>
<text text-anchor="start" x="608" y="-415.6" font-family="Arial" font-size="8.00" fill="#64748b">failure response</text>
<text text-anchor="start" x="609" y="-397" font-family="Arial" font-weight="bold" font-size="10.00">status:</text>
<text text-anchor="start" x="640" y="-397" font-family="Arial" font-size="10.00">  401</text>
<text text-anchor="start" x="608" y="-377" font-family="Arial" font-weight="bold" font-size="10.00">body</text>
<text text-anchor="start" x="608" y="-366" font-family="Arial" font-size="10.00">body</text>
<text text-anchor="start" x="630" y="-366" font-family="Arial" font-size="8.00" fill="#94a3b8">  Problem</text>
<text text-anchor="start" x="665" y="-366" font-family="Arial" font-size="8.00"> ← $action_outcome.result</text>
<polygon fill="none" stroke="#dc2626" points="603,-357 603,-449 767,-449 767,-357 603,-357"/>
</g>
<!-- external_interface_invocation_command_project_approve&#45;&gt;external_interface_response_external_interface_api_project_approve_authentication_required -->
<g id="edge4" class="edge">
<title>external_interface_invocation_command_project_approve&#45;&gt;external_interface_response_external_interface_api_project_approve_authentication_required</title>
<path fill="none" stroke="#3f3f46" d="M542.32,-370.37C559.96,-374.43 577.88,-378.56 594.78,-382.45"/>
<polygon fill="#3f3f46" stroke="#3f3f46" points="594.57,-385.27 602.99,-384.34 595.82,-379.82 594.57,-385.27"/>
</g>
<!-- external_interface_response_external_interface_api_project_approve_not_found -->
<g id="node6" class="node">
<title>external_interface_response_external_interface_api_project_approve_not_found</title>
<polygon fill="#ffffff" stroke="transparent" points="603.5,-238 603.5,-330 766.5,-330 766.5,-238 603.5,-238"/>
<polygon fill="#dc2626" stroke="transparent" points="605,-321 605,-329 766,-329 766,-321 605,-321"/>
<polygon fill="#fef2f2" stroke="transparent" points="605,-290 605,-321 766,-321 766,-290 605,-290"/>
<text text-anchor="start" x="609" y="-307.6" font-family="Arial" font-weight="bold" font-size="13.00">not_found</text>
<text text-anchor="start" x="609" y="-296.6" font-family="Arial" font-size="8.00" fill="#64748b">failure response</text>
<text text-anchor="start" x="610" y="-278" font-family="Arial" font-weight="bold" font-size="10.00">status:</text>
<text text-anchor="start" x="641" y="-278" font-family="Arial" font-size="10.00">  404</text>
<text text-anchor="start" x="609" y="-258" font-family="Arial" font-weight="bold" font-size="10.00">body</text>
<text text-anchor="start" x="609" y="-247" font-family="Arial" font-size="10.00">body</text>
<text text-anchor="start" x="631" y="-247" font-family="Arial" font-size="8.00" fill="#94a3b8">  Problem</text>
<text text-anchor="start" x="666" y="-247" font-family="Arial" font-size="8.00"> ← $action_outcome.result</text>
<polygon fill="none" stroke="#dc2626" points="603.5,-238 603.5,-330 766.5,-330 766.5,-238 603.5,-238"/>
</g>
<!-- external_interface_invocation_command_project_approve&#45;&gt;external_interface_response_external_interface_api_project_approve_not_found -->
<g id="edge5" class="edge">
<title>external_interface_invocation_command_project_approve&#45;&gt;external_interface_response_external_interface_api_project_approve_not_found</title>
<path fill="none" stroke="#3f3f46" d="M542.32,-316.09C560.07,-312.07 578.12,-307.98 595.12,-304.13"/>
<polygon fill="#3f3f46" stroke="#3f3f46" points="596.18,-306.76 603.37,-302.26 594.95,-301.3 596.18,-306.76"/>
</g>
<!-- external_interface_response_external_interface_api_project_approve_transition_not_allowed -->
<g id="node7" class="node">
<title>external_interface_response_external_interface_api_project_approve_transition_not_allowed</title>
<polygon fill="#ffffff" stroke="transparent" points="603.5,-119 603.5,-211 766.5,-211 766.5,-119 603.5,-119"/>
<polygon fill="#dc2626" stroke="transparent" points="605,-202 605,-210 766,-210 766,-202 605,-202"/>
<polygon fill="#fef2f2" stroke="transparent" points="605,-171 605,-202 766,-202 766,-171 605,-171"/>
<text text-anchor="start" x="609" y="-188.6" font-family="Arial" font-weight="bold" font-size="13.00">transition_not_allowed</text>
<text text-anchor="start" x="609" y="-177.6" font-family="Arial" font-size="8.00" fill="#64748b">failure response</text>
<text text-anchor="start" x="610" y="-159" font-family="Arial" font-weight="bold" font-size="10.00">status:</text>
<text text-anchor="start" x="641" y="-159" font-family="Arial" font-size="10.00">  409</text>
<text text-anchor="start" x="609" y="-139" font-family="Arial" font-weight="bold" font-size="10.00">body</text>
<text text-anchor="start" x="609" y="-128" font-family="Arial" font-size="10.00">body</text>
<text text-anchor="start" x="631" y="-128" font-family="Arial" font-size="8.00" fill="#94a3b8">  Problem</text>
<text text-anchor="start" x="666" y="-128" font-family="Arial" font-size="8.00"> ← $action_outcome.result</text>
<polygon fill="none" stroke="#dc2626" points="603.5,-119 603.5,-211 766.5,-211 766.5,-119 603.5,-119"/>
</g>
<!-- external_interface_invocation_command_project_approve&#45;&gt;external_interface_response_external_interface_api_project_approve_transition_not_allowed -->
<g id="edge6" class="edge">
<title>external_interface_invocation_command_project_approve&#45;&gt;external_interface_response_external_interface_api_project_approve_transition_not_allowed</title>
<path fill="none" stroke="#3f3f46" d="M520.87,-276.47C550.18,-256.44 581.87,-234.79 609.45,-215.94"/>
<polygon fill="#3f3f46" stroke="#3f3f46" points="611.34,-218.04 616.37,-211.21 608.18,-213.42 611.34,-218.04"/>
</g>
<!-- external_interface_response_external_interface_api_project_approve_unavailable -->
<g id="node8" class="node">
<title>external_interface_response_external_interface_api_project_approve_unavailable</title>
<polygon fill="#ffffff" stroke="transparent" points="603.5,0 603.5,-92 766.5,-92 766.5,0 603.5,0"/>
<polygon fill="#dc2626" stroke="transparent" points="605,-83 605,-91 766,-91 766,-83 605,-83"/>
<polygon fill="#fef2f2" stroke="transparent" points="605,-52 605,-83 766,-83 766,-52 605,-52"/>
<text text-anchor="start" x="609" y="-69.6" font-family="Arial" font-weight="bold" font-size="13.00">unavailable</text>
<text text-anchor="start" x="609" y="-58.6" font-family="Arial" font-size="8.00" fill="#64748b">failure response</text>
<text text-anchor="start" x="610" y="-40" font-family="Arial" font-weight="bold" font-size="10.00">status:</text>
<text text-anchor="start" x="641" y="-40" font-family="Arial" font-size="10.00">  503</text>
<text text-anchor="start" x="609" y="-20" font-family="Arial" font-weight="bold" font-size="10.00">body</text>
<text text-anchor="start" x="609" y="-9" font-family="Arial" font-size="10.00">body</text>
<text text-anchor="start" x="631" y="-9" font-family="Arial" font-size="8.00" fill="#94a3b8">  Problem</text>
<text text-anchor="start" x="666" y="-9" font-family="Arial" font-size="8.00"> ← $action_outcome.result</text>
<polygon fill="none" stroke="#dc2626" points="603.5,0 603.5,-92 766.5,-92 766.5,0 603.5,0"/>
</g>
<!-- external_interface_invocation_command_project_approve&#45;&gt;external_interface_response_external_interface_api_project_approve_unavailable -->
<g id="edge7" class="edge">
<title>external_interface_invocation_command_project_approve&#45;&gt;external_interface_response_external_interface_api_project_approve_unavailable</title>
<path fill="none" stroke="#3f3f46" d="M466.35,-276.36C500.15,-226.49 550.26,-158.18 603,-106 605.81,-103.22 608.75,-100.47 611.78,-97.76"/>
<polygon fill="#3f3f46" stroke="#3f3f46" points="613.91,-99.61 618.11,-92.25 610.23,-95.39 613.91,-99.61"/>
</g>
<!-- external_interface_response_external_interface_api_project_approve_access_denied&#45;&gt;external_interface_response_external_interface_api_project_approve_approved -->
<!-- external_interface_response_external_interface_api_project_approve_approved&#45;&gt;external_interface_response_external_interface_api_project_approve_authentication_required -->
<!-- external_interface_response_external_interface_api_project_approve_authentication_required&#45;&gt;external_interface_response_external_interface_api_project_approve_not_found -->
<!-- external_interface_response_external_interface_api_project_approve_not_found&#45;&gt;external_interface_response_external_interface_api_project_approve_transition_not_allowed -->
<!-- external_interface_response_external_interface_api_project_approve_transition_not_allowed&#45;&gt;external_interface_response_external_interface_api_project_approve_unavailable -->
</g>
</svg>
