<svg width="816pt" height="723pt"
 viewBox="0.00 0.00 816.00 723.00" xmlns="http://www.w3.org/2000/svg" xmlns:xlink="http://www.w3.org/1999/xlink">
<!-- pyspec-contract-input-sha256: 8aef847584e81f199bf00c5e2d6e37f7608ef8c857754c292c643ad8b48c7219 -->
<g id="graph0" class="graph" transform="scale(1 1) rotate(0) translate(18 705)">
<title>external_interface_external_interface_api_project_approve</title>
<!-- external_interface_external_interface_api_project_approve -->
<g id="node1" class="node">
<title>external_interface_external_interface_api_project_approve</title>
<polygon fill="#ffffff" stroke="transparent" points="0,-240.5 0,-445.5 242,-445.5 242,-240.5 0,-240.5"/>
<polygon fill="#0891b2" stroke="transparent" points="1,-436 1,-444 241,-444 241,-436 1,-436"/>
<polygon fill="#ecfeff" stroke="transparent" points="1,-405 1,-436 241,-436 241,-405 1,-405"/>
<text text-anchor="start" x="5" y="-422.6" font-family="Arial" font-weight="bold" font-size="13.00">POST /projects/{project_id}/approve</text>
<text text-anchor="start" x="5" y="-411.6" font-family="Arial" font-size="8.00" fill="#64748b">http_api external interface</text>
<text text-anchor="start" x="5" y="-394" font-family="Arial" font-style="italic" font-size="10.00" fill="#3f3f46">HTTP endpoint for approving submitted dispatch</text>
<text text-anchor="start" x="5" y="-383" font-family="Arial" font-style="italic" font-size="10.00" fill="#3f3f46">projects.</text>
<text text-anchor="start" x="6" y="-363" font-family="Arial" font-weight="bold" font-size="10.00">endpoint:</text>
<text text-anchor="start" x="51" y="-363" font-family="Arial" font-size="10.00">  endpoint.project.approve</text>
<text text-anchor="start" x="6" y="-351" font-family="Arial" font-weight="bold" font-size="10.00">access_policy:</text>
<text text-anchor="start" x="75" y="-351" font-family="Arial" font-size="10.00">  access_policy.project.reviewer</text>
<text text-anchor="start" x="5" y="-331" font-family="Arial" font-weight="bold" font-size="10.00">path params</text>
<text text-anchor="start" x="5" y="-320" font-family="Arial" font-size="10.00">project_id</text>
<text text-anchor="start" x="48" y="-320" font-family="Arial" font-size="8.00" fill="#94a3b8">  string</text>
<text text-anchor="start" x="5" y="-301" font-family="Arial" font-weight="bold" font-size="10.00">body</text>
<text text-anchor="start" x="5" y="-290" font-family="Arial" font-size="10.00">approved_by</text>
<text text-anchor="start" x="61" y="-290" font-family="Arial" font-size="8.00" fill="#94a3b8">  string</text>
<text text-anchor="start" x="5" y="-271" font-family="Arial" font-weight="bold" font-size="10.00">input mapping</text>
<text text-anchor="start" x="5" y="-259" font-family="Arial" font-size="10.00">approved_by ← adapter_input.body.approved_by</text>
<text text-anchor="start" x="5" y="-248" font-family="Arial" font-size="10.00">project_id ← adapter_input.path_params.project_id</text>
<polygon fill="none" stroke="#0891b2" points="0,-240.5 0,-445.5 242,-445.5 242,-240.5 0,-240.5"/>
</g>
<!-- external_interface_invocation_command_project_approve -->
<g id="node2" class="node">
<title>external_interface_invocation_command_project_approve</title>
<polygon fill="#ffffff" stroke="transparent" points="303,-276.5 303,-409.5 542,-409.5 542,-276.5 303,-276.5"/>
<polygon fill="#2563eb" stroke="transparent" points="304.5,-400 304.5,-408 541.5,-408 541.5,-400 304.5,-400"/>
<polygon fill="#eff6ff" stroke="transparent" points="304.5,-369 304.5,-400 541.5,-400 541.5,-369 304.5,-369"/>
<text text-anchor="start" x="308.5" y="-386.6" font-family="Arial" font-weight="bold" font-size="13.00">command.project.approve</text>
<text text-anchor="start" x="308.5" y="-375.6" font-family="Arial" font-size="8.00" fill="#64748b">invoked command</text>
<text text-anchor="start" x="308.5" y="-358" font-family="Arial" font-style="italic" font-size="10.00" fill="#3f3f46">Reviewers can approve submitted dispatch projects.</text>
<text text-anchor="start" x="309.5" y="-338" font-family="Arial" font-weight="bold" font-size="10.00">kind:</text>
<text text-anchor="start" x="333.5" y="-338" font-family="Arial" font-size="10.00">  lifecycle_transition</text>
<text text-anchor="start" x="308.5" y="-318" font-family="Arial" font-weight="bold" font-size="10.00">authorization</text>
<text text-anchor="start" x="308.5" y="-306" font-family="Arial" font-size="10.00">policy: access_policy.project.reviewer</text>
<text text-anchor="start" x="308.5" y="-295" font-family="Arial" font-size="10.00">authentication_required_as: authentication_required</text>
<text text-anchor="start" x="308.5" y="-284" font-family="Arial" font-size="10.00">access_denied_as: access_denied</text>
<polygon fill="none" stroke="#2563eb" points="303,-276.5 303,-409.5 542,-409.5 542,-276.5 303,-276.5"/>
</g>
<!-- external_interface_external_interface_api_project_approve&#45;&gt;external_interface_invocation_command_project_approve -->
<g id="edge1" class="edge">
<title>external_interface_external_interface_api_project_approve&#45;&gt;external_interface_invocation_command_project_approve</title>
<path fill="none" stroke="#3f3f46" d="M242.09,-343C259.29,-343 277.04,-343 294.37,-343"/>
<polygon fill="#3f3f46" stroke="#3f3f46" points="294.84,-345.8 302.84,-343 294.84,-340.2 294.84,-345.8"/>
</g>
<!-- external_interface_response_external_interface_api_project_approve_access_denied -->
<g id="node3" class="node">
<title>external_interface_response_external_interface_api_project_approve_access_denied</title>
<polygon fill="#ffffff" stroke="transparent" points="603,-595 603,-687 780,-687 780,-595 603,-595"/>
<polygon fill="#dc2626" stroke="transparent" points="604.5,-678 604.5,-686 779.5,-686 779.5,-678 604.5,-678"/>
<polygon fill="#fef2f2" stroke="transparent" points="604.5,-647 604.5,-678 779.5,-678 779.5,-647 604.5,-647"/>
<text text-anchor="start" x="608.5" y="-664.6" font-family="Arial" font-weight="bold" font-size="13.00">access_denied</text>
<text text-anchor="start" x="608.5" y="-653.6" font-family="Arial" font-size="8.00" fill="#64748b">failure response</text>
<text text-anchor="start" x="609.5" y="-635" font-family="Arial" font-weight="bold" font-size="10.00">status:</text>
<text text-anchor="start" x="640.5" y="-635" font-family="Arial" font-size="10.00">  403</text>
<text text-anchor="start" x="608.5" y="-615" font-family="Arial" font-weight="bold" font-size="10.00">body</text>
<text text-anchor="start" x="608.5" y="-604" font-family="Arial" font-size="10.00">body</text>
<text text-anchor="start" x="630.5" y="-604" font-family="Arial" font-size="8.00" fill="#94a3b8">  Problem</text>
<text text-anchor="start" x="665.5" y="-604" font-family="Arial" font-size="8.00"> ← $invocation_outcome.result</text>
<polygon fill="none" stroke="#dc2626" points="603,-595 603,-687 780,-687 780,-595 603,-595"/>
</g>
<!-- external_interface_invocation_command_project_approve&#45;&gt;external_interface_response_external_interface_api_project_approve_access_denied -->
<g id="edge2" class="edge">
<title>external_interface_invocation_command_project_approve&#45;&gt;external_interface_response_external_interface_api_project_approve_access_denied</title>
<path fill="none" stroke="#3f3f46" d="M464.71,-409.6C498.11,-460.38 548.46,-530.17 603,-582 605.76,-584.62 608.65,-587.21 611.63,-589.75"/>
<polygon fill="#3f3f46" stroke="#3f3f46" points="609.9,-591.95 617.85,-594.88 613.46,-587.63 609.9,-591.95"/>
</g>
<!-- external_interface_response_external_interface_api_project_approve_approved -->
<g id="node4" class="node">
<title>external_interface_response_external_interface_api_project_approve_approved</title>
<polygon fill="#ffffff" stroke="transparent" points="605.5,-476 605.5,-568 777.5,-568 777.5,-476 605.5,-476"/>
<polygon fill="#16a34a" stroke="transparent" points="606.5,-559 606.5,-567 776.5,-567 776.5,-559 606.5,-559"/>
<polygon fill="#f0fdf4" stroke="transparent" points="606.5,-528 606.5,-559 776.5,-559 776.5,-528 606.5,-528"/>
<text text-anchor="start" x="610.5" y="-545.6" font-family="Arial" font-weight="bold" font-size="13.00">approved</text>
<text text-anchor="start" x="610.5" y="-534.6" font-family="Arial" font-size="8.00" fill="#64748b">success response</text>
<text text-anchor="start" x="611.5" y="-516" font-family="Arial" font-weight="bold" font-size="10.00">status:</text>
<text text-anchor="start" x="642.5" y="-516" font-family="Arial" font-size="10.00">  200</text>
<text text-anchor="start" x="610.5" y="-496" font-family="Arial" font-weight="bold" font-size="10.00">body</text>
<text text-anchor="start" x="610.5" y="-485" font-family="Arial" font-size="10.00">body</text>
<text text-anchor="start" x="632.5" y="-485" font-family="Arial" font-size="8.00" fill="#94a3b8">  Project</text>
<text text-anchor="start" x="662.5" y="-485" font-family="Arial" font-size="8.00"> ← $invocation_outcome.result</text>
<polygon fill="none" stroke="#16a34a" points="605.5,-476 605.5,-568 777.5,-568 777.5,-476 605.5,-476"/>
</g>
<!-- external_interface_invocation_command_project_approve&#45;&gt;external_interface_response_external_interface_api_project_approve_approved -->
<g id="edge3" class="edge">
<title>external_interface_invocation_command_project_approve&#45;&gt;external_interface_response_external_interface_api_project_approve_approved</title>
<path fill="none" stroke="#3f3f46" d="M522.92,-409.65C553.39,-430.08 586.4,-452.21 615,-471.39"/>
<polygon fill="#3f3f46" stroke="#3f3f46" points="613.59,-473.81 621.8,-475.94 616.71,-469.16 613.59,-473.81"/>
</g>
<!-- external_interface_response_external_interface_api_project_approve_authentication_required -->
<g id="node5" class="node">
<title>external_interface_response_external_interface_api_project_approve_authentication_required</title>
<polygon fill="#ffffff" stroke="transparent" points="603,-357 603,-449 780,-449 780,-357 603,-357"/>
<polygon fill="#dc2626" stroke="transparent" points="604.5,-440 604.5,-448 779.5,-448 779.5,-440 604.5,-440"/>
<polygon fill="#fef2f2" stroke="transparent" points="604.5,-409 604.5,-440 779.5,-440 779.5,-409 604.5,-409"/>
<text text-anchor="start" x="608.5" y="-426.6" font-family="Arial" font-weight="bold" font-size="13.00">authentication_required</text>
<text text-anchor="start" x="608.5" y="-415.6" font-family="Arial" font-size="8.00" fill="#64748b">failure response</text>
<text text-anchor="start" x="609.5" y="-397" font-family="Arial" font-weight="bold" font-size="10.00">status:</text>
<text text-anchor="start" x="640.5" y="-397" font-family="Arial" font-size="10.00">  401</text>
<text text-anchor="start" x="608.5" y="-377" font-family="Arial" font-weight="bold" font-size="10.00">body</text>
<text text-anchor="start" x="608.5" y="-366" font-family="Arial" font-size="10.00">body</text>
<text text-anchor="start" x="630.5" y="-366" font-family="Arial" font-size="8.00" fill="#94a3b8">  Problem</text>
<text text-anchor="start" x="665.5" y="-366" font-family="Arial" font-size="8.00"> ← $invocation_outcome.result</text>
<polygon fill="none" stroke="#dc2626" points="603,-357 603,-449 780,-449 780,-357 603,-357"/>
</g>
<!-- external_interface_invocation_command_project_approve&#45;&gt;external_interface_response_external_interface_api_project_approve_authentication_required -->
<g id="edge4" class="edge">
<title>external_interface_invocation_command_project_approve&#45;&gt;external_interface_response_external_interface_api_project_approve_authentication_required</title>
<path fill="none" stroke="#3f3f46" d="M542.16,-369.67C559.64,-373.59 577.46,-377.6 594.4,-381.4"/>
<polygon fill="#3f3f46" stroke="#3f3f46" points="594.22,-384.23 602.64,-383.26 595.45,-378.77 594.22,-384.23"/>
</g>
<!-- external_interface_response_external_interface_api_project_approve_not_found -->
<g id="node6" class="node">
<title>external_interface_response_external_interface_api_project_approve_not_found</title>
<polygon fill="#ffffff" stroke="transparent" points="603,-238 603,-330 780,-330 780,-238 603,-238"/>
<polygon fill="#dc2626" stroke="transparent" points="604.5,-321 604.5,-329 779.5,-329 779.5,-321 604.5,-321"/>
<polygon fill="#fef2f2" stroke="transparent" points="604.5,-290 604.5,-321 779.5,-321 779.5,-290 604.5,-290"/>
<text text-anchor="start" x="608.5" y="-307.6" font-family="Arial" font-weight="bold" font-size="13.00">not_found</text>
<text text-anchor="start" x="608.5" y="-296.6" font-family="Arial" font-size="8.00" fill="#64748b">failure response</text>
<text text-anchor="start" x="609.5" y="-278" font-family="Arial" font-weight="bold" font-size="10.00">status:</text>
<text text-anchor="start" x="640.5" y="-278" font-family="Arial" font-size="10.00">  404</text>
<text text-anchor="start" x="608.5" y="-258" font-family="Arial" font-weight="bold" font-size="10.00">body</text>
<text text-anchor="start" x="608.5" y="-247" font-family="Arial" font-size="10.00">body</text>
<text text-anchor="start" x="630.5" y="-247" font-family="Arial" font-size="8.00" fill="#94a3b8">  Problem</text>
<text text-anchor="start" x="665.5" y="-247" font-family="Arial" font-size="8.00"> ← $invocation_outcome.result</text>
<polygon fill="none" stroke="#dc2626" points="603,-238 603,-330 780,-330 780,-238 603,-238"/>
</g>
<!-- external_interface_invocation_command_project_approve&#45;&gt;external_interface_response_external_interface_api_project_approve_not_found -->
<g id="edge5" class="edge">
<title>external_interface_invocation_command_project_approve&#45;&gt;external_interface_response_external_interface_api_project_approve_not_found</title>
<path fill="none" stroke="#3f3f46" d="M542.16,-316.78C559.64,-312.92 577.46,-308.98 594.4,-305.24"/>
<polygon fill="#3f3f46" stroke="#3f3f46" points="595.44,-307.87 602.64,-303.41 594.23,-302.41 595.44,-307.87"/>
</g>
<!-- external_interface_response_external_interface_api_project_approve_transition_not_allowed -->
<g id="node7" class="node">
<title>external_interface_response_external_interface_api_project_approve_transition_not_allowed</title>
<polygon fill="#ffffff" stroke="transparent" points="603,-119 603,-211 780,-211 780,-119 603,-119"/>
<polygon fill="#dc2626" stroke="transparent" points="604.5,-202 604.5,-210 779.5,-210 779.5,-202 604.5,-202"/>
<polygon fill="#fef2f2" stroke="transparent" points="604.5,-171 604.5,-202 779.5,-202 779.5,-171 604.5,-171"/>
<text text-anchor="start" x="608.5" y="-188.6" font-family="Arial" font-weight="bold" font-size="13.00">transition_not_allowed</text>
<text text-anchor="start" x="608.5" y="-177.6" font-family="Arial" font-size="8.00" fill="#64748b">failure response</text>
<text text-anchor="start" x="609.5" y="-159" font-family="Arial" font-weight="bold" font-size="10.00">status:</text>
<text text-anchor="start" x="640.5" y="-159" font-family="Arial" font-size="10.00">  409</text>
<text text-anchor="start" x="608.5" y="-139" font-family="Arial" font-weight="bold" font-size="10.00">body</text>
<text text-anchor="start" x="608.5" y="-128" font-family="Arial" font-size="10.00">body</text>
<text text-anchor="start" x="630.5" y="-128" font-family="Arial" font-size="8.00" fill="#94a3b8">  Problem</text>
<text text-anchor="start" x="665.5" y="-128" font-family="Arial" font-size="8.00"> ← $invocation_outcome.result</text>
<polygon fill="none" stroke="#dc2626" points="603,-119 603,-211 780,-211 780,-119 603,-119"/>
</g>
<!-- external_interface_invocation_command_project_approve&#45;&gt;external_interface_response_external_interface_api_project_approve_transition_not_allowed -->
<g id="edge6" class="edge">
<title>external_interface_invocation_command_project_approve&#45;&gt;external_interface_response_external_interface_api_project_approve_transition_not_allowed</title>
<path fill="none" stroke="#3f3f46" d="M523.3,-276.47C553.47,-256.35 586.09,-234.6 614.45,-215.7"/>
<polygon fill="#3f3f46" stroke="#3f3f46" points="616.08,-217.98 621.18,-211.21 612.97,-213.32 616.08,-217.98"/>
</g>
<!-- external_interface_response_external_interface_api_project_approve_unavailable -->
<g id="node8" class="node">
<title>external_interface_response_external_interface_api_project_approve_unavailable</title>
<polygon fill="#ffffff" stroke="transparent" points="603,0 603,-92 780,-92 780,0 603,0"/>
<polygon fill="#dc2626" stroke="transparent" points="604.5,-83 604.5,-91 779.5,-91 779.5,-83 604.5,-83"/>
<polygon fill="#fef2f2" stroke="transparent" points="604.5,-52 604.5,-83 779.5,-83 779.5,-52 604.5,-52"/>
<text text-anchor="start" x="608.5" y="-69.6" font-family="Arial" font-weight="bold" font-size="13.00">unavailable</text>
<text text-anchor="start" x="608.5" y="-58.6" font-family="Arial" font-size="8.00" fill="#64748b">failure response</text>
<text text-anchor="start" x="609.5" y="-40" font-family="Arial" font-weight="bold" font-size="10.00">status:</text>
<text text-anchor="start" x="640.5" y="-40" font-family="Arial" font-size="10.00">  503</text>
<text text-anchor="start" x="608.5" y="-20" font-family="Arial" font-weight="bold" font-size="10.00">body</text>
<text text-anchor="start" x="608.5" y="-9" font-family="Arial" font-size="10.00">body</text>
<text text-anchor="start" x="630.5" y="-9" font-family="Arial" font-size="8.00" fill="#94a3b8">  Problem</text>
<text text-anchor="start" x="665.5" y="-9" font-family="Arial" font-size="8.00"> ← $invocation_outcome.result</text>
<polygon fill="none" stroke="#dc2626" points="603,0 603,-92 780,-92 780,0 603,0"/>
</g>
<!-- external_interface_invocation_command_project_approve&#45;&gt;external_interface_response_external_interface_api_project_approve_unavailable -->
<g id="edge7" class="edge">
<title>external_interface_invocation_command_project_approve&#45;&gt;external_interface_response_external_interface_api_project_approve_unavailable</title>
<path fill="none" stroke="#3f3f46" d="M465.45,-276.32C498.97,-226.12 549.13,-157.39 603,-106 605.93,-103.21 609,-100.45 612.16,-97.75"/>
<polygon fill="#3f3f46" stroke="#3f3f46" points="614.4,-99.53 618.78,-92.27 610.83,-95.21 614.4,-99.53"/>
</g>
<!-- external_interface_response_external_interface_api_project_approve_access_denied&#45;&gt;external_interface_response_external_interface_api_project_approve_approved -->
<!-- external_interface_response_external_interface_api_project_approve_approved&#45;&gt;external_interface_response_external_interface_api_project_approve_authentication_required -->
<!-- external_interface_response_external_interface_api_project_approve_authentication_required&#45;&gt;external_interface_response_external_interface_api_project_approve_not_found -->
<!-- external_interface_response_external_interface_api_project_approve_not_found&#45;&gt;external_interface_response_external_interface_api_project_approve_transition_not_allowed -->
<!-- external_interface_response_external_interface_api_project_approve_transition_not_allowed&#45;&gt;external_interface_response_external_interface_api_project_approve_unavailable -->
</g>
</svg>
