<svg width="1044pt" height="211pt"
 viewBox="0.00 0.00 1044.00 211.00" xmlns="http://www.w3.org/2000/svg" xmlns:xlink="http://www.w3.org/1999/xlink">
<g id="graph0" class="graph" transform="scale(1 1) rotate(0) translate(18 193)">
<title>composition_fsm_project_board_ready</title>
<!-- fsm_instance_list -->
<g id="node1" class="node">
<title>fsm_instance_list</title>
<polygon fill="#ffffff" stroke="transparent" points="0,-50 0,-124 126,-124 126,-50 0,-50"/>
<polygon fill="#047857" stroke="transparent" points="1,-115 1,-123 125,-123 125,-115 1,-115"/>
<polygon fill="#ecfdf5" stroke="transparent" points="1,-84 1,-115 125,-115 125,-84 1,-84"/>
<text text-anchor="start" x="5" y="-101.6" font-family="Arial" font-weight="bold" font-size="13.00">nav</text>
<text text-anchor="start" x="5" y="-90.6" font-family="Arial" font-size="8.00" fill="#64748b">region</text>
<text text-anchor="start" x="6" y="-72" font-family="Arial" font-weight="bold" font-size="10.00">instance:</text>
<text text-anchor="start" x="49" y="-72" font-family="Arial" font-size="10.00">  fsm.project.list</text>
<text text-anchor="start" x="6" y="-60" font-family="Arial" font-weight="bold" font-size="10.00">initial:</text>
<text text-anchor="start" x="36" y="-60" font-family="Arial" font-size="10.00">  loading</text>
<polygon fill="none" stroke="#047857" points="0,-50 0,-124 126,-124 126,-50 0,-50"/>
</g>
<!-- message_emit_select_project_updates_fsms_list_project_selected -->
<g id="node4" class="node">
<title>message_emit_select_project_updates_fsms_list_project_selected</title>
<polygon fill="#ffffff" stroke="transparent" points="187,-50 187,-124 300,-124 300,-50 187,-50"/>
<polygon fill="#4f46e5" stroke="transparent" points="188.5,-115 188.5,-123 299.5,-123 299.5,-115 188.5,-115"/>
<polygon fill="#eef2ff" stroke="transparent" points="188.5,-84 188.5,-115 299.5,-115 299.5,-84 188.5,-84"/>
<text text-anchor="start" x="192.5" y="-101.6" font-family="Arial" font-weight="bold" font-size="13.00">project.selected</text>
<text text-anchor="start" x="192.5" y="-90.6" font-family="Arial" font-size="8.00" fill="#64748b">emitted message</text>
<text text-anchor="start" x="193.5" y="-72" font-family="Arial" font-weight="bold" font-size="10.00">source:</text>
<text text-anchor="start" x="228.5" y="-72" font-family="Arial" font-size="10.00">  project.select</text>
<text text-anchor="start" x="193.5" y="-60" font-family="Arial" font-weight="bold" font-size="10.00">data:</text>
<text text-anchor="start" x="216.5" y="-60" font-family="Arial" font-size="10.00">  project_id</text>
<text text-anchor="start" x="265.5" y="-60" font-family="Arial" font-size="8.00" fill="#94a3b8">  ID</text>
<polygon fill="none" stroke="#4f46e5" points="187,-50 187,-124 300,-124 300,-50 187,-50"/>
</g>
<!-- fsm_instance_list&#45;&gt;message_emit_select_project_updates_fsms_list_project_selected -->
<g id="edge2" class="edge">
<title>fsm_instance_list&#45;&gt;message_emit_select_project_updates_fsms_list_project_selected</title>
<path fill="none" stroke="#4f46e5" stroke-width="1.4" d="M126.18,-87C143.13,-87 161.51,-87 178.56,-87"/>
<polygon fill="#4f46e5" stroke="#4f46e5" stroke-width="1.4" points="178.8,-89.8 186.8,-87 178.8,-84.2 178.8,-89.8"/>
</g>
<!-- fsm_instance_detail -->
<g id="node2" class="node">
<title>fsm_instance_detail</title>
<polygon fill="#ffffff" stroke="transparent" points="867,-101 867,-175 1004,-175 1004,-101 867,-101"/>
<polygon fill="#047857" stroke="transparent" points="868.5,-166 868.5,-174 1003.5,-174 1003.5,-166 868.5,-166"/>
<polygon fill="#ecfdf5" stroke="transparent" points="868.5,-135 868.5,-166 1003.5,-166 1003.5,-135 868.5,-135"/>
<text text-anchor="start" x="872.5" y="-152.6" font-family="Arial" font-weight="bold" font-size="13.00">main</text>
<text text-anchor="start" x="872.5" y="-141.6" font-family="Arial" font-size="8.00" fill="#64748b">region</text>
<text text-anchor="start" x="873.5" y="-123" font-family="Arial" font-weight="bold" font-size="10.00">instance:</text>
<text text-anchor="start" x="916.5" y="-123" font-family="Arial" font-size="10.00">  fsm.project.detail</text>
<text text-anchor="start" x="873.5" y="-111" font-family="Arial" font-weight="bold" font-size="10.00">initial:</text>
<text text-anchor="start" x="903.5" y="-111" font-family="Arial" font-size="10.00">  none</text>
<polygon fill="none" stroke="#047857" points="867,-101 867,-175 1004,-175 1004,-101 867,-101"/>
</g>
<!-- fsm_instance_activity -->
<g id="node3" class="node">
<title>fsm_instance_activity</title>
<polygon fill="#ffffff" stroke="transparent" points="863,0 863,-74 1008,-74 1008,0 863,0"/>
<polygon fill="#047857" stroke="transparent" points="864.5,-65 864.5,-73 1007.5,-73 1007.5,-65 864.5,-65"/>
<polygon fill="#ecfdf5" stroke="transparent" points="864.5,-34 864.5,-65 1007.5,-65 1007.5,-34 864.5,-34"/>
<text text-anchor="start" x="868.5" y="-51.6" font-family="Arial" font-weight="bold" font-size="13.00">aside</text>
<text text-anchor="start" x="868.5" y="-40.6" font-family="Arial" font-size="8.00" fill="#64748b">region</text>
<text text-anchor="start" x="869.5" y="-22" font-family="Arial" font-weight="bold" font-size="10.00">instance:</text>
<text text-anchor="start" x="912.5" y="-22" font-family="Arial" font-size="10.00">  fsm.project.activity</text>
<text text-anchor="start" x="869.5" y="-10" font-family="Arial" font-weight="bold" font-size="10.00">initial:</text>
<text text-anchor="start" x="899.5" y="-10" font-family="Arial" font-size="10.00">  empty</text>
<polygon fill="none" stroke="#047857" points="863,0 863,-74 1008,-74 1008,0 863,0"/>
</g>
<!-- message_route_select_project_updates_fsms -->
<g id="node5" class="node">
<title>message_route_select_project_updates_fsms</title>
<polygon fill="#ffffff" stroke="transparent" points="361,-56 361,-118 560,-118 560,-56 361,-56"/>
<polygon fill="#a16207" stroke="transparent" points="362.5,-109 362.5,-117 559.5,-117 559.5,-109 362.5,-109"/>
<polygon fill="#fefce8" stroke="transparent" points="362.5,-78 362.5,-109 559.5,-109 559.5,-78 362.5,-78"/>
<text text-anchor="start" x="366.5" y="-95.6" font-family="Arial" font-weight="bold" font-size="13.00">select_project_updates_fsms</text>
<text text-anchor="start" x="366.5" y="-84.6" font-family="Arial" font-size="8.00" fill="#64748b">message route</text>
<text text-anchor="start" x="367.5" y="-66" font-family="Arial" font-weight="bold" font-size="10.00">set:</text>
<text text-anchor="start" x="384.5" y="-66" font-family="Arial" font-size="10.00">  selected_project_id</text>
<text text-anchor="start" x="475.5" y="-66" font-family="Arial" font-size="8.00" fill="#94a3b8">  ID</text>
<text text-anchor="start" x="488.5" y="-66" font-family="Arial" font-size="10.00"> &lt;&#45; project_id</text>
<polygon fill="none" stroke="#a16207" points="361,-56 361,-118 560,-118 560,-56 361,-56"/>
</g>
<!-- message_emit_select_project_updates_fsms_list_project_selected&#45;&gt;message_route_select_project_updates_fsms -->
<g id="edge3" class="edge">
<title>message_emit_select_project_updates_fsms_list_project_selected&#45;&gt;message_route_select_project_updates_fsms</title>
<path fill="none" stroke="#4f46e5" stroke-width="1.2" d="M300.15,-87C316.22,-87 334.34,-87 352.43,-87"/>
<polygon fill="#4f46e5" stroke="#4f46e5" stroke-width="1.2" points="352.74,-89.8 360.74,-87 352.74,-84.2 352.74,-89.8"/>
</g>
<!-- message_effect_select_project_updates_fsms_1 -->
<g id="node6" class="node">
<title>message_effect_select_project_updates_fsms_1</title>
<polygon fill="#ffffff" stroke="transparent" points="621,-101 621,-175 802,-175 802,-101 621,-101"/>
<polygon fill="#be185d" stroke="transparent" points="622.5,-166 622.5,-174 801.5,-174 801.5,-166 622.5,-166"/>
<polygon fill="#fdf2f8" stroke="transparent" points="622.5,-135 622.5,-166 801.5,-166 801.5,-135 622.5,-135"/>
<text text-anchor="start" x="626.5" y="-152.6" font-family="Arial" font-weight="bold" font-size="13.00">project.selection_changed</text>
<text text-anchor="start" x="626.5" y="-141.6" font-family="Arial" font-size="8.00" fill="#64748b">sent message</text>
<text text-anchor="start" x="627.5" y="-123" font-family="Arial" font-weight="bold" font-size="10.00">causes:</text>
<text text-anchor="start" x="663.5" y="-123" font-family="Arial" font-size="10.00">  to loading</text>
<text text-anchor="start" x="627.5" y="-111" font-family="Arial" font-weight="bold" font-size="10.00">data:</text>
<text text-anchor="start" x="650.5" y="-111" font-family="Arial" font-size="10.00">  project_id</text>
<text text-anchor="start" x="699.5" y="-111" font-family="Arial" font-size="8.00" fill="#94a3b8">  ID</text>
<polygon fill="none" stroke="#be185d" points="621,-101 621,-175 802,-175 802,-101 621,-101"/>
</g>
<!-- message_route_select_project_updates_fsms&#45;&gt;message_effect_select_project_updates_fsms_1 -->
<g id="edge4" class="edge">
<title>message_route_select_project_updates_fsms&#45;&gt;message_effect_select_project_updates_fsms_1</title>
<path fill="none" stroke="#be185d" stroke-width="1.3" d="M560.27,-107.23C577.58,-110.77 595.58,-114.46 612.86,-118"/>
<polygon fill="#be185d" stroke="#be185d" stroke-width="1.3" points="612.34,-120.75 620.74,-119.62 613.47,-115.27 612.34,-120.75"/>
</g>
<!-- message_effect_select_project_updates_fsms_2 -->
<g id="node7" class="node">
<title>message_effect_select_project_updates_fsms_2</title>
<polygon fill="#ffffff" stroke="transparent" points="621,0 621,-74 802,-74 802,0 621,0"/>
<polygon fill="#be185d" stroke="transparent" points="622.5,-65 622.5,-73 801.5,-73 801.5,-65 622.5,-65"/>
<polygon fill="#fdf2f8" stroke="transparent" points="622.5,-34 622.5,-65 801.5,-65 801.5,-34 622.5,-34"/>
<text text-anchor="start" x="626.5" y="-51.6" font-family="Arial" font-weight="bold" font-size="13.00">project.selection_changed</text>
<text text-anchor="start" x="626.5" y="-40.6" font-family="Arial" font-size="8.00" fill="#64748b">sent message</text>
<text text-anchor="start" x="627.5" y="-22" font-family="Arial" font-weight="bold" font-size="10.00">causes:</text>
<text text-anchor="start" x="663.5" y="-22" font-family="Arial" font-size="10.00">  to ready</text>
<text text-anchor="start" x="627.5" y="-10" font-family="Arial" font-weight="bold" font-size="10.00">data:</text>
<text text-anchor="start" x="650.5" y="-10" font-family="Arial" font-size="10.00">  project_id</text>
<text text-anchor="start" x="699.5" y="-10" font-family="Arial" font-size="8.00" fill="#94a3b8">  ID</text>
<polygon fill="none" stroke="#be185d" points="621,0 621,-74 802,-74 802,0 621,0"/>
</g>
<!-- message_route_select_project_updates_fsms&#45;&gt;message_effect_select_project_updates_fsms_2 -->
<g id="edge6" class="edge">
<title>message_route_select_project_updates_fsms&#45;&gt;message_effect_select_project_updates_fsms_2</title>
<path fill="none" stroke="#be185d" stroke-width="1.3" d="M560.27,-67.17C577.58,-63.69 595.58,-60.08 612.86,-56.61"/>
<polygon fill="#be185d" stroke="#be185d" stroke-width="1.3" points="613.45,-59.34 620.74,-55.02 612.35,-53.85 613.45,-59.34"/>
</g>
<!-- message_effect_select_project_updates_fsms_1&#45;&gt;fsm_instance_detail -->
<g id="edge5" class="edge">
<title>message_effect_select_project_updates_fsms_1&#45;&gt;fsm_instance_detail</title>
<path fill="none" stroke="#be185d" stroke-width="1.4" d="M802.16,-138C820.84,-138 840.35,-138 858.48,-138"/>
<polygon fill="#be185d" stroke="#be185d" stroke-width="1.4" points="858.71,-140.8 866.71,-138 858.71,-135.2 858.71,-140.8"/>
</g>
<!-- message_effect_select_project_updates_fsms_1&#45;&gt;message_effect_select_project_updates_fsms_2 -->
<!-- message_effect_select_project_updates_fsms_2&#45;&gt;fsm_instance_activity -->
<g id="edge7" class="edge">
<title>message_effect_select_project_updates_fsms_2&#45;&gt;fsm_instance_activity</title>
<path fill="none" stroke="#be185d" stroke-width="1.4" d="M802.16,-37C819.53,-37 837.63,-37 854.66,-37"/>
<polygon fill="#be185d" stroke="#be185d" stroke-width="1.4" points="854.93,-39.8 862.93,-37 854.93,-34.2 854.93,-39.8"/>
</g>
</g>
</svg>
