<svg width="1000pt" height="211pt"
 viewBox="0.00 0.00 1000.00 211.00" xmlns="http://www.w3.org/2000/svg" xmlns:xlink="http://www.w3.org/1999/xlink">
<!-- pyspec-contract-input-sha256: 25b9795343358e39fce458f7397bd9730de5f7483dd6815a8327071e4a70d2b8 -->
<g id="graph0" class="graph" transform="scale(1 1) rotate(0) translate(18 193)">
<title>composition_fsm_project_board_ready</title>
<!-- fsm_mount_list -->
<g id="node1" class="node">
<title>fsm_mount_list</title>
<polygon fill="#ffffff" stroke="transparent" points="0,-50 0,-124 104,-124 104,-50 0,-50"/>
<polygon fill="#047857" stroke="transparent" points="1,-115 1,-123 103,-123 103,-115 1,-115"/>
<polygon fill="#ecfdf5" stroke="transparent" points="1,-84 1,-115 103,-115 103,-84 1,-84"/>
<text text-anchor="start" x="5" y="-101.6" font-family="Arial" font-weight="bold" font-size="13.00">list</text>
<text text-anchor="start" x="5" y="-90.6" font-family="Arial" font-size="8.00" fill="#64748b">nav mount</text>
<text text-anchor="start" x="6" y="-72" font-family="Arial" font-weight="bold" font-size="10.00">fsm:</text>
<text text-anchor="start" x="27" y="-72" font-family="Arial" font-size="10.00">  fsm.project.list</text>
<text text-anchor="start" x="6" y="-60" font-family="Arial" font-weight="bold" font-size="10.00">initial:</text>
<text text-anchor="start" x="36" y="-60" font-family="Arial" font-size="10.00">  loading</text>
<polygon fill="none" stroke="#047857" points="0,-50 0,-124 104,-124 104,-50 0,-50"/>
</g>
<!-- message_emit_select_project_updates_fsms_list_project_selected -->
<g id="node4" class="node">
<title>message_emit_select_project_updates_fsms_list_project_selected</title>
<polygon fill="#ffffff" stroke="transparent" points="165,-50 165,-124 278,-124 278,-50 165,-50"/>
<polygon fill="#4f46e5" stroke="transparent" points="166.5,-115 166.5,-123 277.5,-123 277.5,-115 166.5,-115"/>
<polygon fill="#eef2ff" stroke="transparent" points="166.5,-84 166.5,-115 277.5,-115 277.5,-84 166.5,-84"/>
<text text-anchor="start" x="170.5" y="-101.6" font-family="Arial" font-weight="bold" font-size="13.00">project.selected</text>
<text text-anchor="start" x="170.5" y="-90.6" font-family="Arial" font-size="8.00" fill="#64748b">emitted message</text>
<text text-anchor="start" x="171.5" y="-72" font-family="Arial" font-weight="bold" font-size="10.00">source:</text>
<text text-anchor="start" x="206.5" y="-72" font-family="Arial" font-size="10.00">  project.select</text>
<text text-anchor="start" x="171.5" y="-60" font-family="Arial" font-weight="bold" font-size="10.00">data:</text>
<text text-anchor="start" x="194.5" y="-60" font-family="Arial" font-size="10.00">  project_id</text>
<text text-anchor="start" x="243.5" y="-60" font-family="Arial" font-size="8.00" fill="#94a3b8">  ID</text>
<polygon fill="none" stroke="#4f46e5" points="165,-50 165,-124 278,-124 278,-50 165,-50"/>
</g>
<!-- fsm_mount_list&#45;&gt;message_emit_select_project_updates_fsms_list_project_selected -->
<g id="edge2" class="edge">
<title>fsm_mount_list&#45;&gt;message_emit_select_project_updates_fsms_list_project_selected</title>
<path fill="none" stroke="#4f46e5" stroke-width="1.4" d="M104.17,-87C120.7,-87 139.25,-87 156.59,-87"/>
<polygon fill="#4f46e5" stroke="#4f46e5" stroke-width="1.4" points="156.99,-89.8 164.99,-87 156.99,-84.2 156.99,-89.8"/>
</g>
<!-- fsm_mount_detail -->
<g id="node2" class="node">
<title>fsm_mount_detail</title>
<polygon fill="#ffffff" stroke="transparent" points="845,-101 845,-175 960,-175 960,-101 845,-101"/>
<polygon fill="#047857" stroke="transparent" points="846.5,-166 846.5,-174 959.5,-174 959.5,-166 846.5,-166"/>
<polygon fill="#ecfdf5" stroke="transparent" points="846.5,-135 846.5,-166 959.5,-166 959.5,-135 846.5,-135"/>
<text text-anchor="start" x="850.5" y="-152.6" font-family="Arial" font-weight="bold" font-size="13.00">detail</text>
<text text-anchor="start" x="850.5" y="-141.6" font-family="Arial" font-size="8.00" fill="#64748b">main mount</text>
<text text-anchor="start" x="851.5" y="-123" font-family="Arial" font-weight="bold" font-size="10.00">fsm:</text>
<text text-anchor="start" x="872.5" y="-123" font-family="Arial" font-size="10.00">  fsm.project.detail</text>
<text text-anchor="start" x="851.5" y="-111" font-family="Arial" font-weight="bold" font-size="10.00">initial:</text>
<text text-anchor="start" x="881.5" y="-111" font-family="Arial" font-size="10.00">  none</text>
<polygon fill="none" stroke="#047857" points="845,-101 845,-175 960,-175 960,-101 845,-101"/>
</g>
<!-- fsm_mount_activity -->
<g id="node3" class="node">
<title>fsm_mount_activity</title>
<polygon fill="#ffffff" stroke="transparent" points="841,0 841,-74 964,-74 964,0 841,0"/>
<polygon fill="#047857" stroke="transparent" points="842.5,-65 842.5,-73 963.5,-73 963.5,-65 842.5,-65"/>
<polygon fill="#ecfdf5" stroke="transparent" points="842.5,-34 842.5,-65 963.5,-65 963.5,-34 842.5,-34"/>
<text text-anchor="start" x="846.5" y="-51.6" font-family="Arial" font-weight="bold" font-size="13.00">activity</text>
<text text-anchor="start" x="846.5" y="-40.6" font-family="Arial" font-size="8.00" fill="#64748b">aside mount</text>
<text text-anchor="start" x="847.5" y="-22" font-family="Arial" font-weight="bold" font-size="10.00">fsm:</text>
<text text-anchor="start" x="868.5" y="-22" font-family="Arial" font-size="10.00">  fsm.project.activity</text>
<text text-anchor="start" x="847.5" y="-10" font-family="Arial" font-weight="bold" font-size="10.00">initial:</text>
<text text-anchor="start" x="877.5" y="-10" font-family="Arial" font-size="10.00">  empty</text>
<polygon fill="none" stroke="#047857" points="841,0 841,-74 964,-74 964,0 841,0"/>
</g>
<!-- message_route_select_project_updates_fsms -->
<g id="node5" class="node">
<title>message_route_select_project_updates_fsms</title>
<polygon fill="#ffffff" stroke="transparent" points="339,-56 339,-118 538,-118 538,-56 339,-56"/>
<polygon fill="#a16207" stroke="transparent" points="340.5,-109 340.5,-117 537.5,-117 537.5,-109 340.5,-109"/>
<polygon fill="#fefce8" stroke="transparent" points="340.5,-78 340.5,-109 537.5,-109 537.5,-78 340.5,-78"/>
<text text-anchor="start" x="344.5" y="-95.6" font-family="Arial" font-weight="bold" font-size="13.00">select_project_updates_fsms</text>
<text text-anchor="start" x="344.5" y="-84.6" font-family="Arial" font-size="8.00" fill="#64748b">message route</text>
<text text-anchor="start" x="345.5" y="-66" font-family="Arial" font-weight="bold" font-size="10.00">set:</text>
<text text-anchor="start" x="362.5" y="-66" font-family="Arial" font-size="10.00">  selected_project_id</text>
<text text-anchor="start" x="453.5" y="-66" font-family="Arial" font-size="8.00" fill="#94a3b8">  ID</text>
<text text-anchor="start" x="466.5" y="-66" font-family="Arial" font-size="8.00"> ← project_id</text>
<polygon fill="none" stroke="#a16207" points="339,-56 339,-118 538,-118 538,-56 339,-56"/>
</g>
<!-- message_emit_select_project_updates_fsms_list_project_selected&#45;&gt;message_route_select_project_updates_fsms -->
<g id="edge3" class="edge">
<title>message_emit_select_project_updates_fsms_list_project_selected&#45;&gt;message_route_select_project_updates_fsms</title>
<path fill="none" stroke="#4f46e5" stroke-width="1.2" d="M278.15,-87C294.22,-87 312.34,-87 330.43,-87"/>
<polygon fill="#4f46e5" stroke="#4f46e5" stroke-width="1.2" points="330.74,-89.8 338.74,-87 330.74,-84.2 330.74,-89.8"/>
</g>
<!-- message_effect_select_project_updates_fsms_1 -->
<g id="node6" class="node">
<title>message_effect_select_project_updates_fsms_1</title>
<polygon fill="#ffffff" stroke="transparent" points="599,-101 599,-175 780,-175 780,-101 599,-101"/>
<polygon fill="#be185d" stroke="transparent" points="600.5,-166 600.5,-174 779.5,-174 779.5,-166 600.5,-166"/>
<polygon fill="#fdf2f8" stroke="transparent" points="600.5,-135 600.5,-166 779.5,-166 779.5,-135 600.5,-135"/>
<text text-anchor="start" x="604.5" y="-152.6" font-family="Arial" font-weight="bold" font-size="13.00">project.selection_changed</text>
<text text-anchor="start" x="604.5" y="-141.6" font-family="Arial" font-size="8.00" fill="#64748b">sent message</text>
<text text-anchor="start" x="605.5" y="-123" font-family="Arial" font-weight="bold" font-size="10.00">causes:</text>
<text text-anchor="start" x="641.5" y="-123" font-family="Arial" font-size="10.00">  to loading</text>
<text text-anchor="start" x="605.5" y="-111" font-family="Arial" font-weight="bold" font-size="10.00">data:</text>
<text text-anchor="start" x="628.5" y="-111" font-family="Arial" font-size="10.00">  project_id</text>
<text text-anchor="start" x="677.5" y="-111" font-family="Arial" font-size="8.00" fill="#94a3b8">  ID</text>
<polygon fill="none" stroke="#be185d" points="599,-101 599,-175 780,-175 780,-101 599,-101"/>
</g>
<!-- message_route_select_project_updates_fsms&#45;&gt;message_effect_select_project_updates_fsms_1 -->
<g id="edge4" class="edge">
<title>message_route_select_project_updates_fsms&#45;&gt;message_effect_select_project_updates_fsms_1</title>
<path fill="none" stroke="#be185d" stroke-width="1.3" d="M538.27,-107.23C555.58,-110.77 573.58,-114.46 590.86,-118"/>
<polygon fill="#be185d" stroke="#be185d" stroke-width="1.3" points="590.34,-120.75 598.74,-119.62 591.47,-115.27 590.34,-120.75"/>
</g>
<!-- message_effect_select_project_updates_fsms_2 -->
<g id="node7" class="node">
<title>message_effect_select_project_updates_fsms_2</title>
<polygon fill="#ffffff" stroke="transparent" points="599,0 599,-74 780,-74 780,0 599,0"/>
<polygon fill="#be185d" stroke="transparent" points="600.5,-65 600.5,-73 779.5,-73 779.5,-65 600.5,-65"/>
<polygon fill="#fdf2f8" stroke="transparent" points="600.5,-34 600.5,-65 779.5,-65 779.5,-34 600.5,-34"/>
<text text-anchor="start" x="604.5" y="-51.6" font-family="Arial" font-weight="bold" font-size="13.00">project.selection_changed</text>
<text text-anchor="start" x="604.5" y="-40.6" font-family="Arial" font-size="8.00" fill="#64748b">sent message</text>
<text text-anchor="start" x="605.5" y="-22" font-family="Arial" font-weight="bold" font-size="10.00">causes:</text>
<text text-anchor="start" x="641.5" y="-22" font-family="Arial" font-size="10.00">  to ready</text>
<text text-anchor="start" x="605.5" y="-10" font-family="Arial" font-weight="bold" font-size="10.00">data:</text>
<text text-anchor="start" x="628.5" y="-10" font-family="Arial" font-size="10.00">  project_id</text>
<text text-anchor="start" x="677.5" y="-10" font-family="Arial" font-size="8.00" fill="#94a3b8">  ID</text>
<polygon fill="none" stroke="#be185d" points="599,0 599,-74 780,-74 780,0 599,0"/>
</g>
<!-- message_route_select_project_updates_fsms&#45;&gt;message_effect_select_project_updates_fsms_2 -->
<g id="edge6" class="edge">
<title>message_route_select_project_updates_fsms&#45;&gt;message_effect_select_project_updates_fsms_2</title>
<path fill="none" stroke="#be185d" stroke-width="1.3" d="M538.27,-67.17C555.58,-63.69 573.58,-60.08 590.86,-56.61"/>
<polygon fill="#be185d" stroke="#be185d" stroke-width="1.3" points="591.45,-59.34 598.74,-55.02 590.35,-53.85 591.45,-59.34"/>
</g>
<!-- message_effect_select_project_updates_fsms_1&#45;&gt;fsm_mount_detail -->
<g id="edge5" class="edge">
<title>message_effect_select_project_updates_fsms_1&#45;&gt;fsm_mount_detail</title>
<path fill="none" stroke="#be185d" stroke-width="1.4" d="M780.29,-138C799.26,-138 818.92,-138 836.74,-138"/>
<polygon fill="#be185d" stroke="#be185d" stroke-width="1.4" points="836.8,-140.8 844.8,-138 836.8,-135.2 836.8,-140.8"/>
</g>
<!-- message_effect_select_project_updates_fsms_1&#45;&gt;message_effect_select_project_updates_fsms_2 -->
<!-- message_effect_select_project_updates_fsms_2&#45;&gt;fsm_mount_activity -->
<g id="edge7" class="edge">
<title>message_effect_select_project_updates_fsms_2&#45;&gt;fsm_mount_activity</title>
<path fill="none" stroke="#be185d" stroke-width="1.4" d="M780.29,-37C797.83,-37 815.97,-37 832.7,-37"/>
<polygon fill="#be185d" stroke="#be185d" stroke-width="1.4" points="832.79,-39.8 840.79,-37 832.79,-34.2 832.79,-39.8"/>
</g>
</g>
</svg>
