<svg width="938pt" height="312pt"
 viewBox="0.00 0.00 938.00 312.00" xmlns="http://www.w3.org/2000/svg" xmlns:xlink="http://www.w3.org/1999/xlink">
<g id="graph0" class="graph" transform="scale(1 1) rotate(0) translate(18 294)">
<title>entrypoint_textual_project_board</title>
<!-- entry_start -->
<g id="node1" class="node">
<title>entry_start</title>
<ellipse fill="none" stroke="#0891b2" cx="21" cy="-138" rx="21" ry="21"/>
<text text-anchor="middle" x="21" y="-135.8" font-family="Arial" font-size="9.00" fill="#155e75">entry</text>
</g>
<!-- entrypoint_textual_project_board -->
<g id="node2" class="node">
<title>entrypoint_textual_project_board</title>
<polygon fill="#ffffff" stroke="transparent" points="103,-97.5 103,-178.5 270,-178.5 270,-97.5 103,-97.5"/>
<polygon fill="#0891b2" stroke="transparent" points="104.5,-169 104.5,-177 269.5,-177 269.5,-169 104.5,-169"/>
<polygon fill="#ecfeff" stroke="transparent" points="104.5,-138 104.5,-169 269.5,-169 269.5,-138 104.5,-138"/>
<text text-anchor="start" x="108.5" y="-155.6" font-family="Arial" font-weight="bold" font-size="13.00">project board</text>
<text text-anchor="start" x="108.5" y="-144.6" font-family="Arial" font-size="8.00" fill="#64748b">textual entry</text>
<text text-anchor="start" x="108.5" y="-127" font-family="Arial" font-style="italic" font-size="10.00" fill="#3f3f46">Textual entry for the dispatch board.</text>
<text text-anchor="start" x="109.5" y="-107" font-family="Arial" font-weight="bold" font-size="10.00">screen:</text>
<text text-anchor="start" x="143.5" y="-107" font-family="Arial" font-size="10.00">  screen.project.board</text>
<polygon fill="none" stroke="#0891b2" points="103,-97.5 103,-178.5 270,-178.5 270,-97.5 103,-97.5"/>
</g>
<!-- entry_start&#45;&gt;entrypoint_textual_project_board -->
<g id="edge1" class="edge">
<title>entry_start&#45;&gt;entrypoint_textual_project_board</title>
<path fill="none" stroke="#3f3f46" d="M42.05,-138C55.69,-138 74.81,-138 94.65,-138"/>
<polygon fill="#3f3f46" stroke="#3f3f46" points="94.88,-140.8 102.88,-138 94.88,-135.2 94.88,-140.8"/>
</g>
<!-- entrypoint_input_textual_project_board -->
<g id="node3" class="node">
<title>entrypoint_input_textual_project_board</title>
<polygon fill="#ffffff" stroke="transparent" points="331,-102.5 331,-173.5 415,-173.5 415,-102.5 331,-102.5"/>
<polygon fill="#64748b" stroke="transparent" points="332,-164 332,-172 414,-172 414,-164 332,-164"/>
<polygon fill="#f8fafc" stroke="transparent" points="332,-133 332,-164 414,-164 414,-133 332,-133"/>
<text text-anchor="start" x="336" y="-150.6" font-family="Arial" font-weight="bold" font-size="13.00">entry input</text>
<text text-anchor="start" x="336" y="-139.6" font-family="Arial" font-size="8.00" fill="#64748b">external data</text>
<text text-anchor="start" x="336" y="-122" font-family="Arial" font-weight="bold" font-size="10.00">args</text>
<text text-anchor="start" x="336" y="-111" font-family="Arial" font-size="10.00">workspace_id</text>
<text text-anchor="start" x="397" y="-111" font-family="Arial" font-size="8.00" fill="#94a3b8">  ID</text>
<polygon fill="none" stroke="#64748b" points="331,-102.5 331,-173.5 415,-173.5 415,-102.5 331,-102.5"/>
</g>
<!-- entrypoint_textual_project_board&#45;&gt;entrypoint_input_textual_project_board -->
<g id="edge2" class="edge">
<title>entrypoint_textual_project_board&#45;&gt;entrypoint_input_textual_project_board</title>
<path fill="none" stroke="#3f3f46" d="M270.04,-138C288.01,-138 306.48,-138 322.68,-138"/>
<polygon fill="#3f3f46" stroke="#3f3f46" points="322.93,-140.8 330.93,-138 322.93,-135.2 322.93,-140.8"/>
</g>
<!-- entrypoint_target_project_board -->
<g id="node4" class="node">
<title>entrypoint_target_project_board</title>
<polygon fill="#ffffff" stroke="transparent" points="476,-62.5 476,-213.5 689,-213.5 689,-62.5 476,-62.5"/>
<polygon fill="#047857" stroke="transparent" points="477.5,-204 477.5,-212 688.5,-212 688.5,-204 477.5,-204"/>
<polygon fill="#ecfdf5" stroke="transparent" points="477.5,-173 477.5,-204 688.5,-204 688.5,-173 477.5,-173"/>
<text text-anchor="start" x="481.5" y="-190.6" font-family="Arial" font-weight="bold" font-size="13.00">project.board</text>
<text text-anchor="start" x="481.5" y="-179.6" font-family="Arial" font-size="8.00" fill="#64748b">target view</text>
<text text-anchor="start" x="481.5" y="-162" font-family="Arial" font-style="italic" font-size="10.00" fill="#3f3f46">The dispatch board composes list, detail, and</text>
<text text-anchor="start" x="481.5" y="-151" font-family="Arial" font-style="italic" font-size="10.00" fill="#3f3f46">activity panels through shared selected&#45;project</text>
<text text-anchor="start" x="481.5" y="-140" font-family="Arial" font-style="italic" font-size="10.00" fill="#3f3f46">context.</text>
<text text-anchor="start" x="482.5" y="-120" font-family="Arial" font-weight="bold" font-size="10.00">input:</text>
<text text-anchor="start" x="510.5" y="-120" font-family="Arial" font-size="10.00">  workspace_id</text>
<text text-anchor="start" x="577.5" y="-120" font-family="Arial" font-size="8.00" fill="#94a3b8">  ID</text>
<text text-anchor="start" x="482.5" y="-108" font-family="Arial" font-weight="bold" font-size="10.00">query:</text>
<text text-anchor="start" x="512.5" y="-108" font-family="Arial" font-size="10.00">  query.project.board.list</text>
<text text-anchor="start" x="482.5" y="-96" font-family="Arial" font-weight="bold" font-size="10.00">load:</text>
<text text-anchor="start" x="506.5" y="-96" font-family="Arial" font-size="10.00">  project.list</text>
<text text-anchor="start" x="558.5" y="-96" font-family="Arial" font-size="8.00" fill="#94a3b8">  list[Project]</text>
<text text-anchor="start" x="482.5" y="-84" font-family="Arial" font-weight="bold" font-size="10.00">resource:</text>
<text text-anchor="start" x="526.5" y="-84" font-family="Arial" font-size="10.00">  Project</text>
<text text-anchor="start" x="482.5" y="-72" font-family="Arial" font-weight="bold" font-size="10.00">sync:</text>
<text text-anchor="start" x="507.5" y="-72" font-family="Arial" font-size="10.00">  select_project_updates_panels</text>
<polygon fill="none" stroke="#047857" points="476,-62.5 476,-213.5 689,-213.5 689,-62.5 476,-62.5"/>
</g>
<!-- entrypoint_input_textual_project_board&#45;&gt;entrypoint_target_project_board -->
<g id="edge3" class="edge">
<title>entrypoint_input_textual_project_board&#45;&gt;entrypoint_target_project_board</title>
<path fill="none" stroke="#3f3f46" d="M415.49,-138C430.81,-138 449,-138 467.62,-138"/>
<polygon fill="#3f3f46" stroke="#3f3f46" points="467.63,-140.8 475.63,-138 467.63,-135.2 467.63,-140.8"/>
</g>
<!-- entrypoint_instance_project_board_list -->
<g id="node5" class="node">
<title>entrypoint_instance_project_board_list</title>
<polygon fill="#ffffff" stroke="transparent" points="759.5,-202 759.5,-276 892.5,-276 892.5,-202 759.5,-202"/>
<polygon fill="#047857" stroke="transparent" points="761,-267 761,-275 892,-275 892,-267 761,-267"/>
<polygon fill="#ecfdf5" stroke="transparent" points="761,-236 761,-267 892,-267 892,-236 761,-236"/>
<text text-anchor="start" x="765" y="-253.6" font-family="Arial" font-weight="bold" font-size="13.00">nav</text>
<text text-anchor="start" x="765" y="-242.6" font-family="Arial" font-size="8.00" fill="#64748b">region</text>
<text text-anchor="start" x="766" y="-224" font-family="Arial" font-weight="bold" font-size="10.00">instance:</text>
<text text-anchor="start" x="809" y="-224" font-family="Arial" font-size="10.00">  panel.project.list</text>
<text text-anchor="start" x="766" y="-212" font-family="Arial" font-weight="bold" font-size="10.00">initial:</text>
<text text-anchor="start" x="796" y="-212" font-family="Arial" font-size="10.00">  loading</text>
<polygon fill="none" stroke="#047857" points="759.5,-202 759.5,-276 892.5,-276 892.5,-202 759.5,-202"/>
</g>
<!-- entrypoint_target_project_board&#45;&gt;entrypoint_instance_project_board_list -->
<g id="edge4" class="edge">
<title>entrypoint_target_project_board&#45;&gt;entrypoint_instance_project_board_list</title>
<path fill="none" stroke="#3f3f46" d="M689.07,-182.15C710.23,-191 732.02,-200.11 751.79,-208.38"/>
<polygon fill="#3f3f46" stroke="#3f3f46" points="750.8,-211 759.26,-211.51 752.96,-205.84 750.8,-211"/>
</g>
<!-- entrypoint_instance_project_board_detail -->
<g id="node6" class="node">
<title>entrypoint_instance_project_board_detail</title>
<polygon fill="#ffffff" stroke="transparent" points="754.5,-101 754.5,-175 897.5,-175 897.5,-101 754.5,-101"/>
<polygon fill="#047857" stroke="transparent" points="756,-166 756,-174 897,-174 897,-166 756,-166"/>
<polygon fill="#ecfdf5" stroke="transparent" points="756,-135 756,-166 897,-166 897,-135 756,-135"/>
<text text-anchor="start" x="760" y="-152.6" font-family="Arial" font-weight="bold" font-size="13.00">main</text>
<text text-anchor="start" x="760" y="-141.6" font-family="Arial" font-size="8.00" fill="#64748b">region</text>
<text text-anchor="start" x="761" y="-123" font-family="Arial" font-weight="bold" font-size="10.00">instance:</text>
<text text-anchor="start" x="804" y="-123" font-family="Arial" font-size="10.00">  panel.project.detail</text>
<text text-anchor="start" x="761" y="-111" font-family="Arial" font-weight="bold" font-size="10.00">initial:</text>
<text text-anchor="start" x="791" y="-111" font-family="Arial" font-size="10.00">  none</text>
<polygon fill="none" stroke="#047857" points="754.5,-101 754.5,-175 897.5,-175 897.5,-101 754.5,-101"/>
</g>
<!-- entrypoint_target_project_board&#45;&gt;entrypoint_instance_project_board_detail -->
<g id="edge5" class="edge">
<title>entrypoint_target_project_board&#45;&gt;entrypoint_instance_project_board_detail</title>
<path fill="none" stroke="#3f3f46" d="M689.07,-138C708.23,-138 727.89,-138 746.11,-138"/>
<polygon fill="#3f3f46" stroke="#3f3f46" points="746.37,-140.8 754.37,-138 746.37,-135.2 746.37,-140.8"/>
</g>
<!-- entrypoint_instance_project_board_activity -->
<g id="node7" class="node">
<title>entrypoint_instance_project_board_activity</title>
<polygon fill="#ffffff" stroke="transparent" points="750,0 750,-74 902,-74 902,0 750,0"/>
<polygon fill="#047857" stroke="transparent" points="751,-65 751,-73 901,-73 901,-65 751,-65"/>
<polygon fill="#ecfdf5" stroke="transparent" points="751,-34 751,-65 901,-65 901,-34 751,-34"/>
<text text-anchor="start" x="755" y="-51.6" font-family="Arial" font-weight="bold" font-size="13.00">aside</text>
<text text-anchor="start" x="755" y="-40.6" font-family="Arial" font-size="8.00" fill="#64748b">region</text>
<text text-anchor="start" x="756" y="-22" font-family="Arial" font-weight="bold" font-size="10.00">instance:</text>
<text text-anchor="start" x="799" y="-22" font-family="Arial" font-size="10.00">  panel.project.activity</text>
<text text-anchor="start" x="756" y="-10" font-family="Arial" font-weight="bold" font-size="10.00">initial:</text>
<text text-anchor="start" x="786" y="-10" font-family="Arial" font-size="10.00">  empty</text>
<polygon fill="none" stroke="#047857" points="750,0 750,-74 902,-74 902,0 750,0"/>
</g>
<!-- entrypoint_target_project_board&#45;&gt;entrypoint_instance_project_board_activity -->
<g id="edge6" class="edge">
<title>entrypoint_target_project_board&#45;&gt;entrypoint_instance_project_board_activity</title>
<path fill="none" stroke="#3f3f46" d="M689.07,-93.85C706.79,-86.44 724.96,-78.84 742.01,-71.71"/>
<polygon fill="#3f3f46" stroke="#3f3f46" points="743.45,-74.14 749.75,-68.47 741.29,-68.97 743.45,-74.14"/>
</g>
<!-- entrypoint_instance_project_board_list&#45;&gt;entrypoint_instance_project_board_detail -->
<!-- entrypoint_instance_project_board_detail&#45;&gt;entrypoint_instance_project_board_activity -->
</g>
</svg>
