<svg width="1438pt" height="607pt"
 viewBox="0.00 0.00 1438.00 607.00" xmlns="http://www.w3.org/2000/svg" xmlns:xlink="http://www.w3.org/1999/xlink">
<!-- pyspec-contract-input-sha256: 77f9bf1871f5f7439ed5ccc7e58a7fefa522d42b59a9552eb8e396cfd78eff59 -->
<g id="graph0" class="graph" transform="scale(1 1) rotate(0) translate(18 589)">
<title>operation_command_project_submit</title>
<!-- operation_input_command_project_submit -->
<g id="node1" class="node">
<title>operation_input_command_project_submit</title>
<polygon fill="#ffffff" stroke="transparent" points="0,-375 0,-446 78,-446 78,-375 0,-375"/>
<polygon fill="#64748b" stroke="transparent" points="1,-436.5 1,-444.5 77,-444.5 77,-436.5 1,-436.5"/>
<polygon fill="#f8fafc" stroke="transparent" points="1,-405.5 1,-436.5 77,-436.5 77,-405.5 1,-405.5"/>
<text text-anchor="start" x="5" y="-423.1" font-family="Arial" font-weight="bold" font-size="13.00">input</text>
<text text-anchor="start" x="5" y="-412.1" font-family="Arial" font-size="8.00" fill="#64748b">operation input</text>
<text text-anchor="start" x="5" y="-394.5" font-family="Arial" font-weight="bold" font-size="10.00">fields</text>
<text text-anchor="start" x="5" y="-383.5" font-family="Arial" font-size="10.00">project_id</text>
<text text-anchor="start" x="48" y="-383.5" font-family="Arial" font-size="8.00" fill="#94a3b8">  string</text>
<polygon fill="none" stroke="#64748b" points="0,-375 0,-446 78,-446 78,-375 0,-375"/>
</g>
<!-- operation_policy_access_policy_project_member -->
<g id="node2" class="node">
<title>operation_policy_access_policy_project_member</title>
<polygon fill="#ffffff" stroke="transparent" points="180,-310.5 180,-510.5 401,-510.5 401,-310.5 180,-310.5"/>
<polygon fill="#c2410c" stroke="transparent" points="181.5,-501.5 181.5,-509.5 400.5,-509.5 400.5,-501.5 181.5,-501.5"/>
<polygon fill="#fff7ed" stroke="transparent" points="181.5,-470.5 181.5,-501.5 400.5,-501.5 400.5,-470.5 181.5,-470.5"/>
<text text-anchor="start" x="185.5" y="-488.1" font-family="Arial" font-weight="bold" font-size="13.00">access_policy.project.member</text>
<text text-anchor="start" x="185.5" y="-477.1" font-family="Arial" font-size="8.00" fill="#64748b">authorization gate</text>
<text text-anchor="start" x="185.5" y="-459.5" font-family="Arial" font-style="italic" font-size="10.00" fill="#3f3f46">Workspace members may create, read, list, and</text>
<text text-anchor="start" x="185.5" y="-448.5" font-family="Arial" font-style="italic" font-size="10.00" fill="#3f3f46">submit dispatch projects.</text>
<text text-anchor="start" x="186.5" y="-428.5" font-family="Arial" font-weight="bold" font-size="10.00">effect:</text>
<text text-anchor="start" x="214.5" y="-428.5" font-family="Arial" font-size="10.00">  permit</text>
<text text-anchor="start" x="186.5" y="-416.5" font-family="Arial" font-weight="bold" font-size="10.00">decision:</text>
<text text-anchor="start" x="229.5" y="-416.5" font-family="Arial" font-size="10.00">  permit</text>
<text text-anchor="start" x="186.5" y="-404.5" font-family="Arial" font-weight="bold" font-size="10.00">subject:</text>
<text text-anchor="start" x="223.5" y="-404.5" font-family="Arial" font-size="10.00">  actor</text>
<text text-anchor="start" x="185.5" y="-384.5" font-family="Arial" font-weight="bold" font-size="10.00">action</text>
<text text-anchor="start" x="185.5" y="-372.5" font-family="Arial" font-size="10.00">command.project.create</text>
<text text-anchor="start" x="185.5" y="-361.5" font-family="Arial" font-size="10.00">query.project.list</text>
<text text-anchor="start" x="185.5" y="-350.5" font-family="Arial" font-size="10.00">query.project.read</text>
<text text-anchor="start" x="185.5" y="-339.5" font-family="Arial" font-size="10.00">command.project.submit</text>
<text text-anchor="start" x="186.5" y="-320.5" font-family="Arial" font-weight="bold" font-size="10.00">rules:</text>
<text text-anchor="start" x="213.5" y="-320.5" font-family="Arial" font-size="10.00">  subject_has_role member</text>
<polygon fill="none" stroke="#c2410c" points="180,-310.5 180,-510.5 401,-510.5 401,-310.5 180,-310.5"/>
</g>
<!-- operation_input_command_project_submit&#45;&gt;operation_policy_access_policy_project_member -->
<g id="edge1" class="edge">
<title>operation_input_command_project_submit&#45;&gt;operation_policy_access_policy_project_member</title>
<path fill="none" stroke="#3f3f46" stroke-width="1.2" d="M78.17,-410.5C103.38,-410.5 137.9,-410.5 171.74,-410.5"/>
<polygon fill="#3f3f46" stroke="#3f3f46" stroke-width="1.2" points="171.85,-413.3 179.85,-410.5 171.85,-407.7 171.85,-413.3"/>
<text text-anchor="middle" x="129" y="-413.5" font-family="Arial" font-size="10.00">authorize</text>
</g>
<!-- operation_resource_command_project_submit_lifecycle_transition_entity_type_project_status -->
<g id="node3" class="node">
<title>operation_resource_command_project_submit_lifecycle_transition_entity_type_project_status</title>
<polygon fill="#ffffff" stroke="transparent" points="545,-167 545,-238 841,-238 841,-167 545,-167"/>
<polygon fill="#15803d" stroke="transparent" points="546,-228.5 546,-236.5 840,-236.5 840,-228.5 546,-228.5"/>
<polygon fill="#f0fdfa" stroke="transparent" points="546,-197.5 546,-228.5 840,-228.5 840,-197.5 546,-197.5"/>
<text text-anchor="start" x="550" y="-215.1" font-family="Arial" font-weight="bold" font-size="13.00">entity_type.project</text>
<text text-anchor="start" x="550" y="-204.1" font-family="Arial" font-size="8.00" fill="#64748b">entity_type resource</text>
<text text-anchor="start" x="550" y="-186.5" font-family="Arial" font-weight="bold" font-size="10.00">change</text>
<text text-anchor="start" x="550" y="-175.5" font-family="Arial" font-size="10.00">Project.status</text>
<text text-anchor="start" x="611" y="-175.5" font-family="Arial" font-size="8.00" fill="#94a3b8">  enum&lt;draft|submitted|approved|archived&gt;</text>
<text text-anchor="start" x="767" y="-175.5" font-family="Arial" font-size="8.00">  draft → submitted</text>
<polygon fill="none" stroke="#15803d" points="545,-167 545,-238 841,-238 841,-167 545,-167"/>
</g>
<!-- operation_policy_access_policy_project_member&#45;&gt;operation_resource_command_project_submit_lifecycle_transition_entity_type_project_status -->
<g id="edge2" class="edge">
<title>operation_policy_access_policy_project_member&#45;&gt;operation_resource_command_project_submit_lifecycle_transition_entity_type_project_status</title>
<path fill="none" stroke="#3f3f46" d="M401.2,-353.53C469.41,-318.1 555.37,-273.46 616.09,-241.92"/>
<polygon fill="#3f3f46" stroke="#3f3f46" points="617.56,-244.31 623.37,-238.14 614.98,-239.34 617.56,-244.31"/>
<text text-anchor="middle" x="473" y="-340.5" font-family="Arial" font-size="10.00">lifecycle_transition</text>
</g>
<!-- operation_outcome_command_project_submit_access_denied -->
<g id="node4" class="node">
<title>operation_outcome_command_project_submit_access_denied</title>
<polygon fill="#ffffff" stroke="transparent" points="968.5,-500 968.5,-571 1075.5,-571 1075.5,-500 968.5,-500"/>
<polygon fill="#dc2626" stroke="transparent" points="970,-561.5 970,-569.5 1075,-569.5 1075,-561.5 970,-561.5"/>
<polygon fill="#fef2f2" stroke="transparent" points="970,-530.5 970,-561.5 1075,-561.5 1075,-530.5 970,-530.5"/>
<text text-anchor="start" x="974" y="-548.1" font-family="Arial" font-weight="bold" font-size="13.00">access_denied</text>
<text text-anchor="start" x="974" y="-537.1" font-family="Arial" font-size="8.00" fill="#64748b">failure outcome</text>
<text text-anchor="start" x="974" y="-519.5" font-family="Arial" font-weight="bold" font-size="10.00">result</text>
<text text-anchor="start" x="974" y="-508.5" font-family="Arial" font-size="10.00">result</text>
<text text-anchor="start" x="999" y="-508.5" font-family="Arial" font-size="8.00" fill="#94a3b8">  Problem</text>
<polygon fill="none" stroke="#dc2626" points="968.5,-500 968.5,-571 1075.5,-571 1075.5,-500 968.5,-500"/>
</g>
<!-- operation_policy_access_policy_project_member&#45;&gt;operation_outcome_command_project_submit_access_denied -->
<g id="edge3" class="edge">
<title>operation_policy_access_policy_project_member&#45;&gt;operation_outcome_command_project_submit_access_denied</title>
<path fill="none" stroke="#3f3f46" d="M401.11,-429.28C556.83,-455.96 836.86,-503.95 960.03,-525.05"/>
<polygon fill="#3f3f46" stroke="#3f3f46" points="959.92,-527.87 968.27,-526.47 960.86,-522.35 959.92,-527.87"/>
<text text-anchor="middle" x="693" y="-506.5" font-family="Arial" font-size="10.00">access_denied_as</text>
</g>
<!-- operation_outcome_command_project_submit_authentication_required -->
<g id="node5" class="node">
<title>operation_outcome_command_project_submit_authentication_required</title>
<polygon fill="#ffffff" stroke="transparent" points="940,-375 940,-446 1104,-446 1104,-375 940,-375"/>
<polygon fill="#dc2626" stroke="transparent" points="941,-436.5 941,-444.5 1103,-444.5 1103,-436.5 941,-436.5"/>
<polygon fill="#fef2f2" stroke="transparent" points="941,-405.5 941,-436.5 1103,-436.5 1103,-405.5 941,-405.5"/>
<text text-anchor="start" x="945" y="-423.1" font-family="Arial" font-weight="bold" font-size="13.00">authentication_required</text>
<text text-anchor="start" x="945" y="-412.1" font-family="Arial" font-size="8.00" fill="#64748b">failure outcome</text>
<text text-anchor="start" x="945" y="-394.5" font-family="Arial" font-weight="bold" font-size="10.00">result</text>
<text text-anchor="start" x="945" y="-383.5" font-family="Arial" font-size="10.00">result</text>
<text text-anchor="start" x="970" y="-383.5" font-family="Arial" font-size="8.00" fill="#94a3b8">  Problem</text>
<polygon fill="none" stroke="#dc2626" points="940,-375 940,-446 1104,-446 1104,-375 940,-375"/>
</g>
<!-- operation_policy_access_policy_project_member&#45;&gt;operation_outcome_command_project_submit_authentication_required -->
<g id="edge4" class="edge">
<title>operation_policy_access_policy_project_member&#45;&gt;operation_outcome_command_project_submit_authentication_required</title>
<path fill="none" stroke="#3f3f46" d="M401.11,-410.5C545.84,-410.5 797.96,-410.5 931.72,-410.5"/>
<polygon fill="#3f3f46" stroke="#3f3f46" points="931.96,-413.3 939.96,-410.5 931.96,-407.7 931.96,-413.3"/>
<text text-anchor="middle" x="693" y="-413.5" font-family="Arial" font-size="10.00">authentication_required_as</text>
</g>
<!-- operation_outcome_command_project_submit_not_found -->
<g id="node6" class="node">
<title>operation_outcome_command_project_submit_not_found</title>
<polygon fill="#ffffff" stroke="transparent" points="983.5,-250 983.5,-321 1060.5,-321 1060.5,-250 983.5,-250"/>
<polygon fill="#dc2626" stroke="transparent" points="985,-311.5 985,-319.5 1060,-319.5 1060,-311.5 985,-311.5"/>
<polygon fill="#fef2f2" stroke="transparent" points="985,-280.5 985,-311.5 1060,-311.5 1060,-280.5 985,-280.5"/>
<text text-anchor="start" x="989" y="-298.1" font-family="Arial" font-weight="bold" font-size="13.00">not_found</text>
<text text-anchor="start" x="989" y="-287.1" font-family="Arial" font-size="8.00" fill="#64748b">failure outcome</text>
<text text-anchor="start" x="989" y="-269.5" font-family="Arial" font-weight="bold" font-size="10.00">result</text>
<text text-anchor="start" x="989" y="-258.5" font-family="Arial" font-size="10.00">result</text>
<text text-anchor="start" x="1014" y="-258.5" font-family="Arial" font-size="8.00" fill="#94a3b8">  Problem</text>
<polygon fill="none" stroke="#dc2626" points="983.5,-250 983.5,-321 1060.5,-321 1060.5,-250 983.5,-250"/>
</g>
<!-- operation_resource_command_project_submit_lifecycle_transition_entity_type_project_status&#45;&gt;operation_outcome_command_project_submit_not_found -->
<g id="edge5" class="edge">
<title>operation_resource_command_project_submit_lifecycle_transition_entity_type_project_status&#45;&gt;operation_outcome_command_project_submit_not_found</title>
<path fill="none" stroke="#3f3f46" d="M834.1,-238.06C884.7,-250.91 938.36,-264.52 975.14,-273.86"/>
<polygon fill="#3f3f46" stroke="#3f3f46" points="974.74,-276.65 983.19,-275.9 976.12,-271.22 974.74,-276.65"/>
<text text-anchor="middle" x="890.5" y="-259.5" font-family="Arial" font-size="10.00">failure</text>
</g>
<!-- operation_outcome_command_project_submit_submitted -->
<g id="node7" class="node">
<title>operation_outcome_command_project_submit_submitted</title>
<polygon fill="#ffffff" stroke="transparent" points="985,-125 985,-196 1059,-196 1059,-125 985,-125"/>
<polygon fill="#16a34a" stroke="transparent" points="986,-186.5 986,-194.5 1058,-194.5 1058,-186.5 986,-186.5"/>
<polygon fill="#f0fdf4" stroke="transparent" points="986,-155.5 986,-186.5 1058,-186.5 1058,-155.5 986,-155.5"/>
<text text-anchor="start" x="990" y="-173.1" font-family="Arial" font-weight="bold" font-size="13.00">submitted</text>
<text text-anchor="start" x="990" y="-162.1" font-family="Arial" font-size="8.00" fill="#64748b">success outcome</text>
<text text-anchor="start" x="990" y="-144.5" font-family="Arial" font-weight="bold" font-size="10.00">result</text>
<text text-anchor="start" x="990" y="-133.5" font-family="Arial" font-size="10.00">result</text>
<text text-anchor="start" x="1015" y="-133.5" font-family="Arial" font-size="8.00" fill="#94a3b8">  Project</text>
<polygon fill="none" stroke="#16a34a" points="985,-125 985,-196 1059,-196 1059,-125 985,-125"/>
</g>
<!-- operation_resource_command_project_submit_lifecycle_transition_entity_type_project_status&#45;&gt;operation_outcome_command_project_submit_submitted -->
<g id="edge6" class="edge">
<title>operation_resource_command_project_submit_lifecycle_transition_entity_type_project_status&#45;&gt;operation_outcome_command_project_submit_submitted</title>
<path fill="none" stroke="#3f3f46" d="M841.24,-183.59C890.36,-177.28 941.46,-170.72 976.56,-166.21"/>
<polygon fill="#3f3f46" stroke="#3f3f46" points="977.11,-168.96 984.69,-165.16 976.4,-163.41 977.11,-168.96"/>
<text text-anchor="middle" x="890.5" y="-182.5" font-family="Arial" font-size="10.00">success</text>
</g>
<!-- operation_outcome_command_project_submit_transition_not_allowed -->
<g id="node8" class="node">
<title>operation_outcome_command_project_submit_transition_not_allowed</title>
<polygon fill="#ffffff" stroke="transparent" points="943.5,0 943.5,-71 1100.5,-71 1100.5,0 943.5,0"/>
<polygon fill="#dc2626" stroke="transparent" points="945,-61.5 945,-69.5 1100,-69.5 1100,-61.5 945,-61.5"/>
<polygon fill="#fef2f2" stroke="transparent" points="945,-30.5 945,-61.5 1100,-61.5 1100,-30.5 945,-30.5"/>
<text text-anchor="start" x="949" y="-48.1" font-family="Arial" font-weight="bold" font-size="13.00">transition_not_allowed</text>
<text text-anchor="start" x="949" y="-37.1" font-family="Arial" font-size="8.00" fill="#64748b">failure outcome</text>
<text text-anchor="start" x="949" y="-19.5" font-family="Arial" font-weight="bold" font-size="10.00">result</text>
<text text-anchor="start" x="949" y="-8.5" font-family="Arial" font-size="10.00">result</text>
<text text-anchor="start" x="974" y="-8.5" font-family="Arial" font-size="8.00" fill="#94a3b8">  Problem</text>
<polygon fill="none" stroke="#dc2626" points="943.5,0 943.5,-71 1100.5,-71 1100.5,0 943.5,0"/>
</g>
<!-- operation_resource_command_project_submit_lifecycle_transition_entity_type_project_status&#45;&gt;operation_outcome_command_project_submit_transition_not_allowed -->
<g id="edge8" class="edge">
<title>operation_resource_command_project_submit_lifecycle_transition_entity_type_project_status&#45;&gt;operation_outcome_command_project_submit_transition_not_allowed</title>
<path fill="none" stroke="#3f3f46" d="M763.75,-166.88C816.7,-139.83 889.48,-102.67 944.11,-74.77"/>
<polygon fill="#3f3f46" stroke="#3f3f46" points="945.51,-77.2 951.36,-71.07 942.96,-72.21 945.51,-77.2"/>
<text text-anchor="middle" x="890.5" y="-112.5" font-family="Arial" font-size="10.00">failure</text>
</g>
<!-- operation_outcome_command_project_submit_access_denied&#45;&gt;operation_outcome_command_project_submit_authentication_required -->
<!-- operation_outcome_command_project_submit_authentication_required&#45;&gt;operation_outcome_command_project_submit_not_found -->
<!-- operation_outcome_command_project_submit_not_found&#45;&gt;operation_outcome_command_project_submit_submitted -->
<!-- operation_outcome_command_project_submit_submitted&#45;&gt;operation_outcome_command_project_submit_transition_not_allowed -->
<!-- operation_event_command_project_submit_domain_event_project_submitted -->
<g id="node9" class="node">
<title>operation_event_command_project_submit_domain_event_project_submitted</title>
<polygon fill="#ffffff" stroke="transparent" points="1185,-110 1185,-211 1402,-211 1402,-110 1185,-110"/>
<polygon fill="#4f46e5" stroke="transparent" points="1186.5,-201.5 1186.5,-209.5 1401.5,-209.5 1401.5,-201.5 1186.5,-201.5"/>
<polygon fill="#eef2ff" stroke="transparent" points="1186.5,-170.5 1186.5,-201.5 1401.5,-201.5 1401.5,-170.5 1186.5,-170.5"/>
<text text-anchor="start" x="1190.5" y="-188.1" font-family="Arial" font-weight="bold" font-size="13.00">domain_event.project.submitted</text>
<text text-anchor="start" x="1190.5" y="-177.1" font-family="Arial" font-size="8.00" fill="#64748b">emitted event</text>
<text text-anchor="start" x="1190.5" y="-159.5" font-family="Arial" font-style="italic" font-size="10.00" fill="#3f3f46">Draft dispatch projects can be submitted for</text>
<text text-anchor="start" x="1190.5" y="-148.5" font-family="Arial" font-style="italic" font-size="10.00" fill="#3f3f46">review.</text>
<text text-anchor="start" x="1190.5" y="-129.5" font-family="Arial" font-weight="bold" font-size="10.00">payload</text>
<text text-anchor="start" x="1190.5" y="-118.5" font-family="Arial" font-size="10.00">payload</text>
<text text-anchor="start" x="1224.5" y="-118.5" font-family="Arial" font-size="8.00" fill="#94a3b8">  Project</text>
<polygon fill="none" stroke="#4f46e5" points="1185,-110 1185,-211 1402,-211 1402,-110 1185,-110"/>
</g>
<!-- operation_outcome_command_project_submit_submitted&#45;&gt;operation_event_command_project_submit_domain_event_project_submitted -->
<g id="edge7" class="edge">
<title>operation_outcome_command_project_submit_submitted&#45;&gt;operation_event_command_project_submit_domain_event_project_submitted</title>
<path fill="none" stroke="#3f3f46" stroke-width="1.2" d="M1059.07,-160.5C1089.32,-160.5 1134.26,-160.5 1176.65,-160.5"/>
<polygon fill="#3f3f46" stroke="#3f3f46" stroke-width="1.2" points="1176.81,-163.3 1184.81,-160.5 1176.81,-157.7 1176.81,-163.3"/>
<text text-anchor="middle" x="1144.5" y="-163.5" font-family="Arial" font-size="10.00">emit</text>
</g>
</g>
</svg>
