<svg width="764pt" height="482pt"
 viewBox="0.00 0.00 764.00 482.00" xmlns="http://www.w3.org/2000/svg" xmlns:xlink="http://www.w3.org/1999/xlink">
<!-- pyspec-contract-input-sha256: 8f4a986cbb8e32e51ad1c2ab29ea33ba675220c6c045ec78f3ee6260b92daadd -->
<g id="graph0" class="graph" transform="scale(1 1) rotate(0) translate(18 464)">
<title>application_action_application_action_project_send_approval_notice</title>
<!-- application_action_input_application_action_project_send_approval_notice -->
<g id="node1" class="node">
<title>application_action_input_application_action_project_send_approval_notice</title>
<polygon fill="#ffffff" stroke="transparent" points="0,-160.5 0,-242.5 91,-242.5 91,-160.5 0,-160.5"/>
<polygon fill="#64748b" stroke="transparent" points="1.5,-233.5 1.5,-241.5 90.5,-241.5 90.5,-233.5 1.5,-233.5"/>
<polygon fill="#f8fafc" stroke="transparent" points="1.5,-202.5 1.5,-233.5 90.5,-233.5 90.5,-202.5 1.5,-202.5"/>
<text text-anchor="start" x="5.5" y="-220.1" font-family="Arial" font-weight="bold" font-size="13.00">input</text>
<text text-anchor="start" x="5.5" y="-209.1" font-family="Arial" font-size="8.00" fill="#64748b">action input</text>
<text text-anchor="start" x="5.5" y="-191.5" font-family="Arial" font-weight="bold" font-size="10.00">fields</text>
<text text-anchor="start" x="5.5" y="-180.5" font-family="Arial" font-size="10.00">approved_by</text>
<text text-anchor="start" x="61.5" y="-180.5" font-family="Arial" font-size="8.00" fill="#94a3b8">  string</text>
<text text-anchor="start" x="5.5" y="-169.5" font-family="Arial" font-size="10.00">project_id</text>
<text text-anchor="start" x="48.5" y="-169.5" font-family="Arial" font-size="8.00" fill="#94a3b8">  string</text>
<polygon fill="none" stroke="#64748b" points="0,-160.5 0,-242.5 91,-242.5 91,-160.5 0,-160.5"/>
</g>
<!-- application_action_policy_authorization_policy_project_reviewer -->
<g id="node2" class="node">
<title>application_action_policy_authorization_policy_project_reviewer</title>
<polygon fill="#ffffff" stroke="transparent" points="193,-143.5 193,-259.5 440,-259.5 440,-143.5 193,-143.5"/>
<polygon fill="#c2410c" stroke="transparent" points="194.5,-250.5 194.5,-258.5 439.5,-258.5 439.5,-250.5 194.5,-250.5"/>
<polygon fill="#fff7ed" stroke="transparent" points="194.5,-219.5 194.5,-250.5 439.5,-250.5 439.5,-219.5 194.5,-219.5"/>
<text text-anchor="start" x="198.5" y="-237.1" font-family="Arial" font-weight="bold" font-size="13.00">authorization_policy.project.reviewer</text>
<text text-anchor="start" x="198.5" y="-226.1" font-family="Arial" font-size="8.00" fill="#64748b">authorization gate</text>
<text text-anchor="start" x="198.5" y="-208.5" font-family="Arial" font-style="italic" font-size="10.00" fill="#3f3f46">Reviewers may approve, archive, and send approval</text>
<text text-anchor="start" x="198.5" y="-197.5" font-family="Arial" font-style="italic" font-size="10.00" fill="#3f3f46">notices for dispatch projects.</text>
<text text-anchor="start" x="199.5" y="-177.5" font-family="Arial" font-weight="bold" font-size="10.00">effect:</text>
<text text-anchor="start" x="227.5" y="-177.5" font-family="Arial" font-size="10.00">  allow</text>
<text text-anchor="start" x="199.5" y="-165.5" font-family="Arial" font-weight="bold" font-size="10.00">subjects:</text>
<text text-anchor="start" x="242.5" y="-165.5" font-family="Arial" font-size="10.00">  actor</text>
<text text-anchor="start" x="199.5" y="-153.5" font-family="Arial" font-weight="bold" font-size="10.00">conditions:</text>
<text text-anchor="start" x="252.5" y="-153.5" font-family="Arial" font-size="10.00">  subject_has_role reviewer</text>
<polygon fill="none" stroke="#c2410c" points="193,-143.5 193,-259.5 440,-259.5 440,-143.5 193,-143.5"/>
</g>
<!-- application_action_input_application_action_project_send_approval_notice&#45;&gt;application_action_policy_authorization_policy_project_reviewer -->
<g id="edge1" class="edge">
<title>application_action_input_application_action_project_send_approval_notice&#45;&gt;application_action_policy_authorization_policy_project_reviewer</title>
<path fill="none" stroke="#3f3f46" stroke-width="1.2" d="M91.22,-201.5C117.09,-201.5 151.1,-201.5 184.8,-201.5"/>
<polygon fill="#3f3f46" stroke="#3f3f46" stroke-width="1.2" points="184.89,-204.3 192.89,-201.5 184.89,-198.7 184.89,-204.3"/>
<text text-anchor="middle" x="142" y="-204.5" font-family="Arial" font-size="10.00">authorize</text>
</g>
<!-- action_outcome_application_action_project_send_approval_notice_delivery_failed -->
<g id="node3" class="node">
<title>action_outcome_application_action_project_send_approval_notice_delivery_failed</title>
<polygon fill="#ffffff" stroke="transparent" points="605.5,-375 605.5,-446 709.5,-446 709.5,-375 605.5,-375"/>
<polygon fill="#dc2626" stroke="transparent" points="606.5,-436.5 606.5,-444.5 708.5,-444.5 708.5,-436.5 606.5,-436.5"/>
<polygon fill="#fef2f2" stroke="transparent" points="606.5,-405.5 606.5,-436.5 708.5,-436.5 708.5,-405.5 606.5,-405.5"/>
<text text-anchor="start" x="610.5" y="-423.1" font-family="Arial" font-weight="bold" font-size="13.00">delivery_failed</text>
<text text-anchor="start" x="610.5" y="-412.1" font-family="Arial" font-size="8.00" fill="#64748b">failure outcome</text>
<text text-anchor="start" x="610.5" y="-394.5" font-family="Arial" font-weight="bold" font-size="10.00">result</text>
<text text-anchor="start" x="610.5" y="-383.5" font-family="Arial" font-size="10.00">result</text>
<text text-anchor="start" x="635.5" y="-383.5" font-family="Arial" font-size="8.00" fill="#94a3b8">  Problem</text>
<polygon fill="none" stroke="#dc2626" points="605.5,-375 605.5,-446 709.5,-446 709.5,-375 605.5,-375"/>
</g>
<!-- application_action_policy_authorization_policy_project_reviewer&#45;&gt;action_outcome_application_action_project_send_approval_notice_delivery_failed -->
<g id="edge2" class="edge">
<title>application_action_policy_authorization_policy_project_reviewer&#45;&gt;action_outcome_application_action_project_send_approval_notice_delivery_failed</title>
<path fill="none" stroke="#3f3f46" d="M411.93,-259.72C471.62,-296.52 546.87,-342.91 598.03,-374.45"/>
<polygon fill="#3f3f46" stroke="#3f3f46" points="596.81,-376.99 605.09,-378.8 599.74,-372.22 596.81,-376.99"/>
<text text-anchor="middle" x="513.5" y="-345.5" font-family="Arial" font-size="10.00">failure</text>
</g>
<!-- action_outcome_application_action_project_send_approval_notice_forbidden -->
<g id="node4" class="node">
<title>action_outcome_application_action_project_send_approval_notice_forbidden</title>
<polygon fill="#ffffff" stroke="transparent" points="621,-250 621,-321 694,-321 694,-250 621,-250"/>
<polygon fill="#dc2626" stroke="transparent" points="622.5,-311.5 622.5,-319.5 693.5,-319.5 693.5,-311.5 622.5,-311.5"/>
<polygon fill="#fef2f2" stroke="transparent" points="622.5,-280.5 622.5,-311.5 693.5,-311.5 693.5,-280.5 622.5,-280.5"/>
<text text-anchor="start" x="626.5" y="-298.1" font-family="Arial" font-weight="bold" font-size="13.00">forbidden</text>
<text text-anchor="start" x="626.5" y="-287.1" font-family="Arial" font-size="8.00" fill="#64748b">failure outcome</text>
<text text-anchor="start" x="626.5" y="-269.5" font-family="Arial" font-weight="bold" font-size="10.00">result</text>
<text text-anchor="start" x="626.5" y="-258.5" font-family="Arial" font-size="10.00">result</text>
<text text-anchor="start" x="651.5" y="-258.5" font-family="Arial" font-size="8.00" fill="#94a3b8">  Problem</text>
<polygon fill="none" stroke="#dc2626" points="621,-250 621,-321 694,-321 694,-250 621,-250"/>
</g>
<!-- application_action_policy_authorization_policy_project_reviewer&#45;&gt;action_outcome_application_action_project_send_approval_notice_forbidden -->
<g id="edge3" class="edge">
<title>application_action_policy_authorization_policy_project_reviewer&#45;&gt;action_outcome_application_action_project_send_approval_notice_forbidden</title>
<path fill="none" stroke="#3f3f46" d="M440.37,-231.94C500.66,-246.88 569.49,-263.94 612.96,-274.71"/>
<polygon fill="#3f3f46" stroke="#3f3f46" points="612.33,-277.44 620.77,-276.65 613.68,-272 612.33,-277.44"/>
<text text-anchor="middle" x="513.5" y="-260.5" font-family="Arial" font-size="10.00">forbidden_as</text>
</g>
<!-- action_outcome_application_action_project_send_approval_notice_sent -->
<g id="node5" class="node">
<title>action_outcome_application_action_project_send_approval_notice_sent</title>
<polygon fill="#ffffff" stroke="transparent" points="587,-125 587,-196 728,-196 728,-125 587,-125"/>
<polygon fill="#16a34a" stroke="transparent" points="588.5,-186.5 588.5,-194.5 727.5,-194.5 727.5,-186.5 588.5,-186.5"/>
<polygon fill="#f0fdf4" stroke="transparent" points="588.5,-155.5 588.5,-186.5 727.5,-186.5 727.5,-155.5 588.5,-155.5"/>
<text text-anchor="start" x="592.5" y="-173.1" font-family="Arial" font-weight="bold" font-size="13.00">sent</text>
<text text-anchor="start" x="592.5" y="-162.1" font-family="Arial" font-size="8.00" fill="#64748b">success outcome</text>
<text text-anchor="start" x="592.5" y="-144.5" font-family="Arial" font-weight="bold" font-size="10.00">result</text>
<text text-anchor="start" x="592.5" y="-133.5" font-family="Arial" font-size="10.00">result</text>
<text text-anchor="start" x="617.5" y="-133.5" font-family="Arial" font-size="8.00" fill="#94a3b8">  schema.project.notice_result</text>
<polygon fill="none" stroke="#16a34a" points="587,-125 587,-196 728,-196 728,-125 587,-125"/>
</g>
<!-- application_action_policy_authorization_policy_project_reviewer&#45;&gt;action_outcome_application_action_project_send_approval_notice_sent -->
<g id="edge4" class="edge">
<title>application_action_policy_authorization_policy_project_reviewer&#45;&gt;action_outcome_application_action_project_send_approval_notice_sent</title>
<path fill="none" stroke="#3f3f46" d="M440.37,-186.64C486.55,-181.05 537.75,-174.86 578.72,-169.91"/>
<polygon fill="#3f3f46" stroke="#3f3f46" points="579.16,-172.67 586.77,-168.93 578.49,-167.11 579.16,-172.67"/>
<text text-anchor="middle" x="513.5" y="-184.5" font-family="Arial" font-size="10.00">success</text>
</g>
<!-- action_outcome_application_action_project_send_approval_notice_unauthenticated -->
<g id="node6" class="node">
<title>action_outcome_application_action_project_send_approval_notice_unauthenticated</title>
<polygon fill="#ffffff" stroke="transparent" points="600,0 600,-71 715,-71 715,0 600,0"/>
<polygon fill="#dc2626" stroke="transparent" points="601.5,-61.5 601.5,-69.5 714.5,-69.5 714.5,-61.5 601.5,-61.5"/>
<polygon fill="#fef2f2" stroke="transparent" points="601.5,-30.5 601.5,-61.5 714.5,-61.5 714.5,-30.5 601.5,-30.5"/>
<text text-anchor="start" x="605.5" y="-48.1" font-family="Arial" font-weight="bold" font-size="13.00">unauthenticated</text>
<text text-anchor="start" x="605.5" y="-37.1" font-family="Arial" font-size="8.00" fill="#64748b">failure outcome</text>
<text text-anchor="start" x="605.5" y="-19.5" font-family="Arial" font-weight="bold" font-size="10.00">result</text>
<text text-anchor="start" x="605.5" y="-8.5" font-family="Arial" font-size="10.00">result</text>
<text text-anchor="start" x="630.5" y="-8.5" font-family="Arial" font-size="8.00" fill="#94a3b8">  Problem</text>
<polygon fill="none" stroke="#dc2626" points="600,0 600,-71 715,-71 715,0 600,0"/>
</g>
<!-- application_action_policy_authorization_policy_project_reviewer&#45;&gt;action_outcome_application_action_project_send_approval_notice_unauthenticated -->
<g id="edge5" class="edge">
<title>application_action_policy_authorization_policy_project_reviewer&#45;&gt;action_outcome_application_action_project_send_approval_notice_unauthenticated</title>
<path fill="none" stroke="#3f3f46" d="M436.07,-143.44C488.7,-117.67 548.55,-88.36 592.6,-66.79"/>
<polygon fill="#3f3f46" stroke="#3f3f46" points="593.85,-69.3 599.8,-63.26 591.38,-64.27 593.85,-69.3"/>
<text text-anchor="middle" x="513.5" y="-125.5" font-family="Arial" font-size="10.00">unauthenticated_as</text>
</g>
<!-- action_outcome_application_action_project_send_approval_notice_delivery_failed&#45;&gt;action_outcome_application_action_project_send_approval_notice_forbidden -->
<!-- action_outcome_application_action_project_send_approval_notice_forbidden&#45;&gt;action_outcome_application_action_project_send_approval_notice_sent -->
<!-- action_outcome_application_action_project_send_approval_notice_sent&#45;&gt;action_outcome_application_action_project_send_approval_notice_unauthenticated -->
</g>
</svg>
