<svg width="819pt" height="482pt"
 viewBox="0.00 0.00 819.00 482.00" xmlns="http://www.w3.org/2000/svg" xmlns:xlink="http://www.w3.org/1999/xlink">
<!-- pyspec-contract-input-sha256: 52de2bfaa7d54be435a8ebdc1c6df20d2cac1954c8c7df744418874f69a2ba27 -->
<g id="graph0" class="graph" transform="scale(1 1) rotate(0) translate(18 464)">
<title>application_action_application_action_project_send_approval_notice</title>
<!-- application_action_input_application_action_project_send_approval_notice -->
<g id="node1" class="node">
<title>application_action_input_application_action_project_send_approval_notice</title>
<polygon fill="#ffffff" stroke="transparent" points="0,-160.5 0,-242.5 91,-242.5 91,-160.5 0,-160.5"/>
<polygon fill="#64748b" stroke="transparent" points="1.5,-233.5 1.5,-241.5 90.5,-241.5 90.5,-233.5 1.5,-233.5"/>
<polygon fill="#f8fafc" stroke="transparent" points="1.5,-202.5 1.5,-233.5 90.5,-233.5 90.5,-202.5 1.5,-202.5"/>
<text text-anchor="start" x="5.5" y="-220.1" font-family="Arial" font-weight="bold" font-size="13.00">input</text>
<text text-anchor="start" x="5.5" y="-209.1" font-family="Arial" font-size="8.00" fill="#64748b">action input</text>
<text text-anchor="start" x="5.5" y="-191.5" font-family="Arial" font-weight="bold" font-size="10.00">fields</text>
<text text-anchor="start" x="5.5" y="-180.5" font-family="Arial" font-size="10.00">approved_by</text>
<text text-anchor="start" x="61.5" y="-180.5" font-family="Arial" font-size="8.00" fill="#94a3b8">  string</text>
<text text-anchor="start" x="5.5" y="-169.5" font-family="Arial" font-size="10.00">project_id</text>
<text text-anchor="start" x="48.5" y="-169.5" font-family="Arial" font-size="8.00" fill="#94a3b8">  string</text>
<polygon fill="none" stroke="#64748b" points="0,-160.5 0,-242.5 91,-242.5 91,-160.5 0,-160.5"/>
</g>
<!-- application_action_policy_authorization_policy_project_reviewer -->
<g id="node2" class="node">
<title>application_action_policy_authorization_policy_project_reviewer</title>
<polygon fill="#ffffff" stroke="transparent" points="193,-143.5 193,-259.5 440,-259.5 440,-143.5 193,-143.5"/>
<polygon fill="#c2410c" stroke="transparent" points="194.5,-250.5 194.5,-258.5 439.5,-258.5 439.5,-250.5 194.5,-250.5"/>
<polygon fill="#fff7ed" stroke="transparent" points="194.5,-219.5 194.5,-250.5 439.5,-250.5 439.5,-219.5 194.5,-219.5"/>
<text text-anchor="start" x="198.5" y="-237.1" font-family="Arial" font-weight="bold" font-size="13.00">authorization_policy.project.reviewer</text>
<text text-anchor="start" x="198.5" y="-226.1" font-family="Arial" font-size="8.00" fill="#64748b">authorization gate</text>
<text text-anchor="start" x="198.5" y="-208.5" font-family="Arial" font-style="italic" font-size="10.00" fill="#3f3f46">Reviewers may approve, archive, and send approval</text>
<text text-anchor="start" x="198.5" y="-197.5" font-family="Arial" font-style="italic" font-size="10.00" fill="#3f3f46">notices for dispatch projects.</text>
<text text-anchor="start" x="199.5" y="-177.5" font-family="Arial" font-weight="bold" font-size="10.00">effect:</text>
<text text-anchor="start" x="227.5" y="-177.5" font-family="Arial" font-size="10.00">  permit</text>
<text text-anchor="start" x="199.5" y="-165.5" font-family="Arial" font-weight="bold" font-size="10.00">subjects:</text>
<text text-anchor="start" x="242.5" y="-165.5" font-family="Arial" font-size="10.00">  actor</text>
<text text-anchor="start" x="199.5" y="-153.5" font-family="Arial" font-weight="bold" font-size="10.00">conditions:</text>
<text text-anchor="start" x="252.5" y="-153.5" font-family="Arial" font-size="10.00">  subject_has_role reviewer</text>
<polygon fill="none" stroke="#c2410c" points="193,-143.5 193,-259.5 440,-259.5 440,-143.5 193,-143.5"/>
</g>
<!-- application_action_input_application_action_project_send_approval_notice&#45;&gt;application_action_policy_authorization_policy_project_reviewer -->
<g id="edge1" class="edge">
<title>application_action_input_application_action_project_send_approval_notice&#45;&gt;application_action_policy_authorization_policy_project_reviewer</title>
<path fill="none" stroke="#3f3f46" stroke-width="1.2" d="M91.22,-201.5C117.09,-201.5 151.1,-201.5 184.8,-201.5"/>
<polygon fill="#3f3f46" stroke="#3f3f46" stroke-width="1.2" points="184.89,-204.3 192.89,-201.5 184.89,-198.7 184.89,-204.3"/>
<text text-anchor="middle" x="142" y="-204.5" font-family="Arial" font-size="10.00">authorize</text>
</g>
<!-- action_outcome_application_action_project_send_approval_notice_access_denied -->
<g id="node3" class="node">
<title>action_outcome_application_action_project_send_approval_notice_access_denied</title>
<polygon fill="#ffffff" stroke="transparent" points="647.5,-375 647.5,-446 754.5,-446 754.5,-375 647.5,-375"/>
<polygon fill="#dc2626" stroke="transparent" points="649,-436.5 649,-444.5 754,-444.5 754,-436.5 649,-436.5"/>
<polygon fill="#fef2f2" stroke="transparent" points="649,-405.5 649,-436.5 754,-436.5 754,-405.5 649,-405.5"/>
<text text-anchor="start" x="653" y="-423.1" font-family="Arial" font-weight="bold" font-size="13.00">access_denied</text>
<text text-anchor="start" x="653" y="-412.1" font-family="Arial" font-size="8.00" fill="#64748b">failure outcome</text>
<text text-anchor="start" x="653" y="-394.5" font-family="Arial" font-weight="bold" font-size="10.00">result</text>
<text text-anchor="start" x="653" y="-383.5" font-family="Arial" font-size="10.00">result</text>
<text text-anchor="start" x="678" y="-383.5" font-family="Arial" font-size="8.00" fill="#94a3b8">  Problem</text>
<polygon fill="none" stroke="#dc2626" points="647.5,-375 647.5,-446 754.5,-446 754.5,-375 647.5,-375"/>
</g>
<!-- application_action_policy_authorization_policy_project_reviewer&#45;&gt;action_outcome_application_action_project_send_approval_notice_access_denied -->
<g id="edge2" class="edge">
<title>application_action_policy_authorization_policy_project_reviewer&#45;&gt;action_outcome_application_action_project_send_approval_notice_access_denied</title>
<path fill="none" stroke="#3f3f46" d="M423.79,-259.58C493.54,-297.69 582.21,-346.14 640,-377.72"/>
<polygon fill="#3f3f46" stroke="#3f3f46" points="638.88,-380.29 647.24,-381.67 641.56,-375.38 638.88,-380.29"/>
<text text-anchor="middle" x="529.5" y="-351.5" font-family="Arial" font-size="10.00">access_denied_as</text>
</g>
<!-- action_outcome_application_action_project_send_approval_notice_authentication_required -->
<g id="node4" class="node">
<title>action_outcome_application_action_project_send_approval_notice_authentication_required</title>
<polygon fill="#ffffff" stroke="transparent" points="619,-250 619,-321 783,-321 783,-250 619,-250"/>
<polygon fill="#dc2626" stroke="transparent" points="620,-311.5 620,-319.5 782,-319.5 782,-311.5 620,-311.5"/>
<polygon fill="#fef2f2" stroke="transparent" points="620,-280.5 620,-311.5 782,-311.5 782,-280.5 620,-280.5"/>
<text text-anchor="start" x="624" y="-298.1" font-family="Arial" font-weight="bold" font-size="13.00">authentication_required</text>
<text text-anchor="start" x="624" y="-287.1" font-family="Arial" font-size="8.00" fill="#64748b">failure outcome</text>
<text text-anchor="start" x="624" y="-269.5" font-family="Arial" font-weight="bold" font-size="10.00">result</text>
<text text-anchor="start" x="624" y="-258.5" font-family="Arial" font-size="10.00">result</text>
<text text-anchor="start" x="649" y="-258.5" font-family="Arial" font-size="8.00" fill="#94a3b8">  Problem</text>
<polygon fill="none" stroke="#dc2626" points="619,-250 619,-321 783,-321 783,-250 619,-250"/>
</g>
<!-- application_action_policy_authorization_policy_project_reviewer&#45;&gt;action_outcome_application_action_project_send_approval_notice_authentication_required -->
<g id="edge3" class="edge">
<title>application_action_policy_authorization_policy_project_reviewer&#45;&gt;action_outcome_application_action_project_send_approval_notice_authentication_required</title>
<path fill="none" stroke="#3f3f46" d="M440.1,-228.42C495.59,-240.61 559.96,-254.75 610.76,-265.9"/>
<polygon fill="#3f3f46" stroke="#3f3f46" points="610.38,-268.68 618.79,-267.67 611.58,-263.22 610.38,-268.68"/>
<text text-anchor="middle" x="529.5" y="-263.5" font-family="Arial" font-size="10.00">authentication_required_as</text>
</g>
<!-- action_outcome_application_action_project_send_approval_notice_delivery_failed -->
<g id="node5" class="node">
<title>action_outcome_application_action_project_send_approval_notice_delivery_failed</title>
<polygon fill="#ffffff" stroke="transparent" points="649,-125 649,-196 753,-196 753,-125 649,-125"/>
<polygon fill="#dc2626" stroke="transparent" points="650,-186.5 650,-194.5 752,-194.5 752,-186.5 650,-186.5"/>
<polygon fill="#fef2f2" stroke="transparent" points="650,-155.5 650,-186.5 752,-186.5 752,-155.5 650,-155.5"/>
<text text-anchor="start" x="654" y="-173.1" font-family="Arial" font-weight="bold" font-size="13.00">delivery_failed</text>
<text text-anchor="start" x="654" y="-162.1" font-family="Arial" font-size="8.00" fill="#64748b">failure outcome</text>
<text text-anchor="start" x="654" y="-144.5" font-family="Arial" font-weight="bold" font-size="10.00">result</text>
<text text-anchor="start" x="654" y="-133.5" font-family="Arial" font-size="10.00">result</text>
<text text-anchor="start" x="679" y="-133.5" font-family="Arial" font-size="8.00" fill="#94a3b8">  Problem</text>
<polygon fill="none" stroke="#dc2626" points="649,-125 649,-196 753,-196 753,-125 649,-125"/>
</g>
<!-- application_action_policy_authorization_policy_project_reviewer&#45;&gt;action_outcome_application_action_project_send_approval_notice_delivery_failed -->
<g id="edge4" class="edge">
<title>application_action_policy_authorization_policy_project_reviewer&#45;&gt;action_outcome_application_action_project_send_approval_notice_delivery_failed</title>
<path fill="none" stroke="#3f3f46" d="M440.1,-188.36C507.24,-181.16 587.38,-172.57 640.75,-166.85"/>
<polygon fill="#3f3f46" stroke="#3f3f46" points="641.1,-169.63 648.75,-165.99 640.5,-164.06 641.1,-169.63"/>
<text text-anchor="middle" x="529.5" y="-187.5" font-family="Arial" font-size="10.00">failure</text>
</g>
<!-- action_outcome_application_action_project_send_approval_notice_sent -->
<g id="node6" class="node">
<title>action_outcome_application_action_project_send_approval_notice_sent</title>
<polygon fill="#ffffff" stroke="transparent" points="630.5,0 630.5,-71 771.5,-71 771.5,0 630.5,0"/>
<polygon fill="#16a34a" stroke="transparent" points="632,-61.5 632,-69.5 771,-69.5 771,-61.5 632,-61.5"/>
<polygon fill="#f0fdf4" stroke="transparent" points="632,-30.5 632,-61.5 771,-61.5 771,-30.5 632,-30.5"/>
<text text-anchor="start" x="636" y="-48.1" font-family="Arial" font-weight="bold" font-size="13.00">sent</text>
<text text-anchor="start" x="636" y="-37.1" font-family="Arial" font-size="8.00" fill="#64748b">success outcome</text>
<text text-anchor="start" x="636" y="-19.5" font-family="Arial" font-weight="bold" font-size="10.00">result</text>
<text text-anchor="start" x="636" y="-8.5" font-family="Arial" font-size="10.00">result</text>
<text text-anchor="start" x="661" y="-8.5" font-family="Arial" font-size="8.00" fill="#94a3b8">  schema.project.notice_result</text>
<polygon fill="none" stroke="#16a34a" points="630.5,0 630.5,-71 771.5,-71 771.5,0 630.5,0"/>
</g>
<!-- application_action_policy_authorization_policy_project_reviewer&#45;&gt;action_outcome_application_action_project_send_approval_notice_sent -->
<g id="edge5" class="edge">
<title>application_action_policy_authorization_policy_project_reviewer&#45;&gt;action_outcome_application_action_project_send_approval_notice_sent</title>
<path fill="none" stroke="#3f3f46" d="M440.1,-148.29C500.09,-122.26 570.46,-91.72 622.83,-68.99"/>
<polygon fill="#3f3f46" stroke="#3f3f46" points="624.2,-71.45 630.43,-65.69 621.97,-66.31 624.2,-71.45"/>
<text text-anchor="middle" x="529.5" y="-135.5" font-family="Arial" font-size="10.00">success</text>
</g>
<!-- action_outcome_application_action_project_send_approval_notice_access_denied&#45;&gt;action_outcome_application_action_project_send_approval_notice_authentication_required -->
<!-- action_outcome_application_action_project_send_approval_notice_authentication_required&#45;&gt;action_outcome_application_action_project_send_approval_notice_delivery_failed -->
<!-- action_outcome_application_action_project_send_approval_notice_delivery_failed&#45;&gt;action_outcome_application_action_project_send_approval_notice_sent -->
</g>
</svg>
