<svg width="773pt" height="482pt"
 viewBox="0.00 0.00 773.00 482.00" xmlns="http://www.w3.org/2000/svg" xmlns:xlink="http://www.w3.org/1999/xlink">
<!-- pyspec-contract-input-sha256: e2c41420fc2786015b92f955d595a1d6f459fca15e7407d7fe6b240bdf678e94 -->
<g id="graph0" class="graph" transform="scale(1 1) rotate(0) translate(18 464)">
<title>application_action_application_action_project_send_approval_notice</title>
<!-- application_action_input_application_action_project_send_approval_notice -->
<g id="node1" class="node">
<title>application_action_input_application_action_project_send_approval_notice</title>
<polygon fill="#ffffff" stroke="transparent" points="0,-160.5 0,-242.5 79,-242.5 79,-160.5 0,-160.5"/>
<polygon fill="#64748b" stroke="transparent" points="1.5,-233.5 1.5,-241.5 78.5,-241.5 78.5,-233.5 1.5,-233.5"/>
<polygon fill="#f8fafc" stroke="transparent" points="1.5,-202.5 1.5,-233.5 78.5,-233.5 78.5,-202.5 1.5,-202.5"/>
<text text-anchor="start" x="5.5" y="-220.1" font-family="Arial" font-weight="bold" font-size="13.00">input</text>
<text text-anchor="start" x="5.5" y="-209.1" font-family="Arial" font-size="8.00" fill="#64748b">action input</text>
<text text-anchor="start" x="5.5" y="-191.5" font-family="Arial" font-weight="bold" font-size="10.00">fields</text>
<text text-anchor="start" x="5.5" y="-180.5" font-family="Arial" font-size="10.00">approved_by</text>
<text text-anchor="start" x="61.5" y="-180.5" font-family="Arial" font-size="8.00" fill="#94a3b8">  ID</text>
<text text-anchor="start" x="5.5" y="-169.5" font-family="Arial" font-size="10.00">project_id</text>
<text text-anchor="start" x="48.5" y="-169.5" font-family="Arial" font-size="8.00" fill="#94a3b8">  ID</text>
<polygon fill="none" stroke="#64748b" points="0,-160.5 0,-242.5 79,-242.5 79,-160.5 0,-160.5"/>
</g>
<!-- application_action_policy_authorization_policy_project_reviewer -->
<g id="node2" class="node">
<title>application_action_policy_authorization_policy_project_reviewer</title>
<polygon fill="#ffffff" stroke="transparent" points="181,-143.5 181,-259.5 428,-259.5 428,-143.5 181,-143.5"/>
<polygon fill="#c2410c" stroke="transparent" points="182.5,-250.5 182.5,-258.5 427.5,-258.5 427.5,-250.5 182.5,-250.5"/>
<polygon fill="#fff7ed" stroke="transparent" points="182.5,-219.5 182.5,-250.5 427.5,-250.5 427.5,-219.5 182.5,-219.5"/>
<text text-anchor="start" x="186.5" y="-237.1" font-family="Arial" font-weight="bold" font-size="13.00">authorization_policy.project.reviewer</text>
<text text-anchor="start" x="186.5" y="-226.1" font-family="Arial" font-size="8.00" fill="#64748b">authorization gate</text>
<text text-anchor="start" x="186.5" y="-208.5" font-family="Arial" font-style="italic" font-size="10.00" fill="#3f3f46">Reviewers may approve, archive, and send approval</text>
<text text-anchor="start" x="186.5" y="-197.5" font-family="Arial" font-style="italic" font-size="10.00" fill="#3f3f46">notices for dispatch projects.</text>
<text text-anchor="start" x="187.5" y="-177.5" font-family="Arial" font-weight="bold" font-size="10.00">effect:</text>
<text text-anchor="start" x="215.5" y="-177.5" font-family="Arial" font-size="10.00">  allow</text>
<text text-anchor="start" x="187.5" y="-165.5" font-family="Arial" font-weight="bold" font-size="10.00">subjects:</text>
<text text-anchor="start" x="230.5" y="-165.5" font-family="Arial" font-size="10.00">  actor</text>
<text text-anchor="start" x="187.5" y="-153.5" font-family="Arial" font-weight="bold" font-size="10.00">conditions:</text>
<text text-anchor="start" x="240.5" y="-153.5" font-family="Arial" font-size="10.00">  subject_has_role reviewer</text>
<polygon fill="none" stroke="#c2410c" points="181,-143.5 181,-259.5 428,-259.5 428,-143.5 181,-143.5"/>
</g>
<!-- application_action_input_application_action_project_send_approval_notice&#45;&gt;application_action_policy_authorization_policy_project_reviewer -->
<g id="edge1" class="edge">
<title>application_action_input_application_action_project_send_approval_notice&#45;&gt;application_action_policy_authorization_policy_project_reviewer</title>
<path fill="none" stroke="#3f3f46" stroke-width="1.2" d="M79.02,-201.5C104.12,-201.5 138.47,-201.5 172.75,-201.5"/>
<polygon fill="#3f3f46" stroke="#3f3f46" stroke-width="1.2" points="172.99,-204.3 180.99,-201.5 172.99,-198.7 172.99,-204.3"/>
<text text-anchor="middle" x="130" y="-204.5" font-family="Arial" font-size="10.00">authorize</text>
</g>
<!-- action_outcome_application_action_project_send_approval_notice_delivery_failed -->
<g id="node3" class="node">
<title>action_outcome_application_action_project_send_approval_notice_delivery_failed</title>
<polygon fill="#ffffff" stroke="transparent" points="604,-375 604,-446 708,-446 708,-375 604,-375"/>
<polygon fill="#dc2626" stroke="transparent" points="605,-436.5 605,-444.5 707,-444.5 707,-436.5 605,-436.5"/>
<polygon fill="#fef2f2" stroke="transparent" points="605,-405.5 605,-436.5 707,-436.5 707,-405.5 605,-405.5"/>
<text text-anchor="start" x="609" y="-423.1" font-family="Arial" font-weight="bold" font-size="13.00">delivery_failed</text>
<text text-anchor="start" x="609" y="-412.1" font-family="Arial" font-size="8.00" fill="#64748b">failure outcome</text>
<text text-anchor="start" x="609" y="-394.5" font-family="Arial" font-weight="bold" font-size="10.00">result</text>
<text text-anchor="start" x="609" y="-383.5" font-family="Arial" font-size="10.00">result</text>
<text text-anchor="start" x="634" y="-383.5" font-family="Arial" font-size="8.00" fill="#94a3b8">  Problem</text>
<polygon fill="none" stroke="#dc2626" points="604,-375 604,-446 708,-446 708,-375 604,-375"/>
</g>
<!-- application_action_policy_authorization_policy_project_reviewer&#45;&gt;action_outcome_application_action_project_send_approval_notice_delivery_failed -->
<g id="edge2" class="edge">
<title>application_action_policy_authorization_policy_project_reviewer&#45;&gt;action_outcome_application_action_project_send_approval_notice_delivery_failed</title>
<path fill="none" stroke="#3f3f46" d="M402.86,-259.72C465.29,-297.06 544.25,-344.27 597.02,-375.83"/>
<polygon fill="#3f3f46" stroke="#3f3f46" points="595.66,-378.28 603.96,-379.98 598.53,-373.47 595.66,-378.28"/>
<text text-anchor="middle" x="501.5" y="-345.5" font-family="Arial" font-size="10.00">failure</text>
</g>
<!-- action_outcome_application_action_project_send_approval_notice_forbidden -->
<g id="node4" class="node">
<title>action_outcome_application_action_project_send_approval_notice_forbidden</title>
<polygon fill="#ffffff" stroke="transparent" points="619.5,-250 619.5,-321 692.5,-321 692.5,-250 619.5,-250"/>
<polygon fill="#dc2626" stroke="transparent" points="621,-311.5 621,-319.5 692,-319.5 692,-311.5 621,-311.5"/>
<polygon fill="#fef2f2" stroke="transparent" points="621,-280.5 621,-311.5 692,-311.5 692,-280.5 621,-280.5"/>
<text text-anchor="start" x="625" y="-298.1" font-family="Arial" font-weight="bold" font-size="13.00">forbidden</text>
<text text-anchor="start" x="625" y="-287.1" font-family="Arial" font-size="8.00" fill="#64748b">failure outcome</text>
<text text-anchor="start" x="625" y="-269.5" font-family="Arial" font-weight="bold" font-size="10.00">result</text>
<text text-anchor="start" x="625" y="-258.5" font-family="Arial" font-size="10.00">result</text>
<text text-anchor="start" x="650" y="-258.5" font-family="Arial" font-size="8.00" fill="#94a3b8">  Problem</text>
<polygon fill="none" stroke="#dc2626" points="619.5,-250 619.5,-321 692.5,-321 692.5,-250 619.5,-250"/>
</g>
<!-- application_action_policy_authorization_policy_project_reviewer&#45;&gt;action_outcome_application_action_project_send_approval_notice_forbidden -->
<g id="edge3" class="edge">
<title>application_action_policy_authorization_policy_project_reviewer&#45;&gt;action_outcome_application_action_project_send_approval_notice_forbidden</title>
<path fill="none" stroke="#3f3f46" d="M428.23,-231C491.87,-246.29 565.64,-264.02 611.32,-275"/>
<polygon fill="#3f3f46" stroke="#3f3f46" points="610.81,-277.76 619.24,-276.91 612.12,-272.31 610.81,-277.76"/>
<text text-anchor="middle" x="501.5" y="-260.5" font-family="Arial" font-size="10.00">forbidden_as</text>
</g>
<!-- action_outcome_application_action_project_send_approval_notice_sent -->
<g id="node5" class="node">
<title>action_outcome_application_action_project_send_approval_notice_sent</title>
<polygon fill="#ffffff" stroke="transparent" points="575,-125 575,-196 737,-196 737,-125 575,-125"/>
<polygon fill="#16a34a" stroke="transparent" points="576,-186.5 576,-194.5 736,-194.5 736,-186.5 576,-186.5"/>
<polygon fill="#f0fdf4" stroke="transparent" points="576,-155.5 576,-186.5 736,-186.5 736,-155.5 576,-155.5"/>
<text text-anchor="start" x="580" y="-173.1" font-family="Arial" font-weight="bold" font-size="13.00">sent</text>
<text text-anchor="start" x="580" y="-162.1" font-family="Arial" font-size="8.00" fill="#64748b">success outcome</text>
<text text-anchor="start" x="580" y="-144.5" font-family="Arial" font-weight="bold" font-size="10.00">result</text>
<text text-anchor="start" x="580" y="-133.5" font-family="Arial" font-size="10.00">result</text>
<text text-anchor="start" x="605" y="-133.5" font-family="Arial" font-size="8.00" fill="#94a3b8">  data_contract.project.notice_result</text>
<polygon fill="none" stroke="#16a34a" points="575,-125 575,-196 737,-196 737,-125 575,-125"/>
</g>
<!-- application_action_policy_authorization_policy_project_reviewer&#45;&gt;action_outcome_application_action_project_send_approval_notice_sent -->
<g id="edge4" class="edge">
<title>application_action_policy_authorization_policy_project_reviewer&#45;&gt;action_outcome_application_action_project_send_approval_notice_sent</title>
<path fill="none" stroke="#3f3f46" d="M428.23,-187.1C473.96,-181.74 524.93,-175.76 566.94,-170.83"/>
<polygon fill="#3f3f46" stroke="#3f3f46" points="567.33,-173.6 574.94,-169.89 566.67,-168.04 567.33,-173.6"/>
<text text-anchor="middle" x="501.5" y="-185.5" font-family="Arial" font-size="10.00">success</text>
</g>
<!-- action_outcome_application_action_project_send_approval_notice_unauthenticated -->
<g id="node6" class="node">
<title>action_outcome_application_action_project_send_approval_notice_unauthenticated</title>
<polygon fill="#ffffff" stroke="transparent" points="598.5,0 598.5,-71 713.5,-71 713.5,0 598.5,0"/>
<polygon fill="#dc2626" stroke="transparent" points="600,-61.5 600,-69.5 713,-69.5 713,-61.5 600,-61.5"/>
<polygon fill="#fef2f2" stroke="transparent" points="600,-30.5 600,-61.5 713,-61.5 713,-30.5 600,-30.5"/>
<text text-anchor="start" x="604" y="-48.1" font-family="Arial" font-weight="bold" font-size="13.00">unauthenticated</text>
<text text-anchor="start" x="604" y="-37.1" font-family="Arial" font-size="8.00" fill="#64748b">failure outcome</text>
<text text-anchor="start" x="604" y="-19.5" font-family="Arial" font-weight="bold" font-size="10.00">result</text>
<text text-anchor="start" x="604" y="-8.5" font-family="Arial" font-size="10.00">result</text>
<text text-anchor="start" x="629" y="-8.5" font-family="Arial" font-size="8.00" fill="#94a3b8">  Problem</text>
<polygon fill="none" stroke="#dc2626" points="598.5,0 598.5,-71 713.5,-71 713.5,0 598.5,0"/>
</g>
<!-- application_action_policy_authorization_policy_project_reviewer&#45;&gt;action_outcome_application_action_project_send_approval_notice_unauthenticated -->
<g id="edge5" class="edge">
<title>application_action_policy_authorization_policy_project_reviewer&#45;&gt;action_outcome_application_action_project_send_approval_notice_unauthenticated</title>
<path fill="none" stroke="#3f3f46" d="M427.74,-143.44C482.75,-117.31 545.41,-87.55 590.98,-65.91"/>
<polygon fill="#3f3f46" stroke="#3f3f46" points="592.4,-68.33 598.43,-62.37 590,-63.27 592.4,-68.33"/>
<text text-anchor="middle" x="501.5" y="-130.5" font-family="Arial" font-size="10.00">unauthenticated_as</text>
</g>
<!-- action_outcome_application_action_project_send_approval_notice_delivery_failed&#45;&gt;action_outcome_application_action_project_send_approval_notice_forbidden -->
<!-- action_outcome_application_action_project_send_approval_notice_forbidden&#45;&gt;action_outcome_application_action_project_send_approval_notice_sent -->
<!-- action_outcome_application_action_project_send_approval_notice_sent&#45;&gt;action_outcome_application_action_project_send_approval_notice_unauthenticated -->
</g>
</svg>
