<svg width="1343pt" height="607pt"
 viewBox="0.00 0.00 1343.00 607.00" xmlns="http://www.w3.org/2000/svg" xmlns:xlink="http://www.w3.org/1999/xlink">
<!-- pyspec-contract-input-sha256: 23026ce5e45293bd686d8a33fa72ac5f6be0f6d9dfaaa1cb95a20b7ee013c5b1 -->
<g id="graph0" class="graph" transform="scale(1 1) rotate(0) translate(18 589)">
<title>operation_operation_project_submit</title>
<!-- operation_input_operation_project_submit -->
<g id="node1" class="node">
<title>operation_input_operation_project_submit</title>
<polygon fill="#ffffff" stroke="transparent" points="0,-250 0,-321 66,-321 66,-250 0,-250"/>
<polygon fill="#64748b" stroke="transparent" points="1,-311.5 1,-319.5 65,-319.5 65,-311.5 1,-311.5"/>
<polygon fill="#f8fafc" stroke="transparent" points="1,-280.5 1,-311.5 65,-311.5 65,-280.5 1,-280.5"/>
<text text-anchor="start" x="5" y="-298.1" font-family="Arial" font-weight="bold" font-size="13.00">input</text>
<text text-anchor="start" x="5" y="-287.1" font-family="Arial" font-size="8.00" fill="#64748b">operation input</text>
<text text-anchor="start" x="5" y="-269.5" font-family="Arial" font-weight="bold" font-size="10.00">fields</text>
<text text-anchor="start" x="5" y="-258.5" font-family="Arial" font-size="10.00">project_id</text>
<text text-anchor="start" x="48" y="-258.5" font-family="Arial" font-size="8.00" fill="#94a3b8">  ID</text>
<polygon fill="none" stroke="#64748b" points="0,-250 0,-321 66,-321 66,-250 0,-250"/>
</g>
<!-- operation_policy_authorization_policy_project_member -->
<g id="node2" class="node">
<title>operation_policy_authorization_policy_project_member</title>
<polygon fill="#ffffff" stroke="transparent" points="168,-227.5 168,-343.5 412,-343.5 412,-227.5 168,-227.5"/>
<polygon fill="#c2410c" stroke="transparent" points="169,-334.5 169,-342.5 411,-342.5 411,-334.5 169,-334.5"/>
<polygon fill="#fff7ed" stroke="transparent" points="169,-303.5 169,-334.5 411,-334.5 411,-303.5 169,-303.5"/>
<text text-anchor="start" x="173" y="-321.1" font-family="Arial" font-weight="bold" font-size="13.00">authorization_policy.project.member</text>
<text text-anchor="start" x="173" y="-310.1" font-family="Arial" font-size="8.00" fill="#64748b">authorization gate</text>
<text text-anchor="start" x="173" y="-292.5" font-family="Arial" font-style="italic" font-size="10.00" fill="#3f3f46">Workspace members may create, read, list, and</text>
<text text-anchor="start" x="173" y="-281.5" font-family="Arial" font-style="italic" font-size="10.00" fill="#3f3f46">submit dispatch projects.</text>
<text text-anchor="start" x="174" y="-261.5" font-family="Arial" font-weight="bold" font-size="10.00">effect:</text>
<text text-anchor="start" x="202" y="-261.5" font-family="Arial" font-size="10.00">  allow</text>
<text text-anchor="start" x="174" y="-249.5" font-family="Arial" font-weight="bold" font-size="10.00">subjects:</text>
<text text-anchor="start" x="217" y="-249.5" font-family="Arial" font-size="10.00">  actor</text>
<text text-anchor="start" x="174" y="-237.5" font-family="Arial" font-weight="bold" font-size="10.00">conditions:</text>
<text text-anchor="start" x="227" y="-237.5" font-family="Arial" font-size="10.00">  subject_has_role member</text>
<polygon fill="none" stroke="#c2410c" points="168,-227.5 168,-343.5 412,-343.5 412,-227.5 168,-227.5"/>
</g>
<!-- operation_input_operation_project_submit&#45;&gt;operation_policy_authorization_policy_project_member -->
<g id="edge1" class="edge">
<title>operation_input_operation_project_submit&#45;&gt;operation_policy_authorization_policy_project_member</title>
<path fill="none" stroke="#3f3f46" stroke-width="1.2" d="M66.04,-285.5C90.06,-285.5 124.67,-285.5 159.47,-285.5"/>
<polygon fill="#3f3f46" stroke="#3f3f46" stroke-width="1.2" points="159.84,-288.3 167.84,-285.5 159.84,-282.7 159.84,-288.3"/>
<text text-anchor="middle" x="117" y="-288.5" font-family="Arial" font-size="10.00">authorize</text>
</g>
<!-- operation_resource_operation_project_submit_transition_Project_status -->
<g id="node3" class="node">
<title>operation_resource_operation_project_submit_transition_Project_status</title>
<polygon fill="#ffffff" stroke="transparent" points="514,-250 514,-321 810,-321 810,-250 514,-250"/>
<polygon fill="#15803d" stroke="transparent" points="515,-311.5 515,-319.5 809,-319.5 809,-311.5 515,-311.5"/>
<polygon fill="#f0fdfa" stroke="transparent" points="515,-280.5 515,-311.5 809,-311.5 809,-280.5 515,-280.5"/>
<text text-anchor="start" x="519" y="-298.1" font-family="Arial" font-weight="bold" font-size="13.00">Project</text>
<text text-anchor="start" x="519" y="-287.1" font-family="Arial" font-size="8.00" fill="#64748b">model resource</text>
<text text-anchor="start" x="519" y="-269.5" font-family="Arial" font-weight="bold" font-size="10.00">change</text>
<text text-anchor="start" x="519" y="-258.5" font-family="Arial" font-size="10.00">Project.status</text>
<text text-anchor="start" x="580" y="-258.5" font-family="Arial" font-size="8.00" fill="#94a3b8">  enum&lt;draft|submitted|approved|archived&gt;</text>
<text text-anchor="start" x="736" y="-258.5" font-family="Arial" font-size="8.00">  draft → submitted</text>
<polygon fill="none" stroke="#15803d" points="514,-250 514,-321 810,-321 810,-250 514,-250"/>
</g>
<!-- operation_policy_authorization_policy_project_member&#45;&gt;operation_resource_operation_project_submit_transition_Project_status -->
<g id="edge2" class="edge">
<title>operation_policy_authorization_policy_project_member&#45;&gt;operation_resource_operation_project_submit_transition_Project_status</title>
<path fill="none" stroke="#3f3f46" d="M412.15,-285.5C441.95,-285.5 474.26,-285.5 505.43,-285.5"/>
<polygon fill="#3f3f46" stroke="#3f3f46" points="505.75,-288.3 513.75,-285.5 505.75,-282.7 505.75,-288.3"/>
<text text-anchor="middle" x="463" y="-288.5" font-family="Arial" font-size="10.00">transition</text>
</g>
<!-- operation_outcome_operation_project_submit_forbidden -->
<g id="node4" class="node">
<title>operation_outcome_operation_project_submit_forbidden</title>
<polygon fill="#ffffff" stroke="transparent" points="930,-500 930,-571 1003,-571 1003,-500 930,-500"/>
<polygon fill="#dc2626" stroke="transparent" points="931.5,-561.5 931.5,-569.5 1002.5,-569.5 1002.5,-561.5 931.5,-561.5"/>
<polygon fill="#fef2f2" stroke="transparent" points="931.5,-530.5 931.5,-561.5 1002.5,-561.5 1002.5,-530.5 931.5,-530.5"/>
<text text-anchor="start" x="935.5" y="-548.1" font-family="Arial" font-weight="bold" font-size="13.00">forbidden</text>
<text text-anchor="start" x="935.5" y="-537.1" font-family="Arial" font-size="8.00" fill="#64748b">failure outcome</text>
<text text-anchor="start" x="935.5" y="-519.5" font-family="Arial" font-weight="bold" font-size="10.00">result</text>
<text text-anchor="start" x="935.5" y="-508.5" font-family="Arial" font-size="10.00">result</text>
<text text-anchor="start" x="960.5" y="-508.5" font-family="Arial" font-size="8.00" fill="#94a3b8">  Problem</text>
<polygon fill="none" stroke="#dc2626" points="930,-500 930,-571 1003,-571 1003,-500 930,-500"/>
</g>
<!-- operation_policy_authorization_policy_project_member&#45;&gt;operation_outcome_operation_project_submit_forbidden -->
<g id="edge3" class="edge">
<title>operation_policy_authorization_policy_project_member&#45;&gt;operation_outcome_operation_project_submit_forbidden</title>
<path fill="none" stroke="#3f3f46" d="M412.37,-330.48C565.4,-387.21 820.75,-481.85 922.12,-519.42"/>
<polygon fill="#3f3f46" stroke="#3f3f46" points="921.25,-522.08 929.72,-522.24 923.19,-516.83 921.25,-522.08"/>
<text text-anchor="middle" x="662" y="-477.5" font-family="Arial" font-size="10.00">forbidden_as</text>
</g>
<!-- operation_outcome_operation_project_submit_unauthenticated -->
<g id="node8" class="node">
<title>operation_outcome_operation_project_submit_unauthenticated</title>
<polygon fill="#ffffff" stroke="transparent" points="909,0 909,-71 1024,-71 1024,0 909,0"/>
<polygon fill="#dc2626" stroke="transparent" points="910.5,-61.5 910.5,-69.5 1023.5,-69.5 1023.5,-61.5 910.5,-61.5"/>
<polygon fill="#fef2f2" stroke="transparent" points="910.5,-30.5 910.5,-61.5 1023.5,-61.5 1023.5,-30.5 910.5,-30.5"/>
<text text-anchor="start" x="914.5" y="-48.1" font-family="Arial" font-weight="bold" font-size="13.00">unauthenticated</text>
<text text-anchor="start" x="914.5" y="-37.1" font-family="Arial" font-size="8.00" fill="#64748b">failure outcome</text>
<text text-anchor="start" x="914.5" y="-19.5" font-family="Arial" font-weight="bold" font-size="10.00">result</text>
<text text-anchor="start" x="914.5" y="-8.5" font-family="Arial" font-size="10.00">result</text>
<text text-anchor="start" x="939.5" y="-8.5" font-family="Arial" font-size="8.00" fill="#94a3b8">  Problem</text>
<polygon fill="none" stroke="#dc2626" points="909,0 909,-71 1024,-71 1024,0 909,0"/>
</g>
<!-- operation_policy_authorization_policy_project_member&#45;&gt;operation_outcome_operation_project_submit_unauthenticated -->
<g id="edge8" class="edge">
<title>operation_policy_authorization_policy_project_member&#45;&gt;operation_outcome_operation_project_submit_unauthenticated</title>
<path fill="none" stroke="#3f3f46" d="M412.37,-240.52C555.85,-187.33 789.28,-100.81 901.4,-59.26"/>
<polygon fill="#3f3f46" stroke="#3f3f46" points="902.41,-61.87 908.94,-56.46 900.46,-56.62 902.41,-61.87"/>
<text text-anchor="middle" x="662" y="-204.5" font-family="Arial" font-size="10.00">unauthenticated_as</text>
</g>
<!-- operation_outcome_operation_project_submit_invalid_state -->
<g id="node5" class="node">
<title>operation_outcome_operation_project_submit_invalid_state</title>
<polygon fill="#ffffff" stroke="transparent" points="920.5,-375 920.5,-446 1012.5,-446 1012.5,-375 920.5,-375"/>
<polygon fill="#dc2626" stroke="transparent" points="921.5,-436.5 921.5,-444.5 1011.5,-444.5 1011.5,-436.5 921.5,-436.5"/>
<polygon fill="#fef2f2" stroke="transparent" points="921.5,-405.5 921.5,-436.5 1011.5,-436.5 1011.5,-405.5 921.5,-405.5"/>
<text text-anchor="start" x="925.5" y="-423.1" font-family="Arial" font-weight="bold" font-size="13.00">invalid_state</text>
<text text-anchor="start" x="925.5" y="-412.1" font-family="Arial" font-size="8.00" fill="#64748b">failure outcome</text>
<text text-anchor="start" x="925.5" y="-394.5" font-family="Arial" font-weight="bold" font-size="10.00">result</text>
<text text-anchor="start" x="925.5" y="-383.5" font-family="Arial" font-size="10.00">result</text>
<text text-anchor="start" x="950.5" y="-383.5" font-family="Arial" font-size="8.00" fill="#94a3b8">  Problem</text>
<polygon fill="none" stroke="#dc2626" points="920.5,-375 920.5,-446 1012.5,-446 1012.5,-375 920.5,-375"/>
</g>
<!-- operation_resource_operation_project_submit_transition_Project_status&#45;&gt;operation_outcome_operation_project_submit_invalid_state -->
<g id="edge4" class="edge">
<title>operation_resource_operation_project_submit_transition_Project_status&#45;&gt;operation_outcome_operation_project_submit_invalid_state</title>
<path fill="none" stroke="#3f3f46" d="M749.28,-321.15C801.94,-342.91 867.57,-370.03 912.63,-388.65"/>
<polygon fill="#3f3f46" stroke="#3f3f46" points="911.78,-391.33 920.24,-391.8 913.91,-386.15 911.78,-391.33"/>
<text text-anchor="middle" x="859.5" y="-377.5" font-family="Arial" font-size="10.00">failure</text>
</g>
<!-- operation_outcome_operation_project_submit_not_found -->
<g id="node6" class="node">
<title>operation_outcome_operation_project_submit_not_found</title>
<polygon fill="#ffffff" stroke="transparent" points="928,-250 928,-321 1005,-321 1005,-250 928,-250"/>
<polygon fill="#dc2626" stroke="transparent" points="929.5,-311.5 929.5,-319.5 1004.5,-319.5 1004.5,-311.5 929.5,-311.5"/>
<polygon fill="#fef2f2" stroke="transparent" points="929.5,-280.5 929.5,-311.5 1004.5,-311.5 1004.5,-280.5 929.5,-280.5"/>
<text text-anchor="start" x="933.5" y="-298.1" font-family="Arial" font-weight="bold" font-size="13.00">not_found</text>
<text text-anchor="start" x="933.5" y="-287.1" font-family="Arial" font-size="8.00" fill="#64748b">failure outcome</text>
<text text-anchor="start" x="933.5" y="-269.5" font-family="Arial" font-weight="bold" font-size="10.00">result</text>
<text text-anchor="start" x="933.5" y="-258.5" font-family="Arial" font-size="10.00">result</text>
<text text-anchor="start" x="958.5" y="-258.5" font-family="Arial" font-size="8.00" fill="#94a3b8">  Problem</text>
<polygon fill="none" stroke="#dc2626" points="928,-250 928,-321 1005,-321 1005,-250 928,-250"/>
</g>
<!-- operation_resource_operation_project_submit_transition_Project_status&#45;&gt;operation_outcome_operation_project_submit_not_found -->
<g id="edge5" class="edge">
<title>operation_resource_operation_project_submit_transition_Project_status&#45;&gt;operation_outcome_operation_project_submit_not_found</title>
<path fill="none" stroke="#3f3f46" d="M810.26,-285.5C850.09,-285.5 890.29,-285.5 919.8,-285.5"/>
<polygon fill="#3f3f46" stroke="#3f3f46" points="919.83,-288.3 927.83,-285.5 919.83,-282.7 919.83,-288.3"/>
<text text-anchor="middle" x="859.5" y="-288.5" font-family="Arial" font-size="10.00">failure</text>
</g>
<!-- operation_outcome_operation_project_submit_submitted -->
<g id="node7" class="node">
<title>operation_outcome_operation_project_submit_submitted</title>
<polygon fill="#ffffff" stroke="transparent" points="929.5,-125 929.5,-196 1003.5,-196 1003.5,-125 929.5,-125"/>
<polygon fill="#16a34a" stroke="transparent" points="930.5,-186.5 930.5,-194.5 1002.5,-194.5 1002.5,-186.5 930.5,-186.5"/>
<polygon fill="#f0fdf4" stroke="transparent" points="930.5,-155.5 930.5,-186.5 1002.5,-186.5 1002.5,-155.5 930.5,-155.5"/>
<text text-anchor="start" x="934.5" y="-173.1" font-family="Arial" font-weight="bold" font-size="13.00">submitted</text>
<text text-anchor="start" x="934.5" y="-162.1" font-family="Arial" font-size="8.00" fill="#64748b">success outcome</text>
<text text-anchor="start" x="934.5" y="-144.5" font-family="Arial" font-weight="bold" font-size="10.00">result</text>
<text text-anchor="start" x="934.5" y="-133.5" font-family="Arial" font-size="10.00">result</text>
<text text-anchor="start" x="959.5" y="-133.5" font-family="Arial" font-size="8.00" fill="#94a3b8">  Project</text>
<polygon fill="none" stroke="#16a34a" points="929.5,-125 929.5,-196 1003.5,-196 1003.5,-125 929.5,-125"/>
</g>
<!-- operation_resource_operation_project_submit_transition_Project_status&#45;&gt;operation_outcome_operation_project_submit_submitted -->
<g id="edge6" class="edge">
<title>operation_resource_operation_project_submit_transition_Project_status&#45;&gt;operation_outcome_operation_project_submit_submitted</title>
<path fill="none" stroke="#3f3f46" d="M749.28,-249.85C805.57,-226.59 876.69,-197.2 921.65,-178.62"/>
<polygon fill="#3f3f46" stroke="#3f3f46" points="922.86,-181.15 929.18,-175.51 920.72,-175.97 922.86,-181.15"/>
<text text-anchor="middle" x="859.5" y="-215.5" font-family="Arial" font-size="10.00">success</text>
</g>
<!-- operation_outcome_operation_project_submit_forbidden&#45;&gt;operation_outcome_operation_project_submit_invalid_state -->
<!-- operation_outcome_operation_project_submit_invalid_state&#45;&gt;operation_outcome_operation_project_submit_not_found -->
<!-- operation_outcome_operation_project_submit_not_found&#45;&gt;operation_outcome_operation_project_submit_submitted -->
<!-- operation_outcome_operation_project_submit_submitted&#45;&gt;operation_outcome_operation_project_submit_unauthenticated -->
<!-- operation_event_operation_project_submit_event_project_submitted -->
<g id="node9" class="node">
<title>operation_event_operation_project_submit_event_project_submitted</title>
<polygon fill="#ffffff" stroke="transparent" points="1105,-110 1105,-211 1307,-211 1307,-110 1105,-110"/>
<polygon fill="#4f46e5" stroke="transparent" points="1106,-201.5 1106,-209.5 1306,-209.5 1306,-201.5 1106,-201.5"/>
<polygon fill="#eef2ff" stroke="transparent" points="1106,-170.5 1106,-201.5 1306,-201.5 1306,-170.5 1106,-170.5"/>
<text text-anchor="start" x="1110" y="-188.1" font-family="Arial" font-weight="bold" font-size="13.00">event.project.submitted</text>
<text text-anchor="start" x="1110" y="-177.1" font-family="Arial" font-size="8.00" fill="#64748b">emitted event</text>
<text text-anchor="start" x="1110" y="-159.5" font-family="Arial" font-style="italic" font-size="10.00" fill="#3f3f46">Draft dispatch projects can be submitted for</text>
<text text-anchor="start" x="1110" y="-148.5" font-family="Arial" font-style="italic" font-size="10.00" fill="#3f3f46">review.</text>
<text text-anchor="start" x="1110" y="-129.5" font-family="Arial" font-weight="bold" font-size="10.00">payload</text>
<text text-anchor="start" x="1110" y="-118.5" font-family="Arial" font-size="10.00">payload</text>
<text text-anchor="start" x="1144" y="-118.5" font-family="Arial" font-size="8.00" fill="#94a3b8">  Project</text>
<polygon fill="none" stroke="#4f46e5" points="1105,-110 1105,-211 1307,-211 1307,-110 1105,-110"/>
</g>
<!-- operation_outcome_operation_project_submit_submitted&#45;&gt;operation_event_operation_project_submit_event_project_submitted -->
<g id="edge7" class="edge">
<title>operation_outcome_operation_project_submit_submitted&#45;&gt;operation_event_operation_project_submit_event_project_submitted</title>
<path fill="none" stroke="#3f3f46" stroke-width="1.2" d="M1003.57,-160.5C1028.56,-160.5 1063.24,-160.5 1096.8,-160.5"/>
<polygon fill="#3f3f46" stroke="#3f3f46" stroke-width="1.2" points="1096.84,-163.3 1104.84,-160.5 1096.84,-157.7 1096.84,-163.3"/>
<text text-anchor="middle" x="1064.5" y="-163.5" font-family="Arial" font-size="10.00">emit</text>
</g>
</g>
</svg>
