<svg width="1312pt" height="372pt"
 viewBox="0.00 0.00 1312.00 372.00" xmlns="http://www.w3.org/2000/svg" xmlns:xlink="http://www.w3.org/1999/xlink">
<!-- pyspec-contract-input-sha256: cd9fdd865b20fcf91d978dd680ee960dd13966f9e7c07f29c5e5c433630a89b2 -->
<g id="graph0" class="graph" transform="scale(1 1) rotate(0) translate(18 354)">
<title>operation_operation_project_submit</title>
<!-- operation_input_operation_project_submit -->
<g id="node1" class="node">
<title>operation_input_operation_project_submit</title>
<polygon fill="#ffffff" stroke="transparent" points="0,-140 0,-211 66,-211 66,-140 0,-140"/>
<polygon fill="#64748b" stroke="transparent" points="1,-201.5 1,-209.5 65,-209.5 65,-201.5 1,-201.5"/>
<polygon fill="#f8fafc" stroke="transparent" points="1,-170.5 1,-201.5 65,-201.5 65,-170.5 1,-170.5"/>
<text text-anchor="start" x="5" y="-188.1" font-family="Arial" font-weight="bold" font-size="13.00">input</text>
<text text-anchor="start" x="5" y="-177.1" font-family="Arial" font-size="8.00" fill="#64748b">operation input</text>
<text text-anchor="start" x="5" y="-159.5" font-family="Arial" font-weight="bold" font-size="10.00">fields</text>
<text text-anchor="start" x="5" y="-148.5" font-family="Arial" font-size="10.00">project_id</text>
<text text-anchor="start" x="48" y="-148.5" font-family="Arial" font-size="8.00" fill="#94a3b8">  ID</text>
<polygon fill="none" stroke="#64748b" points="0,-140 0,-211 66,-211 66,-140 0,-140"/>
</g>
<!-- operation_policy_authorization_policy_project_submit -->
<g id="node2" class="node">
<title>operation_policy_authorization_policy_project_submit</title>
<polygon fill="#ffffff" stroke="transparent" points="168,-117.5 168,-233.5 404,-233.5 404,-117.5 168,-117.5"/>
<polygon fill="#c2410c" stroke="transparent" points="169,-224.5 169,-232.5 403,-232.5 403,-224.5 169,-224.5"/>
<polygon fill="#fff7ed" stroke="transparent" points="169,-193.5 169,-224.5 403,-224.5 403,-193.5 169,-193.5"/>
<text text-anchor="start" x="173" y="-211.1" font-family="Arial" font-weight="bold" font-size="13.00">authorization_policy.project.submit</text>
<text text-anchor="start" x="173" y="-200.1" font-family="Arial" font-size="8.00" fill="#64748b">authorization gate</text>
<text text-anchor="start" x="173" y="-182.5" font-family="Arial" font-style="italic" font-size="10.00" fill="#3f3f46">Draft dispatch projects can be submitted for</text>
<text text-anchor="start" x="173" y="-171.5" font-family="Arial" font-style="italic" font-size="10.00" fill="#3f3f46">review.</text>
<text text-anchor="start" x="174" y="-151.5" font-family="Arial" font-weight="bold" font-size="10.00">effect:</text>
<text text-anchor="start" x="202" y="-151.5" font-family="Arial" font-size="10.00">  allow</text>
<text text-anchor="start" x="174" y="-139.5" font-family="Arial" font-weight="bold" font-size="10.00">subjects:</text>
<text text-anchor="start" x="217" y="-139.5" font-family="Arial" font-size="10.00">  actor</text>
<text text-anchor="start" x="174" y="-127.5" font-family="Arial" font-weight="bold" font-size="10.00">conditions:</text>
<text text-anchor="start" x="227" y="-127.5" font-family="Arial" font-size="10.00">  Project.status = draft</text>
<polygon fill="none" stroke="#c2410c" points="168,-117.5 168,-233.5 404,-233.5 404,-117.5 168,-117.5"/>
</g>
<!-- operation_input_operation_project_submit&#45;&gt;operation_policy_authorization_policy_project_submit -->
<g id="edge1" class="edge">
<title>operation_input_operation_project_submit&#45;&gt;operation_policy_authorization_policy_project_submit</title>
<path fill="none" stroke="#c2410c" stroke-width="1.2" d="M66.04,-175.5C90.15,-175.5 124.86,-175.5 159.57,-175.5"/>
<polygon fill="#c2410c" stroke="#c2410c" stroke-width="1.2" points="159.91,-178.3 167.91,-175.5 159.91,-172.7 159.91,-178.3"/>
<text text-anchor="middle" x="117" y="-178.5" font-family="Arial" font-size="10.00">authorize</text>
</g>
<!-- operation_resource_operation_project_submit_transition_Project_status -->
<g id="node3" class="node">
<title>operation_resource_operation_project_submit_transition_Project_status</title>
<polygon fill="#ffffff" stroke="transparent" points="506,-140 506,-211 802,-211 802,-140 506,-140"/>
<polygon fill="#15803d" stroke="transparent" points="507,-201.5 507,-209.5 801,-209.5 801,-201.5 507,-201.5"/>
<polygon fill="#f0fdfa" stroke="transparent" points="507,-170.5 507,-201.5 801,-201.5 801,-170.5 507,-170.5"/>
<text text-anchor="start" x="511" y="-188.1" font-family="Arial" font-weight="bold" font-size="13.00">Project</text>
<text text-anchor="start" x="511" y="-177.1" font-family="Arial" font-size="8.00" fill="#64748b">model resource</text>
<text text-anchor="start" x="511" y="-159.5" font-family="Arial" font-weight="bold" font-size="10.00">change</text>
<text text-anchor="start" x="511" y="-148.5" font-family="Arial" font-size="10.00">Project.status</text>
<text text-anchor="start" x="572" y="-148.5" font-family="Arial" font-size="8.00" fill="#94a3b8">  enum&lt;draft|submitted|approved|archived&gt;</text>
<text text-anchor="start" x="728" y="-148.5" font-family="Arial" font-size="8.00">  draft → submitted</text>
<polygon fill="none" stroke="#15803d" points="506,-140 506,-211 802,-211 802,-140 506,-140"/>
</g>
<!-- operation_policy_authorization_policy_project_submit&#45;&gt;operation_resource_operation_project_submit_transition_Project_status -->
<g id="edge2" class="edge">
<title>operation_policy_authorization_policy_project_submit&#45;&gt;operation_resource_operation_project_submit_transition_Project_status</title>
<path fill="none" stroke="#15803d" d="M404.06,-175.5C433.82,-175.5 466.27,-175.5 497.6,-175.5"/>
<polygon fill="#15803d" stroke="#15803d" points="497.98,-178.3 505.98,-175.5 497.98,-172.7 497.98,-178.3"/>
<text text-anchor="middle" x="455" y="-178.5" font-family="Arial" font-size="10.00">transition</text>
</g>
<!-- operation_outcome_operation_project_submit_invalid_state -->
<g id="node4" class="node">
<title>operation_outcome_operation_project_submit_invalid_state</title>
<polygon fill="#ffffff" stroke="transparent" points="901,-265 901,-336 993,-336 993,-265 901,-265"/>
<polygon fill="#dc2626" stroke="transparent" points="902,-326.5 902,-334.5 992,-334.5 992,-326.5 902,-326.5"/>
<polygon fill="#fef2f2" stroke="transparent" points="902,-295.5 902,-326.5 992,-326.5 992,-295.5 902,-295.5"/>
<text text-anchor="start" x="906" y="-313.1" font-family="Arial" font-weight="bold" font-size="13.00">invalid_state</text>
<text text-anchor="start" x="906" y="-302.1" font-family="Arial" font-size="8.00" fill="#64748b">failure outcome</text>
<text text-anchor="start" x="906" y="-284.5" font-family="Arial" font-weight="bold" font-size="10.00">result</text>
<text text-anchor="start" x="906" y="-273.5" font-family="Arial" font-size="10.00">result</text>
<text text-anchor="start" x="931" y="-273.5" font-family="Arial" font-size="8.00" fill="#94a3b8">  Problem</text>
<polygon fill="none" stroke="#dc2626" points="901,-265 901,-336 993,-336 993,-265 901,-265"/>
</g>
<!-- operation_resource_operation_project_submit_transition_Project_status&#45;&gt;operation_outcome_operation_project_submit_invalid_state -->
<g id="edge3" class="edge">
<title>operation_resource_operation_project_submit_transition_Project_status&#45;&gt;operation_outcome_operation_project_submit_invalid_state</title>
<path fill="none" stroke="#dc2626" d="M738,-211.15C787.92,-232.6 849.96,-259.25 893.23,-277.83"/>
<polygon fill="#dc2626" stroke="#dc2626" points="892.36,-280.51 900.82,-281.09 894.57,-275.36 892.36,-280.51"/>
<text text-anchor="middle" x="851.5" y="-269.5" font-family="Arial" font-size="10.00">failure</text>
</g>
<!-- operation_outcome_operation_project_submit_not_found -->
<g id="node5" class="node">
<title>operation_outcome_operation_project_submit_not_found</title>
<polygon fill="#ffffff" stroke="transparent" points="908.5,-140 908.5,-211 985.5,-211 985.5,-140 908.5,-140"/>
<polygon fill="#dc2626" stroke="transparent" points="910,-201.5 910,-209.5 985,-209.5 985,-201.5 910,-201.5"/>
<polygon fill="#fef2f2" stroke="transparent" points="910,-170.5 910,-201.5 985,-201.5 985,-170.5 910,-170.5"/>
<text text-anchor="start" x="914" y="-188.1" font-family="Arial" font-weight="bold" font-size="13.00">not_found</text>
<text text-anchor="start" x="914" y="-177.1" font-family="Arial" font-size="8.00" fill="#64748b">failure outcome</text>
<text text-anchor="start" x="914" y="-159.5" font-family="Arial" font-weight="bold" font-size="10.00">result</text>
<text text-anchor="start" x="914" y="-148.5" font-family="Arial" font-size="10.00">result</text>
<text text-anchor="start" x="939" y="-148.5" font-family="Arial" font-size="8.00" fill="#94a3b8">  Problem</text>
<polygon fill="none" stroke="#dc2626" points="908.5,-140 908.5,-211 985.5,-211 985.5,-140 908.5,-140"/>
</g>
<!-- operation_resource_operation_project_submit_transition_Project_status&#45;&gt;operation_outcome_operation_project_submit_not_found -->
<g id="edge4" class="edge">
<title>operation_resource_operation_project_submit_transition_Project_status&#45;&gt;operation_outcome_operation_project_submit_not_found</title>
<path fill="none" stroke="#dc2626" d="M802.21,-175.5C837.98,-175.5 873.61,-175.5 900.46,-175.5"/>
<polygon fill="#dc2626" stroke="#dc2626" points="900.5,-178.3 908.5,-175.5 900.5,-172.7 900.5,-178.3"/>
<text text-anchor="middle" x="851.5" y="-178.5" font-family="Arial" font-size="10.00">failure</text>
</g>
<!-- operation_outcome_operation_project_submit_submitted -->
<g id="node6" class="node">
<title>operation_outcome_operation_project_submit_submitted</title>
<polygon fill="#ffffff" stroke="transparent" points="910,-15 910,-86 984,-86 984,-15 910,-15"/>
<polygon fill="#16a34a" stroke="transparent" points="911,-76.5 911,-84.5 983,-84.5 983,-76.5 911,-76.5"/>
<polygon fill="#f0fdf4" stroke="transparent" points="911,-45.5 911,-76.5 983,-76.5 983,-45.5 911,-45.5"/>
<text text-anchor="start" x="915" y="-63.1" font-family="Arial" font-weight="bold" font-size="13.00">submitted</text>
<text text-anchor="start" x="915" y="-52.1" font-family="Arial" font-size="8.00" fill="#64748b">success outcome</text>
<text text-anchor="start" x="915" y="-34.5" font-family="Arial" font-weight="bold" font-size="10.00">result</text>
<text text-anchor="start" x="915" y="-23.5" font-family="Arial" font-size="10.00">result</text>
<text text-anchor="start" x="940" y="-23.5" font-family="Arial" font-size="8.00" fill="#94a3b8">  Project</text>
<polygon fill="none" stroke="#16a34a" points="910,-15 910,-86 984,-86 984,-15 910,-15"/>
</g>
<!-- operation_resource_operation_project_submit_transition_Project_status&#45;&gt;operation_outcome_operation_project_submit_submitted -->
<g id="edge5" class="edge">
<title>operation_resource_operation_project_submit_transition_Project_status&#45;&gt;operation_outcome_operation_project_submit_submitted</title>
<path fill="none" stroke="#16a34a" d="M738,-139.85C791.56,-116.84 859.08,-87.84 902.4,-69.23"/>
<polygon fill="#16a34a" stroke="#16a34a" points="903.69,-71.72 909.93,-65.99 901.48,-66.58 903.69,-71.72"/>
<text text-anchor="middle" x="851.5" y="-100.5" font-family="Arial" font-size="10.00">success</text>
</g>
<!-- operation_outcome_operation_project_submit_invalid_state&#45;&gt;operation_outcome_operation_project_submit_not_found -->
<!-- operation_outcome_operation_project_submit_not_found&#45;&gt;operation_outcome_operation_project_submit_submitted -->
<!-- operation_event_operation_project_submit_event_project_submitted -->
<g id="node7" class="node">
<title>operation_event_operation_project_submit_event_project_submitted</title>
<polygon fill="#ffffff" stroke="transparent" points="1074,0 1074,-101 1276,-101 1276,0 1074,0"/>
<polygon fill="#4f46e5" stroke="transparent" points="1075,-91.5 1075,-99.5 1275,-99.5 1275,-91.5 1075,-91.5"/>
<polygon fill="#eef2ff" stroke="transparent" points="1075,-60.5 1075,-91.5 1275,-91.5 1275,-60.5 1075,-60.5"/>
<text text-anchor="start" x="1079" y="-78.1" font-family="Arial" font-weight="bold" font-size="13.00">event.project.submitted</text>
<text text-anchor="start" x="1079" y="-67.1" font-family="Arial" font-size="8.00" fill="#64748b">emitted event</text>
<text text-anchor="start" x="1079" y="-49.5" font-family="Arial" font-style="italic" font-size="10.00" fill="#3f3f46">Draft dispatch projects can be submitted for</text>
<text text-anchor="start" x="1079" y="-38.5" font-family="Arial" font-style="italic" font-size="10.00" fill="#3f3f46">review.</text>
<text text-anchor="start" x="1079" y="-19.5" font-family="Arial" font-weight="bold" font-size="10.00">payload</text>
<text text-anchor="start" x="1079" y="-8.5" font-family="Arial" font-size="10.00">payload</text>
<text text-anchor="start" x="1113" y="-8.5" font-family="Arial" font-size="8.00" fill="#94a3b8">  Project</text>
<polygon fill="none" stroke="#4f46e5" points="1074,0 1074,-101 1276,-101 1276,0 1074,0"/>
</g>
<!-- operation_outcome_operation_project_submit_submitted&#45;&gt;operation_event_operation_project_submit_event_project_submitted -->
<g id="edge6" class="edge">
<title>operation_outcome_operation_project_submit_submitted&#45;&gt;operation_event_operation_project_submit_event_project_submitted</title>
<path fill="none" stroke="#4f46e5" stroke-width="1.2" d="M984.06,-50.5C1006.27,-50.5 1036.04,-50.5 1065.41,-50.5"/>
<polygon fill="#4f46e5" stroke="#4f46e5" stroke-width="1.2" points="1065.67,-53.3 1073.67,-50.5 1065.67,-47.7 1065.67,-53.3"/>
<text text-anchor="middle" x="1033.5" y="-53.5" font-family="Arial" font-size="10.00">emit</text>
</g>
</g>
</svg>
