<svg width="1335pt" height="607pt"
 viewBox="0.00 0.00 1335.00 607.00" xmlns="http://www.w3.org/2000/svg" xmlns:xlink="http://www.w3.org/1999/xlink">
<!-- pyspec-contract-input-sha256: 6b347453d5679a27d0de3843659a16f10a1d0d767ca4da18fd24afed9d8d31bd -->
<g id="graph0" class="graph" transform="scale(1 1) rotate(0) translate(18 589)">
<title>operation_operation_project_submit</title>
<!-- operation_input_operation_project_submit -->
<g id="node1" class="node">
<title>operation_input_operation_project_submit</title>
<polygon fill="#ffffff" stroke="transparent" points="0,-250 0,-321 66,-321 66,-250 0,-250"/>
<polygon fill="#64748b" stroke="transparent" points="1,-311.5 1,-319.5 65,-319.5 65,-311.5 1,-311.5"/>
<polygon fill="#f8fafc" stroke="transparent" points="1,-280.5 1,-311.5 65,-311.5 65,-280.5 1,-280.5"/>
<text text-anchor="start" x="5" y="-298.1" font-family="Arial" font-weight="bold" font-size="13.00">input</text>
<text text-anchor="start" x="5" y="-287.1" font-family="Arial" font-size="8.00" fill="#64748b">operation input</text>
<text text-anchor="start" x="5" y="-269.5" font-family="Arial" font-weight="bold" font-size="10.00">fields</text>
<text text-anchor="start" x="5" y="-258.5" font-family="Arial" font-size="10.00">project_id</text>
<text text-anchor="start" x="48" y="-258.5" font-family="Arial" font-size="8.00" fill="#94a3b8">  ID</text>
<polygon fill="none" stroke="#64748b" points="0,-250 0,-321 66,-321 66,-250 0,-250"/>
</g>
<!-- operation_policy_authorization_policy_project_submit -->
<g id="node2" class="node">
<title>operation_policy_authorization_policy_project_submit</title>
<polygon fill="#ffffff" stroke="transparent" points="168,-227.5 168,-343.5 404,-343.5 404,-227.5 168,-227.5"/>
<polygon fill="#c2410c" stroke="transparent" points="169,-334.5 169,-342.5 403,-342.5 403,-334.5 169,-334.5"/>
<polygon fill="#fff7ed" stroke="transparent" points="169,-303.5 169,-334.5 403,-334.5 403,-303.5 169,-303.5"/>
<text text-anchor="start" x="173" y="-321.1" font-family="Arial" font-weight="bold" font-size="13.00">authorization_policy.project.submit</text>
<text text-anchor="start" x="173" y="-310.1" font-family="Arial" font-size="8.00" fill="#64748b">authorization gate</text>
<text text-anchor="start" x="173" y="-292.5" font-family="Arial" font-style="italic" font-size="10.00" fill="#3f3f46">Workspace members may submit draft dispatch</text>
<text text-anchor="start" x="173" y="-281.5" font-family="Arial" font-style="italic" font-size="10.00" fill="#3f3f46">projects.</text>
<text text-anchor="start" x="174" y="-261.5" font-family="Arial" font-weight="bold" font-size="10.00">effect:</text>
<text text-anchor="start" x="202" y="-261.5" font-family="Arial" font-size="10.00">  allow</text>
<text text-anchor="start" x="174" y="-249.5" font-family="Arial" font-weight="bold" font-size="10.00">subjects:</text>
<text text-anchor="start" x="217" y="-249.5" font-family="Arial" font-size="10.00">  actor</text>
<text text-anchor="start" x="174" y="-237.5" font-family="Arial" font-weight="bold" font-size="10.00">conditions:</text>
<text text-anchor="start" x="227" y="-237.5" font-family="Arial" font-size="10.00">  subject_has_role member</text>
<polygon fill="none" stroke="#c2410c" points="168,-227.5 168,-343.5 404,-343.5 404,-227.5 168,-227.5"/>
</g>
<!-- operation_input_operation_project_submit&#45;&gt;operation_policy_authorization_policy_project_submit -->
<g id="edge1" class="edge">
<title>operation_input_operation_project_submit&#45;&gt;operation_policy_authorization_policy_project_submit</title>
<path fill="none" stroke="#3f3f46" stroke-width="1.2" d="M66.04,-285.5C90.15,-285.5 124.86,-285.5 159.57,-285.5"/>
<polygon fill="#3f3f46" stroke="#3f3f46" stroke-width="1.2" points="159.91,-288.3 167.91,-285.5 159.91,-282.7 159.91,-288.3"/>
<text text-anchor="middle" x="117" y="-288.5" font-family="Arial" font-size="10.00">authorize</text>
</g>
<!-- operation_resource_operation_project_submit_transition_Project_status -->
<g id="node3" class="node">
<title>operation_resource_operation_project_submit_transition_Project_status</title>
<polygon fill="#ffffff" stroke="transparent" points="506,-250 506,-321 802,-321 802,-250 506,-250"/>
<polygon fill="#15803d" stroke="transparent" points="507,-311.5 507,-319.5 801,-319.5 801,-311.5 507,-311.5"/>
<polygon fill="#f0fdfa" stroke="transparent" points="507,-280.5 507,-311.5 801,-311.5 801,-280.5 507,-280.5"/>
<text text-anchor="start" x="511" y="-298.1" font-family="Arial" font-weight="bold" font-size="13.00">Project</text>
<text text-anchor="start" x="511" y="-287.1" font-family="Arial" font-size="8.00" fill="#64748b">model resource</text>
<text text-anchor="start" x="511" y="-269.5" font-family="Arial" font-weight="bold" font-size="10.00">change</text>
<text text-anchor="start" x="511" y="-258.5" font-family="Arial" font-size="10.00">Project.status</text>
<text text-anchor="start" x="572" y="-258.5" font-family="Arial" font-size="8.00" fill="#94a3b8">  enum&lt;draft|submitted|approved|archived&gt;</text>
<text text-anchor="start" x="728" y="-258.5" font-family="Arial" font-size="8.00">  draft → submitted</text>
<polygon fill="none" stroke="#15803d" points="506,-250 506,-321 802,-321 802,-250 506,-250"/>
</g>
<!-- operation_policy_authorization_policy_project_submit&#45;&gt;operation_resource_operation_project_submit_transition_Project_status -->
<g id="edge2" class="edge">
<title>operation_policy_authorization_policy_project_submit&#45;&gt;operation_resource_operation_project_submit_transition_Project_status</title>
<path fill="none" stroke="#3f3f46" d="M404.06,-285.5C433.82,-285.5 466.27,-285.5 497.6,-285.5"/>
<polygon fill="#3f3f46" stroke="#3f3f46" points="497.98,-288.3 505.98,-285.5 497.98,-282.7 497.98,-288.3"/>
<text text-anchor="middle" x="455" y="-288.5" font-family="Arial" font-size="10.00">transition</text>
</g>
<!-- operation_outcome_operation_project_submit_forbidden -->
<g id="node4" class="node">
<title>operation_outcome_operation_project_submit_forbidden</title>
<polygon fill="#ffffff" stroke="transparent" points="922,-500 922,-571 995,-571 995,-500 922,-500"/>
<polygon fill="#dc2626" stroke="transparent" points="923.5,-561.5 923.5,-569.5 994.5,-569.5 994.5,-561.5 923.5,-561.5"/>
<polygon fill="#fef2f2" stroke="transparent" points="923.5,-530.5 923.5,-561.5 994.5,-561.5 994.5,-530.5 923.5,-530.5"/>
<text text-anchor="start" x="927.5" y="-548.1" font-family="Arial" font-weight="bold" font-size="13.00">forbidden</text>
<text text-anchor="start" x="927.5" y="-537.1" font-family="Arial" font-size="8.00" fill="#64748b">failure outcome</text>
<text text-anchor="start" x="927.5" y="-519.5" font-family="Arial" font-weight="bold" font-size="10.00">result</text>
<text text-anchor="start" x="927.5" y="-508.5" font-family="Arial" font-size="10.00">result</text>
<text text-anchor="start" x="952.5" y="-508.5" font-family="Arial" font-size="8.00" fill="#94a3b8">  Problem</text>
<polygon fill="none" stroke="#dc2626" points="922,-500 922,-571 995,-571 995,-500 922,-500"/>
</g>
<!-- operation_policy_authorization_policy_project_submit&#45;&gt;operation_outcome_operation_project_submit_forbidden -->
<g id="edge3" class="edge">
<title>operation_policy_authorization_policy_project_submit&#45;&gt;operation_outcome_operation_project_submit_forbidden</title>
<path fill="none" stroke="#3f3f46" d="M404.18,-329.19C555.82,-385.73 812.64,-481.49 914.25,-519.37"/>
<polygon fill="#3f3f46" stroke="#3f3f46" points="913.4,-522.05 921.87,-522.22 915.36,-516.8 913.4,-522.05"/>
<text text-anchor="middle" x="654" y="-477.5" font-family="Arial" font-size="10.00">forbidden_as</text>
</g>
<!-- operation_outcome_operation_project_submit_unauthenticated -->
<g id="node8" class="node">
<title>operation_outcome_operation_project_submit_unauthenticated</title>
<polygon fill="#ffffff" stroke="transparent" points="901,0 901,-71 1016,-71 1016,0 901,0"/>
<polygon fill="#dc2626" stroke="transparent" points="902.5,-61.5 902.5,-69.5 1015.5,-69.5 1015.5,-61.5 902.5,-61.5"/>
<polygon fill="#fef2f2" stroke="transparent" points="902.5,-30.5 902.5,-61.5 1015.5,-61.5 1015.5,-30.5 902.5,-30.5"/>
<text text-anchor="start" x="906.5" y="-48.1" font-family="Arial" font-weight="bold" font-size="13.00">unauthenticated</text>
<text text-anchor="start" x="906.5" y="-37.1" font-family="Arial" font-size="8.00" fill="#64748b">failure outcome</text>
<text text-anchor="start" x="906.5" y="-19.5" font-family="Arial" font-weight="bold" font-size="10.00">result</text>
<text text-anchor="start" x="906.5" y="-8.5" font-family="Arial" font-size="10.00">result</text>
<text text-anchor="start" x="931.5" y="-8.5" font-family="Arial" font-size="8.00" fill="#94a3b8">  Problem</text>
<polygon fill="none" stroke="#dc2626" points="901,0 901,-71 1016,-71 1016,0 901,0"/>
</g>
<!-- operation_policy_authorization_policy_project_submit&#45;&gt;operation_outcome_operation_project_submit_unauthenticated -->
<g id="edge8" class="edge">
<title>operation_policy_authorization_policy_project_submit&#45;&gt;operation_outcome_operation_project_submit_unauthenticated</title>
<path fill="none" stroke="#3f3f46" d="M404.18,-241.81C546.19,-188.86 780.43,-101.52 893.07,-59.52"/>
<polygon fill="#3f3f46" stroke="#3f3f46" points="894.12,-62.12 900.64,-56.7 892.17,-56.87 894.12,-62.12"/>
<text text-anchor="middle" x="654" y="-204.5" font-family="Arial" font-size="10.00">unauthenticated_as</text>
</g>
<!-- operation_outcome_operation_project_submit_invalid_state -->
<g id="node5" class="node">
<title>operation_outcome_operation_project_submit_invalid_state</title>
<polygon fill="#ffffff" stroke="transparent" points="912.5,-375 912.5,-446 1004.5,-446 1004.5,-375 912.5,-375"/>
<polygon fill="#dc2626" stroke="transparent" points="913.5,-436.5 913.5,-444.5 1003.5,-444.5 1003.5,-436.5 913.5,-436.5"/>
<polygon fill="#fef2f2" stroke="transparent" points="913.5,-405.5 913.5,-436.5 1003.5,-436.5 1003.5,-405.5 913.5,-405.5"/>
<text text-anchor="start" x="917.5" y="-423.1" font-family="Arial" font-weight="bold" font-size="13.00">invalid_state</text>
<text text-anchor="start" x="917.5" y="-412.1" font-family="Arial" font-size="8.00" fill="#64748b">failure outcome</text>
<text text-anchor="start" x="917.5" y="-394.5" font-family="Arial" font-weight="bold" font-size="10.00">result</text>
<text text-anchor="start" x="917.5" y="-383.5" font-family="Arial" font-size="10.00">result</text>
<text text-anchor="start" x="942.5" y="-383.5" font-family="Arial" font-size="8.00" fill="#94a3b8">  Problem</text>
<polygon fill="none" stroke="#dc2626" points="912.5,-375 912.5,-446 1004.5,-446 1004.5,-375 912.5,-375"/>
</g>
<!-- operation_resource_operation_project_submit_transition_Project_status&#45;&gt;operation_outcome_operation_project_submit_invalid_state -->
<g id="edge4" class="edge">
<title>operation_resource_operation_project_submit_transition_Project_status&#45;&gt;operation_outcome_operation_project_submit_invalid_state</title>
<path fill="none" stroke="#3f3f46" d="M741.28,-321.15C793.94,-342.91 859.57,-370.03 904.63,-388.65"/>
<polygon fill="#3f3f46" stroke="#3f3f46" points="903.78,-391.33 912.24,-391.8 905.91,-386.15 903.78,-391.33"/>
<text text-anchor="middle" x="851.5" y="-377.5" font-family="Arial" font-size="10.00">failure</text>
</g>
<!-- operation_outcome_operation_project_submit_not_found -->
<g id="node6" class="node">
<title>operation_outcome_operation_project_submit_not_found</title>
<polygon fill="#ffffff" stroke="transparent" points="920,-250 920,-321 997,-321 997,-250 920,-250"/>
<polygon fill="#dc2626" stroke="transparent" points="921.5,-311.5 921.5,-319.5 996.5,-319.5 996.5,-311.5 921.5,-311.5"/>
<polygon fill="#fef2f2" stroke="transparent" points="921.5,-280.5 921.5,-311.5 996.5,-311.5 996.5,-280.5 921.5,-280.5"/>
<text text-anchor="start" x="925.5" y="-298.1" font-family="Arial" font-weight="bold" font-size="13.00">not_found</text>
<text text-anchor="start" x="925.5" y="-287.1" font-family="Arial" font-size="8.00" fill="#64748b">failure outcome</text>
<text text-anchor="start" x="925.5" y="-269.5" font-family="Arial" font-weight="bold" font-size="10.00">result</text>
<text text-anchor="start" x="925.5" y="-258.5" font-family="Arial" font-size="10.00">result</text>
<text text-anchor="start" x="950.5" y="-258.5" font-family="Arial" font-size="8.00" fill="#94a3b8">  Problem</text>
<polygon fill="none" stroke="#dc2626" points="920,-250 920,-321 997,-321 997,-250 920,-250"/>
</g>
<!-- operation_resource_operation_project_submit_transition_Project_status&#45;&gt;operation_outcome_operation_project_submit_not_found -->
<g id="edge5" class="edge">
<title>operation_resource_operation_project_submit_transition_Project_status&#45;&gt;operation_outcome_operation_project_submit_not_found</title>
<path fill="none" stroke="#3f3f46" d="M802.26,-285.5C842.09,-285.5 882.29,-285.5 911.8,-285.5"/>
<polygon fill="#3f3f46" stroke="#3f3f46" points="911.83,-288.3 919.83,-285.5 911.83,-282.7 911.83,-288.3"/>
<text text-anchor="middle" x="851.5" y="-288.5" font-family="Arial" font-size="10.00">failure</text>
</g>
<!-- operation_outcome_operation_project_submit_submitted -->
<g id="node7" class="node">
<title>operation_outcome_operation_project_submit_submitted</title>
<polygon fill="#ffffff" stroke="transparent" points="921.5,-125 921.5,-196 995.5,-196 995.5,-125 921.5,-125"/>
<polygon fill="#16a34a" stroke="transparent" points="922.5,-186.5 922.5,-194.5 994.5,-194.5 994.5,-186.5 922.5,-186.5"/>
<polygon fill="#f0fdf4" stroke="transparent" points="922.5,-155.5 922.5,-186.5 994.5,-186.5 994.5,-155.5 922.5,-155.5"/>
<text text-anchor="start" x="926.5" y="-173.1" font-family="Arial" font-weight="bold" font-size="13.00">submitted</text>
<text text-anchor="start" x="926.5" y="-162.1" font-family="Arial" font-size="8.00" fill="#64748b">success outcome</text>
<text text-anchor="start" x="926.5" y="-144.5" font-family="Arial" font-weight="bold" font-size="10.00">result</text>
<text text-anchor="start" x="926.5" y="-133.5" font-family="Arial" font-size="10.00">result</text>
<text text-anchor="start" x="951.5" y="-133.5" font-family="Arial" font-size="8.00" fill="#94a3b8">  Project</text>
<polygon fill="none" stroke="#16a34a" points="921.5,-125 921.5,-196 995.5,-196 995.5,-125 921.5,-125"/>
</g>
<!-- operation_resource_operation_project_submit_transition_Project_status&#45;&gt;operation_outcome_operation_project_submit_submitted -->
<g id="edge6" class="edge">
<title>operation_resource_operation_project_submit_transition_Project_status&#45;&gt;operation_outcome_operation_project_submit_submitted</title>
<path fill="none" stroke="#3f3f46" d="M741.28,-249.85C797.57,-226.59 868.69,-197.2 913.65,-178.62"/>
<polygon fill="#3f3f46" stroke="#3f3f46" points="914.86,-181.15 921.18,-175.51 912.72,-175.97 914.86,-181.15"/>
<text text-anchor="middle" x="851.5" y="-215.5" font-family="Arial" font-size="10.00">success</text>
</g>
<!-- operation_outcome_operation_project_submit_forbidden&#45;&gt;operation_outcome_operation_project_submit_invalid_state -->
<!-- operation_outcome_operation_project_submit_invalid_state&#45;&gt;operation_outcome_operation_project_submit_not_found -->
<!-- operation_outcome_operation_project_submit_not_found&#45;&gt;operation_outcome_operation_project_submit_submitted -->
<!-- operation_outcome_operation_project_submit_submitted&#45;&gt;operation_outcome_operation_project_submit_unauthenticated -->
<!-- operation_event_operation_project_submit_event_project_submitted -->
<g id="node9" class="node">
<title>operation_event_operation_project_submit_event_project_submitted</title>
<polygon fill="#ffffff" stroke="transparent" points="1097,-110 1097,-211 1299,-211 1299,-110 1097,-110"/>
<polygon fill="#4f46e5" stroke="transparent" points="1098,-201.5 1098,-209.5 1298,-209.5 1298,-201.5 1098,-201.5"/>
<polygon fill="#eef2ff" stroke="transparent" points="1098,-170.5 1098,-201.5 1298,-201.5 1298,-170.5 1098,-170.5"/>
<text text-anchor="start" x="1102" y="-188.1" font-family="Arial" font-weight="bold" font-size="13.00">event.project.submitted</text>
<text text-anchor="start" x="1102" y="-177.1" font-family="Arial" font-size="8.00" fill="#64748b">emitted event</text>
<text text-anchor="start" x="1102" y="-159.5" font-family="Arial" font-style="italic" font-size="10.00" fill="#3f3f46">Draft dispatch projects can be submitted for</text>
<text text-anchor="start" x="1102" y="-148.5" font-family="Arial" font-style="italic" font-size="10.00" fill="#3f3f46">review.</text>
<text text-anchor="start" x="1102" y="-129.5" font-family="Arial" font-weight="bold" font-size="10.00">payload</text>
<text text-anchor="start" x="1102" y="-118.5" font-family="Arial" font-size="10.00">payload</text>
<text text-anchor="start" x="1136" y="-118.5" font-family="Arial" font-size="8.00" fill="#94a3b8">  Project</text>
<polygon fill="none" stroke="#4f46e5" points="1097,-110 1097,-211 1299,-211 1299,-110 1097,-110"/>
</g>
<!-- operation_outcome_operation_project_submit_submitted&#45;&gt;operation_event_operation_project_submit_event_project_submitted -->
<g id="edge7" class="edge">
<title>operation_outcome_operation_project_submit_submitted&#45;&gt;operation_event_operation_project_submit_event_project_submitted</title>
<path fill="none" stroke="#3f3f46" stroke-width="1.2" d="M995.57,-160.5C1020.56,-160.5 1055.24,-160.5 1088.8,-160.5"/>
<polygon fill="#3f3f46" stroke="#3f3f46" stroke-width="1.2" points="1088.84,-163.3 1096.84,-160.5 1088.84,-157.7 1088.84,-163.3"/>
<text text-anchor="middle" x="1056.5" y="-163.5" font-family="Arial" font-size="10.00">emit</text>
</g>
</g>
</svg>
