<svg width="848pt" height="199pt"
 viewBox="0.00 0.00 848.00 199.00" xmlns="http://www.w3.org/2000/svg" xmlns:xlink="http://www.w3.org/1999/xlink">
<!-- pyspec-contract-input-sha256: 528629c27a2c6331a1aeed3f86a40e0f6eb79fa1d88299ba76ddc6ebb34c6960 -->
<g id="graph0" class="graph" transform="scale(1 1) rotate(0) translate(18 181)">
<title>entrypoint_entry_point_html_project_board</title>
<!-- entrypoint_entry_point_html_project_board -->
<g id="node1" class="node">
<title>entrypoint_entry_point_html_project_board</title>
<polygon fill="#ffffff" stroke="transparent" points="0,-41 0,-122 253,-122 253,-41 0,-41"/>
<polygon fill="#0891b2" stroke="transparent" points="1.5,-112.5 1.5,-120.5 252.5,-120.5 252.5,-112.5 1.5,-112.5"/>
<polygon fill="#ecfeff" stroke="transparent" points="1.5,-81.5 1.5,-112.5 252.5,-112.5 252.5,-81.5 1.5,-81.5"/>
<text text-anchor="start" x="5.5" y="-99.1" font-family="Arial" font-weight="bold" font-size="13.00">/workspaces/{workspace_id}/dispatch</text>
<text text-anchor="start" x="5.5" y="-88.1" font-family="Arial" font-size="8.00" fill="#64748b">html_route entry point</text>
<text text-anchor="start" x="5.5" y="-70.5" font-family="Arial" font-style="italic" font-size="10.00" fill="#3f3f46">HTML entry for the dispatch board.</text>
<text text-anchor="start" x="6.5" y="-50.5" font-family="Arial" font-weight="bold" font-size="10.00">route:</text>
<text text-anchor="start" x="34.5" y="-50.5" font-family="Arial" font-size="10.00">  route.project.board</text>
<polygon fill="none" stroke="#0891b2" points="0,-41 0,-122 253,-122 253,-41 0,-41"/>
</g>
<!-- entrypoint_input_entry_point_html_project_board -->
<g id="node2" class="node">
<title>entrypoint_input_entry_point_html_project_board</title>
<polygon fill="#ffffff" stroke="transparent" points="314,-46 314,-117 398,-117 398,-46 314,-46"/>
<polygon fill="#64748b" stroke="transparent" points="315,-107.5 315,-115.5 397,-115.5 397,-107.5 315,-107.5"/>
<polygon fill="#f8fafc" stroke="transparent" points="315,-76.5 315,-107.5 397,-107.5 397,-76.5 315,-76.5"/>
<text text-anchor="start" x="319" y="-94.1" font-family="Arial" font-weight="bold" font-size="13.00">request</text>
<text text-anchor="start" x="319" y="-83.1" font-family="Arial" font-size="8.00" fill="#64748b">external data</text>
<text text-anchor="start" x="319" y="-65.5" font-family="Arial" font-weight="bold" font-size="10.00">path params</text>
<text text-anchor="start" x="319" y="-54.5" font-family="Arial" font-size="10.00">workspace_id</text>
<text text-anchor="start" x="380" y="-54.5" font-family="Arial" font-size="8.00" fill="#94a3b8">  ID</text>
<polygon fill="none" stroke="#64748b" points="314,-46 314,-117 398,-117 398,-46 314,-46"/>
</g>
<!-- entrypoint_entry_point_html_project_board&#45;&gt;entrypoint_input_entry_point_html_project_board -->
<g id="edge1" class="edge">
<title>entrypoint_entry_point_html_project_board&#45;&gt;entrypoint_input_entry_point_html_project_board</title>
<path fill="none" stroke="#3f3f46" d="M253.23,-81.5C271.61,-81.5 289.57,-81.5 305.16,-81.5"/>
<polygon fill="#3f3f46" stroke="#3f3f46" points="305.56,-84.3 313.56,-81.5 305.56,-78.7 305.56,-84.3"/>
</g>
<!-- entrypoint_target_state_machine_project_board -->
<g id="node3" class="node">
<title>entrypoint_target_state_machine_project_board</title>
<polygon fill="#ffffff" stroke="transparent" points="459,0 459,-163 812,-163 812,0 459,0"/>
<polygon fill="#9333ea" stroke="transparent" points="460.5,-153.5 460.5,-161.5 811.5,-161.5 811.5,-153.5 460.5,-153.5"/>
<polygon fill="#faf5ff" stroke="transparent" points="460.5,-122.5 460.5,-153.5 811.5,-153.5 811.5,-122.5 460.5,-122.5"/>
<text text-anchor="start" x="464.5" y="-140.1" font-family="Arial" font-weight="bold" font-size="13.00">state_machine.project.board</text>
<text text-anchor="start" x="464.5" y="-129.1" font-family="Arial" font-size="8.00" fill="#64748b">target state machine (html)</text>
<text text-anchor="start" x="464.5" y="-111.5" font-family="Arial" font-style="italic" font-size="10.00" fill="#3f3f46">The dispatch board composes list, detail, and</text>
<text text-anchor="start" x="464.5" y="-100.5" font-family="Arial" font-style="italic" font-size="10.00" fill="#3f3f46">activity state machines through shared</text>
<text text-anchor="start" x="464.5" y="-89.5" font-family="Arial" font-style="italic" font-size="10.00" fill="#3f3f46">selected&#45;project context.</text>
<text text-anchor="start" x="465.5" y="-69.5" font-family="Arial" font-weight="bold" font-size="10.00">input:</text>
<text text-anchor="start" x="493.5" y="-69.5" font-family="Arial" font-size="10.00">  workspace_id</text>
<text text-anchor="start" x="560.5" y="-69.5" font-family="Arial" font-size="8.00" fill="#94a3b8">  ID</text>
<text text-anchor="start" x="465.5" y="-57.5" font-family="Arial" font-weight="bold" font-size="10.00">query:</text>
<text text-anchor="start" x="495.5" y="-57.5" font-family="Arial" font-size="10.00">  query.project.board.list</text>
<text text-anchor="start" x="465.5" y="-45.5" font-family="Arial" font-weight="bold" font-size="10.00">load:</text>
<text text-anchor="start" x="489.5" y="-45.5" font-family="Arial" font-size="10.00">  operation.project.list</text>
<text text-anchor="start" x="583.5" y="-45.5" font-family="Arial" font-size="8.00" fill="#94a3b8">  array&lt;Project&gt;</text>
<text text-anchor="start" x="465.5" y="-33.5" font-family="Arial" font-weight="bold" font-size="10.00">authorization_policies:</text>
<text text-anchor="start" x="572.5" y="-33.5" font-family="Arial" font-size="10.00">  operation.project.list: authorization_policy.project.list</text>
<text text-anchor="start" x="465.5" y="-21.5" font-family="Arial" font-weight="bold" font-size="10.00">model:</text>
<text text-anchor="start" x="498.5" y="-21.5" font-family="Arial" font-size="10.00">  Project</text>
<text text-anchor="start" x="465.5" y="-9.5" font-family="Arial" font-weight="bold" font-size="10.00">signal_sync_rules:</text>
<text text-anchor="start" x="553.5" y="-9.5" font-family="Arial" font-size="10.00">  select_project_updates_state_machines</text>
<polygon fill="none" stroke="#9333ea" points="459,0 459,-163 812,-163 812,0 459,0"/>
</g>
<!-- entrypoint_input_entry_point_html_project_board&#45;&gt;entrypoint_target_state_machine_project_board -->
<g id="edge2" class="edge">
<title>entrypoint_input_entry_point_html_project_board&#45;&gt;entrypoint_target_state_machine_project_board</title>
<path fill="none" stroke="#3f3f46" d="M398.24,-81.5C413.24,-81.5 431.31,-81.5 450.69,-81.5"/>
<polygon fill="#3f3f46" stroke="#3f3f46" points="450.77,-84.3 458.77,-81.5 450.77,-78.7 450.77,-84.3"/>
</g>
</g>
</svg>
