<svg width="914pt" height="687pt"
 viewBox="0.00 0.00 914.00 687.00" xmlns="http://www.w3.org/2000/svg" xmlns:xlink="http://www.w3.org/1999/xlink">
<!-- pyspec-contract-input-sha256: e6a2a4344165d44758e5ed58087d2301fd702c457cc4341575ce227ed4c83728 -->
<g id="graph0" class="graph" transform="scale(1 1) rotate(0) translate(18 669)">
<title>external_interface_external_interface_cli_project_approve</title>
<!-- external_interface_external_interface_cli_project_approve -->
<g id="node1" class="node">
<title>external_interface_external_interface_cli_project_approve</title>
<polygon fill="#ffffff" stroke="transparent" points="0,-264 0,-386 210,-386 210,-264 0,-264"/>
<polygon fill="#0891b2" stroke="transparent" points="1,-377 1,-385 209,-385 209,-377 1,-377"/>
<polygon fill="#ecfeff" stroke="transparent" points="1,-346 1,-377 209,-377 209,-346 1,-346"/>
<text text-anchor="start" x="5" y="-363.6" font-family="Arial" font-weight="bold" font-size="13.00">project approve</text>
<text text-anchor="start" x="5" y="-352.6" font-family="Arial" font-size="8.00" fill="#64748b">cli external interface</text>
<text text-anchor="start" x="5" y="-335" font-family="Arial" font-style="italic" font-size="10.00" fill="#3f3f46">CLI entry for approval automation.</text>
<text text-anchor="start" x="6" y="-315" font-family="Arial" font-weight="bold" font-size="10.00">cli command:</text>
<text text-anchor="start" x="70" y="-315" font-family="Arial" font-size="10.00">  cli_command.project.approve</text>
<text text-anchor="start" x="5" y="-295" font-family="Arial" font-weight="bold" font-size="10.00">args</text>
<text text-anchor="start" x="5" y="-284" font-family="Arial" font-size="10.00">approved_by</text>
<text text-anchor="start" x="61" y="-284" font-family="Arial" font-size="8.00" fill="#94a3b8">  string</text>
<text text-anchor="start" x="5" y="-273" font-family="Arial" font-size="10.00">project_id</text>
<text text-anchor="start" x="48" y="-273" font-family="Arial" font-size="8.00" fill="#94a3b8">  string</text>
<polygon fill="none" stroke="#0891b2" points="0,-264 0,-386 210,-386 210,-264 0,-264"/>
</g>
<!-- external_interface_target_external_interface_api_project_approve -->
<g id="node2" class="node">
<title>external_interface_target_external_interface_api_project_approve</title>
<polygon fill="#ffffff" stroke="transparent" points="271,-241 271,-409 525,-409 525,-241 271,-241"/>
<polygon fill="#0891b2" stroke="transparent" points="272,-400 272,-408 524,-408 524,-400 272,-400"/>
<polygon fill="#ecfeff" stroke="transparent" points="272,-369 272,-400 524,-400 524,-369 272,-369"/>
<text text-anchor="start" x="276" y="-386.6" font-family="Arial" font-weight="bold" font-size="13.00">external_interface.api.project.approve</text>
<text text-anchor="start" x="276" y="-375.6" font-family="Arial" font-size="8.00" fill="#64748b">delegated external interface</text>
<text text-anchor="start" x="276" y="-358" font-family="Arial" font-style="italic" font-size="10.00" fill="#3f3f46">HTTP endpoint for approving submitted dispatch</text>
<text text-anchor="start" x="276" y="-347" font-family="Arial" font-style="italic" font-size="10.00" fill="#3f3f46">projects.</text>
<text text-anchor="start" x="277" y="-327" font-family="Arial" font-weight="bold" font-size="10.00">adapter:</text>
<text text-anchor="start" x="315" y="-327" font-family="Arial" font-size="10.00">  http_api</text>
<text text-anchor="start" x="277" y="-315" font-family="Arial" font-weight="bold" font-size="10.00">target:</text>
<text text-anchor="start" x="307" y="-315" font-family="Arial" font-size="10.00">  command command.project.approve</text>
<text text-anchor="start" x="277" y="-303" font-family="Arial" font-weight="bold" font-size="10.00">kind:</text>
<text text-anchor="start" x="301" y="-303" font-family="Arial" font-size="10.00">  lifecycle_transition</text>
<text text-anchor="start" x="276" y="-283" font-family="Arial" font-weight="bold" font-size="10.00">authorization</text>
<text text-anchor="start" x="276" y="-271" font-family="Arial" font-size="10.00">policy: access_policy.project.reviewer</text>
<text text-anchor="start" x="276" y="-260" font-family="Arial" font-size="10.00">authentication_required_as: authentication_required</text>
<text text-anchor="start" x="276" y="-249" font-family="Arial" font-size="10.00">access_denied_as: access_denied</text>
<polygon fill="none" stroke="#0891b2" points="271,-241 271,-409 525,-409 525,-241 271,-241"/>
</g>
<!-- external_interface_external_interface_cli_project_approve&#45;&gt;external_interface_target_external_interface_api_project_approve -->
<g id="edge1" class="edge">
<title>external_interface_external_interface_cli_project_approve&#45;&gt;external_interface_target_external_interface_api_project_approve</title>
<path fill="none" stroke="#3f3f46" d="M210.24,-325C227.28,-325 245.14,-325 262.78,-325"/>
<polygon fill="#3f3f46" stroke="#3f3f46" points="262.87,-327.8 270.87,-325 262.87,-322.2 262.87,-327.8"/>
</g>
<!-- external_interface_response_external_interface_cli_project_approve_access_denied -->
<g id="node3" class="node">
<title>external_interface_response_external_interface_cli_project_approve_access_denied</title>
<polygon fill="#ffffff" stroke="transparent" points="586,-565 586,-651 878,-651 878,-565 586,-565"/>
<polygon fill="#dc2626" stroke="transparent" points="587,-642 587,-650 877,-650 877,-642 587,-642"/>
<polygon fill="#fef2f2" stroke="transparent" points="587,-611 587,-642 877,-642 877,-611 587,-611"/>
<text text-anchor="start" x="591" y="-628.6" font-family="Arial" font-weight="bold" font-size="13.00">access_denied</text>
<text text-anchor="start" x="591" y="-617.6" font-family="Arial" font-size="8.00" fill="#64748b">failure response handler</text>
<text text-anchor="start" x="592" y="-599" font-family="Arial" font-weight="bold" font-size="10.00">stderr:</text>
<text text-anchor="start" x="623" y="-599" font-family="Arial" font-size="10.00">  text.project.approve.access_denied</text>
<text text-anchor="start" x="592" y="-587" font-family="Arial" font-weight="bold" font-size="10.00">stderr bindings:</text>
<text text-anchor="start" x="667" y="-587" font-family="Arial" font-size="10.00">  message ← adapter_response.body.message</text>
<text text-anchor="start" x="592" y="-575" font-family="Arial" font-weight="bold" font-size="10.00">exit_code:</text>
<text text-anchor="start" x="640" y="-575" font-family="Arial" font-size="10.00">  5</text>
<polygon fill="none" stroke="#dc2626" points="586,-565 586,-651 878,-651 878,-565 586,-565"/>
</g>
<!-- external_interface_target_external_interface_api_project_approve&#45;&gt;external_interface_response_external_interface_cli_project_approve_access_denied -->
<g id="edge2" class="edge">
<title>external_interface_target_external_interface_api_project_approve&#45;&gt;external_interface_response_external_interface_cli_project_approve_access_denied</title>
<path fill="none" stroke="#3f3f46" d="M452.36,-409.26C485.89,-456.56 532.8,-513.6 586,-552 590.16,-555.01 594.51,-557.87 598.99,-560.61"/>
<polygon fill="#3f3f46" stroke="#3f3f46" points="597.81,-563.16 606.13,-564.8 600.65,-558.33 597.81,-563.16"/>
</g>
<!-- external_interface_response_external_interface_cli_project_approve_approved -->
<g id="node4" class="node">
<title>external_interface_response_external_interface_cli_project_approve_approved</title>
<polygon fill="#ffffff" stroke="transparent" points="600,-452 600,-538 864,-538 864,-452 600,-452"/>
<polygon fill="#16a34a" stroke="transparent" points="601,-529 601,-537 863,-537 863,-529 601,-529"/>
<polygon fill="#f0fdf4" stroke="transparent" points="601,-498 601,-529 863,-529 863,-498 601,-498"/>
<text text-anchor="start" x="605" y="-515.6" font-family="Arial" font-weight="bold" font-size="13.00">approved</text>
<text text-anchor="start" x="605" y="-504.6" font-family="Arial" font-size="8.00" fill="#64748b">success response handler</text>
<text text-anchor="start" x="606" y="-486" font-family="Arial" font-weight="bold" font-size="10.00">stdout:</text>
<text text-anchor="start" x="639" y="-486" font-family="Arial" font-size="10.00">  text.project.approve.success</text>
<text text-anchor="start" x="606" y="-474" font-family="Arial" font-weight="bold" font-size="10.00">stdout bindings:</text>
<text text-anchor="start" x="683" y="-474" font-family="Arial" font-size="10.00">  project_id ← adapter_response.body.id</text>
<text text-anchor="start" x="606" y="-462" font-family="Arial" font-weight="bold" font-size="10.00">exit_code:</text>
<text text-anchor="start" x="654" y="-462" font-family="Arial" font-size="10.00">  0</text>
<polygon fill="none" stroke="#16a34a" points="600,-452 600,-538 864,-538 864,-452 600,-452"/>
</g>
<!-- external_interface_target_external_interface_api_project_approve&#45;&gt;external_interface_response_external_interface_cli_project_approve_approved -->
<g id="edge3" class="edge">
<title>external_interface_target_external_interface_api_project_approve&#45;&gt;external_interface_response_external_interface_cli_project_approve_approved</title>
<path fill="none" stroke="#3f3f46" d="M525.03,-406C545.1,-417.68 565.88,-429.08 586,-439 592.58,-442.24 599.39,-445.43 606.32,-448.53"/>
<polygon fill="#3f3f46" stroke="#3f3f46" points="605.42,-451.2 613.87,-451.86 607.68,-446.07 605.42,-451.2"/>
</g>
<!-- external_interface_response_external_interface_cli_project_approve_authentication_required -->
<g id="node5" class="node">
<title>external_interface_response_external_interface_cli_project_approve_authentication_required</title>
<polygon fill="#ffffff" stroke="transparent" points="586,-339 586,-425 878,-425 878,-339 586,-339"/>
<polygon fill="#dc2626" stroke="transparent" points="587,-416 587,-424 877,-424 877,-416 587,-416"/>
<polygon fill="#fef2f2" stroke="transparent" points="587,-385 587,-416 877,-416 877,-385 587,-385"/>
<text text-anchor="start" x="591" y="-402.6" font-family="Arial" font-weight="bold" font-size="13.00">authentication_required</text>
<text text-anchor="start" x="591" y="-391.6" font-family="Arial" font-size="8.00" fill="#64748b">failure response handler</text>
<text text-anchor="start" x="592" y="-373" font-family="Arial" font-weight="bold" font-size="10.00">stderr:</text>
<text text-anchor="start" x="623" y="-373" font-family="Arial" font-size="10.00">  text.project.approve.authentication_required</text>
<text text-anchor="start" x="592" y="-361" font-family="Arial" font-weight="bold" font-size="10.00">stderr bindings:</text>
<text text-anchor="start" x="667" y="-361" font-family="Arial" font-size="10.00">  message ← adapter_response.body.message</text>
<text text-anchor="start" x="592" y="-349" font-family="Arial" font-weight="bold" font-size="10.00">exit_code:</text>
<text text-anchor="start" x="640" y="-349" font-family="Arial" font-size="10.00">  4</text>
<polygon fill="none" stroke="#dc2626" points="586,-339 586,-425 878,-425 878,-339 586,-339"/>
</g>
<!-- external_interface_target_external_interface_api_project_approve&#45;&gt;external_interface_response_external_interface_cli_project_approve_authentication_required -->
<g id="edge4" class="edge">
<title>external_interface_target_external_interface_api_project_approve&#45;&gt;external_interface_response_external_interface_cli_project_approve_authentication_required</title>
<path fill="none" stroke="#3f3f46" d="M525.46,-346.71C542.54,-349.64 560.22,-352.68 577.71,-355.68"/>
<polygon fill="#3f3f46" stroke="#3f3f46" points="577.37,-358.46 585.73,-357.06 578.32,-352.95 577.37,-358.46"/>
</g>
<!-- external_interface_response_external_interface_cli_project_approve_not_found -->
<g id="node6" class="node">
<title>external_interface_response_external_interface_cli_project_approve_not_found</title>
<polygon fill="#ffffff" stroke="transparent" points="586,-226 586,-312 878,-312 878,-226 586,-226"/>
<polygon fill="#dc2626" stroke="transparent" points="587,-303 587,-311 877,-311 877,-303 587,-303"/>
<polygon fill="#fef2f2" stroke="transparent" points="587,-272 587,-303 877,-303 877,-272 587,-272"/>
<text text-anchor="start" x="591" y="-289.6" font-family="Arial" font-weight="bold" font-size="13.00">not_found</text>
<text text-anchor="start" x="591" y="-278.6" font-family="Arial" font-size="8.00" fill="#64748b">failure response handler</text>
<text text-anchor="start" x="592" y="-260" font-family="Arial" font-weight="bold" font-size="10.00">stderr:</text>
<text text-anchor="start" x="623" y="-260" font-family="Arial" font-size="10.00">  text.project.approve.not_found</text>
<text text-anchor="start" x="592" y="-248" font-family="Arial" font-weight="bold" font-size="10.00">stderr bindings:</text>
<text text-anchor="start" x="667" y="-248" font-family="Arial" font-size="10.00">  message ← adapter_response.body.message</text>
<text text-anchor="start" x="592" y="-236" font-family="Arial" font-weight="bold" font-size="10.00">exit_code:</text>
<text text-anchor="start" x="640" y="-236" font-family="Arial" font-size="10.00">  3</text>
<polygon fill="none" stroke="#dc2626" points="586,-226 586,-312 878,-312 878,-226 586,-226"/>
</g>
<!-- external_interface_target_external_interface_api_project_approve&#45;&gt;external_interface_response_external_interface_cli_project_approve_not_found -->
<g id="edge5" class="edge">
<title>external_interface_target_external_interface_api_project_approve&#45;&gt;external_interface_response_external_interface_cli_project_approve_not_found</title>
<path fill="none" stroke="#3f3f46" d="M525.46,-303.67C542.54,-300.79 560.22,-297.81 577.71,-294.86"/>
<polygon fill="#3f3f46" stroke="#3f3f46" points="578.3,-297.6 585.73,-293.5 577.37,-292.07 578.3,-297.6"/>
</g>
<!-- external_interface_response_external_interface_cli_project_approve_transition_not_allowed -->
<g id="node7" class="node">
<title>external_interface_response_external_interface_cli_project_approve_transition_not_allowed</title>
<polygon fill="#ffffff" stroke="transparent" points="586,-113 586,-199 878,-199 878,-113 586,-113"/>
<polygon fill="#dc2626" stroke="transparent" points="587,-190 587,-198 877,-198 877,-190 587,-190"/>
<polygon fill="#fef2f2" stroke="transparent" points="587,-159 587,-190 877,-190 877,-159 587,-159"/>
<text text-anchor="start" x="591" y="-176.6" font-family="Arial" font-weight="bold" font-size="13.00">transition_not_allowed</text>
<text text-anchor="start" x="591" y="-165.6" font-family="Arial" font-size="8.00" fill="#64748b">failure response handler</text>
<text text-anchor="start" x="592" y="-147" font-family="Arial" font-weight="bold" font-size="10.00">stderr:</text>
<text text-anchor="start" x="623" y="-147" font-family="Arial" font-size="10.00">  text.project.approve.transition_not_allowed</text>
<text text-anchor="start" x="592" y="-135" font-family="Arial" font-weight="bold" font-size="10.00">stderr bindings:</text>
<text text-anchor="start" x="667" y="-135" font-family="Arial" font-size="10.00">  message ← adapter_response.body.message</text>
<text text-anchor="start" x="592" y="-123" font-family="Arial" font-weight="bold" font-size="10.00">exit_code:</text>
<text text-anchor="start" x="640" y="-123" font-family="Arial" font-size="10.00">  2</text>
<polygon fill="none" stroke="#dc2626" points="586,-113 586,-199 878,-199 878,-113 586,-113"/>
</g>
<!-- external_interface_target_external_interface_api_project_approve&#45;&gt;external_interface_response_external_interface_cli_project_approve_transition_not_allowed -->
<g id="edge6" class="edge">
<title>external_interface_target_external_interface_api_project_approve&#45;&gt;external_interface_response_external_interface_cli_project_approve_transition_not_allowed</title>
<path fill="none" stroke="#3f3f46" d="M525.19,-245.61C545.23,-234.11 565.96,-222.85 586,-213 593.28,-209.42 600.85,-205.89 608.53,-202.46"/>
<polygon fill="#3f3f46" stroke="#3f3f46" points="610.06,-204.85 616.25,-199.06 607.8,-199.72 610.06,-204.85"/>
</g>
<!-- external_interface_response_external_interface_cli_project_approve_unavailable -->
<g id="node8" class="node">
<title>external_interface_response_external_interface_cli_project_approve_unavailable</title>
<polygon fill="#ffffff" stroke="transparent" points="638,0 638,-86 826,-86 826,0 638,0"/>
<polygon fill="#dc2626" stroke="transparent" points="639,-77 639,-85 825,-85 825,-77 639,-77"/>
<polygon fill="#fef2f2" stroke="transparent" points="639,-46 639,-77 825,-77 825,-46 639,-46"/>
<text text-anchor="start" x="643" y="-63.6" font-family="Arial" font-weight="bold" font-size="13.00">unavailable</text>
<text text-anchor="start" x="643" y="-52.6" font-family="Arial" font-size="8.00" fill="#64748b">failure response handler</text>
<text text-anchor="start" x="644" y="-34" font-family="Arial" font-weight="bold" font-size="10.00">stderr:</text>
<text text-anchor="start" x="675" y="-34" font-family="Arial" font-size="10.00">  text.project.approve.unavailable</text>
<text text-anchor="start" x="644" y="-22" font-family="Arial" font-weight="bold" font-size="10.00">exit_code:</text>
<text text-anchor="start" x="692" y="-22" font-family="Arial" font-size="10.00">  75</text>
<text text-anchor="start" x="644" y="-10" font-family="Arial" font-weight="bold" font-size="10.00">retry:</text>
<text text-anchor="start" x="669" y="-10" font-family="Arial" font-size="10.00">  3 exponential</text>
<polygon fill="none" stroke="#dc2626" points="638,0 638,-86 826,-86 826,0 638,0"/>
</g>
<!-- external_interface_target_external_interface_api_project_approve&#45;&gt;external_interface_response_external_interface_cli_project_approve_unavailable -->
<g id="edge7" class="edge">
<title>external_interface_target_external_interface_api_project_approve&#45;&gt;external_interface_response_external_interface_cli_project_approve_unavailable</title>
<path fill="none" stroke="#3f3f46" d="M453.18,-240.79C486.74,-194.12 533.42,-138.02 586,-100 599.37,-90.33 614.61,-82.03 630.06,-75"/>
<polygon fill="#3f3f46" stroke="#3f3f46" points="631.47,-77.44 637.66,-71.65 629.21,-72.32 631.47,-77.44"/>
</g>
<!-- external_interface_response_external_interface_cli_project_approve_access_denied&#45;&gt;external_interface_response_external_interface_cli_project_approve_approved -->
<!-- external_interface_response_external_interface_cli_project_approve_approved&#45;&gt;external_interface_response_external_interface_cli_project_approve_authentication_required -->
<!-- external_interface_response_external_interface_cli_project_approve_authentication_required&#45;&gt;external_interface_response_external_interface_cli_project_approve_not_found -->
<!-- external_interface_response_external_interface_cli_project_approve_not_found&#45;&gt;external_interface_response_external_interface_cli_project_approve_transition_not_allowed -->
<!-- external_interface_response_external_interface_cli_project_approve_transition_not_allowed&#45;&gt;external_interface_response_external_interface_cli_project_approve_unavailable -->
</g>
</svg>
