<svg width="1730pt" height="463pt"
 viewBox="0.00 0.00 1730.00 463.00" xmlns="http://www.w3.org/2000/svg" xmlns:xlink="http://www.w3.org/1999/xlink">
<!-- pyspec-contract-input-sha256: 377e4ed29c440a31abb6033a67706d03ae9718c0a5879faae4edb45da5d02a9e -->
<g id="graph0" class="graph" transform="scale(1 1) rotate(0) translate(18 445)">
<title>state_machine_state_machine_project_detail</title>
<!-- view_state_error -->
<g id="node1" class="node">
<title>view_state_error</title>
<polygon fill="#ffffff" stroke="transparent" points="1274.5,-79 1274.5,-161 1419.5,-161 1419.5,-79 1274.5,-79"/>
<polygon fill="#71717a" stroke="transparent" points="1276,-152 1276,-160 1419,-160 1419,-152 1276,-152"/>
<polygon fill="#f8fafc" stroke="transparent" points="1276,-121 1276,-152 1419,-152 1419,-121 1276,-121"/>
<text text-anchor="start" x="1280" y="-138.6" font-family="Arial" font-weight="bold" font-size="13.00">error</text>
<text text-anchor="start" x="1280" y="-127.6" font-family="Arial" font-size="8.00" fill="#64748b">view state</text>
<text text-anchor="start" x="1280" y="-110" font-family="Arial" font-weight="bold" font-size="10.00">text</text>
<text text-anchor="start" x="1280" y="-98" font-family="Arial" font-size="10.00">text.project.detail.error.heading</text>
<text text-anchor="start" x="1280" y="-87" font-family="Arial" font-size="10.00">text.project.detail.error.body</text>
<polygon fill="none" stroke="#71717a" points="1274.5,-79 1274.5,-161 1419.5,-161 1419.5,-79 1274.5,-79"/>
</g>
<!-- view_state_loading -->
<g id="node2" class="node">
<title>view_state_loading</title>
<polygon fill="#ffffff" stroke="transparent" points="0,-47 0,-121 248,-121 248,-47 0,-47"/>
<polygon fill="#71717a" stroke="transparent" points="1,-112 1,-120 247,-120 247,-112 1,-112"/>
<polygon fill="#f8fafc" stroke="transparent" points="1,-81 1,-112 247,-112 247,-81 1,-81"/>
<text text-anchor="start" x="5" y="-98.6" font-family="Arial" font-weight="bold" font-size="13.00">loading</text>
<text text-anchor="start" x="5" y="-87.6" font-family="Arial" font-size="8.00" fill="#64748b">view state</text>
<text text-anchor="start" x="6" y="-69" font-family="Arial" font-weight="bold" font-size="10.00">text:</text>
<text text-anchor="start" x="26" y="-69" font-family="Arial" font-size="10.00">  text.project.detail.loading.message</text>
<text text-anchor="start" x="6" y="-57" font-family="Arial" font-weight="bold" font-size="10.00">data_loaders:</text>
<text text-anchor="start" x="69" y="-57" font-family="Arial" font-size="10.00">  read_project: query.project.read</text>
<text text-anchor="start" x="212" y="-57" font-family="Arial" font-size="8.00" fill="#94a3b8">  Project</text>
<polygon fill="none" stroke="#71717a" points="0,-47 0,-121 248,-121 248,-47 0,-47"/>
</g>
<!-- transition_1_loading_ready_data_refresh_signal_project_loaded -->
<g id="node6" class="node">
<title>transition_1_loading_ready_data_refresh_signal_project_loaded</title>
<polygon fill="#ffffff" stroke="transparent" points="309,-181 309,-267 547,-267 547,-181 309,-181"/>
<polygon fill="#2563eb" stroke="transparent" points="310,-258 310,-266 546,-266 546,-258 310,-258"/>
<polygon fill="#eff6ff" stroke="transparent" points="310,-227 310,-258 546,-258 546,-227 310,-227"/>
<text text-anchor="start" x="314" y="-244.6" font-family="Arial" font-weight="bold" font-size="13.00">data_refresh_signal.project_loaded</text>
<text text-anchor="start" x="314" y="-233.6" font-family="Arial" font-size="8.00" fill="#64748b">transition signal</text>
<text text-anchor="start" x="315" y="-215" font-family="Arial" font-weight="bold" font-size="10.00">input:</text>
<text text-anchor="start" x="343" y="-215" font-family="Arial" font-size="10.00">  read_project.project_id</text>
<text text-anchor="start" x="448" y="-215" font-family="Arial" font-size="8.00" fill="#94a3b8">  string</text>
<text text-anchor="start" x="315" y="-203" font-family="Arial" font-weight="bold" font-size="10.00">data_loaders:</text>
<text text-anchor="start" x="378" y="-203" font-family="Arial" font-size="10.00">  read_project</text>
<text text-anchor="start" x="315" y="-191" font-family="Arial" font-weight="bold" font-size="10.00">load:</text>
<text text-anchor="start" x="339" y="-191" font-family="Arial" font-size="10.00">  query.project.read</text>
<text text-anchor="start" x="423" y="-191" font-family="Arial" font-size="8.00" fill="#94a3b8">  Project</text>
<polygon fill="none" stroke="#2563eb" points="309,-181 309,-267 547,-267 547,-181 309,-181"/>
</g>
<!-- view_state_loading&#45;&gt;transition_1_loading_ready_data_refresh_signal_project_loaded -->
<g id="edge3" class="edge">
<title>view_state_loading&#45;&gt;transition_1_loading_ready_data_refresh_signal_project_loaded</title>
<path fill="none" stroke="#3f3f46" d="M205.14,-121.15C242.48,-138.46 287.3,-159.24 326.85,-177.57"/>
<polygon fill="#3f3f46" stroke="#3f3f46" points="325.74,-180.14 334.17,-180.97 328.09,-175.06 325.74,-180.14"/>
</g>
<!-- transition_2_loading_error_data_refresh_signal_project_load_failed -->
<g id="node7" class="node">
<title>transition_2_loading_error_data_refresh_signal_project_load_failed</title>
<polygon fill="#ffffff" stroke="transparent" points="608,-41 608,-127 873,-127 873,-41 608,-41"/>
<polygon fill="#2563eb" stroke="transparent" points="609.5,-118 609.5,-126 872.5,-126 872.5,-118 609.5,-118"/>
<polygon fill="#eff6ff" stroke="transparent" points="609.5,-87 609.5,-118 872.5,-118 872.5,-87 609.5,-87"/>
<text text-anchor="start" x="613.5" y="-104.6" font-family="Arial" font-weight="bold" font-size="13.00">data_refresh_signal.project_load_failed</text>
<text text-anchor="start" x="613.5" y="-93.6" font-family="Arial" font-size="8.00" fill="#64748b">transition signal</text>
<text text-anchor="start" x="614.5" y="-75" font-family="Arial" font-weight="bold" font-size="10.00">input:</text>
<text text-anchor="start" x="642.5" y="-75" font-family="Arial" font-size="10.00">  read_project.project_id</text>
<text text-anchor="start" x="747.5" y="-75" font-family="Arial" font-size="8.00" fill="#94a3b8">  string</text>
<text text-anchor="start" x="614.5" y="-63" font-family="Arial" font-weight="bold" font-size="10.00">data_loaders:</text>
<text text-anchor="start" x="677.5" y="-63" font-family="Arial" font-size="10.00">  read_project</text>
<text text-anchor="start" x="614.5" y="-51" font-family="Arial" font-weight="bold" font-size="10.00">load:</text>
<text text-anchor="start" x="638.5" y="-51" font-family="Arial" font-size="10.00">  query.project.read</text>
<text text-anchor="start" x="722.5" y="-51" font-family="Arial" font-size="8.00" fill="#94a3b8">  Project</text>
<polygon fill="none" stroke="#2563eb" points="608,-41 608,-127 873,-127 873,-41 608,-41"/>
</g>
<!-- view_state_loading&#45;&gt;transition_2_loading_error_data_refresh_signal_project_load_failed -->
<g id="edge5" class="edge">
<title>view_state_loading&#45;&gt;transition_2_loading_error_data_refresh_signal_project_load_failed</title>
<path fill="none" stroke="#3f3f46" d="M248.25,-84C349.83,-84 493.9,-84 599.77,-84"/>
<polygon fill="#3f3f46" stroke="#3f3f46" points="599.96,-86.8 607.96,-84 599.96,-81.2 599.96,-86.8"/>
</g>
<!-- view_state_none -->
<g id="node3" class="node">
<title>view_state_none</title>
<polygon fill="#ffffff" stroke="transparent" points="1274,-271 1274,-353 1420,-353 1420,-271 1274,-271"/>
<polygon fill="#0891b2" stroke="transparent" points="1275,-344 1275,-352 1419,-352 1419,-344 1275,-344"/>
<polygon fill="#ecfeff" stroke="transparent" points="1275,-313 1275,-344 1419,-344 1419,-313 1275,-313"/>
<text text-anchor="start" x="1279" y="-330.6" font-family="Arial" font-weight="bold" font-size="13.00">none</text>
<text text-anchor="start" x="1279" y="-319.6" font-family="Arial" font-size="8.00" fill="#64748b">initial view state</text>
<text text-anchor="start" x="1279" y="-302" font-family="Arial" font-weight="bold" font-size="10.00">text</text>
<text text-anchor="start" x="1279" y="-290" font-family="Arial" font-size="10.00">text.project.detail.none.heading</text>
<text text-anchor="start" x="1279" y="-279" font-family="Arial" font-size="10.00">text.project.detail.none.body</text>
<polygon fill="none" stroke="#0891b2" points="1274,-271 1274,-353 1420,-353 1420,-271 1274,-271"/>
</g>
<!-- transition_0_none_loading_local_signal_selection_changed -->
<g id="node5" class="node">
<title>transition_0_none_loading_local_signal_selection_changed</title>
<polygon fill="#ffffff" stroke="transparent" points="1481,-52 1481,-138 1694,-138 1694,-52 1481,-52"/>
<polygon fill="#2563eb" stroke="transparent" points="1482.5,-129 1482.5,-137 1693.5,-137 1693.5,-129 1482.5,-129"/>
<polygon fill="#eff6ff" stroke="transparent" points="1482.5,-98 1482.5,-129 1693.5,-129 1693.5,-98 1482.5,-98"/>
<text text-anchor="start" x="1486.5" y="-115.6" font-family="Arial" font-weight="bold" font-size="13.00">local_signal.selection_changed</text>
<text text-anchor="start" x="1486.5" y="-104.6" font-family="Arial" font-size="8.00" fill="#64748b">transition signal</text>
<text text-anchor="start" x="1487.5" y="-86" font-family="Arial" font-weight="bold" font-size="10.00">input:</text>
<text text-anchor="start" x="1515.5" y="-86" font-family="Arial" font-size="10.00">  read_project.project_id</text>
<text text-anchor="start" x="1620.5" y="-86" font-family="Arial" font-size="8.00" fill="#94a3b8">  string</text>
<text text-anchor="start" x="1487.5" y="-74" font-family="Arial" font-weight="bold" font-size="10.00">data_loaders:</text>
<text text-anchor="start" x="1550.5" y="-74" font-family="Arial" font-size="10.00">  read_project</text>
<text text-anchor="start" x="1487.5" y="-62" font-family="Arial" font-weight="bold" font-size="10.00">load:</text>
<text text-anchor="start" x="1511.5" y="-62" font-family="Arial" font-size="10.00">  query.project.read</text>
<text text-anchor="start" x="1595.5" y="-62" font-family="Arial" font-size="8.00" fill="#94a3b8">  Project</text>
<polygon fill="none" stroke="#2563eb" points="1481,-52 1481,-138 1694,-138 1694,-52 1481,-52"/>
</g>
<!-- view_state_none&#45;&gt;transition_0_none_loading_local_signal_selection_changed -->
<g id="edge1" class="edge">
<title>view_state_none&#45;&gt;transition_0_none_loading_local_signal_selection_changed</title>
<path fill="none" stroke="#3f3f46" d="M1393.14,-270.93C1432.91,-234.74 1490.91,-181.97 1533,-143.67"/>
<polygon fill="#3f3f46" stroke="#3f3f46" points="1535.06,-145.59 1539.09,-138.13 1531.29,-141.45 1535.06,-145.59"/>
</g>
<!-- view_state_ready -->
<g id="node4" class="node">
<title>view_state_ready</title>
<polygon fill="#ffffff" stroke="transparent" points="609,-154.5 609,-405.5 872,-405.5 872,-154.5 609,-154.5"/>
<polygon fill="#71717a" stroke="transparent" points="610.5,-396 610.5,-404 871.5,-404 871.5,-396 610.5,-396"/>
<polygon fill="#f8fafc" stroke="transparent" points="610.5,-365 610.5,-396 871.5,-396 871.5,-365 610.5,-365"/>
<text text-anchor="start" x="614.5" y="-382.6" font-family="Arial" font-weight="bold" font-size="13.00">ready</text>
<text text-anchor="start" x="614.5" y="-371.6" font-family="Arial" font-size="8.00" fill="#64748b">view state</text>
<text text-anchor="start" x="615.5" y="-353" font-family="Arial" font-weight="bold" font-size="10.00">text:</text>
<text text-anchor="start" x="635.5" y="-353" font-family="Arial" font-size="10.00">  text.project.detail.ready.heading</text>
<text text-anchor="start" x="615.5" y="-341" font-family="Arial" font-weight="bold" font-size="10.00">assets:</text>
<text text-anchor="start" x="648.5" y="-341" font-family="Arial" font-size="10.00">  asset.project.detail.ready.priority_badge</text>
<text text-anchor="start" x="614.5" y="-321" font-family="Arial" font-weight="bold" font-size="10.00">query.project.read fields</text>
<text text-anchor="start" x="614.5" y="-310" font-family="Arial" font-size="10.00">title</text>
<text text-anchor="start" x="630.5" y="-310" font-family="Arial" font-size="8.00" fill="#94a3b8">  string</text>
<text text-anchor="start" x="614.5" y="-299" font-family="Arial" font-size="10.00">customer</text>
<text text-anchor="start" x="655.5" y="-299" font-family="Arial" font-size="8.00" fill="#94a3b8">  string</text>
<text text-anchor="start" x="614.5" y="-288" font-family="Arial" font-size="10.00">status</text>
<text text-anchor="start" x="642.5" y="-288" font-family="Arial" font-size="8.00" fill="#94a3b8">  enum&lt;draft|submitted|approved|archived&gt;</text>
<text text-anchor="start" x="614.5" y="-277" font-family="Arial" font-size="10.00">assignee</text>
<text text-anchor="start" x="654.5" y="-277" font-family="Arial" font-size="8.00" fill="#94a3b8">  string</text>
<text text-anchor="start" x="614.5" y="-266" font-family="Arial" font-size="10.00">summary</text>
<text text-anchor="start" x="655.5" y="-266" font-family="Arial" font-size="8.00" fill="#94a3b8">  string</text>
<text text-anchor="start" x="615.5" y="-246" font-family="Arial" font-weight="bold" font-size="10.00">data_loaders:</text>
<text text-anchor="start" x="678.5" y="-246" font-family="Arial" font-size="10.00">  read_project: query.project.read</text>
<text text-anchor="start" x="821.5" y="-246" font-family="Arial" font-size="8.00" fill="#94a3b8">  Project</text>
<text text-anchor="start" x="614.5" y="-226" font-family="Arial" font-weight="bold" font-size="10.00">action_bindings</text>
<text text-anchor="start" x="614.5" y="-215" font-family="Arial" font-size="10.00">approve: command.project.approve</text>
<text text-anchor="start" x="768.5" y="-215" font-family="Arial" font-size="8.00" fill="#94a3b8">  Project</text>
<text text-anchor="start" x="614.5" y="-204" font-family="Arial" font-size="10.00">archive: command.project.archive</text>
<text text-anchor="start" x="762.5" y="-204" font-family="Arial" font-size="8.00" fill="#94a3b8">  Project</text>
<text text-anchor="start" x="614.5" y="-185" font-family="Arial" font-weight="bold" font-size="10.00">access_policies</text>
<text text-anchor="start" x="614.5" y="-173" font-family="Arial" font-size="10.00">command.project.approve: access_policy.project.reviewer</text>
<text text-anchor="start" x="614.5" y="-162" font-family="Arial" font-size="10.00">command.project.archive: access_policy.project.reviewer</text>
<polygon fill="none" stroke="#71717a" points="609,-154.5 609,-405.5 872,-405.5 872,-154.5 609,-154.5"/>
</g>
<!-- transition_3_ready_none_local_signal_selection_cleared -->
<g id="node8" class="node">
<title>transition_3_ready_none_local_signal_selection_cleared</title>
<polygon fill="#ffffff" stroke="transparent" points="971,-365 971,-427 1176,-427 1176,-365 971,-365"/>
<polygon fill="#2563eb" stroke="transparent" points="972.5,-418 972.5,-426 1175.5,-426 1175.5,-418 972.5,-418"/>
<polygon fill="#eff6ff" stroke="transparent" points="972.5,-387 972.5,-418 1175.5,-418 1175.5,-387 972.5,-387"/>
<text text-anchor="start" x="976.5" y="-404.6" font-family="Arial" font-weight="bold" font-size="13.00">local_signal.selection_cleared</text>
<text text-anchor="start" x="976.5" y="-393.6" font-family="Arial" font-size="8.00" fill="#64748b">transition signal</text>
<text text-anchor="start" x="977.5" y="-375" font-family="Arial" font-weight="bold" font-size="10.00">set:</text>
<text text-anchor="start" x="994.5" y="-375" font-family="Arial" font-size="10.00">  project_id</text>
<text text-anchor="start" x="1043.5" y="-375" font-family="Arial" font-size="8.00" fill="#94a3b8">  string | null</text>
<text text-anchor="start" x="1086.5" y="-375" font-family="Arial" font-size="8.00"> ← null</text>
<polygon fill="none" stroke="#2563eb" points="971,-365 971,-427 1176,-427 1176,-365 971,-365"/>
</g>
<!-- view_state_ready&#45;&gt;transition_3_ready_none_local_signal_selection_cleared -->
<g id="edge7" class="edge">
<title>view_state_ready&#45;&gt;transition_3_ready_none_local_signal_selection_cleared</title>
<path fill="none" stroke="#3f3f46" d="M872.17,-329.88C892.8,-337.46 913.93,-345.07 934,-352 944.07,-355.48 954.59,-359.01 965.14,-362.48"/>
<polygon fill="#3f3f46" stroke="#3f3f46" points="964.34,-365.17 972.82,-364.99 966.09,-359.84 964.34,-365.17"/>
</g>
<!-- transition_4_ready_ready_data_refresh_signal_project_changed -->
<g id="node9" class="node">
<title>transition_4_ready_ready_data_refresh_signal_project_changed</title>
<polygon fill="#ffffff" stroke="transparent" points="948.5,-222 948.5,-338 1198.5,-338 1198.5,-222 948.5,-222"/>
<polygon fill="#2563eb" stroke="transparent" points="949.5,-329 949.5,-337 1197.5,-337 1197.5,-329 949.5,-329"/>
<polygon fill="#eff6ff" stroke="transparent" points="949.5,-298 949.5,-329 1197.5,-329 1197.5,-298 949.5,-298"/>
<text text-anchor="start" x="953.5" y="-315.6" font-family="Arial" font-weight="bold" font-size="13.00">data_refresh_signal.project_changed</text>
<text text-anchor="start" x="953.5" y="-304.6" font-family="Arial" font-size="8.00" fill="#64748b">transition signal</text>
<text text-anchor="start" x="953.5" y="-287" font-family="Arial" font-style="italic" font-size="10.00" fill="#3f3f46">Detail mutations mark ready&#45;state project data</text>
<text text-anchor="start" x="953.5" y="-276" font-family="Arial" font-style="italic" font-size="10.00" fill="#3f3f46">stale and trigger query refresh.</text>
<text text-anchor="start" x="954.5" y="-256" font-family="Arial" font-weight="bold" font-size="10.00">input:</text>
<text text-anchor="start" x="982.5" y="-256" font-family="Arial" font-size="10.00">  read_project.project_id</text>
<text text-anchor="start" x="1087.5" y="-256" font-family="Arial" font-size="8.00" fill="#94a3b8">  string</text>
<text text-anchor="start" x="954.5" y="-244" font-family="Arial" font-weight="bold" font-size="10.00">data_loaders:</text>
<text text-anchor="start" x="1017.5" y="-244" font-family="Arial" font-size="10.00">  read_project</text>
<text text-anchor="start" x="954.5" y="-232" font-family="Arial" font-weight="bold" font-size="10.00">load:</text>
<text text-anchor="start" x="978.5" y="-232" font-family="Arial" font-size="10.00">  query.project.read</text>
<text text-anchor="start" x="1062.5" y="-232" font-family="Arial" font-size="8.00" fill="#94a3b8">  Project</text>
<polygon fill="none" stroke="#2563eb" points="948.5,-222 948.5,-338 1198.5,-338 1198.5,-222 948.5,-222"/>
</g>
<!-- view_state_ready&#45;&gt;transition_4_ready_ready_data_refresh_signal_project_changed -->
<g id="edge9" class="edge">
<title>view_state_ready&#45;&gt;transition_4_ready_ready_data_refresh_signal_project_changed</title>
<path fill="none" stroke="#3f3f46" d="M872.32,-270.44C894.61,-270.19 917.78,-270.19 940.11,-270.43"/>
<polygon fill="#3f3f46" stroke="#3f3f46" points="940.26,-273.23 948.3,-270.52 940.33,-267.63 940.26,-273.23"/>
</g>
<!-- transition_5_ready_error_local_signal_show_transition_not_allowed -->
<g id="node10" class="node">
<title>transition_5_ready_error_local_signal_show_transition_not_allowed</title>
<polygon fill="#ffffff" stroke="transparent" points="934,-123.5 934,-194.5 1213,-194.5 1213,-123.5 934,-123.5"/>
<polygon fill="#2563eb" stroke="transparent" points="935.5,-185 935.5,-193 1212.5,-193 1212.5,-185 935.5,-185"/>
<polygon fill="#eff6ff" stroke="transparent" points="935.5,-154 935.5,-185 1212.5,-185 1212.5,-154 935.5,-154"/>
<text text-anchor="start" x="939.5" y="-171.6" font-family="Arial" font-weight="bold" font-size="13.00">local_signal.show_transition_not_allowed</text>
<text text-anchor="start" x="939.5" y="-160.6" font-family="Arial" font-size="8.00" fill="#64748b">transition signal</text>
<text text-anchor="start" x="939.5" y="-143" font-family="Arial" font-style="italic" font-size="10.00" fill="#3f3f46">Invalid detail commands move the detail panel into</text>
<text text-anchor="start" x="939.5" y="-132" font-family="Arial" font-style="italic" font-size="10.00" fill="#3f3f46">its displayable error state.</text>
<polygon fill="none" stroke="#2563eb" points="934,-123.5 934,-194.5 1213,-194.5 1213,-123.5 934,-123.5"/>
</g>
<!-- view_state_ready&#45;&gt;transition_5_ready_error_local_signal_show_transition_not_allowed -->
<g id="edge11" class="edge">
<title>view_state_ready&#45;&gt;transition_5_ready_error_local_signal_show_transition_not_allowed</title>
<path fill="none" stroke="#3f3f46" d="M872.19,-231.66C892.86,-224.05 914.01,-216.3 934,-209 944.44,-205.19 955.33,-201.23 966.21,-197.29"/>
<polygon fill="#3f3f46" stroke="#3f3f46" points="967.17,-199.92 973.74,-194.56 965.26,-194.65 967.17,-199.92"/>
</g>
<!-- transition_0_none_loading_local_signal_selection_changed&#45;&gt;view_state_loading -->
<g id="edge2" class="edge">
<title>transition_0_none_loading_local_signal_selection_changed&#45;&gt;view_state_loading</title>
<path fill="none" stroke="#3f3f46" d="M1480.67,-63.63C1377.87,-35.96 1216.89,0 1074.5,0 739.5,0 739.5,0 739.5,0 571.58,0 380.2,-31.17 256.27,-55.54"/>
<polygon fill="#3f3f46" stroke="#3f3f46" points="255.51,-52.83 248.2,-57.13 256.59,-58.33 255.51,-52.83"/>
</g>
<!-- transition_1_loading_ready_data_refresh_signal_project_loaded&#45;&gt;view_state_ready -->
<g id="edge4" class="edge">
<title>transition_1_loading_ready_data_refresh_signal_project_loaded&#45;&gt;view_state_ready</title>
<path fill="none" stroke="#3f3f46" d="M547.27,-245.33C564.74,-248.48 582.86,-251.75 600.69,-254.97"/>
<polygon fill="#3f3f46" stroke="#3f3f46" points="600.49,-257.77 608.86,-256.44 601.49,-252.26 600.49,-257.77"/>
</g>
<!-- transition_2_loading_error_data_refresh_signal_project_load_failed&#45;&gt;view_state_error -->
<g id="edge6" class="edge">
<title>transition_2_loading_error_data_refresh_signal_project_load_failed&#45;&gt;view_state_error</title>
<path fill="none" stroke="#3f3f46" d="M873.14,-90.55C967.73,-95.44 1098.26,-102.52 1213,-110 1230.23,-111.12 1248.71,-112.44 1266.25,-113.74"/>
<polygon fill="#3f3f46" stroke="#3f3f46" points="1266.05,-116.54 1274.23,-114.34 1266.46,-110.95 1266.05,-116.54"/>
</g>
<!-- transition_3_ready_none_local_signal_selection_cleared&#45;&gt;view_state_none -->
<g id="edge8" class="edge">
<title>transition_3_ready_none_local_signal_selection_cleared&#45;&gt;view_state_none</title>
<path fill="none" stroke="#3f3f46" d="M1174.83,-364.96C1204.79,-355.69 1237.22,-345.65 1265.72,-336.84"/>
<polygon fill="#3f3f46" stroke="#3f3f46" points="1266.84,-339.42 1273.65,-334.38 1265.18,-334.07 1266.84,-339.42"/>
</g>
<!-- transition_4_ready_ready_data_refresh_signal_project_changed&#45;&gt;view_state_ready -->
<g id="edge10" class="edge">
<title>transition_4_ready_ready_data_refresh_signal_project_changed&#45;&gt;view_state_ready</title>
<path fill="none" stroke="#3f3f46" d="M948.3,-290.2C926.2,-290.53 903.05,-290.59 880.57,-290.38"/>
<polygon fill="#3f3f46" stroke="#3f3f46" points="880.35,-287.58 872.32,-290.29 880.29,-293.18 880.35,-287.58"/>
</g>
<!-- transition_5_ready_error_local_signal_show_transition_not_allowed&#45;&gt;view_state_error -->
<g id="edge12" class="edge">
<title>transition_5_ready_error_local_signal_show_transition_not_allowed&#45;&gt;view_state_error</title>
<path fill="none" stroke="#3f3f46" d="M1213.03,-139.1C1231.23,-136.49 1249.37,-133.88 1266.12,-131.47"/>
<polygon fill="#3f3f46" stroke="#3f3f46" points="1266.71,-134.22 1274.24,-130.31 1265.92,-128.67 1266.71,-134.22"/>
</g>
</g>
</svg>
