<svg width="1890pt" height="527pt"
 viewBox="0.00 0.00 1890.00 527.00" xmlns="http://www.w3.org/2000/svg" xmlns:xlink="http://www.w3.org/1999/xlink">
<!-- pyspec-contract-input-sha256: 42931d325f8eef44d6172a2ad3f4f968de6ce22f9c401e28d30b3d71ddd0a057 -->
<g id="graph0" class="graph" transform="scale(1 1) rotate(0) translate(18 509)">
<title>state_machine_state_machine_project_detail</title>
<!-- view_state_error -->
<g id="node1" class="node">
<title>view_state_error</title>
<polygon fill="#ffffff" stroke="transparent" points="1388.5,-98 1388.5,-180 1533.5,-180 1533.5,-98 1388.5,-98"/>
<polygon fill="#71717a" stroke="transparent" points="1390,-171 1390,-179 1533,-179 1533,-171 1390,-171"/>
<polygon fill="#f8fafc" stroke="transparent" points="1390,-140 1390,-171 1533,-171 1533,-140 1390,-140"/>
<text text-anchor="start" x="1394" y="-157.6" font-family="Arial" font-weight="bold" font-size="13.00">error</text>
<text text-anchor="start" x="1394" y="-146.6" font-family="Arial" font-size="8.00" fill="#64748b">view state</text>
<text text-anchor="start" x="1394" y="-129" font-family="Arial" font-weight="bold" font-size="10.00">text</text>
<text text-anchor="start" x="1394" y="-117" font-family="Arial" font-size="10.00">text.project.detail.error.heading</text>
<text text-anchor="start" x="1394" y="-106" font-family="Arial" font-size="10.00">text.project.detail.error.body</text>
<polygon fill="none" stroke="#71717a" points="1388.5,-98 1388.5,-180 1533.5,-180 1533.5,-98 1388.5,-98"/>
</g>
<!-- view_state_loading -->
<g id="node2" class="node">
<title>view_state_loading</title>
<polygon fill="#ffffff" stroke="transparent" points="0,-47 0,-151 303,-151 303,-47 0,-47"/>
<polygon fill="#71717a" stroke="transparent" points="1.5,-142 1.5,-150 302.5,-150 302.5,-142 1.5,-142"/>
<polygon fill="#f8fafc" stroke="transparent" points="1.5,-111 1.5,-142 302.5,-142 302.5,-111 1.5,-111"/>
<text text-anchor="start" x="5.5" y="-128.6" font-family="Arial" font-weight="bold" font-size="13.00">loading</text>
<text text-anchor="start" x="5.5" y="-117.6" font-family="Arial" font-size="8.00" fill="#64748b">view state</text>
<text text-anchor="start" x="6.5" y="-99" font-family="Arial" font-weight="bold" font-size="10.00">text:</text>
<text text-anchor="start" x="26.5" y="-99" font-family="Arial" font-size="10.00">  text.project.detail.loading.message</text>
<text text-anchor="start" x="6.5" y="-87" font-family="Arial" font-weight="bold" font-size="10.00">data_loaders:</text>
<text text-anchor="start" x="69.5" y="-87" font-family="Arial" font-size="10.00">  read_project: application_action.project.read</text>
<text text-anchor="start" x="267.5" y="-87" font-family="Arial" font-size="8.00" fill="#94a3b8">  Project</text>
<text text-anchor="start" x="5.5" y="-67" font-family="Arial" font-weight="bold" font-size="10.00">authorization_policies:</text>
<text text-anchor="start" x="112.5" y="-67" font-family="Arial" font-size="10.00">  application_action.project.read:</text>
<text text-anchor="start" x="5.5" y="-55" font-family="Arial" font-size="10.00">  authorization_policy.project.member</text>
<polygon fill="none" stroke="#71717a" points="0,-47 0,-151 303,-151 303,-47 0,-47"/>
</g>
<!-- transition_1_loading_ready_data_refresh_signal_project_loaded -->
<g id="node6" class="node">
<title>transition_1_loading_ready_data_refresh_signal_project_loaded</title>
<polygon fill="#ffffff" stroke="transparent" points="364,-207 364,-323 623,-323 623,-207 364,-207"/>
<polygon fill="#2563eb" stroke="transparent" points="365.5,-314 365.5,-322 622.5,-322 622.5,-314 365.5,-314"/>
<polygon fill="#eff6ff" stroke="transparent" points="365.5,-283 365.5,-314 622.5,-314 622.5,-283 365.5,-283"/>
<text text-anchor="start" x="369.5" y="-300.6" font-family="Arial" font-weight="bold" font-size="13.00">data_refresh_signal.project_loaded</text>
<text text-anchor="start" x="369.5" y="-289.6" font-family="Arial" font-size="8.00" fill="#64748b">transition signal</text>
<text text-anchor="start" x="370.5" y="-271" font-family="Arial" font-weight="bold" font-size="10.00">input:</text>
<text text-anchor="start" x="398.5" y="-271" font-family="Arial" font-size="10.00">  read_project.project_id</text>
<text text-anchor="start" x="503.5" y="-271" font-family="Arial" font-size="8.00" fill="#94a3b8">  ID</text>
<text text-anchor="start" x="370.5" y="-259" font-family="Arial" font-weight="bold" font-size="10.00">data_loaders:</text>
<text text-anchor="start" x="433.5" y="-259" font-family="Arial" font-size="10.00">  read_project</text>
<text text-anchor="start" x="370.5" y="-247" font-family="Arial" font-weight="bold" font-size="10.00">load:</text>
<text text-anchor="start" x="394.5" y="-247" font-family="Arial" font-size="10.00">  application_action.project.read</text>
<text text-anchor="start" x="533.5" y="-247" font-family="Arial" font-size="8.00" fill="#94a3b8">  Project</text>
<text text-anchor="start" x="369.5" y="-227" font-family="Arial" font-weight="bold" font-size="10.00">authorization_policies:</text>
<text text-anchor="start" x="476.5" y="-227" font-family="Arial" font-size="10.00">  application_action.project.read:</text>
<text text-anchor="start" x="369.5" y="-215" font-family="Arial" font-size="10.00">  authorization_policy.project.member</text>
<polygon fill="none" stroke="#2563eb" points="364,-207 364,-323 623,-323 623,-207 364,-207"/>
</g>
<!-- view_state_loading&#45;&gt;transition_1_loading_ready_data_refresh_signal_project_loaded -->
<g id="edge3" class="edge">
<title>view_state_loading&#45;&gt;transition_1_loading_ready_data_refresh_signal_project_loaded</title>
<path fill="none" stroke="#3f3f46" d="M259.15,-151.07C293.05,-167.62 330.89,-186.09 366.05,-203.26"/>
<polygon fill="#3f3f46" stroke="#3f3f46" points="365.1,-205.91 373.51,-206.91 367.55,-200.88 365.1,-205.91"/>
</g>
<!-- transition_2_loading_error_data_refresh_signal_project_load_failed -->
<g id="node7" class="node">
<title>transition_2_loading_error_data_refresh_signal_project_load_failed</title>
<polygon fill="#ffffff" stroke="transparent" points="703,-41 703,-157 968,-157 968,-41 703,-41"/>
<polygon fill="#2563eb" stroke="transparent" points="704.5,-148 704.5,-156 967.5,-156 967.5,-148 704.5,-148"/>
<polygon fill="#eff6ff" stroke="transparent" points="704.5,-117 704.5,-148 967.5,-148 967.5,-117 704.5,-117"/>
<text text-anchor="start" x="708.5" y="-134.6" font-family="Arial" font-weight="bold" font-size="13.00">data_refresh_signal.project_load_failed</text>
<text text-anchor="start" x="708.5" y="-123.6" font-family="Arial" font-size="8.00" fill="#64748b">transition signal</text>
<text text-anchor="start" x="709.5" y="-105" font-family="Arial" font-weight="bold" font-size="10.00">input:</text>
<text text-anchor="start" x="737.5" y="-105" font-family="Arial" font-size="10.00">  read_project.project_id</text>
<text text-anchor="start" x="842.5" y="-105" font-family="Arial" font-size="8.00" fill="#94a3b8">  ID</text>
<text text-anchor="start" x="709.5" y="-93" font-family="Arial" font-weight="bold" font-size="10.00">data_loaders:</text>
<text text-anchor="start" x="772.5" y="-93" font-family="Arial" font-size="10.00">  read_project</text>
<text text-anchor="start" x="709.5" y="-81" font-family="Arial" font-weight="bold" font-size="10.00">load:</text>
<text text-anchor="start" x="733.5" y="-81" font-family="Arial" font-size="10.00">  application_action.project.read</text>
<text text-anchor="start" x="872.5" y="-81" font-family="Arial" font-size="8.00" fill="#94a3b8">  Project</text>
<text text-anchor="start" x="708.5" y="-61" font-family="Arial" font-weight="bold" font-size="10.00">authorization_policies:</text>
<text text-anchor="start" x="815.5" y="-61" font-family="Arial" font-size="10.00">  application_action.project.read:</text>
<text text-anchor="start" x="708.5" y="-49" font-family="Arial" font-size="10.00">  authorization_policy.project.member</text>
<polygon fill="none" stroke="#2563eb" points="703,-41 703,-157 968,-157 968,-41 703,-41"/>
</g>
<!-- view_state_loading&#45;&gt;transition_2_loading_error_data_refresh_signal_project_load_failed -->
<g id="edge5" class="edge">
<title>view_state_loading&#45;&gt;transition_2_loading_error_data_refresh_signal_project_load_failed</title>
<path fill="none" stroke="#3f3f46" d="M303.01,-99C419.85,-99 580.62,-99 694.66,-99"/>
<polygon fill="#3f3f46" stroke="#3f3f46" points="694.79,-101.8 702.79,-99 694.79,-96.2 694.79,-101.8"/>
</g>
<!-- view_state_none -->
<g id="node3" class="node">
<title>view_state_none</title>
<polygon fill="#ffffff" stroke="transparent" points="1388,-324 1388,-406 1534,-406 1534,-324 1388,-324"/>
<polygon fill="#0891b2" stroke="transparent" points="1389,-397 1389,-405 1533,-405 1533,-397 1389,-397"/>
<polygon fill="#ecfeff" stroke="transparent" points="1389,-366 1389,-397 1533,-397 1533,-366 1389,-366"/>
<text text-anchor="start" x="1393" y="-383.6" font-family="Arial" font-weight="bold" font-size="13.00">none</text>
<text text-anchor="start" x="1393" y="-372.6" font-family="Arial" font-size="8.00" fill="#64748b">initial view state</text>
<text text-anchor="start" x="1393" y="-355" font-family="Arial" font-weight="bold" font-size="10.00">text</text>
<text text-anchor="start" x="1393" y="-343" font-family="Arial" font-size="10.00">text.project.detail.none.heading</text>
<text text-anchor="start" x="1393" y="-332" font-family="Arial" font-size="10.00">text.project.detail.none.body</text>
<polygon fill="none" stroke="#0891b2" points="1388,-324 1388,-406 1534,-406 1534,-324 1388,-324"/>
</g>
<!-- transition_0_none_loading_local_signal_selection_changed -->
<g id="node5" class="node">
<title>transition_0_none_loading_local_signal_selection_changed</title>
<polygon fill="#ffffff" stroke="transparent" points="1595,-46 1595,-162 1854,-162 1854,-46 1595,-46"/>
<polygon fill="#2563eb" stroke="transparent" points="1596.5,-153 1596.5,-161 1853.5,-161 1853.5,-153 1596.5,-153"/>
<polygon fill="#eff6ff" stroke="transparent" points="1596.5,-122 1596.5,-153 1853.5,-153 1853.5,-122 1596.5,-122"/>
<text text-anchor="start" x="1600.5" y="-139.6" font-family="Arial" font-weight="bold" font-size="13.00">local_signal.selection_changed</text>
<text text-anchor="start" x="1600.5" y="-128.6" font-family="Arial" font-size="8.00" fill="#64748b">transition signal</text>
<text text-anchor="start" x="1601.5" y="-110" font-family="Arial" font-weight="bold" font-size="10.00">input:</text>
<text text-anchor="start" x="1629.5" y="-110" font-family="Arial" font-size="10.00">  read_project.project_id</text>
<text text-anchor="start" x="1734.5" y="-110" font-family="Arial" font-size="8.00" fill="#94a3b8">  ID</text>
<text text-anchor="start" x="1601.5" y="-98" font-family="Arial" font-weight="bold" font-size="10.00">data_loaders:</text>
<text text-anchor="start" x="1664.5" y="-98" font-family="Arial" font-size="10.00">  read_project</text>
<text text-anchor="start" x="1601.5" y="-86" font-family="Arial" font-weight="bold" font-size="10.00">load:</text>
<text text-anchor="start" x="1625.5" y="-86" font-family="Arial" font-size="10.00">  application_action.project.read</text>
<text text-anchor="start" x="1764.5" y="-86" font-family="Arial" font-size="8.00" fill="#94a3b8">  Project</text>
<text text-anchor="start" x="1600.5" y="-66" font-family="Arial" font-weight="bold" font-size="10.00">authorization_policies:</text>
<text text-anchor="start" x="1707.5" y="-66" font-family="Arial" font-size="10.00">  application_action.project.read:</text>
<text text-anchor="start" x="1600.5" y="-54" font-family="Arial" font-size="10.00">  authorization_policy.project.member</text>
<polygon fill="none" stroke="#2563eb" points="1595,-46 1595,-162 1854,-162 1854,-46 1595,-46"/>
</g>
<!-- view_state_none&#45;&gt;transition_0_none_loading_local_signal_selection_changed -->
<g id="edge1" class="edge">
<title>view_state_none&#45;&gt;transition_0_none_loading_local_signal_selection_changed</title>
<path fill="none" stroke="#3f3f46" d="M1503.15,-323.93C1545.03,-282.13 1610.53,-216.75 1659.25,-168.12"/>
<polygon fill="#3f3f46" stroke="#3f3f46" points="1661.43,-169.91 1665.11,-162.28 1657.47,-165.95 1661.43,-169.91"/>
</g>
<!-- view_state_ready -->
<g id="node4" class="node">
<title>view_state_ready</title>
<polygon fill="#ffffff" stroke="transparent" points="684,-184.5 684,-479.5 987,-479.5 987,-184.5 684,-184.5"/>
<polygon fill="#71717a" stroke="transparent" points="685.5,-470 685.5,-478 986.5,-478 986.5,-470 685.5,-470"/>
<polygon fill="#f8fafc" stroke="transparent" points="685.5,-439 685.5,-470 986.5,-470 986.5,-439 685.5,-439"/>
<text text-anchor="start" x="689.5" y="-456.6" font-family="Arial" font-weight="bold" font-size="13.00">ready</text>
<text text-anchor="start" x="689.5" y="-445.6" font-family="Arial" font-size="8.00" fill="#64748b">view state</text>
<text text-anchor="start" x="690.5" y="-427" font-family="Arial" font-weight="bold" font-size="10.00">text:</text>
<text text-anchor="start" x="710.5" y="-427" font-family="Arial" font-size="10.00">  text.project.detail.ready.heading</text>
<text text-anchor="start" x="690.5" y="-415" font-family="Arial" font-weight="bold" font-size="10.00">assets:</text>
<text text-anchor="start" x="723.5" y="-415" font-family="Arial" font-size="10.00">  asset.project.detail.ready.priority_badge</text>
<text text-anchor="start" x="689.5" y="-395" font-family="Arial" font-weight="bold" font-size="10.00">application_action.project.read fields</text>
<text text-anchor="start" x="689.5" y="-384" font-family="Arial" font-size="10.00">title</text>
<text text-anchor="start" x="705.5" y="-384" font-family="Arial" font-size="8.00" fill="#94a3b8">  Text</text>
<text text-anchor="start" x="689.5" y="-373" font-family="Arial" font-size="10.00">customer</text>
<text text-anchor="start" x="730.5" y="-373" font-family="Arial" font-size="8.00" fill="#94a3b8">  Text</text>
<text text-anchor="start" x="689.5" y="-362" font-family="Arial" font-size="10.00">status</text>
<text text-anchor="start" x="717.5" y="-362" font-family="Arial" font-size="8.00" fill="#94a3b8">  enum&lt;draft|submitted|approved|archived&gt;</text>
<text text-anchor="start" x="689.5" y="-351" font-family="Arial" font-size="10.00">assignee</text>
<text text-anchor="start" x="729.5" y="-351" font-family="Arial" font-size="8.00" fill="#94a3b8">  Text</text>
<text text-anchor="start" x="689.5" y="-340" font-family="Arial" font-size="10.00">summary</text>
<text text-anchor="start" x="730.5" y="-340" font-family="Arial" font-size="8.00" fill="#94a3b8">  Text</text>
<text text-anchor="start" x="690.5" y="-320" font-family="Arial" font-weight="bold" font-size="10.00">data_loaders:</text>
<text text-anchor="start" x="753.5" y="-320" font-family="Arial" font-size="10.00">  read_project: application_action.project.read</text>
<text text-anchor="start" x="951.5" y="-320" font-family="Arial" font-size="8.00" fill="#94a3b8">  Project</text>
<text text-anchor="start" x="689.5" y="-300" font-family="Arial" font-weight="bold" font-size="10.00">action_bindings</text>
<text text-anchor="start" x="689.5" y="-289" font-family="Arial" font-size="10.00">approve: application_action.project.approve</text>
<text text-anchor="start" x="878.5" y="-289" font-family="Arial" font-size="8.00" fill="#94a3b8">  Project</text>
<text text-anchor="start" x="689.5" y="-278" font-family="Arial" font-size="10.00">archive: application_action.project.archive</text>
<text text-anchor="start" x="872.5" y="-278" font-family="Arial" font-size="8.00" fill="#94a3b8">  Project</text>
<text text-anchor="start" x="689.5" y="-259" font-family="Arial" font-weight="bold" font-size="10.00">authorization_policies</text>
<text text-anchor="start" x="689.5" y="-247" font-family="Arial" font-size="10.00">application_action.project.read:</text>
<text text-anchor="start" x="689.5" y="-236" font-family="Arial" font-size="10.00">authorization_policy.project.member</text>
<text text-anchor="start" x="689.5" y="-225" font-family="Arial" font-size="10.00">application_action.project.approve:</text>
<text text-anchor="start" x="689.5" y="-214" font-family="Arial" font-size="10.00">authorization_policy.project.reviewer</text>
<text text-anchor="start" x="689.5" y="-203" font-family="Arial" font-size="10.00">application_action.project.archive:</text>
<text text-anchor="start" x="689.5" y="-192" font-family="Arial" font-size="10.00">authorization_policy.project.reviewer</text>
<polygon fill="none" stroke="#71717a" points="684,-184.5 684,-479.5 987,-479.5 987,-184.5 684,-184.5"/>
</g>
<!-- transition_3_ready_none_local_signal_selection_cleared -->
<g id="node8" class="node">
<title>transition_3_ready_none_local_signal_selection_cleared</title>
<polygon fill="#ffffff" stroke="transparent" points="1085,-429 1085,-491 1290,-491 1290,-429 1085,-429"/>
<polygon fill="#2563eb" stroke="transparent" points="1086.5,-482 1086.5,-490 1289.5,-490 1289.5,-482 1086.5,-482"/>
<polygon fill="#eff6ff" stroke="transparent" points="1086.5,-451 1086.5,-482 1289.5,-482 1289.5,-451 1086.5,-451"/>
<text text-anchor="start" x="1090.5" y="-468.6" font-family="Arial" font-weight="bold" font-size="13.00">local_signal.selection_cleared</text>
<text text-anchor="start" x="1090.5" y="-457.6" font-family="Arial" font-size="8.00" fill="#64748b">transition signal</text>
<text text-anchor="start" x="1091.5" y="-439" font-family="Arial" font-weight="bold" font-size="10.00">set:</text>
<text text-anchor="start" x="1108.5" y="-439" font-family="Arial" font-size="10.00">  project_id</text>
<text text-anchor="start" x="1157.5" y="-439" font-family="Arial" font-size="8.00" fill="#94a3b8">  nullable&lt;ID&gt;</text>
<text text-anchor="start" x="1206.5" y="-439" font-family="Arial" font-size="8.00"> ← null</text>
<polygon fill="none" stroke="#2563eb" points="1085,-429 1085,-491 1290,-491 1290,-429 1085,-429"/>
</g>
<!-- view_state_ready&#45;&gt;transition_3_ready_none_local_signal_selection_cleared -->
<g id="edge7" class="edge">
<title>view_state_ready&#45;&gt;transition_3_ready_none_local_signal_selection_cleared</title>
<path fill="none" stroke="#3f3f46" d="M987.07,-393.3C1007.46,-401.16 1028.19,-408.93 1048,-416 1057.75,-419.48 1067.94,-422.98 1078.16,-426.39"/>
<polygon fill="#3f3f46" stroke="#3f3f46" points="1077.51,-429.13 1085.99,-428.99 1079.27,-423.81 1077.51,-429.13"/>
</g>
<!-- transition_4_ready_ready_data_refresh_signal_project_changed -->
<g id="node9" class="node">
<title>transition_4_ready_ready_data_refresh_signal_project_changed</title>
<polygon fill="#ffffff" stroke="transparent" points="1058,-256 1058,-402 1317,-402 1317,-256 1058,-256"/>
<polygon fill="#2563eb" stroke="transparent" points="1059.5,-393 1059.5,-401 1316.5,-401 1316.5,-393 1059.5,-393"/>
<polygon fill="#eff6ff" stroke="transparent" points="1059.5,-362 1059.5,-393 1316.5,-393 1316.5,-362 1059.5,-362"/>
<text text-anchor="start" x="1063.5" y="-379.6" font-family="Arial" font-weight="bold" font-size="13.00">data_refresh_signal.project_changed</text>
<text text-anchor="start" x="1063.5" y="-368.6" font-family="Arial" font-size="8.00" fill="#64748b">transition signal</text>
<text text-anchor="start" x="1063.5" y="-351" font-family="Arial" font-style="italic" font-size="10.00" fill="#3f3f46">Detail mutations mark ready&#45;state project data</text>
<text text-anchor="start" x="1063.5" y="-340" font-family="Arial" font-style="italic" font-size="10.00" fill="#3f3f46">stale and trigger query refresh.</text>
<text text-anchor="start" x="1064.5" y="-320" font-family="Arial" font-weight="bold" font-size="10.00">input:</text>
<text text-anchor="start" x="1092.5" y="-320" font-family="Arial" font-size="10.00">  read_project.project_id</text>
<text text-anchor="start" x="1197.5" y="-320" font-family="Arial" font-size="8.00" fill="#94a3b8">  ID</text>
<text text-anchor="start" x="1064.5" y="-308" font-family="Arial" font-weight="bold" font-size="10.00">data_loaders:</text>
<text text-anchor="start" x="1127.5" y="-308" font-family="Arial" font-size="10.00">  read_project</text>
<text text-anchor="start" x="1064.5" y="-296" font-family="Arial" font-weight="bold" font-size="10.00">load:</text>
<text text-anchor="start" x="1088.5" y="-296" font-family="Arial" font-size="10.00">  application_action.project.read</text>
<text text-anchor="start" x="1227.5" y="-296" font-family="Arial" font-size="8.00" fill="#94a3b8">  Project</text>
<text text-anchor="start" x="1063.5" y="-276" font-family="Arial" font-weight="bold" font-size="10.00">authorization_policies:</text>
<text text-anchor="start" x="1170.5" y="-276" font-family="Arial" font-size="10.00">  application_action.project.read:</text>
<text text-anchor="start" x="1063.5" y="-264" font-family="Arial" font-size="10.00">  authorization_policy.project.member</text>
<polygon fill="none" stroke="#2563eb" points="1058,-256 1058,-402 1317,-402 1317,-256 1058,-256"/>
</g>
<!-- view_state_ready&#45;&gt;transition_4_ready_ready_data_refresh_signal_project_changed -->
<g id="edge9" class="edge">
<title>view_state_ready&#45;&gt;transition_4_ready_ready_data_refresh_signal_project_changed</title>
<path fill="none" stroke="#3f3f46" d="M987.22,-321.04C1007.97,-320.72 1029.2,-320.58 1049.69,-320.63"/>
<polygon fill="#3f3f46" stroke="#3f3f46" points="1049.79,-323.43 1057.8,-320.66 1049.81,-317.83 1049.79,-323.43"/>
</g>
<!-- transition_5_ready_error_local_signal_show_transition_not_allowed -->
<g id="node10" class="node">
<title>transition_5_ready_error_local_signal_show_transition_not_allowed</title>
<polygon fill="#ffffff" stroke="transparent" points="1048,-152.5 1048,-223.5 1327,-223.5 1327,-152.5 1048,-152.5"/>
<polygon fill="#2563eb" stroke="transparent" points="1049.5,-214 1049.5,-222 1326.5,-222 1326.5,-214 1049.5,-214"/>
<polygon fill="#eff6ff" stroke="transparent" points="1049.5,-183 1049.5,-214 1326.5,-214 1326.5,-183 1049.5,-183"/>
<text text-anchor="start" x="1053.5" y="-200.6" font-family="Arial" font-weight="bold" font-size="13.00">local_signal.show_transition_not_allowed</text>
<text text-anchor="start" x="1053.5" y="-189.6" font-family="Arial" font-size="8.00" fill="#64748b">transition signal</text>
<text text-anchor="start" x="1053.5" y="-172" font-family="Arial" font-style="italic" font-size="10.00" fill="#3f3f46">Invalid detail application_actions move the detail</text>
<text text-anchor="start" x="1053.5" y="-161" font-family="Arial" font-style="italic" font-size="10.00" fill="#3f3f46">panel into its displayable error state.</text>
<polygon fill="none" stroke="#2563eb" points="1048,-152.5 1048,-223.5 1327,-223.5 1327,-152.5 1048,-152.5"/>
</g>
<!-- view_state_ready&#45;&gt;transition_5_ready_error_local_signal_show_transition_not_allowed -->
<g id="edge11" class="edge">
<title>view_state_ready&#45;&gt;transition_5_ready_error_local_signal_show_transition_not_allowed</title>
<path fill="none" stroke="#3f3f46" d="M987.12,-268.18C1007.55,-259.65 1028.27,-251.07 1048,-243 1061.13,-237.63 1075,-232.04 1088.67,-226.56"/>
<polygon fill="#3f3f46" stroke="#3f3f46" points="1089.86,-229.1 1096.25,-223.53 1087.78,-223.9 1089.86,-229.1"/>
</g>
<!-- transition_0_none_loading_local_signal_selection_changed&#45;&gt;view_state_loading -->
<g id="edge2" class="edge">
<title>transition_0_none_loading_local_signal_selection_changed&#45;&gt;view_state_loading</title>
<path fill="none" stroke="#3f3f46" d="M1594.86,-64.61C1487.33,-35.17 1329.37,0 1188.5,0 834.5,0 834.5,0 834.5,0 653.85,0 449.04,-34.44 311.42,-62.69"/>
<polygon fill="#3f3f46" stroke="#3f3f46" points="310.55,-60.02 303.28,-64.37 311.68,-65.5 310.55,-60.02"/>
</g>
<!-- transition_1_loading_ready_data_refresh_signal_project_loaded&#45;&gt;view_state_ready -->
<g id="edge4" class="edge">
<title>transition_1_loading_ready_data_refresh_signal_project_loaded&#45;&gt;view_state_ready</title>
<path fill="none" stroke="#3f3f46" d="M623.04,-290.33C640.24,-293.72 658.05,-297.23 675.7,-300.71"/>
<polygon fill="#3f3f46" stroke="#3f3f46" points="675.4,-303.5 683.79,-302.3 676.48,-298.01 675.4,-303.5"/>
</g>
<!-- transition_2_loading_error_data_refresh_signal_project_load_failed&#45;&gt;view_state_error -->
<g id="edge6" class="edge">
<title>transition_2_loading_error_data_refresh_signal_project_load_failed&#45;&gt;view_state_error</title>
<path fill="none" stroke="#3f3f46" d="M968.35,-107.46C1093.09,-115.46 1276.25,-127.21 1380.2,-133.88"/>
<polygon fill="#3f3f46" stroke="#3f3f46" points="1380.31,-136.69 1388.47,-134.41 1380.67,-131.1 1380.31,-136.69"/>
</g>
<!-- transition_3_ready_none_local_signal_selection_cleared&#45;&gt;view_state_none -->
<g id="edge8" class="edge">
<title>transition_3_ready_none_local_signal_selection_cleared&#45;&gt;view_state_none</title>
<path fill="none" stroke="#3f3f46" d="M1288.59,-428.97C1301.55,-424.73 1314.62,-420.34 1327,-416 1344.2,-409.97 1362.53,-403.19 1379.9,-396.58"/>
<polygon fill="#3f3f46" stroke="#3f3f46" points="1381.33,-399.04 1387.81,-393.57 1379.33,-393.8 1381.33,-399.04"/>
</g>
<!-- transition_4_ready_ready_data_refresh_signal_project_changed&#45;&gt;view_state_ready -->
<g id="edge10" class="edge">
<title>transition_4_ready_ready_data_refresh_signal_project_changed&#45;&gt;view_state_ready</title>
<path fill="none" stroke="#3f3f46" d="M1057.8,-340.27C1037.44,-340.74 1016.18,-341.02 995.23,-341.1"/>
<polygon fill="#3f3f46" stroke="#3f3f46" points="995.21,-338.3 987.22,-341.12 995.22,-343.9 995.21,-338.3"/>
</g>
<!-- transition_5_ready_error_local_signal_show_transition_not_allowed&#45;&gt;view_state_error -->
<g id="edge12" class="edge">
<title>transition_5_ready_error_local_signal_show_transition_not_allowed&#45;&gt;view_state_error</title>
<path fill="none" stroke="#3f3f46" d="M1327.03,-163C1345.23,-159.71 1363.37,-156.44 1380.12,-153.42"/>
<polygon fill="#3f3f46" stroke="#3f3f46" points="1380.86,-156.13 1388.24,-151.95 1379.86,-150.62 1380.86,-156.13"/>
</g>
</g>
</svg>
