<svg width="1786pt" height="463pt"
 viewBox="0.00 0.00 1786.00 463.00" xmlns="http://www.w3.org/2000/svg" xmlns:xlink="http://www.w3.org/1999/xlink">
<!-- pyspec-contract-input-sha256: 4ba177b408aff7a26d2f554410693b20f4056b274ff84ed9598d3a7f589d923b -->
<g id="graph0" class="graph" transform="scale(1 1) rotate(0) translate(18 445)">
<title>state_machine_state_machine_project_detail</title>
<!-- state_error -->
<g id="node1" class="node">
<title>state_error</title>
<polygon fill="#ffffff" stroke="transparent" points="1287.5,-79 1287.5,-161 1475.5,-161 1475.5,-79 1287.5,-79"/>
<polygon fill="#71717a" stroke="transparent" points="1288.5,-152 1288.5,-160 1474.5,-160 1474.5,-152 1288.5,-152"/>
<polygon fill="#f8fafc" stroke="transparent" points="1288.5,-121 1288.5,-152 1474.5,-152 1474.5,-121 1288.5,-121"/>
<text text-anchor="start" x="1292.5" y="-138.6" font-family="Arial" font-weight="bold" font-size="13.00">error</text>
<text text-anchor="start" x="1292.5" y="-127.6" font-family="Arial" font-size="8.00" fill="#64748b">state</text>
<text text-anchor="start" x="1292.5" y="-110" font-family="Arial" font-weight="bold" font-size="10.00">text</text>
<text text-anchor="start" x="1292.5" y="-98" font-family="Arial" font-size="10.00">text_resource.project.detail.error.heading</text>
<text text-anchor="start" x="1292.5" y="-87" font-family="Arial" font-size="10.00">text_resource.project.detail.error.body</text>
<polygon fill="none" stroke="#71717a" points="1287.5,-79 1287.5,-161 1475.5,-161 1475.5,-79 1287.5,-79"/>
</g>
<!-- state_loading -->
<g id="node2" class="node">
<title>state_loading</title>
<polygon fill="#ffffff" stroke="transparent" points="0,-47 0,-121 261,-121 261,-47 0,-47"/>
<polygon fill="#71717a" stroke="transparent" points="1.5,-112 1.5,-120 260.5,-120 260.5,-112 1.5,-112"/>
<polygon fill="#f8fafc" stroke="transparent" points="1.5,-81 1.5,-112 260.5,-112 260.5,-81 1.5,-81"/>
<text text-anchor="start" x="5.5" y="-98.6" font-family="Arial" font-weight="bold" font-size="13.00">loading</text>
<text text-anchor="start" x="5.5" y="-87.6" font-family="Arial" font-size="8.00" fill="#64748b">state</text>
<text text-anchor="start" x="6.5" y="-69" font-family="Arial" font-weight="bold" font-size="10.00">text:</text>
<text text-anchor="start" x="26.5" y="-69" font-family="Arial" font-size="10.00">  text_resource.project.detail.loading.message</text>
<text text-anchor="start" x="6.5" y="-57" font-family="Arial" font-weight="bold" font-size="10.00">query_bindings:</text>
<text text-anchor="start" x="82.5" y="-57" font-family="Arial" font-size="10.00">  read_project: query.project.read</text>
<text text-anchor="start" x="225.5" y="-57" font-family="Arial" font-size="8.00" fill="#94a3b8">  Project</text>
<polygon fill="none" stroke="#71717a" points="0,-47 0,-121 261,-121 261,-47 0,-47"/>
</g>
<!-- transition_1_loading_ready_data_refresh_signal_project_loaded -->
<g id="node6" class="node">
<title>transition_1_loading_ready_data_refresh_signal_project_loaded</title>
<polygon fill="#ffffff" stroke="transparent" points="322,-181 322,-267 560,-267 560,-181 322,-181"/>
<polygon fill="#2563eb" stroke="transparent" points="323,-258 323,-266 559,-266 559,-258 323,-258"/>
<polygon fill="#eff6ff" stroke="transparent" points="323,-227 323,-258 559,-258 559,-227 323,-227"/>
<text text-anchor="start" x="327" y="-244.6" font-family="Arial" font-weight="bold" font-size="13.00">data_refresh_signal.project_loaded</text>
<text text-anchor="start" x="327" y="-233.6" font-family="Arial" font-size="8.00" fill="#64748b">transition signal</text>
<text text-anchor="start" x="328" y="-215" font-family="Arial" font-weight="bold" font-size="10.00">input:</text>
<text text-anchor="start" x="356" y="-215" font-family="Arial" font-size="10.00">  read_project.project_id</text>
<text text-anchor="start" x="461" y="-215" font-family="Arial" font-size="8.00" fill="#94a3b8">  string</text>
<text text-anchor="start" x="328" y="-203" font-family="Arial" font-weight="bold" font-size="10.00">query_bindings:</text>
<text text-anchor="start" x="404" y="-203" font-family="Arial" font-size="10.00">  read_project</text>
<text text-anchor="start" x="328" y="-191" font-family="Arial" font-weight="bold" font-size="10.00">load:</text>
<text text-anchor="start" x="352" y="-191" font-family="Arial" font-size="10.00">  query.project.read</text>
<text text-anchor="start" x="436" y="-191" font-family="Arial" font-size="8.00" fill="#94a3b8">  Project</text>
<polygon fill="none" stroke="#2563eb" points="322,-181 322,-267 560,-267 560,-181 322,-181"/>
</g>
<!-- state_loading&#45;&gt;transition_1_loading_ready_data_refresh_signal_project_loaded -->
<g id="edge3" class="edge">
<title>state_loading&#45;&gt;transition_1_loading_ready_data_refresh_signal_project_loaded</title>
<path fill="none" stroke="#3f3f46" d="M213.36,-121.15C251.51,-138.46 297.29,-159.24 337.7,-177.57"/>
<polygon fill="#3f3f46" stroke="#3f3f46" points="336.73,-180.21 345.17,-180.97 339.05,-175.11 336.73,-180.21"/>
</g>
<!-- transition_2_loading_error_data_refresh_signal_project_load_failed -->
<g id="node7" class="node">
<title>transition_2_loading_error_data_refresh_signal_project_load_failed</title>
<polygon fill="#ffffff" stroke="transparent" points="621,-41 621,-127 886,-127 886,-41 621,-41"/>
<polygon fill="#2563eb" stroke="transparent" points="622.5,-118 622.5,-126 885.5,-126 885.5,-118 622.5,-118"/>
<polygon fill="#eff6ff" stroke="transparent" points="622.5,-87 622.5,-118 885.5,-118 885.5,-87 622.5,-87"/>
<text text-anchor="start" x="626.5" y="-104.6" font-family="Arial" font-weight="bold" font-size="13.00">data_refresh_signal.project_load_failed</text>
<text text-anchor="start" x="626.5" y="-93.6" font-family="Arial" font-size="8.00" fill="#64748b">transition signal</text>
<text text-anchor="start" x="627.5" y="-75" font-family="Arial" font-weight="bold" font-size="10.00">input:</text>
<text text-anchor="start" x="655.5" y="-75" font-family="Arial" font-size="10.00">  read_project.project_id</text>
<text text-anchor="start" x="760.5" y="-75" font-family="Arial" font-size="8.00" fill="#94a3b8">  string</text>
<text text-anchor="start" x="627.5" y="-63" font-family="Arial" font-weight="bold" font-size="10.00">query_bindings:</text>
<text text-anchor="start" x="703.5" y="-63" font-family="Arial" font-size="10.00">  read_project</text>
<text text-anchor="start" x="627.5" y="-51" font-family="Arial" font-weight="bold" font-size="10.00">load:</text>
<text text-anchor="start" x="651.5" y="-51" font-family="Arial" font-size="10.00">  query.project.read</text>
<text text-anchor="start" x="735.5" y="-51" font-family="Arial" font-size="8.00" fill="#94a3b8">  Project</text>
<polygon fill="none" stroke="#2563eb" points="621,-41 621,-127 886,-127 886,-41 621,-41"/>
</g>
<!-- state_loading&#45;&gt;transition_2_loading_error_data_refresh_signal_project_load_failed -->
<g id="edge5" class="edge">
<title>state_loading&#45;&gt;transition_2_loading_error_data_refresh_signal_project_load_failed</title>
<path fill="none" stroke="#3f3f46" d="M261.3,-84C364.14,-84 507.53,-84 612.84,-84"/>
<polygon fill="#3f3f46" stroke="#3f3f46" points="612.99,-86.8 620.99,-84 612.99,-81.2 612.99,-86.8"/>
</g>
<!-- state_none -->
<g id="node3" class="node">
<title>state_none</title>
<polygon fill="#ffffff" stroke="transparent" points="1287,-271 1287,-353 1476,-353 1476,-271 1287,-271"/>
<polygon fill="#0891b2" stroke="transparent" points="1288.5,-344 1288.5,-352 1475.5,-352 1475.5,-344 1288.5,-344"/>
<polygon fill="#ecfeff" stroke="transparent" points="1288.5,-313 1288.5,-344 1475.5,-344 1475.5,-313 1288.5,-313"/>
<text text-anchor="start" x="1292.5" y="-330.6" font-family="Arial" font-weight="bold" font-size="13.00">none</text>
<text text-anchor="start" x="1292.5" y="-319.6" font-family="Arial" font-size="8.00" fill="#64748b">initial state</text>
<text text-anchor="start" x="1292.5" y="-302" font-family="Arial" font-weight="bold" font-size="10.00">text</text>
<text text-anchor="start" x="1292.5" y="-290" font-family="Arial" font-size="10.00">text_resource.project.detail.none.heading</text>
<text text-anchor="start" x="1292.5" y="-279" font-family="Arial" font-size="10.00">text_resource.project.detail.none.body</text>
<polygon fill="none" stroke="#0891b2" points="1287,-271 1287,-353 1476,-353 1476,-271 1287,-271"/>
</g>
<!-- transition_0_none_loading_local_signal_selection_changed -->
<g id="node5" class="node">
<title>transition_0_none_loading_local_signal_selection_changed</title>
<polygon fill="#ffffff" stroke="transparent" points="1537,-52 1537,-138 1750,-138 1750,-52 1537,-52"/>
<polygon fill="#2563eb" stroke="transparent" points="1538.5,-129 1538.5,-137 1749.5,-137 1749.5,-129 1538.5,-129"/>
<polygon fill="#eff6ff" stroke="transparent" points="1538.5,-98 1538.5,-129 1749.5,-129 1749.5,-98 1538.5,-98"/>
<text text-anchor="start" x="1542.5" y="-115.6" font-family="Arial" font-weight="bold" font-size="13.00">local_signal.selection_changed</text>
<text text-anchor="start" x="1542.5" y="-104.6" font-family="Arial" font-size="8.00" fill="#64748b">transition signal</text>
<text text-anchor="start" x="1543.5" y="-86" font-family="Arial" font-weight="bold" font-size="10.00">input:</text>
<text text-anchor="start" x="1571.5" y="-86" font-family="Arial" font-size="10.00">  read_project.project_id</text>
<text text-anchor="start" x="1676.5" y="-86" font-family="Arial" font-size="8.00" fill="#94a3b8">  string</text>
<text text-anchor="start" x="1543.5" y="-74" font-family="Arial" font-weight="bold" font-size="10.00">query_bindings:</text>
<text text-anchor="start" x="1619.5" y="-74" font-family="Arial" font-size="10.00">  read_project</text>
<text text-anchor="start" x="1543.5" y="-62" font-family="Arial" font-weight="bold" font-size="10.00">load:</text>
<text text-anchor="start" x="1567.5" y="-62" font-family="Arial" font-size="10.00">  query.project.read</text>
<text text-anchor="start" x="1651.5" y="-62" font-family="Arial" font-size="8.00" fill="#94a3b8">  Project</text>
<polygon fill="none" stroke="#2563eb" points="1537,-52 1537,-138 1750,-138 1750,-52 1537,-52"/>
</g>
<!-- state_none&#45;&gt;transition_0_none_loading_local_signal_selection_changed -->
<g id="edge1" class="edge">
<title>state_none&#45;&gt;transition_0_none_loading_local_signal_selection_changed</title>
<path fill="none" stroke="#3f3f46" d="M1431.71,-270.93C1475.16,-234.67 1538.55,-181.76 1584.46,-143.44"/>
<polygon fill="#3f3f46" stroke="#3f3f46" points="1586.47,-145.41 1590.82,-138.13 1582.88,-141.11 1586.47,-145.41"/>
</g>
<!-- state_ready -->
<g id="node4" class="node">
<title>state_ready</title>
<polygon fill="#ffffff" stroke="transparent" points="622,-154.5 622,-405.5 885,-405.5 885,-154.5 622,-154.5"/>
<polygon fill="#71717a" stroke="transparent" points="623.5,-396 623.5,-404 884.5,-404 884.5,-396 623.5,-396"/>
<polygon fill="#f8fafc" stroke="transparent" points="623.5,-365 623.5,-396 884.5,-396 884.5,-365 623.5,-365"/>
<text text-anchor="start" x="627.5" y="-382.6" font-family="Arial" font-weight="bold" font-size="13.00">ready</text>
<text text-anchor="start" x="627.5" y="-371.6" font-family="Arial" font-size="8.00" fill="#64748b">state</text>
<text text-anchor="start" x="628.5" y="-353" font-family="Arial" font-weight="bold" font-size="10.00">text:</text>
<text text-anchor="start" x="648.5" y="-353" font-family="Arial" font-size="10.00">  text_resource.project.detail.ready.heading</text>
<text text-anchor="start" x="628.5" y="-341" font-family="Arial" font-weight="bold" font-size="10.00">assets:</text>
<text text-anchor="start" x="661.5" y="-341" font-family="Arial" font-size="10.00">  media_asset.project.detail.ready.priority_badge</text>
<text text-anchor="start" x="627.5" y="-321" font-family="Arial" font-weight="bold" font-size="10.00">query.project.read fields</text>
<text text-anchor="start" x="627.5" y="-310" font-family="Arial" font-size="10.00">title</text>
<text text-anchor="start" x="643.5" y="-310" font-family="Arial" font-size="8.00" fill="#94a3b8">  string</text>
<text text-anchor="start" x="627.5" y="-299" font-family="Arial" font-size="10.00">customer</text>
<text text-anchor="start" x="668.5" y="-299" font-family="Arial" font-size="8.00" fill="#94a3b8">  string</text>
<text text-anchor="start" x="627.5" y="-288" font-family="Arial" font-size="10.00">status</text>
<text text-anchor="start" x="655.5" y="-288" font-family="Arial" font-size="8.00" fill="#94a3b8">  enum&lt;draft|submitted|approved|archived&gt;</text>
<text text-anchor="start" x="627.5" y="-277" font-family="Arial" font-size="10.00">assignee</text>
<text text-anchor="start" x="667.5" y="-277" font-family="Arial" font-size="8.00" fill="#94a3b8">  string</text>
<text text-anchor="start" x="627.5" y="-266" font-family="Arial" font-size="10.00">summary</text>
<text text-anchor="start" x="668.5" y="-266" font-family="Arial" font-size="8.00" fill="#94a3b8">  string</text>
<text text-anchor="start" x="628.5" y="-246" font-family="Arial" font-weight="bold" font-size="10.00">query_bindings:</text>
<text text-anchor="start" x="704.5" y="-246" font-family="Arial" font-size="10.00">  read_project: query.project.read</text>
<text text-anchor="start" x="847.5" y="-246" font-family="Arial" font-size="8.00" fill="#94a3b8">  Project</text>
<text text-anchor="start" x="627.5" y="-226" font-family="Arial" font-weight="bold" font-size="10.00">command_bindings</text>
<text text-anchor="start" x="627.5" y="-215" font-family="Arial" font-size="10.00">approve: command.project.approve</text>
<text text-anchor="start" x="781.5" y="-215" font-family="Arial" font-size="8.00" fill="#94a3b8">  Project</text>
<text text-anchor="start" x="627.5" y="-204" font-family="Arial" font-size="10.00">archive: command.project.archive</text>
<text text-anchor="start" x="775.5" y="-204" font-family="Arial" font-size="8.00" fill="#94a3b8">  Project</text>
<text text-anchor="start" x="627.5" y="-185" font-family="Arial" font-weight="bold" font-size="10.00">access_policies</text>
<text text-anchor="start" x="627.5" y="-173" font-family="Arial" font-size="10.00">command.project.approve: access_policy.project.reviewer</text>
<text text-anchor="start" x="627.5" y="-162" font-family="Arial" font-size="10.00">command.project.archive: access_policy.project.reviewer</text>
<polygon fill="none" stroke="#71717a" points="622,-154.5 622,-405.5 885,-405.5 885,-154.5 622,-154.5"/>
</g>
<!-- transition_3_ready_none_local_signal_selection_cleared -->
<g id="node8" class="node">
<title>transition_3_ready_none_local_signal_selection_cleared</title>
<polygon fill="#ffffff" stroke="transparent" points="984,-365 984,-427 1189,-427 1189,-365 984,-365"/>
<polygon fill="#2563eb" stroke="transparent" points="985.5,-418 985.5,-426 1188.5,-426 1188.5,-418 985.5,-418"/>
<polygon fill="#eff6ff" stroke="transparent" points="985.5,-387 985.5,-418 1188.5,-418 1188.5,-387 985.5,-387"/>
<text text-anchor="start" x="989.5" y="-404.6" font-family="Arial" font-weight="bold" font-size="13.00">local_signal.selection_cleared</text>
<text text-anchor="start" x="989.5" y="-393.6" font-family="Arial" font-size="8.00" fill="#64748b">transition signal</text>
<text text-anchor="start" x="990.5" y="-375" font-family="Arial" font-weight="bold" font-size="10.00">set:</text>
<text text-anchor="start" x="1007.5" y="-375" font-family="Arial" font-size="10.00">  project_id</text>
<text text-anchor="start" x="1056.5" y="-375" font-family="Arial" font-size="8.00" fill="#94a3b8">  string | null</text>
<text text-anchor="start" x="1099.5" y="-375" font-family="Arial" font-size="8.00"> ← null</text>
<polygon fill="none" stroke="#2563eb" points="984,-365 984,-427 1189,-427 1189,-365 984,-365"/>
</g>
<!-- state_ready&#45;&gt;transition_3_ready_none_local_signal_selection_cleared -->
<g id="edge7" class="edge">
<title>state_ready&#45;&gt;transition_3_ready_none_local_signal_selection_cleared</title>
<path fill="none" stroke="#3f3f46" d="M885.17,-329.88C905.8,-337.46 926.93,-345.07 947,-352 957.07,-355.48 967.59,-359.01 978.14,-362.48"/>
<polygon fill="#3f3f46" stroke="#3f3f46" points="977.34,-365.17 985.82,-364.99 979.09,-359.84 977.34,-365.17"/>
</g>
<!-- transition_4_ready_ready_data_refresh_signal_project_changed -->
<g id="node9" class="node">
<title>transition_4_ready_ready_data_refresh_signal_project_changed</title>
<polygon fill="#ffffff" stroke="transparent" points="961.5,-222 961.5,-338 1211.5,-338 1211.5,-222 961.5,-222"/>
<polygon fill="#2563eb" stroke="transparent" points="962.5,-329 962.5,-337 1210.5,-337 1210.5,-329 962.5,-329"/>
<polygon fill="#eff6ff" stroke="transparent" points="962.5,-298 962.5,-329 1210.5,-329 1210.5,-298 962.5,-298"/>
<text text-anchor="start" x="966.5" y="-315.6" font-family="Arial" font-weight="bold" font-size="13.00">data_refresh_signal.project_changed</text>
<text text-anchor="start" x="966.5" y="-304.6" font-family="Arial" font-size="8.00" fill="#64748b">transition signal</text>
<text text-anchor="start" x="966.5" y="-287" font-family="Arial" font-style="italic" font-size="10.00" fill="#3f3f46">Detail mutations mark ready&#45;state project data</text>
<text text-anchor="start" x="966.5" y="-276" font-family="Arial" font-style="italic" font-size="10.00" fill="#3f3f46">stale and trigger query refresh.</text>
<text text-anchor="start" x="967.5" y="-256" font-family="Arial" font-weight="bold" font-size="10.00">input:</text>
<text text-anchor="start" x="995.5" y="-256" font-family="Arial" font-size="10.00">  read_project.project_id</text>
<text text-anchor="start" x="1100.5" y="-256" font-family="Arial" font-size="8.00" fill="#94a3b8">  string</text>
<text text-anchor="start" x="967.5" y="-244" font-family="Arial" font-weight="bold" font-size="10.00">query_bindings:</text>
<text text-anchor="start" x="1043.5" y="-244" font-family="Arial" font-size="10.00">  read_project</text>
<text text-anchor="start" x="967.5" y="-232" font-family="Arial" font-weight="bold" font-size="10.00">load:</text>
<text text-anchor="start" x="991.5" y="-232" font-family="Arial" font-size="10.00">  query.project.read</text>
<text text-anchor="start" x="1075.5" y="-232" font-family="Arial" font-size="8.00" fill="#94a3b8">  Project</text>
<polygon fill="none" stroke="#2563eb" points="961.5,-222 961.5,-338 1211.5,-338 1211.5,-222 961.5,-222"/>
</g>
<!-- state_ready&#45;&gt;transition_4_ready_ready_data_refresh_signal_project_changed -->
<g id="edge9" class="edge">
<title>state_ready&#45;&gt;transition_4_ready_ready_data_refresh_signal_project_changed</title>
<path fill="none" stroke="#3f3f46" d="M885.32,-270.44C907.61,-270.19 930.78,-270.19 953.11,-270.43"/>
<polygon fill="#3f3f46" stroke="#3f3f46" points="953.26,-273.23 961.3,-270.52 953.33,-267.63 953.26,-273.23"/>
</g>
<!-- transition_5_ready_error_local_signal_show_transition_not_allowed -->
<g id="node10" class="node">
<title>transition_5_ready_error_local_signal_show_transition_not_allowed</title>
<polygon fill="#ffffff" stroke="transparent" points="947,-123.5 947,-194.5 1226,-194.5 1226,-123.5 947,-123.5"/>
<polygon fill="#2563eb" stroke="transparent" points="948.5,-185 948.5,-193 1225.5,-193 1225.5,-185 948.5,-185"/>
<polygon fill="#eff6ff" stroke="transparent" points="948.5,-154 948.5,-185 1225.5,-185 1225.5,-154 948.5,-154"/>
<text text-anchor="start" x="952.5" y="-171.6" font-family="Arial" font-weight="bold" font-size="13.00">local_signal.show_transition_not_allowed</text>
<text text-anchor="start" x="952.5" y="-160.6" font-family="Arial" font-size="8.00" fill="#64748b">transition signal</text>
<text text-anchor="start" x="952.5" y="-143" font-family="Arial" font-style="italic" font-size="10.00" fill="#3f3f46">Invalid detail commands move the detail panel into</text>
<text text-anchor="start" x="952.5" y="-132" font-family="Arial" font-style="italic" font-size="10.00" fill="#3f3f46">its displayable error state.</text>
<polygon fill="none" stroke="#2563eb" points="947,-123.5 947,-194.5 1226,-194.5 1226,-123.5 947,-123.5"/>
</g>
<!-- state_ready&#45;&gt;transition_5_ready_error_local_signal_show_transition_not_allowed -->
<g id="edge11" class="edge">
<title>state_ready&#45;&gt;transition_5_ready_error_local_signal_show_transition_not_allowed</title>
<path fill="none" stroke="#3f3f46" d="M885.19,-231.66C905.86,-224.05 927.01,-216.3 947,-209 957.44,-205.19 968.33,-201.23 979.21,-197.29"/>
<polygon fill="#3f3f46" stroke="#3f3f46" points="980.17,-199.92 986.74,-194.56 978.26,-194.65 980.17,-199.92"/>
</g>
<!-- transition_0_none_loading_local_signal_selection_changed&#45;&gt;state_loading -->
<g id="edge2" class="edge">
<title>transition_0_none_loading_local_signal_selection_changed&#45;&gt;state_loading</title>
<path fill="none" stroke="#3f3f46" d="M1536.76,-65.92C1425.77,-37.98 1245.74,0 1087.5,0 752.5,0 752.5,0 752.5,0 585.1,0 394.58,-30.35 269.22,-54.56"/>
<polygon fill="#3f3f46" stroke="#3f3f46" points="268.37,-51.87 261.05,-56.15 269.44,-57.37 268.37,-51.87"/>
</g>
<!-- transition_1_loading_ready_data_refresh_signal_project_loaded&#45;&gt;state_ready -->
<g id="edge4" class="edge">
<title>transition_1_loading_ready_data_refresh_signal_project_loaded&#45;&gt;state_ready</title>
<path fill="none" stroke="#3f3f46" d="M560.27,-245.33C577.74,-248.48 595.86,-251.75 613.69,-254.97"/>
<polygon fill="#3f3f46" stroke="#3f3f46" points="613.49,-257.77 621.86,-256.44 614.49,-252.26 613.49,-257.77"/>
</g>
<!-- transition_2_loading_error_data_refresh_signal_project_load_failed&#45;&gt;state_error -->
<g id="edge6" class="edge">
<title>transition_2_loading_error_data_refresh_signal_project_load_failed&#45;&gt;state_error</title>
<path fill="none" stroke="#3f3f46" d="M886.12,-90.92C980.69,-95.98 1111.23,-103.12 1226,-110 1243.22,-111.03 1261.51,-112.17 1279.26,-113.31"/>
<polygon fill="#3f3f46" stroke="#3f3f46" points="1279.21,-116.11 1287.37,-113.83 1279.57,-110.52 1279.21,-116.11"/>
</g>
<!-- transition_3_ready_none_local_signal_selection_cleared&#45;&gt;state_none -->
<g id="edge8" class="edge">
<title>transition_3_ready_none_local_signal_selection_cleared&#45;&gt;state_none</title>
<path fill="none" stroke="#3f3f46" d="M1189.15,-366.86C1218.29,-358.5 1250.04,-349.4 1279.15,-341.06"/>
<polygon fill="#3f3f46" stroke="#3f3f46" points="1279.97,-343.73 1286.89,-338.84 1278.42,-338.35 1279.97,-343.73"/>
</g>
<!-- transition_4_ready_ready_data_refresh_signal_project_changed&#45;&gt;state_ready -->
<g id="edge10" class="edge">
<title>transition_4_ready_ready_data_refresh_signal_project_changed&#45;&gt;state_ready</title>
<path fill="none" stroke="#3f3f46" d="M961.3,-290.2C939.2,-290.53 916.05,-290.59 893.57,-290.38"/>
<polygon fill="#3f3f46" stroke="#3f3f46" points="893.35,-287.58 885.32,-290.29 893.29,-293.18 893.35,-287.58"/>
</g>
<!-- transition_5_ready_error_local_signal_show_transition_not_allowed&#45;&gt;state_error -->
<g id="edge12" class="edge">
<title>transition_5_ready_error_local_signal_show_transition_not_allowed&#45;&gt;state_error</title>
<path fill="none" stroke="#3f3f46" d="M1226.28,-140.53C1244.07,-138.16 1262.02,-135.77 1279.07,-133.5"/>
<polygon fill="#3f3f46" stroke="#3f3f46" points="1279.8,-136.23 1287.36,-132.4 1279.06,-130.68 1279.8,-136.23"/>
</g>
</g>
</svg>
