<svg width="1729pt" height="527pt"
 viewBox="0.00 0.00 1729.00 527.00" xmlns="http://www.w3.org/2000/svg" xmlns:xlink="http://www.w3.org/1999/xlink">
<!-- pyspec-contract-input-sha256: 4721f7a36a955bad551341342fd199e8c78fc854dff36992af8e857b28a0f707 -->
<g id="graph0" class="graph" transform="scale(1 1) rotate(0) translate(18 509)">
<title>state_machine_state_machine_project_detail</title>
<!-- view_state_error -->
<g id="node1" class="node">
<title>view_state_error</title>
<polygon fill="#ffffff" stroke="transparent" points="1266.5,-98 1266.5,-180 1411.5,-180 1411.5,-98 1266.5,-98"/>
<polygon fill="#71717a" stroke="transparent" points="1268,-171 1268,-179 1411,-179 1411,-171 1268,-171"/>
<polygon fill="#f8fafc" stroke="transparent" points="1268,-140 1268,-171 1411,-171 1411,-140 1268,-140"/>
<text text-anchor="start" x="1272" y="-157.6" font-family="Arial" font-weight="bold" font-size="13.00">error</text>
<text text-anchor="start" x="1272" y="-146.6" font-family="Arial" font-size="8.00" fill="#64748b">view state</text>
<text text-anchor="start" x="1272" y="-129" font-family="Arial" font-weight="bold" font-size="10.00">text</text>
<text text-anchor="start" x="1272" y="-117" font-family="Arial" font-size="10.00">text.project.detail.error.heading</text>
<text text-anchor="start" x="1272" y="-106" font-family="Arial" font-size="10.00">text.project.detail.error.body</text>
<polygon fill="none" stroke="#71717a" points="1266.5,-98 1266.5,-180 1411.5,-180 1411.5,-98 1266.5,-98"/>
</g>
<!-- view_state_loading -->
<g id="node2" class="node">
<title>view_state_loading</title>
<polygon fill="#ffffff" stroke="transparent" points="0,-47 0,-151 291,-151 291,-47 0,-47"/>
<polygon fill="#71717a" stroke="transparent" points="1.5,-142 1.5,-150 290.5,-150 290.5,-142 1.5,-142"/>
<polygon fill="#f8fafc" stroke="transparent" points="1.5,-111 1.5,-142 290.5,-142 290.5,-111 1.5,-111"/>
<text text-anchor="start" x="5.5" y="-128.6" font-family="Arial" font-weight="bold" font-size="13.00">loading</text>
<text text-anchor="start" x="5.5" y="-117.6" font-family="Arial" font-size="8.00" fill="#64748b">view state</text>
<text text-anchor="start" x="6.5" y="-99" font-family="Arial" font-weight="bold" font-size="10.00">text:</text>
<text text-anchor="start" x="26.5" y="-99" font-family="Arial" font-size="10.00">  text.project.detail.loading.message</text>
<text text-anchor="start" x="6.5" y="-87" font-family="Arial" font-weight="bold" font-size="10.00">query_invocations:</text>
<text text-anchor="start" x="95.5" y="-87" font-family="Arial" font-size="10.00">  read_project: operation.project.read</text>
<text text-anchor="start" x="255.5" y="-87" font-family="Arial" font-size="8.00" fill="#94a3b8">  Project</text>
<text text-anchor="start" x="5.5" y="-67" font-family="Arial" font-weight="bold" font-size="10.00">authorization_policies:</text>
<text text-anchor="start" x="112.5" y="-67" font-family="Arial" font-size="10.00">  operation.project.read:</text>
<text text-anchor="start" x="5.5" y="-55" font-family="Arial" font-size="10.00">  authorization_policy.project.member</text>
<polygon fill="none" stroke="#71717a" points="0,-47 0,-151 291,-151 291,-47 0,-47"/>
</g>
<!-- transition_1_loading_ready_data_signal_project_loaded -->
<g id="node6" class="node">
<title>transition_1_loading_ready_data_signal_project_loaded</title>
<polygon fill="#ffffff" stroke="transparent" points="352,-207 352,-323 572,-323 572,-207 352,-207"/>
<polygon fill="#2563eb" stroke="transparent" points="353,-314 353,-322 571,-322 571,-314 353,-314"/>
<polygon fill="#eff6ff" stroke="transparent" points="353,-283 353,-314 571,-314 571,-283 353,-283"/>
<text text-anchor="start" x="357" y="-300.6" font-family="Arial" font-weight="bold" font-size="13.00">data_signal.project_loaded</text>
<text text-anchor="start" x="357" y="-289.6" font-family="Arial" font-size="8.00" fill="#64748b">transition signal</text>
<text text-anchor="start" x="358" y="-271" font-family="Arial" font-weight="bold" font-size="10.00">input:</text>
<text text-anchor="start" x="386" y="-271" font-family="Arial" font-size="10.00">  read_project.project_id</text>
<text text-anchor="start" x="491" y="-271" font-family="Arial" font-size="8.00" fill="#94a3b8">  ID</text>
<text text-anchor="start" x="358" y="-259" font-family="Arial" font-weight="bold" font-size="10.00">query_invocations:</text>
<text text-anchor="start" x="447" y="-259" font-family="Arial" font-size="10.00">  read_project</text>
<text text-anchor="start" x="358" y="-247" font-family="Arial" font-weight="bold" font-size="10.00">load:</text>
<text text-anchor="start" x="382" y="-247" font-family="Arial" font-size="10.00">  operation.project.read</text>
<text text-anchor="start" x="482" y="-247" font-family="Arial" font-size="8.00" fill="#94a3b8">  Project</text>
<text text-anchor="start" x="357" y="-227" font-family="Arial" font-weight="bold" font-size="10.00">authorization_policies:</text>
<text text-anchor="start" x="464" y="-227" font-family="Arial" font-size="10.00">  operation.project.read:</text>
<text text-anchor="start" x="357" y="-215" font-family="Arial" font-size="10.00">  authorization_policy.project.member</text>
<polygon fill="none" stroke="#2563eb" points="352,-207 352,-323 572,-323 572,-207 352,-207"/>
</g>
<!-- view_state_loading&#45;&gt;transition_1_loading_ready_data_signal_project_loaded -->
<g id="edge3" class="edge">
<title>view_state_loading&#45;&gt;transition_1_loading_ready_data_signal_project_loaded</title>
<path fill="none" stroke="#3f3f46" d="M245.15,-151.07C276.63,-167.69 311.78,-186.24 344.41,-203.46"/>
<polygon fill="#3f3f46" stroke="#3f3f46" points="343.39,-206.09 351.77,-207.35 346,-201.13 343.39,-206.09"/>
</g>
<!-- transition_2_loading_error_data_signal_project_load_failed -->
<g id="node7" class="node">
<title>transition_2_loading_error_data_signal_project_load_failed</title>
<polygon fill="#ffffff" stroke="transparent" points="668.5,-41 668.5,-157 888.5,-157 888.5,-41 668.5,-41"/>
<polygon fill="#2563eb" stroke="transparent" points="669.5,-148 669.5,-156 887.5,-156 887.5,-148 669.5,-148"/>
<polygon fill="#eff6ff" stroke="transparent" points="669.5,-117 669.5,-148 887.5,-148 887.5,-117 669.5,-117"/>
<text text-anchor="start" x="673.5" y="-134.6" font-family="Arial" font-weight="bold" font-size="13.00">data_signal.project_load_failed</text>
<text text-anchor="start" x="673.5" y="-123.6" font-family="Arial" font-size="8.00" fill="#64748b">transition signal</text>
<text text-anchor="start" x="674.5" y="-105" font-family="Arial" font-weight="bold" font-size="10.00">input:</text>
<text text-anchor="start" x="702.5" y="-105" font-family="Arial" font-size="10.00">  read_project.project_id</text>
<text text-anchor="start" x="807.5" y="-105" font-family="Arial" font-size="8.00" fill="#94a3b8">  ID</text>
<text text-anchor="start" x="674.5" y="-93" font-family="Arial" font-weight="bold" font-size="10.00">query_invocations:</text>
<text text-anchor="start" x="763.5" y="-93" font-family="Arial" font-size="10.00">  read_project</text>
<text text-anchor="start" x="674.5" y="-81" font-family="Arial" font-weight="bold" font-size="10.00">load:</text>
<text text-anchor="start" x="698.5" y="-81" font-family="Arial" font-size="10.00">  operation.project.read</text>
<text text-anchor="start" x="798.5" y="-81" font-family="Arial" font-size="8.00" fill="#94a3b8">  Project</text>
<text text-anchor="start" x="673.5" y="-61" font-family="Arial" font-weight="bold" font-size="10.00">authorization_policies:</text>
<text text-anchor="start" x="780.5" y="-61" font-family="Arial" font-size="10.00">  operation.project.read:</text>
<text text-anchor="start" x="673.5" y="-49" font-family="Arial" font-size="10.00">  authorization_policy.project.member</text>
<polygon fill="none" stroke="#2563eb" points="668.5,-41 668.5,-157 888.5,-157 888.5,-41 668.5,-41"/>
</g>
<!-- view_state_loading&#45;&gt;transition_2_loading_error_data_signal_project_load_failed -->
<g id="edge5" class="edge">
<title>view_state_loading&#45;&gt;transition_2_loading_error_data_signal_project_load_failed</title>
<path fill="none" stroke="#3f3f46" d="M291.26,-99C403.15,-99 556.02,-99 660.29,-99"/>
<polygon fill="#3f3f46" stroke="#3f3f46" points="660.34,-101.8 668.34,-99 660.34,-96.2 660.34,-101.8"/>
</g>
<!-- view_state_none -->
<g id="node3" class="node">
<title>view_state_none</title>
<polygon fill="#ffffff" stroke="transparent" points="1266,-324 1266,-406 1412,-406 1412,-324 1266,-324"/>
<polygon fill="#0891b2" stroke="transparent" points="1267,-397 1267,-405 1411,-405 1411,-397 1267,-397"/>
<polygon fill="#ecfeff" stroke="transparent" points="1267,-366 1267,-397 1411,-397 1411,-366 1267,-366"/>
<text text-anchor="start" x="1271" y="-383.6" font-family="Arial" font-weight="bold" font-size="13.00">none</text>
<text text-anchor="start" x="1271" y="-372.6" font-family="Arial" font-size="8.00" fill="#64748b">initial view state</text>
<text text-anchor="start" x="1271" y="-355" font-family="Arial" font-weight="bold" font-size="10.00">text</text>
<text text-anchor="start" x="1271" y="-343" font-family="Arial" font-size="10.00">text.project.detail.none.heading</text>
<text text-anchor="start" x="1271" y="-332" font-family="Arial" font-size="10.00">text.project.detail.none.body</text>
<polygon fill="none" stroke="#0891b2" points="1266,-324 1266,-406 1412,-406 1412,-324 1266,-324"/>
</g>
<!-- transition_0_none_loading_message_selection_changed -->
<g id="node5" class="node">
<title>transition_0_none_loading_message_selection_changed</title>
<polygon fill="#ffffff" stroke="transparent" points="1473,-46 1473,-162 1693,-162 1693,-46 1473,-46"/>
<polygon fill="#2563eb" stroke="transparent" points="1474,-153 1474,-161 1692,-161 1692,-153 1474,-153"/>
<polygon fill="#eff6ff" stroke="transparent" points="1474,-122 1474,-153 1692,-153 1692,-122 1474,-122"/>
<text text-anchor="start" x="1478" y="-139.6" font-family="Arial" font-weight="bold" font-size="13.00">message.selection_changed</text>
<text text-anchor="start" x="1478" y="-128.6" font-family="Arial" font-size="8.00" fill="#64748b">transition signal</text>
<text text-anchor="start" x="1479" y="-110" font-family="Arial" font-weight="bold" font-size="10.00">input:</text>
<text text-anchor="start" x="1507" y="-110" font-family="Arial" font-size="10.00">  read_project.project_id</text>
<text text-anchor="start" x="1612" y="-110" font-family="Arial" font-size="8.00" fill="#94a3b8">  ID</text>
<text text-anchor="start" x="1479" y="-98" font-family="Arial" font-weight="bold" font-size="10.00">query_invocations:</text>
<text text-anchor="start" x="1568" y="-98" font-family="Arial" font-size="10.00">  read_project</text>
<text text-anchor="start" x="1479" y="-86" font-family="Arial" font-weight="bold" font-size="10.00">load:</text>
<text text-anchor="start" x="1503" y="-86" font-family="Arial" font-size="10.00">  operation.project.read</text>
<text text-anchor="start" x="1603" y="-86" font-family="Arial" font-size="8.00" fill="#94a3b8">  Project</text>
<text text-anchor="start" x="1478" y="-66" font-family="Arial" font-weight="bold" font-size="10.00">authorization_policies:</text>
<text text-anchor="start" x="1585" y="-66" font-family="Arial" font-size="10.00">  operation.project.read:</text>
<text text-anchor="start" x="1478" y="-54" font-family="Arial" font-size="10.00">  authorization_policy.project.member</text>
<polygon fill="none" stroke="#2563eb" points="1473,-46 1473,-162 1693,-162 1693,-46 1473,-46"/>
</g>
<!-- view_state_none&#45;&gt;transition_0_none_loading_message_selection_changed -->
<g id="edge1" class="edge">
<title>view_state_none&#45;&gt;transition_0_none_loading_message_selection_changed</title>
<path fill="none" stroke="#3f3f46" d="M1378.08,-323.93C1416.76,-282.22 1477.21,-217.01 1522.27,-168.42"/>
<polygon fill="#3f3f46" stroke="#3f3f46" points="1524.58,-170.05 1527.96,-162.28 1520.47,-166.24 1524.58,-170.05"/>
</g>
<!-- view_state_ready -->
<g id="node4" class="node">
<title>view_state_ready</title>
<polygon fill="#ffffff" stroke="transparent" points="633,-184.5 633,-479.5 924,-479.5 924,-184.5 633,-184.5"/>
<polygon fill="#71717a" stroke="transparent" points="634.5,-470 634.5,-478 923.5,-478 923.5,-470 634.5,-470"/>
<polygon fill="#f8fafc" stroke="transparent" points="634.5,-439 634.5,-470 923.5,-470 923.5,-439 634.5,-439"/>
<text text-anchor="start" x="638.5" y="-456.6" font-family="Arial" font-weight="bold" font-size="13.00">ready</text>
<text text-anchor="start" x="638.5" y="-445.6" font-family="Arial" font-size="8.00" fill="#64748b">view state</text>
<text text-anchor="start" x="639.5" y="-427" font-family="Arial" font-weight="bold" font-size="10.00">text:</text>
<text text-anchor="start" x="659.5" y="-427" font-family="Arial" font-size="10.00">  text.project.detail.ready.heading</text>
<text text-anchor="start" x="639.5" y="-415" font-family="Arial" font-weight="bold" font-size="10.00">assets:</text>
<text text-anchor="start" x="672.5" y="-415" font-family="Arial" font-size="10.00">  asset.project.detail.ready.priority_badge</text>
<text text-anchor="start" x="638.5" y="-395" font-family="Arial" font-weight="bold" font-size="10.00">operation.project.read fields</text>
<text text-anchor="start" x="638.5" y="-384" font-family="Arial" font-size="10.00">title</text>
<text text-anchor="start" x="654.5" y="-384" font-family="Arial" font-size="8.00" fill="#94a3b8">  Text</text>
<text text-anchor="start" x="638.5" y="-373" font-family="Arial" font-size="10.00">customer</text>
<text text-anchor="start" x="679.5" y="-373" font-family="Arial" font-size="8.00" fill="#94a3b8">  Text</text>
<text text-anchor="start" x="638.5" y="-362" font-family="Arial" font-size="10.00">status</text>
<text text-anchor="start" x="666.5" y="-362" font-family="Arial" font-size="8.00" fill="#94a3b8">  enum&lt;draft|submitted|approved|archived&gt;</text>
<text text-anchor="start" x="638.5" y="-351" font-family="Arial" font-size="10.00">assignee</text>
<text text-anchor="start" x="678.5" y="-351" font-family="Arial" font-size="8.00" fill="#94a3b8">  Text</text>
<text text-anchor="start" x="638.5" y="-340" font-family="Arial" font-size="10.00">summary</text>
<text text-anchor="start" x="679.5" y="-340" font-family="Arial" font-size="8.00" fill="#94a3b8">  Text</text>
<text text-anchor="start" x="639.5" y="-320" font-family="Arial" font-weight="bold" font-size="10.00">query_invocations:</text>
<text text-anchor="start" x="728.5" y="-320" font-family="Arial" font-size="10.00">  read_project: operation.project.read</text>
<text text-anchor="start" x="888.5" y="-320" font-family="Arial" font-size="8.00" fill="#94a3b8">  Project</text>
<text text-anchor="start" x="638.5" y="-300" font-family="Arial" font-weight="bold" font-size="10.00">operation_invocations</text>
<text text-anchor="start" x="638.5" y="-289" font-family="Arial" font-size="10.00">approve: operation.project.approve</text>
<text text-anchor="start" x="789.5" y="-289" font-family="Arial" font-size="8.00" fill="#94a3b8">  Project</text>
<text text-anchor="start" x="638.5" y="-278" font-family="Arial" font-size="10.00">archive: operation.project.archive</text>
<text text-anchor="start" x="783.5" y="-278" font-family="Arial" font-size="8.00" fill="#94a3b8">  Project</text>
<text text-anchor="start" x="638.5" y="-259" font-family="Arial" font-weight="bold" font-size="10.00">authorization_policies</text>
<text text-anchor="start" x="638.5" y="-247" font-family="Arial" font-size="10.00">operation.project.read:</text>
<text text-anchor="start" x="638.5" y="-236" font-family="Arial" font-size="10.00">authorization_policy.project.member</text>
<text text-anchor="start" x="638.5" y="-225" font-family="Arial" font-size="10.00">operation.project.approve:</text>
<text text-anchor="start" x="638.5" y="-214" font-family="Arial" font-size="10.00">authorization_policy.project.reviewer</text>
<text text-anchor="start" x="638.5" y="-203" font-family="Arial" font-size="10.00">operation.project.archive:</text>
<text text-anchor="start" x="638.5" y="-192" font-family="Arial" font-size="10.00">authorization_policy.project.reviewer</text>
<polygon fill="none" stroke="#71717a" points="633,-184.5 633,-479.5 924,-479.5 924,-184.5 633,-184.5"/>
</g>
<!-- transition_3_ready_none_message_selection_cleared -->
<g id="node8" class="node">
<title>transition_3_ready_none_message_selection_cleared</title>
<polygon fill="#ffffff" stroke="transparent" points="1002.5,-429 1002.5,-491 1187.5,-491 1187.5,-429 1002.5,-429"/>
<polygon fill="#2563eb" stroke="transparent" points="1004,-482 1004,-490 1187,-490 1187,-482 1004,-482"/>
<polygon fill="#eff6ff" stroke="transparent" points="1004,-451 1004,-482 1187,-482 1187,-451 1004,-451"/>
<text text-anchor="start" x="1008" y="-468.6" font-family="Arial" font-weight="bold" font-size="13.00">message.selection_cleared</text>
<text text-anchor="start" x="1008" y="-457.6" font-family="Arial" font-size="8.00" fill="#64748b">transition signal</text>
<text text-anchor="start" x="1009" y="-439" font-family="Arial" font-weight="bold" font-size="10.00">set:</text>
<text text-anchor="start" x="1026" y="-439" font-family="Arial" font-size="10.00">  project_id</text>
<text text-anchor="start" x="1075" y="-439" font-family="Arial" font-size="8.00" fill="#94a3b8">  nullable&lt;ID&gt;</text>
<text text-anchor="start" x="1124" y="-439" font-family="Arial" font-size="8.00"> ← null</text>
<polygon fill="none" stroke="#2563eb" points="1002.5,-429 1002.5,-491 1187.5,-491 1187.5,-429 1002.5,-429"/>
</g>
<!-- view_state_ready&#45;&gt;transition_3_ready_none_message_selection_cleared -->
<g id="edge7" class="edge">
<title>view_state_ready&#45;&gt;transition_3_ready_none_message_selection_cleared</title>
<path fill="none" stroke="#3f3f46" d="M924.02,-391.17C944.49,-399.52 965.27,-407.99 985,-416 992.89,-419.2 1001.1,-422.53 1009.32,-425.86"/>
<polygon fill="#3f3f46" stroke="#3f3f46" points="1008.4,-428.51 1016.87,-428.91 1010.5,-423.32 1008.4,-428.51"/>
</g>
<!-- transition_4_ready_ready_data_signal_project_loaded -->
<g id="node9" class="node">
<title>transition_4_ready_ready_data_signal_project_loaded</title>
<polygon fill="#ffffff" stroke="transparent" points="985,-256 985,-402 1205,-402 1205,-256 985,-256"/>
<polygon fill="#2563eb" stroke="transparent" points="986,-393 986,-401 1204,-401 1204,-393 986,-393"/>
<polygon fill="#eff6ff" stroke="transparent" points="986,-362 986,-393 1204,-393 1204,-362 986,-362"/>
<text text-anchor="start" x="990" y="-379.6" font-family="Arial" font-weight="bold" font-size="13.00">data_signal.project_loaded</text>
<text text-anchor="start" x="990" y="-368.6" font-family="Arial" font-size="8.00" fill="#64748b">transition signal</text>
<text text-anchor="start" x="990" y="-351" font-family="Arial" font-style="italic" font-size="10.00" fill="#3f3f46">Successful detail operations refresh the</text>
<text text-anchor="start" x="990" y="-340" font-family="Arial" font-style="italic" font-size="10.00" fill="#3f3f46">ready&#45;state project data.</text>
<text text-anchor="start" x="991" y="-320" font-family="Arial" font-weight="bold" font-size="10.00">input:</text>
<text text-anchor="start" x="1019" y="-320" font-family="Arial" font-size="10.00">  read_project.project_id</text>
<text text-anchor="start" x="1124" y="-320" font-family="Arial" font-size="8.00" fill="#94a3b8">  ID</text>
<text text-anchor="start" x="991" y="-308" font-family="Arial" font-weight="bold" font-size="10.00">query_invocations:</text>
<text text-anchor="start" x="1080" y="-308" font-family="Arial" font-size="10.00">  read_project</text>
<text text-anchor="start" x="991" y="-296" font-family="Arial" font-weight="bold" font-size="10.00">load:</text>
<text text-anchor="start" x="1015" y="-296" font-family="Arial" font-size="10.00">  operation.project.read</text>
<text text-anchor="start" x="1115" y="-296" font-family="Arial" font-size="8.00" fill="#94a3b8">  Project</text>
<text text-anchor="start" x="990" y="-276" font-family="Arial" font-weight="bold" font-size="10.00">authorization_policies:</text>
<text text-anchor="start" x="1097" y="-276" font-family="Arial" font-size="10.00">  operation.project.read:</text>
<text text-anchor="start" x="990" y="-264" font-family="Arial" font-size="10.00">  authorization_policy.project.member</text>
<polygon fill="none" stroke="#2563eb" points="985,-256 985,-402 1205,-402 1205,-256 985,-256"/>
</g>
<!-- view_state_ready&#45;&gt;transition_4_ready_ready_data_signal_project_loaded -->
<g id="edge9" class="edge">
<title>view_state_ready&#45;&gt;transition_4_ready_ready_data_signal_project_loaded</title>
<path fill="none" stroke="#3f3f46" d="M924.32,-320.9C941.78,-320.65 959.44,-320.57 976.44,-320.65"/>
<polygon fill="#3f3f46" stroke="#3f3f46" points="976.71,-323.45 984.73,-320.71 976.75,-317.85 976.71,-323.45"/>
</g>
<!-- transition_5_ready_error_message_show_invalid_state -->
<g id="node10" class="node">
<title>transition_5_ready_error_message_show_invalid_state</title>
<polygon fill="#ffffff" stroke="transparent" points="990.5,-152.5 990.5,-223.5 1199.5,-223.5 1199.5,-152.5 990.5,-152.5"/>
<polygon fill="#2563eb" stroke="transparent" points="992,-214 992,-222 1199,-222 1199,-214 992,-214"/>
<polygon fill="#eff6ff" stroke="transparent" points="992,-183 992,-214 1199,-214 1199,-183 992,-183"/>
<text text-anchor="start" x="996" y="-200.6" font-family="Arial" font-weight="bold" font-size="13.00">message.show_invalid_state</text>
<text text-anchor="start" x="996" y="-189.6" font-family="Arial" font-size="8.00" fill="#64748b">transition signal</text>
<text text-anchor="start" x="996" y="-172" font-family="Arial" font-style="italic" font-size="10.00" fill="#3f3f46">Invalid detail operations move the detail panel</text>
<text text-anchor="start" x="996" y="-161" font-family="Arial" font-style="italic" font-size="10.00" fill="#3f3f46">into its displayable error state.</text>
<polygon fill="none" stroke="#2563eb" points="990.5,-152.5 990.5,-223.5 1199.5,-223.5 1199.5,-152.5 990.5,-152.5"/>
</g>
<!-- view_state_ready&#45;&gt;transition_5_ready_error_message_show_invalid_state -->
<g id="edge11" class="edge">
<title>view_state_ready&#45;&gt;transition_5_ready_error_message_show_invalid_state</title>
<path fill="none" stroke="#3f3f46" d="M924.32,-265.69C953.35,-252.4 982.95,-238.85 1009.13,-226.86"/>
<polygon fill="#3f3f46" stroke="#3f3f46" points="1010.31,-229.4 1016.42,-223.52 1007.98,-224.31 1010.31,-229.4"/>
</g>
<!-- transition_0_none_loading_message_selection_changed&#45;&gt;view_state_loading -->
<g id="edge2" class="edge">
<title>transition_0_none_loading_message_selection_changed&#45;&gt;view_state_loading</title>
<path fill="none" stroke="#3f3f46" d="M1472.92,-66.89C1375.34,-37.03 1227.8,0 1096,0 777.5,0 777.5,0 777.5,0 612.54,0 426.23,-33.43 299.08,-61.44"/>
<polygon fill="#3f3f46" stroke="#3f3f46" points="298.37,-58.72 291.17,-63.19 299.58,-64.19 298.37,-58.72"/>
</g>
<!-- transition_1_loading_ready_data_signal_project_loaded&#45;&gt;view_state_ready -->
<g id="edge4" class="edge">
<title>transition_1_loading_ready_data_signal_project_loaded&#45;&gt;view_state_ready</title>
<path fill="none" stroke="#3f3f46" d="M572.11,-288.25C589.11,-291.87 606.95,-295.67 624.7,-299.45"/>
<polygon fill="#3f3f46" stroke="#3f3f46" points="624.44,-302.26 632.85,-301.18 625.61,-296.78 624.44,-302.26"/>
</g>
<!-- transition_2_loading_error_data_signal_project_load_failed&#45;&gt;view_state_error -->
<g id="edge6" class="edge">
<title>transition_2_loading_error_data_signal_project_load_failed&#45;&gt;view_state_error</title>
<path fill="none" stroke="#3f3f46" d="M888.51,-106.81C997.2,-114.59 1161.52,-126.36 1258.47,-133.3"/>
<polygon fill="#3f3f46" stroke="#3f3f46" points="1258.31,-136.1 1266.49,-133.88 1258.71,-130.51 1258.31,-136.1"/>
</g>
<!-- transition_3_ready_none_message_selection_cleared&#45;&gt;view_state_none -->
<g id="edge8" class="edge">
<title>transition_3_ready_none_message_selection_cleared&#45;&gt;view_state_none</title>
<path fill="none" stroke="#3f3f46" d="M1175.24,-428.89C1201.95,-418.41 1231.76,-406.71 1258.49,-396.21"/>
<polygon fill="#3f3f46" stroke="#3f3f46" points="1259.52,-398.82 1265.94,-393.29 1257.48,-393.6 1259.52,-398.82"/>
</g>
<!-- transition_4_ready_ready_data_signal_project_loaded&#45;&gt;view_state_ready -->
<g id="edge10" class="edge">
<title>transition_4_ready_ready_data_signal_project_loaded&#45;&gt;view_state_ready</title>
<path fill="none" stroke="#3f3f46" d="M984.73,-340.1C967.82,-340.58 950.09,-340.9 932.43,-341.04"/>
<polygon fill="#3f3f46" stroke="#3f3f46" points="932.3,-338.24 924.32,-341.09 932.34,-343.84 932.3,-338.24"/>
</g>
<!-- transition_5_ready_error_message_show_invalid_state&#45;&gt;view_state_error -->
<g id="edge12" class="edge">
<title>transition_5_ready_error_message_show_invalid_state&#45;&gt;view_state_error</title>
<path fill="none" stroke="#3f3f46" d="M1199.68,-167.01C1219.33,-163.03 1239.59,-158.93 1258.35,-155.13"/>
<polygon fill="#3f3f46" stroke="#3f3f46" points="1259.01,-157.85 1266.29,-153.52 1257.9,-152.36 1259.01,-157.85"/>
</g>
</g>
</svg>
