<svg width="1144pt" height="273pt"
 viewBox="0.00 0.00 1144.00 273.00" xmlns="http://www.w3.org/2000/svg" xmlns:xlink="http://www.w3.org/1999/xlink">
<!-- pyspec-contract-input-sha256: f5e61770630899459a6a3751bba17ca254dd380727e4c05af8e5698e8f2d6e14 -->
<g id="graph0" class="graph" transform="scale(1 1) rotate(0) translate(18 255)">
<title>entrypoint_entry_point_api_project_create</title>
<!-- entry_start -->
<g id="node1" class="node">
<title>entry_start</title>
<ellipse fill="none" stroke="#0891b2" cx="21" cy="-118.5" rx="21" ry="21"/>
<text text-anchor="middle" x="21" y="-116.3" font-family="Arial" font-size="9.00" fill="#155e75">entry</text>
</g>
<!-- entrypoint_entry_point_api_project_create -->
<g id="node2" class="node">
<title>entrypoint_entry_point_api_project_create</title>
<polygon fill="#ffffff" stroke="transparent" points="103,-78 103,-159 393,-159 393,-78 103,-78"/>
<polygon fill="#0891b2" stroke="transparent" points="104,-149.5 104,-157.5 392,-157.5 392,-149.5 104,-149.5"/>
<polygon fill="#ecfeff" stroke="transparent" points="104,-118.5 104,-149.5 392,-149.5 392,-118.5 104,-118.5"/>
<text text-anchor="start" x="108" y="-136.1" font-family="Arial" font-weight="bold" font-size="13.00">POST /workspaces/{workspace_id}/projects</text>
<text text-anchor="start" x="108" y="-125.1" font-family="Arial" font-size="8.00" fill="#64748b">api entry</text>
<text text-anchor="start" x="108" y="-107.5" font-family="Arial" font-style="italic" font-size="10.00" fill="#3f3f46">HTTP endpoint for creating a dispatch project.</text>
<text text-anchor="start" x="109" y="-87.5" font-family="Arial" font-weight="bold" font-size="10.00">endpoint:</text>
<text text-anchor="start" x="154" y="-87.5" font-family="Arial" font-size="10.00">  endpoint.project.create</text>
<polygon fill="none" stroke="#0891b2" points="103,-78 103,-159 393,-159 393,-78 103,-78"/>
</g>
<!-- entry_start&#45;&gt;entrypoint_entry_point_api_project_create -->
<g id="edge1" class="edge">
<title>entry_start&#45;&gt;entrypoint_entry_point_api_project_create</title>
<path fill="none" stroke="#3f3f46" d="M42.36,-118.5C55.6,-118.5 74.2,-118.5 94.84,-118.5"/>
<polygon fill="#3f3f46" stroke="#3f3f46" points="94.85,-121.3 102.85,-118.5 94.85,-115.7 94.85,-121.3"/>
</g>
<!-- entrypoint_input_entry_point_api_project_create -->
<g id="node3" class="node">
<title>entrypoint_input_entry_point_api_project_create</title>
<polygon fill="#ffffff" stroke="transparent" points="454,-57 454,-180 538,-180 538,-57 454,-57"/>
<polygon fill="#64748b" stroke="transparent" points="455,-170.5 455,-178.5 537,-178.5 537,-170.5 455,-170.5"/>
<polygon fill="#f8fafc" stroke="transparent" points="455,-139.5 455,-170.5 537,-170.5 537,-139.5 455,-139.5"/>
<text text-anchor="start" x="459" y="-157.1" font-family="Arial" font-weight="bold" font-size="13.00">request</text>
<text text-anchor="start" x="459" y="-146.1" font-family="Arial" font-size="8.00" fill="#64748b">external data</text>
<text text-anchor="start" x="459" y="-128.5" font-family="Arial" font-weight="bold" font-size="10.00">params</text>
<text text-anchor="start" x="459" y="-117.5" font-family="Arial" font-size="10.00">workspace_id</text>
<text text-anchor="start" x="520" y="-117.5" font-family="Arial" font-size="8.00" fill="#94a3b8">  ID</text>
<text text-anchor="start" x="459" y="-98.5" font-family="Arial" font-weight="bold" font-size="10.00">body</text>
<text text-anchor="start" x="459" y="-87.5" font-family="Arial" font-size="10.00">customer</text>
<text text-anchor="start" x="500" y="-87.5" font-family="Arial" font-size="8.00" fill="#94a3b8">  Text</text>
<text text-anchor="start" x="459" y="-76.5" font-family="Arial" font-size="10.00">priority</text>
<text text-anchor="start" x="489" y="-76.5" font-family="Arial" font-size="8.00" fill="#94a3b8">  Text</text>
<text text-anchor="start" x="459" y="-65.5" font-family="Arial" font-size="10.00">title</text>
<text text-anchor="start" x="475" y="-65.5" font-family="Arial" font-size="8.00" fill="#94a3b8">  Text</text>
<polygon fill="none" stroke="#64748b" points="454,-57 454,-180 538,-180 538,-57 454,-57"/>
</g>
<!-- entrypoint_entry_point_api_project_create&#45;&gt;entrypoint_input_entry_point_api_project_create -->
<g id="edge2" class="edge">
<title>entrypoint_entry_point_api_project_create&#45;&gt;entrypoint_input_entry_point_api_project_create</title>
<path fill="none" stroke="#3f3f46" d="M393.17,-118.5C411.92,-118.5 430,-118.5 445.59,-118.5"/>
<polygon fill="#3f3f46" stroke="#3f3f46" points="445.98,-121.3 453.98,-118.5 445.98,-115.7 445.98,-121.3"/>
</g>
<!-- entrypoint_target_operation_project_create -->
<g id="node4" class="node">
<title>entrypoint_target_operation_project_create</title>
<polygon fill="#ffffff" stroke="transparent" points="599,0 599,-237 803,-237 803,0 599,0"/>
<polygon fill="#2563eb" stroke="transparent" points="600,-227.5 600,-235.5 802,-235.5 802,-227.5 600,-227.5"/>
<polygon fill="#eff6ff" stroke="transparent" points="600,-196.5 600,-227.5 802,-227.5 802,-196.5 600,-196.5"/>
<text text-anchor="start" x="604" y="-214.1" font-family="Arial" font-weight="bold" font-size="13.00">operation.project.create</text>
<text text-anchor="start" x="604" y="-203.1" font-family="Arial" font-size="8.00" fill="#64748b">target capability</text>
<text text-anchor="start" x="604" y="-185.5" font-family="Arial" font-style="italic" font-size="10.00" fill="#3f3f46">Members can create a new dispatch project.</text>
<text text-anchor="start" x="605" y="-165.5" font-family="Arial" font-weight="bold" font-size="10.00">creates:</text>
<text text-anchor="start" x="642" y="-165.5" font-family="Arial" font-size="10.00">  Project</text>
<text text-anchor="start" x="604" y="-145.5" font-family="Arial" font-weight="bold" font-size="10.00">input</text>
<text text-anchor="start" x="604" y="-134.5" font-family="Arial" font-size="10.00">customer</text>
<text text-anchor="start" x="645" y="-134.5" font-family="Arial" font-size="8.00" fill="#94a3b8">  Text</text>
<text text-anchor="start" x="604" y="-123.5" font-family="Arial" font-size="10.00">priority</text>
<text text-anchor="start" x="634" y="-123.5" font-family="Arial" font-size="8.00" fill="#94a3b8">  Text</text>
<text text-anchor="start" x="604" y="-112.5" font-family="Arial" font-size="10.00">title</text>
<text text-anchor="start" x="620" y="-112.5" font-family="Arial" font-size="8.00" fill="#94a3b8">  Text</text>
<text text-anchor="start" x="604" y="-101.5" font-family="Arial" font-size="10.00">workspace_id</text>
<text text-anchor="start" x="665" y="-101.5" font-family="Arial" font-size="8.00" fill="#94a3b8">  ID</text>
<text text-anchor="start" x="604" y="-82.5" font-family="Arial" font-weight="bold" font-size="10.00">success</text>
<text text-anchor="start" x="604" y="-71.5" font-family="Arial" font-size="10.00">created</text>
<text text-anchor="start" x="637" y="-71.5" font-family="Arial" font-size="8.00" fill="#94a3b8">  Project</text>
<text text-anchor="start" x="604" y="-52.5" font-family="Arial" font-weight="bold" font-size="10.00">failure</text>
<text text-anchor="start" x="604" y="-41.5" font-family="Arial" font-size="10.00">validation_failed</text>
<text text-anchor="start" x="674" y="-41.5" font-family="Arial" font-size="8.00" fill="#94a3b8">  Problem</text>
<text text-anchor="start" x="605" y="-21.5" font-family="Arial" font-weight="bold" font-size="10.00">emit:</text>
<text text-anchor="start" x="629" y="-21.5" font-family="Arial" font-size="10.00">  created → event.project.created</text>
<text text-anchor="start" x="605" y="-9.5" font-family="Arial" font-weight="bold" font-size="10.00">payload:</text>
<text text-anchor="start" x="645" y="-9.5" font-family="Arial" font-size="10.00">  payload</text>
<text text-anchor="start" x="685" y="-9.5" font-family="Arial" font-size="8.00" fill="#94a3b8">  Project</text>
<polygon fill="none" stroke="#2563eb" points="599,0 599,-237 803,-237 803,0 599,0"/>
</g>
<!-- entrypoint_input_entry_point_api_project_create&#45;&gt;entrypoint_target_operation_project_create -->
<g id="edge3" class="edge">
<title>entrypoint_input_entry_point_api_project_create&#45;&gt;entrypoint_target_operation_project_create</title>
<path fill="none" stroke="#3f3f46" d="M538.08,-118.5C553.59,-118.5 572.06,-118.5 590.88,-118.5"/>
<polygon fill="#3f3f46" stroke="#3f3f46" points="590.96,-121.3 598.96,-118.5 590.96,-115.7 590.96,-121.3"/>
</g>
<!-- entrypoint_response_entry_point_api_project_create_created -->
<g id="node6" class="node">
<title>entrypoint_response_entry_point_api_project_create_created</title>
<polygon fill="#ffffff" stroke="transparent" points="866.5,-132.5 866.5,-224.5 994.5,-224.5 994.5,-132.5 866.5,-132.5"/>
<polygon fill="#64748b" stroke="transparent" points="867.5,-215.5 867.5,-223.5 993.5,-223.5 993.5,-215.5 867.5,-215.5"/>
<polygon fill="#f8fafc" stroke="transparent" points="867.5,-184.5 867.5,-215.5 993.5,-215.5 993.5,-184.5 867.5,-184.5"/>
<text text-anchor="start" x="871.5" y="-202.1" font-family="Arial" font-weight="bold" font-size="13.00">created</text>
<text text-anchor="start" x="871.5" y="-191.1" font-family="Arial" font-size="8.00" fill="#64748b">success response</text>
<text text-anchor="start" x="872.5" y="-172.5" font-family="Arial" font-weight="bold" font-size="10.00">status:</text>
<text text-anchor="start" x="903.5" y="-172.5" font-family="Arial" font-size="10.00">  201</text>
<text text-anchor="start" x="871.5" y="-152.5" font-family="Arial" font-weight="bold" font-size="10.00">body</text>
<text text-anchor="start" x="871.5" y="-141.5" font-family="Arial" font-size="10.00">body</text>
<text text-anchor="start" x="893.5" y="-141.5" font-family="Arial" font-size="8.00" fill="#94a3b8">  Project</text>
<text text-anchor="start" x="923.5" y="-141.5" font-family="Arial" font-size="8.00"> ← outcome.result</text>
<polygon fill="none" stroke="#64748b" points="866.5,-132.5 866.5,-224.5 994.5,-224.5 994.5,-132.5 866.5,-132.5"/>
</g>
<!-- entrypoint_target_operation_project_create&#45;&gt;entrypoint_response_entry_point_api_project_create_created -->
<g id="edge4" class="edge">
<title>entrypoint_target_operation_project_create&#45;&gt;entrypoint_response_entry_point_api_project_create_created</title>
<path fill="none" stroke="#3f3f46" d="M803.11,-145.17C821.74,-150.08 840.82,-155.11 858.33,-159.73"/>
<polygon fill="#3f3f46" stroke="#3f3f46" points="857.81,-162.49 866.26,-161.82 859.24,-157.07 857.81,-162.49"/>
</g>
<!-- entrypoint_response_entry_point_api_project_create_validation_failed -->
<g id="node7" class="node">
<title>entrypoint_response_entry_point_api_project_create_validation_failed</title>
<polygon fill="#ffffff" stroke="transparent" points="864,-13.5 864,-105.5 997,-105.5 997,-13.5 864,-13.5"/>
<polygon fill="#64748b" stroke="transparent" points="865.5,-96.5 865.5,-104.5 996.5,-104.5 996.5,-96.5 865.5,-96.5"/>
<polygon fill="#f8fafc" stroke="transparent" points="865.5,-65.5 865.5,-96.5 996.5,-96.5 996.5,-65.5 865.5,-65.5"/>
<text text-anchor="start" x="869.5" y="-83.1" font-family="Arial" font-weight="bold" font-size="13.00">validation_failed</text>
<text text-anchor="start" x="869.5" y="-72.1" font-family="Arial" font-size="8.00" fill="#64748b">failure response</text>
<text text-anchor="start" x="870.5" y="-53.5" font-family="Arial" font-weight="bold" font-size="10.00">status:</text>
<text text-anchor="start" x="901.5" y="-53.5" font-family="Arial" font-size="10.00">  422</text>
<text text-anchor="start" x="869.5" y="-33.5" font-family="Arial" font-weight="bold" font-size="10.00">body</text>
<text text-anchor="start" x="869.5" y="-22.5" font-family="Arial" font-size="10.00">body</text>
<text text-anchor="start" x="891.5" y="-22.5" font-family="Arial" font-size="8.00" fill="#94a3b8">  Problem</text>
<text text-anchor="start" x="926.5" y="-22.5" font-family="Arial" font-size="8.00"> ← outcome.result</text>
<polygon fill="none" stroke="#64748b" points="864,-13.5 864,-105.5 997,-105.5 997,-13.5 864,-13.5"/>
</g>
<!-- entrypoint_target_operation_project_create&#45;&gt;entrypoint_response_entry_point_api_project_create_validation_failed -->
<g id="edge6" class="edge">
<title>entrypoint_target_operation_project_create&#45;&gt;entrypoint_response_entry_point_api_project_create_validation_failed</title>
<path fill="none" stroke="#3f3f46" d="M803.11,-92.28C820.85,-87.68 839.02,-82.97 855.84,-78.6"/>
<polygon fill="#3f3f46" stroke="#3f3f46" points="856.94,-81.21 863.98,-76.49 855.53,-75.79 856.94,-81.21"/>
</g>
<!-- entry_exit -->
<g id="node5" class="node">
<title>entry_exit</title>
<ellipse fill="none" stroke="#0891b2" cx="1083" cy="-118.5" rx="21" ry="21"/>
<ellipse fill="none" stroke="#0891b2" cx="1083" cy="-118.5" rx="25" ry="25"/>
<text text-anchor="middle" x="1083" y="-116.3" font-family="Arial" font-size="9.00" fill="#155e75">exit</text>
</g>
<!-- entrypoint_response_entry_point_api_project_create_created&#45;&gt;entry_exit -->
<g id="edge5" class="edge">
<title>entrypoint_response_entry_point_api_project_create_created&#45;&gt;entry_exit</title>
<path fill="none" stroke="#3f3f46" d="M994.89,-153.23C1014.63,-145.36 1035.5,-137.04 1051.85,-130.52"/>
<polygon fill="#3f3f46" stroke="#3f3f46" points="1053.1,-133.04 1059.5,-127.47 1051.03,-127.83 1053.1,-133.04"/>
</g>
<!-- entrypoint_response_entry_point_api_project_create_created&#45;&gt;entrypoint_response_entry_point_api_project_create_validation_failed -->
<!-- entrypoint_response_entry_point_api_project_create_validation_failed&#45;&gt;entry_exit -->
<g id="edge7" class="edge">
<title>entrypoint_response_entry_point_api_project_create_validation_failed&#45;&gt;entry_exit</title>
<path fill="none" stroke="#3f3f46" d="M997.07,-85.21C1016.1,-92.66 1035.96,-100.45 1051.68,-106.62"/>
<polygon fill="#3f3f46" stroke="#3f3f46" points="1051.04,-109.37 1059.51,-109.68 1053.08,-104.16 1051.04,-109.37"/>
</g>
</g>
</svg>
