<svg width="1068pt" height="141pt"
 viewBox="0.00 0.00 1068.00 141.00" xmlns="http://www.w3.org/2000/svg" xmlns:xlink="http://www.w3.org/1999/xlink">
<g id="graph0" class="graph" transform="scale(1 1) rotate(0) translate(18 123)">
<title>entrypoint_cli_project_approve</title>
<!-- entry_start -->
<g id="node1" class="node">
<title>entry_start</title>
<ellipse fill="none" stroke="#0891b2" cx="21" cy="-52.5" rx="21" ry="21"/>
<text text-anchor="middle" x="21" y="-50.3" font-family="Arial" font-size="9.00" fill="#155e75">entry</text>
</g>
<!-- entrypoint_cli_project_approve -->
<g id="node2" class="node">
<title>entrypoint_cli_project_approve</title>
<polygon fill="#ffffff" stroke="transparent" points="103,-12 103,-93 284,-93 284,-12 103,-12"/>
<polygon fill="#0891b2" stroke="transparent" points="104.5,-83.5 104.5,-91.5 283.5,-91.5 283.5,-83.5 104.5,-83.5"/>
<polygon fill="#ecfeff" stroke="transparent" points="104.5,-52.5 104.5,-83.5 283.5,-83.5 283.5,-52.5 104.5,-52.5"/>
<text text-anchor="start" x="108.5" y="-70.1" font-family="Arial" font-weight="bold" font-size="13.00">project approve</text>
<text text-anchor="start" x="108.5" y="-59.1" font-family="Arial" font-size="8.00" fill="#64748b">cli entry</text>
<text text-anchor="start" x="108.5" y="-41.5" font-family="Arial" font-style="italic" font-size="10.00" fill="#3f3f46">CLI entry for approval automation.</text>
<text text-anchor="start" x="109.5" y="-21.5" font-family="Arial" font-weight="bold" font-size="10.00">command:</text>
<text text-anchor="start" x="159.5" y="-21.5" font-family="Arial" font-size="10.00">  command.project.approve</text>
<polygon fill="none" stroke="#0891b2" points="103,-12 103,-93 284,-93 284,-12 103,-12"/>
</g>
<!-- entry_start&#45;&gt;entrypoint_cli_project_approve -->
<g id="edge1" class="edge">
<title>entry_start&#45;&gt;entrypoint_cli_project_approve</title>
<path fill="none" stroke="#3f3f46" d="M42.23,-52.5C55.86,-52.5 74.94,-52.5 94.95,-52.5"/>
<polygon fill="#3f3f46" stroke="#3f3f46" points="94.96,-55.3 102.96,-52.5 94.96,-49.7 94.96,-55.3"/>
</g>
<!-- entrypoint_input_cli_project_approve -->
<g id="node3" class="node">
<title>entrypoint_input_cli_project_approve</title>
<polygon fill="#ffffff" stroke="transparent" points="345,-17 345,-88 425,-88 425,-17 345,-17"/>
<polygon fill="#64748b" stroke="transparent" points="346,-78.5 346,-86.5 424,-86.5 424,-78.5 346,-78.5"/>
<polygon fill="#f8fafc" stroke="transparent" points="346,-47.5 346,-78.5 424,-78.5 424,-47.5 346,-47.5"/>
<text text-anchor="start" x="350" y="-65.1" font-family="Arial" font-weight="bold" font-size="13.00">entry input</text>
<text text-anchor="start" x="350" y="-54.1" font-family="Arial" font-size="8.00" fill="#64748b">external data</text>
<text text-anchor="start" x="350" y="-36.5" font-family="Arial" font-weight="bold" font-size="10.00">args</text>
<text text-anchor="start" x="350" y="-25.5" font-family="Arial" font-size="10.00">project_id</text>
<text text-anchor="start" x="393" y="-25.5" font-family="Arial" font-size="8.00" fill="#94a3b8">  ID</text>
<polygon fill="none" stroke="#64748b" points="345,-17 345,-88 425,-88 425,-17 345,-17"/>
</g>
<!-- entrypoint_cli_project_approve&#45;&gt;entrypoint_input_cli_project_approve -->
<g id="edge2" class="edge">
<title>entrypoint_cli_project_approve&#45;&gt;entrypoint_input_cli_project_approve</title>
<path fill="none" stroke="#3f3f46" d="M284.26,-52.5C302.34,-52.5 320.67,-52.5 336.6,-52.5"/>
<polygon fill="#3f3f46" stroke="#3f3f46" points="336.69,-55.3 344.69,-52.5 336.69,-49.7 336.69,-55.3"/>
</g>
<!-- entrypoint_target_project_approve -->
<g id="node4" class="node">
<title>entrypoint_target_project_approve</title>
<polygon fill="#ffffff" stroke="transparent" points="486,0 486,-105 725,-105 725,0 486,0"/>
<polygon fill="#2563eb" stroke="transparent" points="487.5,-95.5 487.5,-103.5 724.5,-103.5 724.5,-95.5 487.5,-95.5"/>
<polygon fill="#eff6ff" stroke="transparent" points="487.5,-64.5 487.5,-95.5 724.5,-95.5 724.5,-64.5 487.5,-64.5"/>
<text text-anchor="start" x="491.5" y="-82.1" font-family="Arial" font-weight="bold" font-size="13.00">project.approve</text>
<text text-anchor="start" x="491.5" y="-71.1" font-family="Arial" font-size="8.00" fill="#64748b">target capability</text>
<text text-anchor="start" x="491.5" y="-53.5" font-family="Arial" font-style="italic" font-size="10.00" fill="#3f3f46">Reviewers can approve submitted dispatch projects.</text>
<text text-anchor="start" x="492.5" y="-33.5" font-family="Arial" font-weight="bold" font-size="10.00">resource:</text>
<text text-anchor="start" x="536.5" y="-33.5" font-family="Arial" font-size="10.00">  Project</text>
<text text-anchor="start" x="492.5" y="-21.5" font-family="Arial" font-weight="bold" font-size="10.00">input:</text>
<text text-anchor="start" x="520.5" y="-21.5" font-family="Arial" font-size="10.00">  project_id</text>
<text text-anchor="start" x="569.5" y="-21.5" font-family="Arial" font-size="8.00" fill="#94a3b8">  ID</text>
<text text-anchor="start" x="492.5" y="-9.5" font-family="Arial" font-weight="bold" font-size="10.00">emits:</text>
<text text-anchor="start" x="521.5" y="-9.5" font-family="Arial" font-size="10.00">  project.approved</text>
<polygon fill="none" stroke="#2563eb" points="486,0 486,-105 725,-105 725,0 486,0"/>
</g>
<!-- entrypoint_input_cli_project_approve&#45;&gt;entrypoint_target_project_approve -->
<g id="edge3" class="edge">
<title>entrypoint_input_cli_project_approve&#45;&gt;entrypoint_target_project_approve</title>
<path fill="none" stroke="#3f3f46" d="M425.06,-52.5C440.21,-52.5 458.47,-52.5 477.47,-52.5"/>
<polygon fill="#3f3f46" stroke="#3f3f46" points="477.66,-55.3 485.66,-52.5 477.66,-49.7 477.66,-55.3"/>
</g>
<!-- entrypoint_output_cli_project_approve -->
<g id="node6" class="node">
<title>entrypoint_output_cli_project_approve</title>
<polygon fill="#ffffff" stroke="transparent" points="786,-6.5 786,-98.5 921,-98.5 921,-6.5 786,-6.5"/>
<polygon fill="#64748b" stroke="transparent" points="787.5,-89.5 787.5,-97.5 920.5,-97.5 920.5,-89.5 787.5,-89.5"/>
<polygon fill="#f8fafc" stroke="transparent" points="787.5,-58.5 787.5,-89.5 920.5,-89.5 920.5,-58.5 787.5,-58.5"/>
<text text-anchor="start" x="791.5" y="-76.1" font-family="Arial" font-weight="bold" font-size="13.00">entry output</text>
<text text-anchor="start" x="791.5" y="-65.1" font-family="Arial" font-size="8.00" fill="#64748b">external result</text>
<text text-anchor="start" x="791.5" y="-47.5" font-family="Arial" font-weight="bold" font-size="10.00">stdout</text>
<text text-anchor="start" x="791.5" y="-36.5" font-family="Arial" font-size="10.00">stdout</text>
<text text-anchor="start" x="819.5" y="-36.5" font-family="Arial" font-size="8.00" fill="#94a3b8">  Project</text>
<text text-anchor="start" x="849.5" y="-36.5" font-family="Arial" font-size="10.00"> &lt;&#45; target.result</text>
<text text-anchor="start" x="792.5" y="-16.5" font-family="Arial" font-weight="bold" font-size="10.00">exit_code:</text>
<text text-anchor="start" x="840.5" y="-16.5" font-family="Arial" font-size="10.00">  0</text>
<polygon fill="none" stroke="#64748b" points="786,-6.5 786,-98.5 921,-98.5 921,-6.5 786,-6.5"/>
</g>
<!-- entrypoint_target_project_approve&#45;&gt;entrypoint_output_cli_project_approve -->
<g id="edge4" class="edge">
<title>entrypoint_target_project_approve&#45;&gt;entrypoint_output_cli_project_approve</title>
<path fill="none" stroke="#3f3f46" d="M725.18,-52.5C743.13,-52.5 761.2,-52.5 777.86,-52.5"/>
<polygon fill="#3f3f46" stroke="#3f3f46" points="777.92,-55.3 785.92,-52.5 777.92,-49.7 777.92,-55.3"/>
</g>
<!-- entry_exit -->
<g id="node5" class="node">
<title>entry_exit</title>
<ellipse fill="none" stroke="#0891b2" cx="1007" cy="-52.5" rx="21" ry="21"/>
<ellipse fill="none" stroke="#0891b2" cx="1007" cy="-52.5" rx="25" ry="25"/>
<text text-anchor="middle" x="1007" y="-50.3" font-family="Arial" font-size="9.00" fill="#155e75">exit</text>
</g>
<!-- entrypoint_output_cli_project_approve&#45;&gt;entry_exit -->
<g id="edge5" class="edge">
<title>entrypoint_output_cli_project_approve&#45;&gt;entry_exit</title>
<path fill="none" stroke="#3f3f46" d="M921.39,-52.5C939.58,-52.5 958.47,-52.5 973.77,-52.5"/>
<polygon fill="#3f3f46" stroke="#3f3f46" points="973.87,-55.3 981.87,-52.5 973.87,-49.7 973.87,-55.3"/>
</g>
</g>
</svg>
