<svg width="1151pt" height="153pt"
 viewBox="0.00 0.00 1151.00 153.00" xmlns="http://www.w3.org/2000/svg" xmlns:xlink="http://www.w3.org/1999/xlink">
<g id="graph0" class="graph" transform="scale(1 1) rotate(0) translate(18 135)">
<title>entrypoint_cli_project_approve</title>
<!-- entry_start -->
<g id="node1" class="node">
<title>entry_start</title>
<ellipse fill="none" stroke="#0891b2" cx="21" cy="-58.5" rx="21" ry="21"/>
<text text-anchor="middle" x="21" y="-56.3" font-family="Arial" font-size="9.00" fill="#155e75">entry</text>
</g>
<!-- entrypoint_cli_project_approve -->
<g id="node2" class="node">
<title>entrypoint_cli_project_approve</title>
<polygon fill="#ffffff" stroke="transparent" points="103,-18 103,-99 284,-99 284,-18 103,-18"/>
<polygon fill="#0891b2" stroke="transparent" points="104.5,-89.5 104.5,-97.5 283.5,-97.5 283.5,-89.5 104.5,-89.5"/>
<polygon fill="#ecfeff" stroke="transparent" points="104.5,-58.5 104.5,-89.5 283.5,-89.5 283.5,-58.5 104.5,-58.5"/>
<text text-anchor="start" x="108.5" y="-76.1" font-family="Arial" font-weight="bold" font-size="13.00">project approve</text>
<text text-anchor="start" x="108.5" y="-65.1" font-family="Arial" font-size="8.00" fill="#64748b">cli entry</text>
<text text-anchor="start" x="108.5" y="-47.5" font-family="Arial" font-style="italic" font-size="10.00" fill="#3f3f46">CLI entry for approval automation.</text>
<text text-anchor="start" x="109.5" y="-27.5" font-family="Arial" font-weight="bold" font-size="10.00">command:</text>
<text text-anchor="start" x="159.5" y="-27.5" font-family="Arial" font-size="10.00">  command.project.approve</text>
<polygon fill="none" stroke="#0891b2" points="103,-18 103,-99 284,-99 284,-18 103,-18"/>
</g>
<!-- entry_start&#45;&gt;entrypoint_cli_project_approve -->
<g id="edge1" class="edge">
<title>entry_start&#45;&gt;entrypoint_cli_project_approve</title>
<path fill="none" stroke="#3f3f46" d="M42.23,-58.5C55.86,-58.5 74.94,-58.5 94.95,-58.5"/>
<polygon fill="#3f3f46" stroke="#3f3f46" points="94.96,-61.3 102.96,-58.5 94.96,-55.7 94.96,-61.3"/>
</g>
<!-- entrypoint_input_cli_project_approve -->
<g id="node3" class="node">
<title>entrypoint_input_cli_project_approve</title>
<polygon fill="#ffffff" stroke="transparent" points="345,-23 345,-94 455,-94 455,-23 345,-23"/>
<polygon fill="#64748b" stroke="transparent" points="346,-84.5 346,-92.5 454,-92.5 454,-84.5 346,-84.5"/>
<polygon fill="#f8fafc" stroke="transparent" points="346,-53.5 346,-84.5 454,-84.5 454,-53.5 346,-53.5"/>
<text text-anchor="start" x="350" y="-71.1" font-family="Arial" font-weight="bold" font-size="13.00">command input</text>
<text text-anchor="start" x="350" y="-60.1" font-family="Arial" font-size="8.00" fill="#64748b">external data</text>
<text text-anchor="start" x="350" y="-42.5" font-family="Arial" font-weight="bold" font-size="10.00">args</text>
<text text-anchor="start" x="350" y="-31.5" font-family="Arial" font-size="10.00">project_id</text>
<text text-anchor="start" x="393" y="-31.5" font-family="Arial" font-size="8.00" fill="#94a3b8">  ID</text>
<polygon fill="none" stroke="#64748b" points="345,-23 345,-94 455,-94 455,-23 345,-23"/>
</g>
<!-- entrypoint_cli_project_approve&#45;&gt;entrypoint_input_cli_project_approve -->
<g id="edge2" class="edge">
<title>entrypoint_cli_project_approve&#45;&gt;entrypoint_input_cli_project_approve</title>
<path fill="none" stroke="#3f3f46" d="M284.2,-58.5C302,-58.5 320.31,-58.5 336.94,-58.5"/>
<polygon fill="#3f3f46" stroke="#3f3f46" points="336.96,-61.3 344.96,-58.5 336.96,-55.7 336.96,-61.3"/>
</g>
<!-- entrypoint_target_project_approve -->
<g id="node4" class="node">
<title>entrypoint_target_project_approve</title>
<polygon fill="#ffffff" stroke="transparent" points="516,0 516,-117 808,-117 808,0 516,0"/>
<polygon fill="#2563eb" stroke="transparent" points="517,-107.5 517,-115.5 807,-115.5 807,-107.5 517,-107.5"/>
<polygon fill="#eff6ff" stroke="transparent" points="517,-76.5 517,-107.5 807,-107.5 807,-76.5 517,-76.5"/>
<text text-anchor="start" x="521" y="-94.1" font-family="Arial" font-weight="bold" font-size="13.00">project.approve</text>
<text text-anchor="start" x="521" y="-83.1" font-family="Arial" font-size="8.00" fill="#64748b">target capability</text>
<text text-anchor="start" x="521" y="-65.5" font-family="Arial" font-style="italic" font-size="10.00" fill="#3f3f46">Reviewers can approve submitted dispatch projects.</text>
<text text-anchor="start" x="522" y="-45.5" font-family="Arial" font-weight="bold" font-size="10.00">transition:</text>
<text text-anchor="start" x="570" y="-45.5" font-family="Arial" font-size="10.00">  Project.status</text>
<text text-anchor="start" x="637" y="-45.5" font-family="Arial" font-size="8.00" fill="#94a3b8">  ProjectStatus</text>
<text text-anchor="start" x="689" y="-45.5" font-family="Arial" font-size="10.00"> &lt;&#45; submitted &#45;&gt; approved</text>
<text text-anchor="start" x="522" y="-33.5" font-family="Arial" font-weight="bold" font-size="10.00">input:</text>
<text text-anchor="start" x="550" y="-33.5" font-family="Arial" font-size="10.00">  project_id</text>
<text text-anchor="start" x="599" y="-33.5" font-family="Arial" font-size="8.00" fill="#94a3b8">  ID</text>
<text text-anchor="start" x="522" y="-21.5" font-family="Arial" font-weight="bold" font-size="10.00">emit:</text>
<text text-anchor="start" x="546" y="-21.5" font-family="Arial" font-size="10.00">  project.approved</text>
<text text-anchor="start" x="522" y="-9.5" font-family="Arial" font-weight="bold" font-size="10.00">payload:</text>
<text text-anchor="start" x="562" y="-9.5" font-family="Arial" font-size="10.00">  payload</text>
<text text-anchor="start" x="602" y="-9.5" font-family="Arial" font-size="8.00" fill="#94a3b8">  Project</text>
<polygon fill="none" stroke="#2563eb" points="516,0 516,-117 808,-117 808,0 516,0"/>
</g>
<!-- entrypoint_input_cli_project_approve&#45;&gt;entrypoint_target_project_approve -->
<g id="edge3" class="edge">
<title>entrypoint_input_cli_project_approve&#45;&gt;entrypoint_target_project_approve</title>
<path fill="none" stroke="#3f3f46" d="M455.19,-58.5C470.94,-58.5 488.99,-58.5 507.69,-58.5"/>
<polygon fill="#3f3f46" stroke="#3f3f46" points="507.75,-61.3 515.75,-58.5 507.75,-55.7 507.75,-61.3"/>
</g>
<!-- entrypoint_output_cli_project_approve -->
<g id="node6" class="node">
<title>entrypoint_output_cli_project_approve</title>
<polygon fill="#ffffff" stroke="transparent" points="869,-12.5 869,-104.5 1004,-104.5 1004,-12.5 869,-12.5"/>
<polygon fill="#64748b" stroke="transparent" points="870.5,-95.5 870.5,-103.5 1003.5,-103.5 1003.5,-95.5 870.5,-95.5"/>
<polygon fill="#f8fafc" stroke="transparent" points="870.5,-64.5 870.5,-95.5 1003.5,-95.5 1003.5,-64.5 870.5,-64.5"/>
<text text-anchor="start" x="874.5" y="-82.1" font-family="Arial" font-weight="bold" font-size="13.00">command output</text>
<text text-anchor="start" x="874.5" y="-71.1" font-family="Arial" font-size="8.00" fill="#64748b">external result</text>
<text text-anchor="start" x="874.5" y="-53.5" font-family="Arial" font-weight="bold" font-size="10.00">stdout</text>
<text text-anchor="start" x="874.5" y="-42.5" font-family="Arial" font-size="10.00">stdout</text>
<text text-anchor="start" x="902.5" y="-42.5" font-family="Arial" font-size="8.00" fill="#94a3b8">  Project</text>
<text text-anchor="start" x="932.5" y="-42.5" font-family="Arial" font-size="10.00"> &lt;&#45; target.result</text>
<text text-anchor="start" x="875.5" y="-22.5" font-family="Arial" font-weight="bold" font-size="10.00">exit_code:</text>
<text text-anchor="start" x="923.5" y="-22.5" font-family="Arial" font-size="10.00">  0</text>
<polygon fill="none" stroke="#64748b" points="869,-12.5 869,-104.5 1004,-104.5 1004,-12.5 869,-12.5"/>
</g>
<!-- entrypoint_target_project_approve&#45;&gt;entrypoint_output_cli_project_approve -->
<g id="edge4" class="edge">
<title>entrypoint_target_project_approve&#45;&gt;entrypoint_output_cli_project_approve</title>
<path fill="none" stroke="#3f3f46" d="M808.03,-58.5C826.1,-58.5 843.97,-58.5 860.35,-58.5"/>
<polygon fill="#3f3f46" stroke="#3f3f46" points="860.78,-61.3 868.78,-58.5 860.78,-55.7 860.78,-61.3"/>
</g>
<!-- entry_exit -->
<g id="node5" class="node">
<title>entry_exit</title>
<ellipse fill="none" stroke="#0891b2" cx="1090" cy="-58.5" rx="21" ry="21"/>
<ellipse fill="none" stroke="#0891b2" cx="1090" cy="-58.5" rx="25" ry="25"/>
<text text-anchor="middle" x="1090" y="-56.3" font-family="Arial" font-size="9.00" fill="#155e75">exit</text>
</g>
<!-- entrypoint_output_cli_project_approve&#45;&gt;entry_exit -->
<g id="edge5" class="edge">
<title>entrypoint_output_cli_project_approve&#45;&gt;entry_exit</title>
<path fill="none" stroke="#3f3f46" d="M1004.39,-58.5C1022.58,-58.5 1041.47,-58.5 1056.77,-58.5"/>
<polygon fill="#3f3f46" stroke="#3f3f46" points="1056.87,-61.3 1064.87,-58.5 1056.87,-55.7 1056.87,-61.3"/>
</g>
</g>
</svg>
