<svg width="1121pt" height="141pt"
 viewBox="0.00 0.00 1121.00 141.00" xmlns="http://www.w3.org/2000/svg" xmlns:xlink="http://www.w3.org/1999/xlink">
<g id="graph0" class="graph" transform="scale(1 1) rotate(0) translate(18 123)">
<title>entrypoint_cli_project_approve</title>
<!-- entry_start -->
<g id="node1" class="node">
<title>entry_start</title>
<ellipse fill="none" stroke="#0891b2" cx="21" cy="-52.5" rx="21" ry="21"/>
<text text-anchor="middle" x="21" y="-50.3" font-family="Arial" font-size="9.00" fill="#155e75">entry</text>
</g>
<!-- entrypoint_cli_project_approve -->
<g id="node2" class="node">
<title>entrypoint_cli_project_approve</title>
<polygon fill="#ffffff" stroke="transparent" points="103,-12 103,-93 284,-93 284,-12 103,-12"/>
<polygon fill="#0891b2" stroke="transparent" points="104.5,-83.5 104.5,-91.5 283.5,-91.5 283.5,-83.5 104.5,-83.5"/>
<polygon fill="#ecfeff" stroke="transparent" points="104.5,-52.5 104.5,-83.5 283.5,-83.5 283.5,-52.5 104.5,-52.5"/>
<text text-anchor="start" x="108.5" y="-70.1" font-family="Arial" font-weight="bold" font-size="13.00">project approve</text>
<text text-anchor="start" x="108.5" y="-59.1" font-family="Arial" font-size="8.00" fill="#64748b">cli entry</text>
<text text-anchor="start" x="108.5" y="-41.5" font-family="Arial" font-style="italic" font-size="10.00" fill="#3f3f46">CLI entry for approval automation.</text>
<text text-anchor="start" x="109.5" y="-21.5" font-family="Arial" font-weight="bold" font-size="10.00">command:</text>
<text text-anchor="start" x="159.5" y="-21.5" font-family="Arial" font-size="10.00">  command.project.approve</text>
<polygon fill="none" stroke="#0891b2" points="103,-12 103,-93 284,-93 284,-12 103,-12"/>
</g>
<!-- entry_start&#45;&gt;entrypoint_cli_project_approve -->
<g id="edge1" class="edge">
<title>entry_start&#45;&gt;entrypoint_cli_project_approve</title>
<path fill="none" stroke="#3f3f46" d="M42.23,-52.5C55.86,-52.5 74.94,-52.5 94.95,-52.5"/>
<polygon fill="#3f3f46" stroke="#3f3f46" points="94.96,-55.3 102.96,-52.5 94.96,-49.7 94.96,-55.3"/>
</g>
<!-- entrypoint_input_cli_project_approve -->
<g id="node3" class="node">
<title>entrypoint_input_cli_project_approve</title>
<polygon fill="#ffffff" stroke="transparent" points="345,-17 345,-88 425,-88 425,-17 345,-17"/>
<polygon fill="#64748b" stroke="transparent" points="346,-78.5 346,-86.5 424,-86.5 424,-78.5 346,-78.5"/>
<polygon fill="#f8fafc" stroke="transparent" points="346,-47.5 346,-78.5 424,-78.5 424,-47.5 346,-47.5"/>
<text text-anchor="start" x="350" y="-65.1" font-family="Arial" font-weight="bold" font-size="13.00">entry input</text>
<text text-anchor="start" x="350" y="-54.1" font-family="Arial" font-size="8.00" fill="#64748b">external data</text>
<text text-anchor="start" x="350" y="-36.5" font-family="Arial" font-weight="bold" font-size="10.00">args</text>
<text text-anchor="start" x="350" y="-25.5" font-family="Arial" font-size="10.00">project_id</text>
<text text-anchor="start" x="393" y="-25.5" font-family="Arial" font-size="8.00" fill="#94a3b8">  ID</text>
<polygon fill="none" stroke="#64748b" points="345,-17 345,-88 425,-88 425,-17 345,-17"/>
</g>
<!-- entrypoint_cli_project_approve&#45;&gt;entrypoint_input_cli_project_approve -->
<g id="edge2" class="edge">
<title>entrypoint_cli_project_approve&#45;&gt;entrypoint_input_cli_project_approve</title>
<path fill="none" stroke="#3f3f46" d="M284.26,-52.5C302.34,-52.5 320.67,-52.5 336.6,-52.5"/>
<polygon fill="#3f3f46" stroke="#3f3f46" points="336.69,-55.3 344.69,-52.5 336.69,-49.7 336.69,-55.3"/>
</g>
<!-- entrypoint_target_project_approve -->
<g id="node4" class="node">
<title>entrypoint_target_project_approve</title>
<polygon fill="#ffffff" stroke="transparent" points="486,0 486,-105 778,-105 778,0 486,0"/>
<polygon fill="#2563eb" stroke="transparent" points="487,-95.5 487,-103.5 777,-103.5 777,-95.5 487,-95.5"/>
<polygon fill="#eff6ff" stroke="transparent" points="487,-64.5 487,-95.5 777,-95.5 777,-64.5 487,-64.5"/>
<text text-anchor="start" x="491" y="-82.1" font-family="Arial" font-weight="bold" font-size="13.00">project.approve</text>
<text text-anchor="start" x="491" y="-71.1" font-family="Arial" font-size="8.00" fill="#64748b">target capability</text>
<text text-anchor="start" x="491" y="-53.5" font-family="Arial" font-style="italic" font-size="10.00" fill="#3f3f46">Reviewers can approve submitted dispatch projects.</text>
<text text-anchor="start" x="492" y="-33.5" font-family="Arial" font-weight="bold" font-size="10.00">transition:</text>
<text text-anchor="start" x="540" y="-33.5" font-family="Arial" font-size="10.00">  Project.status</text>
<text text-anchor="start" x="607" y="-33.5" font-family="Arial" font-size="8.00" fill="#94a3b8">  ProjectStatus</text>
<text text-anchor="start" x="659" y="-33.5" font-family="Arial" font-size="10.00"> &lt;&#45; submitted &#45;&gt; approved</text>
<text text-anchor="start" x="492" y="-21.5" font-family="Arial" font-weight="bold" font-size="10.00">input:</text>
<text text-anchor="start" x="520" y="-21.5" font-family="Arial" font-size="10.00">  project_id</text>
<text text-anchor="start" x="569" y="-21.5" font-family="Arial" font-size="8.00" fill="#94a3b8">  ID</text>
<text text-anchor="start" x="492" y="-9.5" font-family="Arial" font-weight="bold" font-size="10.00">emits:</text>
<text text-anchor="start" x="521" y="-9.5" font-family="Arial" font-size="10.00">  project.approved</text>
<polygon fill="none" stroke="#2563eb" points="486,0 486,-105 778,-105 778,0 486,0"/>
</g>
<!-- entrypoint_input_cli_project_approve&#45;&gt;entrypoint_target_project_approve -->
<g id="edge3" class="edge">
<title>entrypoint_input_cli_project_approve&#45;&gt;entrypoint_target_project_approve</title>
<path fill="none" stroke="#3f3f46" d="M425.09,-52.5C440.17,-52.5 458.46,-52.5 477.85,-52.5"/>
<polygon fill="#3f3f46" stroke="#3f3f46" points="477.92,-55.3 485.92,-52.5 477.92,-49.7 477.92,-55.3"/>
</g>
<!-- entrypoint_output_cli_project_approve -->
<g id="node6" class="node">
<title>entrypoint_output_cli_project_approve</title>
<polygon fill="#ffffff" stroke="transparent" points="839,-6.5 839,-98.5 974,-98.5 974,-6.5 839,-6.5"/>
<polygon fill="#64748b" stroke="transparent" points="840.5,-89.5 840.5,-97.5 973.5,-97.5 973.5,-89.5 840.5,-89.5"/>
<polygon fill="#f8fafc" stroke="transparent" points="840.5,-58.5 840.5,-89.5 973.5,-89.5 973.5,-58.5 840.5,-58.5"/>
<text text-anchor="start" x="844.5" y="-76.1" font-family="Arial" font-weight="bold" font-size="13.00">entry output</text>
<text text-anchor="start" x="844.5" y="-65.1" font-family="Arial" font-size="8.00" fill="#64748b">external result</text>
<text text-anchor="start" x="844.5" y="-47.5" font-family="Arial" font-weight="bold" font-size="10.00">stdout</text>
<text text-anchor="start" x="844.5" y="-36.5" font-family="Arial" font-size="10.00">stdout</text>
<text text-anchor="start" x="872.5" y="-36.5" font-family="Arial" font-size="8.00" fill="#94a3b8">  Project</text>
<text text-anchor="start" x="902.5" y="-36.5" font-family="Arial" font-size="10.00"> &lt;&#45; target.result</text>
<text text-anchor="start" x="845.5" y="-16.5" font-family="Arial" font-weight="bold" font-size="10.00">exit_code:</text>
<text text-anchor="start" x="893.5" y="-16.5" font-family="Arial" font-size="10.00">  0</text>
<polygon fill="none" stroke="#64748b" points="839,-6.5 839,-98.5 974,-98.5 974,-6.5 839,-6.5"/>
</g>
<!-- entrypoint_target_project_approve&#45;&gt;entrypoint_output_cli_project_approve -->
<g id="edge4" class="edge">
<title>entrypoint_target_project_approve&#45;&gt;entrypoint_output_cli_project_approve</title>
<path fill="none" stroke="#3f3f46" d="M778.03,-52.5C796.1,-52.5 813.97,-52.5 830.35,-52.5"/>
<polygon fill="#3f3f46" stroke="#3f3f46" points="830.78,-55.3 838.78,-52.5 830.78,-49.7 830.78,-55.3"/>
</g>
<!-- entry_exit -->
<g id="node5" class="node">
<title>entry_exit</title>
<ellipse fill="none" stroke="#0891b2" cx="1060" cy="-52.5" rx="21" ry="21"/>
<ellipse fill="none" stroke="#0891b2" cx="1060" cy="-52.5" rx="25" ry="25"/>
<text text-anchor="middle" x="1060" y="-50.3" font-family="Arial" font-size="9.00" fill="#155e75">exit</text>
</g>
<!-- entrypoint_output_cli_project_approve&#45;&gt;entry_exit -->
<g id="edge5" class="edge">
<title>entrypoint_output_cli_project_approve&#45;&gt;entry_exit</title>
<path fill="none" stroke="#3f3f46" d="M974.39,-52.5C992.58,-52.5 1011.47,-52.5 1026.77,-52.5"/>
<polygon fill="#3f3f46" stroke="#3f3f46" points="1026.87,-55.3 1034.87,-52.5 1026.87,-49.7 1026.87,-55.3"/>
</g>
</g>
</svg>
