<svg width="1099pt" height="366pt"
 viewBox="0.00 0.00 1099.00 366.00" xmlns="http://www.w3.org/2000/svg" xmlns:xlink="http://www.w3.org/1999/xlink">
<!-- pyspec-contract-input-sha256: 2d65c3069170b128934f48d837b1e480f3758301bd8cb289db5e3da4ce8bfabb -->
<g id="graph0" class="graph" transform="scale(1 1) rotate(0) translate(18 348)">
<title>entrypoint_cli_project_approve</title>
<!-- entry_start -->
<g id="node1" class="node">
<title>entry_start</title>
<ellipse fill="none" stroke="#0891b2" cx="21" cy="-165" rx="21" ry="21"/>
<text text-anchor="middle" x="21" y="-162.8" font-family="Arial" font-size="9.00" fill="#155e75">entry</text>
</g>
<!-- entrypoint_cli_project_approve -->
<g id="node2" class="node">
<title>entrypoint_cli_project_approve</title>
<polygon fill="#ffffff" stroke="transparent" points="103,-124.5 103,-205.5 284,-205.5 284,-124.5 103,-124.5"/>
<polygon fill="#0891b2" stroke="transparent" points="104.5,-196 104.5,-204 283.5,-204 283.5,-196 104.5,-196"/>
<polygon fill="#ecfeff" stroke="transparent" points="104.5,-165 104.5,-196 283.5,-196 283.5,-165 104.5,-165"/>
<text text-anchor="start" x="108.5" y="-182.6" font-family="Arial" font-weight="bold" font-size="13.00">project approve</text>
<text text-anchor="start" x="108.5" y="-171.6" font-family="Arial" font-size="8.00" fill="#64748b">cli entry</text>
<text text-anchor="start" x="108.5" y="-154" font-family="Arial" font-style="italic" font-size="10.00" fill="#3f3f46">CLI entry for approval automation.</text>
<text text-anchor="start" x="109.5" y="-134" font-family="Arial" font-weight="bold" font-size="10.00">command:</text>
<text text-anchor="start" x="159.5" y="-134" font-family="Arial" font-size="10.00">  command.project.approve</text>
<polygon fill="none" stroke="#0891b2" points="103,-124.5 103,-205.5 284,-205.5 284,-124.5 103,-124.5"/>
</g>
<!-- entry_start&#45;&gt;entrypoint_cli_project_approve -->
<g id="edge1" class="edge">
<title>entry_start&#45;&gt;entrypoint_cli_project_approve</title>
<path fill="none" stroke="#3f3f46" d="M42.23,-165C55.86,-165 74.94,-165 94.95,-165"/>
<polygon fill="#3f3f46" stroke="#3f3f46" points="94.96,-167.8 102.96,-165 94.96,-162.2 94.96,-167.8"/>
</g>
<!-- entrypoint_input_cli_project_approve -->
<g id="node3" class="node">
<title>entrypoint_input_cli_project_approve</title>
<polygon fill="#ffffff" stroke="transparent" points="345,-124 345,-206 455,-206 455,-124 345,-124"/>
<polygon fill="#64748b" stroke="transparent" points="346,-197 346,-205 454,-205 454,-197 346,-197"/>
<polygon fill="#f8fafc" stroke="transparent" points="346,-166 346,-197 454,-197 454,-166 346,-166"/>
<text text-anchor="start" x="350" y="-183.6" font-family="Arial" font-weight="bold" font-size="13.00">command input</text>
<text text-anchor="start" x="350" y="-172.6" font-family="Arial" font-size="8.00" fill="#64748b">external data</text>
<text text-anchor="start" x="350" y="-155" font-family="Arial" font-weight="bold" font-size="10.00">args</text>
<text text-anchor="start" x="350" y="-144" font-family="Arial" font-size="10.00">approved_by</text>
<text text-anchor="start" x="406" y="-144" font-family="Arial" font-size="8.00" fill="#94a3b8">  ID</text>
<text text-anchor="start" x="350" y="-133" font-family="Arial" font-size="10.00">project_id</text>
<text text-anchor="start" x="393" y="-133" font-family="Arial" font-size="8.00" fill="#94a3b8">  ID</text>
<polygon fill="none" stroke="#64748b" points="345,-124 345,-206 455,-206 455,-124 345,-124"/>
</g>
<!-- entrypoint_cli_project_approve&#45;&gt;entrypoint_input_cli_project_approve -->
<g id="edge2" class="edge">
<title>entrypoint_cli_project_approve&#45;&gt;entrypoint_input_cli_project_approve</title>
<path fill="none" stroke="#3f3f46" d="M284.2,-165C302,-165 320.31,-165 336.94,-165"/>
<polygon fill="#3f3f46" stroke="#3f3f46" points="336.96,-167.8 344.96,-165 336.96,-162.2 336.96,-167.8"/>
</g>
<!-- entrypoint_target_project_approve -->
<g id="node4" class="node">
<title>entrypoint_target_project_approve</title>
<polygon fill="#ffffff" stroke="transparent" points="516,-38 516,-292 755,-292 755,-38 516,-38"/>
<polygon fill="#2563eb" stroke="transparent" points="517.5,-283 517.5,-291 754.5,-291 754.5,-283 517.5,-283"/>
<polygon fill="#eff6ff" stroke="transparent" points="517.5,-252 517.5,-283 754.5,-283 754.5,-252 517.5,-252"/>
<text text-anchor="start" x="521.5" y="-269.6" font-family="Arial" font-weight="bold" font-size="13.00">project.approve</text>
<text text-anchor="start" x="521.5" y="-258.6" font-family="Arial" font-size="8.00" fill="#64748b">target capability</text>
<text text-anchor="start" x="521.5" y="-241" font-family="Arial" font-style="italic" font-size="10.00" fill="#3f3f46">Reviewers can approve submitted dispatch projects.</text>
<text text-anchor="start" x="521.5" y="-222" font-family="Arial" font-weight="bold" font-size="10.00">transitions</text>
<text text-anchor="start" x="521.5" y="-211" font-family="Arial" font-size="10.00">Project.status</text>
<text text-anchor="start" x="582.5" y="-211" font-family="Arial" font-size="8.00" fill="#94a3b8">  ProjectStatus</text>
<text text-anchor="start" x="634.5" y="-211" font-family="Arial" font-size="8.00">  submitted → approved</text>
<text text-anchor="start" x="521.5" y="-192" font-family="Arial" font-weight="bold" font-size="10.00">input</text>
<text text-anchor="start" x="521.5" y="-181" font-family="Arial" font-size="10.00">approved_by</text>
<text text-anchor="start" x="577.5" y="-181" font-family="Arial" font-size="8.00" fill="#94a3b8">  ID</text>
<text text-anchor="start" x="521.5" y="-170" font-family="Arial" font-size="10.00">project_id</text>
<text text-anchor="start" x="564.5" y="-170" font-family="Arial" font-size="8.00" fill="#94a3b8">  ID</text>
<text text-anchor="start" x="521.5" y="-151" font-family="Arial" font-weight="bold" font-size="10.00">success</text>
<text text-anchor="start" x="521.5" y="-140" font-family="Arial" font-size="10.00">approved</text>
<text text-anchor="start" x="561.5" y="-140" font-family="Arial" font-size="8.00" fill="#94a3b8">  Project</text>
<text text-anchor="start" x="521.5" y="-121" font-family="Arial" font-weight="bold" font-size="10.00">failure</text>
<text text-anchor="start" x="521.5" y="-110" font-family="Arial" font-size="10.00">invalid_state</text>
<text text-anchor="start" x="576.5" y="-110" font-family="Arial" font-size="8.00" fill="#94a3b8">  Problem</text>
<text text-anchor="start" x="521.5" y="-91" font-family="Arial" font-weight="bold" font-size="10.00">failure</text>
<text text-anchor="start" x="521.5" y="-80" font-family="Arial" font-size="10.00">not_found</text>
<text text-anchor="start" x="564.5" y="-80" font-family="Arial" font-size="8.00" fill="#94a3b8">  Problem</text>
<text text-anchor="start" x="522.5" y="-60" font-family="Arial" font-weight="bold" font-size="10.00">emit:</text>
<text text-anchor="start" x="546.5" y="-60" font-family="Arial" font-size="10.00">  approved → project.approved</text>
<text text-anchor="start" x="522.5" y="-48" font-family="Arial" font-weight="bold" font-size="10.00">payload:</text>
<text text-anchor="start" x="562.5" y="-48" font-family="Arial" font-size="10.00">  payload</text>
<text text-anchor="start" x="602.5" y="-48" font-family="Arial" font-size="8.00" fill="#94a3b8">  ProjectApproved</text>
<polygon fill="none" stroke="#2563eb" points="516,-38 516,-292 755,-292 755,-38 516,-38"/>
</g>
<!-- entrypoint_input_cli_project_approve&#45;&gt;entrypoint_target_project_approve -->
<g id="edge3" class="edge">
<title>entrypoint_input_cli_project_approve&#45;&gt;entrypoint_target_project_approve</title>
<path fill="none" stroke="#3f3f46" d="M455.16,-165C470.93,-165 488.86,-165 507.15,-165"/>
<polygon fill="#3f3f46" stroke="#3f3f46" points="507.57,-167.8 515.57,-165 507.57,-162.2 507.57,-167.8"/>
</g>
<!-- entrypoint_response_cli_project_approve_approved -->
<g id="node6" class="node">
<title>entrypoint_response_cli_project_approve_approved</title>
<polygon fill="#ffffff" stroke="transparent" points="817,-238 817,-330 951,-330 951,-238 817,-238"/>
<polygon fill="#64748b" stroke="transparent" points="818,-321 818,-329 950,-329 950,-321 818,-321"/>
<polygon fill="#f8fafc" stroke="transparent" points="818,-290 818,-321 950,-321 950,-290 818,-290"/>
<text text-anchor="start" x="822" y="-307.6" font-family="Arial" font-weight="bold" font-size="13.00">approved</text>
<text text-anchor="start" x="822" y="-296.6" font-family="Arial" font-size="8.00" fill="#64748b">success response</text>
<text text-anchor="start" x="822" y="-279" font-family="Arial" font-weight="bold" font-size="10.00">stdout</text>
<text text-anchor="start" x="822" y="-268" font-family="Arial" font-size="10.00">stdout</text>
<text text-anchor="start" x="850" y="-268" font-family="Arial" font-size="8.00" fill="#94a3b8">  Project</text>
<text text-anchor="start" x="880" y="-268" font-family="Arial" font-size="8.00"> ← outcome.result</text>
<text text-anchor="start" x="823" y="-248" font-family="Arial" font-weight="bold" font-size="10.00">exit_code:</text>
<text text-anchor="start" x="871" y="-248" font-family="Arial" font-size="10.00">  0</text>
<polygon fill="none" stroke="#64748b" points="817,-238 817,-330 951,-330 951,-238 817,-238"/>
</g>
<!-- entrypoint_target_project_approve&#45;&gt;entrypoint_response_cli_project_approve_approved -->
<g id="edge4" class="edge">
<title>entrypoint_target_project_approve&#45;&gt;entrypoint_response_cli_project_approve_approved</title>
<path fill="none" stroke="#3f3f46" d="M755.06,-222.23C773.62,-231.2 792.32,-240.23 809.48,-248.51"/>
<polygon fill="#3f3f46" stroke="#3f3f46" points="808.32,-251.05 816.74,-252.01 810.75,-246.01 808.32,-251.05"/>
</g>
<!-- entrypoint_response_cli_project_approve_invalid_state -->
<g id="node7" class="node">
<title>entrypoint_response_cli_project_approve_invalid_state</title>
<polygon fill="#ffffff" stroke="transparent" points="816,-119 816,-211 952,-211 952,-119 816,-119"/>
<polygon fill="#64748b" stroke="transparent" points="817,-202 817,-210 951,-210 951,-202 817,-202"/>
<polygon fill="#f8fafc" stroke="transparent" points="817,-171 817,-202 951,-202 951,-171 817,-171"/>
<text text-anchor="start" x="821" y="-188.6" font-family="Arial" font-weight="bold" font-size="13.00">invalid_state</text>
<text text-anchor="start" x="821" y="-177.6" font-family="Arial" font-size="8.00" fill="#64748b">failure response</text>
<text text-anchor="start" x="821" y="-160" font-family="Arial" font-weight="bold" font-size="10.00">stderr</text>
<text text-anchor="start" x="821" y="-149" font-family="Arial" font-size="10.00">stderr</text>
<text text-anchor="start" x="846" y="-149" font-family="Arial" font-size="8.00" fill="#94a3b8">  Problem</text>
<text text-anchor="start" x="881" y="-149" font-family="Arial" font-size="8.00"> ← outcome.result</text>
<text text-anchor="start" x="822" y="-129" font-family="Arial" font-weight="bold" font-size="10.00">exit_code:</text>
<text text-anchor="start" x="870" y="-129" font-family="Arial" font-size="10.00">  2</text>
<polygon fill="none" stroke="#64748b" points="816,-119 816,-211 952,-211 952,-119 816,-119"/>
</g>
<!-- entrypoint_target_project_approve&#45;&gt;entrypoint_response_cli_project_approve_invalid_state -->
<g id="edge6" class="edge">
<title>entrypoint_target_project_approve&#45;&gt;entrypoint_response_cli_project_approve_invalid_state</title>
<path fill="none" stroke="#3f3f46" d="M755.06,-165C772.97,-165 791.02,-165 807.68,-165"/>
<polygon fill="#3f3f46" stroke="#3f3f46" points="807.74,-167.8 815.74,-165 807.74,-162.2 807.74,-167.8"/>
</g>
<!-- entrypoint_response_cli_project_approve_not_found -->
<g id="node8" class="node">
<title>entrypoint_response_cli_project_approve_not_found</title>
<polygon fill="#ffffff" stroke="transparent" points="816,0 816,-92 952,-92 952,0 816,0"/>
<polygon fill="#64748b" stroke="transparent" points="817,-83 817,-91 951,-91 951,-83 817,-83"/>
<polygon fill="#f8fafc" stroke="transparent" points="817,-52 817,-83 951,-83 951,-52 817,-52"/>
<text text-anchor="start" x="821" y="-69.6" font-family="Arial" font-weight="bold" font-size="13.00">not_found</text>
<text text-anchor="start" x="821" y="-58.6" font-family="Arial" font-size="8.00" fill="#64748b">failure response</text>
<text text-anchor="start" x="821" y="-41" font-family="Arial" font-weight="bold" font-size="10.00">stderr</text>
<text text-anchor="start" x="821" y="-30" font-family="Arial" font-size="10.00">stderr</text>
<text text-anchor="start" x="846" y="-30" font-family="Arial" font-size="8.00" fill="#94a3b8">  Problem</text>
<text text-anchor="start" x="881" y="-30" font-family="Arial" font-size="8.00"> ← outcome.result</text>
<text text-anchor="start" x="822" y="-10" font-family="Arial" font-weight="bold" font-size="10.00">exit_code:</text>
<text text-anchor="start" x="870" y="-10" font-family="Arial" font-size="10.00">  3</text>
<polygon fill="none" stroke="#64748b" points="816,0 816,-92 952,-92 952,0 816,0"/>
</g>
<!-- entrypoint_target_project_approve&#45;&gt;entrypoint_response_cli_project_approve_not_found -->
<g id="edge8" class="edge">
<title>entrypoint_target_project_approve&#45;&gt;entrypoint_response_cli_project_approve_not_found</title>
<path fill="none" stroke="#3f3f46" d="M755.06,-107.77C773.13,-99.04 791.34,-90.25 808.13,-82.14"/>
<polygon fill="#3f3f46" stroke="#3f3f46" points="809.75,-84.47 815.74,-78.47 807.32,-79.43 809.75,-84.47"/>
</g>
<!-- entry_exit -->
<g id="node5" class="node">
<title>entry_exit</title>
<ellipse fill="none" stroke="#0891b2" cx="1038" cy="-165" rx="21" ry="21"/>
<ellipse fill="none" stroke="#0891b2" cx="1038" cy="-165" rx="25" ry="25"/>
<text text-anchor="middle" x="1038" y="-162.8" font-family="Arial" font-size="9.00" fill="#155e75">exit</text>
</g>
<!-- entrypoint_response_cli_project_approve_approved&#45;&gt;entry_exit -->
<g id="edge5" class="edge">
<title>entrypoint_response_cli_project_approve_approved&#45;&gt;entry_exit</title>
<path fill="none" stroke="#3f3f46" d="M943.77,-237.99C967.13,-219.7 992.79,-199.62 1011.26,-185.15"/>
<polygon fill="#3f3f46" stroke="#3f3f46" points="1013.15,-187.23 1017.72,-180.09 1009.7,-182.82 1013.15,-187.23"/>
</g>
<!-- entrypoint_response_cli_project_approve_approved&#45;&gt;entrypoint_response_cli_project_approve_invalid_state -->
<!-- entrypoint_response_cli_project_approve_invalid_state&#45;&gt;entry_exit -->
<g id="edge7" class="edge">
<title>entrypoint_response_cli_project_approve_invalid_state&#45;&gt;entry_exit</title>
<path fill="none" stroke="#3f3f46" d="M952.11,-165C970.36,-165 989.31,-165 1004.66,-165"/>
<polygon fill="#3f3f46" stroke="#3f3f46" points="1004.79,-167.8 1012.79,-165 1004.79,-162.2 1004.79,-167.8"/>
</g>
<!-- entrypoint_response_cli_project_approve_invalid_state&#45;&gt;entrypoint_response_cli_project_approve_not_found -->
<!-- entrypoint_response_cli_project_approve_not_found&#45;&gt;entry_exit -->
<g id="edge9" class="edge">
<title>entrypoint_response_cli_project_approve_not_found&#45;&gt;entry_exit</title>
<path fill="none" stroke="#3f3f46" d="M943.77,-92.01C967.13,-110.3 992.79,-130.38 1011.26,-144.85"/>
<polygon fill="#3f3f46" stroke="#3f3f46" points="1009.7,-147.18 1017.72,-149.91 1013.15,-142.77 1009.7,-147.18"/>
</g>
</g>
</svg>
