<svg width="1087pt" height="171pt"
 viewBox="0.00 0.00 1087.00 171.00" xmlns="http://www.w3.org/2000/svg" xmlns:xlink="http://www.w3.org/1999/xlink">
<!-- pyspec-contract-input-sha256: b3188729134d098b6395c6f48209a5a320317ef7e0510e5865b3a0ad03198298 -->
<g id="graph0" class="graph" transform="scale(1 1) rotate(0) translate(18 153)">
<title>entrypoint_cli_project_approve</title>
<!-- entry_start -->
<g id="node1" class="node">
<title>entry_start</title>
<ellipse fill="none" stroke="#0891b2" cx="21" cy="-67.5" rx="21" ry="21"/>
<text text-anchor="middle" x="21" y="-65.3" font-family="Arial" font-size="9.00" fill="#155e75">entry</text>
</g>
<!-- entrypoint_cli_project_approve -->
<g id="node2" class="node">
<title>entrypoint_cli_project_approve</title>
<polygon fill="#ffffff" stroke="transparent" points="103,-27 103,-108 284,-108 284,-27 103,-27"/>
<polygon fill="#0891b2" stroke="transparent" points="104.5,-98.5 104.5,-106.5 283.5,-106.5 283.5,-98.5 104.5,-98.5"/>
<polygon fill="#ecfeff" stroke="transparent" points="104.5,-67.5 104.5,-98.5 283.5,-98.5 283.5,-67.5 104.5,-67.5"/>
<text text-anchor="start" x="108.5" y="-85.1" font-family="Arial" font-weight="bold" font-size="13.00">project approve</text>
<text text-anchor="start" x="108.5" y="-74.1" font-family="Arial" font-size="8.00" fill="#64748b">cli entry</text>
<text text-anchor="start" x="108.5" y="-56.5" font-family="Arial" font-style="italic" font-size="10.00" fill="#3f3f46">CLI entry for approval automation.</text>
<text text-anchor="start" x="109.5" y="-36.5" font-family="Arial" font-weight="bold" font-size="10.00">command:</text>
<text text-anchor="start" x="159.5" y="-36.5" font-family="Arial" font-size="10.00">  command.project.approve</text>
<polygon fill="none" stroke="#0891b2" points="103,-27 103,-108 284,-108 284,-27 103,-27"/>
</g>
<!-- entry_start&#45;&gt;entrypoint_cli_project_approve -->
<g id="edge1" class="edge">
<title>entry_start&#45;&gt;entrypoint_cli_project_approve</title>
<path fill="none" stroke="#3f3f46" d="M42.23,-67.5C55.86,-67.5 74.94,-67.5 94.95,-67.5"/>
<polygon fill="#3f3f46" stroke="#3f3f46" points="94.96,-70.3 102.96,-67.5 94.96,-64.7 94.96,-70.3"/>
</g>
<!-- entrypoint_input_cli_project_approve -->
<g id="node3" class="node">
<title>entrypoint_input_cli_project_approve</title>
<polygon fill="#ffffff" stroke="transparent" points="345,-32 345,-103 455,-103 455,-32 345,-32"/>
<polygon fill="#64748b" stroke="transparent" points="346,-93.5 346,-101.5 454,-101.5 454,-93.5 346,-93.5"/>
<polygon fill="#f8fafc" stroke="transparent" points="346,-62.5 346,-93.5 454,-93.5 454,-62.5 346,-62.5"/>
<text text-anchor="start" x="350" y="-80.1" font-family="Arial" font-weight="bold" font-size="13.00">command input</text>
<text text-anchor="start" x="350" y="-69.1" font-family="Arial" font-size="8.00" fill="#64748b">external data</text>
<text text-anchor="start" x="350" y="-51.5" font-family="Arial" font-weight="bold" font-size="10.00">args</text>
<text text-anchor="start" x="350" y="-40.5" font-family="Arial" font-size="10.00">project_id</text>
<text text-anchor="start" x="393" y="-40.5" font-family="Arial" font-size="8.00" fill="#94a3b8">  ID</text>
<polygon fill="none" stroke="#64748b" points="345,-32 345,-103 455,-103 455,-32 345,-32"/>
</g>
<!-- entrypoint_cli_project_approve&#45;&gt;entrypoint_input_cli_project_approve -->
<g id="edge2" class="edge">
<title>entrypoint_cli_project_approve&#45;&gt;entrypoint_input_cli_project_approve</title>
<path fill="none" stroke="#3f3f46" d="M284.2,-67.5C302,-67.5 320.31,-67.5 336.94,-67.5"/>
<polygon fill="#3f3f46" stroke="#3f3f46" points="336.96,-70.3 344.96,-67.5 336.96,-64.7 336.96,-70.3"/>
</g>
<!-- entrypoint_target_project_approve -->
<g id="node4" class="node">
<title>entrypoint_target_project_approve</title>
<polygon fill="#ffffff" stroke="transparent" points="516,0 516,-135 755,-135 755,0 516,0"/>
<polygon fill="#2563eb" stroke="transparent" points="517.5,-125.5 517.5,-133.5 754.5,-133.5 754.5,-125.5 517.5,-125.5"/>
<polygon fill="#eff6ff" stroke="transparent" points="517.5,-94.5 517.5,-125.5 754.5,-125.5 754.5,-94.5 517.5,-94.5"/>
<text text-anchor="start" x="521.5" y="-112.1" font-family="Arial" font-weight="bold" font-size="13.00">project.approve</text>
<text text-anchor="start" x="521.5" y="-101.1" font-family="Arial" font-size="8.00" fill="#64748b">target capability</text>
<text text-anchor="start" x="521.5" y="-83.5" font-family="Arial" font-style="italic" font-size="10.00" fill="#3f3f46">Reviewers can approve submitted dispatch projects.</text>
<text text-anchor="start" x="521.5" y="-64.5" font-family="Arial" font-weight="bold" font-size="10.00">transitions</text>
<text text-anchor="start" x="521.5" y="-53.5" font-family="Arial" font-size="10.00">Project.status</text>
<text text-anchor="start" x="582.5" y="-53.5" font-family="Arial" font-size="8.00" fill="#94a3b8">  ProjectStatus</text>
<text text-anchor="start" x="634.5" y="-53.5" font-family="Arial" font-size="8.00">  submitted → approved</text>
<text text-anchor="start" x="522.5" y="-33.5" font-family="Arial" font-weight="bold" font-size="10.00">input:</text>
<text text-anchor="start" x="550.5" y="-33.5" font-family="Arial" font-size="10.00">  project_id</text>
<text text-anchor="start" x="599.5" y="-33.5" font-family="Arial" font-size="8.00" fill="#94a3b8">  ID</text>
<text text-anchor="start" x="522.5" y="-21.5" font-family="Arial" font-weight="bold" font-size="10.00">emit:</text>
<text text-anchor="start" x="546.5" y="-21.5" font-family="Arial" font-size="10.00">  project.approved</text>
<text text-anchor="start" x="522.5" y="-9.5" font-family="Arial" font-weight="bold" font-size="10.00">payload:</text>
<text text-anchor="start" x="562.5" y="-9.5" font-family="Arial" font-size="10.00">  payload</text>
<text text-anchor="start" x="602.5" y="-9.5" font-family="Arial" font-size="8.00" fill="#94a3b8">  Project</text>
<polygon fill="none" stroke="#2563eb" points="516,0 516,-135 755,-135 755,0 516,0"/>
</g>
<!-- entrypoint_input_cli_project_approve&#45;&gt;entrypoint_target_project_approve -->
<g id="edge3" class="edge">
<title>entrypoint_input_cli_project_approve&#45;&gt;entrypoint_target_project_approve</title>
<path fill="none" stroke="#3f3f46" d="M455.16,-67.5C470.93,-67.5 488.86,-67.5 507.15,-67.5"/>
<polygon fill="#3f3f46" stroke="#3f3f46" points="507.57,-70.3 515.57,-67.5 507.57,-64.7 507.57,-70.3"/>
</g>
<!-- entrypoint_output_cli_project_approve -->
<g id="node6" class="node">
<title>entrypoint_output_cli_project_approve</title>
<polygon fill="#ffffff" stroke="transparent" points="816,-21.5 816,-113.5 940,-113.5 940,-21.5 816,-21.5"/>
<polygon fill="#64748b" stroke="transparent" points="817,-104.5 817,-112.5 939,-112.5 939,-104.5 817,-104.5"/>
<polygon fill="#f8fafc" stroke="transparent" points="817,-73.5 817,-104.5 939,-104.5 939,-73.5 817,-73.5"/>
<text text-anchor="start" x="821" y="-91.1" font-family="Arial" font-weight="bold" font-size="13.00">command output</text>
<text text-anchor="start" x="821" y="-80.1" font-family="Arial" font-size="8.00" fill="#64748b">external result</text>
<text text-anchor="start" x="821" y="-62.5" font-family="Arial" font-weight="bold" font-size="10.00">stdout</text>
<text text-anchor="start" x="821" y="-51.5" font-family="Arial" font-size="10.00">stdout</text>
<text text-anchor="start" x="849" y="-51.5" font-family="Arial" font-size="8.00" fill="#94a3b8">  Project</text>
<text text-anchor="start" x="879" y="-51.5" font-family="Arial" font-size="8.00"> ← target.result</text>
<text text-anchor="start" x="822" y="-31.5" font-family="Arial" font-weight="bold" font-size="10.00">exit_code:</text>
<text text-anchor="start" x="870" y="-31.5" font-family="Arial" font-size="10.00">  0</text>
<polygon fill="none" stroke="#64748b" points="816,-21.5 816,-113.5 940,-113.5 940,-21.5 816,-21.5"/>
</g>
<!-- entrypoint_target_project_approve&#45;&gt;entrypoint_output_cli_project_approve -->
<g id="edge4" class="edge">
<title>entrypoint_target_project_approve&#45;&gt;entrypoint_output_cli_project_approve</title>
<path fill="none" stroke="#3f3f46" d="M755.34,-67.5C773.18,-67.5 791.06,-67.5 807.41,-67.5"/>
<polygon fill="#3f3f46" stroke="#3f3f46" points="807.81,-70.3 815.81,-67.5 807.81,-64.7 807.81,-70.3"/>
</g>
<!-- entry_exit -->
<g id="node5" class="node">
<title>entry_exit</title>
<ellipse fill="none" stroke="#0891b2" cx="1026" cy="-67.5" rx="21" ry="21"/>
<ellipse fill="none" stroke="#0891b2" cx="1026" cy="-67.5" rx="25" ry="25"/>
<text text-anchor="middle" x="1026" y="-65.3" font-family="Arial" font-size="9.00" fill="#155e75">exit</text>
</g>
<!-- entrypoint_output_cli_project_approve&#45;&gt;entry_exit -->
<g id="edge5" class="edge">
<title>entrypoint_output_cli_project_approve&#45;&gt;entry_exit</title>
<path fill="none" stroke="#3f3f46" d="M940.07,-67.5C958.14,-67.5 977.2,-67.5 992.68,-67.5"/>
<polygon fill="#3f3f46" stroke="#3f3f46" points="992.89,-70.3 1000.89,-67.5 992.89,-64.7 992.89,-70.3"/>
</g>
</g>
</svg>
