<svg width="761pt" height="153pt"
 viewBox="0.00 0.00 761.00 153.00" xmlns="http://www.w3.org/2000/svg" xmlns:xlink="http://www.w3.org/1999/xlink">
<g id="graph0" class="graph" transform="scale(1 1) rotate(0) translate(18 135)">
<title>entrypoint_cli_project_approve</title>
<!-- entry_start -->
<g id="node1" class="node">
<title>entry_start</title>
<ellipse fill="none" stroke="#0891b2" cx="21" cy="-58.5" rx="21" ry="21"/>
<text text-anchor="middle" x="21" y="-56.3" font-family="Arial" font-size="9.00" fill="#155e75">entry</text>
</g>
<!-- entrypoint_cli_project_approve -->
<g id="node2" class="node">
<title>entrypoint_cli_project_approve</title>
<polygon fill="#ffffff" stroke="transparent" points="103,-18 103,-99 284,-99 284,-18 103,-18"/>
<polygon fill="#0891b2" stroke="transparent" points="104.5,-89.5 104.5,-97.5 283.5,-97.5 283.5,-89.5 104.5,-89.5"/>
<polygon fill="#ecfeff" stroke="transparent" points="104.5,-58.5 104.5,-89.5 283.5,-89.5 283.5,-58.5 104.5,-58.5"/>
<text text-anchor="start" x="108.5" y="-76.1" font-family="Arial" font-weight="bold" font-size="13.00">project approve</text>
<text text-anchor="start" x="108.5" y="-65.1" font-family="Arial" font-size="8.00" fill="#64748b">cli entry</text>
<text text-anchor="start" x="108.5" y="-47.5" font-family="Arial" font-style="italic" font-size="10.00" fill="#3f3f46">CLI entry for approval automation.</text>
<text text-anchor="start" x="109.5" y="-27.5" font-family="Arial" font-weight="bold" font-size="10.00">command:</text>
<text text-anchor="start" x="159.5" y="-27.5" font-family="Arial" font-size="10.00">  command.project.approve</text>
<polygon fill="none" stroke="#0891b2" points="103,-18 103,-99 284,-99 284,-18 103,-18"/>
</g>
<!-- entry_start&#45;&gt;entrypoint_cli_project_approve -->
<g id="edge1" class="edge">
<title>entry_start&#45;&gt;entrypoint_cli_project_approve</title>
<path fill="none" stroke="#3f3f46" d="M42.23,-58.5C55.86,-58.5 74.94,-58.5 94.95,-58.5"/>
<polygon fill="#3f3f46" stroke="#3f3f46" points="94.96,-61.3 102.96,-58.5 94.96,-55.7 94.96,-61.3"/>
</g>
<!-- entrypoint_input_cli_project_approve -->
<g id="node3" class="node">
<title>entrypoint_input_cli_project_approve</title>
<polygon fill="#ffffff" stroke="transparent" points="345,-23 345,-94 425,-94 425,-23 345,-23"/>
<polygon fill="#64748b" stroke="transparent" points="346,-84.5 346,-92.5 424,-92.5 424,-84.5 346,-84.5"/>
<polygon fill="#f8fafc" stroke="transparent" points="346,-53.5 346,-84.5 424,-84.5 424,-53.5 346,-53.5"/>
<text text-anchor="start" x="350" y="-71.1" font-family="Arial" font-weight="bold" font-size="13.00">entry input</text>
<text text-anchor="start" x="350" y="-60.1" font-family="Arial" font-size="8.00" fill="#64748b">external data</text>
<text text-anchor="start" x="350" y="-42.5" font-family="Arial" font-weight="bold" font-size="10.00">args</text>
<text text-anchor="start" x="350" y="-31.5" font-family="Arial" font-size="10.00">project_id</text>
<text text-anchor="start" x="393" y="-31.5" font-family="Arial" font-size="8.00" fill="#94a3b8">  ID</text>
<polygon fill="none" stroke="#64748b" points="345,-23 345,-94 425,-94 425,-23 345,-23"/>
</g>
<!-- entrypoint_cli_project_approve&#45;&gt;entrypoint_input_cli_project_approve -->
<g id="edge2" class="edge">
<title>entrypoint_cli_project_approve&#45;&gt;entrypoint_input_cli_project_approve</title>
<path fill="none" stroke="#3f3f46" d="M284.26,-58.5C302.34,-58.5 320.67,-58.5 336.6,-58.5"/>
<polygon fill="#3f3f46" stroke="#3f3f46" points="336.69,-61.3 344.69,-58.5 336.69,-55.7 336.69,-61.3"/>
</g>
<!-- entrypoint_target_project_approve -->
<g id="node4" class="node">
<title>entrypoint_target_project_approve</title>
<polygon fill="#ffffff" stroke="transparent" points="486,0 486,-117 725,-117 725,0 486,0"/>
<polygon fill="#2563eb" stroke="transparent" points="487.5,-107.5 487.5,-115.5 724.5,-115.5 724.5,-107.5 487.5,-107.5"/>
<polygon fill="#eff6ff" stroke="transparent" points="487.5,-76.5 487.5,-107.5 724.5,-107.5 724.5,-76.5 487.5,-76.5"/>
<text text-anchor="start" x="491.5" y="-94.1" font-family="Arial" font-weight="bold" font-size="13.00">project.approve</text>
<text text-anchor="start" x="491.5" y="-83.1" font-family="Arial" font-size="8.00" fill="#64748b">target capability</text>
<text text-anchor="start" x="491.5" y="-65.5" font-family="Arial" font-style="italic" font-size="10.00" fill="#3f3f46">Reviewers can approve submitted dispatch projects.</text>
<text text-anchor="start" x="492.5" y="-45.5" font-family="Arial" font-weight="bold" font-size="10.00">resource:</text>
<text text-anchor="start" x="536.5" y="-45.5" font-family="Arial" font-size="10.00">  Project</text>
<text text-anchor="start" x="492.5" y="-33.5" font-family="Arial" font-weight="bold" font-size="10.00">input:</text>
<text text-anchor="start" x="520.5" y="-33.5" font-family="Arial" font-size="10.00">  project_id</text>
<text text-anchor="start" x="569.5" y="-33.5" font-family="Arial" font-size="8.00" fill="#94a3b8">  ID</text>
<text text-anchor="start" x="492.5" y="-21.5" font-family="Arial" font-weight="bold" font-size="10.00">output:</text>
<text text-anchor="start" x="526.5" y="-21.5" font-family="Arial" font-size="10.00">  result</text>
<text text-anchor="start" x="557.5" y="-21.5" font-family="Arial" font-size="8.00" fill="#94a3b8">  Project</text>
<text text-anchor="start" x="492.5" y="-9.5" font-family="Arial" font-weight="bold" font-size="10.00">emits:</text>
<text text-anchor="start" x="521.5" y="-9.5" font-family="Arial" font-size="10.00">  project.approved</text>
<polygon fill="none" stroke="#2563eb" points="486,0 486,-117 725,-117 725,0 486,0"/>
</g>
<!-- entrypoint_input_cli_project_approve&#45;&gt;entrypoint_target_project_approve -->
<g id="edge3" class="edge">
<title>entrypoint_input_cli_project_approve&#45;&gt;entrypoint_target_project_approve</title>
<path fill="none" stroke="#3f3f46" d="M425.06,-58.5C440.21,-58.5 458.47,-58.5 477.47,-58.5"/>
<polygon fill="#3f3f46" stroke="#3f3f46" points="477.66,-61.3 485.66,-58.5 477.66,-55.7 477.66,-61.3"/>
</g>
</g>
</svg>
