<svg width="1163pt" height="140pt"
 viewBox="0.00 0.00 1163.00 140.00" xmlns="http://www.w3.org/2000/svg" xmlns:xlink="http://www.w3.org/1999/xlink">
<g id="graph0" class="graph" transform="scale(1 1) rotate(0) translate(18 122)">
<title>entrypoint_api_project_list</title>
<!-- entry_start -->
<g id="node1" class="node">
<title>entry_start</title>
<ellipse fill="none" stroke="#0891b2" cx="21" cy="-52" rx="21" ry="21"/>
<text text-anchor="middle" x="21" y="-49.8" font-family="Arial" font-size="9.00" fill="#155e75">entry</text>
</g>
<!-- entrypoint_api_project_list -->
<g id="node2" class="node">
<title>entrypoint_api_project_list</title>
<polygon fill="#ffffff" stroke="transparent" points="103,-11.5 103,-92.5 384,-92.5 384,-11.5 103,-11.5"/>
<polygon fill="#0891b2" stroke="transparent" points="104.5,-83 104.5,-91 383.5,-91 383.5,-83 104.5,-83"/>
<polygon fill="#ecfeff" stroke="transparent" points="104.5,-52 104.5,-83 383.5,-83 383.5,-52 104.5,-52"/>
<text text-anchor="start" x="108.5" y="-69.6" font-family="Arial" font-weight="bold" font-size="13.00">GET /workspaces/{workspace_id}/projects</text>
<text text-anchor="start" x="108.5" y="-58.6" font-family="Arial" font-size="8.00" fill="#64748b">api entry</text>
<text text-anchor="start" x="108.5" y="-41" font-family="Arial" font-style="italic" font-size="10.00" fill="#3f3f46">HTTP endpoint for listing dispatch projects.</text>
<text text-anchor="start" x="109.5" y="-21" font-family="Arial" font-weight="bold" font-size="10.00">endpoint:</text>
<text text-anchor="start" x="154.5" y="-21" font-family="Arial" font-size="10.00">  endpoint.project.list</text>
<polygon fill="none" stroke="#0891b2" points="103,-11.5 103,-92.5 384,-92.5 384,-11.5 103,-11.5"/>
</g>
<!-- entry_start&#45;&gt;entrypoint_api_project_list -->
<g id="edge1" class="edge">
<title>entry_start&#45;&gt;entrypoint_api_project_list</title>
<path fill="none" stroke="#3f3f46" d="M42.35,-52C55.63,-52 74.3,-52 94.95,-52"/>
<polygon fill="#3f3f46" stroke="#3f3f46" points="94.95,-54.8 102.95,-52 94.95,-49.2 94.95,-54.8"/>
</g>
<!-- entrypoint_input_api_project_list -->
<g id="node3" class="node">
<title>entrypoint_input_api_project_list</title>
<polygon fill="#ffffff" stroke="transparent" points="445,-16.5 445,-87.5 529,-87.5 529,-16.5 445,-16.5"/>
<polygon fill="#64748b" stroke="transparent" points="446,-78 446,-86 528,-86 528,-78 446,-78"/>
<polygon fill="#f8fafc" stroke="transparent" points="446,-47 446,-78 528,-78 528,-47 446,-47"/>
<text text-anchor="start" x="450" y="-64.6" font-family="Arial" font-weight="bold" font-size="13.00">request</text>
<text text-anchor="start" x="450" y="-53.6" font-family="Arial" font-size="8.00" fill="#64748b">external data</text>
<text text-anchor="start" x="450" y="-36" font-family="Arial" font-weight="bold" font-size="10.00">params</text>
<text text-anchor="start" x="450" y="-25" font-family="Arial" font-size="10.00">workspace_id</text>
<text text-anchor="start" x="511" y="-25" font-family="Arial" font-size="8.00" fill="#94a3b8">  ID</text>
<polygon fill="none" stroke="#64748b" points="445,-16.5 445,-87.5 529,-87.5 529,-16.5 445,-16.5"/>
</g>
<!-- entrypoint_api_project_list&#45;&gt;entrypoint_input_api_project_list -->
<g id="edge2" class="edge">
<title>entrypoint_api_project_list&#45;&gt;entrypoint_input_api_project_list</title>
<path fill="none" stroke="#3f3f46" d="M384.28,-52C402.94,-52 420.98,-52 436.55,-52"/>
<polygon fill="#3f3f46" stroke="#3f3f46" points="436.93,-54.8 444.93,-52 436.93,-49.2 436.93,-54.8"/>
</g>
<!-- entrypoint_target_project_list -->
<g id="node4" class="node">
<title>entrypoint_target_project_list</title>
<polygon fill="#ffffff" stroke="transparent" points="590,0 590,-104 813,-104 813,0 590,0"/>
<polygon fill="#2563eb" stroke="transparent" points="591.5,-95 591.5,-103 812.5,-103 812.5,-95 591.5,-95"/>
<polygon fill="#eff6ff" stroke="transparent" points="591.5,-64 591.5,-95 812.5,-95 812.5,-64 591.5,-64"/>
<text text-anchor="start" x="595.5" y="-81.6" font-family="Arial" font-weight="bold" font-size="13.00">project.list</text>
<text text-anchor="start" x="595.5" y="-70.6" font-family="Arial" font-size="8.00" fill="#64748b">target capability</text>
<text text-anchor="start" x="595.5" y="-53" font-family="Arial" font-style="italic" font-size="10.00" fill="#3f3f46">The board requires a project list query scoped by</text>
<text text-anchor="start" x="595.5" y="-42" font-family="Arial" font-style="italic" font-size="10.00" fill="#3f3f46">workspace.</text>
<text text-anchor="start" x="596.5" y="-22" font-family="Arial" font-weight="bold" font-size="10.00">reads:</text>
<text text-anchor="start" x="625.5" y="-22" font-family="Arial" font-size="10.00">  Project</text>
<text text-anchor="start" x="596.5" y="-10" font-family="Arial" font-weight="bold" font-size="10.00">input:</text>
<text text-anchor="start" x="624.5" y="-10" font-family="Arial" font-size="10.00">  workspace_id</text>
<text text-anchor="start" x="691.5" y="-10" font-family="Arial" font-size="8.00" fill="#94a3b8">  ID</text>
<polygon fill="none" stroke="#2563eb" points="590,0 590,-104 813,-104 813,0 590,0"/>
</g>
<!-- entrypoint_input_api_project_list&#45;&gt;entrypoint_target_project_list -->
<g id="edge3" class="edge">
<title>entrypoint_input_api_project_list&#45;&gt;entrypoint_target_project_list</title>
<path fill="none" stroke="#3f3f46" d="M529.22,-52C544.54,-52 562.78,-52 581.56,-52"/>
<polygon fill="#3f3f46" stroke="#3f3f46" points="581.63,-54.8 589.63,-52 581.63,-49.2 581.63,-54.8"/>
</g>
<!-- entrypoint_output_api_project_list -->
<g id="node6" class="node">
<title>entrypoint_output_api_project_list</title>
<polygon fill="#ffffff" stroke="transparent" points="874,-6 874,-98 1016,-98 1016,-6 874,-6"/>
<polygon fill="#64748b" stroke="transparent" points="875,-89 875,-97 1015,-97 1015,-89 875,-89"/>
<polygon fill="#f8fafc" stroke="transparent" points="875,-58 875,-89 1015,-89 1015,-58 875,-58"/>
<text text-anchor="start" x="879" y="-75.6" font-family="Arial" font-weight="bold" font-size="13.00">response</text>
<text text-anchor="start" x="879" y="-64.6" font-family="Arial" font-size="8.00" fill="#64748b">external result</text>
<text text-anchor="start" x="880" y="-46" font-family="Arial" font-weight="bold" font-size="10.00">status:</text>
<text text-anchor="start" x="911" y="-46" font-family="Arial" font-size="10.00">  200</text>
<text text-anchor="start" x="879" y="-26" font-family="Arial" font-weight="bold" font-size="10.00">body</text>
<text text-anchor="start" x="879" y="-15" font-family="Arial" font-size="10.00">body</text>
<text text-anchor="start" x="901" y="-15" font-family="Arial" font-size="8.00" fill="#94a3b8">  list[Project]</text>
<text text-anchor="start" x="944" y="-15" font-family="Arial" font-size="10.00"> &lt;&#45; target.result</text>
<polygon fill="none" stroke="#64748b" points="874,-6 874,-98 1016,-98 1016,-6 874,-6"/>
</g>
<!-- entrypoint_target_project_list&#45;&gt;entrypoint_output_api_project_list -->
<g id="edge4" class="edge">
<title>entrypoint_target_project_list&#45;&gt;entrypoint_output_api_project_list</title>
<path fill="none" stroke="#3f3f46" d="M813,-52C830.83,-52 848.95,-52 865.81,-52"/>
<polygon fill="#3f3f46" stroke="#3f3f46" points="865.97,-54.8 873.97,-52 865.97,-49.2 865.97,-54.8"/>
</g>
<!-- entry_exit -->
<g id="node5" class="node">
<title>entry_exit</title>
<ellipse fill="none" stroke="#0891b2" cx="1102" cy="-52" rx="21" ry="21"/>
<ellipse fill="none" stroke="#0891b2" cx="1102" cy="-52" rx="25" ry="25"/>
<text text-anchor="middle" x="1102" y="-49.8" font-family="Arial" font-size="9.00" fill="#155e75">exit</text>
</g>
<!-- entrypoint_output_api_project_list&#45;&gt;entry_exit -->
<g id="edge5" class="edge">
<title>entrypoint_output_api_project_list&#45;&gt;entry_exit</title>
<path fill="none" stroke="#3f3f46" d="M1016.24,-52C1034.63,-52 1053.56,-52 1068.85,-52"/>
<polygon fill="#3f3f46" stroke="#3f3f46" points="1068.95,-54.8 1076.95,-52 1068.95,-49.2 1068.95,-54.8"/>
</g>
</g>
</svg>
