<svg width="849pt" height="152pt"
 viewBox="0.00 0.00 849.00 152.00" xmlns="http://www.w3.org/2000/svg" xmlns:xlink="http://www.w3.org/1999/xlink">
<g id="graph0" class="graph" transform="scale(1 1) rotate(0) translate(18 134)">
<title>entrypoint_api_project_list</title>
<!-- entry_start -->
<g id="node1" class="node">
<title>entry_start</title>
<ellipse fill="none" stroke="#0891b2" cx="21" cy="-58" rx="21" ry="21"/>
<text text-anchor="middle" x="21" y="-55.8" font-family="Arial" font-size="9.00" fill="#155e75">entry</text>
</g>
<!-- entrypoint_api_project_list -->
<g id="node2" class="node">
<title>entrypoint_api_project_list</title>
<polygon fill="#ffffff" stroke="transparent" points="103,-17.5 103,-98.5 384,-98.5 384,-17.5 103,-17.5"/>
<polygon fill="#0891b2" stroke="transparent" points="104.5,-89 104.5,-97 383.5,-97 383.5,-89 104.5,-89"/>
<polygon fill="#ecfeff" stroke="transparent" points="104.5,-58 104.5,-89 383.5,-89 383.5,-58 104.5,-58"/>
<text text-anchor="start" x="108.5" y="-75.6" font-family="Arial" font-weight="bold" font-size="13.00">GET /workspaces/{workspace_id}/projects</text>
<text text-anchor="start" x="108.5" y="-64.6" font-family="Arial" font-size="8.00" fill="#64748b">api entry</text>
<text text-anchor="start" x="108.5" y="-47" font-family="Arial" font-style="italic" font-size="10.00" fill="#3f3f46">HTTP endpoint for listing dispatch projects.</text>
<text text-anchor="start" x="109.5" y="-27" font-family="Arial" font-weight="bold" font-size="10.00">endpoint:</text>
<text text-anchor="start" x="154.5" y="-27" font-family="Arial" font-size="10.00">  endpoint.project.list</text>
<polygon fill="none" stroke="#0891b2" points="103,-17.5 103,-98.5 384,-98.5 384,-17.5 103,-17.5"/>
</g>
<!-- entry_start&#45;&gt;entrypoint_api_project_list -->
<g id="edge1" class="edge">
<title>entry_start&#45;&gt;entrypoint_api_project_list</title>
<path fill="none" stroke="#3f3f46" d="M42.35,-58C55.63,-58 74.3,-58 94.95,-58"/>
<polygon fill="#3f3f46" stroke="#3f3f46" points="94.95,-60.8 102.95,-58 94.95,-55.2 94.95,-60.8"/>
</g>
<!-- entrypoint_input_api_project_list -->
<g id="node3" class="node">
<title>entrypoint_input_api_project_list</title>
<polygon fill="#ffffff" stroke="transparent" points="445,-22.5 445,-93.5 529,-93.5 529,-22.5 445,-22.5"/>
<polygon fill="#64748b" stroke="transparent" points="446,-84 446,-92 528,-92 528,-84 446,-84"/>
<polygon fill="#f8fafc" stroke="transparent" points="446,-53 446,-84 528,-84 528,-53 446,-53"/>
<text text-anchor="start" x="450" y="-70.6" font-family="Arial" font-weight="bold" font-size="13.00">entry input</text>
<text text-anchor="start" x="450" y="-59.6" font-family="Arial" font-size="8.00" fill="#64748b">external data</text>
<text text-anchor="start" x="450" y="-42" font-family="Arial" font-weight="bold" font-size="10.00">params</text>
<text text-anchor="start" x="450" y="-31" font-family="Arial" font-size="10.00">workspace_id</text>
<text text-anchor="start" x="511" y="-31" font-family="Arial" font-size="8.00" fill="#94a3b8">  ID</text>
<polygon fill="none" stroke="#64748b" points="445,-22.5 445,-93.5 529,-93.5 529,-22.5 445,-22.5"/>
</g>
<!-- entrypoint_api_project_list&#45;&gt;entrypoint_input_api_project_list -->
<g id="edge2" class="edge">
<title>entrypoint_api_project_list&#45;&gt;entrypoint_input_api_project_list</title>
<path fill="none" stroke="#3f3f46" d="M384.28,-58C402.94,-58 420.98,-58 436.55,-58"/>
<polygon fill="#3f3f46" stroke="#3f3f46" points="436.93,-60.8 444.93,-58 436.93,-55.2 436.93,-60.8"/>
</g>
<!-- entrypoint_target_project_list -->
<g id="node4" class="node">
<title>entrypoint_target_project_list</title>
<polygon fill="#ffffff" stroke="transparent" points="590,0 590,-116 813,-116 813,0 590,0"/>
<polygon fill="#2563eb" stroke="transparent" points="591.5,-107 591.5,-115 812.5,-115 812.5,-107 591.5,-107"/>
<polygon fill="#eff6ff" stroke="transparent" points="591.5,-76 591.5,-107 812.5,-107 812.5,-76 591.5,-76"/>
<text text-anchor="start" x="595.5" y="-93.6" font-family="Arial" font-weight="bold" font-size="13.00">project.list</text>
<text text-anchor="start" x="595.5" y="-82.6" font-family="Arial" font-size="8.00" fill="#64748b">target capability</text>
<text text-anchor="start" x="595.5" y="-65" font-family="Arial" font-style="italic" font-size="10.00" fill="#3f3f46">The board requires a project list query scoped by</text>
<text text-anchor="start" x="595.5" y="-54" font-family="Arial" font-style="italic" font-size="10.00" fill="#3f3f46">workspace.</text>
<text text-anchor="start" x="596.5" y="-34" font-family="Arial" font-weight="bold" font-size="10.00">resource:</text>
<text text-anchor="start" x="640.5" y="-34" font-family="Arial" font-size="10.00">  Project</text>
<text text-anchor="start" x="596.5" y="-22" font-family="Arial" font-weight="bold" font-size="10.00">input:</text>
<text text-anchor="start" x="624.5" y="-22" font-family="Arial" font-size="10.00">  workspace_id</text>
<text text-anchor="start" x="691.5" y="-22" font-family="Arial" font-size="8.00" fill="#94a3b8">  ID</text>
<text text-anchor="start" x="596.5" y="-10" font-family="Arial" font-weight="bold" font-size="10.00">output:</text>
<text text-anchor="start" x="630.5" y="-10" font-family="Arial" font-size="10.00">  result</text>
<text text-anchor="start" x="661.5" y="-10" font-family="Arial" font-size="8.00" fill="#94a3b8">  list[Project]</text>
<polygon fill="none" stroke="#2563eb" points="590,0 590,-116 813,-116 813,0 590,0"/>
</g>
<!-- entrypoint_input_api_project_list&#45;&gt;entrypoint_target_project_list -->
<g id="edge3" class="edge">
<title>entrypoint_input_api_project_list&#45;&gt;entrypoint_target_project_list</title>
<path fill="none" stroke="#3f3f46" d="M529.22,-58C544.54,-58 562.78,-58 581.56,-58"/>
<polygon fill="#3f3f46" stroke="#3f3f46" points="581.63,-60.8 589.63,-58 581.63,-55.2 581.63,-60.8"/>
</g>
</g>
</svg>
