<svg width="844pt" height="687pt"
 viewBox="0.00 0.00 844.00 687.00" xmlns="http://www.w3.org/2000/svg" xmlns:xlink="http://www.w3.org/1999/xlink">
<!-- pyspec-contract-input-sha256: bc114338c7eb943e297465c4397d336503e6d0421794e6f330f34e987cbdd8bd -->
<g id="graph0" class="graph" transform="scale(1 1) rotate(0) translate(18 669)">
<title>entrypoint_entry_point_cli_project_approve</title>
<!-- entrypoint_entry_point_cli_project_approve -->
<g id="node1" class="node">
<title>entrypoint_entry_point_cli_project_approve</title>
<polygon fill="#ffffff" stroke="transparent" points="0,-264 0,-386 210,-386 210,-264 0,-264"/>
<polygon fill="#0891b2" stroke="transparent" points="1,-377 1,-385 209,-385 209,-377 1,-377"/>
<polygon fill="#ecfeff" stroke="transparent" points="1,-346 1,-377 209,-377 209,-346 1,-346"/>
<text text-anchor="start" x="5" y="-363.6" font-family="Arial" font-weight="bold" font-size="13.00">project approve</text>
<text text-anchor="start" x="5" y="-352.6" font-family="Arial" font-size="8.00" fill="#64748b">cli entry point</text>
<text text-anchor="start" x="5" y="-335" font-family="Arial" font-style="italic" font-size="10.00" fill="#3f3f46">CLI entry for approval automation.</text>
<text text-anchor="start" x="6" y="-315" font-family="Arial" font-weight="bold" font-size="10.00">cli command:</text>
<text text-anchor="start" x="70" y="-315" font-family="Arial" font-size="10.00">  cli_command.project.approve</text>
<text text-anchor="start" x="5" y="-295" font-family="Arial" font-weight="bold" font-size="10.00">args</text>
<text text-anchor="start" x="5" y="-284" font-family="Arial" font-size="10.00">approved_by</text>
<text text-anchor="start" x="61" y="-284" font-family="Arial" font-size="8.00" fill="#94a3b8">  ID</text>
<text text-anchor="start" x="5" y="-273" font-family="Arial" font-size="10.00">project_id</text>
<text text-anchor="start" x="48" y="-273" font-family="Arial" font-size="8.00" fill="#94a3b8">  ID</text>
<polygon fill="none" stroke="#0891b2" points="0,-264 0,-386 210,-386 210,-264 0,-264"/>
</g>
<!-- entrypoint_target_entry_point_api_project_approve -->
<g id="node2" class="node">
<title>entrypoint_target_entry_point_api_project_approve</title>
<polygon fill="#ffffff" stroke="transparent" points="271,-241 271,-409 492,-409 492,-241 271,-241"/>
<polygon fill="#0891b2" stroke="transparent" points="272.5,-400 272.5,-408 491.5,-408 491.5,-400 272.5,-400"/>
<polygon fill="#ecfeff" stroke="transparent" points="272.5,-369 272.5,-400 491.5,-400 491.5,-369 272.5,-369"/>
<text text-anchor="start" x="276.5" y="-386.6" font-family="Arial" font-weight="bold" font-size="13.00">entry_point.api.project.approve</text>
<text text-anchor="start" x="276.5" y="-375.6" font-family="Arial" font-size="8.00" fill="#64748b">delegated entry point</text>
<text text-anchor="start" x="276.5" y="-358" font-family="Arial" font-style="italic" font-size="10.00" fill="#3f3f46">HTTP endpoint for approving submitted dispatch</text>
<text text-anchor="start" x="276.5" y="-347" font-family="Arial" font-style="italic" font-size="10.00" fill="#3f3f46">projects.</text>
<text text-anchor="start" x="277.5" y="-327" font-family="Arial" font-weight="bold" font-size="10.00">adapter:</text>
<text text-anchor="start" x="315.5" y="-327" font-family="Arial" font-size="10.00">  http_api</text>
<text text-anchor="start" x="277.5" y="-315" font-family="Arial" font-weight="bold" font-size="10.00">target:</text>
<text text-anchor="start" x="307.5" y="-315" font-family="Arial" font-size="10.00">  operation operation.project.approve</text>
<text text-anchor="start" x="277.5" y="-303" font-family="Arial" font-weight="bold" font-size="10.00">kind:</text>
<text text-anchor="start" x="301.5" y="-303" font-family="Arial" font-size="10.00">  transition</text>
<text text-anchor="start" x="276.5" y="-283" font-family="Arial" font-weight="bold" font-size="10.00">authorization</text>
<text text-anchor="start" x="276.5" y="-271" font-family="Arial" font-size="10.00">policy: authorization_policy.project.reviewer</text>
<text text-anchor="start" x="276.5" y="-260" font-family="Arial" font-size="10.00">unauthenticated_as: unauthenticated</text>
<text text-anchor="start" x="276.5" y="-249" font-family="Arial" font-size="10.00">forbidden_as: forbidden</text>
<polygon fill="none" stroke="#0891b2" points="271,-241 271,-409 492,-409 492,-241 271,-241"/>
</g>
<!-- entrypoint_entry_point_cli_project_approve&#45;&gt;entrypoint_target_entry_point_api_project_approve -->
<g id="edge1" class="edge">
<title>entrypoint_entry_point_cli_project_approve&#45;&gt;entrypoint_target_entry_point_api_project_approve</title>
<path fill="none" stroke="#3f3f46" d="M210.17,-325C227.4,-325 245.37,-325 262.9,-325"/>
<polygon fill="#3f3f46" stroke="#3f3f46" points="262.92,-327.8 270.92,-325 262.92,-322.2 262.92,-327.8"/>
</g>
<!-- entrypoint_response_entry_point_cli_project_approve_approved -->
<g id="node3" class="node">
<title>entrypoint_response_entry_point_cli_project_approve_approved</title>
<polygon fill="#ffffff" stroke="transparent" points="567,-565 567,-651 794,-651 794,-565 567,-565"/>
<polygon fill="#16a34a" stroke="transparent" points="568.5,-642 568.5,-650 793.5,-650 793.5,-642 568.5,-642"/>
<polygon fill="#f0fdf4" stroke="transparent" points="568.5,-611 568.5,-642 793.5,-642 793.5,-611 568.5,-611"/>
<text text-anchor="start" x="572.5" y="-628.6" font-family="Arial" font-weight="bold" font-size="13.00">approved</text>
<text text-anchor="start" x="572.5" y="-617.6" font-family="Arial" font-size="8.00" fill="#64748b">success response handler</text>
<text text-anchor="start" x="573.5" y="-599" font-family="Arial" font-weight="bold" font-size="10.00">stdout:</text>
<text text-anchor="start" x="606.5" y="-599" font-family="Arial" font-size="10.00">  text.project.approve.success</text>
<text text-anchor="start" x="573.5" y="-587" font-family="Arial" font-weight="bold" font-size="10.00">stdout bindings:</text>
<text text-anchor="start" x="650.5" y="-587" font-family="Arial" font-size="10.00">  project_id ← response.body.id</text>
<text text-anchor="start" x="573.5" y="-575" font-family="Arial" font-weight="bold" font-size="10.00">exit_code:</text>
<text text-anchor="start" x="621.5" y="-575" font-family="Arial" font-size="10.00">  0</text>
<polygon fill="none" stroke="#16a34a" points="567,-565 567,-651 794,-651 794,-565 567,-565"/>
</g>
<!-- entrypoint_target_entry_point_api_project_approve&#45;&gt;entrypoint_response_entry_point_cli_project_approve_approved -->
<g id="edge2" class="edge">
<title>entrypoint_target_entry_point_api_project_approve&#45;&gt;entrypoint_response_entry_point_cli_project_approve_approved</title>
<path fill="none" stroke="#3f3f46" d="M430.71,-409.05C460.99,-455.99 503.62,-512.74 553,-552 556.67,-554.92 560.52,-557.72 564.5,-560.4"/>
<polygon fill="#3f3f46" stroke="#3f3f46" points="563.07,-562.81 571.31,-564.81 566.11,-558.11 563.07,-562.81"/>
</g>
<!-- entrypoint_response_entry_point_cli_project_approve_forbidden -->
<g id="node4" class="node">
<title>entrypoint_response_entry_point_cli_project_approve_forbidden</title>
<polygon fill="#ffffff" stroke="transparent" points="553,-452 553,-538 808,-538 808,-452 553,-452"/>
<polygon fill="#dc2626" stroke="transparent" points="554.5,-529 554.5,-537 807.5,-537 807.5,-529 554.5,-529"/>
<polygon fill="#fef2f2" stroke="transparent" points="554.5,-498 554.5,-529 807.5,-529 807.5,-498 554.5,-498"/>
<text text-anchor="start" x="558.5" y="-515.6" font-family="Arial" font-weight="bold" font-size="13.00">forbidden</text>
<text text-anchor="start" x="558.5" y="-504.6" font-family="Arial" font-size="8.00" fill="#64748b">failure response handler</text>
<text text-anchor="start" x="559.5" y="-486" font-family="Arial" font-weight="bold" font-size="10.00">stderr:</text>
<text text-anchor="start" x="590.5" y="-486" font-family="Arial" font-size="10.00">  text.project.approve.forbidden</text>
<text text-anchor="start" x="559.5" y="-474" font-family="Arial" font-weight="bold" font-size="10.00">stderr bindings:</text>
<text text-anchor="start" x="634.5" y="-474" font-family="Arial" font-size="10.00">  message ← response.body.message</text>
<text text-anchor="start" x="559.5" y="-462" font-family="Arial" font-weight="bold" font-size="10.00">exit_code:</text>
<text text-anchor="start" x="607.5" y="-462" font-family="Arial" font-size="10.00">  5</text>
<polygon fill="none" stroke="#dc2626" points="553,-452 553,-538 808,-538 808,-452 553,-452"/>
</g>
<!-- entrypoint_target_entry_point_api_project_approve&#45;&gt;entrypoint_response_entry_point_cli_project_approve_forbidden -->
<g id="edge3" class="edge">
<title>entrypoint_target_entry_point_api_project_approve&#45;&gt;entrypoint_response_entry_point_cli_project_approve_forbidden</title>
<path fill="none" stroke="#3f3f46" d="M492.21,-402.35C512.07,-415.2 532.88,-427.93 553,-439 558.62,-442.09 564.45,-445.15 570.38,-448.15"/>
<polygon fill="#3f3f46" stroke="#3f3f46" points="569.52,-450.85 577.93,-451.91 572.02,-445.84 569.52,-450.85"/>
</g>
<!-- entrypoint_response_entry_point_cli_project_approve_invalid_state -->
<g id="node5" class="node">
<title>entrypoint_response_entry_point_cli_project_approve_invalid_state</title>
<polygon fill="#ffffff" stroke="transparent" points="553,-339 553,-425 808,-425 808,-339 553,-339"/>
<polygon fill="#dc2626" stroke="transparent" points="554.5,-416 554.5,-424 807.5,-424 807.5,-416 554.5,-416"/>
<polygon fill="#fef2f2" stroke="transparent" points="554.5,-385 554.5,-416 807.5,-416 807.5,-385 554.5,-385"/>
<text text-anchor="start" x="558.5" y="-402.6" font-family="Arial" font-weight="bold" font-size="13.00">invalid_state</text>
<text text-anchor="start" x="558.5" y="-391.6" font-family="Arial" font-size="8.00" fill="#64748b">failure response handler</text>
<text text-anchor="start" x="559.5" y="-373" font-family="Arial" font-weight="bold" font-size="10.00">stderr:</text>
<text text-anchor="start" x="590.5" y="-373" font-family="Arial" font-size="10.00">  text.project.approve.invalid_state</text>
<text text-anchor="start" x="559.5" y="-361" font-family="Arial" font-weight="bold" font-size="10.00">stderr bindings:</text>
<text text-anchor="start" x="634.5" y="-361" font-family="Arial" font-size="10.00">  message ← response.body.message</text>
<text text-anchor="start" x="559.5" y="-349" font-family="Arial" font-weight="bold" font-size="10.00">exit_code:</text>
<text text-anchor="start" x="607.5" y="-349" font-family="Arial" font-size="10.00">  2</text>
<polygon fill="none" stroke="#dc2626" points="553,-339 553,-425 808,-425 808,-339 553,-339"/>
</g>
<!-- entrypoint_target_entry_point_api_project_approve&#45;&gt;entrypoint_response_entry_point_cli_project_approve_invalid_state -->
<g id="edge4" class="edge">
<title>entrypoint_target_entry_point_api_project_approve&#45;&gt;entrypoint_response_entry_point_cli_project_approve_invalid_state</title>
<path fill="none" stroke="#3f3f46" d="M492.25,-346.06C509.37,-349.35 527.24,-352.78 544.84,-356.16"/>
<polygon fill="#3f3f46" stroke="#3f3f46" points="544.52,-358.95 552.9,-357.7 545.57,-353.45 544.52,-358.95"/>
</g>
<!-- entrypoint_response_entry_point_cli_project_approve_not_found -->
<g id="node6" class="node">
<title>entrypoint_response_entry_point_cli_project_approve_not_found</title>
<polygon fill="#ffffff" stroke="transparent" points="553,-226 553,-312 808,-312 808,-226 553,-226"/>
<polygon fill="#dc2626" stroke="transparent" points="554.5,-303 554.5,-311 807.5,-311 807.5,-303 554.5,-303"/>
<polygon fill="#fef2f2" stroke="transparent" points="554.5,-272 554.5,-303 807.5,-303 807.5,-272 554.5,-272"/>
<text text-anchor="start" x="558.5" y="-289.6" font-family="Arial" font-weight="bold" font-size="13.00">not_found</text>
<text text-anchor="start" x="558.5" y="-278.6" font-family="Arial" font-size="8.00" fill="#64748b">failure response handler</text>
<text text-anchor="start" x="559.5" y="-260" font-family="Arial" font-weight="bold" font-size="10.00">stderr:</text>
<text text-anchor="start" x="590.5" y="-260" font-family="Arial" font-size="10.00">  text.project.approve.not_found</text>
<text text-anchor="start" x="559.5" y="-248" font-family="Arial" font-weight="bold" font-size="10.00">stderr bindings:</text>
<text text-anchor="start" x="634.5" y="-248" font-family="Arial" font-size="10.00">  message ← response.body.message</text>
<text text-anchor="start" x="559.5" y="-236" font-family="Arial" font-weight="bold" font-size="10.00">exit_code:</text>
<text text-anchor="start" x="607.5" y="-236" font-family="Arial" font-size="10.00">  3</text>
<polygon fill="none" stroke="#dc2626" points="553,-226 553,-312 808,-312 808,-226 553,-226"/>
</g>
<!-- entrypoint_target_entry_point_api_project_approve&#45;&gt;entrypoint_response_entry_point_cli_project_approve_not_found -->
<g id="edge5" class="edge">
<title>entrypoint_target_entry_point_api_project_approve&#45;&gt;entrypoint_response_entry_point_cli_project_approve_not_found</title>
<path fill="none" stroke="#3f3f46" d="M492.25,-304.31C509.37,-301.08 527.24,-297.71 544.84,-294.39"/>
<polygon fill="#3f3f46" stroke="#3f3f46" points="545.56,-297.1 552.9,-292.87 544.52,-291.6 545.56,-297.1"/>
</g>
<!-- entrypoint_response_entry_point_cli_project_approve_unauthenticated -->
<g id="node7" class="node">
<title>entrypoint_response_entry_point_cli_project_approve_unauthenticated</title>
<polygon fill="#ffffff" stroke="transparent" points="553,-113 553,-199 808,-199 808,-113 553,-113"/>
<polygon fill="#dc2626" stroke="transparent" points="554.5,-190 554.5,-198 807.5,-198 807.5,-190 554.5,-190"/>
<polygon fill="#fef2f2" stroke="transparent" points="554.5,-159 554.5,-190 807.5,-190 807.5,-159 554.5,-159"/>
<text text-anchor="start" x="558.5" y="-176.6" font-family="Arial" font-weight="bold" font-size="13.00">unauthenticated</text>
<text text-anchor="start" x="558.5" y="-165.6" font-family="Arial" font-size="8.00" fill="#64748b">failure response handler</text>
<text text-anchor="start" x="559.5" y="-147" font-family="Arial" font-weight="bold" font-size="10.00">stderr:</text>
<text text-anchor="start" x="590.5" y="-147" font-family="Arial" font-size="10.00">  text.project.approve.unauthenticated</text>
<text text-anchor="start" x="559.5" y="-135" font-family="Arial" font-weight="bold" font-size="10.00">stderr bindings:</text>
<text text-anchor="start" x="634.5" y="-135" font-family="Arial" font-size="10.00">  message ← response.body.message</text>
<text text-anchor="start" x="559.5" y="-123" font-family="Arial" font-weight="bold" font-size="10.00">exit_code:</text>
<text text-anchor="start" x="607.5" y="-123" font-family="Arial" font-size="10.00">  4</text>
<polygon fill="none" stroke="#dc2626" points="553,-113 553,-199 808,-199 808,-113 553,-113"/>
</g>
<!-- entrypoint_target_entry_point_api_project_approve&#45;&gt;entrypoint_response_entry_point_cli_project_approve_unauthenticated -->
<g id="edge6" class="edge">
<title>entrypoint_target_entry_point_api_project_approve&#45;&gt;entrypoint_response_entry_point_cli_project_approve_unauthenticated</title>
<path fill="none" stroke="#3f3f46" d="M492.37,-249.21C512.22,-236.56 532.98,-224 553,-213 559.36,-209.51 565.97,-206.05 572.69,-202.66"/>
<polygon fill="#3f3f46" stroke="#3f3f46" points="574.1,-205.09 580.01,-199.02 571.6,-200.08 574.1,-205.09"/>
</g>
<!-- entrypoint_response_entry_point_cli_project_approve_unavailable -->
<g id="node8" class="node">
<title>entrypoint_response_entry_point_cli_project_approve_unavailable</title>
<polygon fill="#ffffff" stroke="transparent" points="586.5,0 586.5,-86 774.5,-86 774.5,0 586.5,0"/>
<polygon fill="#dc2626" stroke="transparent" points="587.5,-77 587.5,-85 773.5,-85 773.5,-77 587.5,-77"/>
<polygon fill="#fef2f2" stroke="transparent" points="587.5,-46 587.5,-77 773.5,-77 773.5,-46 587.5,-46"/>
<text text-anchor="start" x="591.5" y="-63.6" font-family="Arial" font-weight="bold" font-size="13.00">unavailable</text>
<text text-anchor="start" x="591.5" y="-52.6" font-family="Arial" font-size="8.00" fill="#64748b">failure response handler</text>
<text text-anchor="start" x="592.5" y="-34" font-family="Arial" font-weight="bold" font-size="10.00">stderr:</text>
<text text-anchor="start" x="623.5" y="-34" font-family="Arial" font-size="10.00">  text.project.approve.unavailable</text>
<text text-anchor="start" x="592.5" y="-22" font-family="Arial" font-weight="bold" font-size="10.00">exit_code:</text>
<text text-anchor="start" x="640.5" y="-22" font-family="Arial" font-size="10.00">  75</text>
<text text-anchor="start" x="592.5" y="-10" font-family="Arial" font-weight="bold" font-size="10.00">retry:</text>
<text text-anchor="start" x="617.5" y="-10" font-family="Arial" font-size="10.00">  3 exponential</text>
<polygon fill="none" stroke="#dc2626" points="586.5,0 586.5,-86 774.5,-86 774.5,0 586.5,0"/>
</g>
<!-- entrypoint_target_entry_point_api_project_approve&#45;&gt;entrypoint_response_entry_point_cli_project_approve_unavailable -->
<g id="edge7" class="edge">
<title>entrypoint_target_entry_point_api_project_approve&#45;&gt;entrypoint_response_entry_point_cli_project_approve_unavailable</title>
<path fill="none" stroke="#3f3f46" d="M431.67,-240.73C461.98,-194.47 504.32,-138.79 553,-100 561.03,-93.6 569.9,-87.75 579.09,-82.45"/>
<polygon fill="#3f3f46" stroke="#3f3f46" points="580.56,-84.84 586.18,-78.5 577.83,-79.94 580.56,-84.84"/>
</g>
<!-- entrypoint_response_entry_point_cli_project_approve_approved&#45;&gt;entrypoint_response_entry_point_cli_project_approve_forbidden -->
<!-- entrypoint_response_entry_point_cli_project_approve_forbidden&#45;&gt;entrypoint_response_entry_point_cli_project_approve_invalid_state -->
<!-- entrypoint_response_entry_point_cli_project_approve_invalid_state&#45;&gt;entrypoint_response_entry_point_cli_project_approve_not_found -->
<!-- entrypoint_response_entry_point_cli_project_approve_not_found&#45;&gt;entrypoint_response_entry_point_cli_project_approve_unauthenticated -->
<!-- entrypoint_response_entry_point_cli_project_approve_unauthenticated&#45;&gt;entrypoint_response_entry_point_cli_project_approve_unavailable -->
</g>
</svg>
