<svg width="1177pt" height="366pt"
 viewBox="0.00 0.00 1177.00 366.00" xmlns="http://www.w3.org/2000/svg" xmlns:xlink="http://www.w3.org/1999/xlink">
<!-- pyspec-contract-input-sha256: 82c72a49ac7d27e8ec1133f35ca0a846914d3ebb2d535b8569d8416f398b2b0e -->
<g id="graph0" class="graph" transform="scale(1 1) rotate(0) translate(18 348)">
<title>entrypoint_entry_point_cli_project_approve</title>
<!-- entry_start -->
<g id="node1" class="node">
<title>entry_start</title>
<ellipse fill="none" stroke="#0891b2" cx="21" cy="-165" rx="21" ry="21"/>
<text text-anchor="middle" x="21" y="-162.8" font-family="Arial" font-size="9.00" fill="#155e75">entry</text>
</g>
<!-- entrypoint_entry_point_cli_project_approve -->
<g id="node2" class="node">
<title>entrypoint_entry_point_cli_project_approve</title>
<polygon fill="#ffffff" stroke="transparent" points="103,-124.5 103,-205.5 284,-205.5 284,-124.5 103,-124.5"/>
<polygon fill="#0891b2" stroke="transparent" points="104.5,-196 104.5,-204 283.5,-204 283.5,-196 104.5,-196"/>
<polygon fill="#ecfeff" stroke="transparent" points="104.5,-165 104.5,-196 283.5,-196 283.5,-165 104.5,-165"/>
<text text-anchor="start" x="108.5" y="-182.6" font-family="Arial" font-weight="bold" font-size="13.00">project approve</text>
<text text-anchor="start" x="108.5" y="-171.6" font-family="Arial" font-size="8.00" fill="#64748b">cli entry</text>
<text text-anchor="start" x="108.5" y="-154" font-family="Arial" font-style="italic" font-size="10.00" fill="#3f3f46">CLI entry for approval automation.</text>
<text text-anchor="start" x="109.5" y="-134" font-family="Arial" font-weight="bold" font-size="10.00">command:</text>
<text text-anchor="start" x="159.5" y="-134" font-family="Arial" font-size="10.00">  command.project.approve</text>
<polygon fill="none" stroke="#0891b2" points="103,-124.5 103,-205.5 284,-205.5 284,-124.5 103,-124.5"/>
</g>
<!-- entry_start&#45;&gt;entrypoint_entry_point_cli_project_approve -->
<g id="edge1" class="edge">
<title>entry_start&#45;&gt;entrypoint_entry_point_cli_project_approve</title>
<path fill="none" stroke="#3f3f46" d="M42.23,-165C55.86,-165 74.94,-165 94.95,-165"/>
<polygon fill="#3f3f46" stroke="#3f3f46" points="94.96,-167.8 102.96,-165 94.96,-162.2 94.96,-167.8"/>
</g>
<!-- entrypoint_input_entry_point_cli_project_approve -->
<g id="node3" class="node">
<title>entrypoint_input_entry_point_cli_project_approve</title>
<polygon fill="#ffffff" stroke="transparent" points="345,-124 345,-206 455,-206 455,-124 345,-124"/>
<polygon fill="#64748b" stroke="transparent" points="346,-197 346,-205 454,-205 454,-197 346,-197"/>
<polygon fill="#f8fafc" stroke="transparent" points="346,-166 346,-197 454,-197 454,-166 346,-166"/>
<text text-anchor="start" x="350" y="-183.6" font-family="Arial" font-weight="bold" font-size="13.00">command input</text>
<text text-anchor="start" x="350" y="-172.6" font-family="Arial" font-size="8.00" fill="#64748b">external data</text>
<text text-anchor="start" x="350" y="-155" font-family="Arial" font-weight="bold" font-size="10.00">args</text>
<text text-anchor="start" x="350" y="-144" font-family="Arial" font-size="10.00">approved_by</text>
<text text-anchor="start" x="406" y="-144" font-family="Arial" font-size="8.00" fill="#94a3b8">  ID</text>
<text text-anchor="start" x="350" y="-133" font-family="Arial" font-size="10.00">project_id</text>
<text text-anchor="start" x="393" y="-133" font-family="Arial" font-size="8.00" fill="#94a3b8">  ID</text>
<polygon fill="none" stroke="#64748b" points="345,-124 345,-206 455,-206 455,-124 345,-124"/>
</g>
<!-- entrypoint_entry_point_cli_project_approve&#45;&gt;entrypoint_input_entry_point_cli_project_approve -->
<g id="edge2" class="edge">
<title>entrypoint_entry_point_cli_project_approve&#45;&gt;entrypoint_input_entry_point_cli_project_approve</title>
<path fill="none" stroke="#3f3f46" d="M284.2,-165C302,-165 320.31,-165 336.94,-165"/>
<polygon fill="#3f3f46" stroke="#3f3f46" points="336.96,-167.8 344.96,-165 336.96,-162.2 336.96,-167.8"/>
</g>
<!-- entrypoint_target_operation_project_approve -->
<g id="node4" class="node">
<title>entrypoint_target_operation_project_approve</title>
<polygon fill="#ffffff" stroke="transparent" points="516,-38 516,-292 829,-292 829,-38 516,-38"/>
<polygon fill="#2563eb" stroke="transparent" points="517.5,-283 517.5,-291 828.5,-291 828.5,-283 517.5,-283"/>
<polygon fill="#eff6ff" stroke="transparent" points="517.5,-252 517.5,-283 828.5,-283 828.5,-252 517.5,-252"/>
<text text-anchor="start" x="521.5" y="-269.6" font-family="Arial" font-weight="bold" font-size="13.00">operation.project.approve</text>
<text text-anchor="start" x="521.5" y="-258.6" font-family="Arial" font-size="8.00" fill="#64748b">target operation</text>
<text text-anchor="start" x="521.5" y="-241" font-family="Arial" font-style="italic" font-size="10.00" fill="#3f3f46">Reviewers can approve submitted dispatch projects.</text>
<text text-anchor="start" x="521.5" y="-222" font-family="Arial" font-weight="bold" font-size="10.00">transitions</text>
<text text-anchor="start" x="521.5" y="-211" font-family="Arial" font-size="10.00">Project.status</text>
<text text-anchor="start" x="582.5" y="-211" font-family="Arial" font-size="8.00" fill="#94a3b8">  enum&lt;draft|submitted|approved|archived&gt;</text>
<text text-anchor="start" x="738.5" y="-211" font-family="Arial" font-size="8.00">  submitted → approved</text>
<text text-anchor="start" x="521.5" y="-192" font-family="Arial" font-weight="bold" font-size="10.00">input</text>
<text text-anchor="start" x="521.5" y="-181" font-family="Arial" font-size="10.00">approved_by</text>
<text text-anchor="start" x="577.5" y="-181" font-family="Arial" font-size="8.00" fill="#94a3b8">  ID</text>
<text text-anchor="start" x="521.5" y="-170" font-family="Arial" font-size="10.00">project_id</text>
<text text-anchor="start" x="564.5" y="-170" font-family="Arial" font-size="8.00" fill="#94a3b8">  ID</text>
<text text-anchor="start" x="521.5" y="-151" font-family="Arial" font-weight="bold" font-size="10.00">success</text>
<text text-anchor="start" x="521.5" y="-140" font-family="Arial" font-size="10.00">approved</text>
<text text-anchor="start" x="561.5" y="-140" font-family="Arial" font-size="8.00" fill="#94a3b8">  Project</text>
<text text-anchor="start" x="521.5" y="-121" font-family="Arial" font-weight="bold" font-size="10.00">failure</text>
<text text-anchor="start" x="521.5" y="-110" font-family="Arial" font-size="10.00">invalid_state</text>
<text text-anchor="start" x="576.5" y="-110" font-family="Arial" font-size="8.00" fill="#94a3b8">  Problem</text>
<text text-anchor="start" x="521.5" y="-91" font-family="Arial" font-weight="bold" font-size="10.00">failure</text>
<text text-anchor="start" x="521.5" y="-80" font-family="Arial" font-size="10.00">not_found</text>
<text text-anchor="start" x="564.5" y="-80" font-family="Arial" font-size="8.00" fill="#94a3b8">  Problem</text>
<text text-anchor="start" x="522.5" y="-60" font-family="Arial" font-weight="bold" font-size="10.00">emit:</text>
<text text-anchor="start" x="546.5" y="-60" font-family="Arial" font-size="10.00">  approved → event.project.approved</text>
<text text-anchor="start" x="522.5" y="-48" font-family="Arial" font-weight="bold" font-size="10.00">payload:</text>
<text text-anchor="start" x="562.5" y="-48" font-family="Arial" font-size="10.00">  payload</text>
<text text-anchor="start" x="602.5" y="-48" font-family="Arial" font-size="8.00" fill="#94a3b8">  ProjectApproved</text>
<polygon fill="none" stroke="#2563eb" points="516,-38 516,-292 829,-292 829,-38 516,-38"/>
</g>
<!-- entrypoint_input_entry_point_cli_project_approve&#45;&gt;entrypoint_target_operation_project_approve -->
<g id="edge3" class="edge">
<title>entrypoint_input_entry_point_cli_project_approve&#45;&gt;entrypoint_target_operation_project_approve</title>
<path fill="none" stroke="#3f3f46" d="M455.09,-165C470.81,-165 488.84,-165 507.65,-165"/>
<polygon fill="#3f3f46" stroke="#3f3f46" points="507.76,-167.8 515.76,-165 507.76,-162.2 507.76,-167.8"/>
</g>
<!-- entrypoint_response_entry_point_cli_project_approve_approved -->
<g id="node6" class="node">
<title>entrypoint_response_entry_point_cli_project_approve_approved</title>
<polygon fill="#ffffff" stroke="transparent" points="891,-238 891,-330 1029,-330 1029,-238 891,-238"/>
<polygon fill="#64748b" stroke="transparent" points="892,-321 892,-329 1028,-329 1028,-321 892,-321"/>
<polygon fill="#f8fafc" stroke="transparent" points="892,-290 892,-321 1028,-321 1028,-290 892,-290"/>
<text text-anchor="start" x="896" y="-307.6" font-family="Arial" font-weight="bold" font-size="13.00">approved</text>
<text text-anchor="start" x="896" y="-296.6" font-family="Arial" font-size="8.00" fill="#64748b">success response</text>
<text text-anchor="start" x="896" y="-279" font-family="Arial" font-weight="bold" font-size="10.00">stdout</text>
<text text-anchor="start" x="896" y="-268" font-family="Arial" font-size="10.00">stdout</text>
<text text-anchor="start" x="924" y="-268" font-family="Arial" font-size="8.00" fill="#94a3b8">  Project</text>
<text text-anchor="start" x="954" y="-268" font-family="Arial" font-size="8.00"> ← $outcome.result</text>
<text text-anchor="start" x="897" y="-248" font-family="Arial" font-weight="bold" font-size="10.00">exit_code:</text>
<text text-anchor="start" x="945" y="-248" font-family="Arial" font-size="10.00">  0</text>
<polygon fill="none" stroke="#64748b" points="891,-238 891,-330 1029,-330 1029,-238 891,-238"/>
</g>
<!-- entrypoint_target_operation_project_approve&#45;&gt;entrypoint_response_entry_point_cli_project_approve_approved -->
<g id="edge4" class="edge">
<title>entrypoint_target_operation_project_approve&#45;&gt;entrypoint_response_entry_point_cli_project_approve_approved</title>
<path fill="none" stroke="#3f3f46" d="M829.2,-229.9C847.98,-237.73 866.46,-245.43 883.33,-252.46"/>
<polygon fill="#3f3f46" stroke="#3f3f46" points="882.5,-255.15 890.96,-255.64 884.65,-249.98 882.5,-255.15"/>
</g>
<!-- entrypoint_response_entry_point_cli_project_approve_invalid_state -->
<g id="node7" class="node">
<title>entrypoint_response_entry_point_cli_project_approve_invalid_state</title>
<polygon fill="#ffffff" stroke="transparent" points="890,-119 890,-211 1030,-211 1030,-119 890,-119"/>
<polygon fill="#64748b" stroke="transparent" points="891,-202 891,-210 1029,-210 1029,-202 891,-202"/>
<polygon fill="#f8fafc" stroke="transparent" points="891,-171 891,-202 1029,-202 1029,-171 891,-171"/>
<text text-anchor="start" x="895" y="-188.6" font-family="Arial" font-weight="bold" font-size="13.00">invalid_state</text>
<text text-anchor="start" x="895" y="-177.6" font-family="Arial" font-size="8.00" fill="#64748b">failure response</text>
<text text-anchor="start" x="895" y="-160" font-family="Arial" font-weight="bold" font-size="10.00">stderr</text>
<text text-anchor="start" x="895" y="-149" font-family="Arial" font-size="10.00">stderr</text>
<text text-anchor="start" x="920" y="-149" font-family="Arial" font-size="8.00" fill="#94a3b8">  Problem</text>
<text text-anchor="start" x="955" y="-149" font-family="Arial" font-size="8.00"> ← $outcome.result</text>
<text text-anchor="start" x="896" y="-129" font-family="Arial" font-weight="bold" font-size="10.00">exit_code:</text>
<text text-anchor="start" x="944" y="-129" font-family="Arial" font-size="10.00">  2</text>
<polygon fill="none" stroke="#64748b" points="890,-119 890,-211 1030,-211 1030,-119 890,-119"/>
</g>
<!-- entrypoint_target_operation_project_approve&#45;&gt;entrypoint_response_entry_point_cli_project_approve_invalid_state -->
<g id="edge6" class="edge">
<title>entrypoint_target_operation_project_approve&#45;&gt;entrypoint_response_entry_point_cli_project_approve_invalid_state</title>
<path fill="none" stroke="#3f3f46" d="M829.2,-165C847.31,-165 865.14,-165 881.51,-165"/>
<polygon fill="#3f3f46" stroke="#3f3f46" points="881.94,-167.8 889.94,-165 881.94,-162.2 881.94,-167.8"/>
</g>
<!-- entrypoint_response_entry_point_cli_project_approve_not_found -->
<g id="node8" class="node">
<title>entrypoint_response_entry_point_cli_project_approve_not_found</title>
<polygon fill="#ffffff" stroke="transparent" points="890,0 890,-92 1030,-92 1030,0 890,0"/>
<polygon fill="#64748b" stroke="transparent" points="891,-83 891,-91 1029,-91 1029,-83 891,-83"/>
<polygon fill="#f8fafc" stroke="transparent" points="891,-52 891,-83 1029,-83 1029,-52 891,-52"/>
<text text-anchor="start" x="895" y="-69.6" font-family="Arial" font-weight="bold" font-size="13.00">not_found</text>
<text text-anchor="start" x="895" y="-58.6" font-family="Arial" font-size="8.00" fill="#64748b">failure response</text>
<text text-anchor="start" x="895" y="-41" font-family="Arial" font-weight="bold" font-size="10.00">stderr</text>
<text text-anchor="start" x="895" y="-30" font-family="Arial" font-size="10.00">stderr</text>
<text text-anchor="start" x="920" y="-30" font-family="Arial" font-size="8.00" fill="#94a3b8">  Problem</text>
<text text-anchor="start" x="955" y="-30" font-family="Arial" font-size="8.00"> ← $outcome.result</text>
<text text-anchor="start" x="896" y="-10" font-family="Arial" font-weight="bold" font-size="10.00">exit_code:</text>
<text text-anchor="start" x="944" y="-10" font-family="Arial" font-size="10.00">  3</text>
<polygon fill="none" stroke="#64748b" points="890,0 890,-92 1030,-92 1030,0 890,0"/>
</g>
<!-- entrypoint_target_operation_project_approve&#45;&gt;entrypoint_response_entry_point_cli_project_approve_not_found -->
<g id="edge8" class="edge">
<title>entrypoint_target_operation_project_approve&#45;&gt;entrypoint_response_entry_point_cli_project_approve_not_found</title>
<path fill="none" stroke="#3f3f46" d="M829.2,-100.1C847.64,-92.42 865.8,-84.85 882.41,-77.92"/>
<polygon fill="#3f3f46" stroke="#3f3f46" points="883.63,-80.45 889.94,-74.79 881.47,-75.28 883.63,-80.45"/>
</g>
<!-- entry_exit -->
<g id="node5" class="node">
<title>entry_exit</title>
<ellipse fill="none" stroke="#0891b2" cx="1116" cy="-165" rx="21" ry="21"/>
<ellipse fill="none" stroke="#0891b2" cx="1116" cy="-165" rx="25" ry="25"/>
<text text-anchor="middle" x="1116" y="-162.8" font-family="Arial" font-size="9.00" fill="#155e75">exit</text>
</g>
<!-- entrypoint_response_entry_point_cli_project_approve_approved&#45;&gt;entry_exit -->
<g id="edge5" class="edge">
<title>entrypoint_response_entry_point_cli_project_approve_approved&#45;&gt;entry_exit</title>
<path fill="none" stroke="#3f3f46" d="M1020.54,-237.99C1044.36,-219.58 1070.54,-199.36 1089.28,-184.88"/>
<polygon fill="#3f3f46" stroke="#3f3f46" points="1091.21,-186.92 1095.83,-179.81 1087.79,-182.49 1091.21,-186.92"/>
</g>
<!-- entrypoint_response_entry_point_cli_project_approve_approved&#45;&gt;entrypoint_response_entry_point_cli_project_approve_invalid_state -->
<!-- entrypoint_response_entry_point_cli_project_approve_invalid_state&#45;&gt;entry_exit -->
<g id="edge7" class="edge">
<title>entrypoint_response_entry_point_cli_project_approve_invalid_state&#45;&gt;entry_exit</title>
<path fill="none" stroke="#3f3f46" d="M1030.34,-165C1048.66,-165 1067.57,-165 1082.86,-165"/>
<polygon fill="#3f3f46" stroke="#3f3f46" points="1082.95,-167.8 1090.95,-165 1082.95,-162.2 1082.95,-167.8"/>
</g>
<!-- entrypoint_response_entry_point_cli_project_approve_invalid_state&#45;&gt;entrypoint_response_entry_point_cli_project_approve_not_found -->
<!-- entrypoint_response_entry_point_cli_project_approve_not_found&#45;&gt;entry_exit -->
<g id="edge9" class="edge">
<title>entrypoint_response_entry_point_cli_project_approve_not_found&#45;&gt;entry_exit</title>
<path fill="none" stroke="#3f3f46" d="M1020.54,-92.01C1044.36,-110.42 1070.54,-130.64 1089.28,-145.12"/>
<polygon fill="#3f3f46" stroke="#3f3f46" points="1087.79,-147.51 1095.83,-150.19 1091.21,-143.08 1087.79,-147.51"/>
</g>
</g>
</svg>
