<svg width="937pt" height="687pt"
 viewBox="0.00 0.00 937.00 687.00" xmlns="http://www.w3.org/2000/svg" xmlns:xlink="http://www.w3.org/1999/xlink">
<!-- pyspec-contract-input-sha256: 51fd5bec45fd67a84f3a567885b3d1dac83168a7c88a8bcd7acdc21dcf9fdf91 -->
<g id="graph0" class="graph" transform="scale(1 1) rotate(0) translate(18 669)">
<title>entrypoint_entry_point_cli_project_approve</title>
<!-- entrypoint_entry_point_cli_project_approve -->
<g id="node1" class="node">
<title>entrypoint_entry_point_cli_project_approve</title>
<polygon fill="#ffffff" stroke="transparent" points="0,-264 0,-386 210,-386 210,-264 0,-264"/>
<polygon fill="#0891b2" stroke="transparent" points="1,-377 1,-385 209,-385 209,-377 1,-377"/>
<polygon fill="#ecfeff" stroke="transparent" points="1,-346 1,-377 209,-377 209,-346 1,-346"/>
<text text-anchor="start" x="5" y="-363.6" font-family="Arial" font-weight="bold" font-size="13.00">project approve</text>
<text text-anchor="start" x="5" y="-352.6" font-family="Arial" font-size="8.00" fill="#64748b">cli entry point</text>
<text text-anchor="start" x="5" y="-335" font-family="Arial" font-style="italic" font-size="10.00" fill="#3f3f46">CLI entry for approval automation.</text>
<text text-anchor="start" x="6" y="-315" font-family="Arial" font-weight="bold" font-size="10.00">cli command:</text>
<text text-anchor="start" x="70" y="-315" font-family="Arial" font-size="10.00">  cli_command.project.approve</text>
<text text-anchor="start" x="5" y="-295" font-family="Arial" font-weight="bold" font-size="10.00">args</text>
<text text-anchor="start" x="5" y="-284" font-family="Arial" font-size="10.00">approved_by</text>
<text text-anchor="start" x="61" y="-284" font-family="Arial" font-size="8.00" fill="#94a3b8">  string</text>
<text text-anchor="start" x="5" y="-273" font-family="Arial" font-size="10.00">project_id</text>
<text text-anchor="start" x="48" y="-273" font-family="Arial" font-size="8.00" fill="#94a3b8">  string</text>
<polygon fill="none" stroke="#0891b2" points="0,-264 0,-386 210,-386 210,-264 0,-264"/>
</g>
<!-- entrypoint_target_entry_point_api_project_approve -->
<g id="node2" class="node">
<title>entrypoint_target_entry_point_api_project_approve</title>
<polygon fill="#ffffff" stroke="transparent" points="271,-241 271,-409 548,-409 548,-241 271,-241"/>
<polygon fill="#0891b2" stroke="transparent" points="272.5,-400 272.5,-408 547.5,-408 547.5,-400 272.5,-400"/>
<polygon fill="#ecfeff" stroke="transparent" points="272.5,-369 272.5,-400 547.5,-400 547.5,-369 272.5,-369"/>
<text text-anchor="start" x="276.5" y="-386.6" font-family="Arial" font-weight="bold" font-size="13.00">entry_point.api.project.approve</text>
<text text-anchor="start" x="276.5" y="-375.6" font-family="Arial" font-size="8.00" fill="#64748b">delegated entry point</text>
<text text-anchor="start" x="276.5" y="-358" font-family="Arial" font-style="italic" font-size="10.00" fill="#3f3f46">HTTP endpoint for approving submitted dispatch</text>
<text text-anchor="start" x="276.5" y="-347" font-family="Arial" font-style="italic" font-size="10.00" fill="#3f3f46">projects.</text>
<text text-anchor="start" x="277.5" y="-327" font-family="Arial" font-weight="bold" font-size="10.00">adapter:</text>
<text text-anchor="start" x="315.5" y="-327" font-family="Arial" font-size="10.00">  http_api</text>
<text text-anchor="start" x="277.5" y="-315" font-family="Arial" font-weight="bold" font-size="10.00">target:</text>
<text text-anchor="start" x="307.5" y="-315" font-family="Arial" font-size="10.00">  application_action application_action.project.approve</text>
<text text-anchor="start" x="277.5" y="-303" font-family="Arial" font-weight="bold" font-size="10.00">kind:</text>
<text text-anchor="start" x="301.5" y="-303" font-family="Arial" font-size="10.00">  lifecycle_transition</text>
<text text-anchor="start" x="276.5" y="-283" font-family="Arial" font-weight="bold" font-size="10.00">authorization</text>
<text text-anchor="start" x="276.5" y="-271" font-family="Arial" font-size="10.00">policy: authorization_policy.project.reviewer</text>
<text text-anchor="start" x="276.5" y="-260" font-family="Arial" font-size="10.00">authentication_required_as: authentication_required</text>
<text text-anchor="start" x="276.5" y="-249" font-family="Arial" font-size="10.00">access_denied_as: access_denied</text>
<polygon fill="none" stroke="#0891b2" points="271,-241 271,-409 548,-409 548,-241 271,-241"/>
</g>
<!-- entrypoint_entry_point_cli_project_approve&#45;&gt;entrypoint_target_entry_point_api_project_approve -->
<g id="edge1" class="edge">
<title>entrypoint_entry_point_cli_project_approve&#45;&gt;entrypoint_target_entry_point_api_project_approve</title>
<path fill="none" stroke="#3f3f46" d="M210.1,-325C227.07,-325 244.92,-325 262.67,-325"/>
<polygon fill="#3f3f46" stroke="#3f3f46" points="262.82,-327.8 270.82,-325 262.82,-322.2 262.82,-327.8"/>
</g>
<!-- entrypoint_response_entry_point_cli_project_approve_access_denied -->
<g id="node3" class="node">
<title>entrypoint_response_entry_point_cli_project_approve_access_denied</title>
<polygon fill="#ffffff" stroke="transparent" points="609,-565 609,-651 901,-651 901,-565 609,-565"/>
<polygon fill="#dc2626" stroke="transparent" points="610,-642 610,-650 900,-650 900,-642 610,-642"/>
<polygon fill="#fef2f2" stroke="transparent" points="610,-611 610,-642 900,-642 900,-611 610,-611"/>
<text text-anchor="start" x="614" y="-628.6" font-family="Arial" font-weight="bold" font-size="13.00">access_denied</text>
<text text-anchor="start" x="614" y="-617.6" font-family="Arial" font-size="8.00" fill="#64748b">failure response handler</text>
<text text-anchor="start" x="615" y="-599" font-family="Arial" font-weight="bold" font-size="10.00">stderr:</text>
<text text-anchor="start" x="646" y="-599" font-family="Arial" font-size="10.00">  text.project.approve.access_denied</text>
<text text-anchor="start" x="615" y="-587" font-family="Arial" font-weight="bold" font-size="10.00">stderr bindings:</text>
<text text-anchor="start" x="690" y="-587" font-family="Arial" font-size="10.00">  message ← adapter_response.body.message</text>
<text text-anchor="start" x="615" y="-575" font-family="Arial" font-weight="bold" font-size="10.00">exit_code:</text>
<text text-anchor="start" x="663" y="-575" font-family="Arial" font-size="10.00">  5</text>
<polygon fill="none" stroke="#dc2626" points="609,-565 609,-651 901,-651 901,-565 609,-565"/>
</g>
<!-- entrypoint_target_entry_point_api_project_approve&#45;&gt;entrypoint_response_entry_point_cli_project_approve_access_denied -->
<g id="edge2" class="edge">
<title>entrypoint_target_entry_point_api_project_approve&#45;&gt;entrypoint_response_entry_point_cli_project_approve_access_denied</title>
<path fill="none" stroke="#3f3f46" d="M468.15,-409.14C504.08,-456.4 553.88,-513.44 609,-552 613.46,-555.12 618.11,-558.09 622.9,-560.93"/>
<polygon fill="#3f3f46" stroke="#3f3f46" points="621.68,-563.45 630.02,-564.98 624.45,-558.58 621.68,-563.45"/>
</g>
<!-- entrypoint_response_entry_point_cli_project_approve_approved -->
<g id="node4" class="node">
<title>entrypoint_response_entry_point_cli_project_approve_approved</title>
<polygon fill="#ffffff" stroke="transparent" points="623,-452 623,-538 887,-538 887,-452 623,-452"/>
<polygon fill="#16a34a" stroke="transparent" points="624,-529 624,-537 886,-537 886,-529 624,-529"/>
<polygon fill="#f0fdf4" stroke="transparent" points="624,-498 624,-529 886,-529 886,-498 624,-498"/>
<text text-anchor="start" x="628" y="-515.6" font-family="Arial" font-weight="bold" font-size="13.00">approved</text>
<text text-anchor="start" x="628" y="-504.6" font-family="Arial" font-size="8.00" fill="#64748b">success response handler</text>
<text text-anchor="start" x="629" y="-486" font-family="Arial" font-weight="bold" font-size="10.00">stdout:</text>
<text text-anchor="start" x="662" y="-486" font-family="Arial" font-size="10.00">  text.project.approve.success</text>
<text text-anchor="start" x="629" y="-474" font-family="Arial" font-weight="bold" font-size="10.00">stdout bindings:</text>
<text text-anchor="start" x="706" y="-474" font-family="Arial" font-size="10.00">  project_id ← adapter_response.body.id</text>
<text text-anchor="start" x="629" y="-462" font-family="Arial" font-weight="bold" font-size="10.00">exit_code:</text>
<text text-anchor="start" x="677" y="-462" font-family="Arial" font-size="10.00">  0</text>
<polygon fill="none" stroke="#16a34a" points="623,-452 623,-538 887,-538 887,-452 623,-452"/>
</g>
<!-- entrypoint_target_entry_point_api_project_approve&#45;&gt;entrypoint_response_entry_point_cli_project_approve_approved -->
<g id="edge3" class="edge">
<title>entrypoint_target_entry_point_api_project_approve&#45;&gt;entrypoint_response_entry_point_cli_project_approve_approved</title>
<path fill="none" stroke="#3f3f46" d="M548.15,-407.63C568.3,-418.68 589,-429.46 609,-439 615.8,-442.24 622.84,-445.44 629.98,-448.57"/>
<polygon fill="#3f3f46" stroke="#3f3f46" points="629.32,-451.33 637.77,-451.94 631.54,-446.19 629.32,-451.33"/>
</g>
<!-- entrypoint_response_entry_point_cli_project_approve_authentication_required -->
<g id="node5" class="node">
<title>entrypoint_response_entry_point_cli_project_approve_authentication_required</title>
<polygon fill="#ffffff" stroke="transparent" points="609,-339 609,-425 901,-425 901,-339 609,-339"/>
<polygon fill="#dc2626" stroke="transparent" points="610,-416 610,-424 900,-424 900,-416 610,-416"/>
<polygon fill="#fef2f2" stroke="transparent" points="610,-385 610,-416 900,-416 900,-385 610,-385"/>
<text text-anchor="start" x="614" y="-402.6" font-family="Arial" font-weight="bold" font-size="13.00">authentication_required</text>
<text text-anchor="start" x="614" y="-391.6" font-family="Arial" font-size="8.00" fill="#64748b">failure response handler</text>
<text text-anchor="start" x="615" y="-373" font-family="Arial" font-weight="bold" font-size="10.00">stderr:</text>
<text text-anchor="start" x="646" y="-373" font-family="Arial" font-size="10.00">  text.project.approve.authentication_required</text>
<text text-anchor="start" x="615" y="-361" font-family="Arial" font-weight="bold" font-size="10.00">stderr bindings:</text>
<text text-anchor="start" x="690" y="-361" font-family="Arial" font-size="10.00">  message ← adapter_response.body.message</text>
<text text-anchor="start" x="615" y="-349" font-family="Arial" font-weight="bold" font-size="10.00">exit_code:</text>
<text text-anchor="start" x="663" y="-349" font-family="Arial" font-size="10.00">  4</text>
<polygon fill="none" stroke="#dc2626" points="609,-339 609,-425 901,-425 901,-339 609,-339"/>
</g>
<!-- entrypoint_target_entry_point_api_project_approve&#45;&gt;entrypoint_response_entry_point_cli_project_approve_authentication_required -->
<g id="edge4" class="edge">
<title>entrypoint_target_entry_point_api_project_approve&#45;&gt;entrypoint_response_entry_point_cli_project_approve_authentication_required</title>
<path fill="none" stroke="#3f3f46" d="M548.24,-347.86C565.55,-350.73 583.35,-353.68 600.89,-356.59"/>
<polygon fill="#3f3f46" stroke="#3f3f46" points="600.58,-359.38 608.93,-357.93 601.49,-353.85 600.58,-359.38"/>
</g>
<!-- entrypoint_response_entry_point_cli_project_approve_not_found -->
<g id="node6" class="node">
<title>entrypoint_response_entry_point_cli_project_approve_not_found</title>
<polygon fill="#ffffff" stroke="transparent" points="609,-226 609,-312 901,-312 901,-226 609,-226"/>
<polygon fill="#dc2626" stroke="transparent" points="610,-303 610,-311 900,-311 900,-303 610,-303"/>
<polygon fill="#fef2f2" stroke="transparent" points="610,-272 610,-303 900,-303 900,-272 610,-272"/>
<text text-anchor="start" x="614" y="-289.6" font-family="Arial" font-weight="bold" font-size="13.00">not_found</text>
<text text-anchor="start" x="614" y="-278.6" font-family="Arial" font-size="8.00" fill="#64748b">failure response handler</text>
<text text-anchor="start" x="615" y="-260" font-family="Arial" font-weight="bold" font-size="10.00">stderr:</text>
<text text-anchor="start" x="646" y="-260" font-family="Arial" font-size="10.00">  text.project.approve.not_found</text>
<text text-anchor="start" x="615" y="-248" font-family="Arial" font-weight="bold" font-size="10.00">stderr bindings:</text>
<text text-anchor="start" x="690" y="-248" font-family="Arial" font-size="10.00">  message ← adapter_response.body.message</text>
<text text-anchor="start" x="615" y="-236" font-family="Arial" font-weight="bold" font-size="10.00">exit_code:</text>
<text text-anchor="start" x="663" y="-236" font-family="Arial" font-size="10.00">  3</text>
<polygon fill="none" stroke="#dc2626" points="609,-226 609,-312 901,-312 901,-226 609,-226"/>
</g>
<!-- entrypoint_target_entry_point_api_project_approve&#45;&gt;entrypoint_response_entry_point_cli_project_approve_not_found -->
<g id="edge5" class="edge">
<title>entrypoint_target_entry_point_api_project_approve&#45;&gt;entrypoint_response_entry_point_cli_project_approve_not_found</title>
<path fill="none" stroke="#3f3f46" d="M548.24,-302.55C565.55,-299.72 583.35,-296.82 600.89,-293.96"/>
<polygon fill="#3f3f46" stroke="#3f3f46" points="601.48,-296.7 608.93,-292.65 600.58,-291.17 601.48,-296.7"/>
</g>
<!-- entrypoint_response_entry_point_cli_project_approve_transition_not_allowed -->
<g id="node7" class="node">
<title>entrypoint_response_entry_point_cli_project_approve_transition_not_allowed</title>
<polygon fill="#ffffff" stroke="transparent" points="609,-113 609,-199 901,-199 901,-113 609,-113"/>
<polygon fill="#dc2626" stroke="transparent" points="610,-190 610,-198 900,-198 900,-190 610,-190"/>
<polygon fill="#fef2f2" stroke="transparent" points="610,-159 610,-190 900,-190 900,-159 610,-159"/>
<text text-anchor="start" x="614" y="-176.6" font-family="Arial" font-weight="bold" font-size="13.00">transition_not_allowed</text>
<text text-anchor="start" x="614" y="-165.6" font-family="Arial" font-size="8.00" fill="#64748b">failure response handler</text>
<text text-anchor="start" x="615" y="-147" font-family="Arial" font-weight="bold" font-size="10.00">stderr:</text>
<text text-anchor="start" x="646" y="-147" font-family="Arial" font-size="10.00">  text.project.approve.transition_not_allowed</text>
<text text-anchor="start" x="615" y="-135" font-family="Arial" font-weight="bold" font-size="10.00">stderr bindings:</text>
<text text-anchor="start" x="690" y="-135" font-family="Arial" font-size="10.00">  message ← adapter_response.body.message</text>
<text text-anchor="start" x="615" y="-123" font-family="Arial" font-weight="bold" font-size="10.00">exit_code:</text>
<text text-anchor="start" x="663" y="-123" font-family="Arial" font-size="10.00">  2</text>
<polygon fill="none" stroke="#dc2626" points="609,-113 609,-199 901,-199 901,-113 609,-113"/>
</g>
<!-- entrypoint_target_entry_point_api_project_approve&#45;&gt;entrypoint_response_entry_point_cli_project_approve_transition_not_allowed -->
<g id="edge6" class="edge">
<title>entrypoint_target_entry_point_api_project_approve&#45;&gt;entrypoint_response_entry_point_cli_project_approve_transition_not_allowed</title>
<path fill="none" stroke="#3f3f46" d="M548.02,-244.17C568.24,-233.24 588.99,-222.52 609,-213 616.57,-209.4 624.44,-205.83 632.42,-202.34"/>
<polygon fill="#3f3f46" stroke="#3f3f46" points="633.54,-204.91 639.77,-199.17 631.31,-199.77 633.54,-204.91"/>
</g>
<!-- entrypoint_response_entry_point_cli_project_approve_unavailable -->
<g id="node8" class="node">
<title>entrypoint_response_entry_point_cli_project_approve_unavailable</title>
<polygon fill="#ffffff" stroke="transparent" points="661,0 661,-86 849,-86 849,0 661,0"/>
<polygon fill="#dc2626" stroke="transparent" points="662,-77 662,-85 848,-85 848,-77 662,-77"/>
<polygon fill="#fef2f2" stroke="transparent" points="662,-46 662,-77 848,-77 848,-46 662,-46"/>
<text text-anchor="start" x="666" y="-63.6" font-family="Arial" font-weight="bold" font-size="13.00">unavailable</text>
<text text-anchor="start" x="666" y="-52.6" font-family="Arial" font-size="8.00" fill="#64748b">failure response handler</text>
<text text-anchor="start" x="667" y="-34" font-family="Arial" font-weight="bold" font-size="10.00">stderr:</text>
<text text-anchor="start" x="698" y="-34" font-family="Arial" font-size="10.00">  text.project.approve.unavailable</text>
<text text-anchor="start" x="667" y="-22" font-family="Arial" font-weight="bold" font-size="10.00">exit_code:</text>
<text text-anchor="start" x="715" y="-22" font-family="Arial" font-size="10.00">  75</text>
<text text-anchor="start" x="667" y="-10" font-family="Arial" font-weight="bold" font-size="10.00">retry:</text>
<text text-anchor="start" x="692" y="-10" font-family="Arial" font-size="10.00">  3 exponential</text>
<polygon fill="none" stroke="#dc2626" points="661,0 661,-86 849,-86 849,0 661,0"/>
</g>
<!-- entrypoint_target_entry_point_api_project_approve&#45;&gt;entrypoint_response_entry_point_cli_project_approve_unavailable -->
<g id="edge7" class="edge">
<title>entrypoint_target_entry_point_api_project_approve&#45;&gt;entrypoint_response_entry_point_cli_project_approve_unavailable</title>
<path fill="none" stroke="#3f3f46" d="M469.01,-240.92C504.96,-194.29 554.5,-138.19 609,-100 622.52,-90.53 637.83,-82.33 653.31,-75.35"/>
<polygon fill="#3f3f46" stroke="#3f3f46" points="654.71,-77.79 660.91,-72.01 652.46,-72.66 654.71,-77.79"/>
</g>
<!-- entrypoint_response_entry_point_cli_project_approve_access_denied&#45;&gt;entrypoint_response_entry_point_cli_project_approve_approved -->
<!-- entrypoint_response_entry_point_cli_project_approve_approved&#45;&gt;entrypoint_response_entry_point_cli_project_approve_authentication_required -->
<!-- entrypoint_response_entry_point_cli_project_approve_authentication_required&#45;&gt;entrypoint_response_entry_point_cli_project_approve_not_found -->
<!-- entrypoint_response_entry_point_cli_project_approve_not_found&#45;&gt;entrypoint_response_entry_point_cli_project_approve_transition_not_allowed -->
<!-- entrypoint_response_entry_point_cli_project_approve_transition_not_allowed&#45;&gt;entrypoint_response_entry_point_cli_project_approve_unavailable -->
</g>
</svg>
