<svg width="1055pt" height="397pt"
 viewBox="0.00 0.00 1055.00 397.00" xmlns="http://www.w3.org/2000/svg" xmlns:xlink="http://www.w3.org/1999/xlink">
<!-- pyspec-contract-input-sha256: a52dd2cd8485c2b2e237f4d67fb7c9f47d739b5b9c841a5f4e1d20e3913d7d10 -->
<g id="graph0" class="graph" transform="scale(1 1) rotate(0) translate(18 379)">
<title>entrypoint_entry_point_cli_project_approve</title>
<!-- entrypoint_entry_point_cli_project_approve -->
<g id="node1" class="node">
<title>entrypoint_entry_point_cli_project_approve</title>
<polygon fill="#ffffff" stroke="transparent" points="0,-134 0,-227 273,-227 273,-134 0,-134"/>
<polygon fill="#0891b2" stroke="transparent" points="1.5,-217.5 1.5,-225.5 272.5,-225.5 272.5,-217.5 1.5,-217.5"/>
<polygon fill="#ecfeff" stroke="transparent" points="1.5,-186.5 1.5,-217.5 272.5,-217.5 272.5,-186.5 1.5,-186.5"/>
<text text-anchor="start" x="5.5" y="-204.1" font-family="Arial" font-weight="bold" font-size="13.00">project approve</text>
<text text-anchor="start" x="5.5" y="-193.1" font-family="Arial" font-size="8.00" fill="#64748b">cli entry point</text>
<text text-anchor="start" x="5.5" y="-175.5" font-family="Arial" font-style="italic" font-size="10.00" fill="#3f3f46">CLI entry for approval automation.</text>
<text text-anchor="start" x="6.5" y="-155.5" font-family="Arial" font-weight="bold" font-size="10.00">cli command:</text>
<text text-anchor="start" x="70.5" y="-155.5" font-family="Arial" font-size="10.00">  cli_command.project.approve</text>
<text text-anchor="start" x="6.5" y="-143.5" font-family="Arial" font-weight="bold" font-size="10.00">authorization_policy:</text>
<text text-anchor="start" x="105.5" y="-143.5" font-family="Arial" font-size="10.00">  authorization_policy.project.approve</text>
<polygon fill="none" stroke="#0891b2" points="0,-134 0,-227 273,-227 273,-134 0,-134"/>
</g>
<!-- entrypoint_input_entry_point_cli_project_approve -->
<g id="node2" class="node">
<title>entrypoint_input_entry_point_cli_project_approve</title>
<polygon fill="#ffffff" stroke="transparent" points="334,-139.5 334,-221.5 444,-221.5 444,-139.5 334,-139.5"/>
<polygon fill="#64748b" stroke="transparent" points="335,-212.5 335,-220.5 443,-220.5 443,-212.5 335,-212.5"/>
<polygon fill="#f8fafc" stroke="transparent" points="335,-181.5 335,-212.5 443,-212.5 443,-181.5 335,-181.5"/>
<text text-anchor="start" x="339" y="-199.1" font-family="Arial" font-weight="bold" font-size="13.00">command input</text>
<text text-anchor="start" x="339" y="-188.1" font-family="Arial" font-size="8.00" fill="#64748b">external data</text>
<text text-anchor="start" x="339" y="-170.5" font-family="Arial" font-weight="bold" font-size="10.00">args</text>
<text text-anchor="start" x="339" y="-159.5" font-family="Arial" font-size="10.00">approved_by</text>
<text text-anchor="start" x="395" y="-159.5" font-family="Arial" font-size="8.00" fill="#94a3b8">  ID</text>
<text text-anchor="start" x="339" y="-148.5" font-family="Arial" font-size="10.00">project_id</text>
<text text-anchor="start" x="382" y="-148.5" font-family="Arial" font-size="8.00" fill="#94a3b8">  ID</text>
<polygon fill="none" stroke="#64748b" points="334,-139.5 334,-221.5 444,-221.5 444,-139.5 334,-139.5"/>
</g>
<!-- entrypoint_entry_point_cli_project_approve&#45;&gt;entrypoint_input_entry_point_cli_project_approve -->
<g id="edge1" class="edge">
<title>entrypoint_entry_point_cli_project_approve&#45;&gt;entrypoint_input_entry_point_cli_project_approve</title>
<path fill="none" stroke="#3f3f46" d="M273.01,-180.5C291.37,-180.5 309.43,-180.5 325.61,-180.5"/>
<polygon fill="#3f3f46" stroke="#3f3f46" points="325.88,-183.3 333.88,-180.5 325.88,-177.7 325.88,-183.3"/>
</g>
<!-- entrypoint_target_operation_project_approve -->
<g id="node3" class="node">
<title>entrypoint_target_operation_project_approve</title>
<polygon fill="#ffffff" stroke="transparent" points="505,0 505,-361 818,-361 818,0 505,0"/>
<polygon fill="#2563eb" stroke="transparent" points="506.5,-351.5 506.5,-359.5 817.5,-359.5 817.5,-351.5 506.5,-351.5"/>
<polygon fill="#eff6ff" stroke="transparent" points="506.5,-320.5 506.5,-351.5 817.5,-351.5 817.5,-320.5 506.5,-320.5"/>
<text text-anchor="start" x="510.5" y="-338.1" font-family="Arial" font-weight="bold" font-size="13.00">operation.project.approve</text>
<text text-anchor="start" x="510.5" y="-327.1" font-family="Arial" font-size="8.00" fill="#64748b">target operation</text>
<text text-anchor="start" x="510.5" y="-309.5" font-family="Arial" font-style="italic" font-size="10.00" fill="#3f3f46">Reviewers can approve submitted dispatch projects.</text>
<text text-anchor="start" x="511.5" y="-289.5" font-family="Arial" font-weight="bold" font-size="10.00">authorization_policy:</text>
<text text-anchor="start" x="610.5" y="-289.5" font-family="Arial" font-size="10.00">  authorization_policy.project.approve</text>
<text text-anchor="start" x="511.5" y="-277.5" font-family="Arial" font-weight="bold" font-size="10.00">authorization_effect:</text>
<text text-anchor="start" x="606.5" y="-277.5" font-family="Arial" font-size="10.00">  allow</text>
<text text-anchor="start" x="511.5" y="-265.5" font-family="Arial" font-weight="bold" font-size="10.00">authorization_subjects:</text>
<text text-anchor="start" x="620.5" y="-265.5" font-family="Arial" font-size="10.00">  actor ← input.approved_by</text>
<text text-anchor="start" x="510.5" y="-245.5" font-family="Arial" font-weight="bold" font-size="10.00">authorization_targets</text>
<text text-anchor="start" x="510.5" y="-233.5" font-family="Arial" font-size="10.00">operation: operation.project.approve</text>
<text text-anchor="start" x="510.5" y="-222.5" font-family="Arial" font-size="10.00">model: Project</text>
<text text-anchor="start" x="511.5" y="-203.5" font-family="Arial" font-weight="bold" font-size="10.00">authorization_conditions:</text>
<text text-anchor="start" x="631.5" y="-203.5" font-family="Arial" font-size="10.00">  Project.status = submitted</text>
<text text-anchor="start" x="510.5" y="-183.5" font-family="Arial" font-weight="bold" font-size="10.00">transitions</text>
<text text-anchor="start" x="510.5" y="-172.5" font-family="Arial" font-size="10.00">Project.status</text>
<text text-anchor="start" x="571.5" y="-172.5" font-family="Arial" font-size="8.00" fill="#94a3b8">  enum&lt;draft|submitted|approved|archived&gt;</text>
<text text-anchor="start" x="727.5" y="-172.5" font-family="Arial" font-size="8.00">  submitted → approved</text>
<text text-anchor="start" x="510.5" y="-153.5" font-family="Arial" font-weight="bold" font-size="10.00">input</text>
<text text-anchor="start" x="510.5" y="-142.5" font-family="Arial" font-size="10.00">approved_by</text>
<text text-anchor="start" x="566.5" y="-142.5" font-family="Arial" font-size="8.00" fill="#94a3b8">  ID</text>
<text text-anchor="start" x="510.5" y="-131.5" font-family="Arial" font-size="10.00">project_id</text>
<text text-anchor="start" x="553.5" y="-131.5" font-family="Arial" font-size="8.00" fill="#94a3b8">  ID</text>
<text text-anchor="start" x="510.5" y="-112.5" font-family="Arial" font-weight="bold" font-size="10.00">success</text>
<text text-anchor="start" x="510.5" y="-101.5" font-family="Arial" font-size="10.00">approved</text>
<text text-anchor="start" x="550.5" y="-101.5" font-family="Arial" font-size="8.00" fill="#94a3b8">  Project</text>
<text text-anchor="start" x="510.5" y="-82.5" font-family="Arial" font-weight="bold" font-size="10.00">failure</text>
<text text-anchor="start" x="510.5" y="-71.5" font-family="Arial" font-size="10.00">invalid_state</text>
<text text-anchor="start" x="565.5" y="-71.5" font-family="Arial" font-size="8.00" fill="#94a3b8">  Problem</text>
<text text-anchor="start" x="510.5" y="-52.5" font-family="Arial" font-weight="bold" font-size="10.00">failure</text>
<text text-anchor="start" x="510.5" y="-41.5" font-family="Arial" font-size="10.00">not_found</text>
<text text-anchor="start" x="553.5" y="-41.5" font-family="Arial" font-size="8.00" fill="#94a3b8">  Problem</text>
<text text-anchor="start" x="511.5" y="-21.5" font-family="Arial" font-weight="bold" font-size="10.00">emit:</text>
<text text-anchor="start" x="535.5" y="-21.5" font-family="Arial" font-size="10.00">  approved → event.project.approved</text>
<text text-anchor="start" x="511.5" y="-9.5" font-family="Arial" font-weight="bold" font-size="10.00">payload_schema:</text>
<text text-anchor="start" x="593.5" y="-9.5" font-family="Arial" font-size="10.00">  payload_schema</text>
<text text-anchor="start" x="673.5" y="-9.5" font-family="Arial" font-size="8.00" fill="#94a3b8">  data_contract.project.approved</text>
<polygon fill="none" stroke="#2563eb" points="505,0 505,-361 818,-361 818,0 505,0"/>
</g>
<!-- entrypoint_input_entry_point_cli_project_approve&#45;&gt;entrypoint_target_operation_project_approve -->
<g id="edge2" class="edge">
<title>entrypoint_input_entry_point_cli_project_approve&#45;&gt;entrypoint_target_operation_project_approve</title>
<path fill="none" stroke="#3f3f46" d="M444.09,-180.5C459.81,-180.5 477.84,-180.5 496.65,-180.5"/>
<polygon fill="#3f3f46" stroke="#3f3f46" points="496.76,-183.3 504.76,-180.5 496.76,-177.7 496.76,-183.3"/>
</g>
<!-- entrypoint_response_entry_point_cli_project_approve_approved -->
<g id="node4" class="node">
<title>entrypoint_response_entry_point_cli_project_approve_approved</title>
<polygon fill="#ffffff" stroke="transparent" points="880,-253.5 880,-345.5 1018,-345.5 1018,-253.5 880,-253.5"/>
<polygon fill="#64748b" stroke="transparent" points="881,-336.5 881,-344.5 1017,-344.5 1017,-336.5 881,-336.5"/>
<polygon fill="#f8fafc" stroke="transparent" points="881,-305.5 881,-336.5 1017,-336.5 1017,-305.5 881,-305.5"/>
<text text-anchor="start" x="885" y="-323.1" font-family="Arial" font-weight="bold" font-size="13.00">approved</text>
<text text-anchor="start" x="885" y="-312.1" font-family="Arial" font-size="8.00" fill="#64748b">success response</text>
<text text-anchor="start" x="885" y="-294.5" font-family="Arial" font-weight="bold" font-size="10.00">stdout</text>
<text text-anchor="start" x="885" y="-283.5" font-family="Arial" font-size="10.00">stdout</text>
<text text-anchor="start" x="913" y="-283.5" font-family="Arial" font-size="8.00" fill="#94a3b8">  Project</text>
<text text-anchor="start" x="943" y="-283.5" font-family="Arial" font-size="8.00"> ← $outcome.result</text>
<text text-anchor="start" x="886" y="-263.5" font-family="Arial" font-weight="bold" font-size="10.00">exit_code:</text>
<text text-anchor="start" x="934" y="-263.5" font-family="Arial" font-size="10.00">  0</text>
<polygon fill="none" stroke="#64748b" points="880,-253.5 880,-345.5 1018,-345.5 1018,-253.5 880,-253.5"/>
</g>
<!-- entrypoint_target_operation_project_approve&#45;&gt;entrypoint_response_entry_point_cli_project_approve_approved -->
<g id="edge3" class="edge">
<title>entrypoint_target_operation_project_approve&#45;&gt;entrypoint_response_entry_point_cli_project_approve_approved</title>
<path fill="none" stroke="#3f3f46" d="M818.2,-245.4C836.98,-253.23 855.46,-260.93 872.33,-267.96"/>
<polygon fill="#3f3f46" stroke="#3f3f46" points="871.5,-270.65 879.96,-271.14 873.65,-265.48 871.5,-270.65"/>
</g>
<!-- entrypoint_response_entry_point_cli_project_approve_invalid_state -->
<g id="node5" class="node">
<title>entrypoint_response_entry_point_cli_project_approve_invalid_state</title>
<polygon fill="#ffffff" stroke="transparent" points="879,-134.5 879,-226.5 1019,-226.5 1019,-134.5 879,-134.5"/>
<polygon fill="#64748b" stroke="transparent" points="880,-217.5 880,-225.5 1018,-225.5 1018,-217.5 880,-217.5"/>
<polygon fill="#f8fafc" stroke="transparent" points="880,-186.5 880,-217.5 1018,-217.5 1018,-186.5 880,-186.5"/>
<text text-anchor="start" x="884" y="-204.1" font-family="Arial" font-weight="bold" font-size="13.00">invalid_state</text>
<text text-anchor="start" x="884" y="-193.1" font-family="Arial" font-size="8.00" fill="#64748b">failure response</text>
<text text-anchor="start" x="884" y="-175.5" font-family="Arial" font-weight="bold" font-size="10.00">stderr</text>
<text text-anchor="start" x="884" y="-164.5" font-family="Arial" font-size="10.00">stderr</text>
<text text-anchor="start" x="909" y="-164.5" font-family="Arial" font-size="8.00" fill="#94a3b8">  Problem</text>
<text text-anchor="start" x="944" y="-164.5" font-family="Arial" font-size="8.00"> ← $outcome.result</text>
<text text-anchor="start" x="885" y="-144.5" font-family="Arial" font-weight="bold" font-size="10.00">exit_code:</text>
<text text-anchor="start" x="933" y="-144.5" font-family="Arial" font-size="10.00">  2</text>
<polygon fill="none" stroke="#64748b" points="879,-134.5 879,-226.5 1019,-226.5 1019,-134.5 879,-134.5"/>
</g>
<!-- entrypoint_target_operation_project_approve&#45;&gt;entrypoint_response_entry_point_cli_project_approve_invalid_state -->
<g id="edge4" class="edge">
<title>entrypoint_target_operation_project_approve&#45;&gt;entrypoint_response_entry_point_cli_project_approve_invalid_state</title>
<path fill="none" stroke="#3f3f46" d="M818.2,-180.5C836.31,-180.5 854.14,-180.5 870.51,-180.5"/>
<polygon fill="#3f3f46" stroke="#3f3f46" points="870.94,-183.3 878.94,-180.5 870.94,-177.7 870.94,-183.3"/>
</g>
<!-- entrypoint_response_entry_point_cli_project_approve_not_found -->
<g id="node6" class="node">
<title>entrypoint_response_entry_point_cli_project_approve_not_found</title>
<polygon fill="#ffffff" stroke="transparent" points="879,-15.5 879,-107.5 1019,-107.5 1019,-15.5 879,-15.5"/>
<polygon fill="#64748b" stroke="transparent" points="880,-98.5 880,-106.5 1018,-106.5 1018,-98.5 880,-98.5"/>
<polygon fill="#f8fafc" stroke="transparent" points="880,-67.5 880,-98.5 1018,-98.5 1018,-67.5 880,-67.5"/>
<text text-anchor="start" x="884" y="-85.1" font-family="Arial" font-weight="bold" font-size="13.00">not_found</text>
<text text-anchor="start" x="884" y="-74.1" font-family="Arial" font-size="8.00" fill="#64748b">failure response</text>
<text text-anchor="start" x="884" y="-56.5" font-family="Arial" font-weight="bold" font-size="10.00">stderr</text>
<text text-anchor="start" x="884" y="-45.5" font-family="Arial" font-size="10.00">stderr</text>
<text text-anchor="start" x="909" y="-45.5" font-family="Arial" font-size="8.00" fill="#94a3b8">  Problem</text>
<text text-anchor="start" x="944" y="-45.5" font-family="Arial" font-size="8.00"> ← $outcome.result</text>
<text text-anchor="start" x="885" y="-25.5" font-family="Arial" font-weight="bold" font-size="10.00">exit_code:</text>
<text text-anchor="start" x="933" y="-25.5" font-family="Arial" font-size="10.00">  3</text>
<polygon fill="none" stroke="#64748b" points="879,-15.5 879,-107.5 1019,-107.5 1019,-15.5 879,-15.5"/>
</g>
<!-- entrypoint_target_operation_project_approve&#45;&gt;entrypoint_response_entry_point_cli_project_approve_not_found -->
<g id="edge5" class="edge">
<title>entrypoint_target_operation_project_approve&#45;&gt;entrypoint_response_entry_point_cli_project_approve_not_found</title>
<path fill="none" stroke="#3f3f46" d="M818.2,-115.6C836.64,-107.92 854.8,-100.35 871.41,-93.42"/>
<polygon fill="#3f3f46" stroke="#3f3f46" points="872.63,-95.95 878.94,-90.29 870.47,-90.78 872.63,-95.95"/>
</g>
<!-- entrypoint_response_entry_point_cli_project_approve_approved&#45;&gt;entrypoint_response_entry_point_cli_project_approve_invalid_state -->
<!-- entrypoint_response_entry_point_cli_project_approve_invalid_state&#45;&gt;entrypoint_response_entry_point_cli_project_approve_not_found -->
</g>
</svg>
