<svg width="900pt" height="687pt"
 viewBox="0.00 0.00 900.00 687.00" xmlns="http://www.w3.org/2000/svg" xmlns:xlink="http://www.w3.org/1999/xlink">
<!-- pyspec-contract-input-sha256: 5de42a93a4895efe3120ce5fdd7041c29d89f78d963024cfbbd613f3e11440c2 -->
<g id="graph0" class="graph" transform="scale(1 1) rotate(0) translate(18 669)">
<title>entrypoint_entry_point_cli_project_approve</title>
<!-- entrypoint_entry_point_cli_project_approve -->
<g id="node1" class="node">
<title>entrypoint_entry_point_cli_project_approve</title>
<polygon fill="#ffffff" stroke="transparent" points="0,-264 0,-386 210,-386 210,-264 0,-264"/>
<polygon fill="#0891b2" stroke="transparent" points="1,-377 1,-385 209,-385 209,-377 1,-377"/>
<polygon fill="#ecfeff" stroke="transparent" points="1,-346 1,-377 209,-377 209,-346 1,-346"/>
<text text-anchor="start" x="5" y="-363.6" font-family="Arial" font-weight="bold" font-size="13.00">project approve</text>
<text text-anchor="start" x="5" y="-352.6" font-family="Arial" font-size="8.00" fill="#64748b">cli entry point</text>
<text text-anchor="start" x="5" y="-335" font-family="Arial" font-style="italic" font-size="10.00" fill="#3f3f46">CLI entry for approval automation.</text>
<text text-anchor="start" x="6" y="-315" font-family="Arial" font-weight="bold" font-size="10.00">cli command:</text>
<text text-anchor="start" x="70" y="-315" font-family="Arial" font-size="10.00">  cli_command.project.approve</text>
<text text-anchor="start" x="5" y="-295" font-family="Arial" font-weight="bold" font-size="10.00">args</text>
<text text-anchor="start" x="5" y="-284" font-family="Arial" font-size="10.00">approved_by</text>
<text text-anchor="start" x="61" y="-284" font-family="Arial" font-size="8.00" fill="#94a3b8">  ID</text>
<text text-anchor="start" x="5" y="-273" font-family="Arial" font-size="10.00">project_id</text>
<text text-anchor="start" x="48" y="-273" font-family="Arial" font-size="8.00" fill="#94a3b8">  ID</text>
<polygon fill="none" stroke="#0891b2" points="0,-264 0,-386 210,-386 210,-264 0,-264"/>
</g>
<!-- entrypoint_target_entry_point_api_project_approve -->
<g id="node2" class="node">
<title>entrypoint_target_entry_point_api_project_approve</title>
<polygon fill="#ffffff" stroke="transparent" points="271,-241 271,-409 548,-409 548,-241 271,-241"/>
<polygon fill="#0891b2" stroke="transparent" points="272.5,-400 272.5,-408 547.5,-408 547.5,-400 272.5,-400"/>
<polygon fill="#ecfeff" stroke="transparent" points="272.5,-369 272.5,-400 547.5,-400 547.5,-369 272.5,-369"/>
<text text-anchor="start" x="276.5" y="-386.6" font-family="Arial" font-weight="bold" font-size="13.00">entry_point.api.project.approve</text>
<text text-anchor="start" x="276.5" y="-375.6" font-family="Arial" font-size="8.00" fill="#64748b">delegated entry point</text>
<text text-anchor="start" x="276.5" y="-358" font-family="Arial" font-style="italic" font-size="10.00" fill="#3f3f46">HTTP endpoint for approving submitted dispatch</text>
<text text-anchor="start" x="276.5" y="-347" font-family="Arial" font-style="italic" font-size="10.00" fill="#3f3f46">projects.</text>
<text text-anchor="start" x="277.5" y="-327" font-family="Arial" font-weight="bold" font-size="10.00">adapter:</text>
<text text-anchor="start" x="315.5" y="-327" font-family="Arial" font-size="10.00">  http_api</text>
<text text-anchor="start" x="277.5" y="-315" font-family="Arial" font-weight="bold" font-size="10.00">target:</text>
<text text-anchor="start" x="307.5" y="-315" font-family="Arial" font-size="10.00">  application_action application_action.project.approve</text>
<text text-anchor="start" x="277.5" y="-303" font-family="Arial" font-weight="bold" font-size="10.00">kind:</text>
<text text-anchor="start" x="301.5" y="-303" font-family="Arial" font-size="10.00">  lifecycle_transition</text>
<text text-anchor="start" x="276.5" y="-283" font-family="Arial" font-weight="bold" font-size="10.00">authorization</text>
<text text-anchor="start" x="276.5" y="-271" font-family="Arial" font-size="10.00">policy: authorization_policy.project.reviewer</text>
<text text-anchor="start" x="276.5" y="-260" font-family="Arial" font-size="10.00">unauthenticated_as: unauthenticated</text>
<text text-anchor="start" x="276.5" y="-249" font-family="Arial" font-size="10.00">forbidden_as: forbidden</text>
<polygon fill="none" stroke="#0891b2" points="271,-241 271,-409 548,-409 548,-241 271,-241"/>
</g>
<!-- entrypoint_entry_point_cli_project_approve&#45;&gt;entrypoint_target_entry_point_api_project_approve -->
<g id="edge1" class="edge">
<title>entrypoint_entry_point_cli_project_approve&#45;&gt;entrypoint_target_entry_point_api_project_approve</title>
<path fill="none" stroke="#3f3f46" d="M210.1,-325C227.07,-325 244.92,-325 262.67,-325"/>
<polygon fill="#3f3f46" stroke="#3f3f46" points="262.82,-327.8 270.82,-325 262.82,-322.2 262.82,-327.8"/>
</g>
<!-- entrypoint_response_entry_point_cli_project_approve_approved -->
<g id="node3" class="node">
<title>entrypoint_response_entry_point_cli_project_approve_approved</title>
<polygon fill="#ffffff" stroke="transparent" points="623,-565 623,-651 850,-651 850,-565 623,-565"/>
<polygon fill="#16a34a" stroke="transparent" points="624.5,-642 624.5,-650 849.5,-650 849.5,-642 624.5,-642"/>
<polygon fill="#f0fdf4" stroke="transparent" points="624.5,-611 624.5,-642 849.5,-642 849.5,-611 624.5,-611"/>
<text text-anchor="start" x="628.5" y="-628.6" font-family="Arial" font-weight="bold" font-size="13.00">approved</text>
<text text-anchor="start" x="628.5" y="-617.6" font-family="Arial" font-size="8.00" fill="#64748b">success response handler</text>
<text text-anchor="start" x="629.5" y="-599" font-family="Arial" font-weight="bold" font-size="10.00">stdout:</text>
<text text-anchor="start" x="662.5" y="-599" font-family="Arial" font-size="10.00">  text.project.approve.success</text>
<text text-anchor="start" x="629.5" y="-587" font-family="Arial" font-weight="bold" font-size="10.00">stdout bindings:</text>
<text text-anchor="start" x="706.5" y="-587" font-family="Arial" font-size="10.00">  project_id ← response.body.id</text>
<text text-anchor="start" x="629.5" y="-575" font-family="Arial" font-weight="bold" font-size="10.00">exit_code:</text>
<text text-anchor="start" x="677.5" y="-575" font-family="Arial" font-size="10.00">  0</text>
<polygon fill="none" stroke="#16a34a" points="623,-565 623,-651 850,-651 850,-565 623,-565"/>
</g>
<!-- entrypoint_target_entry_point_api_project_approve&#45;&gt;entrypoint_response_entry_point_cli_project_approve_approved -->
<g id="edge2" class="edge">
<title>entrypoint_target_entry_point_api_project_approve&#45;&gt;entrypoint_response_entry_point_cli_project_approve_approved</title>
<path fill="none" stroke="#3f3f46" d="M469.7,-409.26C505.8,-455.97 555.24,-512.43 609,-552 613.06,-554.99 617.31,-557.87 621.68,-560.63"/>
<polygon fill="#3f3f46" stroke="#3f3f46" points="620.36,-563.1 628.65,-564.87 623.28,-558.32 620.36,-563.1"/>
</g>
<!-- entrypoint_response_entry_point_cli_project_approve_forbidden -->
<g id="node4" class="node">
<title>entrypoint_response_entry_point_cli_project_approve_forbidden</title>
<polygon fill="#ffffff" stroke="transparent" points="609,-452 609,-538 864,-538 864,-452 609,-452"/>
<polygon fill="#dc2626" stroke="transparent" points="610.5,-529 610.5,-537 863.5,-537 863.5,-529 610.5,-529"/>
<polygon fill="#fef2f2" stroke="transparent" points="610.5,-498 610.5,-529 863.5,-529 863.5,-498 610.5,-498"/>
<text text-anchor="start" x="614.5" y="-515.6" font-family="Arial" font-weight="bold" font-size="13.00">forbidden</text>
<text text-anchor="start" x="614.5" y="-504.6" font-family="Arial" font-size="8.00" fill="#64748b">failure response handler</text>
<text text-anchor="start" x="615.5" y="-486" font-family="Arial" font-weight="bold" font-size="10.00">stderr:</text>
<text text-anchor="start" x="646.5" y="-486" font-family="Arial" font-size="10.00">  text.project.approve.forbidden</text>
<text text-anchor="start" x="615.5" y="-474" font-family="Arial" font-weight="bold" font-size="10.00">stderr bindings:</text>
<text text-anchor="start" x="690.5" y="-474" font-family="Arial" font-size="10.00">  message ← response.body.message</text>
<text text-anchor="start" x="615.5" y="-462" font-family="Arial" font-weight="bold" font-size="10.00">exit_code:</text>
<text text-anchor="start" x="663.5" y="-462" font-family="Arial" font-size="10.00">  5</text>
<polygon fill="none" stroke="#dc2626" points="609,-452 609,-538 864,-538 864,-452 609,-452"/>
</g>
<!-- entrypoint_target_entry_point_api_project_approve&#45;&gt;entrypoint_response_entry_point_cli_project_approve_forbidden -->
<g id="edge3" class="edge">
<title>entrypoint_target_entry_point_api_project_approve&#45;&gt;entrypoint_response_entry_point_cli_project_approve_forbidden</title>
<path fill="none" stroke="#3f3f46" d="M548.04,-406.45C568.3,-417.73 589.06,-428.9 609,-439 615.16,-442.12 621.53,-445.25 627.99,-448.34"/>
<polygon fill="#3f3f46" stroke="#3f3f46" points="627.17,-451.05 635.6,-451.95 629.57,-445.99 627.17,-451.05"/>
</g>
<!-- entrypoint_response_entry_point_cli_project_approve_not_found -->
<g id="node5" class="node">
<title>entrypoint_response_entry_point_cli_project_approve_not_found</title>
<polygon fill="#ffffff" stroke="transparent" points="609,-339 609,-425 864,-425 864,-339 609,-339"/>
<polygon fill="#dc2626" stroke="transparent" points="610.5,-416 610.5,-424 863.5,-424 863.5,-416 610.5,-416"/>
<polygon fill="#fef2f2" stroke="transparent" points="610.5,-385 610.5,-416 863.5,-416 863.5,-385 610.5,-385"/>
<text text-anchor="start" x="614.5" y="-402.6" font-family="Arial" font-weight="bold" font-size="13.00">not_found</text>
<text text-anchor="start" x="614.5" y="-391.6" font-family="Arial" font-size="8.00" fill="#64748b">failure response handler</text>
<text text-anchor="start" x="615.5" y="-373" font-family="Arial" font-weight="bold" font-size="10.00">stderr:</text>
<text text-anchor="start" x="646.5" y="-373" font-family="Arial" font-size="10.00">  text.project.approve.not_found</text>
<text text-anchor="start" x="615.5" y="-361" font-family="Arial" font-weight="bold" font-size="10.00">stderr bindings:</text>
<text text-anchor="start" x="690.5" y="-361" font-family="Arial" font-size="10.00">  message ← response.body.message</text>
<text text-anchor="start" x="615.5" y="-349" font-family="Arial" font-weight="bold" font-size="10.00">exit_code:</text>
<text text-anchor="start" x="663.5" y="-349" font-family="Arial" font-size="10.00">  3</text>
<polygon fill="none" stroke="#dc2626" points="609,-339 609,-425 864,-425 864,-339 609,-339"/>
</g>
<!-- entrypoint_target_entry_point_api_project_approve&#45;&gt;entrypoint_response_entry_point_cli_project_approve_not_found -->
<g id="edge4" class="edge">
<title>entrypoint_target_entry_point_api_project_approve&#45;&gt;entrypoint_response_entry_point_cli_project_approve_not_found</title>
<path fill="none" stroke="#3f3f46" d="M548.33,-349.17C565.73,-352.23 583.52,-355.35 600.87,-358.39"/>
<polygon fill="#3f3f46" stroke="#3f3f46" points="600.45,-361.16 608.81,-359.78 601.42,-355.64 600.45,-361.16"/>
</g>
<!-- entrypoint_response_entry_point_cli_project_approve_transition_not_allowed -->
<g id="node6" class="node">
<title>entrypoint_response_entry_point_cli_project_approve_transition_not_allowed</title>
<polygon fill="#ffffff" stroke="transparent" points="609,-226 609,-312 864,-312 864,-226 609,-226"/>
<polygon fill="#dc2626" stroke="transparent" points="610.5,-303 610.5,-311 863.5,-311 863.5,-303 610.5,-303"/>
<polygon fill="#fef2f2" stroke="transparent" points="610.5,-272 610.5,-303 863.5,-303 863.5,-272 610.5,-272"/>
<text text-anchor="start" x="614.5" y="-289.6" font-family="Arial" font-weight="bold" font-size="13.00">transition_not_allowed</text>
<text text-anchor="start" x="614.5" y="-278.6" font-family="Arial" font-size="8.00" fill="#64748b">failure response handler</text>
<text text-anchor="start" x="615.5" y="-260" font-family="Arial" font-weight="bold" font-size="10.00">stderr:</text>
<text text-anchor="start" x="646.5" y="-260" font-family="Arial" font-size="10.00">  text.project.approve.transition_not_allowed</text>
<text text-anchor="start" x="615.5" y="-248" font-family="Arial" font-weight="bold" font-size="10.00">stderr bindings:</text>
<text text-anchor="start" x="690.5" y="-248" font-family="Arial" font-size="10.00">  message ← response.body.message</text>
<text text-anchor="start" x="615.5" y="-236" font-family="Arial" font-weight="bold" font-size="10.00">exit_code:</text>
<text text-anchor="start" x="663.5" y="-236" font-family="Arial" font-size="10.00">  2</text>
<polygon fill="none" stroke="#dc2626" points="609,-226 609,-312 864,-312 864,-226 609,-226"/>
</g>
<!-- entrypoint_target_entry_point_api_project_approve&#45;&gt;entrypoint_response_entry_point_cli_project_approve_transition_not_allowed -->
<g id="edge5" class="edge">
<title>entrypoint_target_entry_point_api_project_approve&#45;&gt;entrypoint_response_entry_point_cli_project_approve_transition_not_allowed</title>
<path fill="none" stroke="#3f3f46" d="M548.33,-301.25C565.73,-298.25 583.52,-295.19 600.87,-292.2"/>
<polygon fill="#3f3f46" stroke="#3f3f46" points="601.41,-294.95 608.81,-290.83 600.45,-289.43 601.41,-294.95"/>
</g>
<!-- entrypoint_response_entry_point_cli_project_approve_unauthenticated -->
<g id="node7" class="node">
<title>entrypoint_response_entry_point_cli_project_approve_unauthenticated</title>
<polygon fill="#ffffff" stroke="transparent" points="609,-113 609,-199 864,-199 864,-113 609,-113"/>
<polygon fill="#dc2626" stroke="transparent" points="610.5,-190 610.5,-198 863.5,-198 863.5,-190 610.5,-190"/>
<polygon fill="#fef2f2" stroke="transparent" points="610.5,-159 610.5,-190 863.5,-190 863.5,-159 610.5,-159"/>
<text text-anchor="start" x="614.5" y="-176.6" font-family="Arial" font-weight="bold" font-size="13.00">unauthenticated</text>
<text text-anchor="start" x="614.5" y="-165.6" font-family="Arial" font-size="8.00" fill="#64748b">failure response handler</text>
<text text-anchor="start" x="615.5" y="-147" font-family="Arial" font-weight="bold" font-size="10.00">stderr:</text>
<text text-anchor="start" x="646.5" y="-147" font-family="Arial" font-size="10.00">  text.project.approve.unauthenticated</text>
<text text-anchor="start" x="615.5" y="-135" font-family="Arial" font-weight="bold" font-size="10.00">stderr bindings:</text>
<text text-anchor="start" x="690.5" y="-135" font-family="Arial" font-size="10.00">  message ← response.body.message</text>
<text text-anchor="start" x="615.5" y="-123" font-family="Arial" font-weight="bold" font-size="10.00">exit_code:</text>
<text text-anchor="start" x="663.5" y="-123" font-family="Arial" font-size="10.00">  4</text>
<polygon fill="none" stroke="#dc2626" points="609,-113 609,-199 864,-199 864,-113 609,-113"/>
</g>
<!-- entrypoint_target_entry_point_api_project_approve&#45;&gt;entrypoint_response_entry_point_cli_project_approve_unauthenticated -->
<g id="edge6" class="edge">
<title>entrypoint_target_entry_point_api_project_approve&#45;&gt;entrypoint_response_entry_point_cli_project_approve_unauthenticated</title>
<path fill="none" stroke="#3f3f46" d="M548.19,-245.2C568.43,-234.09 589.14,-223.05 609,-213 615.93,-209.49 623.12,-205.96 630.4,-202.47"/>
<polygon fill="#3f3f46" stroke="#3f3f46" points="631.68,-204.97 637.7,-199 629.27,-199.91 631.68,-204.97"/>
</g>
<!-- entrypoint_response_entry_point_cli_project_approve_unavailable -->
<g id="node8" class="node">
<title>entrypoint_response_entry_point_cli_project_approve_unavailable</title>
<polygon fill="#ffffff" stroke="transparent" points="642.5,0 642.5,-86 830.5,-86 830.5,0 642.5,0"/>
<polygon fill="#dc2626" stroke="transparent" points="643.5,-77 643.5,-85 829.5,-85 829.5,-77 643.5,-77"/>
<polygon fill="#fef2f2" stroke="transparent" points="643.5,-46 643.5,-77 829.5,-77 829.5,-46 643.5,-46"/>
<text text-anchor="start" x="647.5" y="-63.6" font-family="Arial" font-weight="bold" font-size="13.00">unavailable</text>
<text text-anchor="start" x="647.5" y="-52.6" font-family="Arial" font-size="8.00" fill="#64748b">failure response handler</text>
<text text-anchor="start" x="648.5" y="-34" font-family="Arial" font-weight="bold" font-size="10.00">stderr:</text>
<text text-anchor="start" x="679.5" y="-34" font-family="Arial" font-size="10.00">  text.project.approve.unavailable</text>
<text text-anchor="start" x="648.5" y="-22" font-family="Arial" font-weight="bold" font-size="10.00">exit_code:</text>
<text text-anchor="start" x="696.5" y="-22" font-family="Arial" font-size="10.00">  75</text>
<text text-anchor="start" x="648.5" y="-10" font-family="Arial" font-weight="bold" font-size="10.00">retry:</text>
<text text-anchor="start" x="673.5" y="-10" font-family="Arial" font-size="10.00">  3 exponential</text>
<polygon fill="none" stroke="#dc2626" points="642.5,0 642.5,-86 830.5,-86 830.5,0 642.5,0"/>
</g>
<!-- entrypoint_target_entry_point_api_project_approve&#45;&gt;entrypoint_response_entry_point_cli_project_approve_unavailable -->
<g id="edge7" class="edge">
<title>entrypoint_target_entry_point_api_project_approve&#45;&gt;entrypoint_response_entry_point_cli_project_approve_unavailable</title>
<path fill="none" stroke="#3f3f46" d="M470.57,-240.83C506.69,-194.74 555.87,-139.2 609,-100 617.19,-93.96 626.12,-88.36 635.32,-83.22"/>
<polygon fill="#3f3f46" stroke="#3f3f46" points="636.7,-85.66 642.4,-79.38 634.03,-80.74 636.7,-85.66"/>
</g>
<!-- entrypoint_response_entry_point_cli_project_approve_approved&#45;&gt;entrypoint_response_entry_point_cli_project_approve_forbidden -->
<!-- entrypoint_response_entry_point_cli_project_approve_forbidden&#45;&gt;entrypoint_response_entry_point_cli_project_approve_not_found -->
<!-- entrypoint_response_entry_point_cli_project_approve_not_found&#45;&gt;entrypoint_response_entry_point_cli_project_approve_transition_not_allowed -->
<!-- entrypoint_response_entry_point_cli_project_approve_transition_not_allowed&#45;&gt;entrypoint_response_entry_point_cli_project_approve_unauthenticated -->
<!-- entrypoint_response_entry_point_cli_project_approve_unauthenticated&#45;&gt;entrypoint_response_entry_point_cli_project_approve_unavailable -->
</g>
</svg>
