<svg width="1103pt" height="366pt"
 viewBox="0.00 0.00 1103.00 366.00" xmlns="http://www.w3.org/2000/svg" xmlns:xlink="http://www.w3.org/1999/xlink">
<!-- pyspec-contract-input-sha256: d9b814a59dd9ba46c885f9b52a9977d06c81234bbe2b7d74a7fa7a2ab98998f0 -->
<g id="graph0" class="graph" transform="scale(1 1) rotate(0) translate(18 348)">
<title>entrypoint_entry_point_cli_project_approve</title>
<!-- entry_start -->
<g id="node1" class="node">
<title>entry_start</title>
<ellipse fill="none" stroke="#0891b2" cx="21" cy="-165" rx="21" ry="21"/>
<text text-anchor="middle" x="21" y="-162.8" font-family="Arial" font-size="9.00" fill="#155e75">entry</text>
</g>
<!-- entrypoint_entry_point_cli_project_approve -->
<g id="node2" class="node">
<title>entrypoint_entry_point_cli_project_approve</title>
<polygon fill="#ffffff" stroke="transparent" points="103,-124.5 103,-205.5 284,-205.5 284,-124.5 103,-124.5"/>
<polygon fill="#0891b2" stroke="transparent" points="104.5,-196 104.5,-204 283.5,-204 283.5,-196 104.5,-196"/>
<polygon fill="#ecfeff" stroke="transparent" points="104.5,-165 104.5,-196 283.5,-196 283.5,-165 104.5,-165"/>
<text text-anchor="start" x="108.5" y="-182.6" font-family="Arial" font-weight="bold" font-size="13.00">project approve</text>
<text text-anchor="start" x="108.5" y="-171.6" font-family="Arial" font-size="8.00" fill="#64748b">cli entry</text>
<text text-anchor="start" x="108.5" y="-154" font-family="Arial" font-style="italic" font-size="10.00" fill="#3f3f46">CLI entry for approval automation.</text>
<text text-anchor="start" x="109.5" y="-134" font-family="Arial" font-weight="bold" font-size="10.00">command:</text>
<text text-anchor="start" x="159.5" y="-134" font-family="Arial" font-size="10.00">  command.project.approve</text>
<polygon fill="none" stroke="#0891b2" points="103,-124.5 103,-205.5 284,-205.5 284,-124.5 103,-124.5"/>
</g>
<!-- entry_start&#45;&gt;entrypoint_entry_point_cli_project_approve -->
<g id="edge1" class="edge">
<title>entry_start&#45;&gt;entrypoint_entry_point_cli_project_approve</title>
<path fill="none" stroke="#3f3f46" d="M42.23,-165C55.86,-165 74.94,-165 94.95,-165"/>
<polygon fill="#3f3f46" stroke="#3f3f46" points="94.96,-167.8 102.96,-165 94.96,-162.2 94.96,-167.8"/>
</g>
<!-- entrypoint_input_entry_point_cli_project_approve -->
<g id="node3" class="node">
<title>entrypoint_input_entry_point_cli_project_approve</title>
<polygon fill="#ffffff" stroke="transparent" points="345,-124 345,-206 455,-206 455,-124 345,-124"/>
<polygon fill="#64748b" stroke="transparent" points="346,-197 346,-205 454,-205 454,-197 346,-197"/>
<polygon fill="#f8fafc" stroke="transparent" points="346,-166 346,-197 454,-197 454,-166 346,-166"/>
<text text-anchor="start" x="350" y="-183.6" font-family="Arial" font-weight="bold" font-size="13.00">command input</text>
<text text-anchor="start" x="350" y="-172.6" font-family="Arial" font-size="8.00" fill="#64748b">external data</text>
<text text-anchor="start" x="350" y="-155" font-family="Arial" font-weight="bold" font-size="10.00">args</text>
<text text-anchor="start" x="350" y="-144" font-family="Arial" font-size="10.00">approved_by</text>
<text text-anchor="start" x="406" y="-144" font-family="Arial" font-size="8.00" fill="#94a3b8">  ID</text>
<text text-anchor="start" x="350" y="-133" font-family="Arial" font-size="10.00">project_id</text>
<text text-anchor="start" x="393" y="-133" font-family="Arial" font-size="8.00" fill="#94a3b8">  ID</text>
<polygon fill="none" stroke="#64748b" points="345,-124 345,-206 455,-206 455,-124 345,-124"/>
</g>
<!-- entrypoint_entry_point_cli_project_approve&#45;&gt;entrypoint_input_entry_point_cli_project_approve -->
<g id="edge2" class="edge">
<title>entrypoint_entry_point_cli_project_approve&#45;&gt;entrypoint_input_entry_point_cli_project_approve</title>
<path fill="none" stroke="#3f3f46" d="M284.2,-165C302,-165 320.31,-165 336.94,-165"/>
<polygon fill="#3f3f46" stroke="#3f3f46" points="336.96,-167.8 344.96,-165 336.96,-162.2 336.96,-167.8"/>
</g>
<!-- entrypoint_target_operation_project_approve -->
<g id="node4" class="node">
<title>entrypoint_target_operation_project_approve</title>
<polygon fill="#ffffff" stroke="transparent" points="516,-38 516,-292 755,-292 755,-38 516,-38"/>
<polygon fill="#2563eb" stroke="transparent" points="517.5,-283 517.5,-291 754.5,-291 754.5,-283 517.5,-283"/>
<polygon fill="#eff6ff" stroke="transparent" points="517.5,-252 517.5,-283 754.5,-283 754.5,-252 517.5,-252"/>
<text text-anchor="start" x="521.5" y="-269.6" font-family="Arial" font-weight="bold" font-size="13.00">operation.project.approve</text>
<text text-anchor="start" x="521.5" y="-258.6" font-family="Arial" font-size="8.00" fill="#64748b">target capability</text>
<text text-anchor="start" x="521.5" y="-241" font-family="Arial" font-style="italic" font-size="10.00" fill="#3f3f46">Reviewers can approve submitted dispatch projects.</text>
<text text-anchor="start" x="521.5" y="-222" font-family="Arial" font-weight="bold" font-size="10.00">transitions</text>
<text text-anchor="start" x="521.5" y="-211" font-family="Arial" font-size="10.00">Project.status</text>
<text text-anchor="start" x="582.5" y="-211" font-family="Arial" font-size="8.00" fill="#94a3b8">  ProjectStatus</text>
<text text-anchor="start" x="634.5" y="-211" font-family="Arial" font-size="8.00">  submitted → approved</text>
<text text-anchor="start" x="521.5" y="-192" font-family="Arial" font-weight="bold" font-size="10.00">input</text>
<text text-anchor="start" x="521.5" y="-181" font-family="Arial" font-size="10.00">approved_by</text>
<text text-anchor="start" x="577.5" y="-181" font-family="Arial" font-size="8.00" fill="#94a3b8">  ID</text>
<text text-anchor="start" x="521.5" y="-170" font-family="Arial" font-size="10.00">project_id</text>
<text text-anchor="start" x="564.5" y="-170" font-family="Arial" font-size="8.00" fill="#94a3b8">  ID</text>
<text text-anchor="start" x="521.5" y="-151" font-family="Arial" font-weight="bold" font-size="10.00">success</text>
<text text-anchor="start" x="521.5" y="-140" font-family="Arial" font-size="10.00">approved</text>
<text text-anchor="start" x="561.5" y="-140" font-family="Arial" font-size="8.00" fill="#94a3b8">  Project</text>
<text text-anchor="start" x="521.5" y="-121" font-family="Arial" font-weight="bold" font-size="10.00">failure</text>
<text text-anchor="start" x="521.5" y="-110" font-family="Arial" font-size="10.00">invalid_state</text>
<text text-anchor="start" x="576.5" y="-110" font-family="Arial" font-size="8.00" fill="#94a3b8">  Problem</text>
<text text-anchor="start" x="521.5" y="-91" font-family="Arial" font-weight="bold" font-size="10.00">failure</text>
<text text-anchor="start" x="521.5" y="-80" font-family="Arial" font-size="10.00">not_found</text>
<text text-anchor="start" x="564.5" y="-80" font-family="Arial" font-size="8.00" fill="#94a3b8">  Problem</text>
<text text-anchor="start" x="522.5" y="-60" font-family="Arial" font-weight="bold" font-size="10.00">emit:</text>
<text text-anchor="start" x="546.5" y="-60" font-family="Arial" font-size="10.00">  approved → event.project.approved</text>
<text text-anchor="start" x="522.5" y="-48" font-family="Arial" font-weight="bold" font-size="10.00">payload:</text>
<text text-anchor="start" x="562.5" y="-48" font-family="Arial" font-size="10.00">  payload</text>
<text text-anchor="start" x="602.5" y="-48" font-family="Arial" font-size="8.00" fill="#94a3b8">  ProjectApproved</text>
<polygon fill="none" stroke="#2563eb" points="516,-38 516,-292 755,-292 755,-38 516,-38"/>
</g>
<!-- entrypoint_input_entry_point_cli_project_approve&#45;&gt;entrypoint_target_operation_project_approve -->
<g id="edge3" class="edge">
<title>entrypoint_input_entry_point_cli_project_approve&#45;&gt;entrypoint_target_operation_project_approve</title>
<path fill="none" stroke="#3f3f46" d="M455.16,-165C470.93,-165 488.86,-165 507.15,-165"/>
<polygon fill="#3f3f46" stroke="#3f3f46" points="507.57,-167.8 515.57,-165 507.57,-162.2 507.57,-167.8"/>
</g>
<!-- entrypoint_response_entry_point_cli_project_approve_approved -->
<g id="node6" class="node">
<title>entrypoint_response_entry_point_cli_project_approve_approved</title>
<polygon fill="#ffffff" stroke="transparent" points="817,-238 817,-330 955,-330 955,-238 817,-238"/>
<polygon fill="#64748b" stroke="transparent" points="818,-321 818,-329 954,-329 954,-321 818,-321"/>
<polygon fill="#f8fafc" stroke="transparent" points="818,-290 818,-321 954,-321 954,-290 818,-290"/>
<text text-anchor="start" x="822" y="-307.6" font-family="Arial" font-weight="bold" font-size="13.00">approved</text>
<text text-anchor="start" x="822" y="-296.6" font-family="Arial" font-size="8.00" fill="#64748b">success response</text>
<text text-anchor="start" x="822" y="-279" font-family="Arial" font-weight="bold" font-size="10.00">stdout</text>
<text text-anchor="start" x="822" y="-268" font-family="Arial" font-size="10.00">stdout</text>
<text text-anchor="start" x="850" y="-268" font-family="Arial" font-size="8.00" fill="#94a3b8">  Project</text>
<text text-anchor="start" x="880" y="-268" font-family="Arial" font-size="8.00"> ← $outcome.result</text>
<text text-anchor="start" x="823" y="-248" font-family="Arial" font-weight="bold" font-size="10.00">exit_code:</text>
<text text-anchor="start" x="871" y="-248" font-family="Arial" font-size="10.00">  0</text>
<polygon fill="none" stroke="#64748b" points="817,-238 817,-330 955,-330 955,-238 817,-238"/>
</g>
<!-- entrypoint_target_operation_project_approve&#45;&gt;entrypoint_response_entry_point_cli_project_approve_approved -->
<g id="edge4" class="edge">
<title>entrypoint_target_operation_project_approve&#45;&gt;entrypoint_response_entry_point_cli_project_approve_approved</title>
<path fill="none" stroke="#3f3f46" d="M755.29,-221.89C773.74,-230.72 792.36,-239.64 809.5,-247.84"/>
<polygon fill="#3f3f46" stroke="#3f3f46" points="808.33,-250.39 816.75,-251.32 810.75,-245.34 808.33,-250.39"/>
</g>
<!-- entrypoint_response_entry_point_cli_project_approve_invalid_state -->
<g id="node7" class="node">
<title>entrypoint_response_entry_point_cli_project_approve_invalid_state</title>
<polygon fill="#ffffff" stroke="transparent" points="816,-119 816,-211 956,-211 956,-119 816,-119"/>
<polygon fill="#64748b" stroke="transparent" points="817,-202 817,-210 955,-210 955,-202 817,-202"/>
<polygon fill="#f8fafc" stroke="transparent" points="817,-171 817,-202 955,-202 955,-171 817,-171"/>
<text text-anchor="start" x="821" y="-188.6" font-family="Arial" font-weight="bold" font-size="13.00">invalid_state</text>
<text text-anchor="start" x="821" y="-177.6" font-family="Arial" font-size="8.00" fill="#64748b">failure response</text>
<text text-anchor="start" x="821" y="-160" font-family="Arial" font-weight="bold" font-size="10.00">stderr</text>
<text text-anchor="start" x="821" y="-149" font-family="Arial" font-size="10.00">stderr</text>
<text text-anchor="start" x="846" y="-149" font-family="Arial" font-size="8.00" fill="#94a3b8">  Problem</text>
<text text-anchor="start" x="881" y="-149" font-family="Arial" font-size="8.00"> ← $outcome.result</text>
<text text-anchor="start" x="822" y="-129" font-family="Arial" font-weight="bold" font-size="10.00">exit_code:</text>
<text text-anchor="start" x="870" y="-129" font-family="Arial" font-size="10.00">  2</text>
<polygon fill="none" stroke="#64748b" points="816,-119 816,-211 956,-211 956,-119 816,-119"/>
</g>
<!-- entrypoint_target_operation_project_approve&#45;&gt;entrypoint_response_entry_point_cli_project_approve_invalid_state -->
<g id="edge6" class="edge">
<title>entrypoint_target_operation_project_approve&#45;&gt;entrypoint_response_entry_point_cli_project_approve_invalid_state</title>
<path fill="none" stroke="#3f3f46" d="M755.29,-165C773.09,-165 791.04,-165 807.68,-165"/>
<polygon fill="#3f3f46" stroke="#3f3f46" points="807.73,-167.8 815.73,-165 807.73,-162.2 807.73,-167.8"/>
</g>
<!-- entrypoint_response_entry_point_cli_project_approve_not_found -->
<g id="node8" class="node">
<title>entrypoint_response_entry_point_cli_project_approve_not_found</title>
<polygon fill="#ffffff" stroke="transparent" points="816,0 816,-92 956,-92 956,0 816,0"/>
<polygon fill="#64748b" stroke="transparent" points="817,-83 817,-91 955,-91 955,-83 817,-83"/>
<polygon fill="#f8fafc" stroke="transparent" points="817,-52 817,-83 955,-83 955,-52 817,-52"/>
<text text-anchor="start" x="821" y="-69.6" font-family="Arial" font-weight="bold" font-size="13.00">not_found</text>
<text text-anchor="start" x="821" y="-58.6" font-family="Arial" font-size="8.00" fill="#64748b">failure response</text>
<text text-anchor="start" x="821" y="-41" font-family="Arial" font-weight="bold" font-size="10.00">stderr</text>
<text text-anchor="start" x="821" y="-30" font-family="Arial" font-size="10.00">stderr</text>
<text text-anchor="start" x="846" y="-30" font-family="Arial" font-size="8.00" fill="#94a3b8">  Problem</text>
<text text-anchor="start" x="881" y="-30" font-family="Arial" font-size="8.00"> ← $outcome.result</text>
<text text-anchor="start" x="822" y="-10" font-family="Arial" font-weight="bold" font-size="10.00">exit_code:</text>
<text text-anchor="start" x="870" y="-10" font-family="Arial" font-size="10.00">  3</text>
<polygon fill="none" stroke="#64748b" points="816,0 816,-92 956,-92 956,0 816,0"/>
</g>
<!-- entrypoint_target_operation_project_approve&#45;&gt;entrypoint_response_entry_point_cli_project_approve_not_found -->
<g id="edge8" class="edge">
<title>entrypoint_target_operation_project_approve&#45;&gt;entrypoint_response_entry_point_cli_project_approve_not_found</title>
<path fill="none" stroke="#3f3f46" d="M755.29,-108.11C773.25,-99.51 791.37,-90.84 808.13,-82.81"/>
<polygon fill="#3f3f46" stroke="#3f3f46" points="809.73,-85.15 815.73,-79.17 807.31,-80.1 809.73,-85.15"/>
</g>
<!-- entry_exit -->
<g id="node5" class="node">
<title>entry_exit</title>
<ellipse fill="none" stroke="#0891b2" cx="1042" cy="-165" rx="21" ry="21"/>
<ellipse fill="none" stroke="#0891b2" cx="1042" cy="-165" rx="25" ry="25"/>
<text text-anchor="middle" x="1042" y="-162.8" font-family="Arial" font-size="9.00" fill="#155e75">exit</text>
</g>
<!-- entrypoint_response_entry_point_cli_project_approve_approved&#45;&gt;entry_exit -->
<g id="edge5" class="edge">
<title>entrypoint_response_entry_point_cli_project_approve_approved&#45;&gt;entry_exit</title>
<path fill="none" stroke="#3f3f46" d="M946.54,-237.99C970.36,-219.58 996.54,-199.36 1015.28,-184.88"/>
<polygon fill="#3f3f46" stroke="#3f3f46" points="1017.21,-186.92 1021.83,-179.81 1013.79,-182.49 1017.21,-186.92"/>
</g>
<!-- entrypoint_response_entry_point_cli_project_approve_approved&#45;&gt;entrypoint_response_entry_point_cli_project_approve_invalid_state -->
<!-- entrypoint_response_entry_point_cli_project_approve_invalid_state&#45;&gt;entry_exit -->
<g id="edge7" class="edge">
<title>entrypoint_response_entry_point_cli_project_approve_invalid_state&#45;&gt;entry_exit</title>
<path fill="none" stroke="#3f3f46" d="M956.34,-165C974.66,-165 993.57,-165 1008.86,-165"/>
<polygon fill="#3f3f46" stroke="#3f3f46" points="1008.95,-167.8 1016.95,-165 1008.95,-162.2 1008.95,-167.8"/>
</g>
<!-- entrypoint_response_entry_point_cli_project_approve_invalid_state&#45;&gt;entrypoint_response_entry_point_cli_project_approve_not_found -->
<!-- entrypoint_response_entry_point_cli_project_approve_not_found&#45;&gt;entry_exit -->
<g id="edge9" class="edge">
<title>entrypoint_response_entry_point_cli_project_approve_not_found&#45;&gt;entry_exit</title>
<path fill="none" stroke="#3f3f46" d="M946.54,-92.01C970.36,-110.42 996.54,-130.64 1015.28,-145.12"/>
<polygon fill="#3f3f46" stroke="#3f3f46" points="1013.79,-147.51 1021.83,-150.19 1017.21,-143.08 1013.79,-147.51"/>
</g>
</g>
</svg>
