<svg width="1112pt" height="560pt"
 viewBox="0.00 0.00 1112.00 560.00" xmlns="http://www.w3.org/2000/svg" xmlns:xlink="http://www.w3.org/1999/xlink">
<!-- pyspec-contract-input-sha256: 29870ba2c15f24a2a31d3fe413eba0bfc41b5a77e3825b21c1f068a10c946272 -->
<g id="graph0" class="graph" transform="scale(1 1) rotate(0) translate(18 542)">
<title>entrypoint_entry_point_cli_project_approve</title>
<!-- entrypoint_entry_point_cli_project_approve -->
<g id="node1" class="node">
<title>entrypoint_entry_point_cli_project_approve</title>
<polygon fill="#ffffff" stroke="transparent" points="0,-221.5 0,-302.5 210,-302.5 210,-221.5 0,-221.5"/>
<polygon fill="#0891b2" stroke="transparent" points="1,-293 1,-301 209,-301 209,-293 1,-293"/>
<polygon fill="#ecfeff" stroke="transparent" points="1,-262 1,-293 209,-293 209,-262 1,-262"/>
<text text-anchor="start" x="5" y="-279.6" font-family="Arial" font-weight="bold" font-size="13.00">project approve</text>
<text text-anchor="start" x="5" y="-268.6" font-family="Arial" font-size="8.00" fill="#64748b">cli entry point</text>
<text text-anchor="start" x="5" y="-251" font-family="Arial" font-style="italic" font-size="10.00" fill="#3f3f46">CLI entry for approval automation.</text>
<text text-anchor="start" x="6" y="-231" font-family="Arial" font-weight="bold" font-size="10.00">cli command:</text>
<text text-anchor="start" x="70" y="-231" font-family="Arial" font-size="10.00">  cli_command.project.approve</text>
<polygon fill="none" stroke="#0891b2" points="0,-221.5 0,-302.5 210,-302.5 210,-221.5 0,-221.5"/>
</g>
<!-- entrypoint_input_entry_point_cli_project_approve -->
<g id="node2" class="node">
<title>entrypoint_input_entry_point_cli_project_approve</title>
<polygon fill="#ffffff" stroke="transparent" points="271,-221 271,-303 381,-303 381,-221 271,-221"/>
<polygon fill="#64748b" stroke="transparent" points="272,-294 272,-302 380,-302 380,-294 272,-294"/>
<polygon fill="#f8fafc" stroke="transparent" points="272,-263 272,-294 380,-294 380,-263 272,-263"/>
<text text-anchor="start" x="276" y="-280.6" font-family="Arial" font-weight="bold" font-size="13.00">command input</text>
<text text-anchor="start" x="276" y="-269.6" font-family="Arial" font-size="8.00" fill="#64748b">external data</text>
<text text-anchor="start" x="276" y="-252" font-family="Arial" font-weight="bold" font-size="10.00">args</text>
<text text-anchor="start" x="276" y="-241" font-family="Arial" font-size="10.00">approved_by</text>
<text text-anchor="start" x="332" y="-241" font-family="Arial" font-size="8.00" fill="#94a3b8">  ID</text>
<text text-anchor="start" x="276" y="-230" font-family="Arial" font-size="10.00">project_id</text>
<text text-anchor="start" x="319" y="-230" font-family="Arial" font-size="8.00" fill="#94a3b8">  ID</text>
<polygon fill="none" stroke="#64748b" points="271,-221 271,-303 381,-303 381,-221 271,-221"/>
</g>
<!-- entrypoint_entry_point_cli_project_approve&#45;&gt;entrypoint_input_entry_point_cli_project_approve -->
<g id="edge1" class="edge">
<title>entrypoint_entry_point_cli_project_approve&#45;&gt;entrypoint_input_entry_point_cli_project_approve</title>
<path fill="none" stroke="#3f3f46" d="M210.05,-262C228,-262 246.14,-262 262.55,-262"/>
<polygon fill="#3f3f46" stroke="#3f3f46" points="262.96,-264.8 270.96,-262 262.96,-259.2 262.96,-264.8"/>
</g>
<!-- entrypoint_target_entry_point_api_project_approve -->
<g id="node3" class="node">
<title>entrypoint_target_entry_point_api_project_approve</title>
<polygon fill="#ffffff" stroke="transparent" points="442,0 442,-524 755,-524 755,0 442,0"/>
<polygon fill="#0891b2" stroke="transparent" points="443.5,-515 443.5,-523 754.5,-523 754.5,-515 443.5,-515"/>
<polygon fill="#ecfeff" stroke="transparent" points="443.5,-484 443.5,-515 754.5,-515 754.5,-484 443.5,-484"/>
<text text-anchor="start" x="447.5" y="-501.6" font-family="Arial" font-weight="bold" font-size="13.00">entry_point.api.project.approve</text>
<text text-anchor="start" x="447.5" y="-490.6" font-family="Arial" font-size="8.00" fill="#64748b">delegated entry point</text>
<text text-anchor="start" x="447.5" y="-473" font-family="Arial" font-style="italic" font-size="10.00" fill="#3f3f46">HTTP endpoint for approving submitted dispatch</text>
<text text-anchor="start" x="447.5" y="-462" font-family="Arial" font-style="italic" font-size="10.00" fill="#3f3f46">projects.</text>
<text text-anchor="start" x="448.5" y="-442" font-family="Arial" font-weight="bold" font-size="10.00">adapter:</text>
<text text-anchor="start" x="486.5" y="-442" font-family="Arial" font-size="10.00">  http_api</text>
<text text-anchor="start" x="448.5" y="-430" font-family="Arial" font-weight="bold" font-size="10.00">target:</text>
<text text-anchor="start" x="478.5" y="-430" font-family="Arial" font-size="10.00">  operation operation.project.approve</text>
<text text-anchor="start" x="448.5" y="-418" font-family="Arial" font-weight="bold" font-size="10.00">authorization_policy:</text>
<text text-anchor="start" x="547.5" y="-418" font-family="Arial" font-size="10.00">  authorization_policy.project.approve</text>
<text text-anchor="start" x="448.5" y="-406" font-family="Arial" font-weight="bold" font-size="10.00">authorization_effect:</text>
<text text-anchor="start" x="543.5" y="-406" font-family="Arial" font-size="10.00">  allow</text>
<text text-anchor="start" x="448.5" y="-394" font-family="Arial" font-weight="bold" font-size="10.00">authorization_subjects:</text>
<text text-anchor="start" x="557.5" y="-394" font-family="Arial" font-size="10.00">  actor ← input.approved_by</text>
<text text-anchor="start" x="447.5" y="-374" font-family="Arial" font-weight="bold" font-size="10.00">authorization_targets</text>
<text text-anchor="start" x="447.5" y="-362" font-family="Arial" font-size="10.00">operation: operation.project.approve</text>
<text text-anchor="start" x="447.5" y="-351" font-family="Arial" font-size="10.00">model: Project</text>
<text text-anchor="start" x="448.5" y="-332" font-family="Arial" font-weight="bold" font-size="10.00">authorization_conditions:</text>
<text text-anchor="start" x="568.5" y="-332" font-family="Arial" font-size="10.00">  Project.status = submitted</text>
<text text-anchor="start" x="448.5" y="-320" font-family="Arial" font-weight="bold" font-size="10.00">authorization_policy:</text>
<text text-anchor="start" x="547.5" y="-320" font-family="Arial" font-size="10.00">  authorization_policy.project.approve</text>
<text text-anchor="start" x="448.5" y="-308" font-family="Arial" font-weight="bold" font-size="10.00">authorization_effect:</text>
<text text-anchor="start" x="543.5" y="-308" font-family="Arial" font-size="10.00">  allow</text>
<text text-anchor="start" x="448.5" y="-296" font-family="Arial" font-weight="bold" font-size="10.00">authorization_subjects:</text>
<text text-anchor="start" x="557.5" y="-296" font-family="Arial" font-size="10.00">  actor ← input.approved_by</text>
<text text-anchor="start" x="447.5" y="-276" font-family="Arial" font-weight="bold" font-size="10.00">authorization_targets</text>
<text text-anchor="start" x="447.5" y="-264" font-family="Arial" font-size="10.00">operation: operation.project.approve</text>
<text text-anchor="start" x="447.5" y="-253" font-family="Arial" font-size="10.00">model: Project</text>
<text text-anchor="start" x="448.5" y="-234" font-family="Arial" font-weight="bold" font-size="10.00">authorization_conditions:</text>
<text text-anchor="start" x="568.5" y="-234" font-family="Arial" font-size="10.00">  Project.status = submitted</text>
<text text-anchor="start" x="447.5" y="-214" font-family="Arial" font-weight="bold" font-size="10.00">transitions</text>
<text text-anchor="start" x="447.5" y="-203" font-family="Arial" font-size="10.00">Project.status</text>
<text text-anchor="start" x="508.5" y="-203" font-family="Arial" font-size="8.00" fill="#94a3b8">  enum&lt;draft|submitted|approved|archived&gt;</text>
<text text-anchor="start" x="664.5" y="-203" font-family="Arial" font-size="8.00">  submitted → approved</text>
<text text-anchor="start" x="447.5" y="-184" font-family="Arial" font-weight="bold" font-size="10.00">input</text>
<text text-anchor="start" x="447.5" y="-173" font-family="Arial" font-size="10.00">approved_by</text>
<text text-anchor="start" x="503.5" y="-173" font-family="Arial" font-size="8.00" fill="#94a3b8">  ID</text>
<text text-anchor="start" x="447.5" y="-162" font-family="Arial" font-size="10.00">project_id</text>
<text text-anchor="start" x="490.5" y="-162" font-family="Arial" font-size="8.00" fill="#94a3b8">  ID</text>
<text text-anchor="start" x="447.5" y="-143" font-family="Arial" font-weight="bold" font-size="10.00">success</text>
<text text-anchor="start" x="447.5" y="-132" font-family="Arial" font-size="10.00">approved</text>
<text text-anchor="start" x="487.5" y="-132" font-family="Arial" font-size="8.00" fill="#94a3b8">  Project</text>
<text text-anchor="start" x="447.5" y="-113" font-family="Arial" font-weight="bold" font-size="10.00">failure</text>
<text text-anchor="start" x="447.5" y="-102" font-family="Arial" font-size="10.00">invalid_state</text>
<text text-anchor="start" x="502.5" y="-102" font-family="Arial" font-size="8.00" fill="#94a3b8">  Problem</text>
<text text-anchor="start" x="447.5" y="-83" font-family="Arial" font-weight="bold" font-size="10.00">failure</text>
<text text-anchor="start" x="447.5" y="-72" font-family="Arial" font-size="10.00">not_found</text>
<text text-anchor="start" x="490.5" y="-72" font-family="Arial" font-size="8.00" fill="#94a3b8">  Problem</text>
<text text-anchor="start" x="447.5" y="-53" font-family="Arial" font-weight="bold" font-size="10.00">failure</text>
<text text-anchor="start" x="447.5" y="-42" font-family="Arial" font-size="10.00">unavailable</text>
<text text-anchor="start" x="496.5" y="-42" font-family="Arial" font-size="8.00" fill="#94a3b8">  Problem</text>
<text text-anchor="start" x="448.5" y="-22" font-family="Arial" font-weight="bold" font-size="10.00">emit:</text>
<text text-anchor="start" x="472.5" y="-22" font-family="Arial" font-size="10.00">  approved → event.project.approved</text>
<text text-anchor="start" x="448.5" y="-10" font-family="Arial" font-weight="bold" font-size="10.00">payload_schema:</text>
<text text-anchor="start" x="530.5" y="-10" font-family="Arial" font-size="10.00">  payload_schema</text>
<text text-anchor="start" x="610.5" y="-10" font-family="Arial" font-size="8.00" fill="#94a3b8">  data_contract.project.approved</text>
<polygon fill="none" stroke="#0891b2" points="442,0 442,-524 755,-524 755,0 442,0"/>
</g>
<!-- entrypoint_input_entry_point_cli_project_approve&#45;&gt;entrypoint_target_entry_point_api_project_approve -->
<g id="edge2" class="edge">
<title>entrypoint_input_entry_point_cli_project_approve&#45;&gt;entrypoint_target_entry_point_api_project_approve</title>
<path fill="none" stroke="#3f3f46" d="M381.09,-262C396.81,-262 414.84,-262 433.65,-262"/>
<polygon fill="#3f3f46" stroke="#3f3f46" points="433.76,-264.8 441.76,-262 433.76,-259.2 433.76,-264.8"/>
</g>
<!-- entrypoint_response_entry_point_cli_project_approve_approved -->
<g id="node4" class="node">
<title>entrypoint_response_entry_point_cli_project_approve_approved</title>
<polygon fill="#ffffff" stroke="transparent" points="830,-389 830,-475 1062,-475 1062,-389 830,-389"/>
<polygon fill="#64748b" stroke="transparent" points="831,-466 831,-474 1061,-474 1061,-466 831,-466"/>
<polygon fill="#f8fafc" stroke="transparent" points="831,-435 831,-466 1061,-466 1061,-435 831,-435"/>
<text text-anchor="start" x="835" y="-452.6" font-family="Arial" font-weight="bold" font-size="13.00">approved</text>
<text text-anchor="start" x="835" y="-441.6" font-family="Arial" font-size="8.00" fill="#64748b">success response handler</text>
<text text-anchor="start" x="836" y="-423" font-family="Arial" font-weight="bold" font-size="10.00">stdout:</text>
<text text-anchor="start" x="869" y="-423" font-family="Arial" font-size="10.00">  text.project.approve.success</text>
<text text-anchor="start" x="836" y="-411" font-family="Arial" font-weight="bold" font-size="10.00">stdout bindings:</text>
<text text-anchor="start" x="913" y="-411" font-family="Arial" font-size="10.00">  project_id ← $response.body.id</text>
<text text-anchor="start" x="836" y="-399" font-family="Arial" font-weight="bold" font-size="10.00">exit_code:</text>
<text text-anchor="start" x="884" y="-399" font-family="Arial" font-size="10.00">  0</text>
<polygon fill="none" stroke="#64748b" points="830,-389 830,-475 1062,-475 1062,-389 830,-389"/>
</g>
<!-- entrypoint_target_entry_point_api_project_approve&#45;&gt;entrypoint_response_entry_point_cli_project_approve_approved -->
<g id="edge3" class="edge">
<title>entrypoint_target_entry_point_api_project_approve&#45;&gt;entrypoint_response_entry_point_cli_project_approve_approved</title>
<path fill="none" stroke="#3f3f46" d="M755.18,-345.76C775.52,-356.17 796.18,-366.5 816,-376 822.55,-379.14 829.32,-382.31 836.16,-385.45"/>
<polygon fill="#3f3f46" stroke="#3f3f46" points="835.18,-388.08 843.62,-388.85 837.5,-382.98 835.18,-388.08"/>
</g>
<!-- entrypoint_response_entry_point_cli_project_approve_invalid_state -->
<g id="node5" class="node">
<title>entrypoint_response_entry_point_cli_project_approve_invalid_state</title>
<polygon fill="#ffffff" stroke="transparent" points="816,-276 816,-362 1076,-362 1076,-276 816,-276"/>
<polygon fill="#64748b" stroke="transparent" points="817,-353 817,-361 1075,-361 1075,-353 817,-353"/>
<polygon fill="#f8fafc" stroke="transparent" points="817,-322 817,-353 1075,-353 1075,-322 817,-322"/>
<text text-anchor="start" x="821" y="-339.6" font-family="Arial" font-weight="bold" font-size="13.00">invalid_state</text>
<text text-anchor="start" x="821" y="-328.6" font-family="Arial" font-size="8.00" fill="#64748b">failure response handler</text>
<text text-anchor="start" x="822" y="-310" font-family="Arial" font-weight="bold" font-size="10.00">stderr:</text>
<text text-anchor="start" x="853" y="-310" font-family="Arial" font-size="10.00">  text.project.approve.invalid_state</text>
<text text-anchor="start" x="822" y="-298" font-family="Arial" font-weight="bold" font-size="10.00">stderr bindings:</text>
<text text-anchor="start" x="897" y="-298" font-family="Arial" font-size="10.00">  message ← $response.body.message</text>
<text text-anchor="start" x="822" y="-286" font-family="Arial" font-weight="bold" font-size="10.00">exit_code:</text>
<text text-anchor="start" x="870" y="-286" font-family="Arial" font-size="10.00">  2</text>
<polygon fill="none" stroke="#64748b" points="816,-276 816,-362 1076,-362 1076,-276 816,-276"/>
</g>
<!-- entrypoint_target_entry_point_api_project_approve&#45;&gt;entrypoint_response_entry_point_cli_project_approve_invalid_state -->
<g id="edge4" class="edge">
<title>entrypoint_target_entry_point_api_project_approve&#45;&gt;entrypoint_response_entry_point_cli_project_approve_invalid_state</title>
<path fill="none" stroke="#3f3f46" d="M755.07,-287.67C772.7,-290.57 790.57,-293.52 807.93,-296.39"/>
<polygon fill="#3f3f46" stroke="#3f3f46" points="807.53,-299.16 815.88,-297.7 808.44,-293.63 807.53,-299.16"/>
</g>
<!-- entrypoint_response_entry_point_cli_project_approve_not_found -->
<g id="node6" class="node">
<title>entrypoint_response_entry_point_cli_project_approve_not_found</title>
<polygon fill="#ffffff" stroke="transparent" points="816,-163 816,-249 1076,-249 1076,-163 816,-163"/>
<polygon fill="#64748b" stroke="transparent" points="817,-240 817,-248 1075,-248 1075,-240 817,-240"/>
<polygon fill="#f8fafc" stroke="transparent" points="817,-209 817,-240 1075,-240 1075,-209 817,-209"/>
<text text-anchor="start" x="821" y="-226.6" font-family="Arial" font-weight="bold" font-size="13.00">not_found</text>
<text text-anchor="start" x="821" y="-215.6" font-family="Arial" font-size="8.00" fill="#64748b">failure response handler</text>
<text text-anchor="start" x="822" y="-197" font-family="Arial" font-weight="bold" font-size="10.00">stderr:</text>
<text text-anchor="start" x="853" y="-197" font-family="Arial" font-size="10.00">  text.project.approve.not_found</text>
<text text-anchor="start" x="822" y="-185" font-family="Arial" font-weight="bold" font-size="10.00">stderr bindings:</text>
<text text-anchor="start" x="897" y="-185" font-family="Arial" font-size="10.00">  message ← $response.body.message</text>
<text text-anchor="start" x="822" y="-173" font-family="Arial" font-weight="bold" font-size="10.00">exit_code:</text>
<text text-anchor="start" x="870" y="-173" font-family="Arial" font-size="10.00">  3</text>
<polygon fill="none" stroke="#64748b" points="816,-163 816,-249 1076,-249 1076,-163 816,-163"/>
</g>
<!-- entrypoint_target_entry_point_api_project_approve&#45;&gt;entrypoint_response_entry_point_cli_project_approve_not_found -->
<g id="edge5" class="edge">
<title>entrypoint_target_entry_point_api_project_approve&#45;&gt;entrypoint_response_entry_point_cli_project_approve_not_found</title>
<path fill="none" stroke="#3f3f46" d="M755.07,-236.78C772.7,-233.93 790.57,-231.03 807.93,-228.22"/>
<polygon fill="#3f3f46" stroke="#3f3f46" points="808.43,-230.97 815.88,-226.93 807.53,-225.45 808.43,-230.97"/>
</g>
<!-- entrypoint_response_entry_point_cli_project_approve_unavailable -->
<g id="node7" class="node">
<title>entrypoint_response_entry_point_cli_project_approve_unavailable</title>
<polygon fill="#ffffff" stroke="transparent" points="852,-50 852,-136 1040,-136 1040,-50 852,-50"/>
<polygon fill="#64748b" stroke="transparent" points="853,-127 853,-135 1039,-135 1039,-127 853,-127"/>
<polygon fill="#f8fafc" stroke="transparent" points="853,-96 853,-127 1039,-127 1039,-96 853,-96"/>
<text text-anchor="start" x="857" y="-113.6" font-family="Arial" font-weight="bold" font-size="13.00">unavailable</text>
<text text-anchor="start" x="857" y="-102.6" font-family="Arial" font-size="8.00" fill="#64748b">failure response handler</text>
<text text-anchor="start" x="858" y="-84" font-family="Arial" font-weight="bold" font-size="10.00">stderr:</text>
<text text-anchor="start" x="889" y="-84" font-family="Arial" font-size="10.00">  text.project.approve.unavailable</text>
<text text-anchor="start" x="858" y="-72" font-family="Arial" font-weight="bold" font-size="10.00">exit_code:</text>
<text text-anchor="start" x="906" y="-72" font-family="Arial" font-size="10.00">  75</text>
<text text-anchor="start" x="858" y="-60" font-family="Arial" font-weight="bold" font-size="10.00">retry:</text>
<text text-anchor="start" x="883" y="-60" font-family="Arial" font-size="10.00">  3 exponential</text>
<polygon fill="none" stroke="#64748b" points="852,-50 852,-136 1040,-136 1040,-50 852,-50"/>
</g>
<!-- entrypoint_target_entry_point_api_project_approve&#45;&gt;entrypoint_response_entry_point_cli_project_approve_unavailable -->
<g id="edge6" class="edge">
<title>entrypoint_target_entry_point_api_project_approve&#45;&gt;entrypoint_response_entry_point_cli_project_approve_unavailable</title>
<path fill="none" stroke="#3f3f46" d="M755.02,-180.1C775.44,-169.77 796.15,-159.51 816,-150 825.15,-145.62 834.72,-141.16 844.33,-136.77"/>
<polygon fill="#3f3f46" stroke="#3f3f46" points="845.56,-139.28 851.68,-133.42 843.24,-134.19 845.56,-139.28"/>
</g>
<!-- entrypoint_response_entry_point_cli_project_approve_approved&#45;&gt;entrypoint_response_entry_point_cli_project_approve_invalid_state -->
<!-- entrypoint_response_entry_point_cli_project_approve_invalid_state&#45;&gt;entrypoint_response_entry_point_cli_project_approve_not_found -->
<!-- entrypoint_response_entry_point_cli_project_approve_not_found&#45;&gt;entrypoint_response_entry_point_cli_project_approve_unavailable -->
</g>
</svg>
