<svg width="1206pt" height="366pt"
 viewBox="0.00 0.00 1206.00 366.00" xmlns="http://www.w3.org/2000/svg" xmlns:xlink="http://www.w3.org/1999/xlink">
<!-- pyspec-contract-input-sha256: eba9aa0dbc5285f55520216dcdd98abb67c36963148eaf96c46ad5696d8c7f0d -->
<g id="graph0" class="graph" transform="scale(1 1) rotate(0) translate(18 348)">
<title>entrypoint_entry_point_cli_project_approve</title>
<!-- entry_start -->
<g id="node1" class="node">
<title>entry_start</title>
<ellipse fill="none" stroke="#0891b2" cx="21" cy="-165" rx="21" ry="21"/>
<text text-anchor="middle" x="21" y="-162.8" font-family="Arial" font-size="9.00" fill="#155e75">entry</text>
</g>
<!-- entrypoint_entry_point_cli_project_approve -->
<g id="node2" class="node">
<title>entrypoint_entry_point_cli_project_approve</title>
<polygon fill="#ffffff" stroke="transparent" points="103,-124.5 103,-205.5 313,-205.5 313,-124.5 103,-124.5"/>
<polygon fill="#0891b2" stroke="transparent" points="104,-196 104,-204 312,-204 312,-196 104,-196"/>
<polygon fill="#ecfeff" stroke="transparent" points="104,-165 104,-196 312,-196 312,-165 104,-165"/>
<text text-anchor="start" x="108" y="-182.6" font-family="Arial" font-weight="bold" font-size="13.00">project approve</text>
<text text-anchor="start" x="108" y="-171.6" font-family="Arial" font-size="8.00" fill="#64748b">cli entry point</text>
<text text-anchor="start" x="108" y="-154" font-family="Arial" font-style="italic" font-size="10.00" fill="#3f3f46">CLI entry for approval automation.</text>
<text text-anchor="start" x="109" y="-134" font-family="Arial" font-weight="bold" font-size="10.00">cli command:</text>
<text text-anchor="start" x="173" y="-134" font-family="Arial" font-size="10.00">  cli_command.project.approve</text>
<polygon fill="none" stroke="#0891b2" points="103,-124.5 103,-205.5 313,-205.5 313,-124.5 103,-124.5"/>
</g>
<!-- entry_start&#45;&gt;entrypoint_entry_point_cli_project_approve -->
<g id="edge1" class="edge">
<title>entry_start&#45;&gt;entrypoint_entry_point_cli_project_approve</title>
<path fill="none" stroke="#3f3f46" d="M42.15,-165C55.63,-165 74.55,-165 94.79,-165"/>
<polygon fill="#3f3f46" stroke="#3f3f46" points="94.91,-167.8 102.91,-165 94.91,-162.2 94.91,-167.8"/>
</g>
<!-- entrypoint_input_entry_point_cli_project_approve -->
<g id="node3" class="node">
<title>entrypoint_input_entry_point_cli_project_approve</title>
<polygon fill="#ffffff" stroke="transparent" points="374,-124 374,-206 484,-206 484,-124 374,-124"/>
<polygon fill="#64748b" stroke="transparent" points="375,-197 375,-205 483,-205 483,-197 375,-197"/>
<polygon fill="#f8fafc" stroke="transparent" points="375,-166 375,-197 483,-197 483,-166 375,-166"/>
<text text-anchor="start" x="379" y="-183.6" font-family="Arial" font-weight="bold" font-size="13.00">command input</text>
<text text-anchor="start" x="379" y="-172.6" font-family="Arial" font-size="8.00" fill="#64748b">external data</text>
<text text-anchor="start" x="379" y="-155" font-family="Arial" font-weight="bold" font-size="10.00">args</text>
<text text-anchor="start" x="379" y="-144" font-family="Arial" font-size="10.00">approved_by</text>
<text text-anchor="start" x="435" y="-144" font-family="Arial" font-size="8.00" fill="#94a3b8">  ID</text>
<text text-anchor="start" x="379" y="-133" font-family="Arial" font-size="10.00">project_id</text>
<text text-anchor="start" x="422" y="-133" font-family="Arial" font-size="8.00" fill="#94a3b8">  ID</text>
<polygon fill="none" stroke="#64748b" points="374,-124 374,-206 484,-206 484,-124 374,-124"/>
</g>
<!-- entrypoint_entry_point_cli_project_approve&#45;&gt;entrypoint_input_entry_point_cli_project_approve -->
<g id="edge2" class="edge">
<title>entrypoint_entry_point_cli_project_approve&#45;&gt;entrypoint_input_entry_point_cli_project_approve</title>
<path fill="none" stroke="#3f3f46" d="M313.05,-165C331,-165 349.14,-165 365.55,-165"/>
<polygon fill="#3f3f46" stroke="#3f3f46" points="365.96,-167.8 373.96,-165 365.96,-162.2 365.96,-167.8"/>
</g>
<!-- entrypoint_target_operation_project_approve -->
<g id="node4" class="node">
<title>entrypoint_target_operation_project_approve</title>
<polygon fill="#ffffff" stroke="transparent" points="545,-38 545,-292 858,-292 858,-38 545,-38"/>
<polygon fill="#2563eb" stroke="transparent" points="546.5,-283 546.5,-291 857.5,-291 857.5,-283 546.5,-283"/>
<polygon fill="#eff6ff" stroke="transparent" points="546.5,-252 546.5,-283 857.5,-283 857.5,-252 546.5,-252"/>
<text text-anchor="start" x="550.5" y="-269.6" font-family="Arial" font-weight="bold" font-size="13.00">operation.project.approve</text>
<text text-anchor="start" x="550.5" y="-258.6" font-family="Arial" font-size="8.00" fill="#64748b">target operation</text>
<text text-anchor="start" x="550.5" y="-241" font-family="Arial" font-style="italic" font-size="10.00" fill="#3f3f46">Reviewers can approve submitted dispatch projects.</text>
<text text-anchor="start" x="550.5" y="-222" font-family="Arial" font-weight="bold" font-size="10.00">transitions</text>
<text text-anchor="start" x="550.5" y="-211" font-family="Arial" font-size="10.00">Project.status</text>
<text text-anchor="start" x="611.5" y="-211" font-family="Arial" font-size="8.00" fill="#94a3b8">  enum&lt;draft|submitted|approved|archived&gt;</text>
<text text-anchor="start" x="767.5" y="-211" font-family="Arial" font-size="8.00">  submitted → approved</text>
<text text-anchor="start" x="550.5" y="-192" font-family="Arial" font-weight="bold" font-size="10.00">input</text>
<text text-anchor="start" x="550.5" y="-181" font-family="Arial" font-size="10.00">approved_by</text>
<text text-anchor="start" x="606.5" y="-181" font-family="Arial" font-size="8.00" fill="#94a3b8">  ID</text>
<text text-anchor="start" x="550.5" y="-170" font-family="Arial" font-size="10.00">project_id</text>
<text text-anchor="start" x="593.5" y="-170" font-family="Arial" font-size="8.00" fill="#94a3b8">  ID</text>
<text text-anchor="start" x="550.5" y="-151" font-family="Arial" font-weight="bold" font-size="10.00">success</text>
<text text-anchor="start" x="550.5" y="-140" font-family="Arial" font-size="10.00">approved</text>
<text text-anchor="start" x="590.5" y="-140" font-family="Arial" font-size="8.00" fill="#94a3b8">  Project</text>
<text text-anchor="start" x="550.5" y="-121" font-family="Arial" font-weight="bold" font-size="10.00">failure</text>
<text text-anchor="start" x="550.5" y="-110" font-family="Arial" font-size="10.00">invalid_state</text>
<text text-anchor="start" x="605.5" y="-110" font-family="Arial" font-size="8.00" fill="#94a3b8">  Problem</text>
<text text-anchor="start" x="550.5" y="-91" font-family="Arial" font-weight="bold" font-size="10.00">failure</text>
<text text-anchor="start" x="550.5" y="-80" font-family="Arial" font-size="10.00">not_found</text>
<text text-anchor="start" x="593.5" y="-80" font-family="Arial" font-size="8.00" fill="#94a3b8">  Problem</text>
<text text-anchor="start" x="551.5" y="-60" font-family="Arial" font-weight="bold" font-size="10.00">emit:</text>
<text text-anchor="start" x="575.5" y="-60" font-family="Arial" font-size="10.00">  approved → event.project.approved</text>
<text text-anchor="start" x="551.5" y="-48" font-family="Arial" font-weight="bold" font-size="10.00">payload:</text>
<text text-anchor="start" x="591.5" y="-48" font-family="Arial" font-size="10.00">  payload</text>
<text text-anchor="start" x="631.5" y="-48" font-family="Arial" font-size="8.00" fill="#94a3b8">  ProjectApproved</text>
<polygon fill="none" stroke="#2563eb" points="545,-38 545,-292 858,-292 858,-38 545,-38"/>
</g>
<!-- entrypoint_input_entry_point_cli_project_approve&#45;&gt;entrypoint_target_operation_project_approve -->
<g id="edge3" class="edge">
<title>entrypoint_input_entry_point_cli_project_approve&#45;&gt;entrypoint_target_operation_project_approve</title>
<path fill="none" stroke="#3f3f46" d="M484.09,-165C499.81,-165 517.84,-165 536.65,-165"/>
<polygon fill="#3f3f46" stroke="#3f3f46" points="536.76,-167.8 544.76,-165 536.76,-162.2 536.76,-167.8"/>
</g>
<!-- entrypoint_response_entry_point_cli_project_approve_approved -->
<g id="node6" class="node">
<title>entrypoint_response_entry_point_cli_project_approve_approved</title>
<polygon fill="#ffffff" stroke="transparent" points="920,-238 920,-330 1058,-330 1058,-238 920,-238"/>
<polygon fill="#64748b" stroke="transparent" points="921,-321 921,-329 1057,-329 1057,-321 921,-321"/>
<polygon fill="#f8fafc" stroke="transparent" points="921,-290 921,-321 1057,-321 1057,-290 921,-290"/>
<text text-anchor="start" x="925" y="-307.6" font-family="Arial" font-weight="bold" font-size="13.00">approved</text>
<text text-anchor="start" x="925" y="-296.6" font-family="Arial" font-size="8.00" fill="#64748b">success response</text>
<text text-anchor="start" x="925" y="-279" font-family="Arial" font-weight="bold" font-size="10.00">stdout</text>
<text text-anchor="start" x="925" y="-268" font-family="Arial" font-size="10.00">stdout</text>
<text text-anchor="start" x="953" y="-268" font-family="Arial" font-size="8.00" fill="#94a3b8">  Project</text>
<text text-anchor="start" x="983" y="-268" font-family="Arial" font-size="8.00"> ← $outcome.result</text>
<text text-anchor="start" x="926" y="-248" font-family="Arial" font-weight="bold" font-size="10.00">exit_code:</text>
<text text-anchor="start" x="974" y="-248" font-family="Arial" font-size="10.00">  0</text>
<polygon fill="none" stroke="#64748b" points="920,-238 920,-330 1058,-330 1058,-238 920,-238"/>
</g>
<!-- entrypoint_target_operation_project_approve&#45;&gt;entrypoint_response_entry_point_cli_project_approve_approved -->
<g id="edge4" class="edge">
<title>entrypoint_target_operation_project_approve&#45;&gt;entrypoint_response_entry_point_cli_project_approve_approved</title>
<path fill="none" stroke="#3f3f46" d="M858.2,-229.9C876.98,-237.73 895.46,-245.43 912.33,-252.46"/>
<polygon fill="#3f3f46" stroke="#3f3f46" points="911.5,-255.15 919.96,-255.64 913.65,-249.98 911.5,-255.15"/>
</g>
<!-- entrypoint_response_entry_point_cli_project_approve_invalid_state -->
<g id="node7" class="node">
<title>entrypoint_response_entry_point_cli_project_approve_invalid_state</title>
<polygon fill="#ffffff" stroke="transparent" points="919,-119 919,-211 1059,-211 1059,-119 919,-119"/>
<polygon fill="#64748b" stroke="transparent" points="920,-202 920,-210 1058,-210 1058,-202 920,-202"/>
<polygon fill="#f8fafc" stroke="transparent" points="920,-171 920,-202 1058,-202 1058,-171 920,-171"/>
<text text-anchor="start" x="924" y="-188.6" font-family="Arial" font-weight="bold" font-size="13.00">invalid_state</text>
<text text-anchor="start" x="924" y="-177.6" font-family="Arial" font-size="8.00" fill="#64748b">failure response</text>
<text text-anchor="start" x="924" y="-160" font-family="Arial" font-weight="bold" font-size="10.00">stderr</text>
<text text-anchor="start" x="924" y="-149" font-family="Arial" font-size="10.00">stderr</text>
<text text-anchor="start" x="949" y="-149" font-family="Arial" font-size="8.00" fill="#94a3b8">  Problem</text>
<text text-anchor="start" x="984" y="-149" font-family="Arial" font-size="8.00"> ← $outcome.result</text>
<text text-anchor="start" x="925" y="-129" font-family="Arial" font-weight="bold" font-size="10.00">exit_code:</text>
<text text-anchor="start" x="973" y="-129" font-family="Arial" font-size="10.00">  2</text>
<polygon fill="none" stroke="#64748b" points="919,-119 919,-211 1059,-211 1059,-119 919,-119"/>
</g>
<!-- entrypoint_target_operation_project_approve&#45;&gt;entrypoint_response_entry_point_cli_project_approve_invalid_state -->
<g id="edge6" class="edge">
<title>entrypoint_target_operation_project_approve&#45;&gt;entrypoint_response_entry_point_cli_project_approve_invalid_state</title>
<path fill="none" stroke="#3f3f46" d="M858.2,-165C876.31,-165 894.14,-165 910.51,-165"/>
<polygon fill="#3f3f46" stroke="#3f3f46" points="910.94,-167.8 918.94,-165 910.94,-162.2 910.94,-167.8"/>
</g>
<!-- entrypoint_response_entry_point_cli_project_approve_not_found -->
<g id="node8" class="node">
<title>entrypoint_response_entry_point_cli_project_approve_not_found</title>
<polygon fill="#ffffff" stroke="transparent" points="919,0 919,-92 1059,-92 1059,0 919,0"/>
<polygon fill="#64748b" stroke="transparent" points="920,-83 920,-91 1058,-91 1058,-83 920,-83"/>
<polygon fill="#f8fafc" stroke="transparent" points="920,-52 920,-83 1058,-83 1058,-52 920,-52"/>
<text text-anchor="start" x="924" y="-69.6" font-family="Arial" font-weight="bold" font-size="13.00">not_found</text>
<text text-anchor="start" x="924" y="-58.6" font-family="Arial" font-size="8.00" fill="#64748b">failure response</text>
<text text-anchor="start" x="924" y="-41" font-family="Arial" font-weight="bold" font-size="10.00">stderr</text>
<text text-anchor="start" x="924" y="-30" font-family="Arial" font-size="10.00">stderr</text>
<text text-anchor="start" x="949" y="-30" font-family="Arial" font-size="8.00" fill="#94a3b8">  Problem</text>
<text text-anchor="start" x="984" y="-30" font-family="Arial" font-size="8.00"> ← $outcome.result</text>
<text text-anchor="start" x="925" y="-10" font-family="Arial" font-weight="bold" font-size="10.00">exit_code:</text>
<text text-anchor="start" x="973" y="-10" font-family="Arial" font-size="10.00">  3</text>
<polygon fill="none" stroke="#64748b" points="919,0 919,-92 1059,-92 1059,0 919,0"/>
</g>
<!-- entrypoint_target_operation_project_approve&#45;&gt;entrypoint_response_entry_point_cli_project_approve_not_found -->
<g id="edge8" class="edge">
<title>entrypoint_target_operation_project_approve&#45;&gt;entrypoint_response_entry_point_cli_project_approve_not_found</title>
<path fill="none" stroke="#3f3f46" d="M858.2,-100.1C876.64,-92.42 894.8,-84.85 911.41,-77.92"/>
<polygon fill="#3f3f46" stroke="#3f3f46" points="912.63,-80.45 918.94,-74.79 910.47,-75.28 912.63,-80.45"/>
</g>
<!-- entry_exit -->
<g id="node5" class="node">
<title>entry_exit</title>
<ellipse fill="none" stroke="#0891b2" cx="1145" cy="-165" rx="21" ry="21"/>
<ellipse fill="none" stroke="#0891b2" cx="1145" cy="-165" rx="25" ry="25"/>
<text text-anchor="middle" x="1145" y="-162.8" font-family="Arial" font-size="9.00" fill="#155e75">exit</text>
</g>
<!-- entrypoint_response_entry_point_cli_project_approve_approved&#45;&gt;entry_exit -->
<g id="edge5" class="edge">
<title>entrypoint_response_entry_point_cli_project_approve_approved&#45;&gt;entry_exit</title>
<path fill="none" stroke="#3f3f46" d="M1049.54,-237.99C1073.36,-219.58 1099.54,-199.36 1118.28,-184.88"/>
<polygon fill="#3f3f46" stroke="#3f3f46" points="1120.21,-186.92 1124.83,-179.81 1116.79,-182.49 1120.21,-186.92"/>
</g>
<!-- entrypoint_response_entry_point_cli_project_approve_approved&#45;&gt;entrypoint_response_entry_point_cli_project_approve_invalid_state -->
<!-- entrypoint_response_entry_point_cli_project_approve_invalid_state&#45;&gt;entry_exit -->
<g id="edge7" class="edge">
<title>entrypoint_response_entry_point_cli_project_approve_invalid_state&#45;&gt;entry_exit</title>
<path fill="none" stroke="#3f3f46" d="M1059.34,-165C1077.66,-165 1096.57,-165 1111.86,-165"/>
<polygon fill="#3f3f46" stroke="#3f3f46" points="1111.95,-167.8 1119.95,-165 1111.95,-162.2 1111.95,-167.8"/>
</g>
<!-- entrypoint_response_entry_point_cli_project_approve_invalid_state&#45;&gt;entrypoint_response_entry_point_cli_project_approve_not_found -->
<!-- entrypoint_response_entry_point_cli_project_approve_not_found&#45;&gt;entry_exit -->
<g id="edge9" class="edge">
<title>entrypoint_response_entry_point_cli_project_approve_not_found&#45;&gt;entry_exit</title>
<path fill="none" stroke="#3f3f46" d="M1049.54,-92.01C1073.36,-110.42 1099.54,-130.64 1118.28,-145.12"/>
<polygon fill="#3f3f46" stroke="#3f3f46" points="1116.79,-147.51 1124.83,-150.19 1120.21,-143.08 1116.79,-147.51"/>
</g>
</g>
</svg>
