<svg width="1206pt" height="371pt"
 viewBox="0.00 0.00 1206.00 371.00" xmlns="http://www.w3.org/2000/svg" xmlns:xlink="http://www.w3.org/1999/xlink">
<!-- pyspec-contract-input-sha256: c42738147900d617a6773df86b601dd17c7b19da6dc1a900ab83c040d9d9aec5 -->
<g id="graph0" class="graph" transform="scale(1 1) rotate(0) translate(18 353)">
<title>entrypoint_entry_point_cli_project_approve</title>
<!-- entry_start -->
<g id="node1" class="node">
<title>entry_start</title>
<ellipse fill="none" stroke="#0891b2" cx="21" cy="-167.5" rx="21" ry="21"/>
<text text-anchor="middle" x="21" y="-165.3" font-family="Arial" font-size="9.00" fill="#155e75">entry</text>
</g>
<!-- entrypoint_entry_point_cli_project_approve -->
<g id="node2" class="node">
<title>entrypoint_entry_point_cli_project_approve</title>
<polygon fill="#ffffff" stroke="transparent" points="103,-121 103,-214 313,-214 313,-121 103,-121"/>
<polygon fill="#0891b2" stroke="transparent" points="104,-204.5 104,-212.5 312,-212.5 312,-204.5 104,-204.5"/>
<polygon fill="#ecfeff" stroke="transparent" points="104,-173.5 104,-204.5 312,-204.5 312,-173.5 104,-173.5"/>
<text text-anchor="start" x="108" y="-191.1" font-family="Arial" font-weight="bold" font-size="13.00">project approve</text>
<text text-anchor="start" x="108" y="-180.1" font-family="Arial" font-size="8.00" fill="#64748b">cli entry point</text>
<text text-anchor="start" x="108" y="-162.5" font-family="Arial" font-style="italic" font-size="10.00" fill="#3f3f46">CLI entry for approval automation.</text>
<text text-anchor="start" x="109" y="-142.5" font-family="Arial" font-weight="bold" font-size="10.00">cli command:</text>
<text text-anchor="start" x="173" y="-142.5" font-family="Arial" font-size="10.00">  cli_command.project.approve</text>
<text text-anchor="start" x="109" y="-130.5" font-family="Arial" font-weight="bold" font-size="10.00">policy_guard:</text>
<text text-anchor="start" x="173" y="-130.5" font-family="Arial" font-size="10.00">  policy.project.approve</text>
<polygon fill="none" stroke="#0891b2" points="103,-121 103,-214 313,-214 313,-121 103,-121"/>
</g>
<!-- entry_start&#45;&gt;entrypoint_entry_point_cli_project_approve -->
<g id="edge1" class="edge">
<title>entry_start&#45;&gt;entrypoint_entry_point_cli_project_approve</title>
<path fill="none" stroke="#3f3f46" d="M42.15,-167.5C55.63,-167.5 74.55,-167.5 94.79,-167.5"/>
<polygon fill="#3f3f46" stroke="#3f3f46" points="94.91,-170.3 102.91,-167.5 94.91,-164.7 94.91,-170.3"/>
</g>
<!-- entrypoint_input_entry_point_cli_project_approve -->
<g id="node3" class="node">
<title>entrypoint_input_entry_point_cli_project_approve</title>
<polygon fill="#ffffff" stroke="transparent" points="374,-126.5 374,-208.5 484,-208.5 484,-126.5 374,-126.5"/>
<polygon fill="#64748b" stroke="transparent" points="375,-199.5 375,-207.5 483,-207.5 483,-199.5 375,-199.5"/>
<polygon fill="#f8fafc" stroke="transparent" points="375,-168.5 375,-199.5 483,-199.5 483,-168.5 375,-168.5"/>
<text text-anchor="start" x="379" y="-186.1" font-family="Arial" font-weight="bold" font-size="13.00">command input</text>
<text text-anchor="start" x="379" y="-175.1" font-family="Arial" font-size="8.00" fill="#64748b">external data</text>
<text text-anchor="start" x="379" y="-157.5" font-family="Arial" font-weight="bold" font-size="10.00">args</text>
<text text-anchor="start" x="379" y="-146.5" font-family="Arial" font-size="10.00">approved_by</text>
<text text-anchor="start" x="435" y="-146.5" font-family="Arial" font-size="8.00" fill="#94a3b8">  ID</text>
<text text-anchor="start" x="379" y="-135.5" font-family="Arial" font-size="10.00">project_id</text>
<text text-anchor="start" x="422" y="-135.5" font-family="Arial" font-size="8.00" fill="#94a3b8">  ID</text>
<polygon fill="none" stroke="#64748b" points="374,-126.5 374,-208.5 484,-208.5 484,-126.5 374,-126.5"/>
</g>
<!-- entrypoint_entry_point_cli_project_approve&#45;&gt;entrypoint_input_entry_point_cli_project_approve -->
<g id="edge2" class="edge">
<title>entrypoint_entry_point_cli_project_approve&#45;&gt;entrypoint_input_entry_point_cli_project_approve</title>
<path fill="none" stroke="#3f3f46" d="M313.05,-167.5C331,-167.5 349.14,-167.5 365.55,-167.5"/>
<polygon fill="#3f3f46" stroke="#3f3f46" points="365.96,-170.3 373.96,-167.5 365.96,-164.7 365.96,-170.3"/>
</g>
<!-- entrypoint_target_operation_project_approve -->
<g id="node4" class="node">
<title>entrypoint_target_operation_project_approve</title>
<polygon fill="#ffffff" stroke="transparent" points="545,0 545,-335 858,-335 858,0 545,0"/>
<polygon fill="#2563eb" stroke="transparent" points="546.5,-325.5 546.5,-333.5 857.5,-333.5 857.5,-325.5 546.5,-325.5"/>
<polygon fill="#eff6ff" stroke="transparent" points="546.5,-294.5 546.5,-325.5 857.5,-325.5 857.5,-294.5 546.5,-294.5"/>
<text text-anchor="start" x="550.5" y="-312.1" font-family="Arial" font-weight="bold" font-size="13.00">operation.project.approve</text>
<text text-anchor="start" x="550.5" y="-301.1" font-family="Arial" font-size="8.00" fill="#64748b">target operation</text>
<text text-anchor="start" x="550.5" y="-283.5" font-family="Arial" font-style="italic" font-size="10.00" fill="#3f3f46">Reviewers can approve submitted dispatch projects.</text>
<text text-anchor="start" x="551.5" y="-263.5" font-family="Arial" font-weight="bold" font-size="10.00">policy_guard:</text>
<text text-anchor="start" x="615.5" y="-263.5" font-family="Arial" font-size="10.00">  policy.project.approve</text>
<text text-anchor="start" x="551.5" y="-251.5" font-family="Arial" font-weight="bold" font-size="10.00">policy_effect:</text>
<text text-anchor="start" x="613.5" y="-251.5" font-family="Arial" font-size="10.00">  allow</text>
<text text-anchor="start" x="551.5" y="-239.5" font-family="Arial" font-weight="bold" font-size="10.00">policy_subjects:</text>
<text text-anchor="start" x="627.5" y="-239.5" font-family="Arial" font-size="10.00">  actor ← input.approved_by</text>
<text text-anchor="start" x="551.5" y="-227.5" font-family="Arial" font-weight="bold" font-size="10.00">policy_actions:</text>
<text text-anchor="start" x="622.5" y="-227.5" font-family="Arial" font-size="10.00">  operation: operation.project.approve</text>
<text text-anchor="start" x="551.5" y="-215.5" font-family="Arial" font-weight="bold" font-size="10.00">policy_resources:</text>
<text text-anchor="start" x="634.5" y="-215.5" font-family="Arial" font-size="10.00">  model: Project</text>
<text text-anchor="start" x="551.5" y="-203.5" font-family="Arial" font-weight="bold" font-size="10.00">policy_conditions:</text>
<text text-anchor="start" x="638.5" y="-203.5" font-family="Arial" font-size="10.00">  Project.status = submitted</text>
<text text-anchor="start" x="550.5" y="-183.5" font-family="Arial" font-weight="bold" font-size="10.00">transitions</text>
<text text-anchor="start" x="550.5" y="-172.5" font-family="Arial" font-size="10.00">Project.status</text>
<text text-anchor="start" x="611.5" y="-172.5" font-family="Arial" font-size="8.00" fill="#94a3b8">  enum&lt;draft|submitted|approved|archived&gt;</text>
<text text-anchor="start" x="767.5" y="-172.5" font-family="Arial" font-size="8.00">  submitted → approved</text>
<text text-anchor="start" x="550.5" y="-153.5" font-family="Arial" font-weight="bold" font-size="10.00">input</text>
<text text-anchor="start" x="550.5" y="-142.5" font-family="Arial" font-size="10.00">approved_by</text>
<text text-anchor="start" x="606.5" y="-142.5" font-family="Arial" font-size="8.00" fill="#94a3b8">  ID</text>
<text text-anchor="start" x="550.5" y="-131.5" font-family="Arial" font-size="10.00">project_id</text>
<text text-anchor="start" x="593.5" y="-131.5" font-family="Arial" font-size="8.00" fill="#94a3b8">  ID</text>
<text text-anchor="start" x="550.5" y="-112.5" font-family="Arial" font-weight="bold" font-size="10.00">success</text>
<text text-anchor="start" x="550.5" y="-101.5" font-family="Arial" font-size="10.00">approved</text>
<text text-anchor="start" x="590.5" y="-101.5" font-family="Arial" font-size="8.00" fill="#94a3b8">  Project</text>
<text text-anchor="start" x="550.5" y="-82.5" font-family="Arial" font-weight="bold" font-size="10.00">failure</text>
<text text-anchor="start" x="550.5" y="-71.5" font-family="Arial" font-size="10.00">invalid_state</text>
<text text-anchor="start" x="605.5" y="-71.5" font-family="Arial" font-size="8.00" fill="#94a3b8">  Problem</text>
<text text-anchor="start" x="550.5" y="-52.5" font-family="Arial" font-weight="bold" font-size="10.00">failure</text>
<text text-anchor="start" x="550.5" y="-41.5" font-family="Arial" font-size="10.00">not_found</text>
<text text-anchor="start" x="593.5" y="-41.5" font-family="Arial" font-size="8.00" fill="#94a3b8">  Problem</text>
<text text-anchor="start" x="551.5" y="-21.5" font-family="Arial" font-weight="bold" font-size="10.00">emit:</text>
<text text-anchor="start" x="575.5" y="-21.5" font-family="Arial" font-size="10.00">  approved → event.project.approved</text>
<text text-anchor="start" x="551.5" y="-9.5" font-family="Arial" font-weight="bold" font-size="10.00">payload_schema:</text>
<text text-anchor="start" x="633.5" y="-9.5" font-family="Arial" font-size="10.00">  payload_schema</text>
<text text-anchor="start" x="713.5" y="-9.5" font-family="Arial" font-size="8.00" fill="#94a3b8">  ProjectApproved</text>
<polygon fill="none" stroke="#2563eb" points="545,0 545,-335 858,-335 858,0 545,0"/>
</g>
<!-- entrypoint_input_entry_point_cli_project_approve&#45;&gt;entrypoint_target_operation_project_approve -->
<g id="edge3" class="edge">
<title>entrypoint_input_entry_point_cli_project_approve&#45;&gt;entrypoint_target_operation_project_approve</title>
<path fill="none" stroke="#3f3f46" d="M484.09,-167.5C499.81,-167.5 517.84,-167.5 536.65,-167.5"/>
<polygon fill="#3f3f46" stroke="#3f3f46" points="536.76,-170.3 544.76,-167.5 536.76,-164.7 536.76,-170.3"/>
</g>
<!-- entrypoint_response_entry_point_cli_project_approve_approved -->
<g id="node6" class="node">
<title>entrypoint_response_entry_point_cli_project_approve_approved</title>
<polygon fill="#ffffff" stroke="transparent" points="920,-240.5 920,-332.5 1058,-332.5 1058,-240.5 920,-240.5"/>
<polygon fill="#64748b" stroke="transparent" points="921,-323.5 921,-331.5 1057,-331.5 1057,-323.5 921,-323.5"/>
<polygon fill="#f8fafc" stroke="transparent" points="921,-292.5 921,-323.5 1057,-323.5 1057,-292.5 921,-292.5"/>
<text text-anchor="start" x="925" y="-310.1" font-family="Arial" font-weight="bold" font-size="13.00">approved</text>
<text text-anchor="start" x="925" y="-299.1" font-family="Arial" font-size="8.00" fill="#64748b">success response</text>
<text text-anchor="start" x="925" y="-281.5" font-family="Arial" font-weight="bold" font-size="10.00">stdout</text>
<text text-anchor="start" x="925" y="-270.5" font-family="Arial" font-size="10.00">stdout</text>
<text text-anchor="start" x="953" y="-270.5" font-family="Arial" font-size="8.00" fill="#94a3b8">  Project</text>
<text text-anchor="start" x="983" y="-270.5" font-family="Arial" font-size="8.00"> ← $outcome.result</text>
<text text-anchor="start" x="926" y="-250.5" font-family="Arial" font-weight="bold" font-size="10.00">exit_code:</text>
<text text-anchor="start" x="974" y="-250.5" font-family="Arial" font-size="10.00">  0</text>
<polygon fill="none" stroke="#64748b" points="920,-240.5 920,-332.5 1058,-332.5 1058,-240.5 920,-240.5"/>
</g>
<!-- entrypoint_target_operation_project_approve&#45;&gt;entrypoint_response_entry_point_cli_project_approve_approved -->
<g id="edge4" class="edge">
<title>entrypoint_target_operation_project_approve&#45;&gt;entrypoint_response_entry_point_cli_project_approve_approved</title>
<path fill="none" stroke="#3f3f46" d="M858.2,-232.4C876.98,-240.23 895.46,-247.93 912.33,-254.96"/>
<polygon fill="#3f3f46" stroke="#3f3f46" points="911.5,-257.65 919.96,-258.14 913.65,-252.48 911.5,-257.65"/>
</g>
<!-- entrypoint_response_entry_point_cli_project_approve_invalid_state -->
<g id="node7" class="node">
<title>entrypoint_response_entry_point_cli_project_approve_invalid_state</title>
<polygon fill="#ffffff" stroke="transparent" points="919,-121.5 919,-213.5 1059,-213.5 1059,-121.5 919,-121.5"/>
<polygon fill="#64748b" stroke="transparent" points="920,-204.5 920,-212.5 1058,-212.5 1058,-204.5 920,-204.5"/>
<polygon fill="#f8fafc" stroke="transparent" points="920,-173.5 920,-204.5 1058,-204.5 1058,-173.5 920,-173.5"/>
<text text-anchor="start" x="924" y="-191.1" font-family="Arial" font-weight="bold" font-size="13.00">invalid_state</text>
<text text-anchor="start" x="924" y="-180.1" font-family="Arial" font-size="8.00" fill="#64748b">failure response</text>
<text text-anchor="start" x="924" y="-162.5" font-family="Arial" font-weight="bold" font-size="10.00">stderr</text>
<text text-anchor="start" x="924" y="-151.5" font-family="Arial" font-size="10.00">stderr</text>
<text text-anchor="start" x="949" y="-151.5" font-family="Arial" font-size="8.00" fill="#94a3b8">  Problem</text>
<text text-anchor="start" x="984" y="-151.5" font-family="Arial" font-size="8.00"> ← $outcome.result</text>
<text text-anchor="start" x="925" y="-131.5" font-family="Arial" font-weight="bold" font-size="10.00">exit_code:</text>
<text text-anchor="start" x="973" y="-131.5" font-family="Arial" font-size="10.00">  2</text>
<polygon fill="none" stroke="#64748b" points="919,-121.5 919,-213.5 1059,-213.5 1059,-121.5 919,-121.5"/>
</g>
<!-- entrypoint_target_operation_project_approve&#45;&gt;entrypoint_response_entry_point_cli_project_approve_invalid_state -->
<g id="edge6" class="edge">
<title>entrypoint_target_operation_project_approve&#45;&gt;entrypoint_response_entry_point_cli_project_approve_invalid_state</title>
<path fill="none" stroke="#3f3f46" d="M858.2,-167.5C876.31,-167.5 894.14,-167.5 910.51,-167.5"/>
<polygon fill="#3f3f46" stroke="#3f3f46" points="910.94,-170.3 918.94,-167.5 910.94,-164.7 910.94,-170.3"/>
</g>
<!-- entrypoint_response_entry_point_cli_project_approve_not_found -->
<g id="node8" class="node">
<title>entrypoint_response_entry_point_cli_project_approve_not_found</title>
<polygon fill="#ffffff" stroke="transparent" points="919,-2.5 919,-94.5 1059,-94.5 1059,-2.5 919,-2.5"/>
<polygon fill="#64748b" stroke="transparent" points="920,-85.5 920,-93.5 1058,-93.5 1058,-85.5 920,-85.5"/>
<polygon fill="#f8fafc" stroke="transparent" points="920,-54.5 920,-85.5 1058,-85.5 1058,-54.5 920,-54.5"/>
<text text-anchor="start" x="924" y="-72.1" font-family="Arial" font-weight="bold" font-size="13.00">not_found</text>
<text text-anchor="start" x="924" y="-61.1" font-family="Arial" font-size="8.00" fill="#64748b">failure response</text>
<text text-anchor="start" x="924" y="-43.5" font-family="Arial" font-weight="bold" font-size="10.00">stderr</text>
<text text-anchor="start" x="924" y="-32.5" font-family="Arial" font-size="10.00">stderr</text>
<text text-anchor="start" x="949" y="-32.5" font-family="Arial" font-size="8.00" fill="#94a3b8">  Problem</text>
<text text-anchor="start" x="984" y="-32.5" font-family="Arial" font-size="8.00"> ← $outcome.result</text>
<text text-anchor="start" x="925" y="-12.5" font-family="Arial" font-weight="bold" font-size="10.00">exit_code:</text>
<text text-anchor="start" x="973" y="-12.5" font-family="Arial" font-size="10.00">  3</text>
<polygon fill="none" stroke="#64748b" points="919,-2.5 919,-94.5 1059,-94.5 1059,-2.5 919,-2.5"/>
</g>
<!-- entrypoint_target_operation_project_approve&#45;&gt;entrypoint_response_entry_point_cli_project_approve_not_found -->
<g id="edge8" class="edge">
<title>entrypoint_target_operation_project_approve&#45;&gt;entrypoint_response_entry_point_cli_project_approve_not_found</title>
<path fill="none" stroke="#3f3f46" d="M858.2,-102.6C876.64,-94.92 894.8,-87.35 911.41,-80.42"/>
<polygon fill="#3f3f46" stroke="#3f3f46" points="912.63,-82.95 918.94,-77.29 910.47,-77.78 912.63,-82.95"/>
</g>
<!-- entry_exit -->
<g id="node5" class="node">
<title>entry_exit</title>
<ellipse fill="none" stroke="#0891b2" cx="1145" cy="-167.5" rx="21" ry="21"/>
<ellipse fill="none" stroke="#0891b2" cx="1145" cy="-167.5" rx="25" ry="25"/>
<text text-anchor="middle" x="1145" y="-165.3" font-family="Arial" font-size="9.00" fill="#155e75">exit</text>
</g>
<!-- entrypoint_response_entry_point_cli_project_approve_approved&#45;&gt;entry_exit -->
<g id="edge5" class="edge">
<title>entrypoint_response_entry_point_cli_project_approve_approved&#45;&gt;entry_exit</title>
<path fill="none" stroke="#3f3f46" d="M1049.54,-240.49C1073.36,-222.08 1099.54,-201.86 1118.28,-187.38"/>
<polygon fill="#3f3f46" stroke="#3f3f46" points="1120.21,-189.42 1124.83,-182.31 1116.79,-184.99 1120.21,-189.42"/>
</g>
<!-- entrypoint_response_entry_point_cli_project_approve_approved&#45;&gt;entrypoint_response_entry_point_cli_project_approve_invalid_state -->
<!-- entrypoint_response_entry_point_cli_project_approve_invalid_state&#45;&gt;entry_exit -->
<g id="edge7" class="edge">
<title>entrypoint_response_entry_point_cli_project_approve_invalid_state&#45;&gt;entry_exit</title>
<path fill="none" stroke="#3f3f46" d="M1059.34,-167.5C1077.66,-167.5 1096.57,-167.5 1111.86,-167.5"/>
<polygon fill="#3f3f46" stroke="#3f3f46" points="1111.95,-170.3 1119.95,-167.5 1111.95,-164.7 1111.95,-170.3"/>
</g>
<!-- entrypoint_response_entry_point_cli_project_approve_invalid_state&#45;&gt;entrypoint_response_entry_point_cli_project_approve_not_found -->
<!-- entrypoint_response_entry_point_cli_project_approve_not_found&#45;&gt;entry_exit -->
<g id="edge9" class="edge">
<title>entrypoint_response_entry_point_cli_project_approve_not_found&#45;&gt;entry_exit</title>
<path fill="none" stroke="#3f3f46" d="M1049.54,-94.51C1073.36,-112.92 1099.54,-133.14 1118.28,-147.62"/>
<polygon fill="#3f3f46" stroke="#3f3f46" points="1116.79,-150.01 1124.83,-152.69 1120.21,-145.58 1116.79,-150.01"/>
</g>
</g>
</svg>
