<svg width="1022pt" height="482pt"
 viewBox="0.00 0.00 1022.00 482.00" xmlns="http://www.w3.org/2000/svg" xmlns:xlink="http://www.w3.org/1999/xlink">
<!-- pyspec-contract-input-sha256: 6f032d16a798821fd421861f0cfee76ab481e550de351e1c3ae46f023da79538 -->
<g id="graph0" class="graph" transform="scale(1 1) rotate(0) translate(18 464)">
<title>application_action_application_action_project_list</title>
<!-- application_action_input_application_action_project_list -->
<g id="node1" class="node">
<title>application_action_input_application_action_project_list</title>
<polygon fill="#ffffff" stroke="transparent" points="0,-253 0,-324 96,-324 96,-253 0,-253"/>
<polygon fill="#64748b" stroke="transparent" points="1,-314.5 1,-322.5 95,-322.5 95,-314.5 1,-314.5"/>
<polygon fill="#f8fafc" stroke="transparent" points="1,-283.5 1,-314.5 95,-314.5 95,-283.5 1,-283.5"/>
<text text-anchor="start" x="5" y="-301.1" font-family="Arial" font-weight="bold" font-size="13.00">input</text>
<text text-anchor="start" x="5" y="-290.1" font-family="Arial" font-size="8.00" fill="#64748b">action input</text>
<text text-anchor="start" x="5" y="-272.5" font-family="Arial" font-weight="bold" font-size="10.00">fields</text>
<text text-anchor="start" x="5" y="-261.5" font-family="Arial" font-size="10.00">workspace_id</text>
<text text-anchor="start" x="66" y="-261.5" font-family="Arial" font-size="8.00" fill="#94a3b8">  string</text>
<polygon fill="none" stroke="#64748b" points="0,-253 0,-324 96,-324 96,-253 0,-253"/>
</g>
<!-- application_action_policy_authorization_policy_project_member -->
<g id="node2" class="node">
<title>application_action_policy_authorization_policy_project_member</title>
<polygon fill="#ffffff" stroke="transparent" points="198,-230.5 198,-346.5 442,-346.5 442,-230.5 198,-230.5"/>
<polygon fill="#c2410c" stroke="transparent" points="199,-337.5 199,-345.5 441,-345.5 441,-337.5 199,-337.5"/>
<polygon fill="#fff7ed" stroke="transparent" points="199,-306.5 199,-337.5 441,-337.5 441,-306.5 199,-306.5"/>
<text text-anchor="start" x="203" y="-324.1" font-family="Arial" font-weight="bold" font-size="13.00">authorization_policy.project.member</text>
<text text-anchor="start" x="203" y="-313.1" font-family="Arial" font-size="8.00" fill="#64748b">authorization gate</text>
<text text-anchor="start" x="203" y="-295.5" font-family="Arial" font-style="italic" font-size="10.00" fill="#3f3f46">Workspace members may create, read, list, and</text>
<text text-anchor="start" x="203" y="-284.5" font-family="Arial" font-style="italic" font-size="10.00" fill="#3f3f46">submit dispatch projects.</text>
<text text-anchor="start" x="204" y="-264.5" font-family="Arial" font-weight="bold" font-size="10.00">effect:</text>
<text text-anchor="start" x="232" y="-264.5" font-family="Arial" font-size="10.00">  permit</text>
<text text-anchor="start" x="204" y="-252.5" font-family="Arial" font-weight="bold" font-size="10.00">subjects:</text>
<text text-anchor="start" x="247" y="-252.5" font-family="Arial" font-size="10.00">  actor</text>
<text text-anchor="start" x="204" y="-240.5" font-family="Arial" font-weight="bold" font-size="10.00">conditions:</text>
<text text-anchor="start" x="257" y="-240.5" font-family="Arial" font-size="10.00">  subject_has_role member</text>
<polygon fill="none" stroke="#c2410c" points="198,-230.5 198,-346.5 442,-346.5 442,-230.5 198,-230.5"/>
</g>
<!-- application_action_input_application_action_project_list&#45;&gt;application_action_policy_authorization_policy_project_member -->
<g id="edge1" class="edge">
<title>application_action_input_application_action_project_list&#45;&gt;application_action_policy_authorization_policy_project_member</title>
<path fill="none" stroke="#3f3f46" stroke-width="1.2" d="M96.03,-288.5C122.26,-288.5 156.33,-288.5 189.91,-288.5"/>
<polygon fill="#3f3f46" stroke="#3f3f46" stroke-width="1.2" points="189.98,-291.3 197.97,-288.5 189.97,-285.7 189.98,-291.3"/>
<text text-anchor="middle" x="147" y="-291.5" font-family="Arial" font-size="10.00">authorize</text>
</g>
<!-- application_action_resource_application_action_project_list_reads_entity_type_project -->
<g id="node3" class="node">
<title>application_action_resource_application_action_project_list_reads_entity_type_project</title>
<polygon fill="#ffffff" stroke="transparent" points="529,-64.5 529,-234.5 723,-234.5 723,-64.5 529,-64.5"/>
<polygon fill="#15803d" stroke="transparent" points="530,-225.5 530,-233.5 722,-233.5 722,-225.5 530,-225.5"/>
<polygon fill="#f0fdfa" stroke="transparent" points="530,-194.5 530,-225.5 722,-225.5 722,-194.5 530,-194.5"/>
<text text-anchor="start" x="534" y="-212.1" font-family="Arial" font-weight="bold" font-size="13.00">entity_type.project</text>
<text text-anchor="start" x="534" y="-201.1" font-family="Arial" font-size="8.00" fill="#64748b">entity_type resource</text>
<text text-anchor="start" x="534" y="-183.5" font-family="Arial" font-weight="bold" font-size="10.00">fields</text>
<text text-anchor="start" x="534" y="-172.5" font-family="Arial" font-size="10.00">assignee</text>
<text text-anchor="start" x="574" y="-172.5" font-family="Arial" font-size="8.00" fill="#94a3b8">  string</text>
<text text-anchor="start" x="534" y="-161.5" font-family="Arial" font-size="10.00">created_at</text>
<text text-anchor="start" x="580" y="-161.5" font-family="Arial" font-size="8.00" fill="#94a3b8">  string:date&#45;time</text>
<text text-anchor="start" x="534" y="-150.5" font-family="Arial" font-size="10.00">customer</text>
<text text-anchor="start" x="575" y="-150.5" font-family="Arial" font-size="8.00" fill="#94a3b8">  string</text>
<text text-anchor="start" x="534" y="-139.5" font-family="Arial" font-size="10.00">id</text>
<text text-anchor="start" x="542" y="-139.5" font-family="Arial" font-size="8.00" fill="#94a3b8">  string</text>
<text text-anchor="start" x="534" y="-128.5" font-family="Arial" font-size="10.00">priority</text>
<text text-anchor="start" x="564" y="-128.5" font-family="Arial" font-size="8.00" fill="#94a3b8">  string</text>
<text text-anchor="start" x="534" y="-117.5" font-family="Arial" font-size="10.00">status</text>
<text text-anchor="start" x="562" y="-117.5" font-family="Arial" font-size="8.00" fill="#94a3b8">  enum&lt;draft|submitted|approved|archived&gt;</text>
<text text-anchor="start" x="534" y="-106.5" font-family="Arial" font-size="10.00">summary</text>
<text text-anchor="start" x="575" y="-106.5" font-family="Arial" font-size="8.00" fill="#94a3b8">  string</text>
<text text-anchor="start" x="534" y="-95.5" font-family="Arial" font-size="10.00">title</text>
<text text-anchor="start" x="550" y="-95.5" font-family="Arial" font-size="8.00" fill="#94a3b8">  string</text>
<text text-anchor="start" x="534" y="-84.5" font-family="Arial" font-size="10.00">updated_at</text>
<text text-anchor="start" x="583" y="-84.5" font-family="Arial" font-size="8.00" fill="#94a3b8">  string:date&#45;time</text>
<text text-anchor="start" x="534" y="-73.5" font-family="Arial" font-size="10.00">workspace_id</text>
<text text-anchor="start" x="595" y="-73.5" font-family="Arial" font-size="8.00" fill="#94a3b8">  string</text>
<polygon fill="none" stroke="#15803d" points="529,-64.5 529,-234.5 723,-234.5 723,-64.5 529,-64.5"/>
</g>
<!-- application_action_policy_authorization_policy_project_member&#45;&gt;application_action_resource_application_action_project_list_reads_entity_type_project -->
<g id="edge2" class="edge">
<title>application_action_policy_authorization_policy_project_member&#45;&gt;application_action_resource_application_action_project_list_reads_entity_type_project</title>
<path fill="none" stroke="#3f3f46" d="M442.02,-233.16C468.24,-221.17 495.75,-208.6 521.24,-196.94"/>
<polygon fill="#3f3f46" stroke="#3f3f46" points="522.61,-199.39 528.72,-193.52 520.28,-194.3 522.61,-199.39"/>
<text text-anchor="middle" x="485.5" y="-222.5" font-family="Arial" font-size="10.00">reads</text>
</g>
<!-- action_outcome_application_action_project_list_access_denied -->
<g id="node4" class="node">
<title>action_outcome_application_action_project_list_access_denied</title>
<polygon fill="#ffffff" stroke="transparent" points="850.5,-375 850.5,-446 957.5,-446 957.5,-375 850.5,-375"/>
<polygon fill="#dc2626" stroke="transparent" points="852,-436.5 852,-444.5 957,-444.5 957,-436.5 852,-436.5"/>
<polygon fill="#fef2f2" stroke="transparent" points="852,-405.5 852,-436.5 957,-436.5 957,-405.5 852,-405.5"/>
<text text-anchor="start" x="856" y="-423.1" font-family="Arial" font-weight="bold" font-size="13.00">access_denied</text>
<text text-anchor="start" x="856" y="-412.1" font-family="Arial" font-size="8.00" fill="#64748b">failure outcome</text>
<text text-anchor="start" x="856" y="-394.5" font-family="Arial" font-weight="bold" font-size="10.00">result</text>
<text text-anchor="start" x="856" y="-383.5" font-family="Arial" font-size="10.00">result</text>
<text text-anchor="start" x="881" y="-383.5" font-family="Arial" font-size="8.00" fill="#94a3b8">  Problem</text>
<polygon fill="none" stroke="#dc2626" points="850.5,-375 850.5,-446 957.5,-446 957.5,-375 850.5,-375"/>
</g>
<!-- application_action_policy_authorization_policy_project_member&#45;&gt;action_outcome_application_action_project_list_access_denied -->
<g id="edge3" class="edge">
<title>application_action_policy_authorization_policy_project_member&#45;&gt;action_outcome_application_action_project_list_access_denied</title>
<path fill="none" stroke="#3f3f46" d="M442.3,-313.93C564.5,-339.54 748.06,-378.02 842.35,-397.79"/>
<polygon fill="#3f3f46" stroke="#3f3f46" points="841.96,-400.56 850.36,-399.47 843.11,-395.08 841.96,-400.56"/>
<text text-anchor="middle" x="626" y="-374.5" font-family="Arial" font-size="10.00">access_denied_as</text>
</g>
<!-- action_outcome_application_action_project_list_authentication_required -->
<g id="node5" class="node">
<title>action_outcome_application_action_project_list_authentication_required</title>
<polygon fill="#ffffff" stroke="transparent" points="822,-250 822,-321 986,-321 986,-250 822,-250"/>
<polygon fill="#dc2626" stroke="transparent" points="823,-311.5 823,-319.5 985,-319.5 985,-311.5 823,-311.5"/>
<polygon fill="#fef2f2" stroke="transparent" points="823,-280.5 823,-311.5 985,-311.5 985,-280.5 823,-280.5"/>
<text text-anchor="start" x="827" y="-298.1" font-family="Arial" font-weight="bold" font-size="13.00">authentication_required</text>
<text text-anchor="start" x="827" y="-287.1" font-family="Arial" font-size="8.00" fill="#64748b">failure outcome</text>
<text text-anchor="start" x="827" y="-269.5" font-family="Arial" font-weight="bold" font-size="10.00">result</text>
<text text-anchor="start" x="827" y="-258.5" font-family="Arial" font-size="10.00">result</text>
<text text-anchor="start" x="852" y="-258.5" font-family="Arial" font-size="8.00" fill="#94a3b8">  Problem</text>
<polygon fill="none" stroke="#dc2626" points="822,-250 822,-321 986,-321 986,-250 822,-250"/>
</g>
<!-- application_action_policy_authorization_policy_project_member&#45;&gt;action_outcome_application_action_project_list_authentication_required -->
<g id="edge4" class="edge">
<title>application_action_policy_authorization_policy_project_member&#45;&gt;action_outcome_application_action_project_list_authentication_required</title>
<path fill="none" stroke="#3f3f46" d="M442.3,-287.87C552.95,-287.3 713.93,-286.47 813.37,-285.96"/>
<polygon fill="#3f3f46" stroke="#3f3f46" points="813.62,-288.76 821.61,-285.92 813.59,-283.16 813.62,-288.76"/>
<text text-anchor="middle" x="626" y="-290.5" font-family="Arial" font-size="10.00">authentication_required_as</text>
</g>
<!-- action_outcome_application_action_project_list_listed -->
<g id="node6" class="node">
<title>action_outcome_application_action_project_list_listed</title>
<polygon fill="#ffffff" stroke="transparent" points="857.5,-125 857.5,-196 950.5,-196 950.5,-125 857.5,-125"/>
<polygon fill="#16a34a" stroke="transparent" points="859,-186.5 859,-194.5 950,-194.5 950,-186.5 859,-186.5"/>
<polygon fill="#f0fdf4" stroke="transparent" points="859,-155.5 859,-186.5 950,-186.5 950,-155.5 859,-155.5"/>
<text text-anchor="start" x="863" y="-173.1" font-family="Arial" font-weight="bold" font-size="13.00">listed</text>
<text text-anchor="start" x="863" y="-162.1" font-family="Arial" font-size="8.00" fill="#64748b">success outcome</text>
<text text-anchor="start" x="863" y="-144.5" font-family="Arial" font-weight="bold" font-size="10.00">result</text>
<text text-anchor="start" x="863" y="-133.5" font-family="Arial" font-size="10.00">result</text>
<text text-anchor="start" x="888" y="-133.5" font-family="Arial" font-size="8.00" fill="#94a3b8">  array&lt;Project&gt;</text>
<polygon fill="none" stroke="#16a34a" points="857.5,-125 857.5,-196 950.5,-196 950.5,-125 857.5,-125"/>
</g>
<!-- application_action_resource_application_action_project_list_reads_entity_type_project&#45;&gt;action_outcome_application_action_project_list_listed -->
<g id="edge5" class="edge">
<title>application_action_resource_application_action_project_list_reads_entity_type_project&#45;&gt;action_outcome_application_action_project_list_listed</title>
<path fill="none" stroke="#3f3f46" d="M723.14,-153.33C765.34,-155.01 813.31,-156.93 849.09,-158.35"/>
<polygon fill="#3f3f46" stroke="#3f3f46" points="849.35,-161.16 857.45,-158.68 849.57,-155.57 849.35,-161.16"/>
<text text-anchor="middle" x="772.5" y="-159.5" font-family="Arial" font-size="10.00">success</text>
</g>
<!-- action_outcome_application_action_project_list_unavailable -->
<g id="node7" class="node">
<title>action_outcome_application_action_project_list_unavailable</title>
<polygon fill="#ffffff" stroke="transparent" points="862,0 862,-71 946,-71 946,0 862,0"/>
<polygon fill="#dc2626" stroke="transparent" points="863,-61.5 863,-69.5 945,-69.5 945,-61.5 863,-61.5"/>
<polygon fill="#fef2f2" stroke="transparent" points="863,-30.5 863,-61.5 945,-61.5 945,-30.5 863,-30.5"/>
<text text-anchor="start" x="867" y="-48.1" font-family="Arial" font-weight="bold" font-size="13.00">unavailable</text>
<text text-anchor="start" x="867" y="-37.1" font-family="Arial" font-size="8.00" fill="#64748b">failure outcome</text>
<text text-anchor="start" x="867" y="-19.5" font-family="Arial" font-weight="bold" font-size="10.00">result</text>
<text text-anchor="start" x="867" y="-8.5" font-family="Arial" font-size="10.00">result</text>
<text text-anchor="start" x="892" y="-8.5" font-family="Arial" font-size="8.00" fill="#94a3b8">  Problem</text>
<polygon fill="none" stroke="#dc2626" points="862,0 862,-71 946,-71 946,0 862,0"/>
</g>
<!-- application_action_resource_application_action_project_list_reads_entity_type_project&#45;&gt;action_outcome_application_action_project_list_unavailable -->
<g id="edge6" class="edge">
<title>application_action_resource_application_action_project_list_reads_entity_type_project&#45;&gt;action_outcome_application_action_project_list_unavailable</title>
<path fill="none" stroke="#3f3f46" d="M723.14,-109.79C767.44,-91.49 818.1,-70.57 854.34,-55.6"/>
<polygon fill="#3f3f46" stroke="#3f3f46" points="855.52,-58.14 861.84,-52.5 853.38,-52.97 855.52,-58.14"/>
<text text-anchor="middle" x="772.5" y="-99.5" font-family="Arial" font-size="10.00">failure</text>
</g>
<!-- action_outcome_application_action_project_list_access_denied&#45;&gt;action_outcome_application_action_project_list_authentication_required -->
<!-- action_outcome_application_action_project_list_authentication_required&#45;&gt;action_outcome_application_action_project_list_listed -->
<!-- action_outcome_application_action_project_list_listed&#45;&gt;action_outcome_application_action_project_list_unavailable -->
</g>
</svg>
