<svg width="973pt" height="482pt"
 viewBox="0.00 0.00 973.00 482.00" xmlns="http://www.w3.org/2000/svg" xmlns:xlink="http://www.w3.org/1999/xlink">
<!-- pyspec-contract-input-sha256: 6532fabc74a57831bcf828195643421daa9855054689c54dcdbc7394b6bca3bb -->
<g id="graph0" class="graph" transform="scale(1 1) rotate(0) translate(18 464)">
<title>application_action_application_action_project_list</title>
<!-- application_action_input_application_action_project_list -->
<g id="node1" class="node">
<title>application_action_input_application_action_project_list</title>
<polygon fill="#ffffff" stroke="transparent" points="0,-239 0,-310 96,-310 96,-239 0,-239"/>
<polygon fill="#64748b" stroke="transparent" points="1,-300.5 1,-308.5 95,-308.5 95,-300.5 1,-300.5"/>
<polygon fill="#f8fafc" stroke="transparent" points="1,-269.5 1,-300.5 95,-300.5 95,-269.5 1,-269.5"/>
<text text-anchor="start" x="5" y="-287.1" font-family="Arial" font-weight="bold" font-size="13.00">input</text>
<text text-anchor="start" x="5" y="-276.1" font-family="Arial" font-size="8.00" fill="#64748b">action input</text>
<text text-anchor="start" x="5" y="-258.5" font-family="Arial" font-weight="bold" font-size="10.00">fields</text>
<text text-anchor="start" x="5" y="-247.5" font-family="Arial" font-size="10.00">workspace_id</text>
<text text-anchor="start" x="66" y="-247.5" font-family="Arial" font-size="8.00" fill="#94a3b8">  string</text>
<polygon fill="none" stroke="#64748b" points="0,-239 0,-310 96,-310 96,-239 0,-239"/>
</g>
<!-- application_action_policy_authorization_policy_project_member -->
<g id="node2" class="node">
<title>application_action_policy_authorization_policy_project_member</title>
<polygon fill="#ffffff" stroke="transparent" points="198,-216.5 198,-332.5 442,-332.5 442,-216.5 198,-216.5"/>
<polygon fill="#c2410c" stroke="transparent" points="199,-323.5 199,-331.5 441,-331.5 441,-323.5 199,-323.5"/>
<polygon fill="#fff7ed" stroke="transparent" points="199,-292.5 199,-323.5 441,-323.5 441,-292.5 199,-292.5"/>
<text text-anchor="start" x="203" y="-310.1" font-family="Arial" font-weight="bold" font-size="13.00">authorization_policy.project.member</text>
<text text-anchor="start" x="203" y="-299.1" font-family="Arial" font-size="8.00" fill="#64748b">authorization gate</text>
<text text-anchor="start" x="203" y="-281.5" font-family="Arial" font-style="italic" font-size="10.00" fill="#3f3f46">Workspace members may create, read, list, and</text>
<text text-anchor="start" x="203" y="-270.5" font-family="Arial" font-style="italic" font-size="10.00" fill="#3f3f46">submit dispatch projects.</text>
<text text-anchor="start" x="204" y="-250.5" font-family="Arial" font-weight="bold" font-size="10.00">effect:</text>
<text text-anchor="start" x="232" y="-250.5" font-family="Arial" font-size="10.00">  allow</text>
<text text-anchor="start" x="204" y="-238.5" font-family="Arial" font-weight="bold" font-size="10.00">subjects:</text>
<text text-anchor="start" x="247" y="-238.5" font-family="Arial" font-size="10.00">  actor</text>
<text text-anchor="start" x="204" y="-226.5" font-family="Arial" font-weight="bold" font-size="10.00">conditions:</text>
<text text-anchor="start" x="257" y="-226.5" font-family="Arial" font-size="10.00">  subject_has_role member</text>
<polygon fill="none" stroke="#c2410c" points="198,-216.5 198,-332.5 442,-332.5 442,-216.5 198,-216.5"/>
</g>
<!-- application_action_input_application_action_project_list&#45;&gt;application_action_policy_authorization_policy_project_member -->
<g id="edge1" class="edge">
<title>application_action_input_application_action_project_list&#45;&gt;application_action_policy_authorization_policy_project_member</title>
<path fill="none" stroke="#3f3f46" stroke-width="1.2" d="M96.03,-274.5C122.26,-274.5 156.33,-274.5 189.91,-274.5"/>
<polygon fill="#3f3f46" stroke="#3f3f46" stroke-width="1.2" points="189.98,-277.3 197.97,-274.5 189.97,-271.7 189.98,-277.3"/>
<text text-anchor="middle" x="147" y="-277.5" font-family="Arial" font-size="10.00">authorize</text>
</g>
<!-- application_action_resource_application_action_project_list_reads_entity_type_project -->
<g id="node3" class="node">
<title>application_action_resource_application_action_project_list_reads_entity_type_project</title>
<polygon fill="#ffffff" stroke="transparent" points="529,-189.5 529,-359.5 723,-359.5 723,-189.5 529,-189.5"/>
<polygon fill="#15803d" stroke="transparent" points="530,-350.5 530,-358.5 722,-358.5 722,-350.5 530,-350.5"/>
<polygon fill="#f0fdfa" stroke="transparent" points="530,-319.5 530,-350.5 722,-350.5 722,-319.5 530,-319.5"/>
<text text-anchor="start" x="534" y="-337.1" font-family="Arial" font-weight="bold" font-size="13.00">entity_type.project</text>
<text text-anchor="start" x="534" y="-326.1" font-family="Arial" font-size="8.00" fill="#64748b">entity_type resource</text>
<text text-anchor="start" x="534" y="-308.5" font-family="Arial" font-weight="bold" font-size="10.00">fields</text>
<text text-anchor="start" x="534" y="-297.5" font-family="Arial" font-size="10.00">assignee</text>
<text text-anchor="start" x="574" y="-297.5" font-family="Arial" font-size="8.00" fill="#94a3b8">  string</text>
<text text-anchor="start" x="534" y="-286.5" font-family="Arial" font-size="10.00">created_at</text>
<text text-anchor="start" x="580" y="-286.5" font-family="Arial" font-size="8.00" fill="#94a3b8">  string:date&#45;time</text>
<text text-anchor="start" x="534" y="-275.5" font-family="Arial" font-size="10.00">customer</text>
<text text-anchor="start" x="575" y="-275.5" font-family="Arial" font-size="8.00" fill="#94a3b8">  string</text>
<text text-anchor="start" x="534" y="-264.5" font-family="Arial" font-size="10.00">id</text>
<text text-anchor="start" x="542" y="-264.5" font-family="Arial" font-size="8.00" fill="#94a3b8">  string</text>
<text text-anchor="start" x="534" y="-253.5" font-family="Arial" font-size="10.00">priority</text>
<text text-anchor="start" x="564" y="-253.5" font-family="Arial" font-size="8.00" fill="#94a3b8">  string</text>
<text text-anchor="start" x="534" y="-242.5" font-family="Arial" font-size="10.00">status</text>
<text text-anchor="start" x="562" y="-242.5" font-family="Arial" font-size="8.00" fill="#94a3b8">  enum&lt;draft|submitted|approved|archived&gt;</text>
<text text-anchor="start" x="534" y="-231.5" font-family="Arial" font-size="10.00">summary</text>
<text text-anchor="start" x="575" y="-231.5" font-family="Arial" font-size="8.00" fill="#94a3b8">  string</text>
<text text-anchor="start" x="534" y="-220.5" font-family="Arial" font-size="10.00">title</text>
<text text-anchor="start" x="550" y="-220.5" font-family="Arial" font-size="8.00" fill="#94a3b8">  string</text>
<text text-anchor="start" x="534" y="-209.5" font-family="Arial" font-size="10.00">updated_at</text>
<text text-anchor="start" x="583" y="-209.5" font-family="Arial" font-size="8.00" fill="#94a3b8">  string:date&#45;time</text>
<text text-anchor="start" x="534" y="-198.5" font-family="Arial" font-size="10.00">workspace_id</text>
<text text-anchor="start" x="595" y="-198.5" font-family="Arial" font-size="8.00" fill="#94a3b8">  string</text>
<polygon fill="none" stroke="#15803d" points="529,-189.5 529,-359.5 723,-359.5 723,-189.5 529,-189.5"/>
</g>
<!-- application_action_policy_authorization_policy_project_member&#45;&gt;application_action_resource_application_action_project_list_reads_entity_type_project -->
<g id="edge2" class="edge">
<title>application_action_policy_authorization_policy_project_member&#45;&gt;application_action_resource_application_action_project_list_reads_entity_type_project</title>
<path fill="none" stroke="#3f3f46" d="M442.02,-274.5C468.02,-274.5 495.28,-274.5 520.58,-274.5"/>
<polygon fill="#3f3f46" stroke="#3f3f46" points="520.72,-277.3 528.72,-274.5 520.72,-271.7 520.72,-277.3"/>
<text text-anchor="middle" x="485.5" y="-277.5" font-family="Arial" font-size="10.00">reads</text>
</g>
<!-- action_outcome_application_action_project_list_forbidden -->
<g id="node4" class="node">
<title>action_outcome_application_action_project_list_forbidden</title>
<polygon fill="#ffffff" stroke="transparent" points="843,-375 843,-446 916,-446 916,-375 843,-375"/>
<polygon fill="#dc2626" stroke="transparent" points="844.5,-436.5 844.5,-444.5 915.5,-444.5 915.5,-436.5 844.5,-436.5"/>
<polygon fill="#fef2f2" stroke="transparent" points="844.5,-405.5 844.5,-436.5 915.5,-436.5 915.5,-405.5 844.5,-405.5"/>
<text text-anchor="start" x="848.5" y="-423.1" font-family="Arial" font-weight="bold" font-size="13.00">forbidden</text>
<text text-anchor="start" x="848.5" y="-412.1" font-family="Arial" font-size="8.00" fill="#64748b">failure outcome</text>
<text text-anchor="start" x="848.5" y="-394.5" font-family="Arial" font-weight="bold" font-size="10.00">result</text>
<text text-anchor="start" x="848.5" y="-383.5" font-family="Arial" font-size="10.00">result</text>
<text text-anchor="start" x="873.5" y="-383.5" font-family="Arial" font-size="8.00" fill="#94a3b8">  Problem</text>
<polygon fill="none" stroke="#dc2626" points="843,-375 843,-446 916,-446 916,-375 843,-375"/>
</g>
<!-- application_action_policy_authorization_policy_project_member&#45;&gt;action_outcome_application_action_project_list_forbidden -->
<g id="edge3" class="edge">
<title>application_action_policy_authorization_policy_project_member&#45;&gt;action_outcome_application_action_project_list_forbidden</title>
<path fill="none" stroke="#3f3f46" d="M426.6,-332.53C458.64,-347.85 494.51,-362.8 529,-372.5 635.91,-402.58 767.42,-409.1 834.54,-410.35"/>
<polygon fill="#3f3f46" stroke="#3f3f46" points="834.75,-413.16 842.79,-410.49 834.84,-407.56 834.75,-413.16"/>
<text text-anchor="middle" x="626" y="-408.5" font-family="Arial" font-size="10.00">forbidden_as</text>
</g>
<!-- action_outcome_application_action_project_list_unauthenticated -->
<g id="node6" class="node">
<title>action_outcome_application_action_project_list_unauthenticated</title>
<polygon fill="#ffffff" stroke="transparent" points="822,-125 822,-196 937,-196 937,-125 822,-125"/>
<polygon fill="#dc2626" stroke="transparent" points="823.5,-186.5 823.5,-194.5 936.5,-194.5 936.5,-186.5 823.5,-186.5"/>
<polygon fill="#fef2f2" stroke="transparent" points="823.5,-155.5 823.5,-186.5 936.5,-186.5 936.5,-155.5 823.5,-155.5"/>
<text text-anchor="start" x="827.5" y="-173.1" font-family="Arial" font-weight="bold" font-size="13.00">unauthenticated</text>
<text text-anchor="start" x="827.5" y="-162.1" font-family="Arial" font-size="8.00" fill="#64748b">failure outcome</text>
<text text-anchor="start" x="827.5" y="-144.5" font-family="Arial" font-weight="bold" font-size="10.00">result</text>
<text text-anchor="start" x="827.5" y="-133.5" font-family="Arial" font-size="10.00">result</text>
<text text-anchor="start" x="852.5" y="-133.5" font-family="Arial" font-size="8.00" fill="#94a3b8">  Problem</text>
<polygon fill="none" stroke="#dc2626" points="822,-125 822,-196 937,-196 937,-125 822,-125"/>
</g>
<!-- application_action_policy_authorization_policy_project_member&#45;&gt;action_outcome_application_action_project_list_unauthenticated -->
<g id="edge5" class="edge">
<title>application_action_policy_authorization_policy_project_member&#45;&gt;action_outcome_application_action_project_list_unauthenticated</title>
<path fill="none" stroke="#3f3f46" d="M408.32,-216.45C444.16,-195.86 487.03,-175.17 529,-164.5 625.83,-139.88 742.69,-145.28 813.75,-152.26"/>
<polygon fill="#3f3f46" stroke="#3f3f46" points="813.51,-155.05 821.76,-153.07 814.08,-149.48 813.51,-155.05"/>
<text text-anchor="middle" x="626" y="-167.5" font-family="Arial" font-size="10.00">unauthenticated_as</text>
</g>
<!-- action_outcome_application_action_project_list_listed -->
<g id="node5" class="node">
<title>action_outcome_application_action_project_list_listed</title>
<polygon fill="#ffffff" stroke="transparent" points="833,-250 833,-321 926,-321 926,-250 833,-250"/>
<polygon fill="#16a34a" stroke="transparent" points="834.5,-311.5 834.5,-319.5 925.5,-319.5 925.5,-311.5 834.5,-311.5"/>
<polygon fill="#f0fdf4" stroke="transparent" points="834.5,-280.5 834.5,-311.5 925.5,-311.5 925.5,-280.5 834.5,-280.5"/>
<text text-anchor="start" x="838.5" y="-298.1" font-family="Arial" font-weight="bold" font-size="13.00">listed</text>
<text text-anchor="start" x="838.5" y="-287.1" font-family="Arial" font-size="8.00" fill="#64748b">success outcome</text>
<text text-anchor="start" x="838.5" y="-269.5" font-family="Arial" font-weight="bold" font-size="10.00">result</text>
<text text-anchor="start" x="838.5" y="-258.5" font-family="Arial" font-size="10.00">result</text>
<text text-anchor="start" x="863.5" y="-258.5" font-family="Arial" font-size="8.00" fill="#94a3b8">  array&lt;Project&gt;</text>
<polygon fill="none" stroke="#16a34a" points="833,-250 833,-321 926,-321 926,-250 833,-250"/>
</g>
<!-- application_action_resource_application_action_project_list_reads_entity_type_project&#45;&gt;action_outcome_application_action_project_list_listed -->
<g id="edge4" class="edge">
<title>application_action_resource_application_action_project_list_reads_entity_type_project&#45;&gt;action_outcome_application_action_project_list_listed</title>
<path fill="none" stroke="#3f3f46" d="M723.16,-278.71C757.63,-280.21 795.26,-281.86 824.84,-283.15"/>
<polygon fill="#3f3f46" stroke="#3f3f46" points="824.85,-285.96 832.96,-283.51 825.09,-280.36 824.85,-285.96"/>
<text text-anchor="middle" x="772.5" y="-285.5" font-family="Arial" font-size="10.00">success</text>
</g>
<!-- action_outcome_application_action_project_list_unavailable -->
<g id="node7" class="node">
<title>action_outcome_application_action_project_list_unavailable</title>
<polygon fill="#ffffff" stroke="transparent" points="837.5,0 837.5,-71 921.5,-71 921.5,0 837.5,0"/>
<polygon fill="#dc2626" stroke="transparent" points="838.5,-61.5 838.5,-69.5 920.5,-69.5 920.5,-61.5 838.5,-61.5"/>
<polygon fill="#fef2f2" stroke="transparent" points="838.5,-30.5 838.5,-61.5 920.5,-61.5 920.5,-30.5 838.5,-30.5"/>
<text text-anchor="start" x="842.5" y="-48.1" font-family="Arial" font-weight="bold" font-size="13.00">unavailable</text>
<text text-anchor="start" x="842.5" y="-37.1" font-family="Arial" font-size="8.00" fill="#64748b">failure outcome</text>
<text text-anchor="start" x="842.5" y="-19.5" font-family="Arial" font-weight="bold" font-size="10.00">result</text>
<text text-anchor="start" x="842.5" y="-8.5" font-family="Arial" font-size="10.00">result</text>
<text text-anchor="start" x="867.5" y="-8.5" font-family="Arial" font-size="8.00" fill="#94a3b8">  Problem</text>
<polygon fill="none" stroke="#dc2626" points="837.5,0 837.5,-71 921.5,-71 921.5,0 837.5,0"/>
</g>
<!-- application_action_resource_application_action_project_list_reads_entity_type_project&#45;&gt;action_outcome_application_action_project_list_unavailable -->
<g id="edge6" class="edge">
<title>application_action_resource_application_action_project_list_reads_entity_type_project&#45;&gt;action_outcome_application_action_project_list_unavailable</title>
<path fill="none" stroke="#3f3f46" d="M716.73,-189.23C756.97,-150.99 802.58,-107.64 835.09,-76.75"/>
<polygon fill="#3f3f46" stroke="#3f3f46" points="837.14,-78.67 841.01,-71.13 833.28,-74.61 837.14,-78.67"/>
<text text-anchor="middle" x="772.5" y="-151.5" font-family="Arial" font-size="10.00">failure</text>
</g>
<!-- action_outcome_application_action_project_list_forbidden&#45;&gt;action_outcome_application_action_project_list_listed -->
<!-- action_outcome_application_action_project_list_listed&#45;&gt;action_outcome_application_action_project_list_unauthenticated -->
<!-- action_outcome_application_action_project_list_unauthenticated&#45;&gt;action_outcome_application_action_project_list_unavailable -->
</g>
</svg>
