<svg width="1454pt" height="607pt"
 viewBox="0.00 0.00 1454.00 607.00" xmlns="http://www.w3.org/2000/svg" xmlns:xlink="http://www.w3.org/1999/xlink">
<!-- pyspec-contract-input-sha256: 13bce17daacac4e2c8176c5585e9d3c3b6c0aacf83be87f18062af9d27d6b429 -->
<g id="graph0" class="graph" transform="scale(1 1) rotate(0) translate(18 589)">
<title>application_action_application_action_project_submit</title>
<!-- application_action_input_application_action_project_submit -->
<g id="node1" class="node">
<title>application_action_input_application_action_project_submit</title>
<polygon fill="#ffffff" stroke="transparent" points="0,-250 0,-321 78,-321 78,-250 0,-250"/>
<polygon fill="#64748b" stroke="transparent" points="1,-311.5 1,-319.5 77,-319.5 77,-311.5 1,-311.5"/>
<polygon fill="#f8fafc" stroke="transparent" points="1,-280.5 1,-311.5 77,-311.5 77,-280.5 1,-280.5"/>
<text text-anchor="start" x="5" y="-298.1" font-family="Arial" font-weight="bold" font-size="13.00">input</text>
<text text-anchor="start" x="5" y="-287.1" font-family="Arial" font-size="8.00" fill="#64748b">action input</text>
<text text-anchor="start" x="5" y="-269.5" font-family="Arial" font-weight="bold" font-size="10.00">fields</text>
<text text-anchor="start" x="5" y="-258.5" font-family="Arial" font-size="10.00">project_id</text>
<text text-anchor="start" x="48" y="-258.5" font-family="Arial" font-size="8.00" fill="#94a3b8">  string</text>
<polygon fill="none" stroke="#64748b" points="0,-250 0,-321 78,-321 78,-250 0,-250"/>
</g>
<!-- application_action_policy_authorization_policy_project_member -->
<g id="node2" class="node">
<title>application_action_policy_authorization_policy_project_member</title>
<polygon fill="#ffffff" stroke="transparent" points="180,-227.5 180,-343.5 424,-343.5 424,-227.5 180,-227.5"/>
<polygon fill="#c2410c" stroke="transparent" points="181,-334.5 181,-342.5 423,-342.5 423,-334.5 181,-334.5"/>
<polygon fill="#fff7ed" stroke="transparent" points="181,-303.5 181,-334.5 423,-334.5 423,-303.5 181,-303.5"/>
<text text-anchor="start" x="185" y="-321.1" font-family="Arial" font-weight="bold" font-size="13.00">authorization_policy.project.member</text>
<text text-anchor="start" x="185" y="-310.1" font-family="Arial" font-size="8.00" fill="#64748b">authorization gate</text>
<text text-anchor="start" x="185" y="-292.5" font-family="Arial" font-style="italic" font-size="10.00" fill="#3f3f46">Workspace members may create, read, list, and</text>
<text text-anchor="start" x="185" y="-281.5" font-family="Arial" font-style="italic" font-size="10.00" fill="#3f3f46">submit dispatch projects.</text>
<text text-anchor="start" x="186" y="-261.5" font-family="Arial" font-weight="bold" font-size="10.00">effect:</text>
<text text-anchor="start" x="214" y="-261.5" font-family="Arial" font-size="10.00">  allow</text>
<text text-anchor="start" x="186" y="-249.5" font-family="Arial" font-weight="bold" font-size="10.00">subjects:</text>
<text text-anchor="start" x="229" y="-249.5" font-family="Arial" font-size="10.00">  actor</text>
<text text-anchor="start" x="186" y="-237.5" font-family="Arial" font-weight="bold" font-size="10.00">conditions:</text>
<text text-anchor="start" x="239" y="-237.5" font-family="Arial" font-size="10.00">  subject_has_role member</text>
<polygon fill="none" stroke="#c2410c" points="180,-227.5 180,-343.5 424,-343.5 424,-227.5 180,-227.5"/>
</g>
<!-- application_action_input_application_action_project_submit&#45;&gt;application_action_policy_authorization_policy_project_member -->
<g id="edge1" class="edge">
<title>application_action_input_application_action_project_submit&#45;&gt;application_action_policy_authorization_policy_project_member</title>
<path fill="none" stroke="#3f3f46" stroke-width="1.2" d="M78.23,-285.5C103.27,-285.5 137.58,-285.5 171.78,-285.5"/>
<polygon fill="#3f3f46" stroke="#3f3f46" stroke-width="1.2" points="172,-288.3 180,-285.5 172,-282.7 172,-288.3"/>
<text text-anchor="middle" x="129" y="-288.5" font-family="Arial" font-size="10.00">authorize</text>
</g>
<!-- application_action_resource_application_action_project_submit_lifecycle_transition_entity_type_project_status -->
<g id="node3" class="node">
<title>application_action_resource_application_action_project_submit_lifecycle_transition_entity_type_project_status</title>
<polygon fill="#ffffff" stroke="transparent" points="568,-250 568,-321 864,-321 864,-250 568,-250"/>
<polygon fill="#15803d" stroke="transparent" points="569,-311.5 569,-319.5 863,-319.5 863,-311.5 569,-311.5"/>
<polygon fill="#f0fdfa" stroke="transparent" points="569,-280.5 569,-311.5 863,-311.5 863,-280.5 569,-280.5"/>
<text text-anchor="start" x="573" y="-298.1" font-family="Arial" font-weight="bold" font-size="13.00">entity_type.project</text>
<text text-anchor="start" x="573" y="-287.1" font-family="Arial" font-size="8.00" fill="#64748b">entity_type resource</text>
<text text-anchor="start" x="573" y="-269.5" font-family="Arial" font-weight="bold" font-size="10.00">change</text>
<text text-anchor="start" x="573" y="-258.5" font-family="Arial" font-size="10.00">Project.status</text>
<text text-anchor="start" x="634" y="-258.5" font-family="Arial" font-size="8.00" fill="#94a3b8">  enum&lt;draft|submitted|approved|archived&gt;</text>
<text text-anchor="start" x="790" y="-258.5" font-family="Arial" font-size="8.00">  draft → submitted</text>
<polygon fill="none" stroke="#15803d" points="568,-250 568,-321 864,-321 864,-250 568,-250"/>
</g>
<!-- application_action_policy_authorization_policy_project_member&#45;&gt;application_action_resource_application_action_project_submit_lifecycle_transition_entity_type_project_status -->
<g id="edge2" class="edge">
<title>application_action_policy_authorization_policy_project_member&#45;&gt;application_action_resource_application_action_project_submit_lifecycle_transition_entity_type_project_status</title>
<path fill="none" stroke="#3f3f46" d="M424.11,-285.5C466.55,-285.5 514.81,-285.5 559.66,-285.5"/>
<polygon fill="#3f3f46" stroke="#3f3f46" points="559.7,-288.3 567.7,-285.5 559.7,-282.7 559.7,-288.3"/>
<text text-anchor="middle" x="496" y="-288.5" font-family="Arial" font-size="10.00">lifecycle_transition</text>
</g>
<!-- action_outcome_application_action_project_submit_forbidden -->
<g id="node4" class="node">
<title>action_outcome_application_action_project_submit_forbidden</title>
<polygon fill="#ffffff" stroke="transparent" points="1005,-500 1005,-571 1078,-571 1078,-500 1005,-500"/>
<polygon fill="#dc2626" stroke="transparent" points="1006.5,-561.5 1006.5,-569.5 1077.5,-569.5 1077.5,-561.5 1006.5,-561.5"/>
<polygon fill="#fef2f2" stroke="transparent" points="1006.5,-530.5 1006.5,-561.5 1077.5,-561.5 1077.5,-530.5 1006.5,-530.5"/>
<text text-anchor="start" x="1010.5" y="-548.1" font-family="Arial" font-weight="bold" font-size="13.00">forbidden</text>
<text text-anchor="start" x="1010.5" y="-537.1" font-family="Arial" font-size="8.00" fill="#64748b">failure outcome</text>
<text text-anchor="start" x="1010.5" y="-519.5" font-family="Arial" font-weight="bold" font-size="10.00">result</text>
<text text-anchor="start" x="1010.5" y="-508.5" font-family="Arial" font-size="10.00">result</text>
<text text-anchor="start" x="1035.5" y="-508.5" font-family="Arial" font-size="8.00" fill="#94a3b8">  Problem</text>
<polygon fill="none" stroke="#dc2626" points="1005,-500 1005,-571 1078,-571 1078,-500 1005,-500"/>
</g>
<!-- application_action_policy_authorization_policy_project_member&#45;&gt;action_outcome_application_action_project_submit_forbidden -->
<g id="edge3" class="edge">
<title>application_action_policy_authorization_policy_project_member&#45;&gt;action_outcome_application_action_project_submit_forbidden</title>
<path fill="none" stroke="#3f3f46" d="M424.37,-326.64C592.28,-383.56 887.18,-483.53 997.36,-520.88"/>
<polygon fill="#3f3f46" stroke="#3f3f46" points="996.5,-523.54 1004.97,-523.46 998.3,-518.24 996.5,-523.54"/>
<text text-anchor="middle" x="716" y="-477.5" font-family="Arial" font-size="10.00">forbidden_as</text>
</g>
<!-- action_outcome_application_action_project_submit_unauthenticated -->
<g id="node8" class="node">
<title>action_outcome_application_action_project_submit_unauthenticated</title>
<polygon fill="#ffffff" stroke="transparent" points="984,0 984,-71 1099,-71 1099,0 984,0"/>
<polygon fill="#dc2626" stroke="transparent" points="985.5,-61.5 985.5,-69.5 1098.5,-69.5 1098.5,-61.5 985.5,-61.5"/>
<polygon fill="#fef2f2" stroke="transparent" points="985.5,-30.5 985.5,-61.5 1098.5,-61.5 1098.5,-30.5 985.5,-30.5"/>
<text text-anchor="start" x="989.5" y="-48.1" font-family="Arial" font-weight="bold" font-size="13.00">unauthenticated</text>
<text text-anchor="start" x="989.5" y="-37.1" font-family="Arial" font-size="8.00" fill="#64748b">failure outcome</text>
<text text-anchor="start" x="989.5" y="-19.5" font-family="Arial" font-weight="bold" font-size="10.00">result</text>
<text text-anchor="start" x="989.5" y="-8.5" font-family="Arial" font-size="10.00">result</text>
<text text-anchor="start" x="1014.5" y="-8.5" font-family="Arial" font-size="8.00" fill="#94a3b8">  Problem</text>
<polygon fill="none" stroke="#dc2626" points="984,0 984,-71 1099,-71 1099,0 984,0"/>
</g>
<!-- application_action_policy_authorization_policy_project_member&#45;&gt;action_outcome_application_action_project_submit_unauthenticated -->
<g id="edge8" class="edge">
<title>application_action_policy_authorization_policy_project_member&#45;&gt;action_outcome_application_action_project_submit_unauthenticated</title>
<path fill="none" stroke="#3f3f46" d="M424.37,-244.36C582.41,-190.78 852.96,-99.07 976.09,-57.33"/>
<polygon fill="#3f3f46" stroke="#3f3f46" points="977.31,-59.88 983.98,-54.66 975.51,-54.57 977.31,-59.88"/>
<text text-anchor="middle" x="716" y="-196.5" font-family="Arial" font-size="10.00">unauthenticated_as</text>
</g>
<!-- action_outcome_application_action_project_submit_not_found -->
<g id="node5" class="node">
<title>action_outcome_application_action_project_submit_not_found</title>
<polygon fill="#ffffff" stroke="transparent" points="1003,-375 1003,-446 1080,-446 1080,-375 1003,-375"/>
<polygon fill="#dc2626" stroke="transparent" points="1004.5,-436.5 1004.5,-444.5 1079.5,-444.5 1079.5,-436.5 1004.5,-436.5"/>
<polygon fill="#fef2f2" stroke="transparent" points="1004.5,-405.5 1004.5,-436.5 1079.5,-436.5 1079.5,-405.5 1004.5,-405.5"/>
<text text-anchor="start" x="1008.5" y="-423.1" font-family="Arial" font-weight="bold" font-size="13.00">not_found</text>
<text text-anchor="start" x="1008.5" y="-412.1" font-family="Arial" font-size="8.00" fill="#64748b">failure outcome</text>
<text text-anchor="start" x="1008.5" y="-394.5" font-family="Arial" font-weight="bold" font-size="10.00">result</text>
<text text-anchor="start" x="1008.5" y="-383.5" font-family="Arial" font-size="10.00">result</text>
<text text-anchor="start" x="1033.5" y="-383.5" font-family="Arial" font-size="8.00" fill="#94a3b8">  Problem</text>
<polygon fill="none" stroke="#dc2626" points="1003,-375 1003,-446 1080,-446 1080,-375 1003,-375"/>
</g>
<!-- application_action_resource_application_action_project_submit_lifecycle_transition_entity_type_project_status&#45;&gt;action_outcome_application_action_project_submit_not_found -->
<g id="edge4" class="edge">
<title>application_action_resource_application_action_project_submit_lifecycle_transition_entity_type_project_status&#45;&gt;action_outcome_application_action_project_submit_not_found</title>
<path fill="none" stroke="#3f3f46" d="M809.27,-321.15C870.12,-344.67 947.18,-374.44 995.17,-392.98"/>
<polygon fill="#3f3f46" stroke="#3f3f46" points="994.43,-395.7 1002.9,-395.97 996.45,-390.48 994.43,-395.7"/>
<text text-anchor="middle" x="913.5" y="-369.5" font-family="Arial" font-size="10.00">failure</text>
</g>
<!-- action_outcome_application_action_project_submit_submitted -->
<g id="node6" class="node">
<title>action_outcome_application_action_project_submit_submitted</title>
<polygon fill="#ffffff" stroke="transparent" points="1004.5,-250 1004.5,-321 1078.5,-321 1078.5,-250 1004.5,-250"/>
<polygon fill="#16a34a" stroke="transparent" points="1005.5,-311.5 1005.5,-319.5 1077.5,-319.5 1077.5,-311.5 1005.5,-311.5"/>
<polygon fill="#f0fdf4" stroke="transparent" points="1005.5,-280.5 1005.5,-311.5 1077.5,-311.5 1077.5,-280.5 1005.5,-280.5"/>
<text text-anchor="start" x="1009.5" y="-298.1" font-family="Arial" font-weight="bold" font-size="13.00">submitted</text>
<text text-anchor="start" x="1009.5" y="-287.1" font-family="Arial" font-size="8.00" fill="#64748b">success outcome</text>
<text text-anchor="start" x="1009.5" y="-269.5" font-family="Arial" font-weight="bold" font-size="10.00">result</text>
<text text-anchor="start" x="1009.5" y="-258.5" font-family="Arial" font-size="10.00">result</text>
<text text-anchor="start" x="1034.5" y="-258.5" font-family="Arial" font-size="8.00" fill="#94a3b8">  Project</text>
<polygon fill="none" stroke="#16a34a" points="1004.5,-250 1004.5,-321 1078.5,-321 1078.5,-250 1004.5,-250"/>
</g>
<!-- application_action_resource_application_action_project_submit_lifecycle_transition_entity_type_project_status&#45;&gt;action_outcome_application_action_project_submit_submitted -->
<g id="edge5" class="edge">
<title>application_action_resource_application_action_project_submit_lifecycle_transition_entity_type_project_status&#45;&gt;action_outcome_application_action_project_submit_submitted</title>
<path fill="none" stroke="#3f3f46" d="M864.08,-285.5C911.93,-285.5 961.51,-285.5 995.88,-285.5"/>
<polygon fill="#3f3f46" stroke="#3f3f46" points="996.28,-288.3 1004.28,-285.5 996.28,-282.7 996.28,-288.3"/>
<text text-anchor="middle" x="913.5" y="-288.5" font-family="Arial" font-size="10.00">success</text>
</g>
<!-- action_outcome_application_action_project_submit_transition_not_allowed -->
<g id="node7" class="node">
<title>action_outcome_application_action_project_submit_transition_not_allowed</title>
<polygon fill="#ffffff" stroke="transparent" points="963,-125 963,-196 1120,-196 1120,-125 963,-125"/>
<polygon fill="#dc2626" stroke="transparent" points="964.5,-186.5 964.5,-194.5 1119.5,-194.5 1119.5,-186.5 964.5,-186.5"/>
<polygon fill="#fef2f2" stroke="transparent" points="964.5,-155.5 964.5,-186.5 1119.5,-186.5 1119.5,-155.5 964.5,-155.5"/>
<text text-anchor="start" x="968.5" y="-173.1" font-family="Arial" font-weight="bold" font-size="13.00">transition_not_allowed</text>
<text text-anchor="start" x="968.5" y="-162.1" font-family="Arial" font-size="8.00" fill="#64748b">failure outcome</text>
<text text-anchor="start" x="968.5" y="-144.5" font-family="Arial" font-weight="bold" font-size="10.00">result</text>
<text text-anchor="start" x="968.5" y="-133.5" font-family="Arial" font-size="10.00">result</text>
<text text-anchor="start" x="993.5" y="-133.5" font-family="Arial" font-size="8.00" fill="#94a3b8">  Problem</text>
<polygon fill="none" stroke="#dc2626" points="963,-125 963,-196 1120,-196 1120,-125 963,-125"/>
</g>
<!-- application_action_resource_application_action_project_submit_lifecycle_transition_entity_type_project_status&#45;&gt;action_outcome_application_action_project_submit_transition_not_allowed -->
<g id="edge7" class="edge">
<title>application_action_resource_application_action_project_submit_lifecycle_transition_entity_type_project_status&#45;&gt;action_outcome_application_action_project_submit_transition_not_allowed</title>
<path fill="none" stroke="#3f3f46" d="M809.27,-249.85C855.17,-232.11 910.29,-210.81 955.19,-193.46"/>
<polygon fill="#3f3f46" stroke="#3f3f46" points="956.43,-195.99 962.88,-190.49 954.41,-190.76 956.43,-195.99"/>
<text text-anchor="middle" x="913.5" y="-219.5" font-family="Arial" font-size="10.00">failure</text>
</g>
<!-- action_outcome_application_action_project_submit_forbidden&#45;&gt;action_outcome_application_action_project_submit_not_found -->
<!-- action_outcome_application_action_project_submit_not_found&#45;&gt;action_outcome_application_action_project_submit_submitted -->
<!-- action_outcome_application_action_project_submit_submitted&#45;&gt;action_outcome_application_action_project_submit_transition_not_allowed -->
<!-- application_action_event_application_action_project_submit_domain_event_project_submitted -->
<g id="node9" class="node">
<title>application_action_event_application_action_project_submit_domain_event_project_submitted</title>
<polygon fill="#ffffff" stroke="transparent" points="1201,-235 1201,-336 1418,-336 1418,-235 1201,-235"/>
<polygon fill="#4f46e5" stroke="transparent" points="1202.5,-326.5 1202.5,-334.5 1417.5,-334.5 1417.5,-326.5 1202.5,-326.5"/>
<polygon fill="#eef2ff" stroke="transparent" points="1202.5,-295.5 1202.5,-326.5 1417.5,-326.5 1417.5,-295.5 1202.5,-295.5"/>
<text text-anchor="start" x="1206.5" y="-313.1" font-family="Arial" font-weight="bold" font-size="13.00">domain_event.project.submitted</text>
<text text-anchor="start" x="1206.5" y="-302.1" font-family="Arial" font-size="8.00" fill="#64748b">emitted event</text>
<text text-anchor="start" x="1206.5" y="-284.5" font-family="Arial" font-style="italic" font-size="10.00" fill="#3f3f46">Draft dispatch projects can be submitted for</text>
<text text-anchor="start" x="1206.5" y="-273.5" font-family="Arial" font-style="italic" font-size="10.00" fill="#3f3f46">review.</text>
<text text-anchor="start" x="1206.5" y="-254.5" font-family="Arial" font-weight="bold" font-size="10.00">payload</text>
<text text-anchor="start" x="1206.5" y="-243.5" font-family="Arial" font-size="10.00">payload</text>
<text text-anchor="start" x="1240.5" y="-243.5" font-family="Arial" font-size="8.00" fill="#94a3b8">  Project</text>
<polygon fill="none" stroke="#4f46e5" points="1201,-235 1201,-336 1418,-336 1418,-235 1201,-235"/>
</g>
<!-- action_outcome_application_action_project_submit_submitted&#45;&gt;application_action_event_application_action_project_submit_domain_event_project_submitted -->
<g id="edge6" class="edge">
<title>action_outcome_application_action_project_submit_submitted&#45;&gt;application_action_event_application_action_project_submit_domain_event_project_submitted</title>
<path fill="none" stroke="#3f3f46" stroke-width="1.2" d="M1078.65,-285.5C1108.15,-285.5 1151.53,-285.5 1192.68,-285.5"/>
<polygon fill="#3f3f46" stroke="#3f3f46" stroke-width="1.2" points="1192.87,-288.3 1200.87,-285.5 1192.87,-282.7 1192.87,-288.3"/>
<text text-anchor="middle" x="1160.5" y="-288.5" font-family="Arial" font-size="10.00">emit</text>
</g>
<!-- action_outcome_application_action_project_submit_transition_not_allowed&#45;&gt;action_outcome_application_action_project_submit_unauthenticated -->
</g>
</svg>
