<svg width="1461pt" height="607pt"
 viewBox="0.00 0.00 1461.00 607.00" xmlns="http://www.w3.org/2000/svg" xmlns:xlink="http://www.w3.org/1999/xlink">
<!-- pyspec-contract-input-sha256: 53ce295119d5e79601f0a06c8c9cefb2c9a9ceb59a79d6051f30bcc53e0f0de8 -->
<g id="graph0" class="graph" transform="scale(1 1) rotate(0) translate(18 589)">
<title>application_action_application_action_project_submit</title>
<!-- application_action_input_application_action_project_submit -->
<g id="node1" class="node">
<title>application_action_input_application_action_project_submit</title>
<polygon fill="#ffffff" stroke="transparent" points="0,-375 0,-446 78,-446 78,-375 0,-375"/>
<polygon fill="#64748b" stroke="transparent" points="1,-436.5 1,-444.5 77,-444.5 77,-436.5 1,-436.5"/>
<polygon fill="#f8fafc" stroke="transparent" points="1,-405.5 1,-436.5 77,-436.5 77,-405.5 1,-405.5"/>
<text text-anchor="start" x="5" y="-423.1" font-family="Arial" font-weight="bold" font-size="13.00">input</text>
<text text-anchor="start" x="5" y="-412.1" font-family="Arial" font-size="8.00" fill="#64748b">action input</text>
<text text-anchor="start" x="5" y="-394.5" font-family="Arial" font-weight="bold" font-size="10.00">fields</text>
<text text-anchor="start" x="5" y="-383.5" font-family="Arial" font-size="10.00">project_id</text>
<text text-anchor="start" x="48" y="-383.5" font-family="Arial" font-size="8.00" fill="#94a3b8">  string</text>
<polygon fill="none" stroke="#64748b" points="0,-375 0,-446 78,-446 78,-375 0,-375"/>
</g>
<!-- application_action_policy_authorization_policy_project_member -->
<g id="node2" class="node">
<title>application_action_policy_authorization_policy_project_member</title>
<polygon fill="#ffffff" stroke="transparent" points="180,-352.5 180,-468.5 424,-468.5 424,-352.5 180,-352.5"/>
<polygon fill="#c2410c" stroke="transparent" points="181,-459.5 181,-467.5 423,-467.5 423,-459.5 181,-459.5"/>
<polygon fill="#fff7ed" stroke="transparent" points="181,-428.5 181,-459.5 423,-459.5 423,-428.5 181,-428.5"/>
<text text-anchor="start" x="185" y="-446.1" font-family="Arial" font-weight="bold" font-size="13.00">authorization_policy.project.member</text>
<text text-anchor="start" x="185" y="-435.1" font-family="Arial" font-size="8.00" fill="#64748b">authorization gate</text>
<text text-anchor="start" x="185" y="-417.5" font-family="Arial" font-style="italic" font-size="10.00" fill="#3f3f46">Workspace members may create, read, list, and</text>
<text text-anchor="start" x="185" y="-406.5" font-family="Arial" font-style="italic" font-size="10.00" fill="#3f3f46">submit dispatch projects.</text>
<text text-anchor="start" x="186" y="-386.5" font-family="Arial" font-weight="bold" font-size="10.00">effect:</text>
<text text-anchor="start" x="214" y="-386.5" font-family="Arial" font-size="10.00">  permit</text>
<text text-anchor="start" x="186" y="-374.5" font-family="Arial" font-weight="bold" font-size="10.00">subjects:</text>
<text text-anchor="start" x="229" y="-374.5" font-family="Arial" font-size="10.00">  actor</text>
<text text-anchor="start" x="186" y="-362.5" font-family="Arial" font-weight="bold" font-size="10.00">conditions:</text>
<text text-anchor="start" x="239" y="-362.5" font-family="Arial" font-size="10.00">  subject_has_role member</text>
<polygon fill="none" stroke="#c2410c" points="180,-352.5 180,-468.5 424,-468.5 424,-352.5 180,-352.5"/>
</g>
<!-- application_action_input_application_action_project_submit&#45;&gt;application_action_policy_authorization_policy_project_member -->
<g id="edge1" class="edge">
<title>application_action_input_application_action_project_submit&#45;&gt;application_action_policy_authorization_policy_project_member</title>
<path fill="none" stroke="#3f3f46" stroke-width="1.2" d="M78.23,-410.5C103.27,-410.5 137.58,-410.5 171.78,-410.5"/>
<polygon fill="#3f3f46" stroke="#3f3f46" stroke-width="1.2" points="172,-413.3 180,-410.5 172,-407.7 172,-413.3"/>
<text text-anchor="middle" x="129" y="-413.5" font-family="Arial" font-size="10.00">authorize</text>
</g>
<!-- application_action_resource_application_action_project_submit_lifecycle_transition_entity_type_project_status -->
<g id="node3" class="node">
<title>application_action_resource_application_action_project_submit_lifecycle_transition_entity_type_project_status</title>
<polygon fill="#ffffff" stroke="transparent" points="568,-167 568,-238 864,-238 864,-167 568,-167"/>
<polygon fill="#15803d" stroke="transparent" points="569,-228.5 569,-236.5 863,-236.5 863,-228.5 569,-228.5"/>
<polygon fill="#f0fdfa" stroke="transparent" points="569,-197.5 569,-228.5 863,-228.5 863,-197.5 569,-197.5"/>
<text text-anchor="start" x="573" y="-215.1" font-family="Arial" font-weight="bold" font-size="13.00">entity_type.project</text>
<text text-anchor="start" x="573" y="-204.1" font-family="Arial" font-size="8.00" fill="#64748b">entity_type resource</text>
<text text-anchor="start" x="573" y="-186.5" font-family="Arial" font-weight="bold" font-size="10.00">change</text>
<text text-anchor="start" x="573" y="-175.5" font-family="Arial" font-size="10.00">Project.status</text>
<text text-anchor="start" x="634" y="-175.5" font-family="Arial" font-size="8.00" fill="#94a3b8">  enum&lt;draft|submitted|approved|archived&gt;</text>
<text text-anchor="start" x="790" y="-175.5" font-family="Arial" font-size="8.00">  draft → submitted</text>
<polygon fill="none" stroke="#15803d" points="568,-167 568,-238 864,-238 864,-167 568,-167"/>
</g>
<!-- application_action_policy_authorization_policy_project_member&#45;&gt;application_action_resource_application_action_project_submit_lifecycle_transition_entity_type_project_status -->
<g id="edge2" class="edge">
<title>application_action_policy_authorization_policy_project_member&#45;&gt;application_action_resource_application_action_project_submit_lifecycle_transition_entity_type_project_status</title>
<path fill="none" stroke="#3f3f46" d="M418.04,-352.42C487.93,-317.14 575.3,-273.03 637.13,-241.81"/>
<polygon fill="#3f3f46" stroke="#3f3f46" points="638.66,-244.18 644.54,-238.07 636.14,-239.18 638.66,-244.18"/>
<text text-anchor="middle" x="496" y="-334.5" font-family="Arial" font-size="10.00">lifecycle_transition</text>
</g>
<!-- action_outcome_application_action_project_submit_access_denied -->
<g id="node4" class="node">
<title>action_outcome_application_action_project_submit_access_denied</title>
<polygon fill="#ffffff" stroke="transparent" points="991.5,-500 991.5,-571 1098.5,-571 1098.5,-500 991.5,-500"/>
<polygon fill="#dc2626" stroke="transparent" points="993,-561.5 993,-569.5 1098,-569.5 1098,-561.5 993,-561.5"/>
<polygon fill="#fef2f2" stroke="transparent" points="993,-530.5 993,-561.5 1098,-561.5 1098,-530.5 993,-530.5"/>
<text text-anchor="start" x="997" y="-548.1" font-family="Arial" font-weight="bold" font-size="13.00">access_denied</text>
<text text-anchor="start" x="997" y="-537.1" font-family="Arial" font-size="8.00" fill="#64748b">failure outcome</text>
<text text-anchor="start" x="997" y="-519.5" font-family="Arial" font-weight="bold" font-size="10.00">result</text>
<text text-anchor="start" x="997" y="-508.5" font-family="Arial" font-size="10.00">result</text>
<text text-anchor="start" x="1022" y="-508.5" font-family="Arial" font-size="8.00" fill="#94a3b8">  Problem</text>
<polygon fill="none" stroke="#dc2626" points="991.5,-500 991.5,-571 1098.5,-571 1098.5,-500 991.5,-500"/>
</g>
<!-- application_action_policy_authorization_policy_project_member&#45;&gt;action_outcome_application_action_project_submit_access_denied -->
<g id="edge3" class="edge">
<title>application_action_policy_authorization_policy_project_member&#45;&gt;action_outcome_application_action_project_submit_access_denied</title>
<path fill="none" stroke="#3f3f46" d="M424.12,-430.93C584.37,-457.96 860.79,-504.59 982.94,-525.2"/>
<polygon fill="#3f3f46" stroke="#3f3f46" points="982.76,-528.01 991.11,-526.58 983.69,-522.49 982.76,-528.01"/>
<text text-anchor="middle" x="716" y="-508.5" font-family="Arial" font-size="10.00">access_denied_as</text>
</g>
<!-- action_outcome_application_action_project_submit_authentication_required -->
<g id="node5" class="node">
<title>action_outcome_application_action_project_submit_authentication_required</title>
<polygon fill="#ffffff" stroke="transparent" points="963,-375 963,-446 1127,-446 1127,-375 963,-375"/>
<polygon fill="#dc2626" stroke="transparent" points="964,-436.5 964,-444.5 1126,-444.5 1126,-436.5 964,-436.5"/>
<polygon fill="#fef2f2" stroke="transparent" points="964,-405.5 964,-436.5 1126,-436.5 1126,-405.5 964,-405.5"/>
<text text-anchor="start" x="968" y="-423.1" font-family="Arial" font-weight="bold" font-size="13.00">authentication_required</text>
<text text-anchor="start" x="968" y="-412.1" font-family="Arial" font-size="8.00" fill="#64748b">failure outcome</text>
<text text-anchor="start" x="968" y="-394.5" font-family="Arial" font-weight="bold" font-size="10.00">result</text>
<text text-anchor="start" x="968" y="-383.5" font-family="Arial" font-size="10.00">result</text>
<text text-anchor="start" x="993" y="-383.5" font-family="Arial" font-size="8.00" fill="#94a3b8">  Problem</text>
<polygon fill="none" stroke="#dc2626" points="963,-375 963,-446 1127,-446 1127,-375 963,-375"/>
</g>
<!-- application_action_policy_authorization_policy_project_member&#45;&gt;action_outcome_application_action_project_submit_authentication_required -->
<g id="edge4" class="edge">
<title>application_action_policy_authorization_policy_project_member&#45;&gt;action_outcome_application_action_project_submit_authentication_required</title>
<path fill="none" stroke="#3f3f46" d="M424.12,-410.5C573.03,-410.5 822.27,-410.5 954.8,-410.5"/>
<polygon fill="#3f3f46" stroke="#3f3f46" points="954.97,-413.3 962.97,-410.5 954.97,-407.7 954.97,-413.3"/>
<text text-anchor="middle" x="716" y="-413.5" font-family="Arial" font-size="10.00">authentication_required_as</text>
</g>
<!-- action_outcome_application_action_project_submit_not_found -->
<g id="node6" class="node">
<title>action_outcome_application_action_project_submit_not_found</title>
<polygon fill="#ffffff" stroke="transparent" points="1006.5,-250 1006.5,-321 1083.5,-321 1083.5,-250 1006.5,-250"/>
<polygon fill="#dc2626" stroke="transparent" points="1008,-311.5 1008,-319.5 1083,-319.5 1083,-311.5 1008,-311.5"/>
<polygon fill="#fef2f2" stroke="transparent" points="1008,-280.5 1008,-311.5 1083,-311.5 1083,-280.5 1008,-280.5"/>
<text text-anchor="start" x="1012" y="-298.1" font-family="Arial" font-weight="bold" font-size="13.00">not_found</text>
<text text-anchor="start" x="1012" y="-287.1" font-family="Arial" font-size="8.00" fill="#64748b">failure outcome</text>
<text text-anchor="start" x="1012" y="-269.5" font-family="Arial" font-weight="bold" font-size="10.00">result</text>
<text text-anchor="start" x="1012" y="-258.5" font-family="Arial" font-size="10.00">result</text>
<text text-anchor="start" x="1037" y="-258.5" font-family="Arial" font-size="8.00" fill="#94a3b8">  Problem</text>
<polygon fill="none" stroke="#dc2626" points="1006.5,-250 1006.5,-321 1083.5,-321 1083.5,-250 1006.5,-250"/>
</g>
<!-- application_action_resource_application_action_project_submit_lifecycle_transition_entity_type_project_status&#45;&gt;action_outcome_application_action_project_submit_not_found -->
<g id="edge5" class="edge">
<title>application_action_resource_application_action_project_submit_lifecycle_transition_entity_type_project_status&#45;&gt;action_outcome_application_action_project_submit_not_found</title>
<path fill="none" stroke="#3f3f46" d="M857.1,-238.06C907.7,-250.91 961.36,-264.52 998.14,-273.86"/>
<polygon fill="#3f3f46" stroke="#3f3f46" points="997.74,-276.65 1006.19,-275.9 999.12,-271.22 997.74,-276.65"/>
<text text-anchor="middle" x="913.5" y="-259.5" font-family="Arial" font-size="10.00">failure</text>
</g>
<!-- action_outcome_application_action_project_submit_submitted -->
<g id="node7" class="node">
<title>action_outcome_application_action_project_submit_submitted</title>
<polygon fill="#ffffff" stroke="transparent" points="1008,-125 1008,-196 1082,-196 1082,-125 1008,-125"/>
<polygon fill="#16a34a" stroke="transparent" points="1009,-186.5 1009,-194.5 1081,-194.5 1081,-186.5 1009,-186.5"/>
<polygon fill="#f0fdf4" stroke="transparent" points="1009,-155.5 1009,-186.5 1081,-186.5 1081,-155.5 1009,-155.5"/>
<text text-anchor="start" x="1013" y="-173.1" font-family="Arial" font-weight="bold" font-size="13.00">submitted</text>
<text text-anchor="start" x="1013" y="-162.1" font-family="Arial" font-size="8.00" fill="#64748b">success outcome</text>
<text text-anchor="start" x="1013" y="-144.5" font-family="Arial" font-weight="bold" font-size="10.00">result</text>
<text text-anchor="start" x="1013" y="-133.5" font-family="Arial" font-size="10.00">result</text>
<text text-anchor="start" x="1038" y="-133.5" font-family="Arial" font-size="8.00" fill="#94a3b8">  Project</text>
<polygon fill="none" stroke="#16a34a" points="1008,-125 1008,-196 1082,-196 1082,-125 1008,-125"/>
</g>
<!-- application_action_resource_application_action_project_submit_lifecycle_transition_entity_type_project_status&#45;&gt;action_outcome_application_action_project_submit_submitted -->
<g id="edge6" class="edge">
<title>application_action_resource_application_action_project_submit_lifecycle_transition_entity_type_project_status&#45;&gt;action_outcome_application_action_project_submit_submitted</title>
<path fill="none" stroke="#3f3f46" d="M864.24,-183.59C913.36,-177.28 964.46,-170.72 999.56,-166.21"/>
<polygon fill="#3f3f46" stroke="#3f3f46" points="1000.11,-168.96 1007.69,-165.16 999.4,-163.41 1000.11,-168.96"/>
<text text-anchor="middle" x="913.5" y="-182.5" font-family="Arial" font-size="10.00">success</text>
</g>
<!-- action_outcome_application_action_project_submit_transition_not_allowed -->
<g id="node8" class="node">
<title>action_outcome_application_action_project_submit_transition_not_allowed</title>
<polygon fill="#ffffff" stroke="transparent" points="966.5,0 966.5,-71 1123.5,-71 1123.5,0 966.5,0"/>
<polygon fill="#dc2626" stroke="transparent" points="968,-61.5 968,-69.5 1123,-69.5 1123,-61.5 968,-61.5"/>
<polygon fill="#fef2f2" stroke="transparent" points="968,-30.5 968,-61.5 1123,-61.5 1123,-30.5 968,-30.5"/>
<text text-anchor="start" x="972" y="-48.1" font-family="Arial" font-weight="bold" font-size="13.00">transition_not_allowed</text>
<text text-anchor="start" x="972" y="-37.1" font-family="Arial" font-size="8.00" fill="#64748b">failure outcome</text>
<text text-anchor="start" x="972" y="-19.5" font-family="Arial" font-weight="bold" font-size="10.00">result</text>
<text text-anchor="start" x="972" y="-8.5" font-family="Arial" font-size="10.00">result</text>
<text text-anchor="start" x="997" y="-8.5" font-family="Arial" font-size="8.00" fill="#94a3b8">  Problem</text>
<polygon fill="none" stroke="#dc2626" points="966.5,0 966.5,-71 1123.5,-71 1123.5,0 966.5,0"/>
</g>
<!-- application_action_resource_application_action_project_submit_lifecycle_transition_entity_type_project_status&#45;&gt;action_outcome_application_action_project_submit_transition_not_allowed -->
<g id="edge8" class="edge">
<title>application_action_resource_application_action_project_submit_lifecycle_transition_entity_type_project_status&#45;&gt;action_outcome_application_action_project_submit_transition_not_allowed</title>
<path fill="none" stroke="#3f3f46" d="M786.75,-166.88C839.7,-139.83 912.48,-102.67 967.11,-74.77"/>
<polygon fill="#3f3f46" stroke="#3f3f46" points="968.51,-77.2 974.36,-71.07 965.96,-72.21 968.51,-77.2"/>
<text text-anchor="middle" x="913.5" y="-112.5" font-family="Arial" font-size="10.00">failure</text>
</g>
<!-- action_outcome_application_action_project_submit_access_denied&#45;&gt;action_outcome_application_action_project_submit_authentication_required -->
<!-- action_outcome_application_action_project_submit_authentication_required&#45;&gt;action_outcome_application_action_project_submit_not_found -->
<!-- action_outcome_application_action_project_submit_not_found&#45;&gt;action_outcome_application_action_project_submit_submitted -->
<!-- action_outcome_application_action_project_submit_submitted&#45;&gt;action_outcome_application_action_project_submit_transition_not_allowed -->
<!-- application_action_event_application_action_project_submit_domain_event_project_submitted -->
<g id="node9" class="node">
<title>application_action_event_application_action_project_submit_domain_event_project_submitted</title>
<polygon fill="#ffffff" stroke="transparent" points="1208,-110 1208,-211 1425,-211 1425,-110 1208,-110"/>
<polygon fill="#4f46e5" stroke="transparent" points="1209.5,-201.5 1209.5,-209.5 1424.5,-209.5 1424.5,-201.5 1209.5,-201.5"/>
<polygon fill="#eef2ff" stroke="transparent" points="1209.5,-170.5 1209.5,-201.5 1424.5,-201.5 1424.5,-170.5 1209.5,-170.5"/>
<text text-anchor="start" x="1213.5" y="-188.1" font-family="Arial" font-weight="bold" font-size="13.00">domain_event.project.submitted</text>
<text text-anchor="start" x="1213.5" y="-177.1" font-family="Arial" font-size="8.00" fill="#64748b">emitted event</text>
<text text-anchor="start" x="1213.5" y="-159.5" font-family="Arial" font-style="italic" font-size="10.00" fill="#3f3f46">Draft dispatch projects can be submitted for</text>
<text text-anchor="start" x="1213.5" y="-148.5" font-family="Arial" font-style="italic" font-size="10.00" fill="#3f3f46">review.</text>
<text text-anchor="start" x="1213.5" y="-129.5" font-family="Arial" font-weight="bold" font-size="10.00">payload</text>
<text text-anchor="start" x="1213.5" y="-118.5" font-family="Arial" font-size="10.00">payload</text>
<text text-anchor="start" x="1247.5" y="-118.5" font-family="Arial" font-size="8.00" fill="#94a3b8">  Project</text>
<polygon fill="none" stroke="#4f46e5" points="1208,-110 1208,-211 1425,-211 1425,-110 1208,-110"/>
</g>
<!-- action_outcome_application_action_project_submit_submitted&#45;&gt;application_action_event_application_action_project_submit_domain_event_project_submitted -->
<g id="edge7" class="edge">
<title>action_outcome_application_action_project_submit_submitted&#45;&gt;application_action_event_application_action_project_submit_domain_event_project_submitted</title>
<path fill="none" stroke="#3f3f46" stroke-width="1.2" d="M1082.07,-160.5C1112.32,-160.5 1157.26,-160.5 1199.65,-160.5"/>
<polygon fill="#3f3f46" stroke="#3f3f46" stroke-width="1.2" points="1199.81,-163.3 1207.81,-160.5 1199.81,-157.7 1199.81,-163.3"/>
<text text-anchor="middle" x="1167.5" y="-163.5" font-family="Arial" font-size="10.00">emit</text>
</g>
</g>
</svg>
