<svg width="766pt" height="221pt"
 viewBox="0.00 0.00 766.00 221.00" xmlns="http://www.w3.org/2000/svg" xmlns:xlink="http://www.w3.org/1999/xlink">
<!-- pyspec-contract-input-sha256: e20504e8bd0c08410825f4c5330964c6ceeda4d5053fc2b543654cd720e38fb0 -->
<g id="graph0" class="graph" transform="scale(1 1) rotate(0) translate(18 203)">
<title>entrypoint_entry_point_worker_project_approval_notice</title>
<!-- entrypoint_entry_point_worker_project_approval_notice -->
<g id="node1" class="node">
<title>entrypoint_entry_point_worker_project_approval_notice</title>
<polygon fill="#ffffff" stroke="transparent" points="0,-46 0,-150 224,-150 224,-46 0,-46"/>
<polygon fill="#0891b2" stroke="transparent" points="1,-141 1,-149 223,-149 223,-141 1,-141"/>
<polygon fill="#ecfeff" stroke="transparent" points="1,-110 1,-141 223,-141 223,-110 1,-110"/>
<text text-anchor="start" x="5" y="-127.6" font-family="Arial" font-weight="bold" font-size="13.00">workflow.project.approval_notice</text>
<text text-anchor="start" x="5" y="-116.6" font-family="Arial" font-size="8.00" fill="#64748b">worker entry point</text>
<text text-anchor="start" x="5" y="-99" font-family="Arial" font-style="italic" font-size="10.00" fill="#3f3f46">Worker entry exposing the approval notice</text>
<text text-anchor="start" x="5" y="-88" font-family="Arial" font-style="italic" font-size="10.00" fill="#3f3f46">workflow.</text>
<text text-anchor="start" x="6" y="-68" font-family="Arial" font-weight="bold" font-size="10.00">workflow:</text>
<text text-anchor="start" x="52" y="-68" font-family="Arial" font-size="10.00">  workflow.project.approval_notice</text>
<text text-anchor="start" x="6" y="-56" font-family="Arial" font-weight="bold" font-size="10.00">payload:</text>
<text text-anchor="start" x="46" y="-56" font-family="Arial" font-size="10.00">  payload</text>
<text text-anchor="start" x="86" y="-56" font-family="Arial" font-size="8.00" fill="#94a3b8">  schema.project.approved</text>
<polygon fill="none" stroke="#0891b2" points="0,-46 0,-150 224,-150 224,-46 0,-46"/>
</g>
<!-- entrypoint_target_workflow_project_approval_notice -->
<g id="node2" class="node">
<title>entrypoint_target_workflow_project_approval_notice</title>
<polygon fill="#ffffff" stroke="transparent" points="285,-11 285,-185 537,-185 537,-11 285,-11"/>
<polygon fill="#a16207" stroke="transparent" points="286,-176 286,-184 536,-184 536,-176 286,-176"/>
<polygon fill="#fefce8" stroke="transparent" points="286,-145 286,-176 536,-176 536,-145 286,-145"/>
<text text-anchor="start" x="290" y="-162.6" font-family="Arial" font-weight="bold" font-size="13.00">workflow.project.approval_notice</text>
<text text-anchor="start" x="290" y="-151.6" font-family="Arial" font-size="8.00" fill="#64748b">target workflow</text>
<text text-anchor="start" x="290" y="-134" font-family="Arial" font-style="italic" font-size="10.00" fill="#3f3f46">Approval domain event sends a downstream notice.</text>
<text text-anchor="start" x="291" y="-114" font-family="Arial" font-weight="bold" font-size="10.00">trigger:</text>
<text text-anchor="start" x="325" y="-114" font-family="Arial" font-size="10.00">  domain_event domain_event.project.approved</text>
<text text-anchor="start" x="290" y="-94" font-family="Arial" font-weight="bold" font-size="10.00">steps:</text>
<text text-anchor="start" x="318" y="-94" font-family="Arial" font-size="10.00">  send_notice →</text>
<text text-anchor="start" x="290" y="-82" font-family="Arial" font-size="10.00">  application_action.project.send_approval_notice</text>
<text text-anchor="start" x="290" y="-64" font-family="Arial" font-weight="bold" font-size="10.00">outcomes</text>
<text text-anchor="start" x="290" y="-53" font-family="Arial" font-size="10.00">completed</text>
<text text-anchor="start" x="336" y="-53" font-family="Arial" font-size="8.00" fill="#94a3b8">  schema.project.notice_result</text>
<text text-anchor="start" x="442" y="-53" font-family="Arial" font-size="8.00"> ← success</text>
<text text-anchor="start" x="290" y="-42" font-family="Arial" font-size="10.00">delivery_failed</text>
<text text-anchor="start" x="353" y="-42" font-family="Arial" font-size="8.00" fill="#94a3b8">  Problem</text>
<text text-anchor="start" x="388" y="-42" font-family="Arial" font-size="8.00"> ← failure</text>
<text text-anchor="start" x="290" y="-31" font-family="Arial" font-size="10.00">notice_access_denied</text>
<text text-anchor="start" x="387" y="-31" font-family="Arial" font-size="8.00" fill="#94a3b8">  Problem</text>
<text text-anchor="start" x="422" y="-31" font-family="Arial" font-size="8.00"> ← failure</text>
<text text-anchor="start" x="290" y="-20" font-family="Arial" font-size="10.00">notice_authentication_required</text>
<text text-anchor="start" x="423" y="-20" font-family="Arial" font-size="8.00" fill="#94a3b8">  Problem</text>
<text text-anchor="start" x="458" y="-20" font-family="Arial" font-size="8.00"> ← failure</text>
<polygon fill="none" stroke="#a16207" points="285,-11 285,-185 537,-185 537,-11 285,-11"/>
</g>
<!-- entrypoint_entry_point_worker_project_approval_notice&#45;&gt;entrypoint_target_workflow_project_approval_notice -->
<g id="edge1" class="edge">
<title>entrypoint_entry_point_worker_project_approval_notice&#45;&gt;entrypoint_target_workflow_project_approval_notice</title>
<path fill="none" stroke="#3f3f46" d="M224.01,-98C241.23,-98 259.17,-98 276.81,-98"/>
<polygon fill="#3f3f46" stroke="#3f3f46" points="276.9,-100.8 284.9,-98 276.9,-95.2 276.9,-100.8"/>
</g>
<!-- entrypoint_response_entry_point_worker_project_approval_notice_accepted -->
<g id="node3" class="node">
<title>entrypoint_response_entry_point_worker_project_approval_notice_accepted</title>
<polygon fill="#ffffff" stroke="transparent" points="598,-119 598,-181 730,-181 730,-119 598,-119"/>
<polygon fill="#16a34a" stroke="transparent" points="599,-172 599,-180 729,-180 729,-172 599,-172"/>
<polygon fill="#f0fdf4" stroke="transparent" points="599,-141 599,-172 729,-172 729,-141 599,-141"/>
<text text-anchor="start" x="603" y="-158.6" font-family="Arial" font-weight="bold" font-size="13.00">accepted</text>
<text text-anchor="start" x="603" y="-147.6" font-family="Arial" font-size="8.00" fill="#64748b">success disposition</text>
<text text-anchor="start" x="604" y="-129" font-family="Arial" font-weight="bold" font-size="10.00">disposition:</text>
<text text-anchor="start" x="660" y="-129" font-family="Arial" font-size="10.00">  acknowledge</text>
<polygon fill="none" stroke="#16a34a" points="598,-119 598,-181 730,-181 730,-119 598,-119"/>
</g>
<!-- entrypoint_target_workflow_project_approval_notice&#45;&gt;entrypoint_response_entry_point_worker_project_approval_notice_accepted -->
<g id="edge2" class="edge">
<title>entrypoint_target_workflow_project_approval_notice&#45;&gt;entrypoint_response_entry_point_worker_project_approval_notice_accepted</title>
<path fill="none" stroke="#3f3f46" d="M537.13,-123.92C555.18,-127.66 573.23,-131.4 589.81,-134.84"/>
<polygon fill="#3f3f46" stroke="#3f3f46" points="589.42,-137.61 597.82,-136.5 590.55,-132.13 589.42,-137.61"/>
</g>
<!-- entrypoint_response_entry_point_worker_project_approval_notice_malformed -->
<g id="node4" class="node">
<title>entrypoint_response_entry_point_worker_project_approval_notice_malformed</title>
<polygon fill="#ffffff" stroke="transparent" points="602.5,0 602.5,-92 725.5,-92 725.5,0 602.5,0"/>
<polygon fill="#dc2626" stroke="transparent" points="604,-83 604,-91 725,-91 725,-83 604,-83"/>
<polygon fill="#fef2f2" stroke="transparent" points="604,-52 604,-83 725,-83 725,-52 604,-52"/>
<text text-anchor="start" x="608" y="-69.6" font-family="Arial" font-weight="bold" font-size="13.00">malformed</text>
<text text-anchor="start" x="608" y="-58.6" font-family="Arial" font-size="8.00" fill="#64748b">failure disposition</text>
<text text-anchor="start" x="609" y="-40" font-family="Arial" font-weight="bold" font-size="10.00">disposition:</text>
<text text-anchor="start" x="665" y="-40" font-family="Arial" font-size="10.00">  dead_letter</text>
<text text-anchor="start" x="608" y="-20" font-family="Arial" font-weight="bold" font-size="10.00">problem</text>
<text text-anchor="start" x="608" y="-9" font-family="Arial" font-size="10.00">problem</text>
<text text-anchor="start" x="643" y="-9" font-family="Arial" font-size="8.00" fill="#94a3b8">  Problem</text>
<polygon fill="none" stroke="#dc2626" points="602.5,0 602.5,-92 725.5,-92 725.5,0 602.5,0"/>
</g>
<!-- entrypoint_target_workflow_project_approval_notice&#45;&gt;entrypoint_response_entry_point_worker_project_approval_notice_malformed -->
<g id="edge3" class="edge">
<title>entrypoint_target_workflow_project_approval_notice&#45;&gt;entrypoint_response_entry_point_worker_project_approval_notice_malformed</title>
<path fill="none" stroke="#3f3f46" d="M537.13,-72.08C556.83,-67.99 576.55,-63.91 594.33,-60.23"/>
<polygon fill="#3f3f46" stroke="#3f3f46" points="595.09,-62.93 602.36,-58.56 593.95,-57.44 595.09,-62.93"/>
</g>
<!-- entrypoint_response_entry_point_worker_project_approval_notice_accepted&#45;&gt;entrypoint_response_entry_point_worker_project_approval_notice_malformed -->
</g>
</svg>
