<svg width="839pt" height="189pt"
 viewBox="0.00 0.00 839.00 189.00" xmlns="http://www.w3.org/2000/svg" xmlns:xlink="http://www.w3.org/1999/xlink">
<g id="graph0" class="graph" transform="scale(1 1) rotate(0) translate(18 171)">
<title>entrypoint_api_project_create</title>
<!-- entry_start -->
<g id="node1" class="node">
<title>entry_start</title>
<ellipse fill="none" stroke="#0891b2" cx="21" cy="-76.5" rx="21" ry="21"/>
<text text-anchor="middle" x="21" y="-74.3" font-family="Arial" font-size="9.00" fill="#155e75">entry</text>
</g>
<!-- entrypoint_api_project_create -->
<g id="node2" class="node">
<title>entrypoint_api_project_create</title>
<polygon fill="#ffffff" stroke="transparent" points="103,-36 103,-117 393,-117 393,-36 103,-36"/>
<polygon fill="#0891b2" stroke="transparent" points="104,-107.5 104,-115.5 392,-115.5 392,-107.5 104,-107.5"/>
<polygon fill="#ecfeff" stroke="transparent" points="104,-76.5 104,-107.5 392,-107.5 392,-76.5 104,-76.5"/>
<text text-anchor="start" x="108" y="-94.1" font-family="Arial" font-weight="bold" font-size="13.00">POST /workspaces/{workspace_id}/projects</text>
<text text-anchor="start" x="108" y="-83.1" font-family="Arial" font-size="8.00" fill="#64748b">api entry</text>
<text text-anchor="start" x="108" y="-65.5" font-family="Arial" font-style="italic" font-size="10.00" fill="#3f3f46">HTTP endpoint for creating a dispatch project.</text>
<text text-anchor="start" x="109" y="-45.5" font-family="Arial" font-weight="bold" font-size="10.00">endpoint:</text>
<text text-anchor="start" x="154" y="-45.5" font-family="Arial" font-size="10.00">  endpoint.project.create</text>
<polygon fill="none" stroke="#0891b2" points="103,-36 103,-117 393,-117 393,-36 103,-36"/>
</g>
<!-- entry_start&#45;&gt;entrypoint_api_project_create -->
<g id="edge1" class="edge">
<title>entry_start&#45;&gt;entrypoint_api_project_create</title>
<path fill="none" stroke="#3f3f46" d="M42.36,-76.5C55.6,-76.5 74.2,-76.5 94.84,-76.5"/>
<polygon fill="#3f3f46" stroke="#3f3f46" points="94.85,-79.3 102.85,-76.5 94.85,-73.7 94.85,-79.3"/>
</g>
<!-- entrypoint_input_api_project_create -->
<g id="node3" class="node">
<title>entrypoint_input_api_project_create</title>
<polygon fill="#ffffff" stroke="transparent" points="454,-15 454,-138 538,-138 538,-15 454,-15"/>
<polygon fill="#64748b" stroke="transparent" points="455,-128.5 455,-136.5 537,-136.5 537,-128.5 455,-128.5"/>
<polygon fill="#f8fafc" stroke="transparent" points="455,-97.5 455,-128.5 537,-128.5 537,-97.5 455,-97.5"/>
<text text-anchor="start" x="459" y="-115.1" font-family="Arial" font-weight="bold" font-size="13.00">entry input</text>
<text text-anchor="start" x="459" y="-104.1" font-family="Arial" font-size="8.00" fill="#64748b">external data</text>
<text text-anchor="start" x="459" y="-86.5" font-family="Arial" font-weight="bold" font-size="10.00">params</text>
<text text-anchor="start" x="459" y="-75.5" font-family="Arial" font-size="10.00">workspace_id</text>
<text text-anchor="start" x="520" y="-75.5" font-family="Arial" font-size="8.00" fill="#94a3b8">  ID</text>
<text text-anchor="start" x="459" y="-56.5" font-family="Arial" font-weight="bold" font-size="10.00">body</text>
<text text-anchor="start" x="459" y="-45.5" font-family="Arial" font-size="10.00">customer</text>
<text text-anchor="start" x="500" y="-45.5" font-family="Arial" font-size="8.00" fill="#94a3b8">  Text</text>
<text text-anchor="start" x="459" y="-34.5" font-family="Arial" font-size="10.00">priority</text>
<text text-anchor="start" x="489" y="-34.5" font-family="Arial" font-size="8.00" fill="#94a3b8">  Text</text>
<text text-anchor="start" x="459" y="-23.5" font-family="Arial" font-size="10.00">title</text>
<text text-anchor="start" x="475" y="-23.5" font-family="Arial" font-size="8.00" fill="#94a3b8">  Text</text>
<polygon fill="none" stroke="#64748b" points="454,-15 454,-138 538,-138 538,-15 454,-15"/>
</g>
<!-- entrypoint_api_project_create&#45;&gt;entrypoint_input_api_project_create -->
<g id="edge2" class="edge">
<title>entrypoint_api_project_create&#45;&gt;entrypoint_input_api_project_create</title>
<path fill="none" stroke="#3f3f46" d="M393.17,-76.5C411.92,-76.5 430,-76.5 445.59,-76.5"/>
<polygon fill="#3f3f46" stroke="#3f3f46" points="445.98,-79.3 453.98,-76.5 445.98,-73.7 445.98,-79.3"/>
</g>
<!-- entrypoint_target_project_create -->
<g id="node4" class="node">
<title>entrypoint_target_project_create</title>
<polygon fill="#ffffff" stroke="transparent" points="599,0 599,-153 803,-153 803,0 599,0"/>
<polygon fill="#2563eb" stroke="transparent" points="600,-143.5 600,-151.5 802,-151.5 802,-143.5 600,-143.5"/>
<polygon fill="#eff6ff" stroke="transparent" points="600,-112.5 600,-143.5 802,-143.5 802,-112.5 600,-112.5"/>
<text text-anchor="start" x="604" y="-130.1" font-family="Arial" font-weight="bold" font-size="13.00">project.create</text>
<text text-anchor="start" x="604" y="-119.1" font-family="Arial" font-size="8.00" fill="#64748b">target capability</text>
<text text-anchor="start" x="604" y="-101.5" font-family="Arial" font-style="italic" font-size="10.00" fill="#3f3f46">Members can create a new dispatch project.</text>
<text text-anchor="start" x="605" y="-81.5" font-family="Arial" font-weight="bold" font-size="10.00">resource:</text>
<text text-anchor="start" x="649" y="-81.5" font-family="Arial" font-size="10.00">  Project</text>
<text text-anchor="start" x="605" y="-69.5" font-family="Arial" font-weight="bold" font-size="10.00">input:</text>
<text text-anchor="start" x="633" y="-69.5" font-family="Arial" font-size="10.00">  customer</text>
<text text-anchor="start" x="680" y="-69.5" font-family="Arial" font-size="8.00" fill="#94a3b8">  Text</text>
<text text-anchor="start" x="605" y="-57.5" font-family="Arial" font-size="10.00">  priority</text>
<text text-anchor="start" x="641" y="-57.5" font-family="Arial" font-size="8.00" fill="#94a3b8">  Text</text>
<text text-anchor="start" x="605" y="-45.5" font-family="Arial" font-size="10.00">  title</text>
<text text-anchor="start" x="627" y="-45.5" font-family="Arial" font-size="8.00" fill="#94a3b8">  Text</text>
<text text-anchor="start" x="605" y="-33.5" font-family="Arial" font-size="10.00">  workspace_id</text>
<text text-anchor="start" x="672" y="-33.5" font-family="Arial" font-size="8.00" fill="#94a3b8">  ID</text>
<text text-anchor="start" x="605" y="-21.5" font-family="Arial" font-weight="bold" font-size="10.00">output:</text>
<text text-anchor="start" x="639" y="-21.5" font-family="Arial" font-size="10.00">  result</text>
<text text-anchor="start" x="670" y="-21.5" font-family="Arial" font-size="8.00" fill="#94a3b8">  Project</text>
<text text-anchor="start" x="605" y="-9.5" font-family="Arial" font-weight="bold" font-size="10.00">emits:</text>
<text text-anchor="start" x="634" y="-9.5" font-family="Arial" font-size="10.00">  project.created</text>
<polygon fill="none" stroke="#2563eb" points="599,0 599,-153 803,-153 803,0 599,0"/>
</g>
<!-- entrypoint_input_api_project_create&#45;&gt;entrypoint_target_project_create -->
<g id="edge3" class="edge">
<title>entrypoint_input_api_project_create&#45;&gt;entrypoint_target_project_create</title>
<path fill="none" stroke="#3f3f46" d="M538.08,-76.5C553.59,-76.5 572.06,-76.5 590.88,-76.5"/>
<polygon fill="#3f3f46" stroke="#3f3f46" points="590.96,-79.3 598.96,-76.5 590.96,-73.7 590.96,-79.3"/>
</g>
</g>
</svg>
