<svg width="1140pt" height="177pt"
 viewBox="0.00 0.00 1140.00 177.00" xmlns="http://www.w3.org/2000/svg" xmlns:xlink="http://www.w3.org/1999/xlink">
<g id="graph0" class="graph" transform="scale(1 1) rotate(0) translate(18 159)">
<title>entrypoint_api_project_create</title>
<!-- entry_start -->
<g id="node1" class="node">
<title>entry_start</title>
<ellipse fill="none" stroke="#0891b2" cx="21" cy="-70.5" rx="21" ry="21"/>
<text text-anchor="middle" x="21" y="-68.3" font-family="Arial" font-size="9.00" fill="#155e75">entry</text>
</g>
<!-- entrypoint_api_project_create -->
<g id="node2" class="node">
<title>entrypoint_api_project_create</title>
<polygon fill="#ffffff" stroke="transparent" points="103,-30 103,-111 393,-111 393,-30 103,-30"/>
<polygon fill="#0891b2" stroke="transparent" points="104,-101.5 104,-109.5 392,-109.5 392,-101.5 104,-101.5"/>
<polygon fill="#ecfeff" stroke="transparent" points="104,-70.5 104,-101.5 392,-101.5 392,-70.5 104,-70.5"/>
<text text-anchor="start" x="108" y="-88.1" font-family="Arial" font-weight="bold" font-size="13.00">POST /workspaces/{workspace_id}/projects</text>
<text text-anchor="start" x="108" y="-77.1" font-family="Arial" font-size="8.00" fill="#64748b">api entry</text>
<text text-anchor="start" x="108" y="-59.5" font-family="Arial" font-style="italic" font-size="10.00" fill="#3f3f46">HTTP endpoint for creating a dispatch project.</text>
<text text-anchor="start" x="109" y="-39.5" font-family="Arial" font-weight="bold" font-size="10.00">endpoint:</text>
<text text-anchor="start" x="154" y="-39.5" font-family="Arial" font-size="10.00">  endpoint.project.create</text>
<polygon fill="none" stroke="#0891b2" points="103,-30 103,-111 393,-111 393,-30 103,-30"/>
</g>
<!-- entry_start&#45;&gt;entrypoint_api_project_create -->
<g id="edge1" class="edge">
<title>entry_start&#45;&gt;entrypoint_api_project_create</title>
<path fill="none" stroke="#3f3f46" d="M42.36,-70.5C55.6,-70.5 74.2,-70.5 94.84,-70.5"/>
<polygon fill="#3f3f46" stroke="#3f3f46" points="94.85,-73.3 102.85,-70.5 94.85,-67.7 94.85,-73.3"/>
</g>
<!-- entrypoint_input_api_project_create -->
<g id="node3" class="node">
<title>entrypoint_input_api_project_create</title>
<polygon fill="#ffffff" stroke="transparent" points="454,-9 454,-132 538,-132 538,-9 454,-9"/>
<polygon fill="#64748b" stroke="transparent" points="455,-122.5 455,-130.5 537,-130.5 537,-122.5 455,-122.5"/>
<polygon fill="#f8fafc" stroke="transparent" points="455,-91.5 455,-122.5 537,-122.5 537,-91.5 455,-91.5"/>
<text text-anchor="start" x="459" y="-109.1" font-family="Arial" font-weight="bold" font-size="13.00">entry input</text>
<text text-anchor="start" x="459" y="-98.1" font-family="Arial" font-size="8.00" fill="#64748b">external data</text>
<text text-anchor="start" x="459" y="-80.5" font-family="Arial" font-weight="bold" font-size="10.00">params</text>
<text text-anchor="start" x="459" y="-69.5" font-family="Arial" font-size="10.00">workspace_id</text>
<text text-anchor="start" x="520" y="-69.5" font-family="Arial" font-size="8.00" fill="#94a3b8">  ID</text>
<text text-anchor="start" x="459" y="-50.5" font-family="Arial" font-weight="bold" font-size="10.00">body</text>
<text text-anchor="start" x="459" y="-39.5" font-family="Arial" font-size="10.00">customer</text>
<text text-anchor="start" x="500" y="-39.5" font-family="Arial" font-size="8.00" fill="#94a3b8">  Text</text>
<text text-anchor="start" x="459" y="-28.5" font-family="Arial" font-size="10.00">priority</text>
<text text-anchor="start" x="489" y="-28.5" font-family="Arial" font-size="8.00" fill="#94a3b8">  Text</text>
<text text-anchor="start" x="459" y="-17.5" font-family="Arial" font-size="10.00">title</text>
<text text-anchor="start" x="475" y="-17.5" font-family="Arial" font-size="8.00" fill="#94a3b8">  Text</text>
<polygon fill="none" stroke="#64748b" points="454,-9 454,-132 538,-132 538,-9 454,-9"/>
</g>
<!-- entrypoint_api_project_create&#45;&gt;entrypoint_input_api_project_create -->
<g id="edge2" class="edge">
<title>entrypoint_api_project_create&#45;&gt;entrypoint_input_api_project_create</title>
<path fill="none" stroke="#3f3f46" d="M393.17,-70.5C411.92,-70.5 430,-70.5 445.59,-70.5"/>
<polygon fill="#3f3f46" stroke="#3f3f46" points="445.98,-73.3 453.98,-70.5 445.98,-67.7 445.98,-73.3"/>
</g>
<!-- entrypoint_target_project_create -->
<g id="node4" class="node">
<title>entrypoint_target_project_create</title>
<polygon fill="#ffffff" stroke="transparent" points="599,0 599,-141 803,-141 803,0 599,0"/>
<polygon fill="#2563eb" stroke="transparent" points="600,-131.5 600,-139.5 802,-139.5 802,-131.5 600,-131.5"/>
<polygon fill="#eff6ff" stroke="transparent" points="600,-100.5 600,-131.5 802,-131.5 802,-100.5 600,-100.5"/>
<text text-anchor="start" x="604" y="-118.1" font-family="Arial" font-weight="bold" font-size="13.00">project.create</text>
<text text-anchor="start" x="604" y="-107.1" font-family="Arial" font-size="8.00" fill="#64748b">target capability</text>
<text text-anchor="start" x="604" y="-89.5" font-family="Arial" font-style="italic" font-size="10.00" fill="#3f3f46">Members can create a new dispatch project.</text>
<text text-anchor="start" x="605" y="-69.5" font-family="Arial" font-weight="bold" font-size="10.00">resource:</text>
<text text-anchor="start" x="649" y="-69.5" font-family="Arial" font-size="10.00">  Project</text>
<text text-anchor="start" x="605" y="-57.5" font-family="Arial" font-weight="bold" font-size="10.00">input:</text>
<text text-anchor="start" x="633" y="-57.5" font-family="Arial" font-size="10.00">  customer</text>
<text text-anchor="start" x="680" y="-57.5" font-family="Arial" font-size="8.00" fill="#94a3b8">  Text</text>
<text text-anchor="start" x="605" y="-45.5" font-family="Arial" font-size="10.00">  priority</text>
<text text-anchor="start" x="641" y="-45.5" font-family="Arial" font-size="8.00" fill="#94a3b8">  Text</text>
<text text-anchor="start" x="605" y="-33.5" font-family="Arial" font-size="10.00">  title</text>
<text text-anchor="start" x="627" y="-33.5" font-family="Arial" font-size="8.00" fill="#94a3b8">  Text</text>
<text text-anchor="start" x="605" y="-21.5" font-family="Arial" font-size="10.00">  workspace_id</text>
<text text-anchor="start" x="672" y="-21.5" font-family="Arial" font-size="8.00" fill="#94a3b8">  ID</text>
<text text-anchor="start" x="605" y="-9.5" font-family="Arial" font-weight="bold" font-size="10.00">emits:</text>
<text text-anchor="start" x="634" y="-9.5" font-family="Arial" font-size="10.00">  project.created</text>
<polygon fill="none" stroke="#2563eb" points="599,0 599,-141 803,-141 803,0 599,0"/>
</g>
<!-- entrypoint_input_api_project_create&#45;&gt;entrypoint_target_project_create -->
<g id="edge3" class="edge">
<title>entrypoint_input_api_project_create&#45;&gt;entrypoint_target_project_create</title>
<path fill="none" stroke="#3f3f46" d="M538.08,-70.5C553.59,-70.5 572.06,-70.5 590.88,-70.5"/>
<polygon fill="#3f3f46" stroke="#3f3f46" points="590.96,-73.3 598.96,-70.5 590.96,-67.7 590.96,-73.3"/>
</g>
<!-- entrypoint_output_api_project_create -->
<g id="node6" class="node">
<title>entrypoint_output_api_project_create</title>
<polygon fill="#ffffff" stroke="transparent" points="864,-24.5 864,-116.5 993,-116.5 993,-24.5 864,-24.5"/>
<polygon fill="#64748b" stroke="transparent" points="865.5,-107.5 865.5,-115.5 992.5,-115.5 992.5,-107.5 865.5,-107.5"/>
<polygon fill="#f8fafc" stroke="transparent" points="865.5,-76.5 865.5,-107.5 992.5,-107.5 992.5,-76.5 865.5,-76.5"/>
<text text-anchor="start" x="869.5" y="-94.1" font-family="Arial" font-weight="bold" font-size="13.00">entry output</text>
<text text-anchor="start" x="869.5" y="-83.1" font-family="Arial" font-size="8.00" fill="#64748b">external result</text>
<text text-anchor="start" x="870.5" y="-64.5" font-family="Arial" font-weight="bold" font-size="10.00">status:</text>
<text text-anchor="start" x="901.5" y="-64.5" font-family="Arial" font-size="10.00">  200</text>
<text text-anchor="start" x="869.5" y="-44.5" font-family="Arial" font-weight="bold" font-size="10.00">body</text>
<text text-anchor="start" x="869.5" y="-33.5" font-family="Arial" font-size="10.00">body</text>
<text text-anchor="start" x="891.5" y="-33.5" font-family="Arial" font-size="8.00" fill="#94a3b8">  Project</text>
<text text-anchor="start" x="921.5" y="-33.5" font-family="Arial" font-size="10.00"> &lt;&#45; target.result</text>
<polygon fill="none" stroke="#64748b" points="864,-24.5 864,-116.5 993,-116.5 993,-24.5 864,-24.5"/>
</g>
<!-- entrypoint_target_project_create&#45;&gt;entrypoint_output_api_project_create -->
<g id="edge4" class="edge">
<title>entrypoint_target_project_create&#45;&gt;entrypoint_output_api_project_create</title>
<path fill="none" stroke="#3f3f46" d="M803.21,-70.5C820.92,-70.5 839.01,-70.5 855.71,-70.5"/>
<polygon fill="#3f3f46" stroke="#3f3f46" points="855.79,-73.3 863.79,-70.5 855.79,-67.7 855.79,-73.3"/>
</g>
<!-- entry_exit -->
<g id="node5" class="node">
<title>entry_exit</title>
<ellipse fill="none" stroke="#0891b2" cx="1079" cy="-70.5" rx="21" ry="21"/>
<ellipse fill="none" stroke="#0891b2" cx="1079" cy="-70.5" rx="25" ry="25"/>
<text text-anchor="middle" x="1079" y="-68.3" font-family="Arial" font-size="9.00" fill="#155e75">exit</text>
</g>
<!-- entrypoint_output_api_project_create&#45;&gt;entry_exit -->
<g id="edge5" class="edge">
<title>entrypoint_output_api_project_create&#45;&gt;entry_exit</title>
<path fill="none" stroke="#3f3f46" d="M993.34,-70.5C1011.38,-70.5 1030.26,-70.5 1045.6,-70.5"/>
<polygon fill="#3f3f46" stroke="#3f3f46" points="1045.73,-73.3 1053.73,-70.5 1045.73,-67.7 1045.73,-73.3"/>
</g>
</g>
</svg>
