<svg width="1129pt" height="213pt"
 viewBox="0.00 0.00 1129.00 213.00" xmlns="http://www.w3.org/2000/svg" xmlns:xlink="http://www.w3.org/1999/xlink">
<!-- pyspec-contract-input-sha256: e6bc308254aab573ee01a19a3ef3efb842b6a1e32742964b1445001c58eba171 -->
<g id="graph0" class="graph" transform="scale(1 1) rotate(0) translate(18 195)">
<title>entrypoint_api_project_create</title>
<!-- entry_start -->
<g id="node1" class="node">
<title>entry_start</title>
<ellipse fill="none" stroke="#0891b2" cx="21" cy="-88.5" rx="21" ry="21"/>
<text text-anchor="middle" x="21" y="-86.3" font-family="Arial" font-size="9.00" fill="#155e75">entry</text>
</g>
<!-- entrypoint_api_project_create -->
<g id="node2" class="node">
<title>entrypoint_api_project_create</title>
<polygon fill="#ffffff" stroke="transparent" points="103,-48 103,-129 393,-129 393,-48 103,-48"/>
<polygon fill="#0891b2" stroke="transparent" points="104,-119.5 104,-127.5 392,-127.5 392,-119.5 104,-119.5"/>
<polygon fill="#ecfeff" stroke="transparent" points="104,-88.5 104,-119.5 392,-119.5 392,-88.5 104,-88.5"/>
<text text-anchor="start" x="108" y="-106.1" font-family="Arial" font-weight="bold" font-size="13.00">POST /workspaces/{workspace_id}/projects</text>
<text text-anchor="start" x="108" y="-95.1" font-family="Arial" font-size="8.00" fill="#64748b">api entry</text>
<text text-anchor="start" x="108" y="-77.5" font-family="Arial" font-style="italic" font-size="10.00" fill="#3f3f46">HTTP endpoint for creating a dispatch project.</text>
<text text-anchor="start" x="109" y="-57.5" font-family="Arial" font-weight="bold" font-size="10.00">endpoint:</text>
<text text-anchor="start" x="154" y="-57.5" font-family="Arial" font-size="10.00">  endpoint.project.create</text>
<polygon fill="none" stroke="#0891b2" points="103,-48 103,-129 393,-129 393,-48 103,-48"/>
</g>
<!-- entry_start&#45;&gt;entrypoint_api_project_create -->
<g id="edge1" class="edge">
<title>entry_start&#45;&gt;entrypoint_api_project_create</title>
<path fill="none" stroke="#3f3f46" d="M42.36,-88.5C55.6,-88.5 74.2,-88.5 94.84,-88.5"/>
<polygon fill="#3f3f46" stroke="#3f3f46" points="94.85,-91.3 102.85,-88.5 94.85,-85.7 94.85,-91.3"/>
</g>
<!-- entrypoint_input_api_project_create -->
<g id="node3" class="node">
<title>entrypoint_input_api_project_create</title>
<polygon fill="#ffffff" stroke="transparent" points="454,-27 454,-150 538,-150 538,-27 454,-27"/>
<polygon fill="#64748b" stroke="transparent" points="455,-140.5 455,-148.5 537,-148.5 537,-140.5 455,-140.5"/>
<polygon fill="#f8fafc" stroke="transparent" points="455,-109.5 455,-140.5 537,-140.5 537,-109.5 455,-109.5"/>
<text text-anchor="start" x="459" y="-127.1" font-family="Arial" font-weight="bold" font-size="13.00">request</text>
<text text-anchor="start" x="459" y="-116.1" font-family="Arial" font-size="8.00" fill="#64748b">external data</text>
<text text-anchor="start" x="459" y="-98.5" font-family="Arial" font-weight="bold" font-size="10.00">params</text>
<text text-anchor="start" x="459" y="-87.5" font-family="Arial" font-size="10.00">workspace_id</text>
<text text-anchor="start" x="520" y="-87.5" font-family="Arial" font-size="8.00" fill="#94a3b8">  ID</text>
<text text-anchor="start" x="459" y="-68.5" font-family="Arial" font-weight="bold" font-size="10.00">body</text>
<text text-anchor="start" x="459" y="-57.5" font-family="Arial" font-size="10.00">customer</text>
<text text-anchor="start" x="500" y="-57.5" font-family="Arial" font-size="8.00" fill="#94a3b8">  Text</text>
<text text-anchor="start" x="459" y="-46.5" font-family="Arial" font-size="10.00">priority</text>
<text text-anchor="start" x="489" y="-46.5" font-family="Arial" font-size="8.00" fill="#94a3b8">  Text</text>
<text text-anchor="start" x="459" y="-35.5" font-family="Arial" font-size="10.00">title</text>
<text text-anchor="start" x="475" y="-35.5" font-family="Arial" font-size="8.00" fill="#94a3b8">  Text</text>
<polygon fill="none" stroke="#64748b" points="454,-27 454,-150 538,-150 538,-27 454,-27"/>
</g>
<!-- entrypoint_api_project_create&#45;&gt;entrypoint_input_api_project_create -->
<g id="edge2" class="edge">
<title>entrypoint_api_project_create&#45;&gt;entrypoint_input_api_project_create</title>
<path fill="none" stroke="#3f3f46" d="M393.17,-88.5C411.92,-88.5 430,-88.5 445.59,-88.5"/>
<polygon fill="#3f3f46" stroke="#3f3f46" points="445.98,-91.3 453.98,-88.5 445.98,-85.7 445.98,-91.3"/>
</g>
<!-- entrypoint_target_project_create -->
<g id="node4" class="node">
<title>entrypoint_target_project_create</title>
<polygon fill="#ffffff" stroke="transparent" points="599,0 599,-177 803,-177 803,0 599,0"/>
<polygon fill="#2563eb" stroke="transparent" points="600,-167.5 600,-175.5 802,-175.5 802,-167.5 600,-167.5"/>
<polygon fill="#eff6ff" stroke="transparent" points="600,-136.5 600,-167.5 802,-167.5 802,-136.5 600,-136.5"/>
<text text-anchor="start" x="604" y="-154.1" font-family="Arial" font-weight="bold" font-size="13.00">project.create</text>
<text text-anchor="start" x="604" y="-143.1" font-family="Arial" font-size="8.00" fill="#64748b">target capability</text>
<text text-anchor="start" x="604" y="-125.5" font-family="Arial" font-style="italic" font-size="10.00" fill="#3f3f46">Members can create a new dispatch project.</text>
<text text-anchor="start" x="605" y="-105.5" font-family="Arial" font-weight="bold" font-size="10.00">creates:</text>
<text text-anchor="start" x="642" y="-105.5" font-family="Arial" font-size="10.00">  Project</text>
<text text-anchor="start" x="604" y="-85.5" font-family="Arial" font-weight="bold" font-size="10.00">input</text>
<text text-anchor="start" x="604" y="-74.5" font-family="Arial" font-size="10.00">customer</text>
<text text-anchor="start" x="645" y="-74.5" font-family="Arial" font-size="8.00" fill="#94a3b8">  Text</text>
<text text-anchor="start" x="604" y="-63.5" font-family="Arial" font-size="10.00">priority</text>
<text text-anchor="start" x="634" y="-63.5" font-family="Arial" font-size="8.00" fill="#94a3b8">  Text</text>
<text text-anchor="start" x="604" y="-52.5" font-family="Arial" font-size="10.00">title</text>
<text text-anchor="start" x="620" y="-52.5" font-family="Arial" font-size="8.00" fill="#94a3b8">  Text</text>
<text text-anchor="start" x="604" y="-41.5" font-family="Arial" font-size="10.00">workspace_id</text>
<text text-anchor="start" x="665" y="-41.5" font-family="Arial" font-size="8.00" fill="#94a3b8">  ID</text>
<text text-anchor="start" x="605" y="-21.5" font-family="Arial" font-weight="bold" font-size="10.00">emit:</text>
<text text-anchor="start" x="629" y="-21.5" font-family="Arial" font-size="10.00">  project.created</text>
<text text-anchor="start" x="605" y="-9.5" font-family="Arial" font-weight="bold" font-size="10.00">payload:</text>
<text text-anchor="start" x="645" y="-9.5" font-family="Arial" font-size="10.00">  payload</text>
<text text-anchor="start" x="685" y="-9.5" font-family="Arial" font-size="8.00" fill="#94a3b8">  Project</text>
<polygon fill="none" stroke="#2563eb" points="599,0 599,-177 803,-177 803,0 599,0"/>
</g>
<!-- entrypoint_input_api_project_create&#45;&gt;entrypoint_target_project_create -->
<g id="edge3" class="edge">
<title>entrypoint_input_api_project_create&#45;&gt;entrypoint_target_project_create</title>
<path fill="none" stroke="#3f3f46" d="M538.08,-88.5C553.59,-88.5 572.06,-88.5 590.88,-88.5"/>
<polygon fill="#3f3f46" stroke="#3f3f46" points="590.96,-91.3 598.96,-88.5 590.96,-85.7 590.96,-91.3"/>
</g>
<!-- entrypoint_output_api_project_create -->
<g id="node6" class="node">
<title>entrypoint_output_api_project_create</title>
<polygon fill="#ffffff" stroke="transparent" points="864,-42.5 864,-134.5 982,-134.5 982,-42.5 864,-42.5"/>
<polygon fill="#64748b" stroke="transparent" points="865,-125.5 865,-133.5 981,-133.5 981,-125.5 865,-125.5"/>
<polygon fill="#f8fafc" stroke="transparent" points="865,-94.5 865,-125.5 981,-125.5 981,-94.5 865,-94.5"/>
<text text-anchor="start" x="869" y="-112.1" font-family="Arial" font-weight="bold" font-size="13.00">response</text>
<text text-anchor="start" x="869" y="-101.1" font-family="Arial" font-size="8.00" fill="#64748b">external result</text>
<text text-anchor="start" x="870" y="-82.5" font-family="Arial" font-weight="bold" font-size="10.00">status:</text>
<text text-anchor="start" x="901" y="-82.5" font-family="Arial" font-size="10.00">  200</text>
<text text-anchor="start" x="869" y="-62.5" font-family="Arial" font-weight="bold" font-size="10.00">body</text>
<text text-anchor="start" x="869" y="-51.5" font-family="Arial" font-size="10.00">body</text>
<text text-anchor="start" x="891" y="-51.5" font-family="Arial" font-size="8.00" fill="#94a3b8">  Project</text>
<text text-anchor="start" x="921" y="-51.5" font-family="Arial" font-size="8.00"> ← target.result</text>
<polygon fill="none" stroke="#64748b" points="864,-42.5 864,-134.5 982,-134.5 982,-42.5 864,-42.5"/>
</g>
<!-- entrypoint_target_project_create&#45;&gt;entrypoint_output_api_project_create -->
<g id="edge4" class="edge">
<title>entrypoint_target_project_create&#45;&gt;entrypoint_output_api_project_create</title>
<path fill="none" stroke="#3f3f46" d="M803.31,-88.5C820.98,-88.5 838.95,-88.5 855.38,-88.5"/>
<polygon fill="#3f3f46" stroke="#3f3f46" points="855.82,-91.3 863.82,-88.5 855.82,-85.7 855.82,-91.3"/>
</g>
<!-- entry_exit -->
<g id="node5" class="node">
<title>entry_exit</title>
<ellipse fill="none" stroke="#0891b2" cx="1068" cy="-88.5" rx="21" ry="21"/>
<ellipse fill="none" stroke="#0891b2" cx="1068" cy="-88.5" rx="25" ry="25"/>
<text text-anchor="middle" x="1068" y="-86.3" font-family="Arial" font-size="9.00" fill="#155e75">exit</text>
</g>
<!-- entrypoint_output_api_project_create&#45;&gt;entry_exit -->
<g id="edge5" class="edge">
<title>entrypoint_output_api_project_create&#45;&gt;entry_exit</title>
<path fill="none" stroke="#3f3f46" d="M982.16,-88.5C1000.04,-88.5 1019.07,-88.5 1034.57,-88.5"/>
<polygon fill="#3f3f46" stroke="#3f3f46" points="1034.78,-91.3 1042.78,-88.5 1034.78,-85.7 1034.78,-91.3"/>
</g>
</g>
</svg>
