<svg width="1140pt" height="201pt"
 viewBox="0.00 0.00 1140.00 201.00" xmlns="http://www.w3.org/2000/svg" xmlns:xlink="http://www.w3.org/1999/xlink">
<g id="graph0" class="graph" transform="scale(1 1) rotate(0) translate(18 183)">
<title>entrypoint_api_project_create</title>
<!-- entry_start -->
<g id="node1" class="node">
<title>entry_start</title>
<ellipse fill="none" stroke="#0891b2" cx="21" cy="-82.5" rx="21" ry="21"/>
<text text-anchor="middle" x="21" y="-80.3" font-family="Arial" font-size="9.00" fill="#155e75">entry</text>
</g>
<!-- entrypoint_api_project_create -->
<g id="node2" class="node">
<title>entrypoint_api_project_create</title>
<polygon fill="#ffffff" stroke="transparent" points="103,-42 103,-123 393,-123 393,-42 103,-42"/>
<polygon fill="#0891b2" stroke="transparent" points="104,-113.5 104,-121.5 392,-121.5 392,-113.5 104,-113.5"/>
<polygon fill="#ecfeff" stroke="transparent" points="104,-82.5 104,-113.5 392,-113.5 392,-82.5 104,-82.5"/>
<text text-anchor="start" x="108" y="-100.1" font-family="Arial" font-weight="bold" font-size="13.00">POST /workspaces/{workspace_id}/projects</text>
<text text-anchor="start" x="108" y="-89.1" font-family="Arial" font-size="8.00" fill="#64748b">api entry</text>
<text text-anchor="start" x="108" y="-71.5" font-family="Arial" font-style="italic" font-size="10.00" fill="#3f3f46">HTTP endpoint for creating a dispatch project.</text>
<text text-anchor="start" x="109" y="-51.5" font-family="Arial" font-weight="bold" font-size="10.00">endpoint:</text>
<text text-anchor="start" x="154" y="-51.5" font-family="Arial" font-size="10.00">  endpoint.project.create</text>
<polygon fill="none" stroke="#0891b2" points="103,-42 103,-123 393,-123 393,-42 103,-42"/>
</g>
<!-- entry_start&#45;&gt;entrypoint_api_project_create -->
<g id="edge1" class="edge">
<title>entry_start&#45;&gt;entrypoint_api_project_create</title>
<path fill="none" stroke="#3f3f46" d="M42.36,-82.5C55.6,-82.5 74.2,-82.5 94.84,-82.5"/>
<polygon fill="#3f3f46" stroke="#3f3f46" points="94.85,-85.3 102.85,-82.5 94.85,-79.7 94.85,-85.3"/>
</g>
<!-- entrypoint_input_api_project_create -->
<g id="node3" class="node">
<title>entrypoint_input_api_project_create</title>
<polygon fill="#ffffff" stroke="transparent" points="454,-21 454,-144 538,-144 538,-21 454,-21"/>
<polygon fill="#64748b" stroke="transparent" points="455,-134.5 455,-142.5 537,-142.5 537,-134.5 455,-134.5"/>
<polygon fill="#f8fafc" stroke="transparent" points="455,-103.5 455,-134.5 537,-134.5 537,-103.5 455,-103.5"/>
<text text-anchor="start" x="459" y="-121.1" font-family="Arial" font-weight="bold" font-size="13.00">entry input</text>
<text text-anchor="start" x="459" y="-110.1" font-family="Arial" font-size="8.00" fill="#64748b">external data</text>
<text text-anchor="start" x="459" y="-92.5" font-family="Arial" font-weight="bold" font-size="10.00">params</text>
<text text-anchor="start" x="459" y="-81.5" font-family="Arial" font-size="10.00">workspace_id</text>
<text text-anchor="start" x="520" y="-81.5" font-family="Arial" font-size="8.00" fill="#94a3b8">  ID</text>
<text text-anchor="start" x="459" y="-62.5" font-family="Arial" font-weight="bold" font-size="10.00">body</text>
<text text-anchor="start" x="459" y="-51.5" font-family="Arial" font-size="10.00">customer</text>
<text text-anchor="start" x="500" y="-51.5" font-family="Arial" font-size="8.00" fill="#94a3b8">  Text</text>
<text text-anchor="start" x="459" y="-40.5" font-family="Arial" font-size="10.00">priority</text>
<text text-anchor="start" x="489" y="-40.5" font-family="Arial" font-size="8.00" fill="#94a3b8">  Text</text>
<text text-anchor="start" x="459" y="-29.5" font-family="Arial" font-size="10.00">title</text>
<text text-anchor="start" x="475" y="-29.5" font-family="Arial" font-size="8.00" fill="#94a3b8">  Text</text>
<polygon fill="none" stroke="#64748b" points="454,-21 454,-144 538,-144 538,-21 454,-21"/>
</g>
<!-- entrypoint_api_project_create&#45;&gt;entrypoint_input_api_project_create -->
<g id="edge2" class="edge">
<title>entrypoint_api_project_create&#45;&gt;entrypoint_input_api_project_create</title>
<path fill="none" stroke="#3f3f46" d="M393.17,-82.5C411.92,-82.5 430,-82.5 445.59,-82.5"/>
<polygon fill="#3f3f46" stroke="#3f3f46" points="445.98,-85.3 453.98,-82.5 445.98,-79.7 445.98,-85.3"/>
</g>
<!-- entrypoint_target_project_create -->
<g id="node4" class="node">
<title>entrypoint_target_project_create</title>
<polygon fill="#ffffff" stroke="transparent" points="599,0 599,-165 803,-165 803,0 599,0"/>
<polygon fill="#2563eb" stroke="transparent" points="600,-155.5 600,-163.5 802,-163.5 802,-155.5 600,-155.5"/>
<polygon fill="#eff6ff" stroke="transparent" points="600,-124.5 600,-155.5 802,-155.5 802,-124.5 600,-124.5"/>
<text text-anchor="start" x="604" y="-142.1" font-family="Arial" font-weight="bold" font-size="13.00">project.create</text>
<text text-anchor="start" x="604" y="-131.1" font-family="Arial" font-size="8.00" fill="#64748b">target capability</text>
<text text-anchor="start" x="604" y="-113.5" font-family="Arial" font-style="italic" font-size="10.00" fill="#3f3f46">Members can create a new dispatch project.</text>
<text text-anchor="start" x="605" y="-93.5" font-family="Arial" font-weight="bold" font-size="10.00">creates:</text>
<text text-anchor="start" x="642" y="-93.5" font-family="Arial" font-size="10.00">  Project</text>
<text text-anchor="start" x="604" y="-73.5" font-family="Arial" font-weight="bold" font-size="10.00">input</text>
<text text-anchor="start" x="604" y="-62.5" font-family="Arial" font-size="10.00">customer</text>
<text text-anchor="start" x="645" y="-62.5" font-family="Arial" font-size="8.00" fill="#94a3b8">  Text</text>
<text text-anchor="start" x="604" y="-51.5" font-family="Arial" font-size="10.00">priority</text>
<text text-anchor="start" x="634" y="-51.5" font-family="Arial" font-size="8.00" fill="#94a3b8">  Text</text>
<text text-anchor="start" x="604" y="-40.5" font-family="Arial" font-size="10.00">title</text>
<text text-anchor="start" x="620" y="-40.5" font-family="Arial" font-size="8.00" fill="#94a3b8">  Text</text>
<text text-anchor="start" x="604" y="-29.5" font-family="Arial" font-size="10.00">workspace_id</text>
<text text-anchor="start" x="665" y="-29.5" font-family="Arial" font-size="8.00" fill="#94a3b8">  ID</text>
<text text-anchor="start" x="605" y="-9.5" font-family="Arial" font-weight="bold" font-size="10.00">emits:</text>
<text text-anchor="start" x="634" y="-9.5" font-family="Arial" font-size="10.00">  project.created</text>
<polygon fill="none" stroke="#2563eb" points="599,0 599,-165 803,-165 803,0 599,0"/>
</g>
<!-- entrypoint_input_api_project_create&#45;&gt;entrypoint_target_project_create -->
<g id="edge3" class="edge">
<title>entrypoint_input_api_project_create&#45;&gt;entrypoint_target_project_create</title>
<path fill="none" stroke="#3f3f46" d="M538.08,-82.5C553.59,-82.5 572.06,-82.5 590.88,-82.5"/>
<polygon fill="#3f3f46" stroke="#3f3f46" points="590.96,-85.3 598.96,-82.5 590.96,-79.7 590.96,-85.3"/>
</g>
<!-- entrypoint_output_api_project_create -->
<g id="node6" class="node">
<title>entrypoint_output_api_project_create</title>
<polygon fill="#ffffff" stroke="transparent" points="864,-36.5 864,-128.5 993,-128.5 993,-36.5 864,-36.5"/>
<polygon fill="#64748b" stroke="transparent" points="865.5,-119.5 865.5,-127.5 992.5,-127.5 992.5,-119.5 865.5,-119.5"/>
<polygon fill="#f8fafc" stroke="transparent" points="865.5,-88.5 865.5,-119.5 992.5,-119.5 992.5,-88.5 865.5,-88.5"/>
<text text-anchor="start" x="869.5" y="-106.1" font-family="Arial" font-weight="bold" font-size="13.00">entry output</text>
<text text-anchor="start" x="869.5" y="-95.1" font-family="Arial" font-size="8.00" fill="#64748b">external result</text>
<text text-anchor="start" x="870.5" y="-76.5" font-family="Arial" font-weight="bold" font-size="10.00">status:</text>
<text text-anchor="start" x="901.5" y="-76.5" font-family="Arial" font-size="10.00">  200</text>
<text text-anchor="start" x="869.5" y="-56.5" font-family="Arial" font-weight="bold" font-size="10.00">body</text>
<text text-anchor="start" x="869.5" y="-45.5" font-family="Arial" font-size="10.00">body</text>
<text text-anchor="start" x="891.5" y="-45.5" font-family="Arial" font-size="8.00" fill="#94a3b8">  Project</text>
<text text-anchor="start" x="921.5" y="-45.5" font-family="Arial" font-size="10.00"> &lt;&#45; target.result</text>
<polygon fill="none" stroke="#64748b" points="864,-36.5 864,-128.5 993,-128.5 993,-36.5 864,-36.5"/>
</g>
<!-- entrypoint_target_project_create&#45;&gt;entrypoint_output_api_project_create -->
<g id="edge4" class="edge">
<title>entrypoint_target_project_create&#45;&gt;entrypoint_output_api_project_create</title>
<path fill="none" stroke="#3f3f46" d="M803.21,-82.5C820.92,-82.5 839.01,-82.5 855.71,-82.5"/>
<polygon fill="#3f3f46" stroke="#3f3f46" points="855.79,-85.3 863.79,-82.5 855.79,-79.7 855.79,-85.3"/>
</g>
<!-- entry_exit -->
<g id="node5" class="node">
<title>entry_exit</title>
<ellipse fill="none" stroke="#0891b2" cx="1079" cy="-82.5" rx="21" ry="21"/>
<ellipse fill="none" stroke="#0891b2" cx="1079" cy="-82.5" rx="25" ry="25"/>
<text text-anchor="middle" x="1079" y="-80.3" font-family="Arial" font-size="9.00" fill="#155e75">exit</text>
</g>
<!-- entrypoint_output_api_project_create&#45;&gt;entry_exit -->
<g id="edge5" class="edge">
<title>entrypoint_output_api_project_create&#45;&gt;entry_exit</title>
<path fill="none" stroke="#3f3f46" d="M993.34,-82.5C1011.38,-82.5 1030.26,-82.5 1045.6,-82.5"/>
<polygon fill="#3f3f46" stroke="#3f3f46" points="1045.73,-85.3 1053.73,-82.5 1045.73,-79.7 1045.73,-85.3"/>
</g>
</g>
</svg>
