<svg width="836pt" height="723pt"
 viewBox="0.00 0.00 836.00 723.00" xmlns="http://www.w3.org/2000/svg" xmlns:xlink="http://www.w3.org/1999/xlink">
<!-- pyspec-contract-input-sha256: 2c08ed8d2298fb4c61660b5157a1e9aaa8a492f261ec86a559dbd7e94e818595 -->
<g id="graph0" class="graph" transform="scale(1 1) rotate(0) translate(18 705)">
<title>entrypoint_entry_point_api_project_approve</title>
<!-- entrypoint_entry_point_api_project_approve -->
<g id="node1" class="node">
<title>entrypoint_entry_point_api_project_approve</title>
<polygon fill="#ffffff" stroke="transparent" points="0,-261 0,-425 275,-425 275,-261 0,-261"/>
<polygon fill="#0891b2" stroke="transparent" points="1.5,-416 1.5,-424 274.5,-424 274.5,-416 1.5,-416"/>
<polygon fill="#ecfeff" stroke="transparent" points="1.5,-385 1.5,-416 274.5,-416 274.5,-385 1.5,-385"/>
<text text-anchor="start" x="5.5" y="-402.6" font-family="Arial" font-weight="bold" font-size="13.00">POST /projects/{project_id}/approve</text>
<text text-anchor="start" x="5.5" y="-391.6" font-family="Arial" font-size="8.00" fill="#64748b">http_api entry point</text>
<text text-anchor="start" x="5.5" y="-374" font-family="Arial" font-style="italic" font-size="10.00" fill="#3f3f46">HTTP endpoint for approving submitted dispatch</text>
<text text-anchor="start" x="5.5" y="-363" font-family="Arial" font-style="italic" font-size="10.00" fill="#3f3f46">projects.</text>
<text text-anchor="start" x="6.5" y="-343" font-family="Arial" font-weight="bold" font-size="10.00">endpoint:</text>
<text text-anchor="start" x="51.5" y="-343" font-family="Arial" font-size="10.00">  endpoint.project.approve</text>
<text text-anchor="start" x="6.5" y="-331" font-family="Arial" font-weight="bold" font-size="10.00">authorization_policy:</text>
<text text-anchor="start" x="105.5" y="-331" font-family="Arial" font-size="10.00">  authorization_policy.project.reviewer</text>
<text text-anchor="start" x="5.5" y="-311" font-family="Arial" font-weight="bold" font-size="10.00">path params</text>
<text text-anchor="start" x="5.5" y="-300" font-family="Arial" font-size="10.00">project_id</text>
<text text-anchor="start" x="48.5" y="-300" font-family="Arial" font-size="8.00" fill="#94a3b8">  string</text>
<text text-anchor="start" x="5.5" y="-281" font-family="Arial" font-weight="bold" font-size="10.00">body</text>
<text text-anchor="start" x="5.5" y="-270" font-family="Arial" font-size="10.00">approved_by</text>
<text text-anchor="start" x="61.5" y="-270" font-family="Arial" font-size="8.00" fill="#94a3b8">  string</text>
<polygon fill="none" stroke="#0891b2" points="0,-261 0,-425 275,-425 275,-261 0,-261"/>
</g>
<!-- entrypoint_target_application_action_project_approve -->
<g id="node2" class="node">
<title>entrypoint_target_application_action_project_approve</title>
<polygon fill="#ffffff" stroke="transparent" points="336,-276.5 336,-409.5 575,-409.5 575,-276.5 336,-276.5"/>
<polygon fill="#2563eb" stroke="transparent" points="337.5,-400 337.5,-408 574.5,-408 574.5,-400 337.5,-400"/>
<polygon fill="#eff6ff" stroke="transparent" points="337.5,-369 337.5,-400 574.5,-400 574.5,-369 337.5,-369"/>
<text text-anchor="start" x="341.5" y="-386.6" font-family="Arial" font-weight="bold" font-size="13.00">application_action.project.approve</text>
<text text-anchor="start" x="341.5" y="-375.6" font-family="Arial" font-size="8.00" fill="#64748b">target application action</text>
<text text-anchor="start" x="341.5" y="-358" font-family="Arial" font-style="italic" font-size="10.00" fill="#3f3f46">Reviewers can approve submitted dispatch projects.</text>
<text text-anchor="start" x="342.5" y="-338" font-family="Arial" font-weight="bold" font-size="10.00">kind:</text>
<text text-anchor="start" x="366.5" y="-338" font-family="Arial" font-size="10.00">  lifecycle_transition</text>
<text text-anchor="start" x="341.5" y="-318" font-family="Arial" font-weight="bold" font-size="10.00">authorization</text>
<text text-anchor="start" x="341.5" y="-306" font-family="Arial" font-size="10.00">policy: authorization_policy.project.reviewer</text>
<text text-anchor="start" x="341.5" y="-295" font-family="Arial" font-size="10.00">authentication_required_as: authentication_required</text>
<text text-anchor="start" x="341.5" y="-284" font-family="Arial" font-size="10.00">access_denied_as: access_denied</text>
<polygon fill="none" stroke="#2563eb" points="336,-276.5 336,-409.5 575,-409.5 575,-276.5 336,-276.5"/>
</g>
<!-- entrypoint_entry_point_api_project_approve&#45;&gt;entrypoint_target_application_action_project_approve -->
<g id="edge1" class="edge">
<title>entrypoint_entry_point_api_project_approve&#45;&gt;entrypoint_target_application_action_project_approve</title>
<path fill="none" stroke="#3f3f46" d="M275.26,-343C292.61,-343 310.3,-343 327.49,-343"/>
<polygon fill="#3f3f46" stroke="#3f3f46" points="327.88,-345.8 335.88,-343 327.88,-340.2 327.88,-345.8"/>
</g>
<!-- entrypoint_response_entry_point_api_project_approve_access_denied -->
<g id="node3" class="node">
<title>entrypoint_response_entry_point_api_project_approve_access_denied</title>
<polygon fill="#ffffff" stroke="transparent" points="649.5,-595 649.5,-687 786.5,-687 786.5,-595 649.5,-595"/>
<polygon fill="#dc2626" stroke="transparent" points="651,-678 651,-686 786,-686 786,-678 651,-678"/>
<polygon fill="#fef2f2" stroke="transparent" points="651,-647 651,-678 786,-678 786,-647 651,-647"/>
<text text-anchor="start" x="655" y="-664.6" font-family="Arial" font-weight="bold" font-size="13.00">access_denied</text>
<text text-anchor="start" x="655" y="-653.6" font-family="Arial" font-size="8.00" fill="#64748b">failure response</text>
<text text-anchor="start" x="656" y="-635" font-family="Arial" font-weight="bold" font-size="10.00">status:</text>
<text text-anchor="start" x="687" y="-635" font-family="Arial" font-size="10.00">  403</text>
<text text-anchor="start" x="655" y="-615" font-family="Arial" font-weight="bold" font-size="10.00">body</text>
<text text-anchor="start" x="655" y="-604" font-family="Arial" font-size="10.00">body</text>
<text text-anchor="start" x="677" y="-604" font-family="Arial" font-size="8.00" fill="#94a3b8">  Problem</text>
<text text-anchor="start" x="712" y="-604" font-family="Arial" font-size="8.00"> ← $outcome.result</text>
<polygon fill="none" stroke="#dc2626" points="649.5,-595 649.5,-687 786.5,-687 786.5,-595 649.5,-595"/>
</g>
<!-- entrypoint_target_application_action_project_approve&#45;&gt;entrypoint_response_entry_point_api_project_approve_access_denied -->
<g id="edge2" class="edge">
<title>entrypoint_target_application_action_project_approve&#45;&gt;entrypoint_response_entry_point_api_project_approve_access_denied</title>
<path fill="none" stroke="#3f3f46" d="M498.6,-409.57C532.29,-460.01 582.59,-529.37 636,-582 638.51,-584.47 641.13,-586.92 643.82,-589.34"/>
<polygon fill="#3f3f46" stroke="#3f3f46" points="642.36,-591.78 650.24,-594.91 646.04,-587.55 642.36,-591.78"/>
</g>
<!-- entrypoint_response_entry_point_api_project_approve_approved -->
<g id="node4" class="node">
<title>entrypoint_response_entry_point_api_project_approve_approved</title>
<polygon fill="#ffffff" stroke="transparent" points="652,-476 652,-568 784,-568 784,-476 652,-476"/>
<polygon fill="#16a34a" stroke="transparent" points="653,-559 653,-567 783,-567 783,-559 653,-559"/>
<polygon fill="#f0fdf4" stroke="transparent" points="653,-528 653,-559 783,-559 783,-528 653,-528"/>
<text text-anchor="start" x="657" y="-545.6" font-family="Arial" font-weight="bold" font-size="13.00">approved</text>
<text text-anchor="start" x="657" y="-534.6" font-family="Arial" font-size="8.00" fill="#64748b">success response</text>
<text text-anchor="start" x="658" y="-516" font-family="Arial" font-weight="bold" font-size="10.00">status:</text>
<text text-anchor="start" x="689" y="-516" font-family="Arial" font-size="10.00">  200</text>
<text text-anchor="start" x="657" y="-496" font-family="Arial" font-weight="bold" font-size="10.00">body</text>
<text text-anchor="start" x="657" y="-485" font-family="Arial" font-size="10.00">body</text>
<text text-anchor="start" x="679" y="-485" font-family="Arial" font-size="8.00" fill="#94a3b8">  Project</text>
<text text-anchor="start" x="709" y="-485" font-family="Arial" font-size="8.00"> ← $outcome.result</text>
<polygon fill="none" stroke="#16a34a" points="652,-476 652,-568 784,-568 784,-476 652,-476"/>
</g>
<!-- entrypoint_target_application_action_project_approve&#45;&gt;entrypoint_response_entry_point_api_project_approve_approved -->
<g id="edge3" class="edge">
<title>entrypoint_target_application_action_project_approve&#45;&gt;entrypoint_response_entry_point_api_project_approve_approved</title>
<path fill="none" stroke="#3f3f46" d="M553.5,-409.65C583.9,-430.54 616.89,-453.21 645.22,-472.68"/>
<polygon fill="#3f3f46" stroke="#3f3f46" points="643.76,-475.07 651.94,-477.3 646.93,-470.46 643.76,-475.07"/>
</g>
<!-- entrypoint_response_entry_point_api_project_approve_authentication_required -->
<g id="node5" class="node">
<title>entrypoint_response_entry_point_api_project_approve_authentication_required</title>
<polygon fill="#ffffff" stroke="transparent" points="636,-357 636,-449 800,-449 800,-357 636,-357"/>
<polygon fill="#dc2626" stroke="transparent" points="637,-440 637,-448 799,-448 799,-440 637,-440"/>
<polygon fill="#fef2f2" stroke="transparent" points="637,-409 637,-440 799,-440 799,-409 637,-409"/>
<text text-anchor="start" x="641" y="-426.6" font-family="Arial" font-weight="bold" font-size="13.00">authentication_required</text>
<text text-anchor="start" x="641" y="-415.6" font-family="Arial" font-size="8.00" fill="#64748b">failure response</text>
<text text-anchor="start" x="642" y="-397" font-family="Arial" font-weight="bold" font-size="10.00">status:</text>
<text text-anchor="start" x="673" y="-397" font-family="Arial" font-size="10.00">  401</text>
<text text-anchor="start" x="641" y="-377" font-family="Arial" font-weight="bold" font-size="10.00">body</text>
<text text-anchor="start" x="641" y="-366" font-family="Arial" font-size="10.00">body</text>
<text text-anchor="start" x="663" y="-366" font-family="Arial" font-size="8.00" fill="#94a3b8">  Problem</text>
<text text-anchor="start" x="698" y="-366" font-family="Arial" font-size="8.00"> ← $outcome.result</text>
<polygon fill="none" stroke="#dc2626" points="636,-357 636,-449 800,-449 800,-357 636,-357"/>
</g>
<!-- entrypoint_target_application_action_project_approve&#45;&gt;entrypoint_response_entry_point_api_project_approve_authentication_required -->
<g id="edge4" class="edge">
<title>entrypoint_target_application_action_project_approve&#45;&gt;entrypoint_response_entry_point_api_project_approve_authentication_required</title>
<path fill="none" stroke="#3f3f46" d="M575.32,-370.37C592.96,-374.43 610.88,-378.56 627.78,-382.45"/>
<polygon fill="#3f3f46" stroke="#3f3f46" points="627.57,-385.27 635.99,-384.34 628.82,-379.82 627.57,-385.27"/>
</g>
<!-- entrypoint_response_entry_point_api_project_approve_not_found -->
<g id="node6" class="node">
<title>entrypoint_response_entry_point_api_project_approve_not_found</title>
<polygon fill="#ffffff" stroke="transparent" points="649.5,-238 649.5,-330 786.5,-330 786.5,-238 649.5,-238"/>
<polygon fill="#dc2626" stroke="transparent" points="651,-321 651,-329 786,-329 786,-321 651,-321"/>
<polygon fill="#fef2f2" stroke="transparent" points="651,-290 651,-321 786,-321 786,-290 651,-290"/>
<text text-anchor="start" x="655" y="-307.6" font-family="Arial" font-weight="bold" font-size="13.00">not_found</text>
<text text-anchor="start" x="655" y="-296.6" font-family="Arial" font-size="8.00" fill="#64748b">failure response</text>
<text text-anchor="start" x="656" y="-278" font-family="Arial" font-weight="bold" font-size="10.00">status:</text>
<text text-anchor="start" x="687" y="-278" font-family="Arial" font-size="10.00">  404</text>
<text text-anchor="start" x="655" y="-258" font-family="Arial" font-weight="bold" font-size="10.00">body</text>
<text text-anchor="start" x="655" y="-247" font-family="Arial" font-size="10.00">body</text>
<text text-anchor="start" x="677" y="-247" font-family="Arial" font-size="8.00" fill="#94a3b8">  Problem</text>
<text text-anchor="start" x="712" y="-247" font-family="Arial" font-size="8.00"> ← $outcome.result</text>
<polygon fill="none" stroke="#dc2626" points="649.5,-238 649.5,-330 786.5,-330 786.5,-238 649.5,-238"/>
</g>
<!-- entrypoint_target_application_action_project_approve&#45;&gt;entrypoint_response_entry_point_api_project_approve_not_found -->
<g id="edge5" class="edge">
<title>entrypoint_target_application_action_project_approve&#45;&gt;entrypoint_response_entry_point_api_project_approve_not_found</title>
<path fill="none" stroke="#3f3f46" d="M575.32,-316.09C597.8,-311 620.75,-305.8 641.45,-301.11"/>
<polygon fill="#3f3f46" stroke="#3f3f46" points="642.08,-303.84 649.26,-299.34 640.84,-298.38 642.08,-303.84"/>
</g>
<!-- entrypoint_response_entry_point_api_project_approve_transition_not_allowed -->
<g id="node7" class="node">
<title>entrypoint_response_entry_point_api_project_approve_transition_not_allowed</title>
<polygon fill="#ffffff" stroke="transparent" points="639.5,-119 639.5,-211 796.5,-211 796.5,-119 639.5,-119"/>
<polygon fill="#dc2626" stroke="transparent" points="641,-202 641,-210 796,-210 796,-202 641,-202"/>
<polygon fill="#fef2f2" stroke="transparent" points="641,-171 641,-202 796,-202 796,-171 641,-171"/>
<text text-anchor="start" x="645" y="-188.6" font-family="Arial" font-weight="bold" font-size="13.00">transition_not_allowed</text>
<text text-anchor="start" x="645" y="-177.6" font-family="Arial" font-size="8.00" fill="#64748b">failure response</text>
<text text-anchor="start" x="646" y="-159" font-family="Arial" font-weight="bold" font-size="10.00">status:</text>
<text text-anchor="start" x="677" y="-159" font-family="Arial" font-size="10.00">  409</text>
<text text-anchor="start" x="645" y="-139" font-family="Arial" font-weight="bold" font-size="10.00">body</text>
<text text-anchor="start" x="645" y="-128" font-family="Arial" font-size="10.00">body</text>
<text text-anchor="start" x="667" y="-128" font-family="Arial" font-size="8.00" fill="#94a3b8">  Problem</text>
<text text-anchor="start" x="702" y="-128" font-family="Arial" font-size="8.00"> ← $outcome.result</text>
<polygon fill="none" stroke="#dc2626" points="639.5,-119 639.5,-211 796.5,-211 796.5,-119 639.5,-119"/>
</g>
<!-- entrypoint_target_application_action_project_approve&#45;&gt;entrypoint_response_entry_point_api_project_approve_transition_not_allowed -->
<g id="edge6" class="edge">
<title>entrypoint_target_application_action_project_approve&#45;&gt;entrypoint_response_entry_point_api_project_approve_transition_not_allowed</title>
<path fill="none" stroke="#3f3f46" d="M553.87,-276.47C583.18,-256.44 614.87,-234.79 642.45,-215.94"/>
<polygon fill="#3f3f46" stroke="#3f3f46" points="644.34,-218.04 649.37,-211.21 641.18,-213.42 644.34,-218.04"/>
</g>
<!-- entrypoint_response_entry_point_api_project_approve_unavailable -->
<g id="node8" class="node">
<title>entrypoint_response_entry_point_api_project_approve_unavailable</title>
<polygon fill="#ffffff" stroke="transparent" points="649.5,0 649.5,-92 786.5,-92 786.5,0 649.5,0"/>
<polygon fill="#dc2626" stroke="transparent" points="651,-83 651,-91 786,-91 786,-83 651,-83"/>
<polygon fill="#fef2f2" stroke="transparent" points="651,-52 651,-83 786,-83 786,-52 651,-52"/>
<text text-anchor="start" x="655" y="-69.6" font-family="Arial" font-weight="bold" font-size="13.00">unavailable</text>
<text text-anchor="start" x="655" y="-58.6" font-family="Arial" font-size="8.00" fill="#64748b">failure response</text>
<text text-anchor="start" x="656" y="-40" font-family="Arial" font-weight="bold" font-size="10.00">status:</text>
<text text-anchor="start" x="687" y="-40" font-family="Arial" font-size="10.00">  503</text>
<text text-anchor="start" x="655" y="-20" font-family="Arial" font-weight="bold" font-size="10.00">body</text>
<text text-anchor="start" x="655" y="-9" font-family="Arial" font-size="10.00">body</text>
<text text-anchor="start" x="677" y="-9" font-family="Arial" font-size="8.00" fill="#94a3b8">  Problem</text>
<text text-anchor="start" x="712" y="-9" font-family="Arial" font-size="8.00"> ← $outcome.result</text>
<polygon fill="none" stroke="#dc2626" points="649.5,0 649.5,-92 786.5,-92 786.5,0 649.5,0"/>
</g>
<!-- entrypoint_target_application_action_project_approve&#45;&gt;entrypoint_response_entry_point_api_project_approve_unavailable -->
<g id="edge7" class="edge">
<title>entrypoint_target_application_action_project_approve&#45;&gt;entrypoint_response_entry_point_api_project_approve_unavailable</title>
<path fill="none" stroke="#3f3f46" d="M499.35,-276.36C533.15,-226.49 583.26,-158.18 636,-106 638.81,-103.22 641.75,-100.47 644.78,-97.76"/>
<polygon fill="#3f3f46" stroke="#3f3f46" points="646.91,-99.61 651.11,-92.25 643.23,-95.39 646.91,-99.61"/>
</g>
<!-- entrypoint_response_entry_point_api_project_approve_access_denied&#45;&gt;entrypoint_response_entry_point_api_project_approve_approved -->
<!-- entrypoint_response_entry_point_api_project_approve_approved&#45;&gt;entrypoint_response_entry_point_api_project_approve_authentication_required -->
<!-- entrypoint_response_entry_point_api_project_approve_authentication_required&#45;&gt;entrypoint_response_entry_point_api_project_approve_not_found -->
<!-- entrypoint_response_entry_point_api_project_approve_not_found&#45;&gt;entrypoint_response_entry_point_api_project_approve_transition_not_allowed -->
<!-- entrypoint_response_entry_point_api_project_approve_transition_not_allowed&#45;&gt;entrypoint_response_entry_point_api_project_approve_unavailable -->
</g>
</svg>
