<svg width="829pt" height="723pt"
 viewBox="0.00 0.00 829.00 723.00" xmlns="http://www.w3.org/2000/svg" xmlns:xlink="http://www.w3.org/1999/xlink">
<!-- pyspec-contract-input-sha256: ac5435ea3ce185e7d5aa834691d8b8b557732ec61d2175b201b4d80e184b9a2f -->
<g id="graph0" class="graph" transform="scale(1 1) rotate(0) translate(18 705)">
<title>entrypoint_entry_point_api_project_approve</title>
<!-- entrypoint_entry_point_api_project_approve -->
<g id="node1" class="node">
<title>entrypoint_entry_point_api_project_approve</title>
<polygon fill="#ffffff" stroke="transparent" points="0,-261 0,-425 275,-425 275,-261 0,-261"/>
<polygon fill="#0891b2" stroke="transparent" points="1.5,-416 1.5,-424 274.5,-424 274.5,-416 1.5,-416"/>
<polygon fill="#ecfeff" stroke="transparent" points="1.5,-385 1.5,-416 274.5,-416 274.5,-385 1.5,-385"/>
<text text-anchor="start" x="5.5" y="-402.6" font-family="Arial" font-weight="bold" font-size="13.00">POST /projects/{project_id}/approve</text>
<text text-anchor="start" x="5.5" y="-391.6" font-family="Arial" font-size="8.00" fill="#64748b">http_api entry point</text>
<text text-anchor="start" x="5.5" y="-374" font-family="Arial" font-style="italic" font-size="10.00" fill="#3f3f46">HTTP endpoint for approving submitted dispatch</text>
<text text-anchor="start" x="5.5" y="-363" font-family="Arial" font-style="italic" font-size="10.00" fill="#3f3f46">projects.</text>
<text text-anchor="start" x="6.5" y="-343" font-family="Arial" font-weight="bold" font-size="10.00">endpoint:</text>
<text text-anchor="start" x="51.5" y="-343" font-family="Arial" font-size="10.00">  endpoint.project.approve</text>
<text text-anchor="start" x="6.5" y="-331" font-family="Arial" font-weight="bold" font-size="10.00">authorization_policy:</text>
<text text-anchor="start" x="105.5" y="-331" font-family="Arial" font-size="10.00">  authorization_policy.project.reviewer</text>
<text text-anchor="start" x="5.5" y="-311" font-family="Arial" font-weight="bold" font-size="10.00">path params</text>
<text text-anchor="start" x="5.5" y="-300" font-family="Arial" font-size="10.00">project_id</text>
<text text-anchor="start" x="48.5" y="-300" font-family="Arial" font-size="8.00" fill="#94a3b8">  ID</text>
<text text-anchor="start" x="5.5" y="-281" font-family="Arial" font-weight="bold" font-size="10.00">body</text>
<text text-anchor="start" x="5.5" y="-270" font-family="Arial" font-size="10.00">approved_by</text>
<text text-anchor="start" x="61.5" y="-270" font-family="Arial" font-size="8.00" fill="#94a3b8">  ID</text>
<polygon fill="none" stroke="#0891b2" points="0,-261 0,-425 275,-425 275,-261 0,-261"/>
</g>
<!-- entrypoint_target_application_action_project_approve -->
<g id="node2" class="node">
<title>entrypoint_target_application_action_project_approve</title>
<polygon fill="#ffffff" stroke="transparent" points="336,-276.5 336,-409.5 575,-409.5 575,-276.5 336,-276.5"/>
<polygon fill="#2563eb" stroke="transparent" points="337.5,-400 337.5,-408 574.5,-408 574.5,-400 337.5,-400"/>
<polygon fill="#eff6ff" stroke="transparent" points="337.5,-369 337.5,-400 574.5,-400 574.5,-369 337.5,-369"/>
<text text-anchor="start" x="341.5" y="-386.6" font-family="Arial" font-weight="bold" font-size="13.00">application_action.project.approve</text>
<text text-anchor="start" x="341.5" y="-375.6" font-family="Arial" font-size="8.00" fill="#64748b">target application action</text>
<text text-anchor="start" x="341.5" y="-358" font-family="Arial" font-style="italic" font-size="10.00" fill="#3f3f46">Reviewers can approve submitted dispatch projects.</text>
<text text-anchor="start" x="342.5" y="-338" font-family="Arial" font-weight="bold" font-size="10.00">kind:</text>
<text text-anchor="start" x="366.5" y="-338" font-family="Arial" font-size="10.00">  lifecycle_transition</text>
<text text-anchor="start" x="341.5" y="-318" font-family="Arial" font-weight="bold" font-size="10.00">authorization</text>
<text text-anchor="start" x="341.5" y="-306" font-family="Arial" font-size="10.00">policy: authorization_policy.project.reviewer</text>
<text text-anchor="start" x="341.5" y="-295" font-family="Arial" font-size="10.00">unauthenticated_as: unauthenticated</text>
<text text-anchor="start" x="341.5" y="-284" font-family="Arial" font-size="10.00">forbidden_as: forbidden</text>
<polygon fill="none" stroke="#2563eb" points="336,-276.5 336,-409.5 575,-409.5 575,-276.5 336,-276.5"/>
</g>
<!-- entrypoint_entry_point_api_project_approve&#45;&gt;entrypoint_target_application_action_project_approve -->
<g id="edge1" class="edge">
<title>entrypoint_entry_point_api_project_approve&#45;&gt;entrypoint_target_application_action_project_approve</title>
<path fill="none" stroke="#3f3f46" d="M275.26,-343C292.61,-343 310.3,-343 327.49,-343"/>
<polygon fill="#3f3f46" stroke="#3f3f46" points="327.88,-345.8 335.88,-343 327.88,-340.2 327.88,-345.8"/>
</g>
<!-- entrypoint_response_entry_point_api_project_approve_approved -->
<g id="node3" class="node">
<title>entrypoint_response_entry_point_api_project_approve_approved</title>
<polygon fill="#ffffff" stroke="transparent" points="648.5,-595 648.5,-687 780.5,-687 780.5,-595 648.5,-595"/>
<polygon fill="#16a34a" stroke="transparent" points="649.5,-678 649.5,-686 779.5,-686 779.5,-678 649.5,-678"/>
<polygon fill="#f0fdf4" stroke="transparent" points="649.5,-647 649.5,-678 779.5,-678 779.5,-647 649.5,-647"/>
<text text-anchor="start" x="653.5" y="-664.6" font-family="Arial" font-weight="bold" font-size="13.00">approved</text>
<text text-anchor="start" x="653.5" y="-653.6" font-family="Arial" font-size="8.00" fill="#64748b">success response</text>
<text text-anchor="start" x="654.5" y="-635" font-family="Arial" font-weight="bold" font-size="10.00">status:</text>
<text text-anchor="start" x="685.5" y="-635" font-family="Arial" font-size="10.00">  200</text>
<text text-anchor="start" x="653.5" y="-615" font-family="Arial" font-weight="bold" font-size="10.00">body</text>
<text text-anchor="start" x="653.5" y="-604" font-family="Arial" font-size="10.00">body</text>
<text text-anchor="start" x="675.5" y="-604" font-family="Arial" font-size="8.00" fill="#94a3b8">  Project</text>
<text text-anchor="start" x="705.5" y="-604" font-family="Arial" font-size="8.00"> ← $outcome.result</text>
<polygon fill="none" stroke="#16a34a" points="648.5,-595 648.5,-687 780.5,-687 780.5,-595 648.5,-595"/>
</g>
<!-- entrypoint_target_application_action_project_approve&#45;&gt;entrypoint_response_entry_point_api_project_approve_approved -->
<g id="edge2" class="edge">
<title>entrypoint_target_application_action_project_approve&#45;&gt;entrypoint_response_entry_point_api_project_approve_approved</title>
<path fill="none" stroke="#3f3f46" d="M499.09,-409.51C532.95,-459.76 583.24,-528.9 636,-582 638.41,-584.43 640.93,-586.84 643.52,-589.23"/>
<polygon fill="#3f3f46" stroke="#3f3f46" points="641.85,-591.49 649.67,-594.74 645.58,-587.32 641.85,-591.49"/>
</g>
<!-- entrypoint_response_entry_point_api_project_approve_forbidden -->
<g id="node4" class="node">
<title>entrypoint_response_entry_point_api_project_approve_forbidden</title>
<polygon fill="#ffffff" stroke="transparent" points="646,-476 646,-568 783,-568 783,-476 646,-476"/>
<polygon fill="#dc2626" stroke="transparent" points="647.5,-559 647.5,-567 782.5,-567 782.5,-559 647.5,-559"/>
<polygon fill="#fef2f2" stroke="transparent" points="647.5,-528 647.5,-559 782.5,-559 782.5,-528 647.5,-528"/>
<text text-anchor="start" x="651.5" y="-545.6" font-family="Arial" font-weight="bold" font-size="13.00">forbidden</text>
<text text-anchor="start" x="651.5" y="-534.6" font-family="Arial" font-size="8.00" fill="#64748b">failure response</text>
<text text-anchor="start" x="652.5" y="-516" font-family="Arial" font-weight="bold" font-size="10.00">status:</text>
<text text-anchor="start" x="683.5" y="-516" font-family="Arial" font-size="10.00">  403</text>
<text text-anchor="start" x="651.5" y="-496" font-family="Arial" font-weight="bold" font-size="10.00">body</text>
<text text-anchor="start" x="651.5" y="-485" font-family="Arial" font-size="10.00">body</text>
<text text-anchor="start" x="673.5" y="-485" font-family="Arial" font-size="8.00" fill="#94a3b8">  Problem</text>
<text text-anchor="start" x="708.5" y="-485" font-family="Arial" font-size="8.00"> ← $outcome.result</text>
<polygon fill="none" stroke="#dc2626" points="646,-476 646,-568 783,-568 783,-476 646,-476"/>
</g>
<!-- entrypoint_target_application_action_project_approve&#45;&gt;entrypoint_response_entry_point_api_project_approve_forbidden -->
<g id="edge3" class="edge">
<title>entrypoint_target_application_action_project_approve&#45;&gt;entrypoint_response_entry_point_api_project_approve_forbidden</title>
<path fill="none" stroke="#3f3f46" d="M552.2,-409.65C581.4,-430 613.03,-452.03 640.48,-471.14"/>
<polygon fill="#3f3f46" stroke="#3f3f46" points="639.2,-473.66 647.37,-475.94 642.4,-469.07 639.2,-473.66"/>
</g>
<!-- entrypoint_response_entry_point_api_project_approve_not_found -->
<g id="node5" class="node">
<title>entrypoint_response_entry_point_api_project_approve_not_found</title>
<polygon fill="#ffffff" stroke="transparent" points="646,-357 646,-449 783,-449 783,-357 646,-357"/>
<polygon fill="#dc2626" stroke="transparent" points="647.5,-440 647.5,-448 782.5,-448 782.5,-440 647.5,-440"/>
<polygon fill="#fef2f2" stroke="transparent" points="647.5,-409 647.5,-440 782.5,-440 782.5,-409 647.5,-409"/>
<text text-anchor="start" x="651.5" y="-426.6" font-family="Arial" font-weight="bold" font-size="13.00">not_found</text>
<text text-anchor="start" x="651.5" y="-415.6" font-family="Arial" font-size="8.00" fill="#64748b">failure response</text>
<text text-anchor="start" x="652.5" y="-397" font-family="Arial" font-weight="bold" font-size="10.00">status:</text>
<text text-anchor="start" x="683.5" y="-397" font-family="Arial" font-size="10.00">  404</text>
<text text-anchor="start" x="651.5" y="-377" font-family="Arial" font-weight="bold" font-size="10.00">body</text>
<text text-anchor="start" x="651.5" y="-366" font-family="Arial" font-size="10.00">body</text>
<text text-anchor="start" x="673.5" y="-366" font-family="Arial" font-size="8.00" fill="#94a3b8">  Problem</text>
<text text-anchor="start" x="708.5" y="-366" font-family="Arial" font-size="8.00"> ← $outcome.result</text>
<polygon fill="none" stroke="#dc2626" points="646,-357 646,-449 783,-449 783,-357 646,-357"/>
</g>
<!-- entrypoint_target_application_action_project_approve&#45;&gt;entrypoint_response_entry_point_api_project_approve_not_found -->
<g id="edge4" class="edge">
<title>entrypoint_target_application_action_project_approve&#45;&gt;entrypoint_response_entry_point_api_project_approve_not_found</title>
<path fill="none" stroke="#3f3f46" d="M575.22,-370.72C596.49,-375.68 618.12,-380.73 637.76,-385.32"/>
<polygon fill="#3f3f46" stroke="#3f3f46" points="637.33,-388.09 645.76,-387.18 638.6,-382.64 637.33,-388.09"/>
</g>
<!-- entrypoint_response_entry_point_api_project_approve_transition_not_allowed -->
<g id="node6" class="node">
<title>entrypoint_response_entry_point_api_project_approve_transition_not_allowed</title>
<polygon fill="#ffffff" stroke="transparent" points="636,-238 636,-330 793,-330 793,-238 636,-238"/>
<polygon fill="#dc2626" stroke="transparent" points="637.5,-321 637.5,-329 792.5,-329 792.5,-321 637.5,-321"/>
<polygon fill="#fef2f2" stroke="transparent" points="637.5,-290 637.5,-321 792.5,-321 792.5,-290 637.5,-290"/>
<text text-anchor="start" x="641.5" y="-307.6" font-family="Arial" font-weight="bold" font-size="13.00">transition_not_allowed</text>
<text text-anchor="start" x="641.5" y="-296.6" font-family="Arial" font-size="8.00" fill="#64748b">failure response</text>
<text text-anchor="start" x="642.5" y="-278" font-family="Arial" font-weight="bold" font-size="10.00">status:</text>
<text text-anchor="start" x="673.5" y="-278" font-family="Arial" font-size="10.00">  409</text>
<text text-anchor="start" x="641.5" y="-258" font-family="Arial" font-weight="bold" font-size="10.00">body</text>
<text text-anchor="start" x="641.5" y="-247" font-family="Arial" font-size="10.00">body</text>
<text text-anchor="start" x="663.5" y="-247" font-family="Arial" font-size="8.00" fill="#94a3b8">  Problem</text>
<text text-anchor="start" x="698.5" y="-247" font-family="Arial" font-size="8.00"> ← $outcome.result</text>
<polygon fill="none" stroke="#dc2626" points="636,-238 636,-330 793,-330 793,-238 636,-238"/>
</g>
<!-- entrypoint_target_application_action_project_approve&#45;&gt;entrypoint_response_entry_point_api_project_approve_transition_not_allowed -->
<g id="edge5" class="edge">
<title>entrypoint_target_application_action_project_approve&#45;&gt;entrypoint_response_entry_point_api_project_approve_transition_not_allowed</title>
<path fill="none" stroke="#3f3f46" d="M575.22,-315.75C592.85,-311.7 610.73,-307.59 627.52,-303.74"/>
<polygon fill="#3f3f46" stroke="#3f3f46" points="628.5,-306.39 635.67,-301.87 627.24,-300.93 628.5,-306.39"/>
</g>
<!-- entrypoint_response_entry_point_api_project_approve_unauthenticated -->
<g id="node7" class="node">
<title>entrypoint_response_entry_point_api_project_approve_unauthenticated</title>
<polygon fill="#ffffff" stroke="transparent" points="646,-119 646,-211 783,-211 783,-119 646,-119"/>
<polygon fill="#dc2626" stroke="transparent" points="647.5,-202 647.5,-210 782.5,-210 782.5,-202 647.5,-202"/>
<polygon fill="#fef2f2" stroke="transparent" points="647.5,-171 647.5,-202 782.5,-202 782.5,-171 647.5,-171"/>
<text text-anchor="start" x="651.5" y="-188.6" font-family="Arial" font-weight="bold" font-size="13.00">unauthenticated</text>
<text text-anchor="start" x="651.5" y="-177.6" font-family="Arial" font-size="8.00" fill="#64748b">failure response</text>
<text text-anchor="start" x="652.5" y="-159" font-family="Arial" font-weight="bold" font-size="10.00">status:</text>
<text text-anchor="start" x="683.5" y="-159" font-family="Arial" font-size="10.00">  401</text>
<text text-anchor="start" x="651.5" y="-139" font-family="Arial" font-weight="bold" font-size="10.00">body</text>
<text text-anchor="start" x="651.5" y="-128" font-family="Arial" font-size="10.00">body</text>
<text text-anchor="start" x="673.5" y="-128" font-family="Arial" font-size="8.00" fill="#94a3b8">  Problem</text>
<text text-anchor="start" x="708.5" y="-128" font-family="Arial" font-size="8.00"> ← $outcome.result</text>
<polygon fill="none" stroke="#dc2626" points="646,-119 646,-211 783,-211 783,-119 646,-119"/>
</g>
<!-- entrypoint_target_application_action_project_approve&#45;&gt;entrypoint_response_entry_point_api_project_approve_unauthenticated -->
<g id="edge6" class="edge">
<title>entrypoint_target_application_action_project_approve&#45;&gt;entrypoint_response_entry_point_api_project_approve_unauthenticated</title>
<path fill="none" stroke="#3f3f46" d="M552.56,-276.47C581.48,-256.44 612.74,-234.79 639.95,-215.94"/>
<polygon fill="#3f3f46" stroke="#3f3f46" points="641.79,-218.07 646.78,-211.21 638.6,-213.47 641.79,-218.07"/>
</g>
<!-- entrypoint_response_entry_point_api_project_approve_unavailable -->
<g id="node8" class="node">
<title>entrypoint_response_entry_point_api_project_approve_unavailable</title>
<polygon fill="#ffffff" stroke="transparent" points="646,0 646,-92 783,-92 783,0 646,0"/>
<polygon fill="#dc2626" stroke="transparent" points="647.5,-83 647.5,-91 782.5,-91 782.5,-83 647.5,-83"/>
<polygon fill="#fef2f2" stroke="transparent" points="647.5,-52 647.5,-83 782.5,-83 782.5,-52 647.5,-52"/>
<text text-anchor="start" x="651.5" y="-69.6" font-family="Arial" font-weight="bold" font-size="13.00">unavailable</text>
<text text-anchor="start" x="651.5" y="-58.6" font-family="Arial" font-size="8.00" fill="#64748b">failure response</text>
<text text-anchor="start" x="652.5" y="-40" font-family="Arial" font-weight="bold" font-size="10.00">status:</text>
<text text-anchor="start" x="683.5" y="-40" font-family="Arial" font-size="10.00">  503</text>
<text text-anchor="start" x="651.5" y="-20" font-family="Arial" font-weight="bold" font-size="10.00">body</text>
<text text-anchor="start" x="651.5" y="-9" font-family="Arial" font-size="10.00">body</text>
<text text-anchor="start" x="673.5" y="-9" font-family="Arial" font-size="8.00" fill="#94a3b8">  Problem</text>
<text text-anchor="start" x="708.5" y="-9" font-family="Arial" font-size="8.00"> ← $outcome.result</text>
<polygon fill="none" stroke="#dc2626" points="646,0 646,-92 783,-92 783,0 646,0"/>
</g>
<!-- entrypoint_target_application_action_project_approve&#45;&gt;entrypoint_response_entry_point_api_project_approve_unavailable -->
<g id="edge7" class="edge">
<title>entrypoint_target_application_action_project_approve&#45;&gt;entrypoint_response_entry_point_api_project_approve_unavailable</title>
<path fill="none" stroke="#3f3f46" d="M499.85,-276.42C533.81,-226.74 583.9,-158.65 636,-106 638.77,-103.2 641.68,-100.41 644.67,-97.66"/>
<polygon fill="#3f3f46" stroke="#3f3f46" points="646.81,-99.5 650.91,-92.08 643.08,-95.33 646.81,-99.5"/>
</g>
<!-- entrypoint_response_entry_point_api_project_approve_approved&#45;&gt;entrypoint_response_entry_point_api_project_approve_forbidden -->
<!-- entrypoint_response_entry_point_api_project_approve_forbidden&#45;&gt;entrypoint_response_entry_point_api_project_approve_not_found -->
<!-- entrypoint_response_entry_point_api_project_approve_not_found&#45;&gt;entrypoint_response_entry_point_api_project_approve_transition_not_allowed -->
<!-- entrypoint_response_entry_point_api_project_approve_transition_not_allowed&#45;&gt;entrypoint_response_entry_point_api_project_approve_unauthenticated -->
<!-- entrypoint_response_entry_point_api_project_approve_unauthenticated&#45;&gt;entrypoint_response_entry_point_api_project_approve_unavailable -->
</g>
</svg>
