<svg width="807pt" height="485pt"
 viewBox="0.00 0.00 807.00 485.00" xmlns="http://www.w3.org/2000/svg" xmlns:xlink="http://www.w3.org/1999/xlink">
<!-- pyspec-contract-input-sha256: 5de48af9048e446c37002dbb9db4e7fd7cc4f3364b12b5743eaa9197a6e3bfdc -->
<g id="graph0" class="graph" transform="scale(1 1) rotate(0) translate(18 467)">
<title>entrypoint_entry_point_api_project_approve</title>
<!-- entrypoint_entry_point_api_project_approve -->
<g id="node1" class="node">
<title>entrypoint_entry_point_api_project_approve</title>
<polygon fill="#ffffff" stroke="transparent" points="0,-142 0,-306 273,-306 273,-142 0,-142"/>
<polygon fill="#0891b2" stroke="transparent" points="1.5,-297 1.5,-305 272.5,-305 272.5,-297 1.5,-297"/>
<polygon fill="#ecfeff" stroke="transparent" points="1.5,-266 1.5,-297 272.5,-297 272.5,-266 1.5,-266"/>
<text text-anchor="start" x="5.5" y="-283.6" font-family="Arial" font-weight="bold" font-size="13.00">POST /projects/{project_id}/approve</text>
<text text-anchor="start" x="5.5" y="-272.6" font-family="Arial" font-size="8.00" fill="#64748b">http_api entry point</text>
<text text-anchor="start" x="5.5" y="-255" font-family="Arial" font-style="italic" font-size="10.00" fill="#3f3f46">HTTP endpoint for approving submitted dispatch</text>
<text text-anchor="start" x="5.5" y="-244" font-family="Arial" font-style="italic" font-size="10.00" fill="#3f3f46">projects.</text>
<text text-anchor="start" x="6.5" y="-224" font-family="Arial" font-weight="bold" font-size="10.00">endpoint:</text>
<text text-anchor="start" x="51.5" y="-224" font-family="Arial" font-size="10.00">  endpoint.project.approve</text>
<text text-anchor="start" x="6.5" y="-212" font-family="Arial" font-weight="bold" font-size="10.00">authorization_policy:</text>
<text text-anchor="start" x="105.5" y="-212" font-family="Arial" font-size="10.00">  authorization_policy.project.approve</text>
<text text-anchor="start" x="5.5" y="-192" font-family="Arial" font-weight="bold" font-size="10.00">path params</text>
<text text-anchor="start" x="5.5" y="-181" font-family="Arial" font-size="10.00">project_id</text>
<text text-anchor="start" x="48.5" y="-181" font-family="Arial" font-size="8.00" fill="#94a3b8">  ID</text>
<text text-anchor="start" x="5.5" y="-162" font-family="Arial" font-weight="bold" font-size="10.00">body</text>
<text text-anchor="start" x="5.5" y="-151" font-family="Arial" font-size="10.00">approved_by</text>
<text text-anchor="start" x="61.5" y="-151" font-family="Arial" font-size="8.00" fill="#94a3b8">  ID</text>
<polygon fill="none" stroke="#0891b2" points="0,-142 0,-306 273,-306 273,-142 0,-142"/>
</g>
<!-- entrypoint_target_operation_project_approve -->
<g id="node2" class="node">
<title>entrypoint_target_operation_project_approve</title>
<polygon fill="#ffffff" stroke="transparent" points="334,-183.5 334,-264.5 573,-264.5 573,-183.5 334,-183.5"/>
<polygon fill="#2563eb" stroke="transparent" points="335.5,-255 335.5,-263 572.5,-263 572.5,-255 335.5,-255"/>
<polygon fill="#eff6ff" stroke="transparent" points="335.5,-224 335.5,-255 572.5,-255 572.5,-224 335.5,-224"/>
<text text-anchor="start" x="339.5" y="-241.6" font-family="Arial" font-weight="bold" font-size="13.00">operation.project.approve</text>
<text text-anchor="start" x="339.5" y="-230.6" font-family="Arial" font-size="8.00" fill="#64748b">target operation</text>
<text text-anchor="start" x="339.5" y="-213" font-family="Arial" font-style="italic" font-size="10.00" fill="#3f3f46">Reviewers can approve submitted dispatch projects.</text>
<text text-anchor="start" x="340.5" y="-193" font-family="Arial" font-weight="bold" font-size="10.00">kind:</text>
<text text-anchor="start" x="364.5" y="-193" font-family="Arial" font-size="10.00">  transition</text>
<polygon fill="none" stroke="#2563eb" points="334,-183.5 334,-264.5 573,-264.5 573,-183.5 334,-183.5"/>
</g>
<!-- entrypoint_entry_point_api_project_approve&#45;&gt;entrypoint_target_operation_project_approve -->
<g id="edge1" class="edge">
<title>entrypoint_entry_point_api_project_approve&#45;&gt;entrypoint_target_operation_project_approve</title>
<path fill="none" stroke="#3f3f46" d="M273.37,-224C290.69,-224 308.36,-224 325.53,-224"/>
<polygon fill="#3f3f46" stroke="#3f3f46" points="325.91,-226.8 333.91,-224 325.91,-221.2 325.91,-226.8"/>
</g>
<!-- entrypoint_response_entry_point_api_project_approve_approved -->
<g id="node3" class="node">
<title>entrypoint_response_entry_point_api_project_approve_approved</title>
<polygon fill="#ffffff" stroke="transparent" points="636.5,-357 636.5,-449 768.5,-449 768.5,-357 636.5,-357"/>
<polygon fill="#16a34a" stroke="transparent" points="637.5,-440 637.5,-448 767.5,-448 767.5,-440 637.5,-440"/>
<polygon fill="#f0fdf4" stroke="transparent" points="637.5,-409 637.5,-440 767.5,-440 767.5,-409 637.5,-409"/>
<text text-anchor="start" x="641.5" y="-426.6" font-family="Arial" font-weight="bold" font-size="13.00">approved</text>
<text text-anchor="start" x="641.5" y="-415.6" font-family="Arial" font-size="8.00" fill="#64748b">success response</text>
<text text-anchor="start" x="642.5" y="-397" font-family="Arial" font-weight="bold" font-size="10.00">status:</text>
<text text-anchor="start" x="673.5" y="-397" font-family="Arial" font-size="10.00">  200</text>
<text text-anchor="start" x="641.5" y="-377" font-family="Arial" font-weight="bold" font-size="10.00">body</text>
<text text-anchor="start" x="641.5" y="-366" font-family="Arial" font-size="10.00">body</text>
<text text-anchor="start" x="663.5" y="-366" font-family="Arial" font-size="8.00" fill="#94a3b8">  Project</text>
<text text-anchor="start" x="693.5" y="-366" font-family="Arial" font-size="8.00"> ← $outcome.result</text>
<polygon fill="none" stroke="#16a34a" points="636.5,-357 636.5,-449 768.5,-449 768.5,-357 636.5,-357"/>
</g>
<!-- entrypoint_target_operation_project_approve&#45;&gt;entrypoint_response_entry_point_api_project_approve_approved -->
<g id="edge2" class="edge">
<title>entrypoint_target_operation_project_approve&#45;&gt;entrypoint_response_entry_point_api_project_approve_approved</title>
<path fill="none" stroke="#3f3f46" d="M510.55,-264.62C546.34,-290.56 593.03,-324.39 631.29,-352.12"/>
<polygon fill="#3f3f46" stroke="#3f3f46" points="629.72,-354.44 637.84,-356.86 633,-349.9 629.72,-354.44"/>
</g>
<!-- entrypoint_response_entry_point_api_project_approve_invalid_state -->
<g id="node4" class="node">
<title>entrypoint_response_entry_point_api_project_approve_invalid_state</title>
<polygon fill="#ffffff" stroke="transparent" points="634,-238 634,-330 771,-330 771,-238 634,-238"/>
<polygon fill="#dc2626" stroke="transparent" points="635.5,-321 635.5,-329 770.5,-329 770.5,-321 635.5,-321"/>
<polygon fill="#fef2f2" stroke="transparent" points="635.5,-290 635.5,-321 770.5,-321 770.5,-290 635.5,-290"/>
<text text-anchor="start" x="639.5" y="-307.6" font-family="Arial" font-weight="bold" font-size="13.00">invalid_state</text>
<text text-anchor="start" x="639.5" y="-296.6" font-family="Arial" font-size="8.00" fill="#64748b">failure response</text>
<text text-anchor="start" x="640.5" y="-278" font-family="Arial" font-weight="bold" font-size="10.00">status:</text>
<text text-anchor="start" x="671.5" y="-278" font-family="Arial" font-size="10.00">  409</text>
<text text-anchor="start" x="639.5" y="-258" font-family="Arial" font-weight="bold" font-size="10.00">body</text>
<text text-anchor="start" x="639.5" y="-247" font-family="Arial" font-size="10.00">body</text>
<text text-anchor="start" x="661.5" y="-247" font-family="Arial" font-size="8.00" fill="#94a3b8">  Problem</text>
<text text-anchor="start" x="696.5" y="-247" font-family="Arial" font-size="8.00"> ← $outcome.result</text>
<polygon fill="none" stroke="#dc2626" points="634,-238 634,-330 771,-330 771,-238 634,-238"/>
</g>
<!-- entrypoint_target_operation_project_approve&#45;&gt;entrypoint_response_entry_point_api_project_approve_invalid_state -->
<g id="edge3" class="edge">
<title>entrypoint_target_operation_project_approve&#45;&gt;entrypoint_response_entry_point_api_project_approve_invalid_state</title>
<path fill="none" stroke="#3f3f46" d="M573.3,-252.86C591.14,-257.19 609.11,-261.56 625.73,-265.59"/>
<polygon fill="#3f3f46" stroke="#3f3f46" points="625.33,-268.38 633.77,-267.55 626.65,-262.94 625.33,-268.38"/>
</g>
<!-- entrypoint_response_entry_point_api_project_approve_not_found -->
<g id="node5" class="node">
<title>entrypoint_response_entry_point_api_project_approve_not_found</title>
<polygon fill="#ffffff" stroke="transparent" points="634,-119 634,-211 771,-211 771,-119 634,-119"/>
<polygon fill="#dc2626" stroke="transparent" points="635.5,-202 635.5,-210 770.5,-210 770.5,-202 635.5,-202"/>
<polygon fill="#fef2f2" stroke="transparent" points="635.5,-171 635.5,-202 770.5,-202 770.5,-171 635.5,-171"/>
<text text-anchor="start" x="639.5" y="-188.6" font-family="Arial" font-weight="bold" font-size="13.00">not_found</text>
<text text-anchor="start" x="639.5" y="-177.6" font-family="Arial" font-size="8.00" fill="#64748b">failure response</text>
<text text-anchor="start" x="640.5" y="-159" font-family="Arial" font-weight="bold" font-size="10.00">status:</text>
<text text-anchor="start" x="671.5" y="-159" font-family="Arial" font-size="10.00">  404</text>
<text text-anchor="start" x="639.5" y="-139" font-family="Arial" font-weight="bold" font-size="10.00">body</text>
<text text-anchor="start" x="639.5" y="-128" font-family="Arial" font-size="10.00">body</text>
<text text-anchor="start" x="661.5" y="-128" font-family="Arial" font-size="8.00" fill="#94a3b8">  Problem</text>
<text text-anchor="start" x="696.5" y="-128" font-family="Arial" font-size="8.00"> ← $outcome.result</text>
<polygon fill="none" stroke="#dc2626" points="634,-119 634,-211 771,-211 771,-119 634,-119"/>
</g>
<!-- entrypoint_target_operation_project_approve&#45;&gt;entrypoint_response_entry_point_api_project_approve_not_found -->
<g id="edge4" class="edge">
<title>entrypoint_target_operation_project_approve&#45;&gt;entrypoint_response_entry_point_api_project_approve_not_found</title>
<path fill="none" stroke="#3f3f46" d="M573.3,-195.62C591.14,-191.36 609.11,-187.07 625.73,-183.1"/>
<polygon fill="#3f3f46" stroke="#3f3f46" points="626.64,-185.76 633.77,-181.18 625.33,-180.31 626.64,-185.76"/>
</g>
<!-- entrypoint_response_entry_point_api_project_approve_unavailable -->
<g id="node6" class="node">
<title>entrypoint_response_entry_point_api_project_approve_unavailable</title>
<polygon fill="#ffffff" stroke="transparent" points="634,0 634,-92 771,-92 771,0 634,0"/>
<polygon fill="#dc2626" stroke="transparent" points="635.5,-83 635.5,-91 770.5,-91 770.5,-83 635.5,-83"/>
<polygon fill="#fef2f2" stroke="transparent" points="635.5,-52 635.5,-83 770.5,-83 770.5,-52 635.5,-52"/>
<text text-anchor="start" x="639.5" y="-69.6" font-family="Arial" font-weight="bold" font-size="13.00">unavailable</text>
<text text-anchor="start" x="639.5" y="-58.6" font-family="Arial" font-size="8.00" fill="#64748b">failure response</text>
<text text-anchor="start" x="640.5" y="-40" font-family="Arial" font-weight="bold" font-size="10.00">status:</text>
<text text-anchor="start" x="671.5" y="-40" font-family="Arial" font-size="10.00">  503</text>
<text text-anchor="start" x="639.5" y="-20" font-family="Arial" font-weight="bold" font-size="10.00">body</text>
<text text-anchor="start" x="639.5" y="-9" font-family="Arial" font-size="10.00">body</text>
<text text-anchor="start" x="661.5" y="-9" font-family="Arial" font-size="8.00" fill="#94a3b8">  Problem</text>
<text text-anchor="start" x="696.5" y="-9" font-family="Arial" font-size="8.00"> ← $outcome.result</text>
<polygon fill="none" stroke="#dc2626" points="634,0 634,-92 771,-92 771,0 634,0"/>
</g>
<!-- entrypoint_target_operation_project_approve&#45;&gt;entrypoint_response_entry_point_api_project_approve_unavailable -->
<g id="edge5" class="edge">
<title>entrypoint_target_operation_project_approve&#45;&gt;entrypoint_response_entry_point_api_project_approve_unavailable</title>
<path fill="none" stroke="#3f3f46" d="M510.86,-183.39C546.53,-157.68 592.93,-124.24 631.02,-96.79"/>
<polygon fill="#3f3f46" stroke="#3f3f46" points="632.69,-99.04 637.55,-92.09 629.42,-94.49 632.69,-99.04"/>
</g>
<!-- entrypoint_response_entry_point_api_project_approve_approved&#45;&gt;entrypoint_response_entry_point_api_project_approve_invalid_state -->
<!-- entrypoint_response_entry_point_api_project_approve_invalid_state&#45;&gt;entrypoint_response_entry_point_api_project_approve_not_found -->
<!-- entrypoint_response_entry_point_api_project_approve_not_found&#45;&gt;entrypoint_response_entry_point_api_project_approve_unavailable -->
</g>
</svg>
