<svg width="807pt" height="723pt"
 viewBox="0.00 0.00 807.00 723.00" xmlns="http://www.w3.org/2000/svg" xmlns:xlink="http://www.w3.org/1999/xlink">
<!-- pyspec-contract-input-sha256: f3c1efb55117ec5071b93ba027e8162494493b1148bcf8c00c18c782d4875819 -->
<g id="graph0" class="graph" transform="scale(1 1) rotate(0) translate(18 705)">
<title>entrypoint_entry_point_api_project_approve</title>
<!-- entrypoint_entry_point_api_project_approve -->
<g id="node1" class="node">
<title>entrypoint_entry_point_api_project_approve</title>
<polygon fill="#ffffff" stroke="transparent" points="0,-261 0,-425 273,-425 273,-261 0,-261"/>
<polygon fill="#0891b2" stroke="transparent" points="1.5,-416 1.5,-424 272.5,-424 272.5,-416 1.5,-416"/>
<polygon fill="#ecfeff" stroke="transparent" points="1.5,-385 1.5,-416 272.5,-416 272.5,-385 1.5,-385"/>
<text text-anchor="start" x="5.5" y="-402.6" font-family="Arial" font-weight="bold" font-size="13.00">POST /projects/{project_id}/approve</text>
<text text-anchor="start" x="5.5" y="-391.6" font-family="Arial" font-size="8.00" fill="#64748b">http_api entry point</text>
<text text-anchor="start" x="5.5" y="-374" font-family="Arial" font-style="italic" font-size="10.00" fill="#3f3f46">HTTP endpoint for approving submitted dispatch</text>
<text text-anchor="start" x="5.5" y="-363" font-family="Arial" font-style="italic" font-size="10.00" fill="#3f3f46">projects.</text>
<text text-anchor="start" x="6.5" y="-343" font-family="Arial" font-weight="bold" font-size="10.00">endpoint:</text>
<text text-anchor="start" x="51.5" y="-343" font-family="Arial" font-size="10.00">  endpoint.project.approve</text>
<text text-anchor="start" x="6.5" y="-331" font-family="Arial" font-weight="bold" font-size="10.00">authorization_policy:</text>
<text text-anchor="start" x="105.5" y="-331" font-family="Arial" font-size="10.00">  authorization_policy.project.approve</text>
<text text-anchor="start" x="5.5" y="-311" font-family="Arial" font-weight="bold" font-size="10.00">path params</text>
<text text-anchor="start" x="5.5" y="-300" font-family="Arial" font-size="10.00">project_id</text>
<text text-anchor="start" x="48.5" y="-300" font-family="Arial" font-size="8.00" fill="#94a3b8">  ID</text>
<text text-anchor="start" x="5.5" y="-281" font-family="Arial" font-weight="bold" font-size="10.00">body</text>
<text text-anchor="start" x="5.5" y="-270" font-family="Arial" font-size="10.00">approved_by</text>
<text text-anchor="start" x="61.5" y="-270" font-family="Arial" font-size="8.00" fill="#94a3b8">  ID</text>
<polygon fill="none" stroke="#0891b2" points="0,-261 0,-425 273,-425 273,-261 0,-261"/>
</g>
<!-- entrypoint_target_operation_project_approve -->
<g id="node2" class="node">
<title>entrypoint_target_operation_project_approve</title>
<polygon fill="#ffffff" stroke="transparent" points="334,-276.5 334,-409.5 573,-409.5 573,-276.5 334,-276.5"/>
<polygon fill="#2563eb" stroke="transparent" points="335.5,-400 335.5,-408 572.5,-408 572.5,-400 335.5,-400"/>
<polygon fill="#eff6ff" stroke="transparent" points="335.5,-369 335.5,-400 572.5,-400 572.5,-369 335.5,-369"/>
<text text-anchor="start" x="339.5" y="-386.6" font-family="Arial" font-weight="bold" font-size="13.00">operation.project.approve</text>
<text text-anchor="start" x="339.5" y="-375.6" font-family="Arial" font-size="8.00" fill="#64748b">target operation</text>
<text text-anchor="start" x="339.5" y="-358" font-family="Arial" font-style="italic" font-size="10.00" fill="#3f3f46">Reviewers can approve submitted dispatch projects.</text>
<text text-anchor="start" x="340.5" y="-338" font-family="Arial" font-weight="bold" font-size="10.00">kind:</text>
<text text-anchor="start" x="364.5" y="-338" font-family="Arial" font-size="10.00">  transition</text>
<text text-anchor="start" x="339.5" y="-318" font-family="Arial" font-weight="bold" font-size="10.00">authorization</text>
<text text-anchor="start" x="339.5" y="-306" font-family="Arial" font-size="10.00">policy: authorization_policy.project.approve</text>
<text text-anchor="start" x="339.5" y="-295" font-family="Arial" font-size="10.00">unauthenticated_as: unauthenticated</text>
<text text-anchor="start" x="339.5" y="-284" font-family="Arial" font-size="10.00">forbidden_as: forbidden</text>
<polygon fill="none" stroke="#2563eb" points="334,-276.5 334,-409.5 573,-409.5 573,-276.5 334,-276.5"/>
</g>
<!-- entrypoint_entry_point_api_project_approve&#45;&gt;entrypoint_target_operation_project_approve -->
<g id="edge1" class="edge">
<title>entrypoint_entry_point_api_project_approve&#45;&gt;entrypoint_target_operation_project_approve</title>
<path fill="none" stroke="#3f3f46" d="M273.37,-343C290.69,-343 308.36,-343 325.53,-343"/>
<polygon fill="#3f3f46" stroke="#3f3f46" points="325.91,-345.8 333.91,-343 325.91,-340.2 325.91,-345.8"/>
</g>
<!-- entrypoint_response_entry_point_api_project_approve_approved -->
<g id="node3" class="node">
<title>entrypoint_response_entry_point_api_project_approve_approved</title>
<polygon fill="#ffffff" stroke="transparent" points="636.5,-595 636.5,-687 768.5,-687 768.5,-595 636.5,-595"/>
<polygon fill="#16a34a" stroke="transparent" points="637.5,-678 637.5,-686 767.5,-686 767.5,-678 637.5,-678"/>
<polygon fill="#f0fdf4" stroke="transparent" points="637.5,-647 637.5,-678 767.5,-678 767.5,-647 637.5,-647"/>
<text text-anchor="start" x="641.5" y="-664.6" font-family="Arial" font-weight="bold" font-size="13.00">approved</text>
<text text-anchor="start" x="641.5" y="-653.6" font-family="Arial" font-size="8.00" fill="#64748b">success response</text>
<text text-anchor="start" x="642.5" y="-635" font-family="Arial" font-weight="bold" font-size="10.00">status:</text>
<text text-anchor="start" x="673.5" y="-635" font-family="Arial" font-size="10.00">  200</text>
<text text-anchor="start" x="641.5" y="-615" font-family="Arial" font-weight="bold" font-size="10.00">body</text>
<text text-anchor="start" x="641.5" y="-604" font-family="Arial" font-size="10.00">body</text>
<text text-anchor="start" x="663.5" y="-604" font-family="Arial" font-size="8.00" fill="#94a3b8">  Project</text>
<text text-anchor="start" x="693.5" y="-604" font-family="Arial" font-size="8.00"> ← $outcome.result</text>
<polygon fill="none" stroke="#16a34a" points="636.5,-595 636.5,-687 768.5,-687 768.5,-595 636.5,-595"/>
</g>
<!-- entrypoint_target_operation_project_approve&#45;&gt;entrypoint_response_entry_point_api_project_approve_approved -->
<g id="edge2" class="edge">
<title>entrypoint_target_operation_project_approve&#45;&gt;entrypoint_response_entry_point_api_project_approve_approved</title>
<path fill="none" stroke="#3f3f46" d="M498.85,-409.54C533.24,-459.18 583.42,-527.52 634,-582 636.26,-584.44 638.62,-586.88 641.04,-589.31"/>
<polygon fill="#3f3f46" stroke="#3f3f46" points="639.11,-591.34 646.78,-594.94 643.03,-587.34 639.11,-591.34"/>
</g>
<!-- entrypoint_response_entry_point_api_project_approve_forbidden -->
<g id="node4" class="node">
<title>entrypoint_response_entry_point_api_project_approve_forbidden</title>
<polygon fill="#ffffff" stroke="transparent" points="634,-476 634,-568 771,-568 771,-476 634,-476"/>
<polygon fill="#dc2626" stroke="transparent" points="635.5,-559 635.5,-567 770.5,-567 770.5,-559 635.5,-559"/>
<polygon fill="#fef2f2" stroke="transparent" points="635.5,-528 635.5,-559 770.5,-559 770.5,-528 635.5,-528"/>
<text text-anchor="start" x="639.5" y="-545.6" font-family="Arial" font-weight="bold" font-size="13.00">forbidden</text>
<text text-anchor="start" x="639.5" y="-534.6" font-family="Arial" font-size="8.00" fill="#64748b">failure response</text>
<text text-anchor="start" x="640.5" y="-516" font-family="Arial" font-weight="bold" font-size="10.00">status:</text>
<text text-anchor="start" x="671.5" y="-516" font-family="Arial" font-size="10.00">  403</text>
<text text-anchor="start" x="639.5" y="-496" font-family="Arial" font-weight="bold" font-size="10.00">body</text>
<text text-anchor="start" x="639.5" y="-485" font-family="Arial" font-size="10.00">body</text>
<text text-anchor="start" x="661.5" y="-485" font-family="Arial" font-size="8.00" fill="#94a3b8">  Problem</text>
<text text-anchor="start" x="696.5" y="-485" font-family="Arial" font-size="8.00"> ← $outcome.result</text>
<polygon fill="none" stroke="#dc2626" points="634,-476 634,-568 771,-568 771,-476 634,-476"/>
</g>
<!-- entrypoint_target_operation_project_approve&#45;&gt;entrypoint_response_entry_point_api_project_approve_forbidden -->
<g id="edge3" class="edge">
<title>entrypoint_target_operation_project_approve&#45;&gt;entrypoint_response_entry_point_api_project_approve_forbidden</title>
<path fill="none" stroke="#3f3f46" d="M546.47,-409.65C574.54,-430 604.94,-452.03 631.32,-471.14"/>
<polygon fill="#3f3f46" stroke="#3f3f46" points="629.82,-473.51 637.94,-475.94 633.11,-468.98 629.82,-473.51"/>
</g>
<!-- entrypoint_response_entry_point_api_project_approve_invalid_state -->
<g id="node5" class="node">
<title>entrypoint_response_entry_point_api_project_approve_invalid_state</title>
<polygon fill="#ffffff" stroke="transparent" points="634,-357 634,-449 771,-449 771,-357 634,-357"/>
<polygon fill="#dc2626" stroke="transparent" points="635.5,-440 635.5,-448 770.5,-448 770.5,-440 635.5,-440"/>
<polygon fill="#fef2f2" stroke="transparent" points="635.5,-409 635.5,-440 770.5,-440 770.5,-409 635.5,-409"/>
<text text-anchor="start" x="639.5" y="-426.6" font-family="Arial" font-weight="bold" font-size="13.00">invalid_state</text>
<text text-anchor="start" x="639.5" y="-415.6" font-family="Arial" font-size="8.00" fill="#64748b">failure response</text>
<text text-anchor="start" x="640.5" y="-397" font-family="Arial" font-weight="bold" font-size="10.00">status:</text>
<text text-anchor="start" x="671.5" y="-397" font-family="Arial" font-size="10.00">  409</text>
<text text-anchor="start" x="639.5" y="-377" font-family="Arial" font-weight="bold" font-size="10.00">body</text>
<text text-anchor="start" x="639.5" y="-366" font-family="Arial" font-size="10.00">body</text>
<text text-anchor="start" x="661.5" y="-366" font-family="Arial" font-size="8.00" fill="#94a3b8">  Problem</text>
<text text-anchor="start" x="696.5" y="-366" font-family="Arial" font-size="8.00"> ← $outcome.result</text>
<polygon fill="none" stroke="#dc2626" points="634,-357 634,-449 771,-449 771,-357 634,-357"/>
</g>
<!-- entrypoint_target_operation_project_approve&#45;&gt;entrypoint_response_entry_point_api_project_approve_invalid_state -->
<g id="edge4" class="edge">
<title>entrypoint_target_operation_project_approve&#45;&gt;entrypoint_response_entry_point_api_project_approve_invalid_state</title>
<path fill="none" stroke="#3f3f46" d="M573.3,-371.86C591.14,-376.19 609.11,-380.56 625.73,-384.59"/>
<polygon fill="#3f3f46" stroke="#3f3f46" points="625.33,-387.38 633.77,-386.55 626.65,-381.94 625.33,-387.38"/>
</g>
<!-- entrypoint_response_entry_point_api_project_approve_not_found -->
<g id="node6" class="node">
<title>entrypoint_response_entry_point_api_project_approve_not_found</title>
<polygon fill="#ffffff" stroke="transparent" points="634,-238 634,-330 771,-330 771,-238 634,-238"/>
<polygon fill="#dc2626" stroke="transparent" points="635.5,-321 635.5,-329 770.5,-329 770.5,-321 635.5,-321"/>
<polygon fill="#fef2f2" stroke="transparent" points="635.5,-290 635.5,-321 770.5,-321 770.5,-290 635.5,-290"/>
<text text-anchor="start" x="639.5" y="-307.6" font-family="Arial" font-weight="bold" font-size="13.00">not_found</text>
<text text-anchor="start" x="639.5" y="-296.6" font-family="Arial" font-size="8.00" fill="#64748b">failure response</text>
<text text-anchor="start" x="640.5" y="-278" font-family="Arial" font-weight="bold" font-size="10.00">status:</text>
<text text-anchor="start" x="671.5" y="-278" font-family="Arial" font-size="10.00">  404</text>
<text text-anchor="start" x="639.5" y="-258" font-family="Arial" font-weight="bold" font-size="10.00">body</text>
<text text-anchor="start" x="639.5" y="-247" font-family="Arial" font-size="10.00">body</text>
<text text-anchor="start" x="661.5" y="-247" font-family="Arial" font-size="8.00" fill="#94a3b8">  Problem</text>
<text text-anchor="start" x="696.5" y="-247" font-family="Arial" font-size="8.00"> ← $outcome.result</text>
<polygon fill="none" stroke="#dc2626" points="634,-238 634,-330 771,-330 771,-238 634,-238"/>
</g>
<!-- entrypoint_target_operation_project_approve&#45;&gt;entrypoint_response_entry_point_api_project_approve_not_found -->
<g id="edge5" class="edge">
<title>entrypoint_target_operation_project_approve&#45;&gt;entrypoint_response_entry_point_api_project_approve_not_found</title>
<path fill="none" stroke="#3f3f46" d="M573.3,-314.62C591.14,-310.36 609.11,-306.07 625.73,-302.1"/>
<polygon fill="#3f3f46" stroke="#3f3f46" points="626.64,-304.76 633.77,-300.18 625.33,-299.31 626.64,-304.76"/>
</g>
<!-- entrypoint_response_entry_point_api_project_approve_unauthenticated -->
<g id="node7" class="node">
<title>entrypoint_response_entry_point_api_project_approve_unauthenticated</title>
<polygon fill="#ffffff" stroke="transparent" points="634,-119 634,-211 771,-211 771,-119 634,-119"/>
<polygon fill="#dc2626" stroke="transparent" points="635.5,-202 635.5,-210 770.5,-210 770.5,-202 635.5,-202"/>
<polygon fill="#fef2f2" stroke="transparent" points="635.5,-171 635.5,-202 770.5,-202 770.5,-171 635.5,-171"/>
<text text-anchor="start" x="639.5" y="-188.6" font-family="Arial" font-weight="bold" font-size="13.00">unauthenticated</text>
<text text-anchor="start" x="639.5" y="-177.6" font-family="Arial" font-size="8.00" fill="#64748b">failure response</text>
<text text-anchor="start" x="640.5" y="-159" font-family="Arial" font-weight="bold" font-size="10.00">status:</text>
<text text-anchor="start" x="671.5" y="-159" font-family="Arial" font-size="10.00">  401</text>
<text text-anchor="start" x="639.5" y="-139" font-family="Arial" font-weight="bold" font-size="10.00">body</text>
<text text-anchor="start" x="639.5" y="-128" font-family="Arial" font-size="10.00">body</text>
<text text-anchor="start" x="661.5" y="-128" font-family="Arial" font-size="8.00" fill="#94a3b8">  Problem</text>
<text text-anchor="start" x="696.5" y="-128" font-family="Arial" font-size="8.00"> ← $outcome.result</text>
<polygon fill="none" stroke="#dc2626" points="634,-119 634,-211 771,-211 771,-119 634,-119"/>
</g>
<!-- entrypoint_target_operation_project_approve&#45;&gt;entrypoint_response_entry_point_api_project_approve_unauthenticated -->
<g id="edge6" class="edge">
<title>entrypoint_target_operation_project_approve&#45;&gt;entrypoint_response_entry_point_api_project_approve_unauthenticated</title>
<path fill="none" stroke="#3f3f46" d="M546.82,-276.47C574.62,-256.44 604.66,-234.79 630.81,-215.94"/>
<polygon fill="#3f3f46" stroke="#3f3f46" points="632.52,-218.16 637.37,-211.21 629.24,-213.62 632.52,-218.16"/>
</g>
<!-- entrypoint_response_entry_point_api_project_approve_unavailable -->
<g id="node8" class="node">
<title>entrypoint_response_entry_point_api_project_approve_unavailable</title>
<polygon fill="#ffffff" stroke="transparent" points="634,0 634,-92 771,-92 771,0 634,0"/>
<polygon fill="#dc2626" stroke="transparent" points="635.5,-83 635.5,-91 770.5,-91 770.5,-83 635.5,-83"/>
<polygon fill="#fef2f2" stroke="transparent" points="635.5,-52 635.5,-83 770.5,-83 770.5,-52 635.5,-52"/>
<text text-anchor="start" x="639.5" y="-69.6" font-family="Arial" font-weight="bold" font-size="13.00">unavailable</text>
<text text-anchor="start" x="639.5" y="-58.6" font-family="Arial" font-size="8.00" fill="#64748b">failure response</text>
<text text-anchor="start" x="640.5" y="-40" font-family="Arial" font-weight="bold" font-size="10.00">status:</text>
<text text-anchor="start" x="671.5" y="-40" font-family="Arial" font-size="10.00">  503</text>
<text text-anchor="start" x="639.5" y="-20" font-family="Arial" font-weight="bold" font-size="10.00">body</text>
<text text-anchor="start" x="639.5" y="-9" font-family="Arial" font-size="10.00">body</text>
<text text-anchor="start" x="661.5" y="-9" font-family="Arial" font-size="8.00" fill="#94a3b8">  Problem</text>
<text text-anchor="start" x="696.5" y="-9" font-family="Arial" font-size="8.00"> ← $outcome.result</text>
<polygon fill="none" stroke="#dc2626" points="634,0 634,-92 771,-92 771,0 634,0"/>
</g>
<!-- entrypoint_target_operation_project_approve&#45;&gt;entrypoint_response_entry_point_api_project_approve_unavailable -->
<g id="edge7" class="edge">
<title>entrypoint_target_operation_project_approve&#45;&gt;entrypoint_response_entry_point_api_project_approve_unavailable</title>
<path fill="none" stroke="#3f3f46" d="M499.62,-276.4C534.11,-227.32 584.07,-160.01 634,-106 636.39,-103.41 638.89,-100.81 641.45,-98.23"/>
<polygon fill="#3f3f46" stroke="#3f3f46" points="643.8,-99.84 647.52,-92.23 639.86,-95.86 643.8,-99.84"/>
</g>
<!-- entrypoint_response_entry_point_api_project_approve_approved&#45;&gt;entrypoint_response_entry_point_api_project_approve_forbidden -->
<!-- entrypoint_response_entry_point_api_project_approve_forbidden&#45;&gt;entrypoint_response_entry_point_api_project_approve_invalid_state -->
<!-- entrypoint_response_entry_point_api_project_approve_invalid_state&#45;&gt;entrypoint_response_entry_point_api_project_approve_not_found -->
<!-- entrypoint_response_entry_point_api_project_approve_not_found&#45;&gt;entrypoint_response_entry_point_api_project_approve_unauthenticated -->
<!-- entrypoint_response_entry_point_api_project_approve_unauthenticated&#45;&gt;entrypoint_response_entry_point_api_project_approve_unavailable -->
</g>
</svg>
