<svg width="809pt" height="723pt"
 viewBox="0.00 0.00 809.00 723.00" xmlns="http://www.w3.org/2000/svg" xmlns:xlink="http://www.w3.org/1999/xlink">
<!-- pyspec-contract-input-sha256: b24d27925a383327a2110047ca76048bd877452c2a8380ad6364b21e72c5869f -->
<g id="graph0" class="graph" transform="scale(1 1) rotate(0) translate(18 705)">
<title>entrypoint_entry_point_api_project_approve</title>
<!-- entrypoint_entry_point_api_project_approve -->
<g id="node1" class="node">
<title>entrypoint_entry_point_api_project_approve</title>
<polygon fill="#ffffff" stroke="transparent" points="0,-261 0,-425 275,-425 275,-261 0,-261"/>
<polygon fill="#0891b2" stroke="transparent" points="1.5,-416 1.5,-424 274.5,-424 274.5,-416 1.5,-416"/>
<polygon fill="#ecfeff" stroke="transparent" points="1.5,-385 1.5,-416 274.5,-416 274.5,-385 1.5,-385"/>
<text text-anchor="start" x="5.5" y="-402.6" font-family="Arial" font-weight="bold" font-size="13.00">POST /projects/{project_id}/approve</text>
<text text-anchor="start" x="5.5" y="-391.6" font-family="Arial" font-size="8.00" fill="#64748b">http_api entry point</text>
<text text-anchor="start" x="5.5" y="-374" font-family="Arial" font-style="italic" font-size="10.00" fill="#3f3f46">HTTP endpoint for approving submitted dispatch</text>
<text text-anchor="start" x="5.5" y="-363" font-family="Arial" font-style="italic" font-size="10.00" fill="#3f3f46">projects.</text>
<text text-anchor="start" x="6.5" y="-343" font-family="Arial" font-weight="bold" font-size="10.00">endpoint:</text>
<text text-anchor="start" x="51.5" y="-343" font-family="Arial" font-size="10.00">  endpoint.project.approve</text>
<text text-anchor="start" x="6.5" y="-331" font-family="Arial" font-weight="bold" font-size="10.00">authorization_policy:</text>
<text text-anchor="start" x="105.5" y="-331" font-family="Arial" font-size="10.00">  authorization_policy.project.reviewer</text>
<text text-anchor="start" x="5.5" y="-311" font-family="Arial" font-weight="bold" font-size="10.00">path params</text>
<text text-anchor="start" x="5.5" y="-300" font-family="Arial" font-size="10.00">project_id</text>
<text text-anchor="start" x="48.5" y="-300" font-family="Arial" font-size="8.00" fill="#94a3b8">  ID</text>
<text text-anchor="start" x="5.5" y="-281" font-family="Arial" font-weight="bold" font-size="10.00">body</text>
<text text-anchor="start" x="5.5" y="-270" font-family="Arial" font-size="10.00">approved_by</text>
<text text-anchor="start" x="61.5" y="-270" font-family="Arial" font-size="8.00" fill="#94a3b8">  ID</text>
<polygon fill="none" stroke="#0891b2" points="0,-261 0,-425 275,-425 275,-261 0,-261"/>
</g>
<!-- entrypoint_target_application_action_project_approve -->
<g id="node2" class="node">
<title>entrypoint_target_application_action_project_approve</title>
<polygon fill="#ffffff" stroke="transparent" points="336,-276.5 336,-409.5 575,-409.5 575,-276.5 336,-276.5"/>
<polygon fill="#2563eb" stroke="transparent" points="337.5,-400 337.5,-408 574.5,-408 574.5,-400 337.5,-400"/>
<polygon fill="#eff6ff" stroke="transparent" points="337.5,-369 337.5,-400 574.5,-400 574.5,-369 337.5,-369"/>
<text text-anchor="start" x="341.5" y="-386.6" font-family="Arial" font-weight="bold" font-size="13.00">application_action.project.approve</text>
<text text-anchor="start" x="341.5" y="-375.6" font-family="Arial" font-size="8.00" fill="#64748b">target application action</text>
<text text-anchor="start" x="341.5" y="-358" font-family="Arial" font-style="italic" font-size="10.00" fill="#3f3f46">Reviewers can approve submitted dispatch projects.</text>
<text text-anchor="start" x="342.5" y="-338" font-family="Arial" font-weight="bold" font-size="10.00">kind:</text>
<text text-anchor="start" x="366.5" y="-338" font-family="Arial" font-size="10.00">  transition</text>
<text text-anchor="start" x="341.5" y="-318" font-family="Arial" font-weight="bold" font-size="10.00">authorization</text>
<text text-anchor="start" x="341.5" y="-306" font-family="Arial" font-size="10.00">policy: authorization_policy.project.reviewer</text>
<text text-anchor="start" x="341.5" y="-295" font-family="Arial" font-size="10.00">unauthenticated_as: unauthenticated</text>
<text text-anchor="start" x="341.5" y="-284" font-family="Arial" font-size="10.00">forbidden_as: forbidden</text>
<polygon fill="none" stroke="#2563eb" points="336,-276.5 336,-409.5 575,-409.5 575,-276.5 336,-276.5"/>
</g>
<!-- entrypoint_entry_point_api_project_approve&#45;&gt;entrypoint_target_application_action_project_approve -->
<g id="edge1" class="edge">
<title>entrypoint_entry_point_api_project_approve&#45;&gt;entrypoint_target_application_action_project_approve</title>
<path fill="none" stroke="#3f3f46" d="M275.26,-343C292.61,-343 310.3,-343 327.49,-343"/>
<polygon fill="#3f3f46" stroke="#3f3f46" points="327.88,-345.8 335.88,-343 327.88,-340.2 327.88,-345.8"/>
</g>
<!-- entrypoint_response_entry_point_api_project_approve_approved -->
<g id="node3" class="node">
<title>entrypoint_response_entry_point_api_project_approve_approved</title>
<polygon fill="#ffffff" stroke="transparent" points="638.5,-595 638.5,-687 770.5,-687 770.5,-595 638.5,-595"/>
<polygon fill="#16a34a" stroke="transparent" points="639.5,-678 639.5,-686 769.5,-686 769.5,-678 639.5,-678"/>
<polygon fill="#f0fdf4" stroke="transparent" points="639.5,-647 639.5,-678 769.5,-678 769.5,-647 639.5,-647"/>
<text text-anchor="start" x="643.5" y="-664.6" font-family="Arial" font-weight="bold" font-size="13.00">approved</text>
<text text-anchor="start" x="643.5" y="-653.6" font-family="Arial" font-size="8.00" fill="#64748b">success response</text>
<text text-anchor="start" x="644.5" y="-635" font-family="Arial" font-weight="bold" font-size="10.00">status:</text>
<text text-anchor="start" x="675.5" y="-635" font-family="Arial" font-size="10.00">  200</text>
<text text-anchor="start" x="643.5" y="-615" font-family="Arial" font-weight="bold" font-size="10.00">body</text>
<text text-anchor="start" x="643.5" y="-604" font-family="Arial" font-size="10.00">body</text>
<text text-anchor="start" x="665.5" y="-604" font-family="Arial" font-size="8.00" fill="#94a3b8">  Project</text>
<text text-anchor="start" x="695.5" y="-604" font-family="Arial" font-size="8.00"> ← $outcome.result</text>
<polygon fill="none" stroke="#16a34a" points="638.5,-595 638.5,-687 770.5,-687 770.5,-595 638.5,-595"/>
</g>
<!-- entrypoint_target_application_action_project_approve&#45;&gt;entrypoint_response_entry_point_api_project_approve_approved -->
<g id="edge2" class="edge">
<title>entrypoint_target_application_action_project_approve&#45;&gt;entrypoint_response_entry_point_api_project_approve_approved</title>
<path fill="none" stroke="#3f3f46" d="M500.85,-409.54C535.24,-459.18 585.42,-527.52 636,-582 638.26,-584.44 640.62,-586.88 643.04,-589.31"/>
<polygon fill="#3f3f46" stroke="#3f3f46" points="641.11,-591.34 648.78,-594.94 645.03,-587.34 641.11,-591.34"/>
</g>
<!-- entrypoint_response_entry_point_api_project_approve_forbidden -->
<g id="node4" class="node">
<title>entrypoint_response_entry_point_api_project_approve_forbidden</title>
<polygon fill="#ffffff" stroke="transparent" points="636,-476 636,-568 773,-568 773,-476 636,-476"/>
<polygon fill="#dc2626" stroke="transparent" points="637.5,-559 637.5,-567 772.5,-567 772.5,-559 637.5,-559"/>
<polygon fill="#fef2f2" stroke="transparent" points="637.5,-528 637.5,-559 772.5,-559 772.5,-528 637.5,-528"/>
<text text-anchor="start" x="641.5" y="-545.6" font-family="Arial" font-weight="bold" font-size="13.00">forbidden</text>
<text text-anchor="start" x="641.5" y="-534.6" font-family="Arial" font-size="8.00" fill="#64748b">failure response</text>
<text text-anchor="start" x="642.5" y="-516" font-family="Arial" font-weight="bold" font-size="10.00">status:</text>
<text text-anchor="start" x="673.5" y="-516" font-family="Arial" font-size="10.00">  403</text>
<text text-anchor="start" x="641.5" y="-496" font-family="Arial" font-weight="bold" font-size="10.00">body</text>
<text text-anchor="start" x="641.5" y="-485" font-family="Arial" font-size="10.00">body</text>
<text text-anchor="start" x="663.5" y="-485" font-family="Arial" font-size="8.00" fill="#94a3b8">  Problem</text>
<text text-anchor="start" x="698.5" y="-485" font-family="Arial" font-size="8.00"> ← $outcome.result</text>
<polygon fill="none" stroke="#dc2626" points="636,-476 636,-568 773,-568 773,-476 636,-476"/>
</g>
<!-- entrypoint_target_application_action_project_approve&#45;&gt;entrypoint_response_entry_point_api_project_approve_forbidden -->
<g id="edge3" class="edge">
<title>entrypoint_target_application_action_project_approve&#45;&gt;entrypoint_response_entry_point_api_project_approve_forbidden</title>
<path fill="none" stroke="#3f3f46" d="M548.47,-409.65C576.54,-430 606.94,-452.03 633.32,-471.14"/>
<polygon fill="#3f3f46" stroke="#3f3f46" points="631.82,-473.51 639.94,-475.94 635.11,-468.98 631.82,-473.51"/>
</g>
<!-- entrypoint_response_entry_point_api_project_approve_invalid_state -->
<g id="node5" class="node">
<title>entrypoint_response_entry_point_api_project_approve_invalid_state</title>
<polygon fill="#ffffff" stroke="transparent" points="636,-357 636,-449 773,-449 773,-357 636,-357"/>
<polygon fill="#dc2626" stroke="transparent" points="637.5,-440 637.5,-448 772.5,-448 772.5,-440 637.5,-440"/>
<polygon fill="#fef2f2" stroke="transparent" points="637.5,-409 637.5,-440 772.5,-440 772.5,-409 637.5,-409"/>
<text text-anchor="start" x="641.5" y="-426.6" font-family="Arial" font-weight="bold" font-size="13.00">invalid_state</text>
<text text-anchor="start" x="641.5" y="-415.6" font-family="Arial" font-size="8.00" fill="#64748b">failure response</text>
<text text-anchor="start" x="642.5" y="-397" font-family="Arial" font-weight="bold" font-size="10.00">status:</text>
<text text-anchor="start" x="673.5" y="-397" font-family="Arial" font-size="10.00">  409</text>
<text text-anchor="start" x="641.5" y="-377" font-family="Arial" font-weight="bold" font-size="10.00">body</text>
<text text-anchor="start" x="641.5" y="-366" font-family="Arial" font-size="10.00">body</text>
<text text-anchor="start" x="663.5" y="-366" font-family="Arial" font-size="8.00" fill="#94a3b8">  Problem</text>
<text text-anchor="start" x="698.5" y="-366" font-family="Arial" font-size="8.00"> ← $outcome.result</text>
<polygon fill="none" stroke="#dc2626" points="636,-357 636,-449 773,-449 773,-357 636,-357"/>
</g>
<!-- entrypoint_target_application_action_project_approve&#45;&gt;entrypoint_response_entry_point_api_project_approve_invalid_state -->
<g id="edge4" class="edge">
<title>entrypoint_target_application_action_project_approve&#45;&gt;entrypoint_response_entry_point_api_project_approve_invalid_state</title>
<path fill="none" stroke="#3f3f46" d="M575.3,-371.86C593.14,-376.19 611.11,-380.56 627.73,-384.59"/>
<polygon fill="#3f3f46" stroke="#3f3f46" points="627.33,-387.38 635.77,-386.55 628.65,-381.94 627.33,-387.38"/>
</g>
<!-- entrypoint_response_entry_point_api_project_approve_not_found -->
<g id="node6" class="node">
<title>entrypoint_response_entry_point_api_project_approve_not_found</title>
<polygon fill="#ffffff" stroke="transparent" points="636,-238 636,-330 773,-330 773,-238 636,-238"/>
<polygon fill="#dc2626" stroke="transparent" points="637.5,-321 637.5,-329 772.5,-329 772.5,-321 637.5,-321"/>
<polygon fill="#fef2f2" stroke="transparent" points="637.5,-290 637.5,-321 772.5,-321 772.5,-290 637.5,-290"/>
<text text-anchor="start" x="641.5" y="-307.6" font-family="Arial" font-weight="bold" font-size="13.00">not_found</text>
<text text-anchor="start" x="641.5" y="-296.6" font-family="Arial" font-size="8.00" fill="#64748b">failure response</text>
<text text-anchor="start" x="642.5" y="-278" font-family="Arial" font-weight="bold" font-size="10.00">status:</text>
<text text-anchor="start" x="673.5" y="-278" font-family="Arial" font-size="10.00">  404</text>
<text text-anchor="start" x="641.5" y="-258" font-family="Arial" font-weight="bold" font-size="10.00">body</text>
<text text-anchor="start" x="641.5" y="-247" font-family="Arial" font-size="10.00">body</text>
<text text-anchor="start" x="663.5" y="-247" font-family="Arial" font-size="8.00" fill="#94a3b8">  Problem</text>
<text text-anchor="start" x="698.5" y="-247" font-family="Arial" font-size="8.00"> ← $outcome.result</text>
<polygon fill="none" stroke="#dc2626" points="636,-238 636,-330 773,-330 773,-238 636,-238"/>
</g>
<!-- entrypoint_target_application_action_project_approve&#45;&gt;entrypoint_response_entry_point_api_project_approve_not_found -->
<g id="edge5" class="edge">
<title>entrypoint_target_application_action_project_approve&#45;&gt;entrypoint_response_entry_point_api_project_approve_not_found</title>
<path fill="none" stroke="#3f3f46" d="M575.3,-314.62C593.14,-310.36 611.11,-306.07 627.73,-302.1"/>
<polygon fill="#3f3f46" stroke="#3f3f46" points="628.64,-304.76 635.77,-300.18 627.33,-299.31 628.64,-304.76"/>
</g>
<!-- entrypoint_response_entry_point_api_project_approve_unauthenticated -->
<g id="node7" class="node">
<title>entrypoint_response_entry_point_api_project_approve_unauthenticated</title>
<polygon fill="#ffffff" stroke="transparent" points="636,-119 636,-211 773,-211 773,-119 636,-119"/>
<polygon fill="#dc2626" stroke="transparent" points="637.5,-202 637.5,-210 772.5,-210 772.5,-202 637.5,-202"/>
<polygon fill="#fef2f2" stroke="transparent" points="637.5,-171 637.5,-202 772.5,-202 772.5,-171 637.5,-171"/>
<text text-anchor="start" x="641.5" y="-188.6" font-family="Arial" font-weight="bold" font-size="13.00">unauthenticated</text>
<text text-anchor="start" x="641.5" y="-177.6" font-family="Arial" font-size="8.00" fill="#64748b">failure response</text>
<text text-anchor="start" x="642.5" y="-159" font-family="Arial" font-weight="bold" font-size="10.00">status:</text>
<text text-anchor="start" x="673.5" y="-159" font-family="Arial" font-size="10.00">  401</text>
<text text-anchor="start" x="641.5" y="-139" font-family="Arial" font-weight="bold" font-size="10.00">body</text>
<text text-anchor="start" x="641.5" y="-128" font-family="Arial" font-size="10.00">body</text>
<text text-anchor="start" x="663.5" y="-128" font-family="Arial" font-size="8.00" fill="#94a3b8">  Problem</text>
<text text-anchor="start" x="698.5" y="-128" font-family="Arial" font-size="8.00"> ← $outcome.result</text>
<polygon fill="none" stroke="#dc2626" points="636,-119 636,-211 773,-211 773,-119 636,-119"/>
</g>
<!-- entrypoint_target_application_action_project_approve&#45;&gt;entrypoint_response_entry_point_api_project_approve_unauthenticated -->
<g id="edge6" class="edge">
<title>entrypoint_target_application_action_project_approve&#45;&gt;entrypoint_response_entry_point_api_project_approve_unauthenticated</title>
<path fill="none" stroke="#3f3f46" d="M548.82,-276.47C576.62,-256.44 606.66,-234.79 632.81,-215.94"/>
<polygon fill="#3f3f46" stroke="#3f3f46" points="634.52,-218.16 639.37,-211.21 631.24,-213.62 634.52,-218.16"/>
</g>
<!-- entrypoint_response_entry_point_api_project_approve_unavailable -->
<g id="node8" class="node">
<title>entrypoint_response_entry_point_api_project_approve_unavailable</title>
<polygon fill="#ffffff" stroke="transparent" points="636,0 636,-92 773,-92 773,0 636,0"/>
<polygon fill="#dc2626" stroke="transparent" points="637.5,-83 637.5,-91 772.5,-91 772.5,-83 637.5,-83"/>
<polygon fill="#fef2f2" stroke="transparent" points="637.5,-52 637.5,-83 772.5,-83 772.5,-52 637.5,-52"/>
<text text-anchor="start" x="641.5" y="-69.6" font-family="Arial" font-weight="bold" font-size="13.00">unavailable</text>
<text text-anchor="start" x="641.5" y="-58.6" font-family="Arial" font-size="8.00" fill="#64748b">failure response</text>
<text text-anchor="start" x="642.5" y="-40" font-family="Arial" font-weight="bold" font-size="10.00">status:</text>
<text text-anchor="start" x="673.5" y="-40" font-family="Arial" font-size="10.00">  503</text>
<text text-anchor="start" x="641.5" y="-20" font-family="Arial" font-weight="bold" font-size="10.00">body</text>
<text text-anchor="start" x="641.5" y="-9" font-family="Arial" font-size="10.00">body</text>
<text text-anchor="start" x="663.5" y="-9" font-family="Arial" font-size="8.00" fill="#94a3b8">  Problem</text>
<text text-anchor="start" x="698.5" y="-9" font-family="Arial" font-size="8.00"> ← $outcome.result</text>
<polygon fill="none" stroke="#dc2626" points="636,0 636,-92 773,-92 773,0 636,0"/>
</g>
<!-- entrypoint_target_application_action_project_approve&#45;&gt;entrypoint_response_entry_point_api_project_approve_unavailable -->
<g id="edge7" class="edge">
<title>entrypoint_target_application_action_project_approve&#45;&gt;entrypoint_response_entry_point_api_project_approve_unavailable</title>
<path fill="none" stroke="#3f3f46" d="M501.62,-276.4C536.11,-227.32 586.07,-160.01 636,-106 638.39,-103.41 640.89,-100.81 643.45,-98.23"/>
<polygon fill="#3f3f46" stroke="#3f3f46" points="645.8,-99.84 649.52,-92.23 641.86,-95.86 645.8,-99.84"/>
</g>
<!-- entrypoint_response_entry_point_api_project_approve_approved&#45;&gt;entrypoint_response_entry_point_api_project_approve_forbidden -->
<!-- entrypoint_response_entry_point_api_project_approve_forbidden&#45;&gt;entrypoint_response_entry_point_api_project_approve_invalid_state -->
<!-- entrypoint_response_entry_point_api_project_approve_invalid_state&#45;&gt;entrypoint_response_entry_point_api_project_approve_not_found -->
<!-- entrypoint_response_entry_point_api_project_approve_not_found&#45;&gt;entrypoint_response_entry_point_api_project_approve_unauthenticated -->
<!-- entrypoint_response_entry_point_api_project_approve_unauthenticated&#45;&gt;entrypoint_response_entry_point_api_project_approve_unavailable -->
</g>
</svg>
