<svg width="947pt" height="485pt"
 viewBox="0.00 0.00 947.00 485.00" xmlns="http://www.w3.org/2000/svg" xmlns:xlink="http://www.w3.org/1999/xlink">
<!-- pyspec-contract-input-sha256: b261e1cce6eb46d9b09984e90637e977899de53eaf676e7058be0abd1325d89d -->
<g id="graph0" class="graph" transform="scale(1 1) rotate(0) translate(18 467)">
<title>entrypoint_entry_point_api_project_approve</title>
<!-- entrypoint_entry_point_api_project_approve -->
<g id="node1" class="node">
<title>entrypoint_entry_point_api_project_approve</title>
<polygon fill="#ffffff" stroke="transparent" points="0,-172 0,-276 273,-276 273,-172 0,-172"/>
<polygon fill="#0891b2" stroke="transparent" points="1.5,-267 1.5,-275 272.5,-275 272.5,-267 1.5,-267"/>
<polygon fill="#ecfeff" stroke="transparent" points="1.5,-236 1.5,-267 272.5,-267 272.5,-236 1.5,-236"/>
<text text-anchor="start" x="5.5" y="-253.6" font-family="Arial" font-weight="bold" font-size="13.00">POST /projects/{project_id}/approve</text>
<text text-anchor="start" x="5.5" y="-242.6" font-family="Arial" font-size="8.00" fill="#64748b">http_api entry point</text>
<text text-anchor="start" x="5.5" y="-225" font-family="Arial" font-style="italic" font-size="10.00" fill="#3f3f46">HTTP endpoint for approving submitted dispatch</text>
<text text-anchor="start" x="5.5" y="-214" font-family="Arial" font-style="italic" font-size="10.00" fill="#3f3f46">projects.</text>
<text text-anchor="start" x="6.5" y="-194" font-family="Arial" font-weight="bold" font-size="10.00">endpoint:</text>
<text text-anchor="start" x="51.5" y="-194" font-family="Arial" font-size="10.00">  endpoint.project.approve</text>
<text text-anchor="start" x="6.5" y="-182" font-family="Arial" font-weight="bold" font-size="10.00">authorization_policy:</text>
<text text-anchor="start" x="105.5" y="-182" font-family="Arial" font-size="10.00">  authorization_policy.project.approve</text>
<polygon fill="none" stroke="#0891b2" points="0,-172 0,-276 273,-276 273,-172 0,-172"/>
</g>
<!-- entrypoint_input_entry_point_api_project_approve -->
<g id="node2" class="node">
<title>entrypoint_input_entry_point_api_project_approve</title>
<polygon fill="#ffffff" stroke="transparent" points="334,-173.5 334,-274.5 413,-274.5 413,-173.5 334,-173.5"/>
<polygon fill="#64748b" stroke="transparent" points="335.5,-265 335.5,-273 412.5,-273 412.5,-265 335.5,-265"/>
<polygon fill="#f8fafc" stroke="transparent" points="335.5,-234 335.5,-265 412.5,-265 412.5,-234 335.5,-234"/>
<text text-anchor="start" x="339.5" y="-251.6" font-family="Arial" font-weight="bold" font-size="13.00">request</text>
<text text-anchor="start" x="339.5" y="-240.6" font-family="Arial" font-size="8.00" fill="#64748b">external data</text>
<text text-anchor="start" x="339.5" y="-223" font-family="Arial" font-weight="bold" font-size="10.00">path params</text>
<text text-anchor="start" x="339.5" y="-212" font-family="Arial" font-size="10.00">project_id</text>
<text text-anchor="start" x="382.5" y="-212" font-family="Arial" font-size="8.00" fill="#94a3b8">  ID</text>
<text text-anchor="start" x="339.5" y="-193" font-family="Arial" font-weight="bold" font-size="10.00">body</text>
<text text-anchor="start" x="339.5" y="-182" font-family="Arial" font-size="10.00">approved_by</text>
<text text-anchor="start" x="395.5" y="-182" font-family="Arial" font-size="8.00" fill="#94a3b8">  ID</text>
<polygon fill="none" stroke="#64748b" points="334,-173.5 334,-274.5 413,-274.5 413,-173.5 334,-173.5"/>
</g>
<!-- entrypoint_entry_point_api_project_approve&#45;&gt;entrypoint_input_entry_point_api_project_approve -->
<g id="edge1" class="edge">
<title>entrypoint_entry_point_api_project_approve&#45;&gt;entrypoint_input_entry_point_api_project_approve</title>
<path fill="none" stroke="#3f3f46" d="M273.18,-224C291.9,-224 309.99,-224 325.48,-224"/>
<polygon fill="#3f3f46" stroke="#3f3f46" points="325.81,-226.8 333.81,-224 325.81,-221.2 325.81,-226.8"/>
</g>
<!-- entrypoint_target_operation_project_approve -->
<g id="node3" class="node">
<title>entrypoint_target_operation_project_approve</title>
<polygon fill="#ffffff" stroke="transparent" points="474,-183.5 474,-264.5 713,-264.5 713,-183.5 474,-183.5"/>
<polygon fill="#2563eb" stroke="transparent" points="475.5,-255 475.5,-263 712.5,-263 712.5,-255 475.5,-255"/>
<polygon fill="#eff6ff" stroke="transparent" points="475.5,-224 475.5,-255 712.5,-255 712.5,-224 475.5,-224"/>
<text text-anchor="start" x="479.5" y="-241.6" font-family="Arial" font-weight="bold" font-size="13.00">operation.project.approve</text>
<text text-anchor="start" x="479.5" y="-230.6" font-family="Arial" font-size="8.00" fill="#64748b">target operation</text>
<text text-anchor="start" x="479.5" y="-213" font-family="Arial" font-style="italic" font-size="10.00" fill="#3f3f46">Reviewers can approve submitted dispatch projects.</text>
<text text-anchor="start" x="480.5" y="-193" font-family="Arial" font-weight="bold" font-size="10.00">kind:</text>
<text text-anchor="start" x="504.5" y="-193" font-family="Arial" font-size="10.00">  transition</text>
<polygon fill="none" stroke="#2563eb" points="474,-183.5 474,-264.5 713,-264.5 713,-183.5 474,-183.5"/>
</g>
<!-- entrypoint_input_entry_point_api_project_approve&#45;&gt;entrypoint_target_operation_project_approve -->
<g id="edge2" class="edge">
<title>entrypoint_input_entry_point_api_project_approve&#45;&gt;entrypoint_target_operation_project_approve</title>
<path fill="none" stroke="#3f3f46" d="M413.22,-224C428.32,-224 446.55,-224 465.53,-224"/>
<polygon fill="#3f3f46" stroke="#3f3f46" points="465.7,-226.8 473.7,-224 465.7,-221.2 465.7,-226.8"/>
</g>
<!-- entrypoint_response_entry_point_api_project_approve_approved -->
<g id="node4" class="node">
<title>entrypoint_response_entry_point_api_project_approve_approved</title>
<polygon fill="#ffffff" stroke="transparent" points="776.5,-357 776.5,-449 908.5,-449 908.5,-357 776.5,-357"/>
<polygon fill="#16a34a" stroke="transparent" points="777.5,-440 777.5,-448 907.5,-448 907.5,-440 777.5,-440"/>
<polygon fill="#f0fdf4" stroke="transparent" points="777.5,-409 777.5,-440 907.5,-440 907.5,-409 777.5,-409"/>
<text text-anchor="start" x="781.5" y="-426.6" font-family="Arial" font-weight="bold" font-size="13.00">approved</text>
<text text-anchor="start" x="781.5" y="-415.6" font-family="Arial" font-size="8.00" fill="#64748b">success response</text>
<text text-anchor="start" x="782.5" y="-397" font-family="Arial" font-weight="bold" font-size="10.00">status:</text>
<text text-anchor="start" x="813.5" y="-397" font-family="Arial" font-size="10.00">  200</text>
<text text-anchor="start" x="781.5" y="-377" font-family="Arial" font-weight="bold" font-size="10.00">body</text>
<text text-anchor="start" x="781.5" y="-366" font-family="Arial" font-size="10.00">body</text>
<text text-anchor="start" x="803.5" y="-366" font-family="Arial" font-size="8.00" fill="#94a3b8">  Project</text>
<text text-anchor="start" x="833.5" y="-366" font-family="Arial" font-size="8.00"> ← $outcome.result</text>
<polygon fill="none" stroke="#16a34a" points="776.5,-357 776.5,-449 908.5,-449 908.5,-357 776.5,-357"/>
</g>
<!-- entrypoint_target_operation_project_approve&#45;&gt;entrypoint_response_entry_point_api_project_approve_approved -->
<g id="edge3" class="edge">
<title>entrypoint_target_operation_project_approve&#45;&gt;entrypoint_response_entry_point_api_project_approve_approved</title>
<path fill="none" stroke="#3f3f46" d="M650.55,-264.62C686.34,-290.56 733.03,-324.39 771.29,-352.12"/>
<polygon fill="#3f3f46" stroke="#3f3f46" points="769.72,-354.44 777.84,-356.86 773,-349.9 769.72,-354.44"/>
</g>
<!-- entrypoint_response_entry_point_api_project_approve_invalid_state -->
<g id="node5" class="node">
<title>entrypoint_response_entry_point_api_project_approve_invalid_state</title>
<polygon fill="#ffffff" stroke="transparent" points="774,-238 774,-330 911,-330 911,-238 774,-238"/>
<polygon fill="#dc2626" stroke="transparent" points="775.5,-321 775.5,-329 910.5,-329 910.5,-321 775.5,-321"/>
<polygon fill="#fef2f2" stroke="transparent" points="775.5,-290 775.5,-321 910.5,-321 910.5,-290 775.5,-290"/>
<text text-anchor="start" x="779.5" y="-307.6" font-family="Arial" font-weight="bold" font-size="13.00">invalid_state</text>
<text text-anchor="start" x="779.5" y="-296.6" font-family="Arial" font-size="8.00" fill="#64748b">failure response</text>
<text text-anchor="start" x="780.5" y="-278" font-family="Arial" font-weight="bold" font-size="10.00">status:</text>
<text text-anchor="start" x="811.5" y="-278" font-family="Arial" font-size="10.00">  409</text>
<text text-anchor="start" x="779.5" y="-258" font-family="Arial" font-weight="bold" font-size="10.00">body</text>
<text text-anchor="start" x="779.5" y="-247" font-family="Arial" font-size="10.00">body</text>
<text text-anchor="start" x="801.5" y="-247" font-family="Arial" font-size="8.00" fill="#94a3b8">  Problem</text>
<text text-anchor="start" x="836.5" y="-247" font-family="Arial" font-size="8.00"> ← $outcome.result</text>
<polygon fill="none" stroke="#dc2626" points="774,-238 774,-330 911,-330 911,-238 774,-238"/>
</g>
<!-- entrypoint_target_operation_project_approve&#45;&gt;entrypoint_response_entry_point_api_project_approve_invalid_state -->
<g id="edge4" class="edge">
<title>entrypoint_target_operation_project_approve&#45;&gt;entrypoint_response_entry_point_api_project_approve_invalid_state</title>
<path fill="none" stroke="#3f3f46" d="M713.3,-252.86C731.14,-257.19 749.11,-261.56 765.73,-265.59"/>
<polygon fill="#3f3f46" stroke="#3f3f46" points="765.33,-268.38 773.77,-267.55 766.65,-262.94 765.33,-268.38"/>
</g>
<!-- entrypoint_response_entry_point_api_project_approve_not_found -->
<g id="node6" class="node">
<title>entrypoint_response_entry_point_api_project_approve_not_found</title>
<polygon fill="#ffffff" stroke="transparent" points="774,-119 774,-211 911,-211 911,-119 774,-119"/>
<polygon fill="#dc2626" stroke="transparent" points="775.5,-202 775.5,-210 910.5,-210 910.5,-202 775.5,-202"/>
<polygon fill="#fef2f2" stroke="transparent" points="775.5,-171 775.5,-202 910.5,-202 910.5,-171 775.5,-171"/>
<text text-anchor="start" x="779.5" y="-188.6" font-family="Arial" font-weight="bold" font-size="13.00">not_found</text>
<text text-anchor="start" x="779.5" y="-177.6" font-family="Arial" font-size="8.00" fill="#64748b">failure response</text>
<text text-anchor="start" x="780.5" y="-159" font-family="Arial" font-weight="bold" font-size="10.00">status:</text>
<text text-anchor="start" x="811.5" y="-159" font-family="Arial" font-size="10.00">  404</text>
<text text-anchor="start" x="779.5" y="-139" font-family="Arial" font-weight="bold" font-size="10.00">body</text>
<text text-anchor="start" x="779.5" y="-128" font-family="Arial" font-size="10.00">body</text>
<text text-anchor="start" x="801.5" y="-128" font-family="Arial" font-size="8.00" fill="#94a3b8">  Problem</text>
<text text-anchor="start" x="836.5" y="-128" font-family="Arial" font-size="8.00"> ← $outcome.result</text>
<polygon fill="none" stroke="#dc2626" points="774,-119 774,-211 911,-211 911,-119 774,-119"/>
</g>
<!-- entrypoint_target_operation_project_approve&#45;&gt;entrypoint_response_entry_point_api_project_approve_not_found -->
<g id="edge5" class="edge">
<title>entrypoint_target_operation_project_approve&#45;&gt;entrypoint_response_entry_point_api_project_approve_not_found</title>
<path fill="none" stroke="#3f3f46" d="M713.3,-195.62C731.14,-191.36 749.11,-187.07 765.73,-183.1"/>
<polygon fill="#3f3f46" stroke="#3f3f46" points="766.64,-185.76 773.77,-181.18 765.33,-180.31 766.64,-185.76"/>
</g>
<!-- entrypoint_response_entry_point_api_project_approve_unavailable -->
<g id="node7" class="node">
<title>entrypoint_response_entry_point_api_project_approve_unavailable</title>
<polygon fill="#ffffff" stroke="transparent" points="774,0 774,-92 911,-92 911,0 774,0"/>
<polygon fill="#dc2626" stroke="transparent" points="775.5,-83 775.5,-91 910.5,-91 910.5,-83 775.5,-83"/>
<polygon fill="#fef2f2" stroke="transparent" points="775.5,-52 775.5,-83 910.5,-83 910.5,-52 775.5,-52"/>
<text text-anchor="start" x="779.5" y="-69.6" font-family="Arial" font-weight="bold" font-size="13.00">unavailable</text>
<text text-anchor="start" x="779.5" y="-58.6" font-family="Arial" font-size="8.00" fill="#64748b">failure response</text>
<text text-anchor="start" x="780.5" y="-40" font-family="Arial" font-weight="bold" font-size="10.00">status:</text>
<text text-anchor="start" x="811.5" y="-40" font-family="Arial" font-size="10.00">  503</text>
<text text-anchor="start" x="779.5" y="-20" font-family="Arial" font-weight="bold" font-size="10.00">body</text>
<text text-anchor="start" x="779.5" y="-9" font-family="Arial" font-size="10.00">body</text>
<text text-anchor="start" x="801.5" y="-9" font-family="Arial" font-size="8.00" fill="#94a3b8">  Problem</text>
<text text-anchor="start" x="836.5" y="-9" font-family="Arial" font-size="8.00"> ← $outcome.result</text>
<polygon fill="none" stroke="#dc2626" points="774,0 774,-92 911,-92 911,0 774,0"/>
</g>
<!-- entrypoint_target_operation_project_approve&#45;&gt;entrypoint_response_entry_point_api_project_approve_unavailable -->
<g id="edge6" class="edge">
<title>entrypoint_target_operation_project_approve&#45;&gt;entrypoint_response_entry_point_api_project_approve_unavailable</title>
<path fill="none" stroke="#3f3f46" d="M650.86,-183.39C686.53,-157.68 732.93,-124.24 771.02,-96.79"/>
<polygon fill="#3f3f46" stroke="#3f3f46" points="772.69,-99.04 777.55,-92.09 769.42,-94.49 772.69,-99.04"/>
</g>
<!-- entrypoint_response_entry_point_api_project_approve_approved&#45;&gt;entrypoint_response_entry_point_api_project_approve_invalid_state -->
<!-- entrypoint_response_entry_point_api_project_approve_invalid_state&#45;&gt;entrypoint_response_entry_point_api_project_approve_not_found -->
<!-- entrypoint_response_entry_point_api_project_approve_not_found&#45;&gt;entrypoint_response_entry_point_api_project_approve_unavailable -->
</g>
</svg>
