<svg width="725pt" height="187pt"
 viewBox="0.00 0.00 725.00 187.00" xmlns="http://www.w3.org/2000/svg" xmlns:xlink="http://www.w3.org/1999/xlink">
<!-- pyspec-contract-input-sha256: 58e986c76ab74e64b90d3b707da108d31a86d06c4ace106249fe2b8641134a57 -->
<g id="graph0" class="graph" transform="scale(1 1) rotate(0) translate(18 169)">
<title>external_interface_external_interface_html_project_board</title>
<!-- external_interface_external_interface_html_project_board -->
<g id="node1" class="node">
<title>external_interface_external_interface_html_project_board</title>
<polygon fill="#ffffff" stroke="transparent" points="0,-9.5 0,-141.5 347,-141.5 347,-9.5 0,-9.5"/>
<polygon fill="#0891b2" stroke="transparent" points="1.5,-132.5 1.5,-140.5 346.5,-140.5 346.5,-132.5 1.5,-132.5"/>
<polygon fill="#ecfeff" stroke="transparent" points="1.5,-101.5 1.5,-132.5 346.5,-132.5 346.5,-101.5 1.5,-101.5"/>
<text text-anchor="start" x="5.5" y="-119.1" font-family="Arial" font-weight="bold" font-size="13.00">/workspaces/{workspace_id}/dispatch</text>
<text text-anchor="start" x="5.5" y="-108.1" font-family="Arial" font-size="8.00" fill="#64748b">html_route external interface</text>
<text text-anchor="start" x="5.5" y="-90.5" font-family="Arial" font-style="italic" font-size="10.00" fill="#3f3f46">HTML entry for the dispatch board.</text>
<text text-anchor="start" x="6.5" y="-70.5" font-family="Arial" font-weight="bold" font-size="10.00">html_route:</text>
<text text-anchor="start" x="60.5" y="-70.5" font-family="Arial" font-size="10.00">  html_route.project.board</text>
<text text-anchor="start" x="5.5" y="-50.5" font-family="Arial" font-weight="bold" font-size="10.00">path params</text>
<text text-anchor="start" x="5.5" y="-39.5" font-family="Arial" font-size="10.00">workspace_id</text>
<text text-anchor="start" x="66.5" y="-39.5" font-family="Arial" font-size="8.00" fill="#94a3b8">  string</text>
<text text-anchor="start" x="6.5" y="-19.5" font-family="Arial" font-weight="bold" font-size="10.00">input mapping:</text>
<text text-anchor="start" x="78.5" y="-19.5" font-family="Arial" font-size="10.00">  workspace_id ← adapter_input.path_params.workspace_id</text>
<polygon fill="none" stroke="#0891b2" points="0,-9.5 0,-141.5 347,-141.5 347,-9.5 0,-9.5"/>
</g>
<!-- external_interface_invocation_state_machine_project_board -->
<g id="node2" class="node">
<title>external_interface_invocation_state_machine_project_board</title>
<polygon fill="#ffffff" stroke="transparent" points="408,0 408,-151 689,-151 689,0 408,0"/>
<polygon fill="#9333ea" stroke="transparent" points="409.5,-141.5 409.5,-149.5 688.5,-149.5 688.5,-141.5 409.5,-141.5"/>
<polygon fill="#faf5ff" stroke="transparent" points="409.5,-110.5 409.5,-141.5 688.5,-141.5 688.5,-110.5 409.5,-110.5"/>
<text text-anchor="start" x="413.5" y="-128.1" font-family="Arial" font-weight="bold" font-size="13.00">state_machine.project.board</text>
<text text-anchor="start" x="413.5" y="-117.1" font-family="Arial" font-size="8.00" fill="#64748b">invoked state machine (html)</text>
<text text-anchor="start" x="413.5" y="-99.5" font-family="Arial" font-style="italic" font-size="10.00" fill="#3f3f46">The dispatch board composes list, detail, and</text>
<text text-anchor="start" x="413.5" y="-88.5" font-family="Arial" font-style="italic" font-size="10.00" fill="#3f3f46">activity state machines through shared</text>
<text text-anchor="start" x="413.5" y="-77.5" font-family="Arial" font-style="italic" font-size="10.00" fill="#3f3f46">selected&#45;project context.</text>
<text text-anchor="start" x="414.5" y="-57.5" font-family="Arial" font-weight="bold" font-size="10.00">input:</text>
<text text-anchor="start" x="442.5" y="-57.5" font-family="Arial" font-size="10.00">  list_board.workspace_id</text>
<text text-anchor="start" x="554.5" y="-57.5" font-family="Arial" font-size="8.00" fill="#94a3b8">  string</text>
<text text-anchor="start" x="414.5" y="-45.5" font-family="Arial" font-weight="bold" font-size="10.00">query_bindings:</text>
<text text-anchor="start" x="490.5" y="-45.5" font-family="Arial" font-size="10.00">  list_board</text>
<text text-anchor="start" x="414.5" y="-33.5" font-family="Arial" font-weight="bold" font-size="10.00">load:</text>
<text text-anchor="start" x="438.5" y="-33.5" font-family="Arial" font-size="10.00">  query.project.list</text>
<text text-anchor="start" x="516.5" y="-33.5" font-family="Arial" font-size="8.00" fill="#94a3b8">  array&lt;Project&gt;</text>
<text text-anchor="start" x="414.5" y="-21.5" font-family="Arial" font-weight="bold" font-size="10.00">entity_type:</text>
<text text-anchor="start" x="468.5" y="-21.5" font-family="Arial" font-size="10.00">  entity_type.project</text>
<text text-anchor="start" x="414.5" y="-9.5" font-family="Arial" font-weight="bold" font-size="10.00">signal_sync_rules:</text>
<text text-anchor="start" x="502.5" y="-9.5" font-family="Arial" font-size="10.00">  select_project_updates_state_machines</text>
<polygon fill="none" stroke="#9333ea" points="408,0 408,-151 689,-151 689,0 408,0"/>
</g>
<!-- external_interface_external_interface_html_project_board&#45;&gt;external_interface_invocation_state_machine_project_board -->
<g id="edge1" class="edge">
<title>external_interface_external_interface_html_project_board&#45;&gt;external_interface_invocation_state_machine_project_board</title>
<path fill="none" stroke="#3f3f46" d="M347.08,-75.5C364.62,-75.5 382.32,-75.5 399.56,-75.5"/>
<polygon fill="#3f3f46" stroke="#3f3f46" points="399.99,-78.3 407.99,-75.5 399.99,-72.7 399.99,-78.3"/>
</g>
</g>
</svg>
