<svg width="1354pt" height="617pt"
 viewBox="0.00 0.00 1354.00 616.50" xmlns="http://www.w3.org/2000/svg" xmlns:xlink="http://www.w3.org/1999/xlink">
<!-- pyspec-contract-input-sha256: 70d81059b4fc4d4aec56ad2fe120ecc6d04cd3c10c8f71ade1e97bf9a174de85 -->
<g id="graph0" class="graph" transform="scale(1 1) rotate(0) translate(18 598.5)">
<title>operation_operation_project_archive</title>
<!-- operation_input_operation_project_archive -->
<g id="node1" class="node">
<title>operation_input_operation_project_archive</title>
<polygon fill="#ffffff" stroke="transparent" points="0,-250 0,-321 66,-321 66,-250 0,-250"/>
<polygon fill="#64748b" stroke="transparent" points="1,-311.5 1,-319.5 65,-319.5 65,-311.5 1,-311.5"/>
<polygon fill="#f8fafc" stroke="transparent" points="1,-280.5 1,-311.5 65,-311.5 65,-280.5 1,-280.5"/>
<text text-anchor="start" x="5" y="-298.1" font-family="Arial" font-weight="bold" font-size="13.00">input</text>
<text text-anchor="start" x="5" y="-287.1" font-family="Arial" font-size="8.00" fill="#64748b">operation input</text>
<text text-anchor="start" x="5" y="-269.5" font-family="Arial" font-weight="bold" font-size="10.00">fields</text>
<text text-anchor="start" x="5" y="-258.5" font-family="Arial" font-size="10.00">project_id</text>
<text text-anchor="start" x="48" y="-258.5" font-family="Arial" font-size="8.00" fill="#94a3b8">  ID</text>
<polygon fill="none" stroke="#64748b" points="0,-250 0,-321 66,-321 66,-250 0,-250"/>
</g>
<!-- operation_policy_authorization_policy_project_archive -->
<g id="node2" class="node">
<title>operation_policy_authorization_policy_project_archive</title>
<polygon fill="#ffffff" stroke="transparent" points="168,-233 168,-338 408,-338 408,-233 168,-233"/>
<polygon fill="#c2410c" stroke="transparent" points="169,-328.5 169,-336.5 407,-336.5 407,-328.5 169,-328.5"/>
<polygon fill="#fff7ed" stroke="transparent" points="169,-297.5 169,-328.5 407,-328.5 407,-297.5 169,-297.5"/>
<text text-anchor="start" x="173" y="-315.1" font-family="Arial" font-weight="bold" font-size="13.00">authorization_policy.project.archive</text>
<text text-anchor="start" x="173" y="-304.1" font-family="Arial" font-size="8.00" fill="#64748b">authorization gate</text>
<text text-anchor="start" x="173" y="-286.5" font-family="Arial" font-style="italic" font-size="10.00" fill="#3f3f46">Reviewers may archive approved dispatch projects.</text>
<text text-anchor="start" x="174" y="-266.5" font-family="Arial" font-weight="bold" font-size="10.00">effect:</text>
<text text-anchor="start" x="202" y="-266.5" font-family="Arial" font-size="10.00">  allow</text>
<text text-anchor="start" x="174" y="-254.5" font-family="Arial" font-weight="bold" font-size="10.00">subjects:</text>
<text text-anchor="start" x="217" y="-254.5" font-family="Arial" font-size="10.00">  actor</text>
<text text-anchor="start" x="174" y="-242.5" font-family="Arial" font-weight="bold" font-size="10.00">conditions:</text>
<text text-anchor="start" x="227" y="-242.5" font-family="Arial" font-size="10.00">  subject_has_role reviewer</text>
<polygon fill="none" stroke="#c2410c" points="168,-233 168,-338 408,-338 408,-233 168,-233"/>
</g>
<!-- operation_input_operation_project_archive&#45;&gt;operation_policy_authorization_policy_project_archive -->
<g id="edge1" class="edge">
<title>operation_input_operation_project_archive&#45;&gt;operation_policy_authorization_policy_project_archive</title>
<path fill="none" stroke="#3f3f46" stroke-width="1.2" d="M66.04,-285.5C90.11,-285.5 124.77,-285.5 159.53,-285.5"/>
<polygon fill="#3f3f46" stroke="#3f3f46" stroke-width="1.2" points="159.89,-288.3 167.89,-285.5 159.89,-282.7 159.89,-288.3"/>
<text text-anchor="middle" x="117" y="-288.5" font-family="Arial" font-size="10.00">authorize</text>
</g>
<!-- operation_resource_operation_project_archive_transition_Project_status -->
<g id="node3" class="node">
<title>operation_resource_operation_project_archive_transition_Project_status</title>
<polygon fill="#ffffff" stroke="transparent" points="510,-250 510,-321 819,-321 819,-250 510,-250"/>
<polygon fill="#15803d" stroke="transparent" points="511.5,-311.5 511.5,-319.5 818.5,-319.5 818.5,-311.5 511.5,-311.5"/>
<polygon fill="#f0fdfa" stroke="transparent" points="511.5,-280.5 511.5,-311.5 818.5,-311.5 818.5,-280.5 511.5,-280.5"/>
<text text-anchor="start" x="515.5" y="-298.1" font-family="Arial" font-weight="bold" font-size="13.00">Project</text>
<text text-anchor="start" x="515.5" y="-287.1" font-family="Arial" font-size="8.00" fill="#64748b">model resource</text>
<text text-anchor="start" x="515.5" y="-269.5" font-family="Arial" font-weight="bold" font-size="10.00">change</text>
<text text-anchor="start" x="515.5" y="-258.5" font-family="Arial" font-size="10.00">Project.status</text>
<text text-anchor="start" x="576.5" y="-258.5" font-family="Arial" font-size="8.00" fill="#94a3b8">  enum&lt;draft|submitted|approved|archived&gt;</text>
<text text-anchor="start" x="732.5" y="-258.5" font-family="Arial" font-size="8.00">  approved → archived</text>
<polygon fill="none" stroke="#15803d" points="510,-250 510,-321 819,-321 819,-250 510,-250"/>
</g>
<!-- operation_policy_authorization_policy_project_archive&#45;&gt;operation_resource_operation_project_archive_transition_Project_status -->
<g id="edge2" class="edge">
<title>operation_policy_authorization_policy_project_archive&#45;&gt;operation_resource_operation_project_archive_transition_Project_status</title>
<path fill="none" stroke="#3f3f46" d="M408.01,-285.5C437.7,-285.5 470.04,-285.5 501.41,-285.5"/>
<polygon fill="#3f3f46" stroke="#3f3f46" points="501.8,-288.3 509.8,-285.5 501.8,-282.7 501.8,-288.3"/>
<text text-anchor="middle" x="459" y="-288.5" font-family="Arial" font-size="10.00">transition</text>
</g>
<!-- operation_outcome_operation_project_archive_forbidden -->
<g id="node5" class="node">
<title>operation_outcome_operation_project_archive_forbidden</title>
<polygon fill="#ffffff" stroke="transparent" points="939,-375 939,-446 1012,-446 1012,-375 939,-375"/>
<polygon fill="#dc2626" stroke="transparent" points="940.5,-436.5 940.5,-444.5 1011.5,-444.5 1011.5,-436.5 940.5,-436.5"/>
<polygon fill="#fef2f2" stroke="transparent" points="940.5,-405.5 940.5,-436.5 1011.5,-436.5 1011.5,-405.5 940.5,-405.5"/>
<text text-anchor="start" x="944.5" y="-423.1" font-family="Arial" font-weight="bold" font-size="13.00">forbidden</text>
<text text-anchor="start" x="944.5" y="-412.1" font-family="Arial" font-size="8.00" fill="#64748b">failure outcome</text>
<text text-anchor="start" x="944.5" y="-394.5" font-family="Arial" font-weight="bold" font-size="10.00">result</text>
<text text-anchor="start" x="944.5" y="-383.5" font-family="Arial" font-size="10.00">result</text>
<text text-anchor="start" x="969.5" y="-383.5" font-family="Arial" font-size="8.00" fill="#94a3b8">  Problem</text>
<polygon fill="none" stroke="#dc2626" points="939,-375 939,-446 1012,-446 1012,-375 939,-375"/>
</g>
<!-- operation_policy_authorization_policy_project_archive&#45;&gt;operation_outcome_operation_project_archive_forbidden -->
<g id="edge5" class="edge">
<title>operation_policy_authorization_policy_project_archive&#45;&gt;operation_outcome_operation_project_archive_forbidden</title>
<path fill="none" stroke="#3f3f46" d="M408.03,-313.17C440.98,-320.48 476.81,-328.11 510,-334.5 663.99,-364.14 848.14,-392.05 930.69,-404.17"/>
<polygon fill="#3f3f46" stroke="#3f3f46" points="930.51,-406.97 938.83,-405.36 931.32,-401.43 930.51,-406.97"/>
<text text-anchor="middle" x="664.5" y="-388.5" font-family="Arial" font-size="10.00">forbidden_as</text>
</g>
<!-- operation_outcome_operation_project_archive_unauthenticated -->
<g id="node8" class="node">
<title>operation_outcome_operation_project_archive_unauthenticated</title>
<polygon fill="#ffffff" stroke="transparent" points="918,0 918,-71 1033,-71 1033,0 918,0"/>
<polygon fill="#dc2626" stroke="transparent" points="919.5,-61.5 919.5,-69.5 1032.5,-69.5 1032.5,-61.5 919.5,-61.5"/>
<polygon fill="#fef2f2" stroke="transparent" points="919.5,-30.5 919.5,-61.5 1032.5,-61.5 1032.5,-30.5 919.5,-30.5"/>
<text text-anchor="start" x="923.5" y="-48.1" font-family="Arial" font-weight="bold" font-size="13.00">unauthenticated</text>
<text text-anchor="start" x="923.5" y="-37.1" font-family="Arial" font-size="8.00" fill="#64748b">failure outcome</text>
<text text-anchor="start" x="923.5" y="-19.5" font-family="Arial" font-weight="bold" font-size="10.00">result</text>
<text text-anchor="start" x="923.5" y="-8.5" font-family="Arial" font-size="10.00">result</text>
<text text-anchor="start" x="948.5" y="-8.5" font-family="Arial" font-size="8.00" fill="#94a3b8">  Problem</text>
<polygon fill="none" stroke="#dc2626" points="918,0 918,-71 1033,-71 1033,0 918,0"/>
</g>
<!-- operation_policy_authorization_policy_project_archive&#45;&gt;operation_outcome_operation_project_archive_unauthenticated -->
<g id="edge8" class="edge">
<title>operation_policy_authorization_policy_project_archive&#45;&gt;operation_outcome_operation_project_archive_unauthenticated</title>
<path fill="none" stroke="#3f3f46" d="M408.01,-242.1C553.81,-188.93 795.51,-100.78 910.25,-58.93"/>
<polygon fill="#3f3f46" stroke="#3f3f46" points="911.39,-61.5 917.95,-56.12 909.47,-56.23 911.39,-61.5"/>
<text text-anchor="middle" x="664.5" y="-203.5" font-family="Arial" font-size="10.00">unauthenticated_as</text>
</g>
<!-- operation_outcome_operation_project_archive_archived -->
<g id="node4" class="node">
<title>operation_outcome_operation_project_archive_archived</title>
<polygon fill="#ffffff" stroke="transparent" points="940,-500 940,-571 1011,-571 1011,-500 940,-500"/>
<polygon fill="#16a34a" stroke="transparent" points="941.5,-561.5 941.5,-569.5 1010.5,-569.5 1010.5,-561.5 941.5,-561.5"/>
<polygon fill="#f0fdf4" stroke="transparent" points="941.5,-530.5 941.5,-561.5 1010.5,-561.5 1010.5,-530.5 941.5,-530.5"/>
<text text-anchor="start" x="945.5" y="-548.1" font-family="Arial" font-weight="bold" font-size="13.00">archived</text>
<text text-anchor="start" x="945.5" y="-537.1" font-family="Arial" font-size="8.00" fill="#64748b">success outcome</text>
<text text-anchor="start" x="945.5" y="-519.5" font-family="Arial" font-weight="bold" font-size="10.00">result</text>
<text text-anchor="start" x="945.5" y="-508.5" font-family="Arial" font-size="10.00">result</text>
<text text-anchor="start" x="970.5" y="-508.5" font-family="Arial" font-size="8.00" fill="#94a3b8">  Project</text>
<polygon fill="none" stroke="#16a34a" points="940,-500 940,-571 1011,-571 1011,-500 940,-500"/>
</g>
<!-- operation_resource_operation_project_archive_transition_Project_status&#45;&gt;operation_outcome_operation_project_archive_archived -->
<g id="edge3" class="edge">
<title>operation_resource_operation_project_archive_transition_Project_status&#45;&gt;operation_outcome_operation_project_archive_archived</title>
<path fill="none" stroke="#3f3f46" d="M754.64,-321.09C776.69,-331.84 799.54,-344.76 819,-359.5 846.09,-380.01 903.81,-448.41 940.8,-493.65"/>
<polygon fill="#3f3f46" stroke="#3f3f46" points="938.65,-495.45 945.88,-499.87 942.99,-491.91 938.65,-495.45"/>
<text text-anchor="middle" x="868.5" y="-427.5" font-family="Arial" font-size="10.00">success</text>
</g>
<!-- operation_outcome_operation_project_archive_invalid_state -->
<g id="node6" class="node">
<title>operation_outcome_operation_project_archive_invalid_state</title>
<polygon fill="#ffffff" stroke="transparent" points="929.5,-250 929.5,-321 1021.5,-321 1021.5,-250 929.5,-250"/>
<polygon fill="#dc2626" stroke="transparent" points="930.5,-311.5 930.5,-319.5 1020.5,-319.5 1020.5,-311.5 930.5,-311.5"/>
<polygon fill="#fef2f2" stroke="transparent" points="930.5,-280.5 930.5,-311.5 1020.5,-311.5 1020.5,-280.5 930.5,-280.5"/>
<text text-anchor="start" x="934.5" y="-298.1" font-family="Arial" font-weight="bold" font-size="13.00">invalid_state</text>
<text text-anchor="start" x="934.5" y="-287.1" font-family="Arial" font-size="8.00" fill="#64748b">failure outcome</text>
<text text-anchor="start" x="934.5" y="-269.5" font-family="Arial" font-weight="bold" font-size="10.00">result</text>
<text text-anchor="start" x="934.5" y="-258.5" font-family="Arial" font-size="10.00">result</text>
<text text-anchor="start" x="959.5" y="-258.5" font-family="Arial" font-size="8.00" fill="#94a3b8">  Problem</text>
<polygon fill="none" stroke="#dc2626" points="929.5,-250 929.5,-321 1021.5,-321 1021.5,-250 929.5,-250"/>
</g>
<!-- operation_resource_operation_project_archive_transition_Project_status&#45;&gt;operation_outcome_operation_project_archive_invalid_state -->
<g id="edge6" class="edge">
<title>operation_resource_operation_project_archive_transition_Project_status&#45;&gt;operation_outcome_operation_project_archive_invalid_state</title>
<path fill="none" stroke="#3f3f46" d="M819.09,-285.5C855.76,-285.5 892.5,-285.5 921.05,-285.5"/>
<polygon fill="#3f3f46" stroke="#3f3f46" points="921.25,-288.3 929.25,-285.5 921.25,-282.7 921.25,-288.3"/>
<text text-anchor="middle" x="868.5" y="-288.5" font-family="Arial" font-size="10.00">failure</text>
</g>
<!-- operation_outcome_operation_project_archive_not_found -->
<g id="node7" class="node">
<title>operation_outcome_operation_project_archive_not_found</title>
<polygon fill="#ffffff" stroke="transparent" points="937,-125 937,-196 1014,-196 1014,-125 937,-125"/>
<polygon fill="#dc2626" stroke="transparent" points="938.5,-186.5 938.5,-194.5 1013.5,-194.5 1013.5,-186.5 938.5,-186.5"/>
<polygon fill="#fef2f2" stroke="transparent" points="938.5,-155.5 938.5,-186.5 1013.5,-186.5 1013.5,-155.5 938.5,-155.5"/>
<text text-anchor="start" x="942.5" y="-173.1" font-family="Arial" font-weight="bold" font-size="13.00">not_found</text>
<text text-anchor="start" x="942.5" y="-162.1" font-family="Arial" font-size="8.00" fill="#64748b">failure outcome</text>
<text text-anchor="start" x="942.5" y="-144.5" font-family="Arial" font-weight="bold" font-size="10.00">result</text>
<text text-anchor="start" x="942.5" y="-133.5" font-family="Arial" font-size="10.00">result</text>
<text text-anchor="start" x="967.5" y="-133.5" font-family="Arial" font-size="8.00" fill="#94a3b8">  Problem</text>
<polygon fill="none" stroke="#dc2626" points="937,-125 937,-196 1014,-196 1014,-125 937,-125"/>
</g>
<!-- operation_resource_operation_project_archive_transition_Project_status&#45;&gt;operation_outcome_operation_project_archive_not_found -->
<g id="edge7" class="edge">
<title>operation_resource_operation_project_archive_transition_Project_status&#45;&gt;operation_outcome_operation_project_archive_not_found</title>
<path fill="none" stroke="#3f3f46" d="M753.63,-249.85C810.92,-226.67 883.23,-197.42 929.18,-178.83"/>
<polygon fill="#3f3f46" stroke="#3f3f46" points="930.24,-181.43 936.6,-175.83 928.14,-176.23 930.24,-181.43"/>
<text text-anchor="middle" x="868.5" y="-210.5" font-family="Arial" font-size="10.00">failure</text>
</g>
<!-- operation_outcome_operation_project_archive_archived&#45;&gt;operation_outcome_operation_project_archive_forbidden -->
<!-- operation_event_operation_project_archive_event_project_archived -->
<g id="node9" class="node">
<title>operation_event_operation_project_archive_event_project_archived</title>
<polygon fill="#ffffff" stroke="transparent" points="1114,-490.5 1114,-580.5 1318,-580.5 1318,-490.5 1114,-490.5"/>
<polygon fill="#4f46e5" stroke="transparent" points="1115,-571.5 1115,-579.5 1317,-579.5 1317,-571.5 1115,-571.5"/>
<polygon fill="#eef2ff" stroke="transparent" points="1115,-540.5 1115,-571.5 1317,-571.5 1317,-540.5 1115,-540.5"/>
<text text-anchor="start" x="1119" y="-558.1" font-family="Arial" font-weight="bold" font-size="13.00">event.project.archived</text>
<text text-anchor="start" x="1119" y="-547.1" font-family="Arial" font-size="8.00" fill="#64748b">emitted event</text>
<text text-anchor="start" x="1119" y="-529.5" font-family="Arial" font-style="italic" font-size="10.00" fill="#3f3f46">Approved dispatch projects can be archived.</text>
<text text-anchor="start" x="1119" y="-510.5" font-family="Arial" font-weight="bold" font-size="10.00">payload</text>
<text text-anchor="start" x="1119" y="-499.5" font-family="Arial" font-size="10.00">payload</text>
<text text-anchor="start" x="1153" y="-499.5" font-family="Arial" font-size="8.00" fill="#94a3b8">  Project</text>
<polygon fill="none" stroke="#4f46e5" points="1114,-490.5 1114,-580.5 1318,-580.5 1318,-490.5 1114,-490.5"/>
</g>
<!-- operation_outcome_operation_project_archive_archived&#45;&gt;operation_event_operation_project_archive_event_project_archived -->
<g id="edge4" class="edge">
<title>operation_outcome_operation_project_archive_archived&#45;&gt;operation_event_operation_project_archive_event_project_archived</title>
<path fill="none" stroke="#3f3f46" stroke-width="1.2" d="M1011.18,-535.5C1036.24,-535.5 1071.56,-535.5 1105.77,-535.5"/>
<polygon fill="#3f3f46" stroke="#3f3f46" stroke-width="1.2" points="1105.97,-538.3 1113.97,-535.5 1105.97,-532.7 1105.97,-538.3"/>
<text text-anchor="middle" x="1073.5" y="-538.5" font-family="Arial" font-size="10.00">emit</text>
</g>
<!-- operation_outcome_operation_project_archive_forbidden&#45;&gt;operation_outcome_operation_project_archive_invalid_state -->
<!-- operation_outcome_operation_project_archive_invalid_state&#45;&gt;operation_outcome_operation_project_archive_not_found -->
<!-- operation_outcome_operation_project_archive_not_found&#45;&gt;operation_outcome_operation_project_archive_unauthenticated -->
</g>
</svg>
