<svg width="1379pt" height="300pt"
 viewBox="0.00 0.00 1379.00 300.00" xmlns="http://www.w3.org/2000/svg" xmlns:xlink="http://www.w3.org/1999/xlink">
<!-- pyspec-contract-input-sha256: 943ec920e4c042a1533d22e527e2ddd3bd466fc76b202f64abecf176b4ab86dd -->
<g id="graph0" class="graph" transform="scale(1 1) rotate(0) translate(18 282)">
<title>state_composition_chart_state_machine_project_board_ready</title>
<!-- child_state_machine_list -->
<g id="node1" class="node">
<title>child_state_machine_list</title>
<polygon fill="#ffffff" stroke="transparent" points="0,-101 0,-175 200,-175 200,-101 0,-101"/>
<polygon fill="#047857" stroke="transparent" points="1,-166 1,-174 199,-174 199,-166 1,-166"/>
<polygon fill="#ecfdf5" stroke="transparent" points="1,-135 1,-166 199,-166 199,-135 1,-135"/>
<text text-anchor="start" x="5" y="-152.6" font-family="Arial" font-weight="bold" font-size="13.00">list</text>
<text text-anchor="start" x="5" y="-141.6" font-family="Arial" font-size="8.00" fill="#64748b">nav mount</text>
<text text-anchor="start" x="6" y="-123" font-family="Arial" font-weight="bold" font-size="10.00">state_machine:</text>
<text text-anchor="start" x="76" y="-123" font-family="Arial" font-size="10.00">  state_machine.project.list</text>
<text text-anchor="start" x="6" y="-111" font-family="Arial" font-weight="bold" font-size="10.00">initial_state:</text>
<text text-anchor="start" x="63" y="-111" font-family="Arial" font-size="10.00">  loading</text>
<polygon fill="none" stroke="#047857" points="0,-101 0,-175 200,-175 200,-101 0,-101"/>
</g>
<!-- local_signal_emission_select_project_updates_state_machines_list_project_selected -->
<g id="node4" class="node">
<title>local_signal_emission_select_project_updates_state_machines_list_project_selected</title>
<polygon fill="#ffffff" stroke="transparent" points="261,-101 261,-175 459,-175 459,-101 261,-101"/>
<polygon fill="#be185d" stroke="transparent" points="262,-166 262,-174 458,-174 458,-166 262,-166"/>
<polygon fill="#fdf2f8" stroke="transparent" points="262,-135 262,-166 458,-166 458,-135 262,-135"/>
<text text-anchor="start" x="266" y="-152.6" font-family="Arial" font-weight="bold" font-size="13.00">local_signal.project_selected</text>
<text text-anchor="start" x="266" y="-141.6" font-family="Arial" font-size="8.00" fill="#64748b">local signal emission</text>
<text text-anchor="start" x="267" y="-123" font-family="Arial" font-weight="bold" font-size="10.00">source:</text>
<text text-anchor="start" x="302" y="-123" font-family="Arial" font-size="10.00">  local_signal.project_select</text>
<text text-anchor="start" x="267" y="-111" font-family="Arial" font-weight="bold" font-size="10.00">payload:</text>
<text text-anchor="start" x="307" y="-111" font-family="Arial" font-size="10.00">  project_id</text>
<text text-anchor="start" x="356" y="-111" font-family="Arial" font-size="8.00" fill="#94a3b8">  string</text>
<polygon fill="none" stroke="#be185d" points="261,-101 261,-175 459,-175 459,-101 261,-101"/>
</g>
<!-- child_state_machine_list&#45;&gt;local_signal_emission_select_project_updates_state_machines_list_project_selected -->
<g id="edge3" class="edge">
<title>child_state_machine_list&#45;&gt;local_signal_emission_select_project_updates_state_machines_list_project_selected</title>
<path fill="none" stroke="#3f3f46" d="M200.01,-138C217.11,-138 234.95,-138 252.24,-138"/>
<polygon fill="#3f3f46" stroke="#3f3f46" points="252.68,-140.8 260.68,-138 252.68,-135.2 252.68,-140.8"/>
</g>
<!-- child_state_machine_detail -->
<g id="node2" class="node">
<title>child_state_machine_detail</title>
<polygon fill="#ffffff" stroke="transparent" points="1128,-101 1128,-175 1339,-175 1339,-101 1128,-101"/>
<polygon fill="#047857" stroke="transparent" points="1129.5,-166 1129.5,-174 1338.5,-174 1338.5,-166 1129.5,-166"/>
<polygon fill="#ecfdf5" stroke="transparent" points="1129.5,-135 1129.5,-166 1338.5,-166 1338.5,-135 1129.5,-135"/>
<text text-anchor="start" x="1133.5" y="-152.6" font-family="Arial" font-weight="bold" font-size="13.00">detail</text>
<text text-anchor="start" x="1133.5" y="-141.6" font-family="Arial" font-size="8.00" fill="#64748b">main mount</text>
<text text-anchor="start" x="1134.5" y="-123" font-family="Arial" font-weight="bold" font-size="10.00">state_machine:</text>
<text text-anchor="start" x="1204.5" y="-123" font-family="Arial" font-size="10.00">  state_machine.project.detail</text>
<text text-anchor="start" x="1134.5" y="-111" font-family="Arial" font-weight="bold" font-size="10.00">initial_state:</text>
<text text-anchor="start" x="1191.5" y="-111" font-family="Arial" font-size="10.00">  none</text>
<polygon fill="none" stroke="#047857" points="1128,-101 1128,-175 1339,-175 1339,-101 1128,-101"/>
</g>
<!-- child_state_machine_activity -->
<g id="node3" class="node">
<title>child_state_machine_activity</title>
<polygon fill="#ffffff" stroke="transparent" points="1124,0 1124,-74 1343,-74 1343,0 1124,0"/>
<polygon fill="#047857" stroke="transparent" points="1125.5,-65 1125.5,-73 1342.5,-73 1342.5,-65 1125.5,-65"/>
<polygon fill="#ecfdf5" stroke="transparent" points="1125.5,-34 1125.5,-65 1342.5,-65 1342.5,-34 1125.5,-34"/>
<text text-anchor="start" x="1129.5" y="-51.6" font-family="Arial" font-weight="bold" font-size="13.00">activity</text>
<text text-anchor="start" x="1129.5" y="-40.6" font-family="Arial" font-size="8.00" fill="#64748b">aside mount</text>
<text text-anchor="start" x="1130.5" y="-22" font-family="Arial" font-weight="bold" font-size="10.00">state_machine:</text>
<text text-anchor="start" x="1200.5" y="-22" font-family="Arial" font-size="10.00">  state_machine.project.activity</text>
<text text-anchor="start" x="1130.5" y="-10" font-family="Arial" font-weight="bold" font-size="10.00">initial_state:</text>
<text text-anchor="start" x="1187.5" y="-10" font-family="Arial" font-size="10.00">  empty</text>
<polygon fill="none" stroke="#047857" points="1124,0 1124,-74 1343,-74 1343,0 1124,0"/>
</g>
<!-- local_signal_sync_rule_select_project_updates_state_machines -->
<g id="node5" class="node">
<title>local_signal_sync_rule_select_project_updates_state_machines</title>
<polygon fill="#ffffff" stroke="transparent" points="520,-117.5 520,-158.5 789,-158.5 789,-117.5 520,-117.5"/>
<polygon fill="#a16207" stroke="transparent" points="521.5,-149 521.5,-157 788.5,-157 788.5,-149 521.5,-149"/>
<polygon fill="#fefce8" stroke="transparent" points="521.5,-118 521.5,-149 788.5,-149 788.5,-118 521.5,-118"/>
<text text-anchor="start" x="525.5" y="-135.6" font-family="Arial" font-weight="bold" font-size="13.00">select_project_updates_state_machines</text>
<text text-anchor="start" x="525.5" y="-124.6" font-family="Arial" font-size="8.00" fill="#64748b">local signal sync rule</text>
<polygon fill="none" stroke="#a16207" points="520,-117.5 520,-158.5 789,-158.5 789,-117.5 520,-117.5"/>
</g>
<!-- local_signal_emission_select_project_updates_state_machines_list_project_selected&#45;&gt;local_signal_sync_rule_select_project_updates_state_machines -->
<g id="edge4" class="edge">
<title>local_signal_emission_select_project_updates_state_machines_list_project_selected&#45;&gt;local_signal_sync_rule_select_project_updates_state_machines</title>
<path fill="none" stroke="#3f3f46" d="M459.21,-138C476.12,-138 494,-138 511.78,-138"/>
<polygon fill="#3f3f46" stroke="#3f3f46" points="511.95,-140.8 519.95,-138 511.94,-135.2 511.95,-140.8"/>
</g>
<!-- state_context_update_select_project_updates_state_machines_0 -->
<g id="node6" class="node">
<title>state_context_update_select_project_updates_state_machines_0</title>
<polygon fill="#ffffff" stroke="transparent" points="851,-202 851,-264 1062,-264 1062,-202 851,-202"/>
<polygon fill="#0f766e" stroke="transparent" points="852.5,-255 852.5,-263 1061.5,-263 1061.5,-255 852.5,-255"/>
<polygon fill="#ccfbf1" stroke="transparent" points="852.5,-224 852.5,-255 1061.5,-255 1061.5,-224 852.5,-224"/>
<text text-anchor="start" x="856.5" y="-241.6" font-family="Arial" font-weight="bold" font-size="13.00">selected_project_id</text>
<text text-anchor="start" x="856.5" y="-230.6" font-family="Arial" font-size="8.00" fill="#64748b">state context update</text>
<text text-anchor="start" x="857.5" y="-212" font-family="Arial" font-weight="bold" font-size="10.00">set:</text>
<text text-anchor="start" x="874.5" y="-212" font-family="Arial" font-size="10.00">  selected_project_id</text>
<text text-anchor="start" x="965.5" y="-212" font-family="Arial" font-size="8.00" fill="#94a3b8">  string | null</text>
<text text-anchor="start" x="1008.5" y="-212" font-family="Arial" font-size="8.00"> ← project_id</text>
<polygon fill="none" stroke="#0f766e" points="851,-202 851,-264 1062,-264 1062,-202 851,-202"/>
</g>
<!-- local_signal_sync_rule_select_project_updates_state_machines&#45;&gt;state_context_update_select_project_updates_state_machines_0 -->
<g id="edge9" class="edge">
<title>local_signal_sync_rule_select_project_updates_state_machines&#45;&gt;state_context_update_select_project_updates_state_machines_0</title>
<path fill="none" stroke="#3f3f46" d="M720.6,-158.61C758.31,-170.56 806.71,-185.88 849.76,-199.51"/>
<polygon fill="#3f3f46" stroke="#3f3f46" points="848.98,-202.21 857.45,-201.95 850.67,-196.87 848.98,-202.21"/>
</g>
<!-- local_signal_send_effect_select_project_updates_state_machines_1 -->
<g id="node7" class="node">
<title>local_signal_send_effect_select_project_updates_state_machines_1</title>
<polygon fill="#ffffff" stroke="transparent" points="850,-101 850,-175 1063,-175 1063,-101 850,-101"/>
<polygon fill="#be185d" stroke="transparent" points="851.5,-166 851.5,-174 1062.5,-174 1062.5,-166 851.5,-166"/>
<polygon fill="#fdf2f8" stroke="transparent" points="851.5,-135 851.5,-166 1062.5,-166 1062.5,-135 851.5,-135"/>
<text text-anchor="start" x="855.5" y="-152.6" font-family="Arial" font-weight="bold" font-size="13.00">local_signal.selection_changed</text>
<text text-anchor="start" x="855.5" y="-141.6" font-family="Arial" font-size="8.00" fill="#64748b">local signal send effect</text>
<text text-anchor="start" x="856.5" y="-123" font-family="Arial" font-weight="bold" font-size="10.00">causes:</text>
<text text-anchor="start" x="892.5" y="-123" font-family="Arial" font-size="10.00">  to loading</text>
<text text-anchor="start" x="856.5" y="-111" font-family="Arial" font-weight="bold" font-size="10.00">payload:</text>
<text text-anchor="start" x="896.5" y="-111" font-family="Arial" font-size="10.00">  project_id</text>
<text text-anchor="start" x="945.5" y="-111" font-family="Arial" font-size="8.00" fill="#94a3b8">  string</text>
<polygon fill="none" stroke="#be185d" points="850,-101 850,-175 1063,-175 1063,-101 850,-101"/>
</g>
<!-- local_signal_sync_rule_select_project_updates_state_machines&#45;&gt;local_signal_send_effect_select_project_updates_state_machines_1 -->
<g id="edge5" class="edge">
<title>local_signal_sync_rule_select_project_updates_state_machines&#45;&gt;local_signal_send_effect_select_project_updates_state_machines_1</title>
<path fill="none" stroke="#3f3f46" d="M789.27,-138C806.72,-138 824.48,-138 841.57,-138"/>
<polygon fill="#3f3f46" stroke="#3f3f46" points="841.9,-140.8 849.9,-138 841.9,-135.2 841.9,-140.8"/>
</g>
<!-- local_signal_send_effect_select_project_updates_state_machines_2 -->
<g id="node8" class="node">
<title>local_signal_send_effect_select_project_updates_state_machines_2</title>
<polygon fill="#ffffff" stroke="transparent" points="850,0 850,-74 1063,-74 1063,0 850,0"/>
<polygon fill="#be185d" stroke="transparent" points="851.5,-65 851.5,-73 1062.5,-73 1062.5,-65 851.5,-65"/>
<polygon fill="#fdf2f8" stroke="transparent" points="851.5,-34 851.5,-65 1062.5,-65 1062.5,-34 851.5,-34"/>
<text text-anchor="start" x="855.5" y="-51.6" font-family="Arial" font-weight="bold" font-size="13.00">local_signal.selection_changed</text>
<text text-anchor="start" x="855.5" y="-40.6" font-family="Arial" font-size="8.00" fill="#64748b">local signal send effect</text>
<text text-anchor="start" x="856.5" y="-22" font-family="Arial" font-weight="bold" font-size="10.00">causes:</text>
<text text-anchor="start" x="892.5" y="-22" font-family="Arial" font-size="10.00">  to ready</text>
<text text-anchor="start" x="856.5" y="-10" font-family="Arial" font-weight="bold" font-size="10.00">payload:</text>
<text text-anchor="start" x="896.5" y="-10" font-family="Arial" font-size="10.00">  project_id</text>
<text text-anchor="start" x="945.5" y="-10" font-family="Arial" font-size="8.00" fill="#94a3b8">  string</text>
<polygon fill="none" stroke="#be185d" points="850,0 850,-74 1063,-74 1063,0 850,0"/>
</g>
<!-- local_signal_sync_rule_select_project_updates_state_machines&#45;&gt;local_signal_send_effect_select_project_updates_state_machines_2 -->
<g id="edge7" class="edge">
<title>local_signal_sync_rule_select_project_updates_state_machines&#45;&gt;local_signal_send_effect_select_project_updates_state_machines_2</title>
<path fill="none" stroke="#3f3f46" d="M716.57,-117.44C752.69,-105.28 799.58,-89.49 842.24,-75.13"/>
<polygon fill="#3f3f46" stroke="#3f3f46" points="843.19,-77.77 849.88,-72.56 841.4,-72.46 843.19,-77.77"/>
</g>
<!-- state_context_update_select_project_updates_state_machines_0&#45;&gt;local_signal_send_effect_select_project_updates_state_machines_1 -->
<!-- local_signal_send_effect_select_project_updates_state_machines_1&#45;&gt;child_state_machine_detail -->
<g id="edge6" class="edge">
<title>local_signal_send_effect_select_project_updates_state_machines_1&#45;&gt;child_state_machine_detail</title>
<path fill="none" stroke="#3f3f46" d="M1063.04,-138C1081.51,-138 1100.79,-138 1119.46,-138"/>
<polygon fill="#3f3f46" stroke="#3f3f46" points="1119.7,-140.8 1127.7,-138 1119.7,-135.2 1119.7,-140.8"/>
</g>
<!-- local_signal_send_effect_select_project_updates_state_machines_1&#45;&gt;local_signal_send_effect_select_project_updates_state_machines_2 -->
<!-- local_signal_send_effect_select_project_updates_state_machines_2&#45;&gt;child_state_machine_activity -->
<g id="edge8" class="edge">
<title>local_signal_send_effect_select_project_updates_state_machines_2&#45;&gt;child_state_machine_activity</title>
<path fill="none" stroke="#3f3f46" d="M1063.04,-37C1080.09,-37 1097.83,-37 1115.14,-37"/>
<polygon fill="#3f3f46" stroke="#3f3f46" points="1115.6,-39.8 1123.6,-37 1115.6,-34.2 1115.6,-39.8"/>
</g>
</g>
</svg>
