<svg width="310pt" height="150pt"
 viewBox="0.00 0.00 310.00 150.00" xmlns="http://www.w3.org/2000/svg" xmlns:xlink="http://www.w3.org/1999/xlink">
<g id="graph0" class="graph" transform="scale(1 1) rotate(0) translate(18 132)">
<title>fsm_fsm_project_board</title>
<!-- initial -->
<g id="node1" class="node">
<title>initial</title>
<ellipse fill="none" stroke="#0891b2" cx="21" cy="-57" rx="21" ry="21"/>
<text text-anchor="middle" x="21" y="-54.8" font-family="Arial" font-size="9.00" fill="#155e75">initial</text>
</g>
<!-- state_ready -->
<g id="node2" class="node">
<title>state_ready</title>
<polygon fill="#ffffff" stroke="transparent" points="103,0 103,-114 274,-114 274,0 103,0"/>
<polygon fill="#0891b2" stroke="transparent" points="104.5,-105 104.5,-113 273.5,-113 273.5,-105 104.5,-105"/>
<polygon fill="#ecfeff" stroke="transparent" points="104.5,-74 104.5,-105 273.5,-105 273.5,-74 104.5,-74"/>
<text text-anchor="start" x="108.5" y="-91.6" font-family="Arial" font-weight="bold" font-size="13.00">ready</text>
<text text-anchor="start" x="108.5" y="-80.6" font-family="Arial" font-size="8.00" fill="#64748b">initial state</text>
<text text-anchor="start" x="108.5" y="-63" font-family="Arial" font-weight="bold" font-size="10.00">mounts</text>
<text text-anchor="start" x="108.5" y="-52" font-family="Arial" font-size="10.00">aside</text>
<text text-anchor="start" x="132.5" y="-52" font-family="Arial" font-size="8.00" fill="#94a3b8">  fsm.project.activity</text>
<text text-anchor="start" x="108.5" y="-41" font-family="Arial" font-size="10.00">main</text>
<text text-anchor="start" x="130.5" y="-41" font-family="Arial" font-size="8.00" fill="#94a3b8">  fsm.project.detail</text>
<text text-anchor="start" x="108.5" y="-30" font-family="Arial" font-size="10.00">nav</text>
<text text-anchor="start" x="124.5" y="-30" font-family="Arial" font-size="8.00" fill="#94a3b8">  fsm.project.list</text>
<text text-anchor="start" x="109.5" y="-10" font-family="Arial" font-weight="bold" font-size="10.00">sync:</text>
<text text-anchor="start" x="134.5" y="-10" font-family="Arial" font-size="10.00">  select_project_updates_fsms</text>
<polygon fill="none" stroke="#0891b2" points="103,0 103,-114 274,-114 274,0 103,0"/>
</g>
<!-- initial&#45;&gt;state_ready -->
<g id="edge1" class="edge">
<title>initial&#45;&gt;state_ready</title>
<path fill="none" stroke="#3f3f46" d="M42.29,-57C55.87,-57 74.82,-57 94.55,-57"/>
<polygon fill="#3f3f46" stroke="#3f3f46" points="94.73,-59.8 102.73,-57 94.73,-54.2 94.73,-59.8"/>
</g>
</g>
</svg>
