<svg width="186pt" height="78pt"
 viewBox="0.00 0.00 186.00 78.00" xmlns="http://www.w3.org/2000/svg" xmlns:xlink="http://www.w3.org/1999/xlink">
<g id="graph0" class="graph" transform="scale(1 1) rotate(0) translate(18 60)">
<title>fsm_fsm_project_board</title>
<!-- initial -->
<g id="node1" class="node">
<title>initial</title>
<ellipse fill="none" stroke="#0891b2" cx="21" cy="-21" rx="21" ry="21"/>
<text text-anchor="middle" x="21" y="-18.8" font-family="Arial" font-size="9.00" fill="#155e75">initial</text>
</g>
<!-- state_ready -->
<g id="node2" class="node">
<title>state_ready</title>
<polygon fill="#ffffff" stroke="transparent" points="103,-0.5 103,-41.5 150,-41.5 150,-0.5 103,-0.5"/>
<polygon fill="#0891b2" stroke="transparent" points="104.5,-32 104.5,-40 149.5,-40 149.5,-32 104.5,-32"/>
<polygon fill="#ecfeff" stroke="transparent" points="104.5,-1 104.5,-32 149.5,-32 149.5,-1 104.5,-1"/>
<text text-anchor="start" x="108.5" y="-18.6" font-family="Arial" font-weight="bold" font-size="13.00">ready</text>
<text text-anchor="start" x="108.5" y="-7.6" font-family="Arial" font-size="8.00" fill="#64748b">initial state</text>
<polygon fill="none" stroke="#0891b2" points="103,-0.5 103,-41.5 150,-41.5 150,-0.5 103,-0.5"/>
</g>
<!-- initial&#45;&gt;state_ready -->
<g id="edge1" class="edge">
<title>initial&#45;&gt;state_ready</title>
<path fill="none" stroke="#3f3f46" d="M42.45,-21C57.3,-21 77.66,-21 94.5,-21"/>
<polygon fill="#3f3f46" stroke="#3f3f46" points="94.94,-23.8 102.94,-21 94.94,-18.2 94.94,-23.8"/>
</g>
</g>
</svg>
