<svg width="377pt" height="482pt"
 viewBox="0.00 0.00 377.00 482.00" xmlns="http://www.w3.org/2000/svg" xmlns:xlink="http://www.w3.org/1999/xlink">
<!-- pyspec-contract-input-sha256: 0c276fce04f0cd04ec8d31c56c2573b80e5d88bc826a3cd3833f968732f1fe24 -->
<g id="graph0" class="graph" transform="scale(1 1) rotate(0) translate(18 464)">
<title>operation_query_project_read</title>
<!-- operation_input_query_project_read -->
<g id="node1" class="node">
<title>operation_input_query_project_read</title>
<polygon fill="#ffffff" stroke="transparent" points="0,-166 0,-237 78,-237 78,-166 0,-166"/>
<polygon fill="#64748b" stroke="transparent" points="1,-227.5 1,-235.5 77,-235.5 77,-227.5 1,-227.5"/>
<polygon fill="#f8fafc" stroke="transparent" points="1,-196.5 1,-227.5 77,-227.5 77,-196.5 1,-196.5"/>
<text text-anchor="start" x="5" y="-214.1" font-family="Arial" font-weight="bold" font-size="13.00">input</text>
<text text-anchor="start" x="5" y="-203.1" font-family="Arial" font-size="8.00" fill="#64748b">operation input</text>
<text text-anchor="start" x="5" y="-185.5" font-family="Arial" font-weight="bold" font-size="10.00">fields</text>
<text text-anchor="start" x="5" y="-174.5" font-family="Arial" font-size="10.00">project_id</text>
<text text-anchor="start" x="48" y="-174.5" font-family="Arial" font-size="8.00" fill="#94a3b8">  string</text>
<polygon fill="none" stroke="#64748b" points="0,-166 0,-237 78,-237 78,-166 0,-166"/>
</g>
<!-- operation_outcome_query_project_read_access_denied -->
<g id="node2" class="node">
<title>operation_outcome_query_project_read_access_denied</title>
<polygon fill="#ffffff" stroke="transparent" points="205.5,-375 205.5,-446 312.5,-446 312.5,-375 205.5,-375"/>
<polygon fill="#dc2626" stroke="transparent" points="207,-436.5 207,-444.5 312,-444.5 312,-436.5 207,-436.5"/>
<polygon fill="#fef2f2" stroke="transparent" points="207,-405.5 207,-436.5 312,-436.5 312,-405.5 207,-405.5"/>
<text text-anchor="start" x="211" y="-423.1" font-family="Arial" font-weight="bold" font-size="13.00">access_denied</text>
<text text-anchor="start" x="211" y="-412.1" font-family="Arial" font-size="8.00" fill="#64748b">failure outcome</text>
<text text-anchor="start" x="211" y="-394.5" font-family="Arial" font-weight="bold" font-size="10.00">result</text>
<text text-anchor="start" x="211" y="-383.5" font-family="Arial" font-size="10.00">result</text>
<text text-anchor="start" x="236" y="-383.5" font-family="Arial" font-size="8.00" fill="#94a3b8">  Problem</text>
<polygon fill="none" stroke="#dc2626" points="205.5,-375 205.5,-446 312.5,-446 312.5,-375 205.5,-375"/>
</g>
<!-- operation_input_query_project_read&#45;&gt;operation_outcome_query_project_read_access_denied -->
<g id="edge1" class="edge">
<title>operation_input_query_project_read&#45;&gt;operation_outcome_query_project_read_access_denied</title>
<path fill="none" stroke="#3f3f46" d="M76.47,-237.23C103.98,-264.11 142.71,-301.77 177,-334.5 188.76,-345.72 201.56,-357.8 213.44,-368.94"/>
<polygon fill="#3f3f46" stroke="#3f3f46" points="211.8,-371.25 219.55,-374.68 215.63,-367.16 211.8,-371.25"/>
<text text-anchor="middle" x="127.5" y="-304.5" font-family="Arial" font-size="10.00">failure</text>
</g>
<!-- operation_outcome_query_project_read_authentication_required -->
<g id="node3" class="node">
<title>operation_outcome_query_project_read_authentication_required</title>
<polygon fill="#ffffff" stroke="transparent" points="177,-250 177,-321 341,-321 341,-250 177,-250"/>
<polygon fill="#dc2626" stroke="transparent" points="178,-311.5 178,-319.5 340,-319.5 340,-311.5 178,-311.5"/>
<polygon fill="#fef2f2" stroke="transparent" points="178,-280.5 178,-311.5 340,-311.5 340,-280.5 178,-280.5"/>
<text text-anchor="start" x="182" y="-298.1" font-family="Arial" font-weight="bold" font-size="13.00">authentication_required</text>
<text text-anchor="start" x="182" y="-287.1" font-family="Arial" font-size="8.00" fill="#64748b">failure outcome</text>
<text text-anchor="start" x="182" y="-269.5" font-family="Arial" font-weight="bold" font-size="10.00">result</text>
<text text-anchor="start" x="182" y="-258.5" font-family="Arial" font-size="10.00">result</text>
<text text-anchor="start" x="207" y="-258.5" font-family="Arial" font-size="8.00" fill="#94a3b8">  Problem</text>
<polygon fill="none" stroke="#dc2626" points="177,-250 177,-321 341,-321 341,-250 177,-250"/>
</g>
<!-- operation_input_query_project_read&#45;&gt;operation_outcome_query_project_read_authentication_required -->
<g id="edge2" class="edge">
<title>operation_input_query_project_read&#45;&gt;operation_outcome_query_project_read_authentication_required</title>
<path fill="none" stroke="#3f3f46" d="M78.22,-216.23C103.43,-225.94 137.54,-239.08 169.27,-251.31"/>
<polygon fill="#3f3f46" stroke="#3f3f46" points="168.38,-253.97 176.85,-254.23 170.4,-248.74 168.38,-253.97"/>
<text text-anchor="middle" x="127.5" y="-243.5" font-family="Arial" font-size="10.00">failure</text>
</g>
<!-- operation_outcome_query_project_read_found -->
<g id="node4" class="node">
<title>operation_outcome_query_project_read_found</title>
<polygon fill="#ffffff" stroke="transparent" points="223.5,-125 223.5,-196 294.5,-196 294.5,-125 223.5,-125"/>
<polygon fill="#16a34a" stroke="transparent" points="225,-186.5 225,-194.5 294,-194.5 294,-186.5 225,-186.5"/>
<polygon fill="#f0fdf4" stroke="transparent" points="225,-155.5 225,-186.5 294,-186.5 294,-155.5 225,-155.5"/>
<text text-anchor="start" x="229" y="-173.1" font-family="Arial" font-weight="bold" font-size="13.00">found</text>
<text text-anchor="start" x="229" y="-162.1" font-family="Arial" font-size="8.00" fill="#64748b">success outcome</text>
<text text-anchor="start" x="229" y="-144.5" font-family="Arial" font-weight="bold" font-size="10.00">result</text>
<text text-anchor="start" x="229" y="-133.5" font-family="Arial" font-size="10.00">result</text>
<text text-anchor="start" x="254" y="-133.5" font-family="Arial" font-size="8.00" fill="#94a3b8">  Project</text>
<polygon fill="none" stroke="#16a34a" points="223.5,-125 223.5,-196 294.5,-196 294.5,-125 223.5,-125"/>
</g>
<!-- operation_input_query_project_read&#45;&gt;operation_outcome_query_project_read_found -->
<g id="edge3" class="edge">
<title>operation_input_query_project_read&#45;&gt;operation_outcome_query_project_read_found</title>
<path fill="none" stroke="#3f3f46" d="M78.22,-194.31C116.61,-187.09 175.62,-175.99 215.47,-168.5"/>
<polygon fill="#3f3f46" stroke="#3f3f46" points="216.08,-171.23 223.42,-167 215.04,-165.73 216.08,-171.23"/>
<text text-anchor="middle" x="127.5" y="-190.5" font-family="Arial" font-size="10.00">success</text>
</g>
<!-- operation_outcome_query_project_read_not_found -->
<g id="node5" class="node">
<title>operation_outcome_query_project_read_not_found</title>
<polygon fill="#ffffff" stroke="transparent" points="220.5,0 220.5,-71 297.5,-71 297.5,0 220.5,0"/>
<polygon fill="#dc2626" stroke="transparent" points="222,-61.5 222,-69.5 297,-69.5 297,-61.5 222,-61.5"/>
<polygon fill="#fef2f2" stroke="transparent" points="222,-30.5 222,-61.5 297,-61.5 297,-30.5 222,-30.5"/>
<text text-anchor="start" x="226" y="-48.1" font-family="Arial" font-weight="bold" font-size="13.00">not_found</text>
<text text-anchor="start" x="226" y="-37.1" font-family="Arial" font-size="8.00" fill="#64748b">failure outcome</text>
<text text-anchor="start" x="226" y="-19.5" font-family="Arial" font-weight="bold" font-size="10.00">result</text>
<text text-anchor="start" x="226" y="-8.5" font-family="Arial" font-size="10.00">result</text>
<text text-anchor="start" x="251" y="-8.5" font-family="Arial" font-size="8.00" fill="#94a3b8">  Problem</text>
<polygon fill="none" stroke="#dc2626" points="220.5,0 220.5,-71 297.5,-71 297.5,0 220.5,0"/>
</g>
<!-- operation_input_query_project_read&#45;&gt;operation_outcome_query_project_read_not_found -->
<g id="edge4" class="edge">
<title>operation_input_query_project_read&#45;&gt;operation_outcome_query_project_read_not_found</title>
<path fill="none" stroke="#3f3f46" d="M78.22,-172.4C115.97,-143.65 173.67,-99.72 213.47,-69.41"/>
<polygon fill="#3f3f46" stroke="#3f3f46" points="215.52,-71.37 220.19,-64.29 212.13,-66.91 215.52,-71.37"/>
<text text-anchor="middle" x="127.5" y="-150.5" font-family="Arial" font-size="10.00">failure</text>
</g>
<!-- operation_outcome_query_project_read_access_denied&#45;&gt;operation_outcome_query_project_read_authentication_required -->
<!-- operation_outcome_query_project_read_authentication_required&#45;&gt;operation_outcome_query_project_read_found -->
<!-- operation_outcome_query_project_read_found&#45;&gt;operation_outcome_query_project_read_not_found -->
</g>
</svg>
