<svg width="928pt" height="485pt"
 viewBox="0.00 0.00 928.00 485.00" xmlns="http://www.w3.org/2000/svg" xmlns:xlink="http://www.w3.org/1999/xlink">
<!-- pyspec-contract-input-sha256: 67e45072529383c3c3fdced52de99266e00064e0e45625ef7fc899e5314a3bd4 -->
<g id="graph0" class="graph" transform="scale(1 1) rotate(0) translate(18 467)">
<title>external_interface_external_interface_api_project_list</title>
<!-- external_interface_external_interface_api_project_list -->
<g id="node1" class="node">
<title>external_interface_external_interface_api_project_list</title>
<polygon fill="#ffffff" stroke="transparent" points="0,-158 0,-290 347,-290 347,-158 0,-158"/>
<polygon fill="#0891b2" stroke="transparent" points="1.5,-281 1.5,-289 346.5,-289 346.5,-281 1.5,-281"/>
<polygon fill="#ecfeff" stroke="transparent" points="1.5,-250 1.5,-281 346.5,-281 346.5,-250 1.5,-250"/>
<text text-anchor="start" x="5.5" y="-267.6" font-family="Arial" font-weight="bold" font-size="13.00">GET /workspaces/{workspace_id}/projects</text>
<text text-anchor="start" x="5.5" y="-256.6" font-family="Arial" font-size="8.00" fill="#64748b">http_api external interface</text>
<text text-anchor="start" x="5.5" y="-239" font-family="Arial" font-style="italic" font-size="10.00" fill="#3f3f46">HTTP operation for listing dispatch projects.</text>
<text text-anchor="start" x="6.5" y="-219" font-family="Arial" font-weight="bold" font-size="10.00">http operation:</text>
<text text-anchor="start" x="75.5" y="-219" font-family="Arial" font-size="10.00">  http_operation.project.list</text>
<text text-anchor="start" x="5.5" y="-199" font-family="Arial" font-weight="bold" font-size="10.00">path params</text>
<text text-anchor="start" x="5.5" y="-188" font-family="Arial" font-size="10.00">workspace_id</text>
<text text-anchor="start" x="66.5" y="-188" font-family="Arial" font-size="8.00" fill="#94a3b8">  string</text>
<text text-anchor="start" x="6.5" y="-168" font-family="Arial" font-weight="bold" font-size="10.00">input mapping:</text>
<text text-anchor="start" x="78.5" y="-168" font-family="Arial" font-size="10.00">  workspace_id ← adapter_input.path_params.workspace_id</text>
<polygon fill="none" stroke="#0891b2" points="0,-158 0,-290 347,-290 347,-158 0,-158"/>
</g>
<!-- external_interface_invocation_query_project_list -->
<g id="node2" class="node">
<title>external_interface_invocation_query_project_list</title>
<polygon fill="#ffffff" stroke="transparent" points="408,-178 408,-270 631,-270 631,-178 408,-178"/>
<polygon fill="#2563eb" stroke="transparent" points="409.5,-261 409.5,-269 630.5,-269 630.5,-261 409.5,-261"/>
<polygon fill="#eff6ff" stroke="transparent" points="409.5,-230 409.5,-261 630.5,-261 630.5,-230 409.5,-230"/>
<text text-anchor="start" x="413.5" y="-247.6" font-family="Arial" font-weight="bold" font-size="13.00">query.project.list</text>
<text text-anchor="start" x="413.5" y="-236.6" font-family="Arial" font-size="8.00" fill="#64748b">invoked query</text>
<text text-anchor="start" x="413.5" y="-219" font-family="Arial" font-style="italic" font-size="10.00" fill="#3f3f46">The board requires a project list query scoped by</text>
<text text-anchor="start" x="413.5" y="-208" font-family="Arial" font-style="italic" font-size="10.00" fill="#3f3f46">workspace.</text>
<text text-anchor="start" x="414.5" y="-188" font-family="Arial" font-weight="bold" font-size="10.00">kind:</text>
<text text-anchor="start" x="438.5" y="-188" font-family="Arial" font-size="10.00">  query</text>
<polygon fill="none" stroke="#2563eb" points="408,-178 408,-270 631,-270 631,-178 408,-178"/>
</g>
<!-- external_interface_external_interface_api_project_list&#45;&gt;external_interface_invocation_query_project_list -->
<g id="edge1" class="edge">
<title>external_interface_external_interface_api_project_list&#45;&gt;external_interface_invocation_query_project_list</title>
<path fill="none" stroke="#3f3f46" d="M347,-224C364.72,-224 382.44,-224 399.39,-224"/>
<polygon fill="#3f3f46" stroke="#3f3f46" points="399.65,-226.8 407.65,-224 399.65,-221.2 399.65,-226.8"/>
</g>
<!-- external_interface_response_external_interface_api_project_list_access_denied -->
<g id="node3" class="node">
<title>external_interface_response_external_interface_api_project_list_access_denied</title>
<polygon fill="#ffffff" stroke="transparent" points="703.5,-357 703.5,-449 880.5,-449 880.5,-357 703.5,-357"/>
<polygon fill="#dc2626" stroke="transparent" points="705,-440 705,-448 880,-448 880,-440 705,-440"/>
<polygon fill="#fef2f2" stroke="transparent" points="705,-409 705,-440 880,-440 880,-409 705,-409"/>
<text text-anchor="start" x="709" y="-426.6" font-family="Arial" font-weight="bold" font-size="13.00">access_denied</text>
<text text-anchor="start" x="709" y="-415.6" font-family="Arial" font-size="8.00" fill="#64748b">failure response</text>
<text text-anchor="start" x="710" y="-397" font-family="Arial" font-weight="bold" font-size="10.00">status:</text>
<text text-anchor="start" x="741" y="-397" font-family="Arial" font-size="10.00">  403</text>
<text text-anchor="start" x="709" y="-377" font-family="Arial" font-weight="bold" font-size="10.00">body schema</text>
<text text-anchor="start" x="709" y="-366" font-family="Arial" font-size="10.00">body</text>
<text text-anchor="start" x="731" y="-366" font-family="Arial" font-size="8.00" fill="#94a3b8">  Problem</text>
<text text-anchor="start" x="766" y="-366" font-family="Arial" font-size="8.00"> ← $invocation_outcome.result</text>
<polygon fill="none" stroke="#dc2626" points="703.5,-357 703.5,-449 880.5,-449 880.5,-357 703.5,-357"/>
</g>
<!-- external_interface_invocation_query_project_list&#45;&gt;external_interface_response_external_interface_api_project_list_access_denied -->
<g id="edge2" class="edge">
<title>external_interface_invocation_query_project_list&#45;&gt;external_interface_response_external_interface_api_project_list_access_denied</title>
<path fill="none" stroke="#3f3f46" d="M584.08,-270.14C616.08,-292.94 655.69,-320.52 692,-344 696.46,-346.88 701.06,-349.8 705.72,-352.72"/>
<polygon fill="#3f3f46" stroke="#3f3f46" points="704.31,-355.14 712.58,-356.99 707.27,-350.39 704.31,-355.14"/>
</g>
<!-- external_interface_response_external_interface_api_project_list_authentication_required -->
<g id="node4" class="node">
<title>external_interface_response_external_interface_api_project_list_authentication_required</title>
<polygon fill="#ffffff" stroke="transparent" points="703.5,-238 703.5,-330 880.5,-330 880.5,-238 703.5,-238"/>
<polygon fill="#dc2626" stroke="transparent" points="705,-321 705,-329 880,-329 880,-321 705,-321"/>
<polygon fill="#fef2f2" stroke="transparent" points="705,-290 705,-321 880,-321 880,-290 705,-290"/>
<text text-anchor="start" x="709" y="-307.6" font-family="Arial" font-weight="bold" font-size="13.00">authentication_required</text>
<text text-anchor="start" x="709" y="-296.6" font-family="Arial" font-size="8.00" fill="#64748b">failure response</text>
<text text-anchor="start" x="710" y="-278" font-family="Arial" font-weight="bold" font-size="10.00">status:</text>
<text text-anchor="start" x="741" y="-278" font-family="Arial" font-size="10.00">  401</text>
<text text-anchor="start" x="709" y="-258" font-family="Arial" font-weight="bold" font-size="10.00">body schema</text>
<text text-anchor="start" x="709" y="-247" font-family="Arial" font-size="10.00">body</text>
<text text-anchor="start" x="731" y="-247" font-family="Arial" font-size="8.00" fill="#94a3b8">  Problem</text>
<text text-anchor="start" x="766" y="-247" font-family="Arial" font-size="8.00"> ← $invocation_outcome.result</text>
<polygon fill="none" stroke="#dc2626" points="703.5,-238 703.5,-330 880.5,-330 880.5,-238 703.5,-238"/>
</g>
<!-- external_interface_invocation_query_project_list&#45;&gt;external_interface_response_external_interface_api_project_list_authentication_required -->
<g id="edge3" class="edge">
<title>external_interface_invocation_query_project_list&#45;&gt;external_interface_response_external_interface_api_project_list_authentication_required</title>
<path fill="none" stroke="#3f3f46" d="M631.3,-248.58C652.52,-253.28 674.57,-258.17 695.26,-262.76"/>
<polygon fill="#3f3f46" stroke="#3f3f46" points="694.71,-265.51 703.12,-264.51 695.92,-260.04 694.71,-265.51"/>
</g>
<!-- external_interface_response_external_interface_api_project_list_listed -->
<g id="node5" class="node">
<title>external_interface_response_external_interface_api_project_list_listed</title>
<polygon fill="#ffffff" stroke="transparent" points="692,-119 692,-211 892,-211 892,-119 692,-119"/>
<polygon fill="#16a34a" stroke="transparent" points="693,-202 693,-210 891,-210 891,-202 693,-202"/>
<polygon fill="#f0fdf4" stroke="transparent" points="693,-171 693,-202 891,-202 891,-171 693,-171"/>
<text text-anchor="start" x="697" y="-188.6" font-family="Arial" font-weight="bold" font-size="13.00">listed</text>
<text text-anchor="start" x="697" y="-177.6" font-family="Arial" font-size="8.00" fill="#64748b">success response</text>
<text text-anchor="start" x="698" y="-159" font-family="Arial" font-weight="bold" font-size="10.00">status:</text>
<text text-anchor="start" x="729" y="-159" font-family="Arial" font-size="10.00">  200</text>
<text text-anchor="start" x="697" y="-139" font-family="Arial" font-weight="bold" font-size="10.00">body schema</text>
<text text-anchor="start" x="697" y="-128" font-family="Arial" font-size="10.00">body</text>
<text text-anchor="start" x="719" y="-128" font-family="Arial" font-size="8.00" fill="#94a3b8">  array&lt;Project&gt;</text>
<text text-anchor="start" x="777" y="-128" font-family="Arial" font-size="8.00"> ← $invocation_outcome.result</text>
<polygon fill="none" stroke="#16a34a" points="692,-119 692,-211 892,-211 892,-119 692,-119"/>
</g>
<!-- external_interface_invocation_query_project_list&#45;&gt;external_interface_response_external_interface_api_project_list_listed -->
<g id="edge4" class="edge">
<title>external_interface_invocation_query_project_list&#45;&gt;external_interface_response_external_interface_api_project_list_listed</title>
<path fill="none" stroke="#3f3f46" d="M631.3,-199.83C648.64,-196.05 666.53,-192.15 683.78,-188.39"/>
<polygon fill="#3f3f46" stroke="#3f3f46" points="684.43,-191.11 691.65,-186.67 683.24,-185.64 684.43,-191.11"/>
</g>
<!-- external_interface_response_external_interface_api_project_list_unavailable -->
<g id="node6" class="node">
<title>external_interface_response_external_interface_api_project_list_unavailable</title>
<polygon fill="#ffffff" stroke="transparent" points="703.5,0 703.5,-92 880.5,-92 880.5,0 703.5,0"/>
<polygon fill="#dc2626" stroke="transparent" points="705,-83 705,-91 880,-91 880,-83 705,-83"/>
<polygon fill="#fef2f2" stroke="transparent" points="705,-52 705,-83 880,-83 880,-52 705,-52"/>
<text text-anchor="start" x="709" y="-69.6" font-family="Arial" font-weight="bold" font-size="13.00">unavailable</text>
<text text-anchor="start" x="709" y="-58.6" font-family="Arial" font-size="8.00" fill="#64748b">failure response</text>
<text text-anchor="start" x="710" y="-40" font-family="Arial" font-weight="bold" font-size="10.00">status:</text>
<text text-anchor="start" x="741" y="-40" font-family="Arial" font-size="10.00">  503</text>
<text text-anchor="start" x="709" y="-20" font-family="Arial" font-weight="bold" font-size="10.00">body schema</text>
<text text-anchor="start" x="709" y="-9" font-family="Arial" font-size="10.00">body</text>
<text text-anchor="start" x="731" y="-9" font-family="Arial" font-size="8.00" fill="#94a3b8">  Problem</text>
<text text-anchor="start" x="766" y="-9" font-family="Arial" font-size="8.00"> ← $invocation_outcome.result</text>
<polygon fill="none" stroke="#dc2626" points="703.5,0 703.5,-92 880.5,-92 880.5,0 703.5,0"/>
</g>
<!-- external_interface_invocation_query_project_list&#45;&gt;external_interface_response_external_interface_api_project_list_unavailable -->
<g id="edge5" class="edge">
<title>external_interface_invocation_query_project_list&#45;&gt;external_interface_response_external_interface_api_project_list_unavailable</title>
<path fill="none" stroke="#3f3f46" d="M585.46,-178C617.28,-155.8 656.33,-129.05 692,-106 696.87,-102.85 701.91,-99.65 707,-96.44"/>
<polygon fill="#3f3f46" stroke="#3f3f46" points="708.68,-98.7 713.98,-92.08 705.71,-93.95 708.68,-98.7"/>
</g>
<!-- external_interface_response_external_interface_api_project_list_access_denied&#45;&gt;external_interface_response_external_interface_api_project_list_authentication_required -->
<!-- external_interface_response_external_interface_api_project_list_authentication_required&#45;&gt;external_interface_response_external_interface_api_project_list_listed -->
<!-- external_interface_response_external_interface_api_project_list_listed&#45;&gt;external_interface_response_external_interface_api_project_list_unavailable -->
</g>
</svg>
