<svg width="848pt" height="485pt"
 viewBox="0.00 0.00 848.00 485.00" xmlns="http://www.w3.org/2000/svg" xmlns:xlink="http://www.w3.org/1999/xlink">
<!-- pyspec-contract-input-sha256: 96556a005c018583157f9cf7af70c5fb0299b2aae00b4c2b6a33cfb688a88005 -->
<g id="graph0" class="graph" transform="scale(1 1) rotate(0) translate(18 467)">
<title>external_interface_external_interface_api_project_list</title>
<!-- external_interface_external_interface_api_project_list -->
<g id="node1" class="node">
<title>external_interface_external_interface_api_project_list</title>
<polygon fill="#ffffff" stroke="transparent" points="0,-168.5 0,-279.5 281,-279.5 281,-168.5 0,-168.5"/>
<polygon fill="#0891b2" stroke="transparent" points="1.5,-270 1.5,-278 280.5,-278 280.5,-270 1.5,-270"/>
<polygon fill="#ecfeff" stroke="transparent" points="1.5,-239 1.5,-270 280.5,-270 280.5,-239 1.5,-239"/>
<text text-anchor="start" x="5.5" y="-256.6" font-family="Arial" font-weight="bold" font-size="13.00">GET /workspaces/{workspace_id}/projects</text>
<text text-anchor="start" x="5.5" y="-245.6" font-family="Arial" font-size="8.00" fill="#64748b">http_api external interface</text>
<text text-anchor="start" x="5.5" y="-228" font-family="Arial" font-style="italic" font-size="10.00" fill="#3f3f46">HTTP endpoint for listing dispatch projects.</text>
<text text-anchor="start" x="6.5" y="-208" font-family="Arial" font-weight="bold" font-size="10.00">endpoint:</text>
<text text-anchor="start" x="51.5" y="-208" font-family="Arial" font-size="10.00">  endpoint.project.list</text>
<text text-anchor="start" x="5.5" y="-188" font-family="Arial" font-weight="bold" font-size="10.00">path params</text>
<text text-anchor="start" x="5.5" y="-177" font-family="Arial" font-size="10.00">workspace_id</text>
<text text-anchor="start" x="66.5" y="-177" font-family="Arial" font-size="8.00" fill="#94a3b8">  string</text>
<polygon fill="none" stroke="#0891b2" points="0,-168.5 0,-279.5 281,-279.5 281,-168.5 0,-168.5"/>
</g>
<!-- external_interface_target_query_project_list -->
<g id="node2" class="node">
<title>external_interface_target_query_project_list</title>
<polygon fill="#ffffff" stroke="transparent" points="342,-178 342,-270 565,-270 565,-178 342,-178"/>
<polygon fill="#2563eb" stroke="transparent" points="343.5,-261 343.5,-269 564.5,-269 564.5,-261 343.5,-261"/>
<polygon fill="#eff6ff" stroke="transparent" points="343.5,-230 343.5,-261 564.5,-261 564.5,-230 343.5,-230"/>
<text text-anchor="start" x="347.5" y="-247.6" font-family="Arial" font-weight="bold" font-size="13.00">query.project.list</text>
<text text-anchor="start" x="347.5" y="-236.6" font-family="Arial" font-size="8.00" fill="#64748b">target query</text>
<text text-anchor="start" x="347.5" y="-219" font-family="Arial" font-style="italic" font-size="10.00" fill="#3f3f46">The board requires a project list query scoped by</text>
<text text-anchor="start" x="347.5" y="-208" font-family="Arial" font-style="italic" font-size="10.00" fill="#3f3f46">workspace.</text>
<text text-anchor="start" x="348.5" y="-188" font-family="Arial" font-weight="bold" font-size="10.00">kind:</text>
<text text-anchor="start" x="372.5" y="-188" font-family="Arial" font-size="10.00">  query</text>
<polygon fill="none" stroke="#2563eb" points="342,-178 342,-270 565,-270 565,-178 342,-178"/>
</g>
<!-- external_interface_external_interface_api_project_list&#45;&gt;external_interface_target_query_project_list -->
<g id="edge1" class="edge">
<title>external_interface_external_interface_api_project_list&#45;&gt;external_interface_target_query_project_list</title>
<path fill="none" stroke="#3f3f46" d="M281.08,-224C298.57,-224 316.32,-224 333.45,-224"/>
<polygon fill="#3f3f46" stroke="#3f3f46" points="333.81,-226.8 341.81,-224 333.81,-221.2 333.81,-226.8"/>
</g>
<!-- external_interface_response_external_interface_api_project_list_access_denied -->
<g id="node3" class="node">
<title>external_interface_response_external_interface_api_project_list_access_denied</title>
<polygon fill="#ffffff" stroke="transparent" points="637.5,-357 637.5,-449 800.5,-449 800.5,-357 637.5,-357"/>
<polygon fill="#dc2626" stroke="transparent" points="639,-440 639,-448 800,-448 800,-440 639,-440"/>
<polygon fill="#fef2f2" stroke="transparent" points="639,-409 639,-440 800,-440 800,-409 639,-409"/>
<text text-anchor="start" x="643" y="-426.6" font-family="Arial" font-weight="bold" font-size="13.00">access_denied</text>
<text text-anchor="start" x="643" y="-415.6" font-family="Arial" font-size="8.00" fill="#64748b">failure response</text>
<text text-anchor="start" x="644" y="-397" font-family="Arial" font-weight="bold" font-size="10.00">status:</text>
<text text-anchor="start" x="675" y="-397" font-family="Arial" font-size="10.00">  403</text>
<text text-anchor="start" x="643" y="-377" font-family="Arial" font-weight="bold" font-size="10.00">body</text>
<text text-anchor="start" x="643" y="-366" font-family="Arial" font-size="10.00">body</text>
<text text-anchor="start" x="665" y="-366" font-family="Arial" font-size="8.00" fill="#94a3b8">  Problem</text>
<text text-anchor="start" x="700" y="-366" font-family="Arial" font-size="8.00"> ← $action_outcome.result</text>
<polygon fill="none" stroke="#dc2626" points="637.5,-357 637.5,-449 800.5,-449 800.5,-357 637.5,-357"/>
</g>
<!-- external_interface_target_query_project_list&#45;&gt;external_interface_response_external_interface_api_project_list_access_denied -->
<g id="edge2" class="edge">
<title>external_interface_target_query_project_list&#45;&gt;external_interface_response_external_interface_api_project_list_access_denied</title>
<path fill="none" stroke="#3f3f46" d="M519.22,-270.21C551.16,-292.77 590.38,-320.13 626,-344 630.14,-346.77 634.39,-349.6 638.7,-352.43"/>
<polygon fill="#3f3f46" stroke="#3f3f46" points="637.28,-354.85 645.5,-356.89 640.35,-350.17 637.28,-354.85"/>
</g>
<!-- external_interface_response_external_interface_api_project_list_authentication_required -->
<g id="node4" class="node">
<title>external_interface_response_external_interface_api_project_list_authentication_required</title>
<polygon fill="#ffffff" stroke="transparent" points="637,-238 637,-330 801,-330 801,-238 637,-238"/>
<polygon fill="#dc2626" stroke="transparent" points="638,-321 638,-329 800,-329 800,-321 638,-321"/>
<polygon fill="#fef2f2" stroke="transparent" points="638,-290 638,-321 800,-321 800,-290 638,-290"/>
<text text-anchor="start" x="642" y="-307.6" font-family="Arial" font-weight="bold" font-size="13.00">authentication_required</text>
<text text-anchor="start" x="642" y="-296.6" font-family="Arial" font-size="8.00" fill="#64748b">failure response</text>
<text text-anchor="start" x="643" y="-278" font-family="Arial" font-weight="bold" font-size="10.00">status:</text>
<text text-anchor="start" x="674" y="-278" font-family="Arial" font-size="10.00">  401</text>
<text text-anchor="start" x="642" y="-258" font-family="Arial" font-weight="bold" font-size="10.00">body</text>
<text text-anchor="start" x="642" y="-247" font-family="Arial" font-size="10.00">body</text>
<text text-anchor="start" x="664" y="-247" font-family="Arial" font-size="8.00" fill="#94a3b8">  Problem</text>
<text text-anchor="start" x="699" y="-247" font-family="Arial" font-size="8.00"> ← $action_outcome.result</text>
<polygon fill="none" stroke="#dc2626" points="637,-238 637,-330 801,-330 801,-238 637,-238"/>
</g>
<!-- external_interface_target_query_project_list&#45;&gt;external_interface_response_external_interface_api_project_list_authentication_required -->
<g id="edge3" class="edge">
<title>external_interface_target_query_project_list&#45;&gt;external_interface_response_external_interface_api_project_list_authentication_required</title>
<path fill="none" stroke="#3f3f46" d="M565.1,-249.18C586.36,-254.03 608.38,-259.04 628.86,-263.7"/>
<polygon fill="#3f3f46" stroke="#3f3f46" points="628.5,-266.49 636.92,-265.54 629.75,-261.03 628.5,-266.49"/>
</g>
<!-- external_interface_response_external_interface_api_project_list_listed -->
<g id="node5" class="node">
<title>external_interface_response_external_interface_api_project_list_listed</title>
<polygon fill="#ffffff" stroke="transparent" points="626,-119 626,-211 812,-211 812,-119 626,-119"/>
<polygon fill="#16a34a" stroke="transparent" points="627,-202 627,-210 811,-210 811,-202 627,-202"/>
<polygon fill="#f0fdf4" stroke="transparent" points="627,-171 627,-202 811,-202 811,-171 627,-171"/>
<text text-anchor="start" x="631" y="-188.6" font-family="Arial" font-weight="bold" font-size="13.00">listed</text>
<text text-anchor="start" x="631" y="-177.6" font-family="Arial" font-size="8.00" fill="#64748b">success response</text>
<text text-anchor="start" x="632" y="-159" font-family="Arial" font-weight="bold" font-size="10.00">status:</text>
<text text-anchor="start" x="663" y="-159" font-family="Arial" font-size="10.00">  200</text>
<text text-anchor="start" x="631" y="-139" font-family="Arial" font-weight="bold" font-size="10.00">body</text>
<text text-anchor="start" x="631" y="-128" font-family="Arial" font-size="10.00">body</text>
<text text-anchor="start" x="653" y="-128" font-family="Arial" font-size="8.00" fill="#94a3b8">  array&lt;Project&gt;</text>
<text text-anchor="start" x="711" y="-128" font-family="Arial" font-size="8.00"> ← $action_outcome.result</text>
<polygon fill="none" stroke="#16a34a" points="626,-119 626,-211 812,-211 812,-119 626,-119"/>
</g>
<!-- external_interface_target_query_project_list&#45;&gt;external_interface_response_external_interface_api_project_list_listed -->
<g id="edge4" class="edge">
<title>external_interface_target_query_project_list&#45;&gt;external_interface_response_external_interface_api_project_list_listed</title>
<path fill="none" stroke="#3f3f46" d="M565.1,-199.24C582.57,-195.32 600.54,-191.3 617.75,-187.45"/>
<polygon fill="#3f3f46" stroke="#3f3f46" points="618.41,-190.17 625.6,-185.69 617.19,-184.7 618.41,-190.17"/>
</g>
<!-- external_interface_response_external_interface_api_project_list_unavailable -->
<g id="node6" class="node">
<title>external_interface_response_external_interface_api_project_list_unavailable</title>
<polygon fill="#ffffff" stroke="transparent" points="637.5,0 637.5,-92 800.5,-92 800.5,0 637.5,0"/>
<polygon fill="#dc2626" stroke="transparent" points="639,-83 639,-91 800,-91 800,-83 639,-83"/>
<polygon fill="#fef2f2" stroke="transparent" points="639,-52 639,-83 800,-83 800,-52 639,-52"/>
<text text-anchor="start" x="643" y="-69.6" font-family="Arial" font-weight="bold" font-size="13.00">unavailable</text>
<text text-anchor="start" x="643" y="-58.6" font-family="Arial" font-size="8.00" fill="#64748b">failure response</text>
<text text-anchor="start" x="644" y="-40" font-family="Arial" font-weight="bold" font-size="10.00">status:</text>
<text text-anchor="start" x="675" y="-40" font-family="Arial" font-size="10.00">  503</text>
<text text-anchor="start" x="643" y="-20" font-family="Arial" font-weight="bold" font-size="10.00">body</text>
<text text-anchor="start" x="643" y="-9" font-family="Arial" font-size="10.00">body</text>
<text text-anchor="start" x="665" y="-9" font-family="Arial" font-size="8.00" fill="#94a3b8">  Problem</text>
<text text-anchor="start" x="700" y="-9" font-family="Arial" font-size="8.00"> ← $action_outcome.result</text>
<polygon fill="none" stroke="#dc2626" points="637.5,0 637.5,-92 800.5,-92 800.5,0 637.5,0"/>
</g>
<!-- external_interface_target_query_project_list&#45;&gt;external_interface_response_external_interface_api_project_list_unavailable -->
<g id="edge5" class="edge">
<title>external_interface_target_query_project_list&#45;&gt;external_interface_response_external_interface_api_project_list_unavailable</title>
<path fill="none" stroke="#3f3f46" d="M520.61,-177.95C552.36,-155.98 591.02,-129.44 626,-106 630.58,-102.93 635.29,-99.8 640.06,-96.64"/>
<polygon fill="#3f3f46" stroke="#3f3f46" points="641.93,-98.76 647.06,-92.01 638.84,-94.09 641.93,-98.76"/>
</g>
<!-- external_interface_response_external_interface_api_project_list_access_denied&#45;&gt;external_interface_response_external_interface_api_project_list_authentication_required -->
<!-- external_interface_response_external_interface_api_project_list_authentication_required&#45;&gt;external_interface_response_external_interface_api_project_list_listed -->
<!-- external_interface_response_external_interface_api_project_list_listed&#45;&gt;external_interface_response_external_interface_api_project_list_unavailable -->
</g>
</svg>
