<svg width="1033pt" height="482pt"
 viewBox="0.00 0.00 1033.00 482.00" xmlns="http://www.w3.org/2000/svg" xmlns:xlink="http://www.w3.org/1999/xlink">
<!-- pyspec-contract-input-sha256: 9809ccc22edd8cf125eaa2f0c4f654e6aebb978a9993e84849c1885e3c650522 -->
<g id="graph0" class="graph" transform="scale(1 1) rotate(0) translate(18 464)">
<title>command_flow_chart_command_project_send_approval_notice</title>
<!-- command_input_command_project_send_approval_notice -->
<g id="node1" class="node">
<title>command_input_command_project_send_approval_notice</title>
<polygon fill="#ffffff" stroke="transparent" points="0,-247.5 0,-329.5 91,-329.5 91,-247.5 0,-247.5"/>
<polygon fill="#71717a" stroke="transparent" points="1.5,-320.5 1.5,-328.5 90.5,-328.5 90.5,-320.5 1.5,-320.5"/>
<polygon fill="#f8fafc" stroke="transparent" points="1.5,-289.5 1.5,-320.5 90.5,-320.5 90.5,-289.5 1.5,-289.5"/>
<text text-anchor="start" x="5.5" y="-307.1" font-family="Arial" font-weight="bold" font-size="13.00">input</text>
<text text-anchor="start" x="5.5" y="-296.1" font-family="Arial" font-size="8.00" fill="#64748b">command input</text>
<text text-anchor="start" x="5.5" y="-278.5" font-family="Arial" font-weight="bold" font-size="10.00">fields</text>
<text text-anchor="start" x="5.5" y="-267.5" font-family="Arial" font-size="10.00">approved_by</text>
<text text-anchor="start" x="61.5" y="-267.5" font-family="Arial" font-size="8.00" fill="#94a3b8">  string</text>
<text text-anchor="start" x="5.5" y="-256.5" font-family="Arial" font-size="10.00">project_id</text>
<text text-anchor="start" x="48.5" y="-256.5" font-family="Arial" font-size="8.00" fill="#94a3b8">  string</text>
<polygon fill="none" stroke="#71717a" points="0,-247.5 0,-329.5 91,-329.5 91,-247.5 0,-247.5"/>
</g>
<!-- authorization_check_access_policy_project_reviewer -->
<g id="node2" class="node">
<title>authorization_check_access_policy_project_reviewer</title>
<polygon fill="#ffffff" stroke="transparent" points="193,-200 193,-377 443,-377 443,-200 193,-200"/>
<polygon fill="#c2410c" stroke="transparent" points="194,-367.5 194,-375.5 442,-375.5 442,-367.5 194,-367.5"/>
<polygon fill="#fff7ed" stroke="transparent" points="194,-336.5 194,-367.5 442,-367.5 442,-336.5 194,-336.5"/>
<text text-anchor="start" x="198" y="-354.1" font-family="Arial" font-weight="bold" font-size="13.00">access_policy.project.reviewer</text>
<text text-anchor="start" x="198" y="-343.1" font-family="Arial" font-size="8.00" fill="#64748b">authorization check</text>
<text text-anchor="start" x="198" y="-325.5" font-family="Arial" font-style="italic" font-size="10.00" fill="#3f3f46">Reviewers may approve, archive, and send approval</text>
<text text-anchor="start" x="198" y="-314.5" font-family="Arial" font-style="italic" font-size="10.00" fill="#3f3f46">notices for dispatch projects.</text>
<text text-anchor="start" x="199" y="-294.5" font-family="Arial" font-weight="bold" font-size="10.00">combining_algorithm:</text>
<text text-anchor="start" x="303" y="-294.5" font-family="Arial" font-size="10.00">  all_permit_rules_must_match</text>
<text text-anchor="start" x="199" y="-282.5" font-family="Arial" font-weight="bold" font-size="10.00">subject:</text>
<text text-anchor="start" x="236" y="-282.5" font-family="Arial" font-size="10.00">  actor ← principal.id</text>
<text text-anchor="start" x="198" y="-262.5" font-family="Arial" font-weight="bold" font-size="10.00">action</text>
<text text-anchor="start" x="198" y="-250.5" font-family="Arial" font-size="10.00">command.project.approve</text>
<text text-anchor="start" x="198" y="-239.5" font-family="Arial" font-size="10.00">command.project.archive</text>
<text text-anchor="start" x="198" y="-228.5" font-family="Arial" font-size="10.00">command.project.send_approval_notice</text>
<text text-anchor="start" x="199" y="-209.5" font-family="Arial" font-weight="bold" font-size="10.00">rules:</text>
<text text-anchor="start" x="226" y="-209.5" font-family="Arial" font-size="10.00">  permit: subject_has_role reviewer</text>
<polygon fill="none" stroke="#c2410c" points="193,-200 193,-377 443,-377 443,-200 193,-200"/>
</g>
<!-- command_input_command_project_send_approval_notice&#45;&gt;authorization_check_access_policy_project_reviewer -->
<g id="edge1" class="edge">
<title>command_input_command_project_send_approval_notice&#45;&gt;authorization_check_access_policy_project_reviewer</title>
<path fill="none" stroke="#3f3f46" d="M91.17,-288.5C117.01,-288.5 151.01,-288.5 184.76,-288.5"/>
<polygon fill="#3f3f46" stroke="#3f3f46" points="184.87,-291.3 192.87,-288.5 184.87,-285.7 184.87,-291.3"/>
<text text-anchor="middle" x="142" y="-291.5" font-family="Arial" font-size="10.00">authorize</text>
</g>
<!-- behavior_resource_command_project_send_approval_notice_updates_entity_type_project -->
<g id="node3" class="node">
<title>behavior_resource_command_project_send_approval_notice_updates_entity_type_project</title>
<polygon fill="#ffffff" stroke="transparent" points="540,-64.5 540,-234.5 734,-234.5 734,-64.5 540,-64.5"/>
<polygon fill="#15803d" stroke="transparent" points="541,-225.5 541,-233.5 733,-233.5 733,-225.5 541,-225.5"/>
<polygon fill="#f0fdfa" stroke="transparent" points="541,-194.5 541,-225.5 733,-225.5 733,-194.5 541,-194.5"/>
<text text-anchor="start" x="545" y="-212.1" font-family="Arial" font-weight="bold" font-size="13.00">entity_type.project</text>
<text text-anchor="start" x="545" y="-201.1" font-family="Arial" font-size="8.00" fill="#64748b">entity resource</text>
<text text-anchor="start" x="545" y="-183.5" font-family="Arial" font-weight="bold" font-size="10.00">fields</text>
<text text-anchor="start" x="545" y="-172.5" font-family="Arial" font-size="10.00">assignee</text>
<text text-anchor="start" x="585" y="-172.5" font-family="Arial" font-size="8.00" fill="#94a3b8">  string</text>
<text text-anchor="start" x="545" y="-161.5" font-family="Arial" font-size="10.00">created_at</text>
<text text-anchor="start" x="591" y="-161.5" font-family="Arial" font-size="8.00" fill="#94a3b8">  string:date&#45;time</text>
<text text-anchor="start" x="545" y="-150.5" font-family="Arial" font-size="10.00">customer</text>
<text text-anchor="start" x="586" y="-150.5" font-family="Arial" font-size="8.00" fill="#94a3b8">  string</text>
<text text-anchor="start" x="545" y="-139.5" font-family="Arial" font-size="10.00">id</text>
<text text-anchor="start" x="553" y="-139.5" font-family="Arial" font-size="8.00" fill="#94a3b8">  string</text>
<text text-anchor="start" x="545" y="-128.5" font-family="Arial" font-size="10.00">priority</text>
<text text-anchor="start" x="575" y="-128.5" font-family="Arial" font-size="8.00" fill="#94a3b8">  string</text>
<text text-anchor="start" x="545" y="-117.5" font-family="Arial" font-size="10.00">status</text>
<text text-anchor="start" x="573" y="-117.5" font-family="Arial" font-size="8.00" fill="#94a3b8">  enum&lt;draft|submitted|approved|archived&gt;</text>
<text text-anchor="start" x="545" y="-106.5" font-family="Arial" font-size="10.00">summary</text>
<text text-anchor="start" x="586" y="-106.5" font-family="Arial" font-size="8.00" fill="#94a3b8">  string</text>
<text text-anchor="start" x="545" y="-95.5" font-family="Arial" font-size="10.00">title</text>
<text text-anchor="start" x="561" y="-95.5" font-family="Arial" font-size="8.00" fill="#94a3b8">  string</text>
<text text-anchor="start" x="545" y="-84.5" font-family="Arial" font-size="10.00">updated_at</text>
<text text-anchor="start" x="594" y="-84.5" font-family="Arial" font-size="8.00" fill="#94a3b8">  string:date&#45;time</text>
<text text-anchor="start" x="545" y="-73.5" font-family="Arial" font-size="10.00">workspace_id</text>
<text text-anchor="start" x="606" y="-73.5" font-family="Arial" font-size="8.00" fill="#94a3b8">  string</text>
<polygon fill="none" stroke="#15803d" points="540,-64.5 540,-234.5 734,-234.5 734,-64.5 540,-64.5"/>
</g>
<!-- authorization_check_access_policy_project_reviewer&#45;&gt;behavior_resource_command_project_send_approval_notice_updates_entity_type_project -->
<g id="edge2" class="edge">
<title>authorization_check_access_policy_project_reviewer&#45;&gt;behavior_resource_command_project_send_approval_notice_updates_entity_type_project</title>
<path fill="none" stroke="#3f3f46" d="M443.38,-233.96C472.83,-221.05 503.94,-207.41 532.36,-194.94"/>
<polygon fill="#3f3f46" stroke="#3f3f46" points="533.71,-197.41 539.92,-191.63 531.47,-192.28 533.71,-197.41"/>
<text text-anchor="middle" x="491.5" y="-222.5" font-family="Arial" font-size="10.00">updates</text>
</g>
<!-- command_outcome_command_project_send_approval_notice_access_denied -->
<g id="node4" class="node">
<title>command_outcome_command_project_send_approval_notice_access_denied</title>
<polygon fill="#ffffff" stroke="transparent" points="861.5,-375 861.5,-446 968.5,-446 968.5,-375 861.5,-375"/>
<polygon fill="#dc2626" stroke="transparent" points="863,-436.5 863,-444.5 968,-444.5 968,-436.5 863,-436.5"/>
<polygon fill="#fef2f2" stroke="transparent" points="863,-405.5 863,-436.5 968,-436.5 968,-405.5 863,-405.5"/>
<text text-anchor="start" x="867" y="-423.1" font-family="Arial" font-weight="bold" font-size="13.00">access_denied</text>
<text text-anchor="start" x="867" y="-412.1" font-family="Arial" font-size="8.00" fill="#64748b">failure outcome</text>
<text text-anchor="start" x="867" y="-394.5" font-family="Arial" font-weight="bold" font-size="10.00">result</text>
<text text-anchor="start" x="867" y="-383.5" font-family="Arial" font-size="10.00">result</text>
<text text-anchor="start" x="892" y="-383.5" font-family="Arial" font-size="8.00" fill="#94a3b8">  Problem</text>
<polygon fill="none" stroke="#dc2626" points="861.5,-375 861.5,-446 968.5,-446 968.5,-375 861.5,-375"/>
</g>
<!-- authorization_check_access_policy_project_reviewer&#45;&gt;command_outcome_command_project_send_approval_notice_access_denied -->
<g id="edge3" class="edge">
<title>authorization_check_access_policy_project_reviewer&#45;&gt;command_outcome_command_project_send_approval_notice_access_denied</title>
<path fill="none" stroke="#3f3f46" d="M443.01,-313.93C568.56,-339.67 757.48,-378.41 853.43,-398.08"/>
<polygon fill="#3f3f46" stroke="#3f3f46" points="852.9,-400.83 861.3,-399.69 854.02,-395.34 852.9,-400.83"/>
<text text-anchor="middle" x="637" y="-376.5" font-family="Arial" font-size="10.00">access_denied_as</text>
</g>
<!-- command_outcome_command_project_send_approval_notice_authentication_required -->
<g id="node5" class="node">
<title>command_outcome_command_project_send_approval_notice_authentication_required</title>
<polygon fill="#ffffff" stroke="transparent" points="833,-250 833,-321 997,-321 997,-250 833,-250"/>
<polygon fill="#dc2626" stroke="transparent" points="834,-311.5 834,-319.5 996,-319.5 996,-311.5 834,-311.5"/>
<polygon fill="#fef2f2" stroke="transparent" points="834,-280.5 834,-311.5 996,-311.5 996,-280.5 834,-280.5"/>
<text text-anchor="start" x="838" y="-298.1" font-family="Arial" font-weight="bold" font-size="13.00">authentication_required</text>
<text text-anchor="start" x="838" y="-287.1" font-family="Arial" font-size="8.00" fill="#64748b">failure outcome</text>
<text text-anchor="start" x="838" y="-269.5" font-family="Arial" font-weight="bold" font-size="10.00">result</text>
<text text-anchor="start" x="838" y="-258.5" font-family="Arial" font-size="10.00">result</text>
<text text-anchor="start" x="863" y="-258.5" font-family="Arial" font-size="8.00" fill="#94a3b8">  Problem</text>
<polygon fill="none" stroke="#dc2626" points="833,-250 833,-321 997,-321 997,-250 833,-250"/>
</g>
<!-- authorization_check_access_policy_project_reviewer&#45;&gt;command_outcome_command_project_send_approval_notice_authentication_required -->
<g id="edge4" class="edge">
<title>authorization_check_access_policy_project_reviewer&#45;&gt;command_outcome_command_project_send_approval_notice_authentication_required</title>
<path fill="none" stroke="#3f3f46" d="M443.01,-287.87C557.08,-287.3 723.46,-286.46 824.9,-285.95"/>
<polygon fill="#3f3f46" stroke="#3f3f46" points="825.01,-288.75 832.99,-285.91 824.98,-283.15 825.01,-288.75"/>
<text text-anchor="middle" x="637" y="-290.5" font-family="Arial" font-size="10.00">authentication_required_as</text>
</g>
<!-- command_outcome_command_project_send_approval_notice_delivery_failed -->
<g id="node6" class="node">
<title>command_outcome_command_project_send_approval_notice_delivery_failed</title>
<polygon fill="#ffffff" stroke="transparent" points="863,-125 863,-196 967,-196 967,-125 863,-125"/>
<polygon fill="#dc2626" stroke="transparent" points="864,-186.5 864,-194.5 966,-194.5 966,-186.5 864,-186.5"/>
<polygon fill="#fef2f2" stroke="transparent" points="864,-155.5 864,-186.5 966,-186.5 966,-155.5 864,-155.5"/>
<text text-anchor="start" x="868" y="-173.1" font-family="Arial" font-weight="bold" font-size="13.00">delivery_failed</text>
<text text-anchor="start" x="868" y="-162.1" font-family="Arial" font-size="8.00" fill="#64748b">failure outcome</text>
<text text-anchor="start" x="868" y="-144.5" font-family="Arial" font-weight="bold" font-size="10.00">result</text>
<text text-anchor="start" x="868" y="-133.5" font-family="Arial" font-size="10.00">result</text>
<text text-anchor="start" x="893" y="-133.5" font-family="Arial" font-size="8.00" fill="#94a3b8">  Problem</text>
<polygon fill="none" stroke="#dc2626" points="863,-125 863,-196 967,-196 967,-125 863,-125"/>
</g>
<!-- behavior_resource_command_project_send_approval_notice_updates_entity_type_project&#45;&gt;command_outcome_command_project_send_approval_notice_delivery_failed -->
<g id="edge5" class="edge">
<title>behavior_resource_command_project_send_approval_notice_updates_entity_type_project&#45;&gt;command_outcome_command_project_send_approval_notice_delivery_failed</title>
<path fill="none" stroke="#3f3f46" d="M734.14,-153.33C774.18,-154.93 819.42,-156.73 854.5,-158.13"/>
<polygon fill="#3f3f46" stroke="#3f3f46" points="854.63,-160.94 862.74,-158.46 854.86,-155.34 854.63,-160.94"/>
<text text-anchor="middle" x="783.5" y="-159.5" font-family="Arial" font-size="10.00">failure</text>
</g>
<!-- command_outcome_command_project_send_approval_notice_sent -->
<g id="node7" class="node">
<title>command_outcome_command_project_send_approval_notice_sent</title>
<polygon fill="#ffffff" stroke="transparent" points="844.5,0 844.5,-71 985.5,-71 985.5,0 844.5,0"/>
<polygon fill="#16a34a" stroke="transparent" points="846,-61.5 846,-69.5 985,-69.5 985,-61.5 846,-61.5"/>
<polygon fill="#f0fdf4" stroke="transparent" points="846,-30.5 846,-61.5 985,-61.5 985,-30.5 846,-30.5"/>
<text text-anchor="start" x="850" y="-48.1" font-family="Arial" font-weight="bold" font-size="13.00">sent</text>
<text text-anchor="start" x="850" y="-37.1" font-family="Arial" font-size="8.00" fill="#64748b">success outcome</text>
<text text-anchor="start" x="850" y="-19.5" font-family="Arial" font-weight="bold" font-size="10.00">result</text>
<text text-anchor="start" x="850" y="-8.5" font-family="Arial" font-size="10.00">result</text>
<text text-anchor="start" x="875" y="-8.5" font-family="Arial" font-size="8.00" fill="#94a3b8">  schema.project.notice_result</text>
<polygon fill="none" stroke="#16a34a" points="844.5,0 844.5,-71 985.5,-71 985.5,0 844.5,0"/>
</g>
<!-- behavior_resource_command_project_send_approval_notice_updates_entity_type_project&#45;&gt;command_outcome_command_project_send_approval_notice_sent -->
<g id="edge6" class="edge">
<title>behavior_resource_command_project_send_approval_notice_updates_entity_type_project&#45;&gt;command_outcome_command_project_send_approval_notice_sent</title>
<path fill="none" stroke="#3f3f46" d="M734.14,-109.79C767.7,-95.93 804.91,-80.56 836.73,-67.42"/>
<polygon fill="#3f3f46" stroke="#3f3f46" points="837.95,-69.94 844.28,-64.3 835.81,-64.77 837.95,-69.94"/>
<text text-anchor="middle" x="783.5" y="-99.5" font-family="Arial" font-size="10.00">success</text>
</g>
<!-- command_outcome_command_project_send_approval_notice_access_denied&#45;&gt;command_outcome_command_project_send_approval_notice_authentication_required -->
<!-- command_outcome_command_project_send_approval_notice_authentication_required&#45;&gt;command_outcome_command_project_send_approval_notice_delivery_failed -->
<!-- command_outcome_command_project_send_approval_notice_delivery_failed&#45;&gt;command_outcome_command_project_send_approval_notice_sent -->
</g>
</svg>
