<svg width="1461pt" height="607pt"
 viewBox="0.00 0.00 1461.00 607.00" xmlns="http://www.w3.org/2000/svg" xmlns:xlink="http://www.w3.org/1999/xlink">
<!-- pyspec-contract-input-sha256: f814a34689309a697af170aaced003272719fdb676691cd8066cc857d54c1956 -->
<g id="graph0" class="graph" transform="scale(1 1) rotate(0) translate(18 589)">
<title>command_command_project_archive</title>
<!-- command_input_command_project_archive -->
<g id="node1" class="node">
<title>command_input_command_project_archive</title>
<polygon fill="#ffffff" stroke="transparent" points="0,-250 0,-321 78,-321 78,-250 0,-250"/>
<polygon fill="#64748b" stroke="transparent" points="1,-311.5 1,-319.5 77,-319.5 77,-311.5 1,-311.5"/>
<polygon fill="#f8fafc" stroke="transparent" points="1,-280.5 1,-311.5 77,-311.5 77,-280.5 1,-280.5"/>
<text text-anchor="start" x="5" y="-298.1" font-family="Arial" font-weight="bold" font-size="13.00">input</text>
<text text-anchor="start" x="5" y="-287.1" font-family="Arial" font-size="8.00" fill="#64748b">command input</text>
<text text-anchor="start" x="5" y="-269.5" font-family="Arial" font-weight="bold" font-size="10.00">fields</text>
<text text-anchor="start" x="5" y="-258.5" font-family="Arial" font-size="10.00">project_id</text>
<text text-anchor="start" x="48" y="-258.5" font-family="Arial" font-size="8.00" fill="#94a3b8">  string</text>
<polygon fill="none" stroke="#64748b" points="0,-250 0,-321 78,-321 78,-250 0,-250"/>
</g>
<!-- command_query_policy_access_policy_project_reviewer -->
<g id="node2" class="node">
<title>command_query_policy_access_policy_project_reviewer</title>
<polygon fill="#ffffff" stroke="transparent" points="180,-191 180,-380 419,-380 419,-191 180,-191"/>
<polygon fill="#c2410c" stroke="transparent" points="181.5,-370.5 181.5,-378.5 418.5,-378.5 418.5,-370.5 181.5,-370.5"/>
<polygon fill="#fff7ed" stroke="transparent" points="181.5,-339.5 181.5,-370.5 418.5,-370.5 418.5,-339.5 181.5,-339.5"/>
<text text-anchor="start" x="185.5" y="-357.1" font-family="Arial" font-weight="bold" font-size="13.00">access_policy.project.reviewer</text>
<text text-anchor="start" x="185.5" y="-346.1" font-family="Arial" font-size="8.00" fill="#64748b">authorization gate</text>
<text text-anchor="start" x="185.5" y="-328.5" font-family="Arial" font-style="italic" font-size="10.00" fill="#3f3f46">Reviewers may approve, archive, and send approval</text>
<text text-anchor="start" x="185.5" y="-317.5" font-family="Arial" font-style="italic" font-size="10.00" fill="#3f3f46">notices for dispatch projects.</text>
<text text-anchor="start" x="186.5" y="-297.5" font-family="Arial" font-weight="bold" font-size="10.00">effect:</text>
<text text-anchor="start" x="214.5" y="-297.5" font-family="Arial" font-size="10.00">  permit</text>
<text text-anchor="start" x="186.5" y="-285.5" font-family="Arial" font-weight="bold" font-size="10.00">decision:</text>
<text text-anchor="start" x="229.5" y="-285.5" font-family="Arial" font-size="10.00">  permit</text>
<text text-anchor="start" x="186.5" y="-273.5" font-family="Arial" font-weight="bold" font-size="10.00">subject:</text>
<text text-anchor="start" x="223.5" y="-273.5" font-family="Arial" font-size="10.00">  actor</text>
<text text-anchor="start" x="185.5" y="-253.5" font-family="Arial" font-weight="bold" font-size="10.00">action</text>
<text text-anchor="start" x="185.5" y="-241.5" font-family="Arial" font-size="10.00">command.project.approve</text>
<text text-anchor="start" x="185.5" y="-230.5" font-family="Arial" font-size="10.00">command.project.archive</text>
<text text-anchor="start" x="185.5" y="-219.5" font-family="Arial" font-size="10.00">command.project.send_approval_notice</text>
<text text-anchor="start" x="186.5" y="-200.5" font-family="Arial" font-weight="bold" font-size="10.00">rules:</text>
<text text-anchor="start" x="213.5" y="-200.5" font-family="Arial" font-size="10.00">  subject_has_role reviewer</text>
<polygon fill="none" stroke="#c2410c" points="180,-191 180,-380 419,-380 419,-191 180,-191"/>
</g>
<!-- command_input_command_project_archive&#45;&gt;command_query_policy_access_policy_project_reviewer -->
<g id="edge1" class="edge">
<title>command_input_command_project_archive&#45;&gt;command_query_policy_access_policy_project_reviewer</title>
<path fill="none" stroke="#3f3f46" stroke-width="1.2" d="M78.14,-285.5C103.17,-285.5 137.47,-285.5 171.56,-285.5"/>
<polygon fill="#3f3f46" stroke="#3f3f46" stroke-width="1.2" points="171.75,-288.3 179.75,-285.5 171.75,-282.7 171.75,-288.3"/>
<text text-anchor="middle" x="129" y="-288.5" font-family="Arial" font-size="10.00">authorize</text>
</g>
<!-- command_query_resource_command_project_archive_lifecycle_transition_entity_type_project_status -->
<g id="node3" class="node">
<title>command_query_resource_command_project_archive_lifecycle_transition_entity_type_project_status</title>
<polygon fill="#ffffff" stroke="transparent" points="563,-143 563,-214 872,-214 872,-143 563,-143"/>
<polygon fill="#15803d" stroke="transparent" points="564.5,-204.5 564.5,-212.5 871.5,-212.5 871.5,-204.5 564.5,-204.5"/>
<polygon fill="#f0fdfa" stroke="transparent" points="564.5,-173.5 564.5,-204.5 871.5,-204.5 871.5,-173.5 564.5,-173.5"/>
<text text-anchor="start" x="568.5" y="-191.1" font-family="Arial" font-weight="bold" font-size="13.00">entity_type.project</text>
<text text-anchor="start" x="568.5" y="-180.1" font-family="Arial" font-size="8.00" fill="#64748b">entity_type resource</text>
<text text-anchor="start" x="568.5" y="-162.5" font-family="Arial" font-weight="bold" font-size="10.00">change</text>
<text text-anchor="start" x="568.5" y="-151.5" font-family="Arial" font-size="10.00">Project.status</text>
<text text-anchor="start" x="629.5" y="-151.5" font-family="Arial" font-size="8.00" fill="#94a3b8">  enum&lt;draft|submitted|approved|archived&gt;</text>
<text text-anchor="start" x="785.5" y="-151.5" font-family="Arial" font-size="8.00">  approved → archived</text>
<polygon fill="none" stroke="#15803d" points="563,-143 563,-214 872,-214 872,-143 563,-143"/>
</g>
<!-- command_query_policy_access_policy_project_reviewer&#45;&gt;command_query_resource_command_project_archive_lifecycle_transition_entity_type_project_status -->
<g id="edge2" class="edge">
<title>command_query_policy_access_policy_project_reviewer&#45;&gt;command_query_resource_command_project_archive_lifecycle_transition_entity_type_project_status</title>
<path fill="none" stroke="#3f3f46" d="M419.15,-254.98C466.23,-242.87 520.84,-228.83 570.32,-216.1"/>
<polygon fill="#3f3f46" stroke="#3f3f46" points="571.16,-218.77 578.21,-214.07 569.76,-213.35 571.16,-218.77"/>
<text text-anchor="middle" x="491" y="-248.5" font-family="Arial" font-size="10.00">lifecycle_transition</text>
</g>
<!-- command_outcome_command_project_archive_access_denied -->
<g id="node4" class="node">
<title>command_outcome_command_project_archive_access_denied</title>
<polygon fill="#ffffff" stroke="transparent" points="999.5,-500 999.5,-571 1106.5,-571 1106.5,-500 999.5,-500"/>
<polygon fill="#dc2626" stroke="transparent" points="1001,-561.5 1001,-569.5 1106,-569.5 1106,-561.5 1001,-561.5"/>
<polygon fill="#fef2f2" stroke="transparent" points="1001,-530.5 1001,-561.5 1106,-561.5 1106,-530.5 1001,-530.5"/>
<text text-anchor="start" x="1005" y="-548.1" font-family="Arial" font-weight="bold" font-size="13.00">access_denied</text>
<text text-anchor="start" x="1005" y="-537.1" font-family="Arial" font-size="8.00" fill="#64748b">failure outcome</text>
<text text-anchor="start" x="1005" y="-519.5" font-family="Arial" font-weight="bold" font-size="10.00">result</text>
<text text-anchor="start" x="1005" y="-508.5" font-family="Arial" font-size="10.00">result</text>
<text text-anchor="start" x="1030" y="-508.5" font-family="Arial" font-size="8.00" fill="#94a3b8">  Problem</text>
<polygon fill="none" stroke="#dc2626" points="999.5,-500 999.5,-571 1106.5,-571 1106.5,-500 999.5,-500"/>
</g>
<!-- command_query_policy_access_policy_project_reviewer&#45;&gt;command_outcome_command_project_archive_access_denied -->
<g id="edge3" class="edge">
<title>command_query_policy_access_policy_project_reviewer&#45;&gt;command_outcome_command_project_archive_access_denied</title>
<path fill="none" stroke="#3f3f46" d="M419.16,-324.98C581.66,-379.03 867.39,-474.09 991.56,-515.39"/>
<polygon fill="#3f3f46" stroke="#3f3f46" points="991.02,-518.17 999.5,-518.03 992.79,-512.85 991.02,-518.17"/>
<text text-anchor="middle" x="717.5" y="-477.5" font-family="Arial" font-size="10.00">access_denied_as</text>
</g>
<!-- command_outcome_command_project_archive_authentication_required -->
<g id="node6" class="node">
<title>command_outcome_command_project_archive_authentication_required</title>
<polygon fill="#ffffff" stroke="transparent" points="971,-250 971,-321 1135,-321 1135,-250 971,-250"/>
<polygon fill="#dc2626" stroke="transparent" points="972,-311.5 972,-319.5 1134,-319.5 1134,-311.5 972,-311.5"/>
<polygon fill="#fef2f2" stroke="transparent" points="972,-280.5 972,-311.5 1134,-311.5 1134,-280.5 972,-280.5"/>
<text text-anchor="start" x="976" y="-298.1" font-family="Arial" font-weight="bold" font-size="13.00">authentication_required</text>
<text text-anchor="start" x="976" y="-287.1" font-family="Arial" font-size="8.00" fill="#64748b">failure outcome</text>
<text text-anchor="start" x="976" y="-269.5" font-family="Arial" font-weight="bold" font-size="10.00">result</text>
<text text-anchor="start" x="976" y="-258.5" font-family="Arial" font-size="10.00">result</text>
<text text-anchor="start" x="1001" y="-258.5" font-family="Arial" font-size="8.00" fill="#94a3b8">  Problem</text>
<polygon fill="none" stroke="#dc2626" points="971,-250 971,-321 1135,-321 1135,-250 971,-250"/>
</g>
<!-- command_query_policy_access_policy_project_reviewer&#45;&gt;command_outcome_command_project_archive_authentication_required -->
<g id="edge6" class="edge">
<title>command_query_policy_access_policy_project_reviewer&#45;&gt;command_outcome_command_project_archive_authentication_required</title>
<path fill="none" stroke="#3f3f46" d="M419.16,-285.5C570.07,-285.5 827.27,-285.5 962.64,-285.5"/>
<polygon fill="#3f3f46" stroke="#3f3f46" points="962.98,-288.3 970.98,-285.5 962.98,-282.7 962.98,-288.3"/>
<text text-anchor="middle" x="717.5" y="-288.5" font-family="Arial" font-size="10.00">authentication_required_as</text>
</g>
<!-- command_outcome_command_project_archive_archived -->
<g id="node5" class="node">
<title>command_outcome_command_project_archive_archived</title>
<polygon fill="#ffffff" stroke="transparent" points="1017.5,-375 1017.5,-446 1088.5,-446 1088.5,-375 1017.5,-375"/>
<polygon fill="#16a34a" stroke="transparent" points="1019,-436.5 1019,-444.5 1088,-444.5 1088,-436.5 1019,-436.5"/>
<polygon fill="#f0fdf4" stroke="transparent" points="1019,-405.5 1019,-436.5 1088,-436.5 1088,-405.5 1019,-405.5"/>
<text text-anchor="start" x="1023" y="-423.1" font-family="Arial" font-weight="bold" font-size="13.00">archived</text>
<text text-anchor="start" x="1023" y="-412.1" font-family="Arial" font-size="8.00" fill="#64748b">success outcome</text>
<text text-anchor="start" x="1023" y="-394.5" font-family="Arial" font-weight="bold" font-size="10.00">result</text>
<text text-anchor="start" x="1023" y="-383.5" font-family="Arial" font-size="10.00">result</text>
<text text-anchor="start" x="1048" y="-383.5" font-family="Arial" font-size="8.00" fill="#94a3b8">  Project</text>
<polygon fill="none" stroke="#16a34a" points="1017.5,-375 1017.5,-446 1088.5,-446 1088.5,-375 1017.5,-375"/>
</g>
<!-- command_query_resource_command_project_archive_lifecycle_transition_entity_type_project_status&#45;&gt;command_outcome_command_project_archive_archived -->
<g id="edge4" class="edge">
<title>command_query_resource_command_project_archive_lifecycle_transition_entity_type_project_status&#45;&gt;command_outcome_command_project_archive_archived</title>
<path fill="none" stroke="#3f3f46" d="M802.81,-214.09C825.94,-225.19 850.54,-238.29 872,-252.5 900.73,-271.52 967.68,-332.12 1011.34,-372.5"/>
<polygon fill="#3f3f46" stroke="#3f3f46" points="1009.57,-374.67 1017.34,-378.05 1013.37,-370.56 1009.57,-374.67"/>
<text text-anchor="middle" x="921.5" y="-311.5" font-family="Arial" font-size="10.00">success</text>
</g>
<!-- command_outcome_command_project_archive_not_found -->
<g id="node7" class="node">
<title>command_outcome_command_project_archive_not_found</title>
<polygon fill="#ffffff" stroke="transparent" points="1014.5,-125 1014.5,-196 1091.5,-196 1091.5,-125 1014.5,-125"/>
<polygon fill="#dc2626" stroke="transparent" points="1016,-186.5 1016,-194.5 1091,-194.5 1091,-186.5 1016,-186.5"/>
<polygon fill="#fef2f2" stroke="transparent" points="1016,-155.5 1016,-186.5 1091,-186.5 1091,-155.5 1016,-155.5"/>
<text text-anchor="start" x="1020" y="-173.1" font-family="Arial" font-weight="bold" font-size="13.00">not_found</text>
<text text-anchor="start" x="1020" y="-162.1" font-family="Arial" font-size="8.00" fill="#64748b">failure outcome</text>
<text text-anchor="start" x="1020" y="-144.5" font-family="Arial" font-weight="bold" font-size="10.00">result</text>
<text text-anchor="start" x="1020" y="-133.5" font-family="Arial" font-size="10.00">result</text>
<text text-anchor="start" x="1045" y="-133.5" font-family="Arial" font-size="8.00" fill="#94a3b8">  Problem</text>
<polygon fill="none" stroke="#dc2626" points="1014.5,-125 1014.5,-196 1091.5,-196 1091.5,-125 1014.5,-125"/>
</g>
<!-- command_query_resource_command_project_archive_lifecycle_transition_entity_type_project_status&#45;&gt;command_outcome_command_project_archive_not_found -->
<g id="edge7" class="edge">
<title>command_query_resource_command_project_archive_lifecycle_transition_entity_type_project_status&#45;&gt;command_outcome_command_project_archive_not_found</title>
<path fill="none" stroke="#3f3f46" d="M872.07,-170.21C920.98,-167.57 971.4,-164.85 1006.38,-162.96"/>
<polygon fill="#3f3f46" stroke="#3f3f46" points="1006.65,-165.75 1014.49,-162.52 1006.35,-160.16 1006.65,-165.75"/>
<text text-anchor="middle" x="921.5" y="-171.5" font-family="Arial" font-size="10.00">failure</text>
</g>
<!-- command_outcome_command_project_archive_transition_not_allowed -->
<g id="node8" class="node">
<title>command_outcome_command_project_archive_transition_not_allowed</title>
<polygon fill="#ffffff" stroke="transparent" points="974.5,0 974.5,-71 1131.5,-71 1131.5,0 974.5,0"/>
<polygon fill="#dc2626" stroke="transparent" points="976,-61.5 976,-69.5 1131,-69.5 1131,-61.5 976,-61.5"/>
<polygon fill="#fef2f2" stroke="transparent" points="976,-30.5 976,-61.5 1131,-61.5 1131,-30.5 976,-30.5"/>
<text text-anchor="start" x="980" y="-48.1" font-family="Arial" font-weight="bold" font-size="13.00">transition_not_allowed</text>
<text text-anchor="start" x="980" y="-37.1" font-family="Arial" font-size="8.00" fill="#64748b">failure outcome</text>
<text text-anchor="start" x="980" y="-19.5" font-family="Arial" font-weight="bold" font-size="10.00">result</text>
<text text-anchor="start" x="980" y="-8.5" font-family="Arial" font-size="10.00">result</text>
<text text-anchor="start" x="1005" y="-8.5" font-family="Arial" font-size="8.00" fill="#94a3b8">  Problem</text>
<polygon fill="none" stroke="#dc2626" points="974.5,0 974.5,-71 1131.5,-71 1131.5,0 974.5,0"/>
</g>
<!-- command_query_resource_command_project_archive_lifecycle_transition_entity_type_project_status&#45;&gt;command_outcome_command_project_archive_transition_not_allowed -->
<g id="edge8" class="edge">
<title>command_query_resource_command_project_archive_lifecycle_transition_entity_type_project_status&#45;&gt;command_outcome_command_project_archive_transition_not_allowed</title>
<path fill="none" stroke="#3f3f46" d="M801.37,-142.97C851.84,-121.33 916.17,-93.74 967.03,-71.94"/>
<polygon fill="#3f3f46" stroke="#3f3f46" points="968.18,-74.49 974.43,-68.76 965.97,-69.34 968.18,-74.49"/>
<text text-anchor="middle" x="921.5" y="-101.5" font-family="Arial" font-size="10.00">failure</text>
</g>
<!-- command_outcome_command_project_archive_access_denied&#45;&gt;command_outcome_command_project_archive_archived -->
<!-- command_outcome_command_project_archive_archived&#45;&gt;command_outcome_command_project_archive_authentication_required -->
<!-- command_query_event_command_project_archive_domain_event_project_archived -->
<g id="node9" class="node">
<title>command_query_event_command_project_archive_domain_event_project_archived</title>
<polygon fill="#ffffff" stroke="transparent" points="1216,-365.5 1216,-455.5 1425,-455.5 1425,-365.5 1216,-365.5"/>
<polygon fill="#4f46e5" stroke="transparent" points="1217.5,-446.5 1217.5,-454.5 1424.5,-454.5 1424.5,-446.5 1217.5,-446.5"/>
<polygon fill="#eef2ff" stroke="transparent" points="1217.5,-415.5 1217.5,-446.5 1424.5,-446.5 1424.5,-415.5 1217.5,-415.5"/>
<text text-anchor="start" x="1221.5" y="-433.1" font-family="Arial" font-weight="bold" font-size="13.00">domain_event.project.archived</text>
<text text-anchor="start" x="1221.5" y="-422.1" font-family="Arial" font-size="8.00" fill="#64748b">emitted event</text>
<text text-anchor="start" x="1221.5" y="-404.5" font-family="Arial" font-style="italic" font-size="10.00" fill="#3f3f46">Approved dispatch projects can be archived.</text>
<text text-anchor="start" x="1221.5" y="-385.5" font-family="Arial" font-weight="bold" font-size="10.00">payload</text>
<text text-anchor="start" x="1221.5" y="-374.5" font-family="Arial" font-size="10.00">payload</text>
<text text-anchor="start" x="1255.5" y="-374.5" font-family="Arial" font-size="8.00" fill="#94a3b8">  Project</text>
<polygon fill="none" stroke="#4f46e5" points="1216,-365.5 1216,-455.5 1425,-455.5 1425,-365.5 1216,-365.5"/>
</g>
<!-- command_outcome_command_project_archive_archived&#45;&gt;command_query_event_command_project_archive_domain_event_project_archived -->
<g id="edge5" class="edge">
<title>command_outcome_command_project_archive_archived&#45;&gt;command_query_event_command_project_archive_domain_event_project_archived</title>
<path fill="none" stroke="#3f3f46" stroke-width="1.2" d="M1088.71,-410.5C1119.01,-410.5 1164.72,-410.5 1207.49,-410.5"/>
<polygon fill="#3f3f46" stroke="#3f3f46" stroke-width="1.2" points="1207.71,-413.3 1215.71,-410.5 1207.71,-407.7 1207.71,-413.3"/>
<text text-anchor="middle" x="1175.5" y="-413.5" font-family="Arial" font-size="10.00">emit</text>
</g>
<!-- command_outcome_command_project_archive_authentication_required&#45;&gt;command_outcome_command_project_archive_not_found -->
<!-- command_outcome_command_project_archive_not_found&#45;&gt;command_outcome_command_project_archive_transition_not_allowed -->
</g>
</svg>
