<svg width="665pt" height="129pt"
 viewBox="0.00 0.00 665.00 129.00" xmlns="http://www.w3.org/2000/svg" xmlns:xlink="http://www.w3.org/1999/xlink">
<g id="graph0" class="graph" transform="scale(1 1) rotate(0) translate(18 111)">
<title>entrypoint_worker_project_approval_notice</title>
<!-- entry_start -->
<g id="node1" class="node">
<title>entry_start</title>
<ellipse fill="none" stroke="#0891b2" cx="21" cy="-46.5" rx="21" ry="21"/>
<text text-anchor="middle" x="21" y="-44.3" font-family="Arial" font-size="9.00" fill="#155e75">entry</text>
</g>
<!-- entrypoint_worker_project_approval_notice -->
<g id="node2" class="node">
<title>entrypoint_worker_project_approval_notice</title>
<polygon fill="#ffffff" stroke="transparent" points="103,-0.5 103,-92.5 327,-92.5 327,-0.5 103,-0.5"/>
<polygon fill="#0891b2" stroke="transparent" points="104,-83.5 104,-91.5 326,-91.5 326,-83.5 104,-83.5"/>
<polygon fill="#ecfeff" stroke="transparent" points="104,-52.5 104,-83.5 326,-83.5 326,-52.5 104,-52.5"/>
<text text-anchor="start" x="108" y="-70.1" font-family="Arial" font-weight="bold" font-size="13.00">workflow.project.approval_notice</text>
<text text-anchor="start" x="108" y="-59.1" font-family="Arial" font-size="8.00" fill="#64748b">worker entry</text>
<text text-anchor="start" x="108" y="-41.5" font-family="Arial" font-style="italic" font-size="10.00" fill="#3f3f46">Worker entry exposing the approval notice</text>
<text text-anchor="start" x="108" y="-30.5" font-family="Arial" font-style="italic" font-size="10.00" fill="#3f3f46">workflow.</text>
<text text-anchor="start" x="109" y="-10.5" font-family="Arial" font-weight="bold" font-size="10.00">workflow:</text>
<text text-anchor="start" x="155" y="-10.5" font-family="Arial" font-size="10.00">  workflow.project.approval_notice</text>
<polygon fill="none" stroke="#0891b2" points="103,-0.5 103,-92.5 327,-92.5 327,-0.5 103,-0.5"/>
</g>
<!-- entry_start&#45;&gt;entrypoint_worker_project_approval_notice -->
<g id="edge1" class="edge">
<title>entry_start&#45;&gt;entrypoint_worker_project_approval_notice</title>
<path fill="none" stroke="#3f3f46" d="M42.18,-46.5C55.61,-46.5 74.48,-46.5 94.82,-46.5"/>
<polygon fill="#3f3f46" stroke="#3f3f46" points="94.99,-49.3 102.99,-46.5 94.99,-43.7 94.99,-49.3"/>
</g>
<!-- entrypoint_target_project_approval_notice -->
<g id="node3" class="node">
<title>entrypoint_target_project_approval_notice</title>
<polygon fill="#ffffff" stroke="transparent" points="388,0 388,-93 629,-93 629,0 388,0"/>
<polygon fill="#a16207" stroke="transparent" points="389.5,-83.5 389.5,-91.5 628.5,-91.5 628.5,-83.5 389.5,-83.5"/>
<polygon fill="#fefce8" stroke="transparent" points="389.5,-52.5 389.5,-83.5 628.5,-83.5 628.5,-52.5 389.5,-52.5"/>
<text text-anchor="start" x="393.5" y="-70.1" font-family="Arial" font-weight="bold" font-size="13.00">project.approval_notice</text>
<text text-anchor="start" x="393.5" y="-59.1" font-family="Arial" font-size="8.00" fill="#64748b">target workflow</text>
<text text-anchor="start" x="393.5" y="-41.5" font-family="Arial" font-style="italic" font-size="10.00" fill="#3f3f46">Approval event sends a downstream notice.</text>
<text text-anchor="start" x="394.5" y="-21.5" font-family="Arial" font-weight="bold" font-size="10.00">trigger:</text>
<text text-anchor="start" x="428.5" y="-21.5" font-family="Arial" font-size="10.00">  event project.approved</text>
<text text-anchor="start" x="394.5" y="-9.5" font-family="Arial" font-weight="bold" font-size="10.00">steps:</text>
<text text-anchor="start" x="422.5" y="-9.5" font-family="Arial" font-size="10.00">  send_notice &#45;&gt; project.send_approval_notice</text>
<polygon fill="none" stroke="#a16207" points="388,0 388,-93 629,-93 629,0 388,0"/>
</g>
<!-- entrypoint_worker_project_approval_notice&#45;&gt;entrypoint_target_project_approval_notice -->
<g id="edge2" class="edge">
<title>entrypoint_worker_project_approval_notice&#45;&gt;entrypoint_target_project_approval_notice</title>
<path fill="none" stroke="#3f3f46" d="M327.04,-46.5C344.2,-46.5 362.04,-46.5 379.54,-46.5"/>
<polygon fill="#3f3f46" stroke="#3f3f46" points="379.55,-49.3 387.55,-46.5 379.55,-43.7 379.55,-49.3"/>
</g>
</g>
</svg>
