<svg width="1147pt" height="129pt"
 viewBox="0.00 0.00 1147.00 129.00" xmlns="http://www.w3.org/2000/svg" xmlns:xlink="http://www.w3.org/1999/xlink">
<!-- pyspec-contract-input-sha256: 660e5ee72b0dfc77d171d143b3dccd3d638d4c86cb4d795bd3ac5e539e55d397 -->
<g id="graph0" class="graph" transform="scale(1 1) rotate(0) translate(18 111)">
<title>entrypoint_worker_project_approval_notice</title>
<!-- entry_start -->
<g id="node1" class="node">
<title>entry_start</title>
<ellipse fill="none" stroke="#0891b2" cx="21" cy="-46.5" rx="21" ry="21"/>
<text text-anchor="middle" x="21" y="-44.3" font-family="Arial" font-size="9.00" fill="#155e75">entry</text>
</g>
<!-- entrypoint_worker_project_approval_notice -->
<g id="node2" class="node">
<title>entrypoint_worker_project_approval_notice</title>
<polygon fill="#ffffff" stroke="transparent" points="103,-0.5 103,-92.5 327,-92.5 327,-0.5 103,-0.5"/>
<polygon fill="#0891b2" stroke="transparent" points="104,-83.5 104,-91.5 326,-91.5 326,-83.5 104,-83.5"/>
<polygon fill="#ecfeff" stroke="transparent" points="104,-52.5 104,-83.5 326,-83.5 326,-52.5 104,-52.5"/>
<text text-anchor="start" x="108" y="-70.1" font-family="Arial" font-weight="bold" font-size="13.00">workflow.project.approval_notice</text>
<text text-anchor="start" x="108" y="-59.1" font-family="Arial" font-size="8.00" fill="#64748b">worker entry</text>
<text text-anchor="start" x="108" y="-41.5" font-family="Arial" font-style="italic" font-size="10.00" fill="#3f3f46">Worker entry exposing the approval notice</text>
<text text-anchor="start" x="108" y="-30.5" font-family="Arial" font-style="italic" font-size="10.00" fill="#3f3f46">workflow.</text>
<text text-anchor="start" x="109" y="-10.5" font-family="Arial" font-weight="bold" font-size="10.00">workflow:</text>
<text text-anchor="start" x="155" y="-10.5" font-family="Arial" font-size="10.00">  workflow.project.approval_notice</text>
<polygon fill="none" stroke="#0891b2" points="103,-0.5 103,-92.5 327,-92.5 327,-0.5 103,-0.5"/>
</g>
<!-- entry_start&#45;&gt;entrypoint_worker_project_approval_notice -->
<g id="edge1" class="edge">
<title>entry_start&#45;&gt;entrypoint_worker_project_approval_notice</title>
<path fill="none" stroke="#3f3f46" d="M42.18,-46.5C55.61,-46.5 74.48,-46.5 94.82,-46.5"/>
<polygon fill="#3f3f46" stroke="#3f3f46" points="94.99,-49.3 102.99,-46.5 94.99,-43.7 94.99,-49.3"/>
</g>
<!-- entrypoint_input_worker_project_approval_notice -->
<g id="node3" class="node">
<title>entrypoint_input_worker_project_approval_notice</title>
<polygon fill="#ffffff" stroke="transparent" points="388,-15.5 388,-77.5 510,-77.5 510,-15.5 388,-15.5"/>
<polygon fill="#64748b" stroke="transparent" points="389,-68.5 389,-76.5 509,-76.5 509,-68.5 389,-68.5"/>
<polygon fill="#f8fafc" stroke="transparent" points="389,-37.5 389,-68.5 509,-68.5 509,-37.5 389,-37.5"/>
<text text-anchor="start" x="393" y="-55.1" font-family="Arial" font-weight="bold" font-size="13.00">event payload</text>
<text text-anchor="start" x="393" y="-44.1" font-family="Arial" font-size="8.00" fill="#64748b">external data</text>
<text text-anchor="start" x="394" y="-25.5" font-family="Arial" font-weight="bold" font-size="10.00">payload:</text>
<text text-anchor="start" x="434" y="-25.5" font-family="Arial" font-size="10.00">  payload</text>
<text text-anchor="start" x="474" y="-25.5" font-family="Arial" font-size="8.00" fill="#94a3b8">  Project</text>
<polygon fill="none" stroke="#64748b" points="388,-15.5 388,-77.5 510,-77.5 510,-15.5 388,-15.5"/>
</g>
<!-- entrypoint_worker_project_approval_notice&#45;&gt;entrypoint_input_worker_project_approval_notice -->
<g id="edge2" class="edge">
<title>entrypoint_worker_project_approval_notice&#45;&gt;entrypoint_input_worker_project_approval_notice</title>
<path fill="none" stroke="#3f3f46" d="M327.24,-46.5C345.07,-46.5 363.04,-46.5 379.48,-46.5"/>
<polygon fill="#3f3f46" stroke="#3f3f46" points="379.93,-49.3 387.93,-46.5 379.93,-43.7 379.93,-49.3"/>
</g>
<!-- entrypoint_target_project_approval_notice -->
<g id="node4" class="node">
<title>entrypoint_target_project_approval_notice</title>
<polygon fill="#ffffff" stroke="transparent" points="571,0 571,-93 813,-93 813,0 571,0"/>
<polygon fill="#a16207" stroke="transparent" points="572,-83.5 572,-91.5 812,-91.5 812,-83.5 572,-83.5"/>
<polygon fill="#fefce8" stroke="transparent" points="572,-52.5 572,-83.5 812,-83.5 812,-52.5 572,-52.5"/>
<text text-anchor="start" x="576" y="-70.1" font-family="Arial" font-weight="bold" font-size="13.00">project.approval_notice</text>
<text text-anchor="start" x="576" y="-59.1" font-family="Arial" font-size="8.00" fill="#64748b">target workflow (event project.approved)</text>
<text text-anchor="start" x="576" y="-41.5" font-family="Arial" font-style="italic" font-size="10.00" fill="#3f3f46">Approval event sends a downstream notice.</text>
<text text-anchor="start" x="577" y="-21.5" font-family="Arial" font-weight="bold" font-size="10.00">trigger:</text>
<text text-anchor="start" x="611" y="-21.5" font-family="Arial" font-size="10.00">  event project.approved</text>
<text text-anchor="start" x="577" y="-9.5" font-family="Arial" font-weight="bold" font-size="10.00">steps:</text>
<text text-anchor="start" x="605" y="-9.5" font-family="Arial" font-size="10.00">  send_notice → project.send_approval_notice</text>
<polygon fill="none" stroke="#a16207" points="571,0 571,-93 813,-93 813,0 571,0"/>
</g>
<!-- entrypoint_input_worker_project_approval_notice&#45;&gt;entrypoint_target_project_approval_notice -->
<g id="edge3" class="edge">
<title>entrypoint_input_worker_project_approval_notice&#45;&gt;entrypoint_target_project_approval_notice</title>
<path fill="none" stroke="#3f3f46" d="M510.19,-46.5C526.27,-46.5 544.28,-46.5 562.54,-46.5"/>
<polygon fill="#3f3f46" stroke="#3f3f46" points="562.94,-49.3 570.94,-46.5 562.94,-43.7 562.94,-49.3"/>
</g>
<!-- entrypoint_output_worker_project_approval_notice -->
<g id="node6" class="node">
<title>entrypoint_output_worker_project_approval_notice</title>
<polygon fill="#ffffff" stroke="transparent" points="874,-15.5 874,-77.5 1000,-77.5 1000,-15.5 874,-15.5"/>
<polygon fill="#64748b" stroke="transparent" points="875,-68.5 875,-76.5 999,-76.5 999,-68.5 875,-68.5"/>
<polygon fill="#f8fafc" stroke="transparent" points="875,-37.5 875,-68.5 999,-68.5 999,-37.5 875,-37.5"/>
<text text-anchor="start" x="879" y="-55.1" font-family="Arial" font-weight="bold" font-size="13.00">acknowledgement</text>
<text text-anchor="start" x="879" y="-44.1" font-family="Arial" font-size="8.00" fill="#64748b">external result</text>
<text text-anchor="start" x="880" y="-25.5" font-family="Arial" font-weight="bold" font-size="10.00">ack:</text>
<text text-anchor="start" x="899" y="-25.5" font-family="Arial" font-size="10.00">  true</text>
<polygon fill="none" stroke="#64748b" points="874,-15.5 874,-77.5 1000,-77.5 1000,-15.5 874,-15.5"/>
</g>
<!-- entrypoint_target_project_approval_notice&#45;&gt;entrypoint_output_worker_project_approval_notice -->
<g id="edge4" class="edge">
<title>entrypoint_target_project_approval_notice&#45;&gt;entrypoint_output_worker_project_approval_notice</title>
<path fill="none" stroke="#3f3f46" d="M813.08,-46.5C831.16,-46.5 849.29,-46.5 865.86,-46.5"/>
<polygon fill="#3f3f46" stroke="#3f3f46" points="865.86,-49.3 873.86,-46.5 865.86,-43.7 865.86,-49.3"/>
</g>
<!-- entry_exit -->
<g id="node5" class="node">
<title>entry_exit</title>
<ellipse fill="none" stroke="#0891b2" cx="1086" cy="-46.5" rx="21" ry="21"/>
<ellipse fill="none" stroke="#0891b2" cx="1086" cy="-46.5" rx="25" ry="25"/>
<text text-anchor="middle" x="1086" y="-44.3" font-family="Arial" font-size="9.00" fill="#155e75">exit</text>
</g>
<!-- entrypoint_output_worker_project_approval_notice&#45;&gt;entry_exit -->
<g id="edge5" class="edge">
<title>entrypoint_output_worker_project_approval_notice&#45;&gt;entry_exit</title>
<path fill="none" stroke="#3f3f46" d="M1000.34,-46.5C1018.3,-46.5 1037.17,-46.5 1052.52,-46.5"/>
<polygon fill="#3f3f46" stroke="#3f3f46" points="1052.66,-49.3 1060.66,-46.5 1052.66,-43.7 1052.66,-49.3"/>
</g>
</g>
</svg>
