<svg width="1198pt" height="217pt"
 viewBox="0.00 0.00 1198.00 217.00" xmlns="http://www.w3.org/2000/svg" xmlns:xlink="http://www.w3.org/1999/xlink">
<!-- pyspec-contract-input-sha256: 1e2c6606e15bc8db45e69f3abafac627cf4279231f4612c2ec0c76a8bc4359cf -->
<g id="graph0" class="graph" transform="scale(1 1) rotate(0) translate(18 199)">
<title>entrypoint_worker_project_approval_notice</title>
<!-- entry_start -->
<g id="node1" class="node">
<title>entry_start</title>
<ellipse fill="none" stroke="#0891b2" cx="21" cy="-98" rx="21" ry="21"/>
<text text-anchor="middle" x="21" y="-95.8" font-family="Arial" font-size="9.00" fill="#155e75">entry</text>
</g>
<!-- entrypoint_worker_project_approval_notice -->
<g id="node2" class="node">
<title>entrypoint_worker_project_approval_notice</title>
<polygon fill="#ffffff" stroke="transparent" points="103,-52 103,-144 327,-144 327,-52 103,-52"/>
<polygon fill="#0891b2" stroke="transparent" points="104,-135 104,-143 326,-143 326,-135 104,-135"/>
<polygon fill="#ecfeff" stroke="transparent" points="104,-104 104,-135 326,-135 326,-104 104,-104"/>
<text text-anchor="start" x="108" y="-121.6" font-family="Arial" font-weight="bold" font-size="13.00">workflow.project.approval_notice</text>
<text text-anchor="start" x="108" y="-110.6" font-family="Arial" font-size="8.00" fill="#64748b">worker entry</text>
<text text-anchor="start" x="108" y="-93" font-family="Arial" font-style="italic" font-size="10.00" fill="#3f3f46">Worker entry exposing the approval notice</text>
<text text-anchor="start" x="108" y="-82" font-family="Arial" font-style="italic" font-size="10.00" fill="#3f3f46">workflow.</text>
<text text-anchor="start" x="109" y="-62" font-family="Arial" font-weight="bold" font-size="10.00">workflow:</text>
<text text-anchor="start" x="155" y="-62" font-family="Arial" font-size="10.00">  workflow.project.approval_notice</text>
<polygon fill="none" stroke="#0891b2" points="103,-52 103,-144 327,-144 327,-52 103,-52"/>
</g>
<!-- entry_start&#45;&gt;entrypoint_worker_project_approval_notice -->
<g id="edge1" class="edge">
<title>entry_start&#45;&gt;entrypoint_worker_project_approval_notice</title>
<path fill="none" stroke="#3f3f46" d="M42.18,-98C55.61,-98 74.48,-98 94.82,-98"/>
<polygon fill="#3f3f46" stroke="#3f3f46" points="94.99,-100.8 102.99,-98 94.99,-95.2 94.99,-100.8"/>
</g>
<!-- entrypoint_input_worker_project_approval_notice -->
<g id="node3" class="node">
<title>entrypoint_input_worker_project_approval_notice</title>
<polygon fill="#ffffff" stroke="transparent" points="388,-67 388,-129 544,-129 544,-67 388,-67"/>
<polygon fill="#64748b" stroke="transparent" points="389,-120 389,-128 543,-128 543,-120 389,-120"/>
<polygon fill="#f8fafc" stroke="transparent" points="389,-89 389,-120 543,-120 543,-89 389,-89"/>
<text text-anchor="start" x="393" y="-106.6" font-family="Arial" font-weight="bold" font-size="13.00">event payload</text>
<text text-anchor="start" x="393" y="-95.6" font-family="Arial" font-size="8.00" fill="#64748b">external data</text>
<text text-anchor="start" x="394" y="-77" font-family="Arial" font-weight="bold" font-size="10.00">payload:</text>
<text text-anchor="start" x="434" y="-77" font-family="Arial" font-size="10.00">  payload</text>
<text text-anchor="start" x="474" y="-77" font-family="Arial" font-size="8.00" fill="#94a3b8">  ProjectApproved</text>
<polygon fill="none" stroke="#64748b" points="388,-67 388,-129 544,-129 544,-67 388,-67"/>
</g>
<!-- entrypoint_worker_project_approval_notice&#45;&gt;entrypoint_input_worker_project_approval_notice -->
<g id="edge2" class="edge">
<title>entrypoint_worker_project_approval_notice&#45;&gt;entrypoint_input_worker_project_approval_notice</title>
<path fill="none" stroke="#3f3f46" d="M327.03,-98C344.64,-98 362.61,-98 379.52,-98"/>
<polygon fill="#3f3f46" stroke="#3f3f46" points="379.72,-100.8 387.72,-98 379.72,-95.2 379.72,-100.8"/>
</g>
<!-- entrypoint_target_project_approval_notice -->
<g id="node4" class="node">
<title>entrypoint_target_project_approval_notice</title>
<polygon fill="#ffffff" stroke="transparent" points="605,-31 605,-165 847,-165 847,-31 605,-31"/>
<polygon fill="#a16207" stroke="transparent" points="606,-156 606,-164 846,-164 846,-156 606,-156"/>
<polygon fill="#fefce8" stroke="transparent" points="606,-125 606,-156 846,-156 846,-125 606,-125"/>
<text text-anchor="start" x="610" y="-142.6" font-family="Arial" font-weight="bold" font-size="13.00">project.approval_notice</text>
<text text-anchor="start" x="610" y="-131.6" font-family="Arial" font-size="8.00" fill="#64748b">target workflow (event project.approved)</text>
<text text-anchor="start" x="610" y="-114" font-family="Arial" font-style="italic" font-size="10.00" fill="#3f3f46">Approval event sends a downstream notice.</text>
<text text-anchor="start" x="611" y="-94" font-family="Arial" font-weight="bold" font-size="10.00">trigger:</text>
<text text-anchor="start" x="645" y="-94" font-family="Arial" font-size="10.00">  event project.approved</text>
<text text-anchor="start" x="611" y="-82" font-family="Arial" font-weight="bold" font-size="10.00">steps:</text>
<text text-anchor="start" x="639" y="-82" font-family="Arial" font-size="10.00">  send_notice → project.send_approval_notice</text>
<text text-anchor="start" x="610" y="-62" font-family="Arial" font-weight="bold" font-size="10.00">outcomes</text>
<text text-anchor="start" x="610" y="-51" font-family="Arial" font-size="10.00">completed</text>
<text text-anchor="start" x="656" y="-51" font-family="Arial" font-size="8.00" fill="#94a3b8">  NoticeResult</text>
<text text-anchor="start" x="706" y="-51" font-family="Arial" font-size="8.00"> ← success</text>
<text text-anchor="start" x="610" y="-40" font-family="Arial" font-size="10.00">delivery_failed</text>
<text text-anchor="start" x="673" y="-40" font-family="Arial" font-size="8.00" fill="#94a3b8">  Problem</text>
<text text-anchor="start" x="708" y="-40" font-family="Arial" font-size="8.00"> ← failure</text>
<polygon fill="none" stroke="#a16207" points="605,-31 605,-165 847,-165 847,-31 605,-31"/>
</g>
<!-- entrypoint_input_worker_project_approval_notice&#45;&gt;entrypoint_target_project_approval_notice -->
<g id="edge3" class="edge">
<title>entrypoint_input_worker_project_approval_notice&#45;&gt;entrypoint_target_project_approval_notice</title>
<path fill="none" stroke="#3f3f46" d="M544.06,-98C560.67,-98 578.66,-98 596.63,-98"/>
<polygon fill="#3f3f46" stroke="#3f3f46" points="596.88,-100.8 604.88,-98 596.88,-95.2 596.88,-100.8"/>
</g>
<!-- entrypoint_response_worker_project_approval_notice_accepted -->
<g id="node6" class="node">
<title>entrypoint_response_worker_project_approval_notice_accepted</title>
<polygon fill="#ffffff" stroke="transparent" points="908,-119 908,-181 1051,-181 1051,-119 908,-119"/>
<polygon fill="#64748b" stroke="transparent" points="909.5,-172 909.5,-180 1050.5,-180 1050.5,-172 909.5,-172"/>
<polygon fill="#f8fafc" stroke="transparent" points="909.5,-141 909.5,-172 1050.5,-172 1050.5,-141 909.5,-141"/>
<text text-anchor="start" x="913.5" y="-158.6" font-family="Arial" font-weight="bold" font-size="13.00">message disposition</text>
<text text-anchor="start" x="913.5" y="-147.6" font-family="Arial" font-size="8.00" fill="#64748b">accepted</text>
<text text-anchor="start" x="914.5" y="-129" font-family="Arial" font-weight="bold" font-size="10.00">disposition:</text>
<text text-anchor="start" x="970.5" y="-129" font-family="Arial" font-size="10.00">  ack</text>
<polygon fill="none" stroke="#64748b" points="908,-119 908,-181 1051,-181 1051,-119 908,-119"/>
</g>
<!-- entrypoint_target_project_approval_notice&#45;&gt;entrypoint_response_worker_project_approval_notice_accepted -->
<g id="edge4" class="edge">
<title>entrypoint_target_project_approval_notice&#45;&gt;entrypoint_response_worker_project_approval_notice_accepted</title>
<path fill="none" stroke="#3f3f46" d="M847.23,-122.86C865.02,-126.54 882.97,-130.25 899.64,-133.69"/>
<polygon fill="#3f3f46" stroke="#3f3f46" points="899.31,-136.49 907.71,-135.36 900.44,-131 899.31,-136.49"/>
</g>
<!-- entrypoint_response_worker_project_approval_notice_malformed -->
<g id="node7" class="node">
<title>entrypoint_response_worker_project_approval_notice_malformed</title>
<polygon fill="#ffffff" stroke="transparent" points="908,0 908,-92 1051,-92 1051,0 908,0"/>
<polygon fill="#64748b" stroke="transparent" points="909.5,-83 909.5,-91 1050.5,-91 1050.5,-83 909.5,-83"/>
<polygon fill="#f8fafc" stroke="transparent" points="909.5,-52 909.5,-83 1050.5,-83 1050.5,-52 909.5,-52"/>
<text text-anchor="start" x="913.5" y="-69.6" font-family="Arial" font-weight="bold" font-size="13.00">message disposition</text>
<text text-anchor="start" x="913.5" y="-58.6" font-family="Arial" font-size="8.00" fill="#64748b">malformed</text>
<text text-anchor="start" x="914.5" y="-40" font-family="Arial" font-weight="bold" font-size="10.00">disposition:</text>
<text text-anchor="start" x="970.5" y="-40" font-family="Arial" font-size="10.00">  dead_letter</text>
<text text-anchor="start" x="913.5" y="-20" font-family="Arial" font-weight="bold" font-size="10.00">problem</text>
<text text-anchor="start" x="913.5" y="-9" font-family="Arial" font-size="10.00">problem</text>
<text text-anchor="start" x="948.5" y="-9" font-family="Arial" font-size="8.00" fill="#94a3b8">  Problem</text>
<polygon fill="none" stroke="#64748b" points="908,0 908,-92 1051,-92 1051,0 908,0"/>
</g>
<!-- entrypoint_target_project_approval_notice&#45;&gt;entrypoint_response_worker_project_approval_notice_malformed -->
<g id="edge6" class="edge">
<title>entrypoint_target_project_approval_notice&#45;&gt;entrypoint_response_worker_project_approval_notice_malformed</title>
<path fill="none" stroke="#3f3f46" d="M847.23,-73.14C865.02,-69.46 882.97,-65.75 899.64,-62.31"/>
<polygon fill="#3f3f46" stroke="#3f3f46" points="900.44,-65 907.71,-60.64 899.31,-59.51 900.44,-65"/>
</g>
<!-- entry_exit -->
<g id="node5" class="node">
<title>entry_exit</title>
<ellipse fill="none" stroke="#0891b2" cx="1137" cy="-98" rx="21" ry="21"/>
<ellipse fill="none" stroke="#0891b2" cx="1137" cy="-98" rx="25" ry="25"/>
<text text-anchor="middle" x="1137" y="-95.8" font-family="Arial" font-size="9.00" fill="#155e75">exit</text>
</g>
<!-- entrypoint_response_worker_project_approval_notice_accepted&#45;&gt;entry_exit -->
<g id="edge5" class="edge">
<title>entrypoint_response_worker_project_approval_notice_accepted&#45;&gt;entry_exit</title>
<path fill="none" stroke="#3f3f46" d="M1051.42,-126.28C1070.39,-119.94 1089.9,-113.42 1105.39,-108.24"/>
<polygon fill="#3f3f46" stroke="#3f3f46" points="1106.4,-110.85 1113.1,-105.66 1104.63,-105.54 1106.4,-110.85"/>
</g>
<!-- entrypoint_response_worker_project_approval_notice_accepted&#45;&gt;entrypoint_response_worker_project_approval_notice_malformed -->
<!-- entrypoint_response_worker_project_approval_notice_malformed&#45;&gt;entry_exit -->
<g id="edge7" class="edge">
<title>entrypoint_response_worker_project_approval_notice_malformed&#45;&gt;entry_exit</title>
<path fill="none" stroke="#3f3f46" d="M1051.42,-69.72C1070.39,-76.06 1089.9,-82.58 1105.39,-87.76"/>
<polygon fill="#3f3f46" stroke="#3f3f46" points="1104.63,-90.46 1113.1,-90.34 1106.4,-85.15 1104.63,-90.46"/>
</g>
</g>
</svg>
