<svg width="1493pt" height="747pt"
 viewBox="0.00 0.00 1493.00 747.00" xmlns="http://www.w3.org/2000/svg" xmlns:xlink="http://www.w3.org/1999/xlink">
<!-- pyspec-contract-input-sha256: 2e165f3d1850a93328f5285aa077349aaddda33932e683693a578048ca2c9e90 -->
<g id="graph0" class="graph" transform="scale(1 1) rotate(0) translate(18 729)">
<title>application_action_application_action_project_approve</title>
<!-- application_action_input_application_action_project_approve -->
<g id="node1" class="node">
<title>application_action_input_application_action_project_approve</title>
<polygon fill="#ffffff" stroke="transparent" points="0,-298.5 0,-380.5 91,-380.5 91,-298.5 0,-298.5"/>
<polygon fill="#64748b" stroke="transparent" points="1.5,-371.5 1.5,-379.5 90.5,-379.5 90.5,-371.5 1.5,-371.5"/>
<polygon fill="#f8fafc" stroke="transparent" points="1.5,-340.5 1.5,-371.5 90.5,-371.5 90.5,-340.5 1.5,-340.5"/>
<text text-anchor="start" x="5.5" y="-358.1" font-family="Arial" font-weight="bold" font-size="13.00">input</text>
<text text-anchor="start" x="5.5" y="-347.1" font-family="Arial" font-size="8.00" fill="#64748b">action input</text>
<text text-anchor="start" x="5.5" y="-329.5" font-family="Arial" font-weight="bold" font-size="10.00">fields</text>
<text text-anchor="start" x="5.5" y="-318.5" font-family="Arial" font-size="10.00">approved_by</text>
<text text-anchor="start" x="61.5" y="-318.5" font-family="Arial" font-size="8.00" fill="#94a3b8">  string</text>
<text text-anchor="start" x="5.5" y="-307.5" font-family="Arial" font-size="10.00">project_id</text>
<text text-anchor="start" x="48.5" y="-307.5" font-family="Arial" font-size="8.00" fill="#94a3b8">  string</text>
<polygon fill="none" stroke="#64748b" points="0,-298.5 0,-380.5 91,-380.5 91,-298.5 0,-298.5"/>
</g>
<!-- application_action_policy_authorization_policy_project_reviewer -->
<g id="node2" class="node">
<title>application_action_policy_authorization_policy_project_reviewer</title>
<polygon fill="#ffffff" stroke="transparent" points="193,-281.5 193,-397.5 440,-397.5 440,-281.5 193,-281.5"/>
<polygon fill="#c2410c" stroke="transparent" points="194.5,-388.5 194.5,-396.5 439.5,-396.5 439.5,-388.5 194.5,-388.5"/>
<polygon fill="#fff7ed" stroke="transparent" points="194.5,-357.5 194.5,-388.5 439.5,-388.5 439.5,-357.5 194.5,-357.5"/>
<text text-anchor="start" x="198.5" y="-375.1" font-family="Arial" font-weight="bold" font-size="13.00">authorization_policy.project.reviewer</text>
<text text-anchor="start" x="198.5" y="-364.1" font-family="Arial" font-size="8.00" fill="#64748b">authorization gate</text>
<text text-anchor="start" x="198.5" y="-346.5" font-family="Arial" font-style="italic" font-size="10.00" fill="#3f3f46">Reviewers may approve, archive, and send approval</text>
<text text-anchor="start" x="198.5" y="-335.5" font-family="Arial" font-style="italic" font-size="10.00" fill="#3f3f46">notices for dispatch projects.</text>
<text text-anchor="start" x="199.5" y="-315.5" font-family="Arial" font-weight="bold" font-size="10.00">effect:</text>
<text text-anchor="start" x="227.5" y="-315.5" font-family="Arial" font-size="10.00">  allow</text>
<text text-anchor="start" x="199.5" y="-303.5" font-family="Arial" font-weight="bold" font-size="10.00">subjects:</text>
<text text-anchor="start" x="242.5" y="-303.5" font-family="Arial" font-size="10.00">  actor</text>
<text text-anchor="start" x="199.5" y="-291.5" font-family="Arial" font-weight="bold" font-size="10.00">conditions:</text>
<text text-anchor="start" x="252.5" y="-291.5" font-family="Arial" font-size="10.00">  subject_has_role reviewer</text>
<polygon fill="none" stroke="#c2410c" points="193,-281.5 193,-397.5 440,-397.5 440,-281.5 193,-281.5"/>
</g>
<!-- application_action_input_application_action_project_approve&#45;&gt;application_action_policy_authorization_policy_project_reviewer -->
<g id="edge1" class="edge">
<title>application_action_input_application_action_project_approve&#45;&gt;application_action_policy_authorization_policy_project_reviewer</title>
<path fill="none" stroke="#3f3f46" stroke-width="1.2" d="M91.22,-339.5C117.09,-339.5 151.1,-339.5 184.8,-339.5"/>
<polygon fill="#3f3f46" stroke="#3f3f46" stroke-width="1.2" points="184.89,-342.3 192.89,-339.5 184.89,-336.7 184.89,-342.3"/>
<text text-anchor="middle" x="142" y="-342.5" font-family="Arial" font-size="10.00">authorize</text>
</g>
<!-- application_action_resource_application_action_project_approve_lifecycle_transition_entity_type_project_status -->
<g id="node3" class="node">
<title>application_action_resource_application_action_project_approve_lifecycle_transition_entity_type_project_status</title>
<polygon fill="#ffffff" stroke="transparent" points="584,-304 584,-375 897,-375 897,-304 584,-304"/>
<polygon fill="#15803d" stroke="transparent" points="585.5,-365.5 585.5,-373.5 896.5,-373.5 896.5,-365.5 585.5,-365.5"/>
<polygon fill="#f0fdfa" stroke="transparent" points="585.5,-334.5 585.5,-365.5 896.5,-365.5 896.5,-334.5 585.5,-334.5"/>
<text text-anchor="start" x="589.5" y="-352.1" font-family="Arial" font-weight="bold" font-size="13.00">entity_type.project</text>
<text text-anchor="start" x="589.5" y="-341.1" font-family="Arial" font-size="8.00" fill="#64748b">entity_type resource</text>
<text text-anchor="start" x="589.5" y="-323.5" font-family="Arial" font-weight="bold" font-size="10.00">change</text>
<text text-anchor="start" x="589.5" y="-312.5" font-family="Arial" font-size="10.00">Project.status</text>
<text text-anchor="start" x="650.5" y="-312.5" font-family="Arial" font-size="8.00" fill="#94a3b8">  enum&lt;draft|submitted|approved|archived&gt;</text>
<text text-anchor="start" x="806.5" y="-312.5" font-family="Arial" font-size="8.00">  submitted → approved</text>
<polygon fill="none" stroke="#15803d" points="584,-304 584,-375 897,-375 897,-304 584,-304"/>
</g>
<!-- application_action_policy_authorization_policy_project_reviewer&#45;&gt;application_action_resource_application_action_project_approve_lifecycle_transition_entity_type_project_status -->
<g id="edge2" class="edge">
<title>application_action_policy_authorization_policy_project_reviewer&#45;&gt;application_action_resource_application_action_project_approve_lifecycle_transition_entity_type_project_status</title>
<path fill="none" stroke="#3f3f46" d="M440.13,-339.5C482.48,-339.5 530.64,-339.5 575.75,-339.5"/>
<polygon fill="#3f3f46" stroke="#3f3f46" points="575.84,-342.3 583.84,-339.5 575.84,-336.7 575.84,-342.3"/>
<text text-anchor="middle" x="512" y="-342.5" font-family="Arial" font-size="10.00">lifecycle_transition</text>
</g>
<!-- action_outcome_application_action_project_approve_forbidden -->
<g id="node5" class="node">
<title>action_outcome_application_action_project_approve_forbidden</title>
<polygon fill="#ffffff" stroke="transparent" points="1038,-500 1038,-571 1111,-571 1111,-500 1038,-500"/>
<polygon fill="#dc2626" stroke="transparent" points="1039.5,-561.5 1039.5,-569.5 1110.5,-569.5 1110.5,-561.5 1039.5,-561.5"/>
<polygon fill="#fef2f2" stroke="transparent" points="1039.5,-530.5 1039.5,-561.5 1110.5,-561.5 1110.5,-530.5 1039.5,-530.5"/>
<text text-anchor="start" x="1043.5" y="-548.1" font-family="Arial" font-weight="bold" font-size="13.00">forbidden</text>
<text text-anchor="start" x="1043.5" y="-537.1" font-family="Arial" font-size="8.00" fill="#64748b">failure outcome</text>
<text text-anchor="start" x="1043.5" y="-519.5" font-family="Arial" font-weight="bold" font-size="10.00">result</text>
<text text-anchor="start" x="1043.5" y="-508.5" font-family="Arial" font-size="10.00">result</text>
<text text-anchor="start" x="1068.5" y="-508.5" font-family="Arial" font-size="8.00" fill="#94a3b8">  Problem</text>
<polygon fill="none" stroke="#dc2626" points="1038,-500 1038,-571 1111,-571 1111,-500 1038,-500"/>
</g>
<!-- application_action_policy_authorization_policy_project_reviewer&#45;&gt;action_outcome_application_action_project_approve_forbidden -->
<g id="edge5" class="edge">
<title>application_action_policy_authorization_policy_project_reviewer&#45;&gt;action_outcome_application_action_project_approve_forbidden</title>
<path fill="none" stroke="#3f3f46" d="M440.28,-375.3C563.16,-410.55 757.87,-464.87 928,-505.5 962.05,-513.63 1000.9,-521.57 1029.88,-527.24"/>
<polygon fill="#3f3f46" stroke="#3f3f46" points="1029.4,-530 1037.78,-528.78 1030.47,-524.5 1029.4,-530"/>
<text text-anchor="middle" x="740.5" y="-499.5" font-family="Arial" font-size="10.00">forbidden_as</text>
</g>
<!-- action_outcome_application_action_project_approve_unauthenticated -->
<g id="node8" class="node">
<title>action_outcome_application_action_project_approve_unauthenticated</title>
<polygon fill="#ffffff" stroke="transparent" points="1017,-125 1017,-196 1132,-196 1132,-125 1017,-125"/>
<polygon fill="#dc2626" stroke="transparent" points="1018.5,-186.5 1018.5,-194.5 1131.5,-194.5 1131.5,-186.5 1018.5,-186.5"/>
<polygon fill="#fef2f2" stroke="transparent" points="1018.5,-155.5 1018.5,-186.5 1131.5,-186.5 1131.5,-155.5 1018.5,-155.5"/>
<text text-anchor="start" x="1022.5" y="-173.1" font-family="Arial" font-weight="bold" font-size="13.00">unauthenticated</text>
<text text-anchor="start" x="1022.5" y="-162.1" font-family="Arial" font-size="8.00" fill="#64748b">failure outcome</text>
<text text-anchor="start" x="1022.5" y="-144.5" font-family="Arial" font-weight="bold" font-size="10.00">result</text>
<text text-anchor="start" x="1022.5" y="-133.5" font-family="Arial" font-size="10.00">result</text>
<text text-anchor="start" x="1047.5" y="-133.5" font-family="Arial" font-size="8.00" fill="#94a3b8">  Problem</text>
<polygon fill="none" stroke="#dc2626" points="1017,-125 1017,-196 1132,-196 1132,-125 1017,-125"/>
</g>
<!-- application_action_policy_authorization_policy_project_reviewer&#45;&gt;action_outcome_application_action_project_approve_unauthenticated -->
<g id="edge8" class="edge">
<title>application_action_policy_authorization_policy_project_reviewer&#45;&gt;action_outcome_application_action_project_approve_unauthenticated</title>
<path fill="none" stroke="#3f3f46" d="M440.23,-310.44C602.46,-272.03 882.46,-205.73 1008.59,-175.87"/>
<polygon fill="#3f3f46" stroke="#3f3f46" points="1009.53,-178.52 1016.67,-173.96 1008.24,-173.07 1009.53,-178.52"/>
<text text-anchor="middle" x="740.5" y="-276.5" font-family="Arial" font-size="10.00">unauthenticated_as</text>
</g>
<!-- action_outcome_application_action_project_approve_approved -->
<g id="node4" class="node">
<title>action_outcome_application_action_project_approve_approved</title>
<polygon fill="#ffffff" stroke="transparent" points="1039,-625 1039,-696 1110,-696 1110,-625 1039,-625"/>
<polygon fill="#16a34a" stroke="transparent" points="1040.5,-686.5 1040.5,-694.5 1109.5,-694.5 1109.5,-686.5 1040.5,-686.5"/>
<polygon fill="#f0fdf4" stroke="transparent" points="1040.5,-655.5 1040.5,-686.5 1109.5,-686.5 1109.5,-655.5 1040.5,-655.5"/>
<text text-anchor="start" x="1044.5" y="-673.1" font-family="Arial" font-weight="bold" font-size="13.00">approved</text>
<text text-anchor="start" x="1044.5" y="-662.1" font-family="Arial" font-size="8.00" fill="#64748b">success outcome</text>
<text text-anchor="start" x="1044.5" y="-644.5" font-family="Arial" font-weight="bold" font-size="10.00">result</text>
<text text-anchor="start" x="1044.5" y="-633.5" font-family="Arial" font-size="10.00">result</text>
<text text-anchor="start" x="1069.5" y="-633.5" font-family="Arial" font-size="8.00" fill="#94a3b8">  Project</text>
<polygon fill="none" stroke="#16a34a" points="1039,-625 1039,-696 1110,-696 1110,-625 1039,-625"/>
</g>
<!-- application_action_resource_application_action_project_approve_lifecycle_transition_entity_type_project_status&#45;&gt;action_outcome_application_action_project_approve_approved -->
<g id="edge3" class="edge">
<title>application_action_resource_application_action_project_approve_lifecycle_transition_entity_type_project_status&#45;&gt;action_outcome_application_action_project_approve_approved</title>
<path fill="none" stroke="#3f3f46" d="M778.3,-375.08C840.78,-435.49 967.15,-557.68 1032.42,-620.78"/>
<polygon fill="#3f3f46" stroke="#3f3f46" points="1030.85,-623.15 1038.54,-626.7 1034.74,-619.13 1030.85,-623.15"/>
<text text-anchor="middle" x="946.5" y="-550.5" font-family="Arial" font-size="10.00">success</text>
</g>
<!-- action_outcome_application_action_project_approve_not_found -->
<g id="node6" class="node">
<title>action_outcome_application_action_project_approve_not_found</title>
<polygon fill="#ffffff" stroke="transparent" points="1036,-375 1036,-446 1113,-446 1113,-375 1036,-375"/>
<polygon fill="#dc2626" stroke="transparent" points="1037.5,-436.5 1037.5,-444.5 1112.5,-444.5 1112.5,-436.5 1037.5,-436.5"/>
<polygon fill="#fef2f2" stroke="transparent" points="1037.5,-405.5 1037.5,-436.5 1112.5,-436.5 1112.5,-405.5 1037.5,-405.5"/>
<text text-anchor="start" x="1041.5" y="-423.1" font-family="Arial" font-weight="bold" font-size="13.00">not_found</text>
<text text-anchor="start" x="1041.5" y="-412.1" font-family="Arial" font-size="8.00" fill="#64748b">failure outcome</text>
<text text-anchor="start" x="1041.5" y="-394.5" font-family="Arial" font-weight="bold" font-size="10.00">result</text>
<text text-anchor="start" x="1041.5" y="-383.5" font-family="Arial" font-size="10.00">result</text>
<text text-anchor="start" x="1066.5" y="-383.5" font-family="Arial" font-size="8.00" fill="#94a3b8">  Problem</text>
<polygon fill="none" stroke="#dc2626" points="1036,-375 1036,-446 1113,-446 1113,-375 1036,-375"/>
</g>
<!-- application_action_resource_application_action_project_approve_lifecycle_transition_entity_type_project_status&#45;&gt;action_outcome_application_action_project_approve_not_found -->
<g id="edge6" class="edge">
<title>application_action_resource_application_action_project_approve_lifecycle_transition_entity_type_project_status&#45;&gt;action_outcome_application_action_project_approve_not_found</title>
<path fill="none" stroke="#3f3f46" d="M897.29,-372.82C945.02,-383.02 993.88,-393.47 1028,-400.77"/>
<polygon fill="#3f3f46" stroke="#3f3f46" points="1027.51,-403.53 1035.92,-402.46 1028.68,-398.05 1027.51,-403.53"/>
<text text-anchor="middle" x="946.5" y="-388.5" font-family="Arial" font-size="10.00">failure</text>
</g>
<!-- action_outcome_application_action_project_approve_transition_not_allowed -->
<g id="node7" class="node">
<title>action_outcome_application_action_project_approve_transition_not_allowed</title>
<polygon fill="#ffffff" stroke="transparent" points="996,-250 996,-321 1153,-321 1153,-250 996,-250"/>
<polygon fill="#dc2626" stroke="transparent" points="997.5,-311.5 997.5,-319.5 1152.5,-319.5 1152.5,-311.5 997.5,-311.5"/>
<polygon fill="#fef2f2" stroke="transparent" points="997.5,-280.5 997.5,-311.5 1152.5,-311.5 1152.5,-280.5 997.5,-280.5"/>
<text text-anchor="start" x="1001.5" y="-298.1" font-family="Arial" font-weight="bold" font-size="13.00">transition_not_allowed</text>
<text text-anchor="start" x="1001.5" y="-287.1" font-family="Arial" font-size="8.00" fill="#64748b">failure outcome</text>
<text text-anchor="start" x="1001.5" y="-269.5" font-family="Arial" font-weight="bold" font-size="10.00">result</text>
<text text-anchor="start" x="1001.5" y="-258.5" font-family="Arial" font-size="10.00">result</text>
<text text-anchor="start" x="1026.5" y="-258.5" font-family="Arial" font-size="8.00" fill="#94a3b8">  Problem</text>
<polygon fill="none" stroke="#dc2626" points="996,-250 996,-321 1153,-321 1153,-250 996,-250"/>
</g>
<!-- application_action_resource_application_action_project_approve_lifecycle_transition_entity_type_project_status&#45;&gt;action_outcome_application_action_project_approve_transition_not_allowed -->
<g id="edge7" class="edge">
<title>application_action_resource_application_action_project_approve_lifecycle_transition_entity_type_project_status&#45;&gt;action_outcome_application_action_project_approve_transition_not_allowed</title>
<path fill="none" stroke="#3f3f46" d="M897.29,-314.16C928.42,-309.1 960.03,-303.96 987.72,-299.45"/>
<polygon fill="#3f3f46" stroke="#3f3f46" points="988.35,-302.19 995.8,-298.14 987.45,-296.66 988.35,-302.19"/>
<text text-anchor="middle" x="946.5" y="-310.5" font-family="Arial" font-size="10.00">failure</text>
</g>
<!-- action_outcome_application_action_project_approve_unavailable -->
<g id="node9" class="node">
<title>action_outcome_application_action_project_approve_unavailable</title>
<polygon fill="#ffffff" stroke="transparent" points="1032.5,0 1032.5,-71 1116.5,-71 1116.5,0 1032.5,0"/>
<polygon fill="#dc2626" stroke="transparent" points="1033.5,-61.5 1033.5,-69.5 1115.5,-69.5 1115.5,-61.5 1033.5,-61.5"/>
<polygon fill="#fef2f2" stroke="transparent" points="1033.5,-30.5 1033.5,-61.5 1115.5,-61.5 1115.5,-30.5 1033.5,-30.5"/>
<text text-anchor="start" x="1037.5" y="-48.1" font-family="Arial" font-weight="bold" font-size="13.00">unavailable</text>
<text text-anchor="start" x="1037.5" y="-37.1" font-family="Arial" font-size="8.00" fill="#64748b">failure outcome</text>
<text text-anchor="start" x="1037.5" y="-19.5" font-family="Arial" font-weight="bold" font-size="10.00">result</text>
<text text-anchor="start" x="1037.5" y="-8.5" font-family="Arial" font-size="10.00">result</text>
<text text-anchor="start" x="1062.5" y="-8.5" font-family="Arial" font-size="8.00" fill="#94a3b8">  Problem</text>
<polygon fill="none" stroke="#dc2626" points="1032.5,0 1032.5,-71 1116.5,-71 1116.5,0 1032.5,0"/>
</g>
<!-- application_action_resource_application_action_project_approve_lifecycle_transition_entity_type_project_status&#45;&gt;action_outcome_application_action_project_approve_unavailable -->
<g id="edge9" class="edge">
<title>application_action_resource_application_action_project_approve_lifecycle_transition_entity_type_project_status&#45;&gt;action_outcome_application_action_project_approve_unavailable</title>
<path fill="none" stroke="#3f3f46" d="M780.89,-303.96C812.38,-275.51 857.61,-234.54 897,-198.5 942.09,-157.24 993.38,-109.81 1029.01,-76.8"/>
<polygon fill="#3f3f46" stroke="#3f3f46" points="1031.07,-78.71 1035.03,-71.21 1027.26,-74.6 1031.07,-78.71"/>
<text text-anchor="middle" x="946.5" y="-169.5" font-family="Arial" font-size="10.00">failure</text>
</g>
<!-- action_outcome_application_action_project_approve_approved&#45;&gt;action_outcome_application_action_project_approve_forbidden -->
<!-- application_action_event_application_action_project_approve_domain_event_project_approved -->
<g id="node10" class="node">
<title>application_action_event_application_action_project_approve_domain_event_project_approved</title>
<polygon fill="#ffffff" stroke="transparent" points="1234,-610 1234,-711 1457,-711 1457,-610 1234,-610"/>
<polygon fill="#4f46e5" stroke="transparent" points="1235.5,-701.5 1235.5,-709.5 1456.5,-709.5 1456.5,-701.5 1235.5,-701.5"/>
<polygon fill="#eef2ff" stroke="transparent" points="1235.5,-670.5 1235.5,-701.5 1456.5,-701.5 1456.5,-670.5 1235.5,-670.5"/>
<text text-anchor="start" x="1239.5" y="-688.1" font-family="Arial" font-weight="bold" font-size="13.00">domain_event.project.approved</text>
<text text-anchor="start" x="1239.5" y="-677.1" font-family="Arial" font-size="8.00" fill="#64748b">emitted event</text>
<text text-anchor="start" x="1239.5" y="-659.5" font-family="Arial" font-style="italic" font-size="10.00" fill="#3f3f46">Approval domain events carry the reviewer and</text>
<text text-anchor="start" x="1239.5" y="-648.5" font-family="Arial" font-style="italic" font-size="10.00" fill="#3f3f46">project identity needed by notification workflows.</text>
<text text-anchor="start" x="1239.5" y="-629.5" font-family="Arial" font-weight="bold" font-size="10.00">payload</text>
<text text-anchor="start" x="1239.5" y="-618.5" font-family="Arial" font-size="10.00">payload</text>
<text text-anchor="start" x="1273.5" y="-618.5" font-family="Arial" font-size="8.00" fill="#94a3b8">  schema.project.approved</text>
<polygon fill="none" stroke="#4f46e5" points="1234,-610 1234,-711 1457,-711 1457,-610 1234,-610"/>
</g>
<!-- action_outcome_application_action_project_approve_approved&#45;&gt;application_action_event_application_action_project_approve_domain_event_project_approved -->
<g id="edge4" class="edge">
<title>action_outcome_application_action_project_approve_approved&#45;&gt;application_action_event_application_action_project_approve_domain_event_project_approved</title>
<path fill="none" stroke="#3f3f46" stroke-width="1.2" d="M1110.12,-660.5C1139.58,-660.5 1183.69,-660.5 1225.72,-660.5"/>
<polygon fill="#3f3f46" stroke="#3f3f46" stroke-width="1.2" points="1225.82,-663.3 1233.82,-660.5 1225.82,-657.7 1225.82,-663.3"/>
<text text-anchor="middle" x="1193.5" y="-663.5" font-family="Arial" font-size="10.00">emit</text>
</g>
<!-- action_outcome_application_action_project_approve_forbidden&#45;&gt;action_outcome_application_action_project_approve_not_found -->
<!-- action_outcome_application_action_project_approve_not_found&#45;&gt;action_outcome_application_action_project_approve_transition_not_allowed -->
<!-- action_outcome_application_action_project_approve_transition_not_allowed&#45;&gt;action_outcome_application_action_project_approve_unauthenticated -->
<!-- action_outcome_application_action_project_approve_unauthenticated&#45;&gt;action_outcome_application_action_project_approve_unavailable -->
</g>
</svg>
