<svg width="1500pt" height="732pt"
 viewBox="0.00 0.00 1500.00 732.00" xmlns="http://www.w3.org/2000/svg" xmlns:xlink="http://www.w3.org/1999/xlink">
<!-- pyspec-contract-input-sha256: 31e9a63ad70efa77ad1c2642ea7ced5676027da74862f857bbdb0ab287fe8771 -->
<g id="graph0" class="graph" transform="scale(1 1) rotate(0) translate(18 714)">
<title>application_action_application_action_project_approve</title>
<!-- application_action_input_application_action_project_approve -->
<g id="node1" class="node">
<title>application_action_input_application_action_project_approve</title>
<polygon fill="#ffffff" stroke="transparent" points="0,-369.5 0,-451.5 91,-451.5 91,-369.5 0,-369.5"/>
<polygon fill="#64748b" stroke="transparent" points="1.5,-442.5 1.5,-450.5 90.5,-450.5 90.5,-442.5 1.5,-442.5"/>
<polygon fill="#f8fafc" stroke="transparent" points="1.5,-411.5 1.5,-442.5 90.5,-442.5 90.5,-411.5 1.5,-411.5"/>
<text text-anchor="start" x="5.5" y="-429.1" font-family="Arial" font-weight="bold" font-size="13.00">input</text>
<text text-anchor="start" x="5.5" y="-418.1" font-family="Arial" font-size="8.00" fill="#64748b">action input</text>
<text text-anchor="start" x="5.5" y="-400.5" font-family="Arial" font-weight="bold" font-size="10.00">fields</text>
<text text-anchor="start" x="5.5" y="-389.5" font-family="Arial" font-size="10.00">approved_by</text>
<text text-anchor="start" x="61.5" y="-389.5" font-family="Arial" font-size="8.00" fill="#94a3b8">  string</text>
<text text-anchor="start" x="5.5" y="-378.5" font-family="Arial" font-size="10.00">project_id</text>
<text text-anchor="start" x="48.5" y="-378.5" font-family="Arial" font-size="8.00" fill="#94a3b8">  string</text>
<polygon fill="none" stroke="#64748b" points="0,-369.5 0,-451.5 91,-451.5 91,-369.5 0,-369.5"/>
</g>
<!-- application_action_policy_authorization_policy_project_reviewer -->
<g id="node2" class="node">
<title>application_action_policy_authorization_policy_project_reviewer</title>
<polygon fill="#ffffff" stroke="transparent" points="193,-352.5 193,-468.5 440,-468.5 440,-352.5 193,-352.5"/>
<polygon fill="#c2410c" stroke="transparent" points="194.5,-459.5 194.5,-467.5 439.5,-467.5 439.5,-459.5 194.5,-459.5"/>
<polygon fill="#fff7ed" stroke="transparent" points="194.5,-428.5 194.5,-459.5 439.5,-459.5 439.5,-428.5 194.5,-428.5"/>
<text text-anchor="start" x="198.5" y="-446.1" font-family="Arial" font-weight="bold" font-size="13.00">authorization_policy.project.reviewer</text>
<text text-anchor="start" x="198.5" y="-435.1" font-family="Arial" font-size="8.00" fill="#64748b">authorization gate</text>
<text text-anchor="start" x="198.5" y="-417.5" font-family="Arial" font-style="italic" font-size="10.00" fill="#3f3f46">Reviewers may approve, archive, and send approval</text>
<text text-anchor="start" x="198.5" y="-406.5" font-family="Arial" font-style="italic" font-size="10.00" fill="#3f3f46">notices for dispatch projects.</text>
<text text-anchor="start" x="199.5" y="-386.5" font-family="Arial" font-weight="bold" font-size="10.00">effect:</text>
<text text-anchor="start" x="227.5" y="-386.5" font-family="Arial" font-size="10.00">  permit</text>
<text text-anchor="start" x="199.5" y="-374.5" font-family="Arial" font-weight="bold" font-size="10.00">subjects:</text>
<text text-anchor="start" x="242.5" y="-374.5" font-family="Arial" font-size="10.00">  actor</text>
<text text-anchor="start" x="199.5" y="-362.5" font-family="Arial" font-weight="bold" font-size="10.00">conditions:</text>
<text text-anchor="start" x="252.5" y="-362.5" font-family="Arial" font-size="10.00">  subject_has_role reviewer</text>
<polygon fill="none" stroke="#c2410c" points="193,-352.5 193,-468.5 440,-468.5 440,-352.5 193,-352.5"/>
</g>
<!-- application_action_input_application_action_project_approve&#45;&gt;application_action_policy_authorization_policy_project_reviewer -->
<g id="edge1" class="edge">
<title>application_action_input_application_action_project_approve&#45;&gt;application_action_policy_authorization_policy_project_reviewer</title>
<path fill="none" stroke="#3f3f46" stroke-width="1.2" d="M91.22,-410.5C117.09,-410.5 151.1,-410.5 184.8,-410.5"/>
<polygon fill="#3f3f46" stroke="#3f3f46" stroke-width="1.2" points="184.89,-413.3 192.89,-410.5 184.89,-407.7 184.89,-413.3"/>
<text text-anchor="middle" x="142" y="-413.5" font-family="Arial" font-size="10.00">authorize</text>
</g>
<!-- application_action_resource_application_action_project_approve_lifecycle_transition_entity_type_project_status -->
<g id="node3" class="node">
<title>application_action_resource_application_action_project_approve_lifecycle_transition_entity_type_project_status</title>
<polygon fill="#ffffff" stroke="transparent" points="584,-250 584,-321 897,-321 897,-250 584,-250"/>
<polygon fill="#15803d" stroke="transparent" points="585.5,-311.5 585.5,-319.5 896.5,-319.5 896.5,-311.5 585.5,-311.5"/>
<polygon fill="#f0fdfa" stroke="transparent" points="585.5,-280.5 585.5,-311.5 896.5,-311.5 896.5,-280.5 585.5,-280.5"/>
<text text-anchor="start" x="589.5" y="-298.1" font-family="Arial" font-weight="bold" font-size="13.00">entity_type.project</text>
<text text-anchor="start" x="589.5" y="-287.1" font-family="Arial" font-size="8.00" fill="#64748b">entity_type resource</text>
<text text-anchor="start" x="589.5" y="-269.5" font-family="Arial" font-weight="bold" font-size="10.00">change</text>
<text text-anchor="start" x="589.5" y="-258.5" font-family="Arial" font-size="10.00">Project.status</text>
<text text-anchor="start" x="650.5" y="-258.5" font-family="Arial" font-size="8.00" fill="#94a3b8">  enum&lt;draft|submitted|approved|archived&gt;</text>
<text text-anchor="start" x="806.5" y="-258.5" font-family="Arial" font-size="8.00">  submitted → approved</text>
<polygon fill="none" stroke="#15803d" points="584,-250 584,-321 897,-321 897,-250 584,-250"/>
</g>
<!-- application_action_policy_authorization_policy_project_reviewer&#45;&gt;application_action_resource_application_action_project_approve_lifecycle_transition_entity_type_project_status -->
<g id="edge2" class="edge">
<title>application_action_policy_authorization_policy_project_reviewer&#45;&gt;application_action_resource_application_action_project_approve_lifecycle_transition_entity_type_project_status</title>
<path fill="none" stroke="#3f3f46" d="M440.13,-374.18C493.94,-358.24 557.11,-339.53 611.52,-323.41"/>
<polygon fill="#3f3f46" stroke="#3f3f46" points="612.6,-326.01 619.48,-321.05 611.01,-320.64 612.6,-326.01"/>
<text text-anchor="middle" x="512" y="-366.5" font-family="Arial" font-size="10.00">lifecycle_transition</text>
</g>
<!-- action_outcome_application_action_project_approve_access_denied -->
<g id="node4" class="node">
<title>action_outcome_application_action_project_approve_access_denied</title>
<polygon fill="#ffffff" stroke="transparent" points="1024.5,-625 1024.5,-696 1131.5,-696 1131.5,-625 1024.5,-625"/>
<polygon fill="#dc2626" stroke="transparent" points="1026,-686.5 1026,-694.5 1131,-694.5 1131,-686.5 1026,-686.5"/>
<polygon fill="#fef2f2" stroke="transparent" points="1026,-655.5 1026,-686.5 1131,-686.5 1131,-655.5 1026,-655.5"/>
<text text-anchor="start" x="1030" y="-673.1" font-family="Arial" font-weight="bold" font-size="13.00">access_denied</text>
<text text-anchor="start" x="1030" y="-662.1" font-family="Arial" font-size="8.00" fill="#64748b">failure outcome</text>
<text text-anchor="start" x="1030" y="-644.5" font-family="Arial" font-weight="bold" font-size="10.00">result</text>
<text text-anchor="start" x="1030" y="-633.5" font-family="Arial" font-size="10.00">result</text>
<text text-anchor="start" x="1055" y="-633.5" font-family="Arial" font-size="8.00" fill="#94a3b8">  Problem</text>
<polygon fill="none" stroke="#dc2626" points="1024.5,-625 1024.5,-696 1131.5,-696 1131.5,-625 1024.5,-625"/>
</g>
<!-- application_action_policy_authorization_policy_project_reviewer&#45;&gt;action_outcome_application_action_project_approve_access_denied -->
<g id="edge3" class="edge">
<title>application_action_policy_authorization_policy_project_reviewer&#45;&gt;action_outcome_application_action_project_approve_access_denied</title>
<path fill="none" stroke="#3f3f46" d="M440.37,-450.94C605.31,-505.24 891.97,-599.59 1016.43,-640.56"/>
<polygon fill="#3f3f46" stroke="#3f3f46" points="1015.92,-643.34 1024.39,-643.18 1017.67,-638.02 1015.92,-643.34"/>
<text text-anchor="middle" x="740.5" y="-602.5" font-family="Arial" font-size="10.00">access_denied_as</text>
</g>
<!-- action_outcome_application_action_project_approve_authentication_required -->
<g id="node6" class="node">
<title>action_outcome_application_action_project_approve_authentication_required</title>
<polygon fill="#ffffff" stroke="transparent" points="996,-375 996,-446 1160,-446 1160,-375 996,-375"/>
<polygon fill="#dc2626" stroke="transparent" points="997,-436.5 997,-444.5 1159,-444.5 1159,-436.5 997,-436.5"/>
<polygon fill="#fef2f2" stroke="transparent" points="997,-405.5 997,-436.5 1159,-436.5 1159,-405.5 997,-405.5"/>
<text text-anchor="start" x="1001" y="-423.1" font-family="Arial" font-weight="bold" font-size="13.00">authentication_required</text>
<text text-anchor="start" x="1001" y="-412.1" font-family="Arial" font-size="8.00" fill="#64748b">failure outcome</text>
<text text-anchor="start" x="1001" y="-394.5" font-family="Arial" font-weight="bold" font-size="10.00">result</text>
<text text-anchor="start" x="1001" y="-383.5" font-family="Arial" font-size="10.00">result</text>
<text text-anchor="start" x="1026" y="-383.5" font-family="Arial" font-size="8.00" fill="#94a3b8">  Problem</text>
<polygon fill="none" stroke="#dc2626" points="996,-375 996,-446 1160,-446 1160,-375 996,-375"/>
</g>
<!-- application_action_policy_authorization_policy_project_reviewer&#45;&gt;action_outcome_application_action_project_approve_authentication_required -->
<g id="edge6" class="edge">
<title>application_action_policy_authorization_policy_project_reviewer&#45;&gt;action_outcome_application_action_project_approve_authentication_required</title>
<path fill="none" stroke="#3f3f46" d="M440.37,-410.5C593.55,-410.5 851.71,-410.5 987.44,-410.5"/>
<polygon fill="#3f3f46" stroke="#3f3f46" points="987.8,-413.3 995.8,-410.5 987.8,-407.7 987.8,-413.3"/>
<text text-anchor="middle" x="740.5" y="-413.5" font-family="Arial" font-size="10.00">authentication_required_as</text>
</g>
<!-- action_outcome_application_action_project_approve_approved -->
<g id="node5" class="node">
<title>action_outcome_application_action_project_approve_approved</title>
<polygon fill="#ffffff" stroke="transparent" points="1042.5,-500 1042.5,-571 1113.5,-571 1113.5,-500 1042.5,-500"/>
<polygon fill="#16a34a" stroke="transparent" points="1044,-561.5 1044,-569.5 1113,-569.5 1113,-561.5 1044,-561.5"/>
<polygon fill="#f0fdf4" stroke="transparent" points="1044,-530.5 1044,-561.5 1113,-561.5 1113,-530.5 1044,-530.5"/>
<text text-anchor="start" x="1048" y="-548.1" font-family="Arial" font-weight="bold" font-size="13.00">approved</text>
<text text-anchor="start" x="1048" y="-537.1" font-family="Arial" font-size="8.00" fill="#64748b">success outcome</text>
<text text-anchor="start" x="1048" y="-519.5" font-family="Arial" font-weight="bold" font-size="10.00">result</text>
<text text-anchor="start" x="1048" y="-508.5" font-family="Arial" font-size="10.00">result</text>
<text text-anchor="start" x="1073" y="-508.5" font-family="Arial" font-size="8.00" fill="#94a3b8">  Project</text>
<polygon fill="none" stroke="#16a34a" points="1042.5,-500 1042.5,-571 1113.5,-571 1113.5,-500 1042.5,-500"/>
</g>
<!-- application_action_resource_application_action_project_approve_lifecycle_transition_entity_type_project_status&#45;&gt;action_outcome_application_action_project_approve_approved -->
<g id="edge4" class="edge">
<title>application_action_resource_application_action_project_approve_lifecycle_transition_entity_type_project_status&#45;&gt;action_outcome_application_action_project_approve_approved</title>
<path fill="none" stroke="#3f3f46" d="M807.9,-321.16C836.13,-337.23 868.94,-357.15 897,-377.5 924.97,-397.78 992.48,-458.31 1036.41,-498.29"/>
<polygon fill="#3f3f46" stroke="#3f3f46" points="1034.64,-500.47 1042.44,-503.79 1038.41,-496.33 1034.64,-500.47"/>
<text text-anchor="middle" x="946.5" y="-437.5" font-family="Arial" font-size="10.00">success</text>
</g>
<!-- action_outcome_application_action_project_approve_not_found -->
<g id="node7" class="node">
<title>action_outcome_application_action_project_approve_not_found</title>
<polygon fill="#ffffff" stroke="transparent" points="1039.5,-250 1039.5,-321 1116.5,-321 1116.5,-250 1039.5,-250"/>
<polygon fill="#dc2626" stroke="transparent" points="1041,-311.5 1041,-319.5 1116,-319.5 1116,-311.5 1041,-311.5"/>
<polygon fill="#fef2f2" stroke="transparent" points="1041,-280.5 1041,-311.5 1116,-311.5 1116,-280.5 1041,-280.5"/>
<text text-anchor="start" x="1045" y="-298.1" font-family="Arial" font-weight="bold" font-size="13.00">not_found</text>
<text text-anchor="start" x="1045" y="-287.1" font-family="Arial" font-size="8.00" fill="#64748b">failure outcome</text>
<text text-anchor="start" x="1045" y="-269.5" font-family="Arial" font-weight="bold" font-size="10.00">result</text>
<text text-anchor="start" x="1045" y="-258.5" font-family="Arial" font-size="10.00">result</text>
<text text-anchor="start" x="1070" y="-258.5" font-family="Arial" font-size="8.00" fill="#94a3b8">  Problem</text>
<polygon fill="none" stroke="#dc2626" points="1039.5,-250 1039.5,-321 1116.5,-321 1116.5,-250 1039.5,-250"/>
</g>
<!-- application_action_resource_application_action_project_approve_lifecycle_transition_entity_type_project_status&#45;&gt;action_outcome_application_action_project_approve_not_found -->
<g id="edge7" class="edge">
<title>application_action_resource_application_action_project_approve_lifecycle_transition_entity_type_project_status&#45;&gt;action_outcome_application_action_project_approve_not_found</title>
<path fill="none" stroke="#3f3f46" d="M897.46,-285.5C946.26,-285.5 996.39,-285.5 1031.23,-285.5"/>
<polygon fill="#3f3f46" stroke="#3f3f46" points="1031.31,-288.3 1039.31,-285.5 1031.31,-282.7 1031.31,-288.3"/>
<text text-anchor="middle" x="946.5" y="-288.5" font-family="Arial" font-size="10.00">failure</text>
</g>
<!-- action_outcome_application_action_project_approve_transition_not_allowed -->
<g id="node8" class="node">
<title>action_outcome_application_action_project_approve_transition_not_allowed</title>
<polygon fill="#ffffff" stroke="transparent" points="999.5,-125 999.5,-196 1156.5,-196 1156.5,-125 999.5,-125"/>
<polygon fill="#dc2626" stroke="transparent" points="1001,-186.5 1001,-194.5 1156,-194.5 1156,-186.5 1001,-186.5"/>
<polygon fill="#fef2f2" stroke="transparent" points="1001,-155.5 1001,-186.5 1156,-186.5 1156,-155.5 1001,-155.5"/>
<text text-anchor="start" x="1005" y="-173.1" font-family="Arial" font-weight="bold" font-size="13.00">transition_not_allowed</text>
<text text-anchor="start" x="1005" y="-162.1" font-family="Arial" font-size="8.00" fill="#64748b">failure outcome</text>
<text text-anchor="start" x="1005" y="-144.5" font-family="Arial" font-weight="bold" font-size="10.00">result</text>
<text text-anchor="start" x="1005" y="-133.5" font-family="Arial" font-size="10.00">result</text>
<text text-anchor="start" x="1030" y="-133.5" font-family="Arial" font-size="8.00" fill="#94a3b8">  Problem</text>
<polygon fill="none" stroke="#dc2626" points="999.5,-125 999.5,-196 1156.5,-196 1156.5,-125 999.5,-125"/>
</g>
<!-- application_action_resource_application_action_project_approve_lifecycle_transition_entity_type_project_status&#45;&gt;action_outcome_application_action_project_approve_transition_not_allowed -->
<g id="edge8" class="edge">
<title>application_action_resource_application_action_project_approve_lifecycle_transition_entity_type_project_status&#45;&gt;action_outcome_application_action_project_approve_transition_not_allowed</title>
<path fill="none" stroke="#3f3f46" d="M837.19,-249.85C885.81,-231.73 944.4,-209.9 991.5,-192.36"/>
<polygon fill="#3f3f46" stroke="#3f3f46" points="992.73,-194.88 999.25,-189.47 990.78,-189.64 992.73,-194.88"/>
<text text-anchor="middle" x="946.5" y="-219.5" font-family="Arial" font-size="10.00">failure</text>
</g>
<!-- action_outcome_application_action_project_approve_unavailable -->
<g id="node9" class="node">
<title>action_outcome_application_action_project_approve_unavailable</title>
<polygon fill="#ffffff" stroke="transparent" points="1036,0 1036,-71 1120,-71 1120,0 1036,0"/>
<polygon fill="#dc2626" stroke="transparent" points="1037,-61.5 1037,-69.5 1119,-69.5 1119,-61.5 1037,-61.5"/>
<polygon fill="#fef2f2" stroke="transparent" points="1037,-30.5 1037,-61.5 1119,-61.5 1119,-30.5 1037,-30.5"/>
<text text-anchor="start" x="1041" y="-48.1" font-family="Arial" font-weight="bold" font-size="13.00">unavailable</text>
<text text-anchor="start" x="1041" y="-37.1" font-family="Arial" font-size="8.00" fill="#64748b">failure outcome</text>
<text text-anchor="start" x="1041" y="-19.5" font-family="Arial" font-weight="bold" font-size="10.00">result</text>
<text text-anchor="start" x="1041" y="-8.5" font-family="Arial" font-size="10.00">result</text>
<text text-anchor="start" x="1066" y="-8.5" font-family="Arial" font-size="8.00" fill="#94a3b8">  Problem</text>
<polygon fill="none" stroke="#dc2626" points="1036,0 1036,-71 1120,-71 1120,0 1036,0"/>
</g>
<!-- application_action_resource_application_action_project_approve_lifecycle_transition_entity_type_project_status&#45;&gt;action_outcome_application_action_project_approve_unavailable -->
<g id="edge9" class="edge">
<title>application_action_resource_application_action_project_approve_lifecycle_transition_entity_type_project_status&#45;&gt;action_outcome_application_action_project_approve_unavailable</title>
<path fill="none" stroke="#3f3f46" d="M789.21,-249.95C852.92,-202.47 965.14,-118.85 1029,-71.27"/>
<polygon fill="#3f3f46" stroke="#3f3f46" points="1031.04,-73.24 1035.78,-66.21 1027.7,-68.75 1031.04,-73.24"/>
<text text-anchor="middle" x="946.5" y="-149.5" font-family="Arial" font-size="10.00">failure</text>
</g>
<!-- action_outcome_application_action_project_approve_access_denied&#45;&gt;action_outcome_application_action_project_approve_approved -->
<!-- action_outcome_application_action_project_approve_approved&#45;&gt;action_outcome_application_action_project_approve_authentication_required -->
<!-- application_action_event_application_action_project_approve_domain_event_project_approved -->
<g id="node10" class="node">
<title>application_action_event_application_action_project_approve_domain_event_project_approved</title>
<polygon fill="#ffffff" stroke="transparent" points="1241,-485 1241,-586 1464,-586 1464,-485 1241,-485"/>
<polygon fill="#4f46e5" stroke="transparent" points="1242.5,-576.5 1242.5,-584.5 1463.5,-584.5 1463.5,-576.5 1242.5,-576.5"/>
<polygon fill="#eef2ff" stroke="transparent" points="1242.5,-545.5 1242.5,-576.5 1463.5,-576.5 1463.5,-545.5 1242.5,-545.5"/>
<text text-anchor="start" x="1246.5" y="-563.1" font-family="Arial" font-weight="bold" font-size="13.00">domain_event.project.approved</text>
<text text-anchor="start" x="1246.5" y="-552.1" font-family="Arial" font-size="8.00" fill="#64748b">emitted event</text>
<text text-anchor="start" x="1246.5" y="-534.5" font-family="Arial" font-style="italic" font-size="10.00" fill="#3f3f46">Approval domain events carry the reviewer and</text>
<text text-anchor="start" x="1246.5" y="-523.5" font-family="Arial" font-style="italic" font-size="10.00" fill="#3f3f46">project identity needed by notification workflows.</text>
<text text-anchor="start" x="1246.5" y="-504.5" font-family="Arial" font-weight="bold" font-size="10.00">payload</text>
<text text-anchor="start" x="1246.5" y="-493.5" font-family="Arial" font-size="10.00">payload</text>
<text text-anchor="start" x="1280.5" y="-493.5" font-family="Arial" font-size="8.00" fill="#94a3b8">  schema.project.approved</text>
<polygon fill="none" stroke="#4f46e5" points="1241,-485 1241,-586 1464,-586 1464,-485 1241,-485"/>
</g>
<!-- action_outcome_application_action_project_approve_approved&#45;&gt;application_action_event_application_action_project_approve_domain_event_project_approved -->
<g id="edge5" class="edge">
<title>action_outcome_application_action_project_approve_approved&#45;&gt;application_action_event_application_action_project_approve_domain_event_project_approved</title>
<path fill="none" stroke="#3f3f46" stroke-width="1.2" d="M1113.51,-535.5C1143.71,-535.5 1189.41,-535.5 1232.71,-535.5"/>
<polygon fill="#3f3f46" stroke="#3f3f46" stroke-width="1.2" points="1232.76,-538.3 1240.76,-535.5 1232.76,-532.7 1232.76,-538.3"/>
<text text-anchor="middle" x="1200.5" y="-538.5" font-family="Arial" font-size="10.00">emit</text>
</g>
<!-- action_outcome_application_action_project_approve_authentication_required&#45;&gt;action_outcome_application_action_project_approve_not_found -->
<!-- action_outcome_application_action_project_approve_not_found&#45;&gt;action_outcome_application_action_project_approve_transition_not_allowed -->
<!-- action_outcome_application_action_project_approve_transition_not_allowed&#45;&gt;action_outcome_application_action_project_approve_unavailable -->
</g>
</svg>
