<svg width="1362pt" height="497pt"
 viewBox="0.00 0.00 1362.00 497.00" xmlns="http://www.w3.org/2000/svg" xmlns:xlink="http://www.w3.org/1999/xlink">
<!-- pyspec-contract-input-sha256: 204aca37c4bc99ac3050d58941d50eca54e901c42b39bd6bbc8efd42cab3b6b9 -->
<g id="graph0" class="graph" transform="scale(1 1) rotate(0) translate(18 479)">
<title>operation_operation_project_approve</title>
<!-- operation_input_operation_project_approve -->
<g id="node1" class="node">
<title>operation_input_operation_project_approve</title>
<polygon fill="#ffffff" stroke="transparent" points="0,-160.5 0,-242.5 79,-242.5 79,-160.5 0,-160.5"/>
<polygon fill="#64748b" stroke="transparent" points="1.5,-233.5 1.5,-241.5 78.5,-241.5 78.5,-233.5 1.5,-233.5"/>
<polygon fill="#f8fafc" stroke="transparent" points="1.5,-202.5 1.5,-233.5 78.5,-233.5 78.5,-202.5 1.5,-202.5"/>
<text text-anchor="start" x="5.5" y="-220.1" font-family="Arial" font-weight="bold" font-size="13.00">input</text>
<text text-anchor="start" x="5.5" y="-209.1" font-family="Arial" font-size="8.00" fill="#64748b">operation input</text>
<text text-anchor="start" x="5.5" y="-191.5" font-family="Arial" font-weight="bold" font-size="10.00">fields</text>
<text text-anchor="start" x="5.5" y="-180.5" font-family="Arial" font-size="10.00">approved_by</text>
<text text-anchor="start" x="61.5" y="-180.5" font-family="Arial" font-size="8.00" fill="#94a3b8">  ID</text>
<text text-anchor="start" x="5.5" y="-169.5" font-family="Arial" font-size="10.00">project_id</text>
<text text-anchor="start" x="48.5" y="-169.5" font-family="Arial" font-size="8.00" fill="#94a3b8">  ID</text>
<polygon fill="none" stroke="#64748b" points="0,-160.5 0,-242.5 79,-242.5 79,-160.5 0,-160.5"/>
</g>
<!-- operation_policy_authorization_policy_project_approve -->
<g id="node2" class="node">
<title>operation_policy_authorization_policy_project_approve</title>
<polygon fill="#ffffff" stroke="transparent" points="181,-149 181,-254 426,-254 426,-149 181,-149"/>
<polygon fill="#c2410c" stroke="transparent" points="182.5,-244.5 182.5,-252.5 425.5,-252.5 425.5,-244.5 182.5,-244.5"/>
<polygon fill="#fff7ed" stroke="transparent" points="182.5,-213.5 182.5,-244.5 425.5,-244.5 425.5,-213.5 182.5,-213.5"/>
<text text-anchor="start" x="186.5" y="-231.1" font-family="Arial" font-weight="bold" font-size="13.00">authorization_policy.project.approve</text>
<text text-anchor="start" x="186.5" y="-220.1" font-family="Arial" font-size="8.00" fill="#64748b">authorization gate</text>
<text text-anchor="start" x="186.5" y="-202.5" font-family="Arial" font-style="italic" font-size="10.00" fill="#3f3f46">Reviewers can approve submitted dispatch projects.</text>
<text text-anchor="start" x="187.5" y="-182.5" font-family="Arial" font-weight="bold" font-size="10.00">effect:</text>
<text text-anchor="start" x="215.5" y="-182.5" font-family="Arial" font-size="10.00">  allow</text>
<text text-anchor="start" x="187.5" y="-170.5" font-family="Arial" font-weight="bold" font-size="10.00">subjects:</text>
<text text-anchor="start" x="230.5" y="-170.5" font-family="Arial" font-size="10.00">  actor ← input.approved_by</text>
<text text-anchor="start" x="187.5" y="-158.5" font-family="Arial" font-weight="bold" font-size="10.00">conditions:</text>
<text text-anchor="start" x="240.5" y="-158.5" font-family="Arial" font-size="10.00">  Project.status = submitted</text>
<polygon fill="none" stroke="#c2410c" points="181,-149 181,-254 426,-254 426,-149 181,-149"/>
</g>
<!-- operation_input_operation_project_approve&#45;&gt;operation_policy_authorization_policy_project_approve -->
<g id="edge1" class="edge">
<title>operation_input_operation_project_approve&#45;&gt;operation_policy_authorization_policy_project_approve</title>
<path fill="none" stroke="#3f3f46" stroke-width="1.2" d="M79.16,-201.5C104.26,-201.5 138.57,-201.5 172.77,-201.5"/>
<polygon fill="#3f3f46" stroke="#3f3f46" stroke-width="1.2" points="172.98,-204.3 180.98,-201.5 172.98,-198.7 172.98,-204.3"/>
<text text-anchor="middle" x="130" y="-204.5" font-family="Arial" font-size="10.00">authorize</text>
</g>
<!-- operation_resource_operation_project_approve_transition_Project_status -->
<g id="node3" class="node">
<title>operation_resource_operation_project_approve_transition_Project_status</title>
<polygon fill="#ffffff" stroke="transparent" points="528,-166 528,-237 841,-237 841,-166 528,-166"/>
<polygon fill="#15803d" stroke="transparent" points="529.5,-227.5 529.5,-235.5 840.5,-235.5 840.5,-227.5 529.5,-227.5"/>
<polygon fill="#f0fdfa" stroke="transparent" points="529.5,-196.5 529.5,-227.5 840.5,-227.5 840.5,-196.5 529.5,-196.5"/>
<text text-anchor="start" x="533.5" y="-214.1" font-family="Arial" font-weight="bold" font-size="13.00">Project</text>
<text text-anchor="start" x="533.5" y="-203.1" font-family="Arial" font-size="8.00" fill="#64748b">model resource</text>
<text text-anchor="start" x="533.5" y="-185.5" font-family="Arial" font-weight="bold" font-size="10.00">change</text>
<text text-anchor="start" x="533.5" y="-174.5" font-family="Arial" font-size="10.00">Project.status</text>
<text text-anchor="start" x="594.5" y="-174.5" font-family="Arial" font-size="8.00" fill="#94a3b8">  enum&lt;draft|submitted|approved|archived&gt;</text>
<text text-anchor="start" x="750.5" y="-174.5" font-family="Arial" font-size="8.00">  submitted → approved</text>
<polygon fill="none" stroke="#15803d" points="528,-166 528,-237 841,-237 841,-166 528,-166"/>
</g>
<!-- operation_policy_authorization_policy_project_approve&#45;&gt;operation_resource_operation_project_approve_transition_Project_status -->
<g id="edge2" class="edge">
<title>operation_policy_authorization_policy_project_approve&#45;&gt;operation_resource_operation_project_approve_transition_Project_status</title>
<path fill="none" stroke="#3f3f46" d="M426.24,-201.5C455.95,-201.5 488.21,-201.5 519.53,-201.5"/>
<polygon fill="#3f3f46" stroke="#3f3f46" points="519.9,-204.3 527.9,-201.5 519.9,-198.7 519.9,-204.3"/>
<text text-anchor="middle" x="477" y="-204.5" font-family="Arial" font-size="10.00">transition</text>
</g>
<!-- operation_outcome_operation_project_approve_approved -->
<g id="node4" class="node">
<title>operation_outcome_operation_project_approve_approved</title>
<polygon fill="#ffffff" stroke="transparent" points="950.5,-375 950.5,-446 1021.5,-446 1021.5,-375 950.5,-375"/>
<polygon fill="#16a34a" stroke="transparent" points="952,-436.5 952,-444.5 1021,-444.5 1021,-436.5 952,-436.5"/>
<polygon fill="#f0fdf4" stroke="transparent" points="952,-405.5 952,-436.5 1021,-436.5 1021,-405.5 952,-405.5"/>
<text text-anchor="start" x="956" y="-423.1" font-family="Arial" font-weight="bold" font-size="13.00">approved</text>
<text text-anchor="start" x="956" y="-412.1" font-family="Arial" font-size="8.00" fill="#64748b">success outcome</text>
<text text-anchor="start" x="956" y="-394.5" font-family="Arial" font-weight="bold" font-size="10.00">result</text>
<text text-anchor="start" x="956" y="-383.5" font-family="Arial" font-size="10.00">result</text>
<text text-anchor="start" x="981" y="-383.5" font-family="Arial" font-size="8.00" fill="#94a3b8">  Project</text>
<polygon fill="none" stroke="#16a34a" points="950.5,-375 950.5,-446 1021.5,-446 1021.5,-375 950.5,-375"/>
</g>
<!-- operation_resource_operation_project_approve_transition_Project_status&#45;&gt;operation_outcome_operation_project_approve_approved -->
<g id="edge3" class="edge">
<title>operation_resource_operation_project_approve_transition_Project_status&#45;&gt;operation_outcome_operation_project_approve_approved</title>
<path fill="none" stroke="#3f3f46" d="M736.65,-237.19C795.13,-278 889.72,-344.01 943.72,-381.69"/>
<polygon fill="#3f3f46" stroke="#3f3f46" points="942.26,-384.09 950.42,-386.37 945.46,-379.49 942.26,-384.09"/>
<text text-anchor="middle" x="890.5" y="-356.5" font-family="Arial" font-size="10.00">success</text>
</g>
<!-- operation_outcome_operation_project_approve_invalid_state -->
<g id="node5" class="node">
<title>operation_outcome_operation_project_approve_invalid_state</title>
<polygon fill="#ffffff" stroke="transparent" points="940,-250 940,-321 1032,-321 1032,-250 940,-250"/>
<polygon fill="#dc2626" stroke="transparent" points="941,-311.5 941,-319.5 1031,-319.5 1031,-311.5 941,-311.5"/>
<polygon fill="#fef2f2" stroke="transparent" points="941,-280.5 941,-311.5 1031,-311.5 1031,-280.5 941,-280.5"/>
<text text-anchor="start" x="945" y="-298.1" font-family="Arial" font-weight="bold" font-size="13.00">invalid_state</text>
<text text-anchor="start" x="945" y="-287.1" font-family="Arial" font-size="8.00" fill="#64748b">failure outcome</text>
<text text-anchor="start" x="945" y="-269.5" font-family="Arial" font-weight="bold" font-size="10.00">result</text>
<text text-anchor="start" x="945" y="-258.5" font-family="Arial" font-size="10.00">result</text>
<text text-anchor="start" x="970" y="-258.5" font-family="Arial" font-size="8.00" fill="#94a3b8">  Problem</text>
<polygon fill="none" stroke="#dc2626" points="940,-250 940,-321 1032,-321 1032,-250 940,-250"/>
</g>
<!-- operation_resource_operation_project_approve_transition_Project_status&#45;&gt;operation_outcome_operation_project_approve_invalid_state -->
<g id="edge5" class="edge">
<title>operation_resource_operation_project_approve_transition_Project_status&#45;&gt;operation_outcome_operation_project_approve_invalid_state</title>
<path fill="none" stroke="#3f3f46" d="M812.08,-237C854.06,-248.77 898.52,-261.25 931.85,-270.59"/>
<polygon fill="#3f3f46" stroke="#3f3f46" points="931.18,-273.31 939.64,-272.78 932.7,-267.92 931.18,-273.31"/>
<text text-anchor="middle" x="890.5" y="-265.5" font-family="Arial" font-size="10.00">failure</text>
</g>
<!-- operation_outcome_operation_project_approve_not_found -->
<g id="node6" class="node">
<title>operation_outcome_operation_project_approve_not_found</title>
<polygon fill="#ffffff" stroke="transparent" points="947.5,-125 947.5,-196 1024.5,-196 1024.5,-125 947.5,-125"/>
<polygon fill="#dc2626" stroke="transparent" points="949,-186.5 949,-194.5 1024,-194.5 1024,-186.5 949,-186.5"/>
<polygon fill="#fef2f2" stroke="transparent" points="949,-155.5 949,-186.5 1024,-186.5 1024,-155.5 949,-155.5"/>
<text text-anchor="start" x="953" y="-173.1" font-family="Arial" font-weight="bold" font-size="13.00">not_found</text>
<text text-anchor="start" x="953" y="-162.1" font-family="Arial" font-size="8.00" fill="#64748b">failure outcome</text>
<text text-anchor="start" x="953" y="-144.5" font-family="Arial" font-weight="bold" font-size="10.00">result</text>
<text text-anchor="start" x="953" y="-133.5" font-family="Arial" font-size="10.00">result</text>
<text text-anchor="start" x="978" y="-133.5" font-family="Arial" font-size="8.00" fill="#94a3b8">  Problem</text>
<polygon fill="none" stroke="#dc2626" points="947.5,-125 947.5,-196 1024.5,-196 1024.5,-125 947.5,-125"/>
</g>
<!-- operation_resource_operation_project_approve_transition_Project_status&#45;&gt;operation_outcome_operation_project_approve_not_found -->
<g id="edge6" class="edge">
<title>operation_resource_operation_project_approve_transition_Project_status&#45;&gt;operation_outcome_operation_project_approve_not_found</title>
<path fill="none" stroke="#3f3f46" d="M841.39,-180.16C877.33,-175.24 912.79,-170.38 939.49,-166.73"/>
<polygon fill="#3f3f46" stroke="#3f3f46" points="939.94,-169.5 947.48,-165.64 939.18,-163.95 939.94,-169.5"/>
<text text-anchor="middle" x="890.5" y="-177.5" font-family="Arial" font-size="10.00">failure</text>
</g>
<!-- operation_outcome_operation_project_approve_unavailable -->
<g id="node7" class="node">
<title>operation_outcome_operation_project_approve_unavailable</title>
<polygon fill="#ffffff" stroke="transparent" points="944,0 944,-71 1028,-71 1028,0 944,0"/>
<polygon fill="#dc2626" stroke="transparent" points="945,-61.5 945,-69.5 1027,-69.5 1027,-61.5 945,-61.5"/>
<polygon fill="#fef2f2" stroke="transparent" points="945,-30.5 945,-61.5 1027,-61.5 1027,-30.5 945,-30.5"/>
<text text-anchor="start" x="949" y="-48.1" font-family="Arial" font-weight="bold" font-size="13.00">unavailable</text>
<text text-anchor="start" x="949" y="-37.1" font-family="Arial" font-size="8.00" fill="#64748b">failure outcome</text>
<text text-anchor="start" x="949" y="-19.5" font-family="Arial" font-weight="bold" font-size="10.00">result</text>
<text text-anchor="start" x="949" y="-8.5" font-family="Arial" font-size="10.00">result</text>
<text text-anchor="start" x="974" y="-8.5" font-family="Arial" font-size="8.00" fill="#94a3b8">  Problem</text>
<polygon fill="none" stroke="#dc2626" points="944,0 944,-71 1028,-71 1028,0 944,0"/>
</g>
<!-- operation_resource_operation_project_approve_transition_Project_status&#45;&gt;operation_outcome_operation_project_approve_unavailable -->
<g id="edge7" class="edge">
<title>operation_resource_operation_project_approve_transition_Project_status&#45;&gt;operation_outcome_operation_project_approve_unavailable</title>
<path fill="none" stroke="#3f3f46" d="M749.75,-165.89C805.78,-134.84 885.82,-90.47 936.59,-62.33"/>
<polygon fill="#3f3f46" stroke="#3f3f46" points="938.22,-64.63 943.86,-58.3 935.5,-59.73 938.22,-64.63"/>
<text text-anchor="middle" x="890.5" y="-96.5" font-family="Arial" font-size="10.00">failure</text>
</g>
<!-- operation_outcome_operation_project_approve_approved&#45;&gt;operation_outcome_operation_project_approve_invalid_state -->
<!-- operation_event_operation_project_approve_event_project_approved -->
<g id="node8" class="node">
<title>operation_event_operation_project_approve_event_project_approved</title>
<polygon fill="#ffffff" stroke="transparent" points="1113,-360 1113,-461 1326,-461 1326,-360 1113,-360"/>
<polygon fill="#4f46e5" stroke="transparent" points="1114.5,-451.5 1114.5,-459.5 1325.5,-459.5 1325.5,-451.5 1114.5,-451.5"/>
<polygon fill="#eef2ff" stroke="transparent" points="1114.5,-420.5 1114.5,-451.5 1325.5,-451.5 1325.5,-420.5 1114.5,-420.5"/>
<text text-anchor="start" x="1118.5" y="-438.1" font-family="Arial" font-weight="bold" font-size="13.00">event.project.approved</text>
<text text-anchor="start" x="1118.5" y="-427.1" font-family="Arial" font-size="8.00" fill="#64748b">emitted event</text>
<text text-anchor="start" x="1118.5" y="-409.5" font-family="Arial" font-style="italic" font-size="10.00" fill="#3f3f46">Approval events carry the reviewer and project</text>
<text text-anchor="start" x="1118.5" y="-398.5" font-family="Arial" font-style="italic" font-size="10.00" fill="#3f3f46">identity needed by notification workflows.</text>
<text text-anchor="start" x="1118.5" y="-379.5" font-family="Arial" font-weight="bold" font-size="10.00">payload</text>
<text text-anchor="start" x="1118.5" y="-368.5" font-family="Arial" font-size="10.00">payload</text>
<text text-anchor="start" x="1152.5" y="-368.5" font-family="Arial" font-size="8.00" fill="#94a3b8">  data_contract.project.approved</text>
<polygon fill="none" stroke="#4f46e5" points="1113,-360 1113,-461 1326,-461 1326,-360 1113,-360"/>
</g>
<!-- operation_outcome_operation_project_approve_approved&#45;&gt;operation_event_operation_project_approve_event_project_approved -->
<g id="edge4" class="edge">
<title>operation_outcome_operation_project_approve_approved&#45;&gt;operation_event_operation_project_approve_event_project_approved</title>
<path fill="none" stroke="#3f3f46" stroke-width="1.2" d="M1021.66,-410.5C1044,-410.5 1074.46,-410.5 1104.73,-410.5"/>
<polygon fill="#3f3f46" stroke="#3f3f46" stroke-width="1.2" points="1104.83,-413.3 1112.83,-410.5 1104.83,-407.7 1104.83,-413.3"/>
<text text-anchor="middle" x="1072.5" y="-413.5" font-family="Arial" font-size="10.00">emit</text>
</g>
<!-- operation_outcome_operation_project_approve_invalid_state&#45;&gt;operation_outcome_operation_project_approve_not_found -->
<!-- operation_outcome_operation_project_approve_not_found&#45;&gt;operation_outcome_operation_project_approve_unavailable -->
</g>
</svg>
