<svg width="1385pt" height="747pt"
 viewBox="0.00 0.00 1385.00 747.00" xmlns="http://www.w3.org/2000/svg" xmlns:xlink="http://www.w3.org/1999/xlink">
<!-- pyspec-contract-input-sha256: 2d380faff45f76bc09acad043cf02cbdf0f580d6341a281f1edfb96971fd9eac -->
<g id="graph0" class="graph" transform="scale(1 1) rotate(0) translate(18 729)">
<title>operation_operation_project_approve</title>
<!-- operation_input_operation_project_approve -->
<g id="node1" class="node">
<title>operation_input_operation_project_approve</title>
<polygon fill="#ffffff" stroke="transparent" points="0,-298.5 0,-380.5 79,-380.5 79,-298.5 0,-298.5"/>
<polygon fill="#64748b" stroke="transparent" points="1.5,-371.5 1.5,-379.5 78.5,-379.5 78.5,-371.5 1.5,-371.5"/>
<polygon fill="#f8fafc" stroke="transparent" points="1.5,-340.5 1.5,-371.5 78.5,-371.5 78.5,-340.5 1.5,-340.5"/>
<text text-anchor="start" x="5.5" y="-358.1" font-family="Arial" font-weight="bold" font-size="13.00">input</text>
<text text-anchor="start" x="5.5" y="-347.1" font-family="Arial" font-size="8.00" fill="#64748b">operation input</text>
<text text-anchor="start" x="5.5" y="-329.5" font-family="Arial" font-weight="bold" font-size="10.00">fields</text>
<text text-anchor="start" x="5.5" y="-318.5" font-family="Arial" font-size="10.00">approved_by</text>
<text text-anchor="start" x="61.5" y="-318.5" font-family="Arial" font-size="8.00" fill="#94a3b8">  ID</text>
<text text-anchor="start" x="5.5" y="-307.5" font-family="Arial" font-size="10.00">project_id</text>
<text text-anchor="start" x="48.5" y="-307.5" font-family="Arial" font-size="8.00" fill="#94a3b8">  ID</text>
<polygon fill="none" stroke="#64748b" points="0,-298.5 0,-380.5 79,-380.5 79,-298.5 0,-298.5"/>
</g>
<!-- operation_policy_authorization_policy_project_approve -->
<g id="node2" class="node">
<title>operation_policy_authorization_policy_project_approve</title>
<polygon fill="#ffffff" stroke="transparent" points="181,-287 181,-392 426,-392 426,-287 181,-287"/>
<polygon fill="#c2410c" stroke="transparent" points="182.5,-382.5 182.5,-390.5 425.5,-390.5 425.5,-382.5 182.5,-382.5"/>
<polygon fill="#fff7ed" stroke="transparent" points="182.5,-351.5 182.5,-382.5 425.5,-382.5 425.5,-351.5 182.5,-351.5"/>
<text text-anchor="start" x="186.5" y="-369.1" font-family="Arial" font-weight="bold" font-size="13.00">authorization_policy.project.approve</text>
<text text-anchor="start" x="186.5" y="-358.1" font-family="Arial" font-size="8.00" fill="#64748b">authorization gate</text>
<text text-anchor="start" x="186.5" y="-340.5" font-family="Arial" font-style="italic" font-size="10.00" fill="#3f3f46">Reviewers may approve submitted dispatch projects.</text>
<text text-anchor="start" x="187.5" y="-320.5" font-family="Arial" font-weight="bold" font-size="10.00">effect:</text>
<text text-anchor="start" x="215.5" y="-320.5" font-family="Arial" font-size="10.00">  allow</text>
<text text-anchor="start" x="187.5" y="-308.5" font-family="Arial" font-weight="bold" font-size="10.00">subjects:</text>
<text text-anchor="start" x="230.5" y="-308.5" font-family="Arial" font-size="10.00">  actor ← input.approved_by</text>
<text text-anchor="start" x="187.5" y="-296.5" font-family="Arial" font-weight="bold" font-size="10.00">conditions:</text>
<text text-anchor="start" x="240.5" y="-296.5" font-family="Arial" font-size="10.00">  subject_has_role reviewer</text>
<polygon fill="none" stroke="#c2410c" points="181,-287 181,-392 426,-392 426,-287 181,-287"/>
</g>
<!-- operation_input_operation_project_approve&#45;&gt;operation_policy_authorization_policy_project_approve -->
<g id="edge1" class="edge">
<title>operation_input_operation_project_approve&#45;&gt;operation_policy_authorization_policy_project_approve</title>
<path fill="none" stroke="#3f3f46" stroke-width="1.2" d="M79.16,-339.5C104.26,-339.5 138.57,-339.5 172.77,-339.5"/>
<polygon fill="#3f3f46" stroke="#3f3f46" stroke-width="1.2" points="172.98,-342.3 180.98,-339.5 172.98,-336.7 172.98,-342.3"/>
<text text-anchor="middle" x="130" y="-342.5" font-family="Arial" font-size="10.00">authorize</text>
</g>
<!-- operation_resource_operation_project_approve_transition_Project_status -->
<g id="node3" class="node">
<title>operation_resource_operation_project_approve_transition_Project_status</title>
<polygon fill="#ffffff" stroke="transparent" points="528,-304 528,-375 841,-375 841,-304 528,-304"/>
<polygon fill="#15803d" stroke="transparent" points="529.5,-365.5 529.5,-373.5 840.5,-373.5 840.5,-365.5 529.5,-365.5"/>
<polygon fill="#f0fdfa" stroke="transparent" points="529.5,-334.5 529.5,-365.5 840.5,-365.5 840.5,-334.5 529.5,-334.5"/>
<text text-anchor="start" x="533.5" y="-352.1" font-family="Arial" font-weight="bold" font-size="13.00">Project</text>
<text text-anchor="start" x="533.5" y="-341.1" font-family="Arial" font-size="8.00" fill="#64748b">model resource</text>
<text text-anchor="start" x="533.5" y="-323.5" font-family="Arial" font-weight="bold" font-size="10.00">change</text>
<text text-anchor="start" x="533.5" y="-312.5" font-family="Arial" font-size="10.00">Project.status</text>
<text text-anchor="start" x="594.5" y="-312.5" font-family="Arial" font-size="8.00" fill="#94a3b8">  enum&lt;draft|submitted|approved|archived&gt;</text>
<text text-anchor="start" x="750.5" y="-312.5" font-family="Arial" font-size="8.00">  submitted → approved</text>
<polygon fill="none" stroke="#15803d" points="528,-304 528,-375 841,-375 841,-304 528,-304"/>
</g>
<!-- operation_policy_authorization_policy_project_approve&#45;&gt;operation_resource_operation_project_approve_transition_Project_status -->
<g id="edge2" class="edge">
<title>operation_policy_authorization_policy_project_approve&#45;&gt;operation_resource_operation_project_approve_transition_Project_status</title>
<path fill="none" stroke="#3f3f46" d="M426.24,-339.5C455.95,-339.5 488.21,-339.5 519.53,-339.5"/>
<polygon fill="#3f3f46" stroke="#3f3f46" points="519.9,-342.3 527.9,-339.5 519.9,-336.7 519.9,-342.3"/>
<text text-anchor="middle" x="477" y="-342.5" font-family="Arial" font-size="10.00">transition</text>
</g>
<!-- operation_outcome_operation_project_approve_forbidden -->
<g id="node5" class="node">
<title>operation_outcome_operation_project_approve_forbidden</title>
<polygon fill="#ffffff" stroke="transparent" points="961,-500 961,-571 1034,-571 1034,-500 961,-500"/>
<polygon fill="#dc2626" stroke="transparent" points="962.5,-561.5 962.5,-569.5 1033.5,-569.5 1033.5,-561.5 962.5,-561.5"/>
<polygon fill="#fef2f2" stroke="transparent" points="962.5,-530.5 962.5,-561.5 1033.5,-561.5 1033.5,-530.5 962.5,-530.5"/>
<text text-anchor="start" x="966.5" y="-548.1" font-family="Arial" font-weight="bold" font-size="13.00">forbidden</text>
<text text-anchor="start" x="966.5" y="-537.1" font-family="Arial" font-size="8.00" fill="#64748b">failure outcome</text>
<text text-anchor="start" x="966.5" y="-519.5" font-family="Arial" font-weight="bold" font-size="10.00">result</text>
<text text-anchor="start" x="966.5" y="-508.5" font-family="Arial" font-size="10.00">result</text>
<text text-anchor="start" x="991.5" y="-508.5" font-family="Arial" font-size="8.00" fill="#94a3b8">  Problem</text>
<polygon fill="none" stroke="#dc2626" points="961,-500 961,-571 1034,-571 1034,-500 961,-500"/>
</g>
<!-- operation_policy_authorization_policy_project_approve&#45;&gt;operation_outcome_operation_project_approve_forbidden -->
<g id="edge5" class="edge">
<title>operation_policy_authorization_policy_project_approve&#45;&gt;operation_outcome_operation_project_approve_forbidden</title>
<path fill="none" stroke="#3f3f46" d="M426.07,-376.9C540.66,-411.72 717.39,-464.29 872,-505.5 898.83,-512.65 929.11,-519.97 953.09,-525.58"/>
<polygon fill="#3f3f46" stroke="#3f3f46" points="952.54,-528.33 960.97,-527.42 953.81,-522.87 952.54,-528.33"/>
<text text-anchor="middle" x="684.5" y="-498.5" font-family="Arial" font-size="10.00">forbidden_as</text>
</g>
<!-- operation_outcome_operation_project_approve_unauthenticated -->
<g id="node8" class="node">
<title>operation_outcome_operation_project_approve_unauthenticated</title>
<polygon fill="#ffffff" stroke="transparent" points="940,-125 940,-196 1055,-196 1055,-125 940,-125"/>
<polygon fill="#dc2626" stroke="transparent" points="941.5,-186.5 941.5,-194.5 1054.5,-194.5 1054.5,-186.5 941.5,-186.5"/>
<polygon fill="#fef2f2" stroke="transparent" points="941.5,-155.5 941.5,-186.5 1054.5,-186.5 1054.5,-155.5 941.5,-155.5"/>
<text text-anchor="start" x="945.5" y="-173.1" font-family="Arial" font-weight="bold" font-size="13.00">unauthenticated</text>
<text text-anchor="start" x="945.5" y="-162.1" font-family="Arial" font-size="8.00" fill="#64748b">failure outcome</text>
<text text-anchor="start" x="945.5" y="-144.5" font-family="Arial" font-weight="bold" font-size="10.00">result</text>
<text text-anchor="start" x="945.5" y="-133.5" font-family="Arial" font-size="10.00">result</text>
<text text-anchor="start" x="970.5" y="-133.5" font-family="Arial" font-size="8.00" fill="#94a3b8">  Problem</text>
<polygon fill="none" stroke="#dc2626" points="940,-125 940,-196 1055,-196 1055,-125 940,-125"/>
</g>
<!-- operation_policy_authorization_policy_project_approve&#45;&gt;operation_outcome_operation_project_approve_unauthenticated -->
<g id="edge8" class="edge">
<title>operation_policy_authorization_policy_project_approve&#45;&gt;operation_outcome_operation_project_approve_unauthenticated</title>
<path fill="none" stroke="#3f3f46" d="M426.22,-306.5C459.22,-297.64 494.96,-288.13 528,-279.5 672.04,-241.88 841.42,-199.25 931.86,-176.63"/>
<polygon fill="#3f3f46" stroke="#3f3f46" points="932.74,-179.29 939.82,-174.63 931.38,-173.86 932.74,-179.29"/>
<text text-anchor="middle" x="684.5" y="-282.5" font-family="Arial" font-size="10.00">unauthenticated_as</text>
</g>
<!-- operation_outcome_operation_project_approve_approved -->
<g id="node4" class="node">
<title>operation_outcome_operation_project_approve_approved</title>
<polygon fill="#ffffff" stroke="transparent" points="962,-625 962,-696 1033,-696 1033,-625 962,-625"/>
<polygon fill="#16a34a" stroke="transparent" points="963.5,-686.5 963.5,-694.5 1032.5,-694.5 1032.5,-686.5 963.5,-686.5"/>
<polygon fill="#f0fdf4" stroke="transparent" points="963.5,-655.5 963.5,-686.5 1032.5,-686.5 1032.5,-655.5 963.5,-655.5"/>
<text text-anchor="start" x="967.5" y="-673.1" font-family="Arial" font-weight="bold" font-size="13.00">approved</text>
<text text-anchor="start" x="967.5" y="-662.1" font-family="Arial" font-size="8.00" fill="#64748b">success outcome</text>
<text text-anchor="start" x="967.5" y="-644.5" font-family="Arial" font-weight="bold" font-size="10.00">result</text>
<text text-anchor="start" x="967.5" y="-633.5" font-family="Arial" font-size="10.00">result</text>
<text text-anchor="start" x="992.5" y="-633.5" font-family="Arial" font-size="8.00" fill="#94a3b8">  Project</text>
<polygon fill="none" stroke="#16a34a" points="962,-625 962,-696 1033,-696 1033,-625 962,-625"/>
</g>
<!-- operation_resource_operation_project_approve_transition_Project_status&#45;&gt;operation_outcome_operation_project_approve_approved -->
<g id="edge3" class="edge">
<title>operation_resource_operation_project_approve_transition_Project_status&#45;&gt;operation_outcome_operation_project_approve_approved</title>
<path fill="none" stroke="#3f3f46" d="M723.5,-375.2C755.37,-405.41 801.82,-450.13 841,-490.5 882.44,-533.19 928.22,-583.66 959.31,-618.46"/>
<polygon fill="#3f3f46" stroke="#3f3f46" points="957.52,-620.67 964.93,-624.77 961.7,-616.94 957.52,-620.67"/>
<text text-anchor="middle" x="890.5" y="-562.5" font-family="Arial" font-size="10.00">success</text>
</g>
<!-- operation_outcome_operation_project_approve_invalid_state -->
<g id="node6" class="node">
<title>operation_outcome_operation_project_approve_invalid_state</title>
<polygon fill="#ffffff" stroke="transparent" points="951.5,-375 951.5,-446 1043.5,-446 1043.5,-375 951.5,-375"/>
<polygon fill="#dc2626" stroke="transparent" points="952.5,-436.5 952.5,-444.5 1042.5,-444.5 1042.5,-436.5 952.5,-436.5"/>
<polygon fill="#fef2f2" stroke="transparent" points="952.5,-405.5 952.5,-436.5 1042.5,-436.5 1042.5,-405.5 952.5,-405.5"/>
<text text-anchor="start" x="956.5" y="-423.1" font-family="Arial" font-weight="bold" font-size="13.00">invalid_state</text>
<text text-anchor="start" x="956.5" y="-412.1" font-family="Arial" font-size="8.00" fill="#64748b">failure outcome</text>
<text text-anchor="start" x="956.5" y="-394.5" font-family="Arial" font-weight="bold" font-size="10.00">result</text>
<text text-anchor="start" x="956.5" y="-383.5" font-family="Arial" font-size="10.00">result</text>
<text text-anchor="start" x="981.5" y="-383.5" font-family="Arial" font-size="8.00" fill="#94a3b8">  Problem</text>
<polygon fill="none" stroke="#dc2626" points="951.5,-375 951.5,-446 1043.5,-446 1043.5,-375 951.5,-375"/>
</g>
<!-- operation_resource_operation_project_approve_transition_Project_status&#45;&gt;operation_outcome_operation_project_approve_invalid_state -->
<g id="edge6" class="edge">
<title>operation_resource_operation_project_approve_transition_Project_status&#45;&gt;operation_outcome_operation_project_approve_invalid_state</title>
<path fill="none" stroke="#3f3f46" d="M841.46,-375.1C878.31,-383.52 915.12,-391.92 943.63,-398.43"/>
<polygon fill="#3f3f46" stroke="#3f3f46" points="943.02,-401.16 951.44,-400.21 944.26,-395.7 943.02,-401.16"/>
<text text-anchor="middle" x="890.5" y="-392.5" font-family="Arial" font-size="10.00">failure</text>
</g>
<!-- operation_outcome_operation_project_approve_not_found -->
<g id="node7" class="node">
<title>operation_outcome_operation_project_approve_not_found</title>
<polygon fill="#ffffff" stroke="transparent" points="959,-250 959,-321 1036,-321 1036,-250 959,-250"/>
<polygon fill="#dc2626" stroke="transparent" points="960.5,-311.5 960.5,-319.5 1035.5,-319.5 1035.5,-311.5 960.5,-311.5"/>
<polygon fill="#fef2f2" stroke="transparent" points="960.5,-280.5 960.5,-311.5 1035.5,-311.5 1035.5,-280.5 960.5,-280.5"/>
<text text-anchor="start" x="964.5" y="-298.1" font-family="Arial" font-weight="bold" font-size="13.00">not_found</text>
<text text-anchor="start" x="964.5" y="-287.1" font-family="Arial" font-size="8.00" fill="#64748b">failure outcome</text>
<text text-anchor="start" x="964.5" y="-269.5" font-family="Arial" font-weight="bold" font-size="10.00">result</text>
<text text-anchor="start" x="964.5" y="-258.5" font-family="Arial" font-size="10.00">result</text>
<text text-anchor="start" x="989.5" y="-258.5" font-family="Arial" font-size="8.00" fill="#94a3b8">  Problem</text>
<polygon fill="none" stroke="#dc2626" points="959,-250 959,-321 1036,-321 1036,-250 959,-250"/>
</g>
<!-- operation_resource_operation_project_approve_transition_Project_status&#45;&gt;operation_outcome_operation_project_approve_not_found -->
<g id="edge7" class="edge">
<title>operation_resource_operation_project_approve_transition_Project_status&#45;&gt;operation_outcome_operation_project_approve_not_found</title>
<path fill="none" stroke="#3f3f46" d="M841.46,-312.42C881.49,-305.47 921.49,-298.52 950.83,-293.43"/>
<polygon fill="#3f3f46" stroke="#3f3f46" points="951.41,-296.17 958.81,-292.04 950.45,-290.65 951.41,-296.17"/>
<text text-anchor="middle" x="890.5" y="-308.5" font-family="Arial" font-size="10.00">failure</text>
</g>
<!-- operation_outcome_operation_project_approve_unavailable -->
<g id="node9" class="node">
<title>operation_outcome_operation_project_approve_unavailable</title>
<polygon fill="#ffffff" stroke="transparent" points="955.5,0 955.5,-71 1039.5,-71 1039.5,0 955.5,0"/>
<polygon fill="#dc2626" stroke="transparent" points="956.5,-61.5 956.5,-69.5 1038.5,-69.5 1038.5,-61.5 956.5,-61.5"/>
<polygon fill="#fef2f2" stroke="transparent" points="956.5,-30.5 956.5,-61.5 1038.5,-61.5 1038.5,-30.5 956.5,-30.5"/>
<text text-anchor="start" x="960.5" y="-48.1" font-family="Arial" font-weight="bold" font-size="13.00">unavailable</text>
<text text-anchor="start" x="960.5" y="-37.1" font-family="Arial" font-size="8.00" fill="#64748b">failure outcome</text>
<text text-anchor="start" x="960.5" y="-19.5" font-family="Arial" font-weight="bold" font-size="10.00">result</text>
<text text-anchor="start" x="960.5" y="-8.5" font-family="Arial" font-size="10.00">result</text>
<text text-anchor="start" x="985.5" y="-8.5" font-family="Arial" font-size="8.00" fill="#94a3b8">  Problem</text>
<polygon fill="none" stroke="#dc2626" points="955.5,0 955.5,-71 1039.5,-71 1039.5,0 955.5,0"/>
</g>
<!-- operation_resource_operation_project_approve_transition_Project_status&#45;&gt;operation_outcome_operation_project_approve_unavailable -->
<g id="edge9" class="edge">
<title>operation_resource_operation_project_approve_transition_Project_status&#45;&gt;operation_outcome_operation_project_approve_unavailable</title>
<path fill="none" stroke="#3f3f46" d="M726.51,-303.77C758.3,-275.72 803.17,-235.39 841,-198.5 882.13,-158.4 927.24,-110.67 958.23,-77.25"/>
<polygon fill="#3f3f46" stroke="#3f3f46" points="960.47,-78.96 963.85,-71.19 956.36,-75.15 960.47,-78.96"/>
<text text-anchor="middle" x="890.5" y="-166.5" font-family="Arial" font-size="10.00">failure</text>
</g>
<!-- operation_outcome_operation_project_approve_approved&#45;&gt;operation_outcome_operation_project_approve_forbidden -->
<!-- operation_event_operation_project_approve_event_project_approved -->
<g id="node10" class="node">
<title>operation_event_operation_project_approve_event_project_approved</title>
<polygon fill="#ffffff" stroke="transparent" points="1136,-610 1136,-711 1349,-711 1349,-610 1136,-610"/>
<polygon fill="#4f46e5" stroke="transparent" points="1137.5,-701.5 1137.5,-709.5 1348.5,-709.5 1348.5,-701.5 1137.5,-701.5"/>
<polygon fill="#eef2ff" stroke="transparent" points="1137.5,-670.5 1137.5,-701.5 1348.5,-701.5 1348.5,-670.5 1137.5,-670.5"/>
<text text-anchor="start" x="1141.5" y="-688.1" font-family="Arial" font-weight="bold" font-size="13.00">event.project.approved</text>
<text text-anchor="start" x="1141.5" y="-677.1" font-family="Arial" font-size="8.00" fill="#64748b">emitted event</text>
<text text-anchor="start" x="1141.5" y="-659.5" font-family="Arial" font-style="italic" font-size="10.00" fill="#3f3f46">Approval events carry the reviewer and project</text>
<text text-anchor="start" x="1141.5" y="-648.5" font-family="Arial" font-style="italic" font-size="10.00" fill="#3f3f46">identity needed by notification workflows.</text>
<text text-anchor="start" x="1141.5" y="-629.5" font-family="Arial" font-weight="bold" font-size="10.00">payload</text>
<text text-anchor="start" x="1141.5" y="-618.5" font-family="Arial" font-size="10.00">payload</text>
<text text-anchor="start" x="1175.5" y="-618.5" font-family="Arial" font-size="8.00" fill="#94a3b8">  data_contract.project.approved</text>
<polygon fill="none" stroke="#4f46e5" points="1136,-610 1136,-711 1349,-711 1349,-610 1136,-610"/>
</g>
<!-- operation_outcome_operation_project_approve_approved&#45;&gt;operation_event_operation_project_approve_event_project_approved -->
<g id="edge4" class="edge">
<title>operation_outcome_operation_project_approve_approved&#45;&gt;operation_event_operation_project_approve_event_project_approved</title>
<path fill="none" stroke="#3f3f46" stroke-width="1.2" d="M1033.06,-660.5C1057.99,-660.5 1093.17,-660.5 1127.54,-660.5"/>
<polygon fill="#3f3f46" stroke="#3f3f46" stroke-width="1.2" points="1127.79,-663.3 1135.79,-660.5 1127.79,-657.7 1127.79,-663.3"/>
<text text-anchor="middle" x="1095.5" y="-663.5" font-family="Arial" font-size="10.00">emit</text>
</g>
<!-- operation_outcome_operation_project_approve_forbidden&#45;&gt;operation_outcome_operation_project_approve_invalid_state -->
<!-- operation_outcome_operation_project_approve_invalid_state&#45;&gt;operation_outcome_operation_project_approve_not_found -->
<!-- operation_outcome_operation_project_approve_not_found&#45;&gt;operation_outcome_operation_project_approve_unauthenticated -->
<!-- operation_outcome_operation_project_approve_unauthenticated&#45;&gt;operation_outcome_operation_project_approve_unavailable -->
</g>
</svg>
