<svg width="920pt" height="482pt"
 viewBox="0.00 0.00 920.00 482.00" xmlns="http://www.w3.org/2000/svg" xmlns:xlink="http://www.w3.org/1999/xlink">
<!-- pyspec-contract-input-sha256: 88b49f36e5ca5ad93b353123b846af345bb927e7a2923467bd18be3a27a8b92e -->
<g id="graph0" class="graph" transform="scale(1 1) rotate(0) translate(18 464)">
<title>operation_operation_project_read</title>
<!-- operation_input_operation_project_read -->
<g id="node1" class="node">
<title>operation_input_operation_project_read</title>
<polygon fill="#ffffff" stroke="transparent" points="0,-143 0,-214 66,-214 66,-143 0,-143"/>
<polygon fill="#64748b" stroke="transparent" points="1,-204.5 1,-212.5 65,-212.5 65,-204.5 1,-204.5"/>
<polygon fill="#f8fafc" stroke="transparent" points="1,-173.5 1,-204.5 65,-204.5 65,-173.5 1,-173.5"/>
<text text-anchor="start" x="5" y="-191.1" font-family="Arial" font-weight="bold" font-size="13.00">input</text>
<text text-anchor="start" x="5" y="-180.1" font-family="Arial" font-size="8.00" fill="#64748b">operation input</text>
<text text-anchor="start" x="5" y="-162.5" font-family="Arial" font-weight="bold" font-size="10.00">fields</text>
<text text-anchor="start" x="5" y="-151.5" font-family="Arial" font-size="10.00">project_id</text>
<text text-anchor="start" x="48" y="-151.5" font-family="Arial" font-size="8.00" fill="#94a3b8">  ID</text>
<polygon fill="none" stroke="#64748b" points="0,-143 0,-214 66,-214 66,-143 0,-143"/>
</g>
<!-- operation_policy_authorization_policy_project_read -->
<g id="node2" class="node">
<title>operation_policy_authorization_policy_project_read</title>
<polygon fill="#ffffff" stroke="transparent" points="168,-120.5 168,-236.5 389,-236.5 389,-120.5 168,-120.5"/>
<polygon fill="#c2410c" stroke="transparent" points="169.5,-227.5 169.5,-235.5 388.5,-235.5 388.5,-227.5 169.5,-227.5"/>
<polygon fill="#fff7ed" stroke="transparent" points="169.5,-196.5 169.5,-227.5 388.5,-227.5 388.5,-196.5 169.5,-196.5"/>
<text text-anchor="start" x="173.5" y="-214.1" font-family="Arial" font-weight="bold" font-size="13.00">authorization_policy.project.read</text>
<text text-anchor="start" x="173.5" y="-203.1" font-family="Arial" font-size="8.00" fill="#64748b">authorization gate</text>
<text text-anchor="start" x="173.5" y="-185.5" font-family="Arial" font-style="italic" font-size="10.00" fill="#3f3f46">Workspace members may read dispatch project</text>
<text text-anchor="start" x="173.5" y="-174.5" font-family="Arial" font-style="italic" font-size="10.00" fill="#3f3f46">details.</text>
<text text-anchor="start" x="174.5" y="-154.5" font-family="Arial" font-weight="bold" font-size="10.00">effect:</text>
<text text-anchor="start" x="202.5" y="-154.5" font-family="Arial" font-size="10.00">  allow</text>
<text text-anchor="start" x="174.5" y="-142.5" font-family="Arial" font-weight="bold" font-size="10.00">subjects:</text>
<text text-anchor="start" x="217.5" y="-142.5" font-family="Arial" font-size="10.00">  actor</text>
<text text-anchor="start" x="174.5" y="-130.5" font-family="Arial" font-weight="bold" font-size="10.00">conditions:</text>
<text text-anchor="start" x="227.5" y="-130.5" font-family="Arial" font-size="10.00">  subject_has_role member</text>
<polygon fill="none" stroke="#c2410c" points="168,-120.5 168,-236.5 389,-236.5 389,-120.5 168,-120.5"/>
</g>
<!-- operation_input_operation_project_read&#45;&gt;operation_policy_authorization_policy_project_read -->
<g id="edge1" class="edge">
<title>operation_input_operation_project_read&#45;&gt;operation_policy_authorization_policy_project_read</title>
<path fill="none" stroke="#3f3f46" stroke-width="1.2" d="M66.08,-178.5C90.29,-178.5 125.12,-178.5 159.54,-178.5"/>
<polygon fill="#3f3f46" stroke="#3f3f46" stroke-width="1.2" points="159.81,-181.3 167.81,-178.5 159.81,-175.7 159.81,-181.3"/>
<text text-anchor="middle" x="117" y="-181.5" font-family="Arial" font-size="10.00">authorize</text>
</g>
<!-- operation_resource_operation_project_read_reads_Project -->
<g id="node3" class="node">
<title>operation_resource_operation_project_read_reads_Project</title>
<polygon fill="#ffffff" stroke="transparent" points="476,-93.5 476,-263.5 670,-263.5 670,-93.5 476,-93.5"/>
<polygon fill="#15803d" stroke="transparent" points="477,-254.5 477,-262.5 669,-262.5 669,-254.5 477,-254.5"/>
<polygon fill="#f0fdfa" stroke="transparent" points="477,-223.5 477,-254.5 669,-254.5 669,-223.5 477,-223.5"/>
<text text-anchor="start" x="481" y="-241.1" font-family="Arial" font-weight="bold" font-size="13.00">Project</text>
<text text-anchor="start" x="481" y="-230.1" font-family="Arial" font-size="8.00" fill="#64748b">model resource</text>
<text text-anchor="start" x="481" y="-212.5" font-family="Arial" font-weight="bold" font-size="10.00">fields</text>
<text text-anchor="start" x="481" y="-201.5" font-family="Arial" font-size="10.00">assignee</text>
<text text-anchor="start" x="521" y="-201.5" font-family="Arial" font-size="8.00" fill="#94a3b8">  Text</text>
<text text-anchor="start" x="481" y="-190.5" font-family="Arial" font-size="10.00">created_at</text>
<text text-anchor="start" x="527" y="-190.5" font-family="Arial" font-size="8.00" fill="#94a3b8">  Timestamp</text>
<text text-anchor="start" x="481" y="-179.5" font-family="Arial" font-size="10.00">customer</text>
<text text-anchor="start" x="522" y="-179.5" font-family="Arial" font-size="8.00" fill="#94a3b8">  Text</text>
<text text-anchor="start" x="481" y="-168.5" font-family="Arial" font-size="10.00">id</text>
<text text-anchor="start" x="489" y="-168.5" font-family="Arial" font-size="8.00" fill="#94a3b8">  ID</text>
<text text-anchor="start" x="481" y="-157.5" font-family="Arial" font-size="10.00">priority</text>
<text text-anchor="start" x="511" y="-157.5" font-family="Arial" font-size="8.00" fill="#94a3b8">  Text</text>
<text text-anchor="start" x="481" y="-146.5" font-family="Arial" font-size="10.00">status</text>
<text text-anchor="start" x="509" y="-146.5" font-family="Arial" font-size="8.00" fill="#94a3b8">  enum&lt;draft|submitted|approved|archived&gt;</text>
<text text-anchor="start" x="481" y="-135.5" font-family="Arial" font-size="10.00">summary</text>
<text text-anchor="start" x="522" y="-135.5" font-family="Arial" font-size="8.00" fill="#94a3b8">  Text</text>
<text text-anchor="start" x="481" y="-124.5" font-family="Arial" font-size="10.00">title</text>
<text text-anchor="start" x="497" y="-124.5" font-family="Arial" font-size="8.00" fill="#94a3b8">  Text</text>
<text text-anchor="start" x="481" y="-113.5" font-family="Arial" font-size="10.00">updated_at</text>
<text text-anchor="start" x="530" y="-113.5" font-family="Arial" font-size="8.00" fill="#94a3b8">  Timestamp</text>
<text text-anchor="start" x="481" y="-102.5" font-family="Arial" font-size="10.00">workspace_id</text>
<text text-anchor="start" x="542" y="-102.5" font-family="Arial" font-size="8.00" fill="#94a3b8">  ID</text>
<polygon fill="none" stroke="#15803d" points="476,-93.5 476,-263.5 670,-263.5 670,-93.5 476,-93.5"/>
</g>
<!-- operation_policy_authorization_policy_project_read&#45;&gt;operation_resource_operation_project_read_reads_Project -->
<g id="edge2" class="edge">
<title>operation_policy_authorization_policy_project_read&#45;&gt;operation_resource_operation_project_read_reads_Project</title>
<path fill="none" stroke="#3f3f46" d="M389.25,-178.5C414.85,-178.5 442.04,-178.5 467.41,-178.5"/>
<polygon fill="#3f3f46" stroke="#3f3f46" points="467.57,-181.3 475.57,-178.5 467.57,-175.7 467.57,-181.3"/>
<text text-anchor="middle" x="432.5" y="-181.5" font-family="Arial" font-size="10.00">reads</text>
</g>
<!-- operation_outcome_operation_project_read_forbidden -->
<g id="node4" class="node">
<title>operation_outcome_operation_project_read_forbidden</title>
<polygon fill="#ffffff" stroke="transparent" points="790,-375 790,-446 863,-446 863,-375 790,-375"/>
<polygon fill="#dc2626" stroke="transparent" points="791.5,-436.5 791.5,-444.5 862.5,-444.5 862.5,-436.5 791.5,-436.5"/>
<polygon fill="#fef2f2" stroke="transparent" points="791.5,-405.5 791.5,-436.5 862.5,-436.5 862.5,-405.5 791.5,-405.5"/>
<text text-anchor="start" x="795.5" y="-423.1" font-family="Arial" font-weight="bold" font-size="13.00">forbidden</text>
<text text-anchor="start" x="795.5" y="-412.1" font-family="Arial" font-size="8.00" fill="#64748b">failure outcome</text>
<text text-anchor="start" x="795.5" y="-394.5" font-family="Arial" font-weight="bold" font-size="10.00">result</text>
<text text-anchor="start" x="795.5" y="-383.5" font-family="Arial" font-size="10.00">result</text>
<text text-anchor="start" x="820.5" y="-383.5" font-family="Arial" font-size="8.00" fill="#94a3b8">  Problem</text>
<polygon fill="none" stroke="#dc2626" points="790,-375 790,-446 863,-446 863,-375 790,-375"/>
</g>
<!-- operation_policy_authorization_policy_project_read&#45;&gt;operation_outcome_operation_project_read_forbidden -->
<g id="edge3" class="edge">
<title>operation_policy_authorization_policy_project_read&#45;&gt;operation_outcome_operation_project_read_forbidden</title>
<path fill="none" stroke="#3f3f46" d="M389.03,-235.46C417.13,-249.43 447.47,-263.95 476,-276.5 584.32,-324.14 715.38,-371.81 782.02,-395.36"/>
<polygon fill="#3f3f46" stroke="#3f3f46" points="781.34,-398.09 789.82,-398.11 783.21,-392.81 781.34,-398.09"/>
<text text-anchor="middle" x="573" y="-357.5" font-family="Arial" font-size="10.00">forbidden_as</text>
</g>
<!-- operation_outcome_operation_project_read_unauthenticated -->
<g id="node7" class="node">
<title>operation_outcome_operation_project_read_unauthenticated</title>
<polygon fill="#ffffff" stroke="transparent" points="769,0 769,-71 884,-71 884,0 769,0"/>
<polygon fill="#dc2626" stroke="transparent" points="770.5,-61.5 770.5,-69.5 883.5,-69.5 883.5,-61.5 770.5,-61.5"/>
<polygon fill="#fef2f2" stroke="transparent" points="770.5,-30.5 770.5,-61.5 883.5,-61.5 883.5,-30.5 770.5,-30.5"/>
<text text-anchor="start" x="774.5" y="-48.1" font-family="Arial" font-weight="bold" font-size="13.00">unauthenticated</text>
<text text-anchor="start" x="774.5" y="-37.1" font-family="Arial" font-size="8.00" fill="#64748b">failure outcome</text>
<text text-anchor="start" x="774.5" y="-19.5" font-family="Arial" font-weight="bold" font-size="10.00">result</text>
<text text-anchor="start" x="774.5" y="-8.5" font-family="Arial" font-size="10.00">result</text>
<text text-anchor="start" x="799.5" y="-8.5" font-family="Arial" font-size="8.00" fill="#94a3b8">  Problem</text>
<polygon fill="none" stroke="#dc2626" points="769,0 769,-71 884,-71 884,0 769,0"/>
</g>
<!-- operation_policy_authorization_policy_project_read&#45;&gt;operation_outcome_operation_project_read_unauthenticated -->
<g id="edge6" class="edge">
<title>operation_policy_authorization_policy_project_read&#45;&gt;operation_outcome_operation_project_read_unauthenticated</title>
<path fill="none" stroke="#3f3f46" d="M364.97,-120.44C398.24,-100.63 437.56,-80.49 476,-68.5 571.94,-38.59 689.29,-33.52 760.67,-33.7"/>
<polygon fill="#3f3f46" stroke="#3f3f46" points="760.7,-36.5 768.71,-33.74 760.73,-30.9 760.7,-36.5"/>
<text text-anchor="middle" x="573" y="-71.5" font-family="Arial" font-size="10.00">unauthenticated_as</text>
</g>
<!-- operation_outcome_operation_project_read_found -->
<g id="node5" class="node">
<title>operation_outcome_operation_project_read_found</title>
<polygon fill="#ffffff" stroke="transparent" points="791,-250 791,-321 862,-321 862,-250 791,-250"/>
<polygon fill="#16a34a" stroke="transparent" points="792.5,-311.5 792.5,-319.5 861.5,-319.5 861.5,-311.5 792.5,-311.5"/>
<polygon fill="#f0fdf4" stroke="transparent" points="792.5,-280.5 792.5,-311.5 861.5,-311.5 861.5,-280.5 792.5,-280.5"/>
<text text-anchor="start" x="796.5" y="-298.1" font-family="Arial" font-weight="bold" font-size="13.00">found</text>
<text text-anchor="start" x="796.5" y="-287.1" font-family="Arial" font-size="8.00" fill="#64748b">success outcome</text>
<text text-anchor="start" x="796.5" y="-269.5" font-family="Arial" font-weight="bold" font-size="10.00">result</text>
<text text-anchor="start" x="796.5" y="-258.5" font-family="Arial" font-size="10.00">result</text>
<text text-anchor="start" x="821.5" y="-258.5" font-family="Arial" font-size="8.00" fill="#94a3b8">  Project</text>
<polygon fill="none" stroke="#16a34a" points="791,-250 791,-321 862,-321 862,-250 791,-250"/>
</g>
<!-- operation_resource_operation_project_read_reads_Project&#45;&gt;operation_outcome_operation_project_read_found -->
<g id="edge4" class="edge">
<title>operation_resource_operation_project_read_reads_Project&#45;&gt;operation_outcome_operation_project_read_found</title>
<path fill="none" stroke="#3f3f46" d="M670.16,-219.41C709.28,-236.05 752.44,-254.42 783.33,-267.56"/>
<polygon fill="#3f3f46" stroke="#3f3f46" points="782.44,-270.22 790.9,-270.78 784.64,-265.07 782.44,-270.22"/>
<text text-anchor="middle" x="719.5" y="-251.5" font-family="Arial" font-size="10.00">success</text>
</g>
<!-- operation_outcome_operation_project_read_not_found -->
<g id="node6" class="node">
<title>operation_outcome_operation_project_read_not_found</title>
<polygon fill="#ffffff" stroke="transparent" points="788,-125 788,-196 865,-196 865,-125 788,-125"/>
<polygon fill="#dc2626" stroke="transparent" points="789.5,-186.5 789.5,-194.5 864.5,-194.5 864.5,-186.5 789.5,-186.5"/>
<polygon fill="#fef2f2" stroke="transparent" points="789.5,-155.5 789.5,-186.5 864.5,-186.5 864.5,-155.5 789.5,-155.5"/>
<text text-anchor="start" x="793.5" y="-173.1" font-family="Arial" font-weight="bold" font-size="13.00">not_found</text>
<text text-anchor="start" x="793.5" y="-162.1" font-family="Arial" font-size="8.00" fill="#64748b">failure outcome</text>
<text text-anchor="start" x="793.5" y="-144.5" font-family="Arial" font-weight="bold" font-size="10.00">result</text>
<text text-anchor="start" x="793.5" y="-133.5" font-family="Arial" font-size="10.00">result</text>
<text text-anchor="start" x="818.5" y="-133.5" font-family="Arial" font-size="8.00" fill="#94a3b8">  Problem</text>
<polygon fill="none" stroke="#dc2626" points="788,-125 788,-196 865,-196 865,-125 788,-125"/>
</g>
<!-- operation_resource_operation_project_read_reads_Project&#45;&gt;operation_outcome_operation_project_read_not_found -->
<g id="edge5" class="edge">
<title>operation_resource_operation_project_read_reads_Project&#45;&gt;operation_outcome_operation_project_read_not_found</title>
<path fill="none" stroke="#3f3f46" d="M670.16,-171.62C707.68,-168.93 748.92,-165.98 779.48,-163.79"/>
<polygon fill="#3f3f46" stroke="#3f3f46" points="780.02,-166.56 787.8,-163.2 779.62,-160.98 780.02,-166.56"/>
<text text-anchor="middle" x="719.5" y="-172.5" font-family="Arial" font-size="10.00">failure</text>
</g>
<!-- operation_outcome_operation_project_read_forbidden&#45;&gt;operation_outcome_operation_project_read_found -->
<!-- operation_outcome_operation_project_read_found&#45;&gt;operation_outcome_operation_project_read_not_found -->
<!-- operation_outcome_operation_project_read_not_found&#45;&gt;operation_outcome_operation_project_read_unauthenticated -->
</g>
</svg>
