<svg width="943pt" height="482pt"
 viewBox="0.00 0.00 943.00 482.00" xmlns="http://www.w3.org/2000/svg" xmlns:xlink="http://www.w3.org/1999/xlink">
<!-- pyspec-contract-input-sha256: 61214d19c26ddbf4af8d5bbbd6a32e6421444fc2571e0f9ed34807bef7240961 -->
<g id="graph0" class="graph" transform="scale(1 1) rotate(0) translate(18 464)">
<title>operation_operation_project_read</title>
<!-- operation_input_operation_project_read -->
<g id="node1" class="node">
<title>operation_input_operation_project_read</title>
<polygon fill="#ffffff" stroke="transparent" points="0,-143 0,-214 66,-214 66,-143 0,-143"/>
<polygon fill="#64748b" stroke="transparent" points="1,-204.5 1,-212.5 65,-212.5 65,-204.5 1,-204.5"/>
<polygon fill="#f8fafc" stroke="transparent" points="1,-173.5 1,-204.5 65,-204.5 65,-173.5 1,-173.5"/>
<text text-anchor="start" x="5" y="-191.1" font-family="Arial" font-weight="bold" font-size="13.00">input</text>
<text text-anchor="start" x="5" y="-180.1" font-family="Arial" font-size="8.00" fill="#64748b">operation input</text>
<text text-anchor="start" x="5" y="-162.5" font-family="Arial" font-weight="bold" font-size="10.00">fields</text>
<text text-anchor="start" x="5" y="-151.5" font-family="Arial" font-size="10.00">project_id</text>
<text text-anchor="start" x="48" y="-151.5" font-family="Arial" font-size="8.00" fill="#94a3b8">  ID</text>
<polygon fill="none" stroke="#64748b" points="0,-143 0,-214 66,-214 66,-143 0,-143"/>
</g>
<!-- operation_policy_authorization_policy_project_member -->
<g id="node2" class="node">
<title>operation_policy_authorization_policy_project_member</title>
<polygon fill="#ffffff" stroke="transparent" points="168,-120.5 168,-236.5 412,-236.5 412,-120.5 168,-120.5"/>
<polygon fill="#c2410c" stroke="transparent" points="169,-227.5 169,-235.5 411,-235.5 411,-227.5 169,-227.5"/>
<polygon fill="#fff7ed" stroke="transparent" points="169,-196.5 169,-227.5 411,-227.5 411,-196.5 169,-196.5"/>
<text text-anchor="start" x="173" y="-214.1" font-family="Arial" font-weight="bold" font-size="13.00">authorization_policy.project.member</text>
<text text-anchor="start" x="173" y="-203.1" font-family="Arial" font-size="8.00" fill="#64748b">authorization gate</text>
<text text-anchor="start" x="173" y="-185.5" font-family="Arial" font-style="italic" font-size="10.00" fill="#3f3f46">Workspace members may create, read, list, and</text>
<text text-anchor="start" x="173" y="-174.5" font-family="Arial" font-style="italic" font-size="10.00" fill="#3f3f46">submit dispatch projects.</text>
<text text-anchor="start" x="174" y="-154.5" font-family="Arial" font-weight="bold" font-size="10.00">effect:</text>
<text text-anchor="start" x="202" y="-154.5" font-family="Arial" font-size="10.00">  allow</text>
<text text-anchor="start" x="174" y="-142.5" font-family="Arial" font-weight="bold" font-size="10.00">subjects:</text>
<text text-anchor="start" x="217" y="-142.5" font-family="Arial" font-size="10.00">  actor</text>
<text text-anchor="start" x="174" y="-130.5" font-family="Arial" font-weight="bold" font-size="10.00">conditions:</text>
<text text-anchor="start" x="227" y="-130.5" font-family="Arial" font-size="10.00">  subject_has_role member</text>
<polygon fill="none" stroke="#c2410c" points="168,-120.5 168,-236.5 412,-236.5 412,-120.5 168,-120.5"/>
</g>
<!-- operation_input_operation_project_read&#45;&gt;operation_policy_authorization_policy_project_member -->
<g id="edge1" class="edge">
<title>operation_input_operation_project_read&#45;&gt;operation_policy_authorization_policy_project_member</title>
<path fill="none" stroke="#3f3f46" stroke-width="1.2" d="M66.04,-178.5C90.06,-178.5 124.67,-178.5 159.47,-178.5"/>
<polygon fill="#3f3f46" stroke="#3f3f46" stroke-width="1.2" points="159.84,-181.3 167.84,-178.5 159.84,-175.7 159.84,-181.3"/>
<text text-anchor="middle" x="117" y="-181.5" font-family="Arial" font-size="10.00">authorize</text>
</g>
<!-- operation_resource_operation_project_read_reads_Project -->
<g id="node3" class="node">
<title>operation_resource_operation_project_read_reads_Project</title>
<polygon fill="#ffffff" stroke="transparent" points="499,-93.5 499,-263.5 693,-263.5 693,-93.5 499,-93.5"/>
<polygon fill="#15803d" stroke="transparent" points="500,-254.5 500,-262.5 692,-262.5 692,-254.5 500,-254.5"/>
<polygon fill="#f0fdfa" stroke="transparent" points="500,-223.5 500,-254.5 692,-254.5 692,-223.5 500,-223.5"/>
<text text-anchor="start" x="504" y="-241.1" font-family="Arial" font-weight="bold" font-size="13.00">Project</text>
<text text-anchor="start" x="504" y="-230.1" font-family="Arial" font-size="8.00" fill="#64748b">model resource</text>
<text text-anchor="start" x="504" y="-212.5" font-family="Arial" font-weight="bold" font-size="10.00">fields</text>
<text text-anchor="start" x="504" y="-201.5" font-family="Arial" font-size="10.00">assignee</text>
<text text-anchor="start" x="544" y="-201.5" font-family="Arial" font-size="8.00" fill="#94a3b8">  Text</text>
<text text-anchor="start" x="504" y="-190.5" font-family="Arial" font-size="10.00">created_at</text>
<text text-anchor="start" x="550" y="-190.5" font-family="Arial" font-size="8.00" fill="#94a3b8">  Timestamp</text>
<text text-anchor="start" x="504" y="-179.5" font-family="Arial" font-size="10.00">customer</text>
<text text-anchor="start" x="545" y="-179.5" font-family="Arial" font-size="8.00" fill="#94a3b8">  Text</text>
<text text-anchor="start" x="504" y="-168.5" font-family="Arial" font-size="10.00">id</text>
<text text-anchor="start" x="512" y="-168.5" font-family="Arial" font-size="8.00" fill="#94a3b8">  ID</text>
<text text-anchor="start" x="504" y="-157.5" font-family="Arial" font-size="10.00">priority</text>
<text text-anchor="start" x="534" y="-157.5" font-family="Arial" font-size="8.00" fill="#94a3b8">  Text</text>
<text text-anchor="start" x="504" y="-146.5" font-family="Arial" font-size="10.00">status</text>
<text text-anchor="start" x="532" y="-146.5" font-family="Arial" font-size="8.00" fill="#94a3b8">  enum&lt;draft|submitted|approved|archived&gt;</text>
<text text-anchor="start" x="504" y="-135.5" font-family="Arial" font-size="10.00">summary</text>
<text text-anchor="start" x="545" y="-135.5" font-family="Arial" font-size="8.00" fill="#94a3b8">  Text</text>
<text text-anchor="start" x="504" y="-124.5" font-family="Arial" font-size="10.00">title</text>
<text text-anchor="start" x="520" y="-124.5" font-family="Arial" font-size="8.00" fill="#94a3b8">  Text</text>
<text text-anchor="start" x="504" y="-113.5" font-family="Arial" font-size="10.00">updated_at</text>
<text text-anchor="start" x="553" y="-113.5" font-family="Arial" font-size="8.00" fill="#94a3b8">  Timestamp</text>
<text text-anchor="start" x="504" y="-102.5" font-family="Arial" font-size="10.00">workspace_id</text>
<text text-anchor="start" x="565" y="-102.5" font-family="Arial" font-size="8.00" fill="#94a3b8">  ID</text>
<polygon fill="none" stroke="#15803d" points="499,-93.5 499,-263.5 693,-263.5 693,-93.5 499,-93.5"/>
</g>
<!-- operation_policy_authorization_policy_project_member&#45;&gt;operation_resource_operation_project_read_reads_Project -->
<g id="edge2" class="edge">
<title>operation_policy_authorization_policy_project_member&#45;&gt;operation_resource_operation_project_read_reads_Project</title>
<path fill="none" stroke="#3f3f46" d="M412.02,-178.5C438.02,-178.5 465.28,-178.5 490.58,-178.5"/>
<polygon fill="#3f3f46" stroke="#3f3f46" points="490.72,-181.3 498.72,-178.5 490.72,-175.7 490.72,-181.3"/>
<text text-anchor="middle" x="455.5" y="-181.5" font-family="Arial" font-size="10.00">reads</text>
</g>
<!-- operation_outcome_operation_project_read_forbidden -->
<g id="node4" class="node">
<title>operation_outcome_operation_project_read_forbidden</title>
<polygon fill="#ffffff" stroke="transparent" points="813,-375 813,-446 886,-446 886,-375 813,-375"/>
<polygon fill="#dc2626" stroke="transparent" points="814.5,-436.5 814.5,-444.5 885.5,-444.5 885.5,-436.5 814.5,-436.5"/>
<polygon fill="#fef2f2" stroke="transparent" points="814.5,-405.5 814.5,-436.5 885.5,-436.5 885.5,-405.5 814.5,-405.5"/>
<text text-anchor="start" x="818.5" y="-423.1" font-family="Arial" font-weight="bold" font-size="13.00">forbidden</text>
<text text-anchor="start" x="818.5" y="-412.1" font-family="Arial" font-size="8.00" fill="#64748b">failure outcome</text>
<text text-anchor="start" x="818.5" y="-394.5" font-family="Arial" font-weight="bold" font-size="10.00">result</text>
<text text-anchor="start" x="818.5" y="-383.5" font-family="Arial" font-size="10.00">result</text>
<text text-anchor="start" x="843.5" y="-383.5" font-family="Arial" font-size="8.00" fill="#94a3b8">  Problem</text>
<polygon fill="none" stroke="#dc2626" points="813,-375 813,-446 886,-446 886,-375 813,-375"/>
</g>
<!-- operation_policy_authorization_policy_project_member&#45;&gt;operation_outcome_operation_project_read_forbidden -->
<g id="edge3" class="edge">
<title>operation_policy_authorization_policy_project_member&#45;&gt;operation_outcome_operation_project_read_forbidden</title>
<path fill="none" stroke="#3f3f46" d="M410.2,-236.52C439.08,-250.06 469.99,-264.13 499,-276.5 607.84,-322.93 738.68,-371.11 805.15,-395.05"/>
<polygon fill="#3f3f46" stroke="#3f3f46" points="804.46,-397.78 812.93,-397.85 806.35,-392.51 804.46,-397.78"/>
<text text-anchor="middle" x="596" y="-355.5" font-family="Arial" font-size="10.00">forbidden_as</text>
</g>
<!-- operation_outcome_operation_project_read_unauthenticated -->
<g id="node7" class="node">
<title>operation_outcome_operation_project_read_unauthenticated</title>
<polygon fill="#ffffff" stroke="transparent" points="792,0 792,-71 907,-71 907,0 792,0"/>
<polygon fill="#dc2626" stroke="transparent" points="793.5,-61.5 793.5,-69.5 906.5,-69.5 906.5,-61.5 793.5,-61.5"/>
<polygon fill="#fef2f2" stroke="transparent" points="793.5,-30.5 793.5,-61.5 906.5,-61.5 906.5,-30.5 793.5,-30.5"/>
<text text-anchor="start" x="797.5" y="-48.1" font-family="Arial" font-weight="bold" font-size="13.00">unauthenticated</text>
<text text-anchor="start" x="797.5" y="-37.1" font-family="Arial" font-size="8.00" fill="#64748b">failure outcome</text>
<text text-anchor="start" x="797.5" y="-19.5" font-family="Arial" font-weight="bold" font-size="10.00">result</text>
<text text-anchor="start" x="797.5" y="-8.5" font-family="Arial" font-size="10.00">result</text>
<text text-anchor="start" x="822.5" y="-8.5" font-family="Arial" font-size="8.00" fill="#94a3b8">  Problem</text>
<polygon fill="none" stroke="#dc2626" points="792,0 792,-71 907,-71 907,0 792,0"/>
</g>
<!-- operation_policy_authorization_policy_project_member&#45;&gt;operation_outcome_operation_project_read_unauthenticated -->
<g id="edge6" class="edge">
<title>operation_policy_authorization_policy_project_member&#45;&gt;operation_outcome_operation_project_read_unauthenticated</title>
<path fill="none" stroke="#3f3f46" d="M381.88,-120.5C417.14,-100.7 458.69,-80.54 499,-68.5 595.29,-39.73 712.54,-34.33 783.8,-34.13"/>
<polygon fill="#3f3f46" stroke="#3f3f46" points="783.83,-36.93 791.83,-34.13 783.83,-31.33 783.83,-36.93"/>
<text text-anchor="middle" x="596" y="-71.5" font-family="Arial" font-size="10.00">unauthenticated_as</text>
</g>
<!-- operation_outcome_operation_project_read_found -->
<g id="node5" class="node">
<title>operation_outcome_operation_project_read_found</title>
<polygon fill="#ffffff" stroke="transparent" points="814,-250 814,-321 885,-321 885,-250 814,-250"/>
<polygon fill="#16a34a" stroke="transparent" points="815.5,-311.5 815.5,-319.5 884.5,-319.5 884.5,-311.5 815.5,-311.5"/>
<polygon fill="#f0fdf4" stroke="transparent" points="815.5,-280.5 815.5,-311.5 884.5,-311.5 884.5,-280.5 815.5,-280.5"/>
<text text-anchor="start" x="819.5" y="-298.1" font-family="Arial" font-weight="bold" font-size="13.00">found</text>
<text text-anchor="start" x="819.5" y="-287.1" font-family="Arial" font-size="8.00" fill="#64748b">success outcome</text>
<text text-anchor="start" x="819.5" y="-269.5" font-family="Arial" font-weight="bold" font-size="10.00">result</text>
<text text-anchor="start" x="819.5" y="-258.5" font-family="Arial" font-size="10.00">result</text>
<text text-anchor="start" x="844.5" y="-258.5" font-family="Arial" font-size="8.00" fill="#94a3b8">  Project</text>
<polygon fill="none" stroke="#16a34a" points="814,-250 814,-321 885,-321 885,-250 814,-250"/>
</g>
<!-- operation_resource_operation_project_read_reads_Project&#45;&gt;operation_outcome_operation_project_read_found -->
<g id="edge4" class="edge">
<title>operation_resource_operation_project_read_reads_Project&#45;&gt;operation_outcome_operation_project_read_found</title>
<path fill="none" stroke="#3f3f46" d="M693.16,-219.41C732.28,-236.05 775.44,-254.42 806.33,-267.56"/>
<polygon fill="#3f3f46" stroke="#3f3f46" points="805.44,-270.22 813.9,-270.78 807.64,-265.07 805.44,-270.22"/>
<text text-anchor="middle" x="742.5" y="-251.5" font-family="Arial" font-size="10.00">success</text>
</g>
<!-- operation_outcome_operation_project_read_not_found -->
<g id="node6" class="node">
<title>operation_outcome_operation_project_read_not_found</title>
<polygon fill="#ffffff" stroke="transparent" points="811,-125 811,-196 888,-196 888,-125 811,-125"/>
<polygon fill="#dc2626" stroke="transparent" points="812.5,-186.5 812.5,-194.5 887.5,-194.5 887.5,-186.5 812.5,-186.5"/>
<polygon fill="#fef2f2" stroke="transparent" points="812.5,-155.5 812.5,-186.5 887.5,-186.5 887.5,-155.5 812.5,-155.5"/>
<text text-anchor="start" x="816.5" y="-173.1" font-family="Arial" font-weight="bold" font-size="13.00">not_found</text>
<text text-anchor="start" x="816.5" y="-162.1" font-family="Arial" font-size="8.00" fill="#64748b">failure outcome</text>
<text text-anchor="start" x="816.5" y="-144.5" font-family="Arial" font-weight="bold" font-size="10.00">result</text>
<text text-anchor="start" x="816.5" y="-133.5" font-family="Arial" font-size="10.00">result</text>
<text text-anchor="start" x="841.5" y="-133.5" font-family="Arial" font-size="8.00" fill="#94a3b8">  Problem</text>
<polygon fill="none" stroke="#dc2626" points="811,-125 811,-196 888,-196 888,-125 811,-125"/>
</g>
<!-- operation_resource_operation_project_read_reads_Project&#45;&gt;operation_outcome_operation_project_read_not_found -->
<g id="edge5" class="edge">
<title>operation_resource_operation_project_read_reads_Project&#45;&gt;operation_outcome_operation_project_read_not_found</title>
<path fill="none" stroke="#3f3f46" d="M693.16,-171.62C730.68,-168.93 771.92,-165.98 802.48,-163.79"/>
<polygon fill="#3f3f46" stroke="#3f3f46" points="803.02,-166.56 810.8,-163.2 802.62,-160.98 803.02,-166.56"/>
<text text-anchor="middle" x="742.5" y="-172.5" font-family="Arial" font-size="10.00">failure</text>
</g>
<!-- operation_outcome_operation_project_read_forbidden&#45;&gt;operation_outcome_operation_project_read_found -->
<!-- operation_outcome_operation_project_read_found&#45;&gt;operation_outcome_operation_project_read_not_found -->
<!-- operation_outcome_operation_project_read_not_found&#45;&gt;operation_outcome_operation_project_read_unauthenticated -->
</g>
</svg>
