<svg width="882pt" height="232pt"
 viewBox="0.00 0.00 882.00 232.00" xmlns="http://www.w3.org/2000/svg" xmlns:xlink="http://www.w3.org/1999/xlink">
<!-- pyspec-contract-input-sha256: 74e8dbc286aab1d8a485fed1686b327522b4991dcbc9377fba177e3797cd7a7f -->
<g id="graph0" class="graph" transform="scale(1 1) rotate(0) translate(18 214)">
<title>operation_operation_project_read</title>
<!-- operation_input_operation_project_read -->
<g id="node1" class="node">
<title>operation_input_operation_project_read</title>
<polygon fill="#ffffff" stroke="transparent" points="0,-62 0,-133 66,-133 66,-62 0,-62"/>
<polygon fill="#64748b" stroke="transparent" points="1,-123.5 1,-131.5 65,-131.5 65,-123.5 1,-123.5"/>
<polygon fill="#f8fafc" stroke="transparent" points="1,-92.5 1,-123.5 65,-123.5 65,-92.5 1,-92.5"/>
<text text-anchor="start" x="5" y="-110.1" font-family="Arial" font-weight="bold" font-size="13.00">input</text>
<text text-anchor="start" x="5" y="-99.1" font-family="Arial" font-size="8.00" fill="#64748b">operation input</text>
<text text-anchor="start" x="5" y="-81.5" font-family="Arial" font-weight="bold" font-size="10.00">fields</text>
<text text-anchor="start" x="5" y="-70.5" font-family="Arial" font-size="10.00">project_id</text>
<text text-anchor="start" x="48" y="-70.5" font-family="Arial" font-size="8.00" fill="#94a3b8">  ID</text>
<polygon fill="none" stroke="#64748b" points="0,-62 0,-133 66,-133 66,-62 0,-62"/>
</g>
<!-- operation_policy_authorization_policy_project_read -->
<g id="node2" class="node">
<title>operation_policy_authorization_policy_project_read</title>
<polygon fill="#ffffff" stroke="transparent" points="168,-39.5 168,-155.5 389,-155.5 389,-39.5 168,-39.5"/>
<polygon fill="#c2410c" stroke="transparent" points="169.5,-146.5 169.5,-154.5 388.5,-154.5 388.5,-146.5 169.5,-146.5"/>
<polygon fill="#fff7ed" stroke="transparent" points="169.5,-115.5 169.5,-146.5 388.5,-146.5 388.5,-115.5 169.5,-115.5"/>
<text text-anchor="start" x="173.5" y="-133.1" font-family="Arial" font-weight="bold" font-size="13.00">authorization_policy.project.read</text>
<text text-anchor="start" x="173.5" y="-122.1" font-family="Arial" font-size="8.00" fill="#64748b">authorization gate</text>
<text text-anchor="start" x="173.5" y="-104.5" font-family="Arial" font-style="italic" font-size="10.00" fill="#3f3f46">The detail state machine loads the selected</text>
<text text-anchor="start" x="173.5" y="-93.5" font-family="Arial" font-style="italic" font-size="10.00" fill="#3f3f46">project by id.</text>
<text text-anchor="start" x="174.5" y="-73.5" font-family="Arial" font-weight="bold" font-size="10.00">effect:</text>
<text text-anchor="start" x="202.5" y="-73.5" font-family="Arial" font-size="10.00">  allow</text>
<text text-anchor="start" x="174.5" y="-61.5" font-family="Arial" font-weight="bold" font-size="10.00">subjects:</text>
<text text-anchor="start" x="217.5" y="-61.5" font-family="Arial" font-size="10.00">  actor</text>
<text text-anchor="start" x="174.5" y="-49.5" font-family="Arial" font-weight="bold" font-size="10.00">conditions:</text>
<text text-anchor="start" x="227.5" y="-49.5" font-family="Arial" font-size="10.00">  unconditional true</text>
<polygon fill="none" stroke="#c2410c" points="168,-39.5 168,-155.5 389,-155.5 389,-39.5 168,-39.5"/>
</g>
<!-- operation_input_operation_project_read&#45;&gt;operation_policy_authorization_policy_project_read -->
<g id="edge1" class="edge">
<title>operation_input_operation_project_read&#45;&gt;operation_policy_authorization_policy_project_read</title>
<path fill="none" stroke="#3f3f46" stroke-width="1.2" d="M66.08,-97.5C90.29,-97.5 125.12,-97.5 159.54,-97.5"/>
<polygon fill="#3f3f46" stroke="#3f3f46" stroke-width="1.2" points="159.81,-100.3 167.81,-97.5 159.81,-94.7 159.81,-100.3"/>
<text text-anchor="middle" x="117" y="-100.5" font-family="Arial" font-size="10.00">authorize</text>
</g>
<!-- operation_resource_operation_project_read_reads_Project -->
<g id="node3" class="node">
<title>operation_resource_operation_project_read_reads_Project</title>
<polygon fill="#ffffff" stroke="transparent" points="476,-12.5 476,-182.5 670,-182.5 670,-12.5 476,-12.5"/>
<polygon fill="#15803d" stroke="transparent" points="477,-173.5 477,-181.5 669,-181.5 669,-173.5 477,-173.5"/>
<polygon fill="#f0fdfa" stroke="transparent" points="477,-142.5 477,-173.5 669,-173.5 669,-142.5 477,-142.5"/>
<text text-anchor="start" x="481" y="-160.1" font-family="Arial" font-weight="bold" font-size="13.00">Project</text>
<text text-anchor="start" x="481" y="-149.1" font-family="Arial" font-size="8.00" fill="#64748b">model resource</text>
<text text-anchor="start" x="481" y="-131.5" font-family="Arial" font-weight="bold" font-size="10.00">fields</text>
<text text-anchor="start" x="481" y="-120.5" font-family="Arial" font-size="10.00">assignee</text>
<text text-anchor="start" x="521" y="-120.5" font-family="Arial" font-size="8.00" fill="#94a3b8">  Text</text>
<text text-anchor="start" x="481" y="-109.5" font-family="Arial" font-size="10.00">created_at</text>
<text text-anchor="start" x="527" y="-109.5" font-family="Arial" font-size="8.00" fill="#94a3b8">  Timestamp</text>
<text text-anchor="start" x="481" y="-98.5" font-family="Arial" font-size="10.00">customer</text>
<text text-anchor="start" x="522" y="-98.5" font-family="Arial" font-size="8.00" fill="#94a3b8">  Text</text>
<text text-anchor="start" x="481" y="-87.5" font-family="Arial" font-size="10.00">id</text>
<text text-anchor="start" x="489" y="-87.5" font-family="Arial" font-size="8.00" fill="#94a3b8">  ID</text>
<text text-anchor="start" x="481" y="-76.5" font-family="Arial" font-size="10.00">priority</text>
<text text-anchor="start" x="511" y="-76.5" font-family="Arial" font-size="8.00" fill="#94a3b8">  Text</text>
<text text-anchor="start" x="481" y="-65.5" font-family="Arial" font-size="10.00">status</text>
<text text-anchor="start" x="509" y="-65.5" font-family="Arial" font-size="8.00" fill="#94a3b8">  enum&lt;draft|submitted|approved|archived&gt;</text>
<text text-anchor="start" x="481" y="-54.5" font-family="Arial" font-size="10.00">summary</text>
<text text-anchor="start" x="522" y="-54.5" font-family="Arial" font-size="8.00" fill="#94a3b8">  Text</text>
<text text-anchor="start" x="481" y="-43.5" font-family="Arial" font-size="10.00">title</text>
<text text-anchor="start" x="497" y="-43.5" font-family="Arial" font-size="8.00" fill="#94a3b8">  Text</text>
<text text-anchor="start" x="481" y="-32.5" font-family="Arial" font-size="10.00">updated_at</text>
<text text-anchor="start" x="530" y="-32.5" font-family="Arial" font-size="8.00" fill="#94a3b8">  Timestamp</text>
<text text-anchor="start" x="481" y="-21.5" font-family="Arial" font-size="10.00">workspace_id</text>
<text text-anchor="start" x="542" y="-21.5" font-family="Arial" font-size="8.00" fill="#94a3b8">  ID</text>
<polygon fill="none" stroke="#15803d" points="476,-12.5 476,-182.5 670,-182.5 670,-12.5 476,-12.5"/>
</g>
<!-- operation_policy_authorization_policy_project_read&#45;&gt;operation_resource_operation_project_read_reads_Project -->
<g id="edge2" class="edge">
<title>operation_policy_authorization_policy_project_read&#45;&gt;operation_resource_operation_project_read_reads_Project</title>
<path fill="none" stroke="#3f3f46" d="M389.25,-97.5C414.85,-97.5 442.04,-97.5 467.41,-97.5"/>
<polygon fill="#3f3f46" stroke="#3f3f46" points="467.57,-100.3 475.57,-97.5 467.57,-94.7 467.57,-100.3"/>
<text text-anchor="middle" x="432.5" y="-100.5" font-family="Arial" font-size="10.00">reads</text>
</g>
<!-- operation_outcome_operation_project_read_found -->
<g id="node4" class="node">
<title>operation_outcome_operation_project_read_found</title>
<polygon fill="#ffffff" stroke="transparent" points="772,-125 772,-196 843,-196 843,-125 772,-125"/>
<polygon fill="#16a34a" stroke="transparent" points="773.5,-186.5 773.5,-194.5 842.5,-194.5 842.5,-186.5 773.5,-186.5"/>
<polygon fill="#f0fdf4" stroke="transparent" points="773.5,-155.5 773.5,-186.5 842.5,-186.5 842.5,-155.5 773.5,-155.5"/>
<text text-anchor="start" x="777.5" y="-173.1" font-family="Arial" font-weight="bold" font-size="13.00">found</text>
<text text-anchor="start" x="777.5" y="-162.1" font-family="Arial" font-size="8.00" fill="#64748b">success outcome</text>
<text text-anchor="start" x="777.5" y="-144.5" font-family="Arial" font-weight="bold" font-size="10.00">result</text>
<text text-anchor="start" x="777.5" y="-133.5" font-family="Arial" font-size="10.00">result</text>
<text text-anchor="start" x="802.5" y="-133.5" font-family="Arial" font-size="8.00" fill="#94a3b8">  Project</text>
<polygon fill="none" stroke="#16a34a" points="772,-125 772,-196 843,-196 843,-125 772,-125"/>
</g>
<!-- operation_resource_operation_project_read_reads_Project&#45;&gt;operation_outcome_operation_project_read_found -->
<g id="edge3" class="edge">
<title>operation_resource_operation_project_read_reads_Project&#45;&gt;operation_outcome_operation_project_read_found</title>
<path fill="none" stroke="#3f3f46" d="M670.24,-123.58C702.85,-132.41 737.62,-141.84 763.88,-148.95"/>
<polygon fill="#3f3f46" stroke="#3f3f46" points="763.29,-151.69 771.74,-151.08 764.75,-146.29 763.29,-151.69"/>
<text text-anchor="middle" x="719.5" y="-144.5" font-family="Arial" font-size="10.00">success</text>
</g>
<!-- operation_outcome_operation_project_read_not_found -->
<g id="node5" class="node">
<title>operation_outcome_operation_project_read_not_found</title>
<polygon fill="#ffffff" stroke="transparent" points="769,0 769,-71 846,-71 846,0 769,0"/>
<polygon fill="#dc2626" stroke="transparent" points="770.5,-61.5 770.5,-69.5 845.5,-69.5 845.5,-61.5 770.5,-61.5"/>
<polygon fill="#fef2f2" stroke="transparent" points="770.5,-30.5 770.5,-61.5 845.5,-61.5 845.5,-30.5 770.5,-30.5"/>
<text text-anchor="start" x="774.5" y="-48.1" font-family="Arial" font-weight="bold" font-size="13.00">not_found</text>
<text text-anchor="start" x="774.5" y="-37.1" font-family="Arial" font-size="8.00" fill="#64748b">failure outcome</text>
<text text-anchor="start" x="774.5" y="-19.5" font-family="Arial" font-weight="bold" font-size="10.00">result</text>
<text text-anchor="start" x="774.5" y="-8.5" font-family="Arial" font-size="10.00">result</text>
<text text-anchor="start" x="799.5" y="-8.5" font-family="Arial" font-size="8.00" fill="#94a3b8">  Problem</text>
<polygon fill="none" stroke="#dc2626" points="769,0 769,-71 846,-71 846,0 769,0"/>
</g>
<!-- operation_resource_operation_project_read_reads_Project&#45;&gt;operation_outcome_operation_project_read_not_found -->
<g id="edge4" class="edge">
<title>operation_resource_operation_project_read_reads_Project&#45;&gt;operation_outcome_operation_project_read_not_found</title>
<path fill="none" stroke="#3f3f46" d="M670.24,-71.83C701.72,-63.44 735.21,-54.51 761.11,-47.6"/>
<polygon fill="#3f3f46" stroke="#3f3f46" points="761.89,-50.29 768.9,-45.53 760.44,-44.88 761.89,-50.29"/>
<text text-anchor="middle" x="719.5" y="-66.5" font-family="Arial" font-size="10.00">failure</text>
</g>
<!-- operation_outcome_operation_project_read_found&#45;&gt;operation_outcome_operation_project_read_not_found -->
</g>
</svg>
