<svg width="1523pt" height="393pt"
 viewBox="0.00 0.00 1523.00 393.08" xmlns="http://www.w3.org/2000/svg" xmlns:xlink="http://www.w3.org/1999/xlink">
<g id="graph0" class="graph" transform="scale(1 1) rotate(0) translate(18 375.08)">
<title>fsm_panel_project_detail</title>
<!-- initial -->
<g id="node1" class="node">
<title>initial</title>
<ellipse fill="none" stroke="#0891b2" cx="21" cy="-48.08" rx="21" ry="21"/>
<text text-anchor="middle" x="21" y="-45.88" font-family="Arial" font-size="9.00" fill="#155e75">initial</text>
</g>
<!-- state_none -->
<g id="node4" class="node">
<title>state_none</title>
<polygon fill="#ffffff" stroke="transparent" points="103,-8.08 103,-88.08 255,-88.08 255,-8.08 103,-8.08"/>
<polygon fill="#0891b2" stroke="transparent" points="104,-77.08 104,-87.08 254,-87.08 254,-77.08 104,-77.08"/>
<polygon fill="#ecfeff" stroke="transparent" points="104,-52.08 104,-77.08 254,-77.08 254,-52.08 104,-52.08"/>
<text text-anchor="start" x="109" y="-61.88" font-family="Arial" font-weight="bold" font-size="14.00">none</text>
<text text-anchor="start" x="109" y="-40.08" font-family="Arial" font-weight="bold" font-size="10.00">copy</text>
<text text-anchor="start" x="109" y="-28.08" font-family="Arial" font-size="10.00">copy.project.detail.none.heading</text>
<text text-anchor="start" x="109" y="-17.08" font-family="Arial" font-size="10.00">copy.project.detail.none.body</text>
<polygon fill="none" stroke="#0891b2" points="103,-8.08 103,-88.08 255,-88.08 255,-8.08 103,-8.08"/>
</g>
<!-- initial&#45;&gt;state_none -->
<g id="edge1" class="edge">
<title>initial&#45;&gt;state_none</title>
<path fill="none" stroke="#3f3f46" d="M42.07,-48.08C55.82,-48.08 75.05,-48.08 94.74,-48.08"/>
<polygon fill="#3f3f46" stroke="#3f3f46" points="94.89,-50.88 102.89,-48.08 94.89,-45.28 94.89,-50.88"/>
</g>
<!-- state_error -->
<g id="node2" class="node">
<title>state_error</title>
<polygon fill="#ffffff" stroke="transparent" points="1095.5,-48.08 1095.5,-128.08 1246.5,-128.08 1246.5,-48.08 1095.5,-48.08"/>
<polygon fill="#71717a" stroke="transparent" points="1097,-117.08 1097,-127.08 1246,-127.08 1246,-117.08 1097,-117.08"/>
<polygon fill="#f8fafc" stroke="transparent" points="1097,-92.08 1097,-117.08 1246,-117.08 1246,-92.08 1097,-92.08"/>
<text text-anchor="start" x="1102" y="-101.88" font-family="Arial" font-weight="bold" font-size="14.00">error</text>
<text text-anchor="start" x="1102" y="-80.08" font-family="Arial" font-weight="bold" font-size="10.00">copy</text>
<text text-anchor="start" x="1102" y="-68.08" font-family="Arial" font-size="10.00">copy.project.detail.error.heading</text>
<text text-anchor="start" x="1102" y="-57.08" font-family="Arial" font-size="10.00">copy.project.detail.error.body</text>
<polygon fill="none" stroke="#71717a" points="1095.5,-48.08 1095.5,-128.08 1246.5,-128.08 1246.5,-48.08 1095.5,-48.08"/>
</g>
<!-- state_loading -->
<g id="node3" class="node">
<title>state_loading</title>
<polygon fill="#ffffff" stroke="transparent" points="580,-60.08 580,-120.08 782,-120.08 782,-60.08 580,-60.08"/>
<polygon fill="#71717a" stroke="transparent" points="581,-109.08 581,-119.08 781,-119.08 781,-109.08 581,-109.08"/>
<polygon fill="#f8fafc" stroke="transparent" points="581,-84.08 581,-109.08 781,-109.08 781,-84.08 581,-84.08"/>
<text text-anchor="start" x="586" y="-93.88" font-family="Arial" font-weight="bold" font-size="14.00">loading</text>
<text text-anchor="start" x="587" y="-71.08" font-family="Arial" font-weight="bold" font-size="10.00">copy:</text>
<text text-anchor="start" x="613" y="-71.08" font-family="Arial" font-size="10.00">  copy.project.detail.loading.message</text>
<polygon fill="none" stroke="#71717a" points="580,-60.08 580,-120.08 782,-120.08 782,-60.08 580,-60.08"/>
</g>
<!-- transition_1_loading_ready_data_ready -->
<g id="node7" class="node">
<title>transition_1_loading_ready_data_ready</title>
<polygon fill="#ffffff" stroke="transparent" points="843,-186.08 843,-270.08 997,-270.08 997,-186.08 843,-186.08"/>
<polygon fill="#2563eb" stroke="transparent" points="844,-259.08 844,-269.08 996,-269.08 996,-259.08 844,-259.08"/>
<polygon fill="#eff6ff" stroke="transparent" points="844,-234.08 844,-259.08 996,-259.08 996,-234.08 844,-234.08"/>
<text text-anchor="start" x="849" y="-243.88" font-family="Arial" font-weight="bold" font-size="14.00">on data.ready</text>
<text text-anchor="start" x="850" y="-221.08" font-family="Arial" font-weight="bold" font-size="10.00">input:</text>
<text text-anchor="start" x="878" y="-221.08" font-family="Arial" font-size="10.00">  project_id: ID</text>
<text text-anchor="start" x="850" y="-209.08" font-family="Arial" font-weight="bold" font-size="10.00">query:</text>
<text text-anchor="start" x="880" y="-209.08" font-family="Arial" font-size="10.00">  query.project.detail.read</text>
<text text-anchor="start" x="850" y="-197.08" font-family="Arial" font-weight="bold" font-size="10.00">load:</text>
<text text-anchor="start" x="874" y="-197.08" font-family="Arial" font-size="10.00">  project.read</text>
<polygon fill="none" stroke="#2563eb" points="843,-186.08 843,-270.08 997,-270.08 997,-186.08 843,-186.08"/>
</g>
<!-- state_loading&#45;&gt;transition_1_loading_ready_data_ready -->
<g id="edge4" class="edge">
<title>state_loading&#45;&gt;transition_1_loading_ready_data_ready</title>
<path fill="none" stroke="#3f3f46" d="M733.72,-120.2C764.75,-138.26 804.84,-161.61 839.8,-181.96"/>
<polygon fill="#3f3f46" stroke="#3f3f46" points="838.39,-184.39 846.72,-185.99 841.21,-179.55 838.39,-184.39"/>
</g>
<!-- transition_2_loading_error_data_error -->
<g id="node8" class="node">
<title>transition_2_loading_error_data_error</title>
<polygon fill="#ffffff" stroke="transparent" points="843,-48.08 843,-132.08 997,-132.08 997,-48.08 843,-48.08"/>
<polygon fill="#2563eb" stroke="transparent" points="844,-121.08 844,-131.08 996,-131.08 996,-121.08 844,-121.08"/>
<polygon fill="#eff6ff" stroke="transparent" points="844,-96.08 844,-121.08 996,-121.08 996,-96.08 844,-96.08"/>
<text text-anchor="start" x="849" y="-105.88" font-family="Arial" font-weight="bold" font-size="14.00">on data.error</text>
<text text-anchor="start" x="850" y="-83.08" font-family="Arial" font-weight="bold" font-size="10.00">input:</text>
<text text-anchor="start" x="878" y="-83.08" font-family="Arial" font-size="10.00">  project_id: ID</text>
<text text-anchor="start" x="850" y="-71.08" font-family="Arial" font-weight="bold" font-size="10.00">query:</text>
<text text-anchor="start" x="880" y="-71.08" font-family="Arial" font-size="10.00">  query.project.detail.read</text>
<text text-anchor="start" x="850" y="-59.08" font-family="Arial" font-weight="bold" font-size="10.00">load:</text>
<text text-anchor="start" x="874" y="-59.08" font-family="Arial" font-size="10.00">  project.read</text>
<polygon fill="none" stroke="#2563eb" points="843,-48.08 843,-132.08 997,-132.08 997,-48.08 843,-48.08"/>
</g>
<!-- state_loading&#45;&gt;transition_2_loading_error_data_error -->
<g id="edge6" class="edge">
<title>state_loading&#45;&gt;transition_2_loading_error_data_error</title>
<path fill="none" stroke="#3f3f46" d="M782.17,-90.08C799.65,-90.08 817.67,-90.08 834.67,-90.08"/>
<polygon fill="#3f3f46" stroke="#3f3f46" points="834.92,-92.88 842.92,-90.08 834.92,-87.28 834.92,-92.88"/>
</g>
<!-- transition_0_none_loading_project_selection_changed -->
<g id="node6" class="node">
<title>transition_0_none_loading_project_selection_changed</title>
<polygon fill="#ffffff" stroke="transparent" points="316,-48.08 316,-132.08 519,-132.08 519,-48.08 316,-48.08"/>
<polygon fill="#2563eb" stroke="transparent" points="317.5,-121.08 317.5,-131.08 518.5,-131.08 518.5,-121.08 317.5,-121.08"/>
<polygon fill="#eff6ff" stroke="transparent" points="317.5,-96.08 317.5,-121.08 518.5,-121.08 518.5,-96.08 317.5,-96.08"/>
<text text-anchor="start" x="322.5" y="-105.88" font-family="Arial" font-weight="bold" font-size="14.00">on project.selection_changed</text>
<text text-anchor="start" x="323.5" y="-83.08" font-family="Arial" font-weight="bold" font-size="10.00">input:</text>
<text text-anchor="start" x="351.5" y="-83.08" font-family="Arial" font-size="10.00">  project_id: ID</text>
<text text-anchor="start" x="323.5" y="-71.08" font-family="Arial" font-weight="bold" font-size="10.00">query:</text>
<text text-anchor="start" x="353.5" y="-71.08" font-family="Arial" font-size="10.00">  query.project.detail.read</text>
<text text-anchor="start" x="323.5" y="-59.08" font-family="Arial" font-weight="bold" font-size="10.00">load:</text>
<text text-anchor="start" x="347.5" y="-59.08" font-family="Arial" font-size="10.00">  project.read</text>
<polygon fill="none" stroke="#2563eb" points="316,-48.08 316,-132.08 519,-132.08 519,-48.08 316,-48.08"/>
</g>
<!-- state_none&#45;&gt;transition_0_none_loading_project_selection_changed -->
<g id="edge2" class="edge">
<title>state_none&#45;&gt;transition_0_none_loading_project_selection_changed</title>
<path fill="none" stroke="#3f3f46" d="M255.16,-61.43C271.81,-64.39 289.79,-67.58 307.49,-70.72"/>
<polygon fill="#3f3f46" stroke="#3f3f46" points="307.23,-73.52 315.59,-72.16 308.21,-68.01 307.23,-73.52"/>
</g>
<!-- state_ready -->
<g id="node5" class="node">
<title>state_ready</title>
<polygon fill="#ffffff" stroke="transparent" points="1058,-155.08 1058,-357.08 1284,-357.08 1284,-155.08 1058,-155.08"/>
<polygon fill="#71717a" stroke="transparent" points="1059,-346.08 1059,-356.08 1283,-356.08 1283,-346.08 1059,-346.08"/>
<polygon fill="#f8fafc" stroke="transparent" points="1059,-321.08 1059,-346.08 1283,-346.08 1283,-321.08 1059,-321.08"/>
<text text-anchor="start" x="1064" y="-330.88" font-family="Arial" font-weight="bold" font-size="14.00">ready</text>
<text text-anchor="start" x="1065" y="-308.08" font-family="Arial" font-weight="bold" font-size="10.00">copy:</text>
<text text-anchor="start" x="1091" y="-308.08" font-family="Arial" font-size="10.00">  copy.project.detail.ready.heading</text>
<text text-anchor="start" x="1064" y="-286.08" font-family="Arial" font-weight="bold" font-size="10.00">Project fields</text>
<text text-anchor="start" x="1064" y="-274.08" font-family="Arial" font-size="10.00">title</text>
<text text-anchor="start" x="1064" y="-263.08" font-family="Arial" font-size="10.00">customer</text>
<text text-anchor="start" x="1064" y="-252.08" font-family="Arial" font-size="10.00">status</text>
<text text-anchor="start" x="1064" y="-241.08" font-family="Arial" font-size="10.00">assignee</text>
<text text-anchor="start" x="1064" y="-230.08" font-family="Arial" font-size="10.00">summary</text>
<text text-anchor="start" x="1065" y="-209.08" font-family="Arial" font-weight="bold" font-size="10.00">assets:</text>
<text text-anchor="start" x="1098" y="-209.08" font-family="Arial" font-size="10.00">  asset.project.detail.ready.priority_badge</text>
<text text-anchor="start" x="1064" y="-187.08" font-family="Arial" font-weight="bold" font-size="10.00">actions</text>
<text text-anchor="start" x="1064" y="-175.08" font-family="Arial" font-size="10.00">project.approve</text>
<text text-anchor="start" x="1064" y="-164.08" font-family="Arial" font-size="10.00">project.archive</text>
<polygon fill="none" stroke="#71717a" points="1058,-155.08 1058,-357.08 1284,-357.08 1284,-155.08 1058,-155.08"/>
</g>
<!-- transition_3_ready_none_selection_cleared -->
<g id="node9" class="node">
<title>transition_3_ready_none_selection_cleared</title>
<polygon fill="#ffffff" stroke="transparent" points="1345,-101.08 1345,-161.08 1487,-161.08 1487,-101.08 1345,-101.08"/>
<polygon fill="#2563eb" stroke="transparent" points="1346,-150.08 1346,-160.08 1486,-160.08 1486,-150.08 1346,-150.08"/>
<polygon fill="#eff6ff" stroke="transparent" points="1346,-125.08 1346,-150.08 1486,-150.08 1486,-125.08 1346,-125.08"/>
<text text-anchor="start" x="1351" y="-134.88" font-family="Arial" font-weight="bold" font-size="14.00">on selection.cleared</text>
<text text-anchor="start" x="1352" y="-112.08" font-family="Arial" font-weight="bold" font-size="10.00">effects:</text>
<text text-anchor="start" x="1386" y="-112.08" font-family="Arial" font-size="10.00">  project_id &lt;&#45; null</text>
<polygon fill="none" stroke="#2563eb" points="1345,-101.08 1345,-161.08 1487,-161.08 1487,-101.08 1345,-101.08"/>
</g>
<!-- state_ready&#45;&gt;transition_3_ready_none_selection_cleared -->
<g id="edge8" class="edge">
<title>state_ready&#45;&gt;transition_3_ready_none_selection_cleared</title>
<path fill="none" stroke="#3f3f46" d="M1284.25,-198.34C1306.51,-186.89 1329.19,-175.22 1349.27,-164.89"/>
<polygon fill="#3f3f46" stroke="#3f3f46" points="1350.72,-167.3 1356.55,-161.15 1348.16,-162.32 1350.72,-167.3"/>
</g>
<!-- transition_0_none_loading_project_selection_changed&#45;&gt;state_loading -->
<g id="edge3" class="edge">
<title>transition_0_none_loading_project_selection_changed&#45;&gt;state_loading</title>
<path fill="none" stroke="#3f3f46" d="M519.23,-90.08C536.29,-90.08 554.08,-90.08 571.33,-90.08"/>
<polygon fill="#3f3f46" stroke="#3f3f46" points="571.75,-92.88 579.75,-90.08 571.75,-87.28 571.75,-92.88"/>
</g>
<!-- transition_1_loading_ready_data_ready&#45;&gt;state_ready -->
<g id="edge5" class="edge">
<title>transition_1_loading_ready_data_ready&#45;&gt;state_ready</title>
<path fill="none" stroke="#3f3f46" d="M997.06,-236.63C1013.68,-238.5 1031.66,-240.53 1049.54,-242.53"/>
<polygon fill="#3f3f46" stroke="#3f3f46" points="1049.47,-245.35 1057.74,-243.46 1050.1,-239.78 1049.47,-245.35"/>
</g>
<!-- transition_2_loading_error_data_error&#45;&gt;state_error -->
<g id="edge7" class="edge">
<title>transition_2_loading_error_data_error&#45;&gt;state_error</title>
<path fill="none" stroke="#3f3f46" d="M997.06,-89.47C1025.56,-89.24 1058.07,-88.98 1087.15,-88.75"/>
<polygon fill="#3f3f46" stroke="#3f3f46" points="1087.28,-91.55 1095.26,-88.68 1087.24,-85.95 1087.28,-91.55"/>
</g>
<!-- transition_3_ready_none_selection_cleared&#45;&gt;state_none -->
<g id="edge9" class="edge">
<title>transition_3_ready_none_selection_cleared&#45;&gt;state_none</title>
<path fill="none" stroke="#3f3f46" d="M1384.61,-101.06C1359.78,-78.59 1322.6,-49.38 1284,-35.08 1132.26,21.12 1082.81,-7.08 921,-7.08 680,-7.08 680,-7.08 680,-7.08 533.02,-7.08 362.54,-24.9 263.42,-37.04"/>
<polygon fill="#3f3f46" stroke="#3f3f46" points="262.83,-34.29 255.23,-38.05 263.51,-39.85 262.83,-34.29"/>
</g>
</g>
</svg>
