<svg width="801pt" height="217pt"
 viewBox="0.00 0.00 801.00 217.00" xmlns="http://www.w3.org/2000/svg" xmlns:xlink="http://www.w3.org/1999/xlink">
<!-- pyspec-contract-input-sha256: e35f815cfbf81a0f5575a7996f8991bb70628fecbc288f9a7ae88d7d4572a40c -->
<g id="graph0" class="graph" transform="scale(1 1) rotate(0) translate(18 199)">
<title>external_interface_external_interface_worker_project_approval_notice</title>
<!-- external_interface_external_interface_worker_project_approval_notice -->
<g id="node1" class="node">
<title>external_interface_external_interface_worker_project_approval_notice</title>
<polygon fill="#ffffff" stroke="transparent" points="0,-46 0,-150 224,-150 224,-46 0,-46"/>
<polygon fill="#0891b2" stroke="transparent" points="1,-141 1,-149 223,-149 223,-141 1,-141"/>
<polygon fill="#ecfeff" stroke="transparent" points="1,-110 1,-141 223,-141 223,-110 1,-110"/>
<text text-anchor="start" x="5" y="-127.6" font-family="Arial" font-weight="bold" font-size="13.00">workflow.project.approval_notice</text>
<text text-anchor="start" x="5" y="-116.6" font-family="Arial" font-size="8.00" fill="#64748b">worker external interface</text>
<text text-anchor="start" x="5" y="-99" font-family="Arial" font-style="italic" font-size="10.00" fill="#3f3f46">Worker entry exposing the approval notice</text>
<text text-anchor="start" x="5" y="-88" font-family="Arial" font-style="italic" font-size="10.00" fill="#3f3f46">workflow.</text>
<text text-anchor="start" x="6" y="-68" font-family="Arial" font-weight="bold" font-size="10.00">workflow:</text>
<text text-anchor="start" x="52" y="-68" font-family="Arial" font-size="10.00">  workflow.project.approval_notice</text>
<text text-anchor="start" x="6" y="-56" font-family="Arial" font-weight="bold" font-size="10.00">payload:</text>
<text text-anchor="start" x="46" y="-56" font-family="Arial" font-size="10.00">  payload</text>
<text text-anchor="start" x="86" y="-56" font-family="Arial" font-size="8.00" fill="#94a3b8">  schema.project.approved</text>
<polygon fill="none" stroke="#0891b2" points="0,-46 0,-150 224,-150 224,-46 0,-46"/>
</g>
<!-- external_interface_target_workflow_project_approval_notice -->
<g id="node2" class="node">
<title>external_interface_target_workflow_project_approval_notice</title>
<polygon fill="#ffffff" stroke="transparent" points="285,-20 285,-176 572,-176 572,-20 285,-20"/>
<polygon fill="#a16207" stroke="transparent" points="286.5,-167 286.5,-175 571.5,-175 571.5,-167 286.5,-167"/>
<polygon fill="#fefce8" stroke="transparent" points="286.5,-136 286.5,-167 571.5,-167 571.5,-136 286.5,-136"/>
<text text-anchor="start" x="290.5" y="-153.6" font-family="Arial" font-weight="bold" font-size="13.00">workflow.project.approval_notice</text>
<text text-anchor="start" x="290.5" y="-142.6" font-family="Arial" font-size="8.00" fill="#64748b">target workflow</text>
<text text-anchor="start" x="290.5" y="-125" font-family="Arial" font-style="italic" font-size="10.00" fill="#3f3f46">Approval domain event sends a downstream notice.</text>
<text text-anchor="start" x="291.5" y="-105" font-family="Arial" font-weight="bold" font-size="10.00">trigger:</text>
<text text-anchor="start" x="325.5" y="-105" font-family="Arial" font-size="10.00">  domain_event domain_event.project.approved</text>
<text text-anchor="start" x="291.5" y="-93" font-family="Arial" font-weight="bold" font-size="10.00">steps:</text>
<text text-anchor="start" x="319.5" y="-93" font-family="Arial" font-size="10.00">  send_notice → command.project.send_approval_notice</text>
<text text-anchor="start" x="290.5" y="-73" font-family="Arial" font-weight="bold" font-size="10.00">outcomes</text>
<text text-anchor="start" x="290.5" y="-62" font-family="Arial" font-size="10.00">completed</text>
<text text-anchor="start" x="336.5" y="-62" font-family="Arial" font-size="8.00" fill="#94a3b8">  schema.project.notice_result</text>
<text text-anchor="start" x="442.5" y="-62" font-family="Arial" font-size="8.00"> ← success</text>
<text text-anchor="start" x="290.5" y="-51" font-family="Arial" font-size="10.00">delivery_failed</text>
<text text-anchor="start" x="353.5" y="-51" font-family="Arial" font-size="8.00" fill="#94a3b8">  Problem</text>
<text text-anchor="start" x="388.5" y="-51" font-family="Arial" font-size="8.00"> ← failure</text>
<text text-anchor="start" x="290.5" y="-40" font-family="Arial" font-size="10.00">notice_access_denied</text>
<text text-anchor="start" x="387.5" y="-40" font-family="Arial" font-size="8.00" fill="#94a3b8">  Problem</text>
<text text-anchor="start" x="422.5" y="-40" font-family="Arial" font-size="8.00"> ← failure</text>
<text text-anchor="start" x="290.5" y="-29" font-family="Arial" font-size="10.00">notice_authentication_required</text>
<text text-anchor="start" x="423.5" y="-29" font-family="Arial" font-size="8.00" fill="#94a3b8">  Problem</text>
<text text-anchor="start" x="458.5" y="-29" font-family="Arial" font-size="8.00"> ← failure</text>
<polygon fill="none" stroke="#a16207" points="285,-20 285,-176 572,-176 572,-20 285,-20"/>
</g>
<!-- external_interface_external_interface_worker_project_approval_notice&#45;&gt;external_interface_target_workflow_project_approval_notice -->
<g id="edge1" class="edge">
<title>external_interface_external_interface_worker_project_approval_notice&#45;&gt;external_interface_target_workflow_project_approval_notice</title>
<path fill="none" stroke="#3f3f46" d="M224.32,-98C241.33,-98 259.13,-98 276.81,-98"/>
<polygon fill="#3f3f46" stroke="#3f3f46" points="276.93,-100.8 284.93,-98 276.93,-95.2 276.93,-100.8"/>
</g>
<!-- external_interface_response_external_interface_worker_project_approval_notice_accepted -->
<g id="node3" class="node">
<title>external_interface_response_external_interface_worker_project_approval_notice_accepted</title>
<polygon fill="#ffffff" stroke="transparent" points="633,-119 633,-181 765,-181 765,-119 633,-119"/>
<polygon fill="#16a34a" stroke="transparent" points="634,-172 634,-180 764,-180 764,-172 634,-172"/>
<polygon fill="#f0fdf4" stroke="transparent" points="634,-141 634,-172 764,-172 764,-141 634,-141"/>
<text text-anchor="start" x="638" y="-158.6" font-family="Arial" font-weight="bold" font-size="13.00">accepted</text>
<text text-anchor="start" x="638" y="-147.6" font-family="Arial" font-size="8.00" fill="#64748b">success disposition</text>
<text text-anchor="start" x="639" y="-129" font-family="Arial" font-weight="bold" font-size="10.00">disposition:</text>
<text text-anchor="start" x="695" y="-129" font-family="Arial" font-size="10.00">  acknowledge</text>
<polygon fill="none" stroke="#16a34a" points="633,-119 633,-181 765,-181 765,-119 633,-119"/>
</g>
<!-- external_interface_target_workflow_project_approval_notice&#45;&gt;external_interface_response_external_interface_worker_project_approval_notice_accepted -->
<g id="edge2" class="edge">
<title>external_interface_target_workflow_project_approval_notice&#45;&gt;external_interface_response_external_interface_worker_project_approval_notice_accepted</title>
<path fill="none" stroke="#3f3f46" d="M572,-125.6C590.23,-129.13 608.26,-132.62 624.73,-135.81"/>
<polygon fill="#3f3f46" stroke="#3f3f46" points="624.3,-138.58 632.68,-137.35 625.36,-133.08 624.3,-138.58"/>
</g>
<!-- external_interface_response_external_interface_worker_project_approval_notice_malformed -->
<g id="node4" class="node">
<title>external_interface_response_external_interface_worker_project_approval_notice_malformed</title>
<polygon fill="#ffffff" stroke="transparent" points="637.5,0 637.5,-92 760.5,-92 760.5,0 637.5,0"/>
<polygon fill="#dc2626" stroke="transparent" points="639,-83 639,-91 760,-91 760,-83 639,-83"/>
<polygon fill="#fef2f2" stroke="transparent" points="639,-52 639,-83 760,-83 760,-52 639,-52"/>
<text text-anchor="start" x="643" y="-69.6" font-family="Arial" font-weight="bold" font-size="13.00">malformed</text>
<text text-anchor="start" x="643" y="-58.6" font-family="Arial" font-size="8.00" fill="#64748b">failure disposition</text>
<text text-anchor="start" x="644" y="-40" font-family="Arial" font-weight="bold" font-size="10.00">disposition:</text>
<text text-anchor="start" x="700" y="-40" font-family="Arial" font-size="10.00">  dead_letter</text>
<text text-anchor="start" x="643" y="-20" font-family="Arial" font-weight="bold" font-size="10.00">problem</text>
<text text-anchor="start" x="643" y="-9" font-family="Arial" font-size="10.00">problem</text>
<text text-anchor="start" x="678" y="-9" font-family="Arial" font-size="8.00" fill="#94a3b8">  Problem</text>
<polygon fill="none" stroke="#dc2626" points="637.5,0 637.5,-92 760.5,-92 760.5,0 637.5,0"/>
</g>
<!-- external_interface_target_workflow_project_approval_notice&#45;&gt;external_interface_response_external_interface_worker_project_approval_notice_malformed -->
<g id="edge3" class="edge">
<title>external_interface_target_workflow_project_approval_notice&#45;&gt;external_interface_response_external_interface_worker_project_approval_notice_malformed</title>
<path fill="none" stroke="#3f3f46" d="M572,-70.4C591.92,-66.54 611.6,-62.73 629.27,-59.31"/>
<polygon fill="#3f3f46" stroke="#3f3f46" points="629.92,-62.04 637.24,-57.77 628.85,-56.54 629.92,-62.04"/>
</g>
<!-- external_interface_response_external_interface_worker_project_approval_notice_accepted&#45;&gt;external_interface_response_external_interface_worker_project_approval_notice_malformed -->
</g>
</svg>
