<svg width="813pt" height="217pt"
 viewBox="0.00 0.00 813.00 217.00" xmlns="http://www.w3.org/2000/svg" xmlns:xlink="http://www.w3.org/1999/xlink">
<!-- pyspec-contract-input-sha256: 751b616730a4f64188a92a0445b0d7371581abdd461bb36c209be216077bff14 -->
<g id="graph0" class="graph" transform="scale(1 1) rotate(0) translate(18 199)">
<title>external_interface_external_interface_worker_project_approval_notice</title>
<!-- external_interface_external_interface_worker_project_approval_notice -->
<g id="node1" class="node">
<title>external_interface_external_interface_worker_project_approval_notice</title>
<polygon fill="#ffffff" stroke="transparent" points="0,-25.5 0,-170.5 236,-170.5 236,-25.5 0,-25.5"/>
<polygon fill="#0891b2" stroke="transparent" points="1,-161 1,-169 235,-169 235,-161 1,-161"/>
<polygon fill="#ecfeff" stroke="transparent" points="1,-130 1,-161 235,-161 235,-130 1,-130"/>
<text text-anchor="start" x="5" y="-147.6" font-family="Arial" font-weight="bold" font-size="13.00">workflow.project.approval_notice</text>
<text text-anchor="start" x="5" y="-136.6" font-family="Arial" font-size="8.00" fill="#64748b">worker external interface</text>
<text text-anchor="start" x="5" y="-119" font-family="Arial" font-style="italic" font-size="10.00" fill="#3f3f46">Worker entry exposing the approval notice</text>
<text text-anchor="start" x="5" y="-108" font-family="Arial" font-style="italic" font-size="10.00" fill="#3f3f46">workflow.</text>
<text text-anchor="start" x="6" y="-88" font-family="Arial" font-weight="bold" font-size="10.00">workflow:</text>
<text text-anchor="start" x="52" y="-88" font-family="Arial" font-size="10.00">  workflow.project.approval_notice</text>
<text text-anchor="start" x="6" y="-76" font-family="Arial" font-weight="bold" font-size="10.00">payload:</text>
<text text-anchor="start" x="46" y="-76" font-family="Arial" font-size="10.00">  payload</text>
<text text-anchor="start" x="86" y="-76" font-family="Arial" font-size="8.00" fill="#94a3b8">  schema.project.approved</text>
<text text-anchor="start" x="5" y="-56" font-family="Arial" font-weight="bold" font-size="10.00">input mapping</text>
<text text-anchor="start" x="5" y="-44" font-family="Arial" font-size="10.00">approved_by ← adapter_input.payload.approved_by</text>
<text text-anchor="start" x="5" y="-33" font-family="Arial" font-size="10.00">project_id ← adapter_input.payload.project_id</text>
<polygon fill="none" stroke="#0891b2" points="0,-25.5 0,-170.5 236,-170.5 236,-25.5 0,-25.5"/>
</g>
<!-- external_interface_invocation_workflow_project_approval_notice -->
<g id="node2" class="node">
<title>external_interface_invocation_workflow_project_approval_notice</title>
<polygon fill="#ffffff" stroke="transparent" points="297,-20 297,-176 584,-176 584,-20 297,-20"/>
<polygon fill="#a16207" stroke="transparent" points="298.5,-167 298.5,-175 583.5,-175 583.5,-167 298.5,-167"/>
<polygon fill="#fefce8" stroke="transparent" points="298.5,-136 298.5,-167 583.5,-167 583.5,-136 298.5,-136"/>
<text text-anchor="start" x="302.5" y="-153.6" font-family="Arial" font-weight="bold" font-size="13.00">workflow.project.approval_notice</text>
<text text-anchor="start" x="302.5" y="-142.6" font-family="Arial" font-size="8.00" fill="#64748b">invoked workflow</text>
<text text-anchor="start" x="302.5" y="-125" font-family="Arial" font-style="italic" font-size="10.00" fill="#3f3f46">Approval domain event sends a downstream notice.</text>
<text text-anchor="start" x="303.5" y="-105" font-family="Arial" font-weight="bold" font-size="10.00">trigger:</text>
<text text-anchor="start" x="337.5" y="-105" font-family="Arial" font-size="10.00">  domain_event domain_event.project.approved</text>
<text text-anchor="start" x="303.5" y="-93" font-family="Arial" font-weight="bold" font-size="10.00">steps:</text>
<text text-anchor="start" x="331.5" y="-93" font-family="Arial" font-size="10.00">  send_notice → command.project.send_approval_notice</text>
<text text-anchor="start" x="302.5" y="-73" font-family="Arial" font-weight="bold" font-size="10.00">outcomes</text>
<text text-anchor="start" x="302.5" y="-62" font-family="Arial" font-size="10.00">completed</text>
<text text-anchor="start" x="348.5" y="-62" font-family="Arial" font-size="8.00" fill="#94a3b8">  schema.project.notice_result</text>
<text text-anchor="start" x="454.5" y="-62" font-family="Arial" font-size="8.00"> ← success</text>
<text text-anchor="start" x="302.5" y="-51" font-family="Arial" font-size="10.00">delivery_failed</text>
<text text-anchor="start" x="365.5" y="-51" font-family="Arial" font-size="8.00" fill="#94a3b8">  Problem</text>
<text text-anchor="start" x="400.5" y="-51" font-family="Arial" font-size="8.00"> ← failure</text>
<text text-anchor="start" x="302.5" y="-40" font-family="Arial" font-size="10.00">notice_access_denied</text>
<text text-anchor="start" x="399.5" y="-40" font-family="Arial" font-size="8.00" fill="#94a3b8">  Problem</text>
<text text-anchor="start" x="434.5" y="-40" font-family="Arial" font-size="8.00"> ← failure</text>
<text text-anchor="start" x="302.5" y="-29" font-family="Arial" font-size="10.00">notice_authentication_required</text>
<text text-anchor="start" x="435.5" y="-29" font-family="Arial" font-size="8.00" fill="#94a3b8">  Problem</text>
<text text-anchor="start" x="470.5" y="-29" font-family="Arial" font-size="8.00"> ← failure</text>
<polygon fill="none" stroke="#a16207" points="297,-20 297,-176 584,-176 584,-20 297,-20"/>
</g>
<!-- external_interface_external_interface_worker_project_approval_notice&#45;&gt;external_interface_invocation_workflow_project_approval_notice -->
<g id="edge1" class="edge">
<title>external_interface_external_interface_worker_project_approval_notice&#45;&gt;external_interface_invocation_workflow_project_approval_notice</title>
<path fill="none" stroke="#3f3f46" d="M236.07,-98C253.2,-98 271.05,-98 288.74,-98"/>
<polygon fill="#3f3f46" stroke="#3f3f46" points="288.86,-100.8 296.86,-98 288.86,-95.2 288.86,-100.8"/>
</g>
<!-- external_interface_response_external_interface_worker_project_approval_notice_accepted -->
<g id="node3" class="node">
<title>external_interface_response_external_interface_worker_project_approval_notice_accepted</title>
<polygon fill="#ffffff" stroke="transparent" points="645,-119 645,-181 777,-181 777,-119 645,-119"/>
<polygon fill="#16a34a" stroke="transparent" points="646,-172 646,-180 776,-180 776,-172 646,-172"/>
<polygon fill="#f0fdf4" stroke="transparent" points="646,-141 646,-172 776,-172 776,-141 646,-141"/>
<text text-anchor="start" x="650" y="-158.6" font-family="Arial" font-weight="bold" font-size="13.00">accepted</text>
<text text-anchor="start" x="650" y="-147.6" font-family="Arial" font-size="8.00" fill="#64748b">success disposition</text>
<text text-anchor="start" x="651" y="-129" font-family="Arial" font-weight="bold" font-size="10.00">disposition:</text>
<text text-anchor="start" x="707" y="-129" font-family="Arial" font-size="10.00">  acknowledge</text>
<polygon fill="none" stroke="#16a34a" points="645,-119 645,-181 777,-181 777,-119 645,-119"/>
</g>
<!-- external_interface_invocation_workflow_project_approval_notice&#45;&gt;external_interface_response_external_interface_worker_project_approval_notice_accepted -->
<g id="edge2" class="edge">
<title>external_interface_invocation_workflow_project_approval_notice&#45;&gt;external_interface_response_external_interface_worker_project_approval_notice_accepted</title>
<path fill="none" stroke="#3f3f46" d="M584,-125.6C602.23,-129.13 620.26,-132.62 636.73,-135.81"/>
<polygon fill="#3f3f46" stroke="#3f3f46" points="636.3,-138.58 644.68,-137.35 637.36,-133.08 636.3,-138.58"/>
</g>
<!-- external_interface_response_external_interface_worker_project_approval_notice_malformed -->
<g id="node4" class="node">
<title>external_interface_response_external_interface_worker_project_approval_notice_malformed</title>
<polygon fill="#ffffff" stroke="transparent" points="649.5,0 649.5,-92 772.5,-92 772.5,0 649.5,0"/>
<polygon fill="#dc2626" stroke="transparent" points="651,-83 651,-91 772,-91 772,-83 651,-83"/>
<polygon fill="#fef2f2" stroke="transparent" points="651,-52 651,-83 772,-83 772,-52 651,-52"/>
<text text-anchor="start" x="655" y="-69.6" font-family="Arial" font-weight="bold" font-size="13.00">malformed</text>
<text text-anchor="start" x="655" y="-58.6" font-family="Arial" font-size="8.00" fill="#64748b">failure disposition</text>
<text text-anchor="start" x="656" y="-40" font-family="Arial" font-weight="bold" font-size="10.00">disposition:</text>
<text text-anchor="start" x="712" y="-40" font-family="Arial" font-size="10.00">  dead_letter</text>
<text text-anchor="start" x="655" y="-20" font-family="Arial" font-weight="bold" font-size="10.00">problem</text>
<text text-anchor="start" x="655" y="-9" font-family="Arial" font-size="10.00">problem</text>
<text text-anchor="start" x="690" y="-9" font-family="Arial" font-size="8.00" fill="#94a3b8">  Problem</text>
<polygon fill="none" stroke="#dc2626" points="649.5,0 649.5,-92 772.5,-92 772.5,0 649.5,0"/>
</g>
<!-- external_interface_invocation_workflow_project_approval_notice&#45;&gt;external_interface_response_external_interface_worker_project_approval_notice_malformed -->
<g id="edge3" class="edge">
<title>external_interface_invocation_workflow_project_approval_notice&#45;&gt;external_interface_response_external_interface_worker_project_approval_notice_malformed</title>
<path fill="none" stroke="#3f3f46" d="M584,-70.4C603.92,-66.54 623.6,-62.73 641.27,-59.31"/>
<polygon fill="#3f3f46" stroke="#3f3f46" points="641.92,-62.04 649.24,-57.77 640.85,-56.54 641.92,-62.04"/>
</g>
<!-- external_interface_response_external_interface_worker_project_approval_notice_accepted&#45;&gt;external_interface_response_external_interface_worker_project_approval_notice_malformed -->
</g>
</svg>
