<svg width="1450pt" height="617pt"
 viewBox="0.00 0.00 1450.00 616.50" xmlns="http://www.w3.org/2000/svg" xmlns:xlink="http://www.w3.org/1999/xlink">
<!-- pyspec-contract-input-sha256: 795be82d8c15092f7cebc6dff5709baabef72f68024f5f841acd67c769deb942 -->
<g id="graph0" class="graph" transform="scale(1 1) rotate(0) translate(18 598.5)">
<title>application_action_application_action_project_archive</title>
<!-- application_action_input_application_action_project_archive -->
<g id="node1" class="node">
<title>application_action_input_application_action_project_archive</title>
<polygon fill="#ffffff" stroke="transparent" points="0,-250 0,-321 66,-321 66,-250 0,-250"/>
<polygon fill="#64748b" stroke="transparent" points="1,-311.5 1,-319.5 65,-319.5 65,-311.5 1,-311.5"/>
<polygon fill="#f8fafc" stroke="transparent" points="1,-280.5 1,-311.5 65,-311.5 65,-280.5 1,-280.5"/>
<text text-anchor="start" x="5" y="-298.1" font-family="Arial" font-weight="bold" font-size="13.00">input</text>
<text text-anchor="start" x="5" y="-287.1" font-family="Arial" font-size="8.00" fill="#64748b">action input</text>
<text text-anchor="start" x="5" y="-269.5" font-family="Arial" font-weight="bold" font-size="10.00">fields</text>
<text text-anchor="start" x="5" y="-258.5" font-family="Arial" font-size="10.00">project_id</text>
<text text-anchor="start" x="48" y="-258.5" font-family="Arial" font-size="8.00" fill="#94a3b8">  ID</text>
<polygon fill="none" stroke="#64748b" points="0,-250 0,-321 66,-321 66,-250 0,-250"/>
</g>
<!-- application_action_policy_authorization_policy_project_reviewer -->
<g id="node2" class="node">
<title>application_action_policy_authorization_policy_project_reviewer</title>
<polygon fill="#ffffff" stroke="transparent" points="168,-227.5 168,-343.5 415,-343.5 415,-227.5 168,-227.5"/>
<polygon fill="#c2410c" stroke="transparent" points="169.5,-334.5 169.5,-342.5 414.5,-342.5 414.5,-334.5 169.5,-334.5"/>
<polygon fill="#fff7ed" stroke="transparent" points="169.5,-303.5 169.5,-334.5 414.5,-334.5 414.5,-303.5 169.5,-303.5"/>
<text text-anchor="start" x="173.5" y="-321.1" font-family="Arial" font-weight="bold" font-size="13.00">authorization_policy.project.reviewer</text>
<text text-anchor="start" x="173.5" y="-310.1" font-family="Arial" font-size="8.00" fill="#64748b">authorization gate</text>
<text text-anchor="start" x="173.5" y="-292.5" font-family="Arial" font-style="italic" font-size="10.00" fill="#3f3f46">Reviewers may approve, archive, and send approval</text>
<text text-anchor="start" x="173.5" y="-281.5" font-family="Arial" font-style="italic" font-size="10.00" fill="#3f3f46">notices for dispatch projects.</text>
<text text-anchor="start" x="174.5" y="-261.5" font-family="Arial" font-weight="bold" font-size="10.00">effect:</text>
<text text-anchor="start" x="202.5" y="-261.5" font-family="Arial" font-size="10.00">  allow</text>
<text text-anchor="start" x="174.5" y="-249.5" font-family="Arial" font-weight="bold" font-size="10.00">subjects:</text>
<text text-anchor="start" x="217.5" y="-249.5" font-family="Arial" font-size="10.00">  actor</text>
<text text-anchor="start" x="174.5" y="-237.5" font-family="Arial" font-weight="bold" font-size="10.00">conditions:</text>
<text text-anchor="start" x="227.5" y="-237.5" font-family="Arial" font-size="10.00">  subject_has_role reviewer</text>
<polygon fill="none" stroke="#c2410c" points="168,-227.5 168,-343.5 415,-343.5 415,-227.5 168,-227.5"/>
</g>
<!-- application_action_input_application_action_project_archive&#45;&gt;application_action_policy_authorization_policy_project_reviewer -->
<g id="edge1" class="edge">
<title>application_action_input_application_action_project_archive&#45;&gt;application_action_policy_authorization_policy_project_reviewer</title>
<path fill="none" stroke="#3f3f46" stroke-width="1.2" d="M66.23,-285.5C90.21,-285.5 124.66,-285.5 159.4,-285.5"/>
<polygon fill="#3f3f46" stroke="#3f3f46" stroke-width="1.2" points="159.75,-288.3 167.75,-285.5 159.75,-282.7 159.75,-288.3"/>
<text text-anchor="middle" x="117" y="-288.5" font-family="Arial" font-size="10.00">authorize</text>
</g>
<!-- application_action_resource_application_action_project_archive_lifecycle_transition_entity_type_project_status -->
<g id="node3" class="node">
<title>application_action_resource_application_action_project_archive_lifecycle_transition_entity_type_project_status</title>
<polygon fill="#ffffff" stroke="transparent" points="559,-250 559,-321 868,-321 868,-250 559,-250"/>
<polygon fill="#15803d" stroke="transparent" points="560.5,-311.5 560.5,-319.5 867.5,-319.5 867.5,-311.5 560.5,-311.5"/>
<polygon fill="#f0fdfa" stroke="transparent" points="560.5,-280.5 560.5,-311.5 867.5,-311.5 867.5,-280.5 560.5,-280.5"/>
<text text-anchor="start" x="564.5" y="-298.1" font-family="Arial" font-weight="bold" font-size="13.00">entity_type.project</text>
<text text-anchor="start" x="564.5" y="-287.1" font-family="Arial" font-size="8.00" fill="#64748b">entity_type resource</text>
<text text-anchor="start" x="564.5" y="-269.5" font-family="Arial" font-weight="bold" font-size="10.00">change</text>
<text text-anchor="start" x="564.5" y="-258.5" font-family="Arial" font-size="10.00">Project.status</text>
<text text-anchor="start" x="625.5" y="-258.5" font-family="Arial" font-size="8.00" fill="#94a3b8">  enum&lt;draft|submitted|approved|archived&gt;</text>
<text text-anchor="start" x="781.5" y="-258.5" font-family="Arial" font-size="8.00">  approved → archived</text>
<polygon fill="none" stroke="#15803d" points="559,-250 559,-321 868,-321 868,-250 559,-250"/>
</g>
<!-- application_action_policy_authorization_policy_project_reviewer&#45;&gt;application_action_resource_application_action_project_archive_lifecycle_transition_entity_type_project_status -->
<g id="edge2" class="edge">
<title>application_action_policy_authorization_policy_project_reviewer&#45;&gt;application_action_resource_application_action_project_archive_lifecycle_transition_entity_type_project_status</title>
<path fill="none" stroke="#3f3f46" d="M415.11,-285.5C457.48,-285.5 505.63,-285.5 550.65,-285.5"/>
<polygon fill="#3f3f46" stroke="#3f3f46" points="550.73,-288.3 558.73,-285.5 550.73,-282.7 550.73,-288.3"/>
<text text-anchor="middle" x="487" y="-288.5" font-family="Arial" font-size="10.00">lifecycle_transition</text>
</g>
<!-- action_outcome_application_action_project_archive_forbidden -->
<g id="node5" class="node">
<title>action_outcome_application_action_project_archive_forbidden</title>
<polygon fill="#ffffff" stroke="transparent" points="1009,-375 1009,-446 1082,-446 1082,-375 1009,-375"/>
<polygon fill="#dc2626" stroke="transparent" points="1010.5,-436.5 1010.5,-444.5 1081.5,-444.5 1081.5,-436.5 1010.5,-436.5"/>
<polygon fill="#fef2f2" stroke="transparent" points="1010.5,-405.5 1010.5,-436.5 1081.5,-436.5 1081.5,-405.5 1010.5,-405.5"/>
<text text-anchor="start" x="1014.5" y="-423.1" font-family="Arial" font-weight="bold" font-size="13.00">forbidden</text>
<text text-anchor="start" x="1014.5" y="-412.1" font-family="Arial" font-size="8.00" fill="#64748b">failure outcome</text>
<text text-anchor="start" x="1014.5" y="-394.5" font-family="Arial" font-weight="bold" font-size="10.00">result</text>
<text text-anchor="start" x="1014.5" y="-383.5" font-family="Arial" font-size="10.00">result</text>
<text text-anchor="start" x="1039.5" y="-383.5" font-family="Arial" font-size="8.00" fill="#94a3b8">  Problem</text>
<polygon fill="none" stroke="#dc2626" points="1009,-375 1009,-446 1082,-446 1082,-375 1009,-375"/>
</g>
<!-- application_action_policy_authorization_policy_project_reviewer&#45;&gt;action_outcome_application_action_project_archive_forbidden -->
<g id="edge5" class="edge">
<title>application_action_policy_authorization_policy_project_reviewer&#45;&gt;action_outcome_application_action_project_archive_forbidden</title>
<path fill="none" stroke="#3f3f46" d="M415.1,-308.75C460.29,-317.13 511.93,-326.49 559,-334.5 721.59,-362.17 915.47,-391.39 1000.67,-404.04"/>
<polygon fill="#3f3f46" stroke="#3f3f46" points="1000.49,-406.84 1008.81,-405.25 1001.31,-401.3 1000.49,-406.84"/>
<text text-anchor="middle" x="713.5" y="-385.5" font-family="Arial" font-size="10.00">forbidden_as</text>
</g>
<!-- action_outcome_application_action_project_archive_unauthenticated -->
<g id="node8" class="node">
<title>action_outcome_application_action_project_archive_unauthenticated</title>
<polygon fill="#ffffff" stroke="transparent" points="988,0 988,-71 1103,-71 1103,0 988,0"/>
<polygon fill="#dc2626" stroke="transparent" points="989.5,-61.5 989.5,-69.5 1102.5,-69.5 1102.5,-61.5 989.5,-61.5"/>
<polygon fill="#fef2f2" stroke="transparent" points="989.5,-30.5 989.5,-61.5 1102.5,-61.5 1102.5,-30.5 989.5,-30.5"/>
<text text-anchor="start" x="993.5" y="-48.1" font-family="Arial" font-weight="bold" font-size="13.00">unauthenticated</text>
<text text-anchor="start" x="993.5" y="-37.1" font-family="Arial" font-size="8.00" fill="#64748b">failure outcome</text>
<text text-anchor="start" x="993.5" y="-19.5" font-family="Arial" font-weight="bold" font-size="10.00">result</text>
<text text-anchor="start" x="993.5" y="-8.5" font-family="Arial" font-size="10.00">result</text>
<text text-anchor="start" x="1018.5" y="-8.5" font-family="Arial" font-size="8.00" fill="#94a3b8">  Problem</text>
<polygon fill="none" stroke="#dc2626" points="988,0 988,-71 1103,-71 1103,0 988,0"/>
</g>
<!-- application_action_policy_authorization_policy_project_reviewer&#45;&gt;action_outcome_application_action_project_archive_unauthenticated -->
<g id="edge8" class="edge">
<title>application_action_policy_authorization_policy_project_reviewer&#45;&gt;action_outcome_application_action_project_archive_unauthenticated</title>
<path fill="none" stroke="#3f3f46" d="M415.42,-244.64C576.94,-190.94 854.78,-98.57 979.99,-56.95"/>
<polygon fill="#3f3f46" stroke="#3f3f46" points="980.94,-59.58 987.65,-54.4 979.18,-54.27 980.94,-59.58"/>
<text text-anchor="middle" x="713.5" y="-195.5" font-family="Arial" font-size="10.00">unauthenticated_as</text>
</g>
<!-- action_outcome_application_action_project_archive_archived -->
<g id="node4" class="node">
<title>action_outcome_application_action_project_archive_archived</title>
<polygon fill="#ffffff" stroke="transparent" points="1010,-500 1010,-571 1081,-571 1081,-500 1010,-500"/>
<polygon fill="#16a34a" stroke="transparent" points="1011.5,-561.5 1011.5,-569.5 1080.5,-569.5 1080.5,-561.5 1011.5,-561.5"/>
<polygon fill="#f0fdf4" stroke="transparent" points="1011.5,-530.5 1011.5,-561.5 1080.5,-561.5 1080.5,-530.5 1011.5,-530.5"/>
<text text-anchor="start" x="1015.5" y="-548.1" font-family="Arial" font-weight="bold" font-size="13.00">archived</text>
<text text-anchor="start" x="1015.5" y="-537.1" font-family="Arial" font-size="8.00" fill="#64748b">success outcome</text>
<text text-anchor="start" x="1015.5" y="-519.5" font-family="Arial" font-weight="bold" font-size="10.00">result</text>
<text text-anchor="start" x="1015.5" y="-508.5" font-family="Arial" font-size="10.00">result</text>
<text text-anchor="start" x="1040.5" y="-508.5" font-family="Arial" font-size="8.00" fill="#94a3b8">  Project</text>
<polygon fill="none" stroke="#16a34a" points="1010,-500 1010,-571 1081,-571 1081,-500 1010,-500"/>
</g>
<!-- application_action_resource_application_action_project_archive_lifecycle_transition_entity_type_project_status&#45;&gt;action_outcome_application_action_project_archive_archived -->
<g id="edge3" class="edge">
<title>application_action_resource_application_action_project_archive_lifecycle_transition_entity_type_project_status&#45;&gt;action_outcome_application_action_project_archive_archived</title>
<path fill="none" stroke="#3f3f46" d="M801.47,-321.08C824.01,-331.98 847.65,-344.98 868,-359.5 918.91,-395.83 922.67,-415.38 967,-459.5 978.94,-471.38 991.99,-484.23 1003.91,-495.92"/>
<polygon fill="#3f3f46" stroke="#3f3f46" points="1002,-497.96 1009.67,-501.56 1005.91,-493.96 1002,-497.96"/>
<text text-anchor="middle" x="917.5" y="-427.5" font-family="Arial" font-size="10.00">success</text>
</g>
<!-- action_outcome_application_action_project_archive_not_found -->
<g id="node6" class="node">
<title>action_outcome_application_action_project_archive_not_found</title>
<polygon fill="#ffffff" stroke="transparent" points="1007,-250 1007,-321 1084,-321 1084,-250 1007,-250"/>
<polygon fill="#dc2626" stroke="transparent" points="1008.5,-311.5 1008.5,-319.5 1083.5,-319.5 1083.5,-311.5 1008.5,-311.5"/>
<polygon fill="#fef2f2" stroke="transparent" points="1008.5,-280.5 1008.5,-311.5 1083.5,-311.5 1083.5,-280.5 1008.5,-280.5"/>
<text text-anchor="start" x="1012.5" y="-298.1" font-family="Arial" font-weight="bold" font-size="13.00">not_found</text>
<text text-anchor="start" x="1012.5" y="-287.1" font-family="Arial" font-size="8.00" fill="#64748b">failure outcome</text>
<text text-anchor="start" x="1012.5" y="-269.5" font-family="Arial" font-weight="bold" font-size="10.00">result</text>
<text text-anchor="start" x="1012.5" y="-258.5" font-family="Arial" font-size="10.00">result</text>
<text text-anchor="start" x="1037.5" y="-258.5" font-family="Arial" font-size="8.00" fill="#94a3b8">  Problem</text>
<polygon fill="none" stroke="#dc2626" points="1007,-250 1007,-321 1084,-321 1084,-250 1007,-250"/>
</g>
<!-- application_action_resource_application_action_project_archive_lifecycle_transition_entity_type_project_status&#45;&gt;action_outcome_application_action_project_archive_not_found -->
<g id="edge6" class="edge">
<title>application_action_resource_application_action_project_archive_lifecycle_transition_entity_type_project_status&#45;&gt;action_outcome_application_action_project_archive_not_found</title>
<path fill="none" stroke="#3f3f46" d="M868.39,-285.5C915.79,-285.5 964.42,-285.5 998.53,-285.5"/>
<polygon fill="#3f3f46" stroke="#3f3f46" points="998.88,-288.3 1006.88,-285.5 998.88,-282.7 998.88,-288.3"/>
<text text-anchor="middle" x="917.5" y="-288.5" font-family="Arial" font-size="10.00">failure</text>
</g>
<!-- action_outcome_application_action_project_archive_transition_not_allowed -->
<g id="node7" class="node">
<title>action_outcome_application_action_project_archive_transition_not_allowed</title>
<polygon fill="#ffffff" stroke="transparent" points="967,-125 967,-196 1124,-196 1124,-125 967,-125"/>
<polygon fill="#dc2626" stroke="transparent" points="968.5,-186.5 968.5,-194.5 1123.5,-194.5 1123.5,-186.5 968.5,-186.5"/>
<polygon fill="#fef2f2" stroke="transparent" points="968.5,-155.5 968.5,-186.5 1123.5,-186.5 1123.5,-155.5 968.5,-155.5"/>
<text text-anchor="start" x="972.5" y="-173.1" font-family="Arial" font-weight="bold" font-size="13.00">transition_not_allowed</text>
<text text-anchor="start" x="972.5" y="-162.1" font-family="Arial" font-size="8.00" fill="#64748b">failure outcome</text>
<text text-anchor="start" x="972.5" y="-144.5" font-family="Arial" font-weight="bold" font-size="10.00">result</text>
<text text-anchor="start" x="972.5" y="-133.5" font-family="Arial" font-size="10.00">result</text>
<text text-anchor="start" x="997.5" y="-133.5" font-family="Arial" font-size="8.00" fill="#94a3b8">  Problem</text>
<polygon fill="none" stroke="#dc2626" points="967,-125 967,-196 1124,-196 1124,-125 967,-125"/>
</g>
<!-- application_action_resource_application_action_project_archive_lifecycle_transition_entity_type_project_status&#45;&gt;action_outcome_application_action_project_archive_transition_not_allowed -->
<g id="edge7" class="edge">
<title>application_action_resource_application_action_project_archive_lifecycle_transition_entity_type_project_status&#45;&gt;action_outcome_application_action_project_archive_transition_not_allowed</title>
<path fill="none" stroke="#3f3f46" d="M808.62,-249.85C856.08,-231.87 913.2,-210.23 959.35,-192.75"/>
<polygon fill="#3f3f46" stroke="#3f3f46" points="960.46,-195.33 966.95,-189.88 958.47,-190.09 960.46,-195.33"/>
<text text-anchor="middle" x="917.5" y="-218.5" font-family="Arial" font-size="10.00">failure</text>
</g>
<!-- action_outcome_application_action_project_archive_archived&#45;&gt;action_outcome_application_action_project_archive_forbidden -->
<!-- application_action_event_application_action_project_archive_domain_event_project_archived -->
<g id="node9" class="node">
<title>application_action_event_application_action_project_archive_domain_event_project_archived</title>
<polygon fill="#ffffff" stroke="transparent" points="1205,-490.5 1205,-580.5 1414,-580.5 1414,-490.5 1205,-490.5"/>
<polygon fill="#4f46e5" stroke="transparent" points="1206.5,-571.5 1206.5,-579.5 1413.5,-579.5 1413.5,-571.5 1206.5,-571.5"/>
<polygon fill="#eef2ff" stroke="transparent" points="1206.5,-540.5 1206.5,-571.5 1413.5,-571.5 1413.5,-540.5 1206.5,-540.5"/>
<text text-anchor="start" x="1210.5" y="-558.1" font-family="Arial" font-weight="bold" font-size="13.00">domain_event.project.archived</text>
<text text-anchor="start" x="1210.5" y="-547.1" font-family="Arial" font-size="8.00" fill="#64748b">emitted event</text>
<text text-anchor="start" x="1210.5" y="-529.5" font-family="Arial" font-style="italic" font-size="10.00" fill="#3f3f46">Approved dispatch projects can be archived.</text>
<text text-anchor="start" x="1210.5" y="-510.5" font-family="Arial" font-weight="bold" font-size="10.00">payload</text>
<text text-anchor="start" x="1210.5" y="-499.5" font-family="Arial" font-size="10.00">payload</text>
<text text-anchor="start" x="1244.5" y="-499.5" font-family="Arial" font-size="8.00" fill="#94a3b8">  Project</text>
<polygon fill="none" stroke="#4f46e5" points="1205,-490.5 1205,-580.5 1414,-580.5 1414,-490.5 1205,-490.5"/>
</g>
<!-- action_outcome_application_action_project_archive_archived&#45;&gt;application_action_event_application_action_project_archive_domain_event_project_archived -->
<g id="edge4" class="edge">
<title>action_outcome_application_action_project_archive_archived&#45;&gt;application_action_event_application_action_project_archive_domain_event_project_archived</title>
<path fill="none" stroke="#3f3f46" stroke-width="1.2" d="M1081.02,-535.5C1110.65,-535.5 1155.07,-535.5 1196.8,-535.5"/>
<polygon fill="#3f3f46" stroke="#3f3f46" stroke-width="1.2" points="1196.84,-538.3 1204.84,-535.5 1196.84,-532.7 1196.84,-538.3"/>
<text text-anchor="middle" x="1164.5" y="-538.5" font-family="Arial" font-size="10.00">emit</text>
</g>
<!-- action_outcome_application_action_project_archive_forbidden&#45;&gt;action_outcome_application_action_project_archive_not_found -->
<!-- action_outcome_application_action_project_archive_not_found&#45;&gt;action_outcome_application_action_project_archive_transition_not_allowed -->
<!-- action_outcome_application_action_project_archive_transition_not_allowed&#45;&gt;action_outcome_application_action_project_archive_unauthenticated -->
</g>
</svg>
