<svg width="1462pt" height="617pt"
 viewBox="0.00 0.00 1462.00 616.50" xmlns="http://www.w3.org/2000/svg" xmlns:xlink="http://www.w3.org/1999/xlink">
<!-- pyspec-contract-input-sha256: b1e04ed7650c31980166093138d9eba4876e2fd90709edce7244b566f95e3ab9 -->
<g id="graph0" class="graph" transform="scale(1 1) rotate(0) translate(18 598.5)">
<title>application_action_application_action_project_archive</title>
<!-- application_action_input_application_action_project_archive -->
<g id="node1" class="node">
<title>application_action_input_application_action_project_archive</title>
<polygon fill="#ffffff" stroke="transparent" points="0,-250 0,-321 78,-321 78,-250 0,-250"/>
<polygon fill="#64748b" stroke="transparent" points="1,-311.5 1,-319.5 77,-319.5 77,-311.5 1,-311.5"/>
<polygon fill="#f8fafc" stroke="transparent" points="1,-280.5 1,-311.5 77,-311.5 77,-280.5 1,-280.5"/>
<text text-anchor="start" x="5" y="-298.1" font-family="Arial" font-weight="bold" font-size="13.00">input</text>
<text text-anchor="start" x="5" y="-287.1" font-family="Arial" font-size="8.00" fill="#64748b">action input</text>
<text text-anchor="start" x="5" y="-269.5" font-family="Arial" font-weight="bold" font-size="10.00">fields</text>
<text text-anchor="start" x="5" y="-258.5" font-family="Arial" font-size="10.00">project_id</text>
<text text-anchor="start" x="48" y="-258.5" font-family="Arial" font-size="8.00" fill="#94a3b8">  string</text>
<polygon fill="none" stroke="#64748b" points="0,-250 0,-321 78,-321 78,-250 0,-250"/>
</g>
<!-- application_action_policy_authorization_policy_project_reviewer -->
<g id="node2" class="node">
<title>application_action_policy_authorization_policy_project_reviewer</title>
<polygon fill="#ffffff" stroke="transparent" points="180,-227.5 180,-343.5 427,-343.5 427,-227.5 180,-227.5"/>
<polygon fill="#c2410c" stroke="transparent" points="181.5,-334.5 181.5,-342.5 426.5,-342.5 426.5,-334.5 181.5,-334.5"/>
<polygon fill="#fff7ed" stroke="transparent" points="181.5,-303.5 181.5,-334.5 426.5,-334.5 426.5,-303.5 181.5,-303.5"/>
<text text-anchor="start" x="185.5" y="-321.1" font-family="Arial" font-weight="bold" font-size="13.00">authorization_policy.project.reviewer</text>
<text text-anchor="start" x="185.5" y="-310.1" font-family="Arial" font-size="8.00" fill="#64748b">authorization gate</text>
<text text-anchor="start" x="185.5" y="-292.5" font-family="Arial" font-style="italic" font-size="10.00" fill="#3f3f46">Reviewers may approve, archive, and send approval</text>
<text text-anchor="start" x="185.5" y="-281.5" font-family="Arial" font-style="italic" font-size="10.00" fill="#3f3f46">notices for dispatch projects.</text>
<text text-anchor="start" x="186.5" y="-261.5" font-family="Arial" font-weight="bold" font-size="10.00">effect:</text>
<text text-anchor="start" x="214.5" y="-261.5" font-family="Arial" font-size="10.00">  allow</text>
<text text-anchor="start" x="186.5" y="-249.5" font-family="Arial" font-weight="bold" font-size="10.00">subjects:</text>
<text text-anchor="start" x="229.5" y="-249.5" font-family="Arial" font-size="10.00">  actor</text>
<text text-anchor="start" x="186.5" y="-237.5" font-family="Arial" font-weight="bold" font-size="10.00">conditions:</text>
<text text-anchor="start" x="239.5" y="-237.5" font-family="Arial" font-size="10.00">  subject_has_role reviewer</text>
<polygon fill="none" stroke="#c2410c" points="180,-227.5 180,-343.5 427,-343.5 427,-227.5 180,-227.5"/>
</g>
<!-- application_action_input_application_action_project_archive&#45;&gt;application_action_policy_authorization_policy_project_reviewer -->
<g id="edge1" class="edge">
<title>application_action_input_application_action_project_archive&#45;&gt;application_action_policy_authorization_policy_project_reviewer</title>
<path fill="none" stroke="#3f3f46" stroke-width="1.2" d="M78.17,-285.5C103.18,-285.5 137.48,-285.5 171.74,-285.5"/>
<polygon fill="#3f3f46" stroke="#3f3f46" stroke-width="1.2" points="171.98,-288.3 179.98,-285.5 171.98,-282.7 171.98,-288.3"/>
<text text-anchor="middle" x="129" y="-288.5" font-family="Arial" font-size="10.00">authorize</text>
</g>
<!-- application_action_resource_application_action_project_archive_lifecycle_transition_entity_type_project_status -->
<g id="node3" class="node">
<title>application_action_resource_application_action_project_archive_lifecycle_transition_entity_type_project_status</title>
<polygon fill="#ffffff" stroke="transparent" points="571,-250 571,-321 880,-321 880,-250 571,-250"/>
<polygon fill="#15803d" stroke="transparent" points="572.5,-311.5 572.5,-319.5 879.5,-319.5 879.5,-311.5 572.5,-311.5"/>
<polygon fill="#f0fdfa" stroke="transparent" points="572.5,-280.5 572.5,-311.5 879.5,-311.5 879.5,-280.5 572.5,-280.5"/>
<text text-anchor="start" x="576.5" y="-298.1" font-family="Arial" font-weight="bold" font-size="13.00">entity_type.project</text>
<text text-anchor="start" x="576.5" y="-287.1" font-family="Arial" font-size="8.00" fill="#64748b">entity_type resource</text>
<text text-anchor="start" x="576.5" y="-269.5" font-family="Arial" font-weight="bold" font-size="10.00">change</text>
<text text-anchor="start" x="576.5" y="-258.5" font-family="Arial" font-size="10.00">Project.status</text>
<text text-anchor="start" x="637.5" y="-258.5" font-family="Arial" font-size="8.00" fill="#94a3b8">  enum&lt;draft|submitted|approved|archived&gt;</text>
<text text-anchor="start" x="793.5" y="-258.5" font-family="Arial" font-size="8.00">  approved → archived</text>
<polygon fill="none" stroke="#15803d" points="571,-250 571,-321 880,-321 880,-250 571,-250"/>
</g>
<!-- application_action_policy_authorization_policy_project_reviewer&#45;&gt;application_action_resource_application_action_project_archive_lifecycle_transition_entity_type_project_status -->
<g id="edge2" class="edge">
<title>application_action_policy_authorization_policy_project_reviewer&#45;&gt;application_action_resource_application_action_project_archive_lifecycle_transition_entity_type_project_status</title>
<path fill="none" stroke="#3f3f46" d="M427.11,-285.5C469.48,-285.5 517.63,-285.5 562.65,-285.5"/>
<polygon fill="#3f3f46" stroke="#3f3f46" points="562.73,-288.3 570.73,-285.5 562.73,-282.7 562.73,-288.3"/>
<text text-anchor="middle" x="499" y="-288.5" font-family="Arial" font-size="10.00">lifecycle_transition</text>
</g>
<!-- action_outcome_application_action_project_archive_forbidden -->
<g id="node5" class="node">
<title>action_outcome_application_action_project_archive_forbidden</title>
<polygon fill="#ffffff" stroke="transparent" points="1021,-375 1021,-446 1094,-446 1094,-375 1021,-375"/>
<polygon fill="#dc2626" stroke="transparent" points="1022.5,-436.5 1022.5,-444.5 1093.5,-444.5 1093.5,-436.5 1022.5,-436.5"/>
<polygon fill="#fef2f2" stroke="transparent" points="1022.5,-405.5 1022.5,-436.5 1093.5,-436.5 1093.5,-405.5 1022.5,-405.5"/>
<text text-anchor="start" x="1026.5" y="-423.1" font-family="Arial" font-weight="bold" font-size="13.00">forbidden</text>
<text text-anchor="start" x="1026.5" y="-412.1" font-family="Arial" font-size="8.00" fill="#64748b">failure outcome</text>
<text text-anchor="start" x="1026.5" y="-394.5" font-family="Arial" font-weight="bold" font-size="10.00">result</text>
<text text-anchor="start" x="1026.5" y="-383.5" font-family="Arial" font-size="10.00">result</text>
<text text-anchor="start" x="1051.5" y="-383.5" font-family="Arial" font-size="8.00" fill="#94a3b8">  Problem</text>
<polygon fill="none" stroke="#dc2626" points="1021,-375 1021,-446 1094,-446 1094,-375 1021,-375"/>
</g>
<!-- application_action_policy_authorization_policy_project_reviewer&#45;&gt;action_outcome_application_action_project_archive_forbidden -->
<g id="edge5" class="edge">
<title>application_action_policy_authorization_policy_project_reviewer&#45;&gt;action_outcome_application_action_project_archive_forbidden</title>
<path fill="none" stroke="#3f3f46" d="M427.1,-308.75C472.29,-317.13 523.93,-326.49 571,-334.5 733.59,-362.17 927.47,-391.39 1012.67,-404.04"/>
<polygon fill="#3f3f46" stroke="#3f3f46" points="1012.49,-406.84 1020.81,-405.25 1013.31,-401.3 1012.49,-406.84"/>
<text text-anchor="middle" x="725.5" y="-385.5" font-family="Arial" font-size="10.00">forbidden_as</text>
</g>
<!-- action_outcome_application_action_project_archive_unauthenticated -->
<g id="node8" class="node">
<title>action_outcome_application_action_project_archive_unauthenticated</title>
<polygon fill="#ffffff" stroke="transparent" points="1000,0 1000,-71 1115,-71 1115,0 1000,0"/>
<polygon fill="#dc2626" stroke="transparent" points="1001.5,-61.5 1001.5,-69.5 1114.5,-69.5 1114.5,-61.5 1001.5,-61.5"/>
<polygon fill="#fef2f2" stroke="transparent" points="1001.5,-30.5 1001.5,-61.5 1114.5,-61.5 1114.5,-30.5 1001.5,-30.5"/>
<text text-anchor="start" x="1005.5" y="-48.1" font-family="Arial" font-weight="bold" font-size="13.00">unauthenticated</text>
<text text-anchor="start" x="1005.5" y="-37.1" font-family="Arial" font-size="8.00" fill="#64748b">failure outcome</text>
<text text-anchor="start" x="1005.5" y="-19.5" font-family="Arial" font-weight="bold" font-size="10.00">result</text>
<text text-anchor="start" x="1005.5" y="-8.5" font-family="Arial" font-size="10.00">result</text>
<text text-anchor="start" x="1030.5" y="-8.5" font-family="Arial" font-size="8.00" fill="#94a3b8">  Problem</text>
<polygon fill="none" stroke="#dc2626" points="1000,0 1000,-71 1115,-71 1115,0 1000,0"/>
</g>
<!-- application_action_policy_authorization_policy_project_reviewer&#45;&gt;action_outcome_application_action_project_archive_unauthenticated -->
<g id="edge8" class="edge">
<title>application_action_policy_authorization_policy_project_reviewer&#45;&gt;action_outcome_application_action_project_archive_unauthenticated</title>
<path fill="none" stroke="#3f3f46" d="M427.42,-244.64C588.94,-190.94 866.78,-98.57 991.99,-56.95"/>
<polygon fill="#3f3f46" stroke="#3f3f46" points="992.94,-59.58 999.65,-54.4 991.18,-54.27 992.94,-59.58"/>
<text text-anchor="middle" x="725.5" y="-195.5" font-family="Arial" font-size="10.00">unauthenticated_as</text>
</g>
<!-- action_outcome_application_action_project_archive_archived -->
<g id="node4" class="node">
<title>action_outcome_application_action_project_archive_archived</title>
<polygon fill="#ffffff" stroke="transparent" points="1022,-500 1022,-571 1093,-571 1093,-500 1022,-500"/>
<polygon fill="#16a34a" stroke="transparent" points="1023.5,-561.5 1023.5,-569.5 1092.5,-569.5 1092.5,-561.5 1023.5,-561.5"/>
<polygon fill="#f0fdf4" stroke="transparent" points="1023.5,-530.5 1023.5,-561.5 1092.5,-561.5 1092.5,-530.5 1023.5,-530.5"/>
<text text-anchor="start" x="1027.5" y="-548.1" font-family="Arial" font-weight="bold" font-size="13.00">archived</text>
<text text-anchor="start" x="1027.5" y="-537.1" font-family="Arial" font-size="8.00" fill="#64748b">success outcome</text>
<text text-anchor="start" x="1027.5" y="-519.5" font-family="Arial" font-weight="bold" font-size="10.00">result</text>
<text text-anchor="start" x="1027.5" y="-508.5" font-family="Arial" font-size="10.00">result</text>
<text text-anchor="start" x="1052.5" y="-508.5" font-family="Arial" font-size="8.00" fill="#94a3b8">  Project</text>
<polygon fill="none" stroke="#16a34a" points="1022,-500 1022,-571 1093,-571 1093,-500 1022,-500"/>
</g>
<!-- application_action_resource_application_action_project_archive_lifecycle_transition_entity_type_project_status&#45;&gt;action_outcome_application_action_project_archive_archived -->
<g id="edge3" class="edge">
<title>application_action_resource_application_action_project_archive_lifecycle_transition_entity_type_project_status&#45;&gt;action_outcome_application_action_project_archive_archived</title>
<path fill="none" stroke="#3f3f46" d="M813.47,-321.08C836.01,-331.98 859.65,-344.98 880,-359.5 930.91,-395.83 934.67,-415.38 979,-459.5 990.94,-471.38 1003.99,-484.23 1015.91,-495.92"/>
<polygon fill="#3f3f46" stroke="#3f3f46" points="1014,-497.96 1021.67,-501.56 1017.91,-493.96 1014,-497.96"/>
<text text-anchor="middle" x="929.5" y="-427.5" font-family="Arial" font-size="10.00">success</text>
</g>
<!-- action_outcome_application_action_project_archive_not_found -->
<g id="node6" class="node">
<title>action_outcome_application_action_project_archive_not_found</title>
<polygon fill="#ffffff" stroke="transparent" points="1019,-250 1019,-321 1096,-321 1096,-250 1019,-250"/>
<polygon fill="#dc2626" stroke="transparent" points="1020.5,-311.5 1020.5,-319.5 1095.5,-319.5 1095.5,-311.5 1020.5,-311.5"/>
<polygon fill="#fef2f2" stroke="transparent" points="1020.5,-280.5 1020.5,-311.5 1095.5,-311.5 1095.5,-280.5 1020.5,-280.5"/>
<text text-anchor="start" x="1024.5" y="-298.1" font-family="Arial" font-weight="bold" font-size="13.00">not_found</text>
<text text-anchor="start" x="1024.5" y="-287.1" font-family="Arial" font-size="8.00" fill="#64748b">failure outcome</text>
<text text-anchor="start" x="1024.5" y="-269.5" font-family="Arial" font-weight="bold" font-size="10.00">result</text>
<text text-anchor="start" x="1024.5" y="-258.5" font-family="Arial" font-size="10.00">result</text>
<text text-anchor="start" x="1049.5" y="-258.5" font-family="Arial" font-size="8.00" fill="#94a3b8">  Problem</text>
<polygon fill="none" stroke="#dc2626" points="1019,-250 1019,-321 1096,-321 1096,-250 1019,-250"/>
</g>
<!-- application_action_resource_application_action_project_archive_lifecycle_transition_entity_type_project_status&#45;&gt;action_outcome_application_action_project_archive_not_found -->
<g id="edge6" class="edge">
<title>application_action_resource_application_action_project_archive_lifecycle_transition_entity_type_project_status&#45;&gt;action_outcome_application_action_project_archive_not_found</title>
<path fill="none" stroke="#3f3f46" d="M880.39,-285.5C927.79,-285.5 976.42,-285.5 1010.53,-285.5"/>
<polygon fill="#3f3f46" stroke="#3f3f46" points="1010.88,-288.3 1018.88,-285.5 1010.88,-282.7 1010.88,-288.3"/>
<text text-anchor="middle" x="929.5" y="-288.5" font-family="Arial" font-size="10.00">failure</text>
</g>
<!-- action_outcome_application_action_project_archive_transition_not_allowed -->
<g id="node7" class="node">
<title>action_outcome_application_action_project_archive_transition_not_allowed</title>
<polygon fill="#ffffff" stroke="transparent" points="979,-125 979,-196 1136,-196 1136,-125 979,-125"/>
<polygon fill="#dc2626" stroke="transparent" points="980.5,-186.5 980.5,-194.5 1135.5,-194.5 1135.5,-186.5 980.5,-186.5"/>
<polygon fill="#fef2f2" stroke="transparent" points="980.5,-155.5 980.5,-186.5 1135.5,-186.5 1135.5,-155.5 980.5,-155.5"/>
<text text-anchor="start" x="984.5" y="-173.1" font-family="Arial" font-weight="bold" font-size="13.00">transition_not_allowed</text>
<text text-anchor="start" x="984.5" y="-162.1" font-family="Arial" font-size="8.00" fill="#64748b">failure outcome</text>
<text text-anchor="start" x="984.5" y="-144.5" font-family="Arial" font-weight="bold" font-size="10.00">result</text>
<text text-anchor="start" x="984.5" y="-133.5" font-family="Arial" font-size="10.00">result</text>
<text text-anchor="start" x="1009.5" y="-133.5" font-family="Arial" font-size="8.00" fill="#94a3b8">  Problem</text>
<polygon fill="none" stroke="#dc2626" points="979,-125 979,-196 1136,-196 1136,-125 979,-125"/>
</g>
<!-- application_action_resource_application_action_project_archive_lifecycle_transition_entity_type_project_status&#45;&gt;action_outcome_application_action_project_archive_transition_not_allowed -->
<g id="edge7" class="edge">
<title>application_action_resource_application_action_project_archive_lifecycle_transition_entity_type_project_status&#45;&gt;action_outcome_application_action_project_archive_transition_not_allowed</title>
<path fill="none" stroke="#3f3f46" d="M820.62,-249.85C868.08,-231.87 925.2,-210.23 971.35,-192.75"/>
<polygon fill="#3f3f46" stroke="#3f3f46" points="972.46,-195.33 978.95,-189.88 970.47,-190.09 972.46,-195.33"/>
<text text-anchor="middle" x="929.5" y="-218.5" font-family="Arial" font-size="10.00">failure</text>
</g>
<!-- action_outcome_application_action_project_archive_archived&#45;&gt;action_outcome_application_action_project_archive_forbidden -->
<!-- application_action_event_application_action_project_archive_domain_event_project_archived -->
<g id="node9" class="node">
<title>application_action_event_application_action_project_archive_domain_event_project_archived</title>
<polygon fill="#ffffff" stroke="transparent" points="1217,-490.5 1217,-580.5 1426,-580.5 1426,-490.5 1217,-490.5"/>
<polygon fill="#4f46e5" stroke="transparent" points="1218.5,-571.5 1218.5,-579.5 1425.5,-579.5 1425.5,-571.5 1218.5,-571.5"/>
<polygon fill="#eef2ff" stroke="transparent" points="1218.5,-540.5 1218.5,-571.5 1425.5,-571.5 1425.5,-540.5 1218.5,-540.5"/>
<text text-anchor="start" x="1222.5" y="-558.1" font-family="Arial" font-weight="bold" font-size="13.00">domain_event.project.archived</text>
<text text-anchor="start" x="1222.5" y="-547.1" font-family="Arial" font-size="8.00" fill="#64748b">emitted event</text>
<text text-anchor="start" x="1222.5" y="-529.5" font-family="Arial" font-style="italic" font-size="10.00" fill="#3f3f46">Approved dispatch projects can be archived.</text>
<text text-anchor="start" x="1222.5" y="-510.5" font-family="Arial" font-weight="bold" font-size="10.00">payload</text>
<text text-anchor="start" x="1222.5" y="-499.5" font-family="Arial" font-size="10.00">payload</text>
<text text-anchor="start" x="1256.5" y="-499.5" font-family="Arial" font-size="8.00" fill="#94a3b8">  Project</text>
<polygon fill="none" stroke="#4f46e5" points="1217,-490.5 1217,-580.5 1426,-580.5 1426,-490.5 1217,-490.5"/>
</g>
<!-- action_outcome_application_action_project_archive_archived&#45;&gt;application_action_event_application_action_project_archive_domain_event_project_archived -->
<g id="edge4" class="edge">
<title>action_outcome_application_action_project_archive_archived&#45;&gt;application_action_event_application_action_project_archive_domain_event_project_archived</title>
<path fill="none" stroke="#3f3f46" stroke-width="1.2" d="M1093.02,-535.5C1122.65,-535.5 1167.07,-535.5 1208.8,-535.5"/>
<polygon fill="#3f3f46" stroke="#3f3f46" stroke-width="1.2" points="1208.84,-538.3 1216.84,-535.5 1208.84,-532.7 1208.84,-538.3"/>
<text text-anchor="middle" x="1176.5" y="-538.5" font-family="Arial" font-size="10.00">emit</text>
</g>
<!-- action_outcome_application_action_project_archive_forbidden&#45;&gt;action_outcome_application_action_project_archive_not_found -->
<!-- action_outcome_application_action_project_archive_not_found&#45;&gt;action_outcome_application_action_project_archive_transition_not_allowed -->
<!-- action_outcome_application_action_project_archive_transition_not_allowed&#45;&gt;action_outcome_application_action_project_archive_unauthenticated -->
</g>
</svg>
