<svg width="1558pt" height="327pt"
 viewBox="0.00 0.00 1558.00 326.50" xmlns="http://www.w3.org/2000/svg" xmlns:xlink="http://www.w3.org/1999/xlink">
<!-- pyspec-contract-input-sha256: 949b84ef17691149d3e4f56afef120c6d02685e5d115dac1768b3c7a9a1bdc9c -->
<g id="graph0" class="graph" transform="scale(1 1) rotate(0) translate(18 308.5)">
<title>fsm_state_machine_project_list</title>
<!-- initial -->
<g id="node1" class="node">
<title>initial</title>
<ellipse fill="none" stroke="#0891b2" cx="21" cy="-127" rx="21" ry="21"/>
<text text-anchor="middle" x="21" y="-124.8" font-family="Arial" font-size="9.00" fill="#155e75">initial</text>
</g>
<!-- state_loading -->
<g id="node4" class="node">
<title>state_loading</title>
<polygon fill="#ffffff" stroke="transparent" points="103,-96 103,-158 289,-158 289,-96 103,-96"/>
<polygon fill="#0891b2" stroke="transparent" points="104,-149 104,-157 288,-157 288,-149 104,-149"/>
<polygon fill="#ecfeff" stroke="transparent" points="104,-118 104,-149 288,-149 288,-118 104,-118"/>
<text text-anchor="start" x="108" y="-135.6" font-family="Arial" font-weight="bold" font-size="13.00">loading</text>
<text text-anchor="start" x="108" y="-124.6" font-family="Arial" font-size="8.00" fill="#64748b">initial state</text>
<text text-anchor="start" x="109" y="-106" font-family="Arial" font-weight="bold" font-size="10.00">copy:</text>
<text text-anchor="start" x="135" y="-106" font-family="Arial" font-size="10.00">  text.project.list.loading.message</text>
<polygon fill="none" stroke="#0891b2" points="103,-96 103,-158 289,-158 289,-96 103,-96"/>
</g>
<!-- initial&#45;&gt;state_loading -->
<g id="edge1" class="edge">
<title>initial&#45;&gt;state_loading</title>
<path fill="none" stroke="#3f3f46" d="M42.18,-127C55.66,-127 74.5,-127 94.36,-127"/>
<polygon fill="#3f3f46" stroke="#3f3f46" points="94.62,-129.8 102.62,-127 94.62,-124.2 94.62,-129.8"/>
</g>
<!-- state_empty -->
<g id="node2" class="node">
<title>state_empty</title>
<polygon fill="#ffffff" stroke="transparent" points="599,-175.5 599,-290.5 799,-290.5 799,-175.5 599,-175.5"/>
<polygon fill="#71717a" stroke="transparent" points="600,-281 600,-289 798,-289 798,-281 600,-281"/>
<polygon fill="#f8fafc" stroke="transparent" points="600,-250 600,-281 798,-281 798,-250 600,-250"/>
<text text-anchor="start" x="604" y="-267.6" font-family="Arial" font-weight="bold" font-size="13.00">empty</text>
<text text-anchor="start" x="604" y="-256.6" font-family="Arial" font-size="8.00" fill="#64748b">state</text>
<text text-anchor="start" x="604" y="-239" font-family="Arial" font-weight="bold" font-size="10.00">copy</text>
<text text-anchor="start" x="604" y="-227" font-family="Arial" font-size="10.00">text.project.list.empty.heading</text>
<text text-anchor="start" x="604" y="-216" font-family="Arial" font-size="10.00">text.project.list.empty.body</text>
<text text-anchor="start" x="605" y="-197" font-family="Arial" font-weight="bold" font-size="10.00">assets:</text>
<text text-anchor="start" x="638" y="-197" font-family="Arial" font-size="10.00">  asset.project.list.empty.illustration</text>
<text text-anchor="start" x="605" y="-185" font-family="Arial" font-weight="bold" font-size="10.00">actions:</text>
<text text-anchor="start" x="642" y="-185" font-family="Arial" font-size="10.00">  operation.project.create</text>
<text text-anchor="start" x="751" y="-185" font-family="Arial" font-size="8.00" fill="#94a3b8">  Project</text>
<polygon fill="none" stroke="#71717a" points="599,-175.5 599,-290.5 799,-290.5 799,-175.5 599,-175.5"/>
</g>
<!-- transition_3_empty_ready_data_ready -->
<g id="node9" class="node">
<title>transition_3_empty_ready_data_ready</title>
<polygon fill="#ffffff" stroke="transparent" points="860,-194 860,-280 1048,-280 1048,-194 860,-194"/>
<polygon fill="#2563eb" stroke="transparent" points="861,-271 861,-279 1047,-279 1047,-271 861,-271"/>
<polygon fill="#eff6ff" stroke="transparent" points="861,-240 861,-271 1047,-271 1047,-240 861,-240"/>
<text text-anchor="start" x="865" y="-257.6" font-family="Arial" font-weight="bold" font-size="13.00">data.ready</text>
<text text-anchor="start" x="865" y="-246.6" font-family="Arial" font-size="8.00" fill="#64748b">transition event</text>
<text text-anchor="start" x="866" y="-228" font-family="Arial" font-weight="bold" font-size="10.00">input:</text>
<text text-anchor="start" x="894" y="-228" font-family="Arial" font-size="10.00">  workspace_id</text>
<text text-anchor="start" x="961" y="-228" font-family="Arial" font-size="8.00" fill="#94a3b8">  ID</text>
<text text-anchor="start" x="866" y="-216" font-family="Arial" font-weight="bold" font-size="10.00">query:</text>
<text text-anchor="start" x="896" y="-216" font-family="Arial" font-size="10.00">  query.project.list.list</text>
<text text-anchor="start" x="866" y="-204" font-family="Arial" font-weight="bold" font-size="10.00">load:</text>
<text text-anchor="start" x="890" y="-204" font-family="Arial" font-size="10.00">  operation.project.list</text>
<text text-anchor="start" x="984" y="-204" font-family="Arial" font-size="8.00" fill="#94a3b8">  array&lt;Project&gt;</text>
<polygon fill="none" stroke="#2563eb" points="860,-194 860,-280 1048,-280 1048,-194 860,-194"/>
</g>
<!-- state_empty&#45;&gt;transition_3_empty_ready_data_ready -->
<g id="edge8" class="edge">
<title>state_empty&#45;&gt;transition_3_empty_ready_data_ready</title>
<path fill="none" stroke="#3f3f46" d="M799.27,-234.57C816.4,-234.84 834.23,-235.12 851.42,-235.39"/>
<polygon fill="#3f3f46" stroke="#3f3f46" points="851.76,-238.2 859.8,-235.53 851.85,-232.6 851.76,-238.2"/>
</g>
<!-- state_error -->
<g id="node3" class="node">
<title>state_error</title>
<polygon fill="#ffffff" stroke="transparent" points="632,-2 632,-84 766,-84 766,-2 632,-2"/>
<polygon fill="#71717a" stroke="transparent" points="633,-75 633,-83 765,-83 765,-75 633,-75"/>
<polygon fill="#f8fafc" stroke="transparent" points="633,-44 633,-75 765,-75 765,-44 633,-44"/>
<text text-anchor="start" x="637" y="-61.6" font-family="Arial" font-weight="bold" font-size="13.00">error</text>
<text text-anchor="start" x="637" y="-50.6" font-family="Arial" font-size="8.00" fill="#64748b">state</text>
<text text-anchor="start" x="637" y="-33" font-family="Arial" font-weight="bold" font-size="10.00">copy</text>
<text text-anchor="start" x="637" y="-21" font-family="Arial" font-size="10.00">text.project.list.error.heading</text>
<text text-anchor="start" x="637" y="-10" font-family="Arial" font-size="10.00">text.project.list.error.body</text>
<polygon fill="none" stroke="#71717a" points="632,-2 632,-84 766,-84 766,-2 632,-2"/>
</g>
<!-- transition_0_loading_empty_data_empty -->
<g id="node6" class="node">
<title>transition_0_loading_empty_data_empty</title>
<polygon fill="#ffffff" stroke="transparent" points="350,-175 350,-261 538,-261 538,-175 350,-175"/>
<polygon fill="#2563eb" stroke="transparent" points="351,-252 351,-260 537,-260 537,-252 351,-252"/>
<polygon fill="#eff6ff" stroke="transparent" points="351,-221 351,-252 537,-252 537,-221 351,-221"/>
<text text-anchor="start" x="355" y="-238.6" font-family="Arial" font-weight="bold" font-size="13.00">data.empty</text>
<text text-anchor="start" x="355" y="-227.6" font-family="Arial" font-size="8.00" fill="#64748b">transition event</text>
<text text-anchor="start" x="356" y="-209" font-family="Arial" font-weight="bold" font-size="10.00">input:</text>
<text text-anchor="start" x="384" y="-209" font-family="Arial" font-size="10.00">  workspace_id</text>
<text text-anchor="start" x="451" y="-209" font-family="Arial" font-size="8.00" fill="#94a3b8">  ID</text>
<text text-anchor="start" x="356" y="-197" font-family="Arial" font-weight="bold" font-size="10.00">query:</text>
<text text-anchor="start" x="386" y="-197" font-family="Arial" font-size="10.00">  query.project.list.list</text>
<text text-anchor="start" x="356" y="-185" font-family="Arial" font-weight="bold" font-size="10.00">load:</text>
<text text-anchor="start" x="380" y="-185" font-family="Arial" font-size="10.00">  operation.project.list</text>
<text text-anchor="start" x="474" y="-185" font-family="Arial" font-size="8.00" fill="#94a3b8">  array&lt;Project&gt;</text>
<polygon fill="none" stroke="#2563eb" points="350,-175 350,-261 538,-261 538,-175 350,-175"/>
</g>
<!-- state_loading&#45;&gt;transition_0_loading_empty_data_empty -->
<g id="edge2" class="edge">
<title>state_loading&#45;&gt;transition_0_loading_empty_data_empty</title>
<path fill="none" stroke="#3f3f46" d="M280.97,-158.06C300.6,-165.32 321.7,-173.13 341.98,-180.63"/>
<polygon fill="#3f3f46" stroke="#3f3f46" points="341.23,-183.34 349.7,-183.49 343.17,-178.09 341.23,-183.34"/>
</g>
<!-- transition_1_loading_ready_data_ready -->
<g id="node7" class="node">
<title>transition_1_loading_ready_data_ready</title>
<polygon fill="#ffffff" stroke="transparent" points="860,-81 860,-167 1048,-167 1048,-81 860,-81"/>
<polygon fill="#2563eb" stroke="transparent" points="861,-158 861,-166 1047,-166 1047,-158 861,-158"/>
<polygon fill="#eff6ff" stroke="transparent" points="861,-127 861,-158 1047,-158 1047,-127 861,-127"/>
<text text-anchor="start" x="865" y="-144.6" font-family="Arial" font-weight="bold" font-size="13.00">data.ready</text>
<text text-anchor="start" x="865" y="-133.6" font-family="Arial" font-size="8.00" fill="#64748b">transition event</text>
<text text-anchor="start" x="866" y="-115" font-family="Arial" font-weight="bold" font-size="10.00">input:</text>
<text text-anchor="start" x="894" y="-115" font-family="Arial" font-size="10.00">  workspace_id</text>
<text text-anchor="start" x="961" y="-115" font-family="Arial" font-size="8.00" fill="#94a3b8">  ID</text>
<text text-anchor="start" x="866" y="-103" font-family="Arial" font-weight="bold" font-size="10.00">query:</text>
<text text-anchor="start" x="896" y="-103" font-family="Arial" font-size="10.00">  query.project.list.list</text>
<text text-anchor="start" x="866" y="-91" font-family="Arial" font-weight="bold" font-size="10.00">load:</text>
<text text-anchor="start" x="890" y="-91" font-family="Arial" font-size="10.00">  operation.project.list</text>
<text text-anchor="start" x="984" y="-91" font-family="Arial" font-size="8.00" fill="#94a3b8">  array&lt;Project&gt;</text>
<polygon fill="none" stroke="#2563eb" points="860,-81 860,-167 1048,-167 1048,-81 860,-81"/>
</g>
<!-- state_loading&#45;&gt;transition_1_loading_ready_data_ready -->
<g id="edge4" class="edge">
<title>state_loading&#45;&gt;transition_1_loading_ready_data_ready</title>
<path fill="none" stroke="#3f3f46" d="M289.32,-126.63C431.68,-126.07 703.76,-124.99 851.49,-124.4"/>
<polygon fill="#3f3f46" stroke="#3f3f46" points="851.74,-127.2 859.73,-124.37 851.72,-121.6 851.74,-127.2"/>
</g>
<!-- transition_2_loading_error_data_error -->
<g id="node8" class="node">
<title>transition_2_loading_error_data_error</title>
<polygon fill="#ffffff" stroke="transparent" points="350,0 350,-86 538,-86 538,0 350,0"/>
<polygon fill="#2563eb" stroke="transparent" points="351,-77 351,-85 537,-85 537,-77 351,-77"/>
<polygon fill="#eff6ff" stroke="transparent" points="351,-46 351,-77 537,-77 537,-46 351,-46"/>
<text text-anchor="start" x="355" y="-63.6" font-family="Arial" font-weight="bold" font-size="13.00">data.error</text>
<text text-anchor="start" x="355" y="-52.6" font-family="Arial" font-size="8.00" fill="#64748b">transition event</text>
<text text-anchor="start" x="356" y="-34" font-family="Arial" font-weight="bold" font-size="10.00">input:</text>
<text text-anchor="start" x="384" y="-34" font-family="Arial" font-size="10.00">  workspace_id</text>
<text text-anchor="start" x="451" y="-34" font-family="Arial" font-size="8.00" fill="#94a3b8">  ID</text>
<text text-anchor="start" x="356" y="-22" font-family="Arial" font-weight="bold" font-size="10.00">query:</text>
<text text-anchor="start" x="386" y="-22" font-family="Arial" font-size="10.00">  query.project.list.list</text>
<text text-anchor="start" x="356" y="-10" font-family="Arial" font-weight="bold" font-size="10.00">load:</text>
<text text-anchor="start" x="380" y="-10" font-family="Arial" font-size="10.00">  operation.project.list</text>
<text text-anchor="start" x="474" y="-10" font-family="Arial" font-size="8.00" fill="#94a3b8">  array&lt;Project&gt;</text>
<polygon fill="none" stroke="#2563eb" points="350,0 350,-86 538,-86 538,0 350,0"/>
</g>
<!-- state_loading&#45;&gt;transition_2_loading_error_data_error -->
<g id="edge6" class="edge">
<title>state_loading&#45;&gt;transition_2_loading_error_data_error</title>
<path fill="none" stroke="#3f3f46" d="M287.9,-95.96C305.51,-89.95 324.05,-83.62 341.96,-77.5"/>
<polygon fill="#3f3f46" stroke="#3f3f46" points="342.93,-80.13 349.59,-74.9 341.12,-74.83 342.93,-80.13"/>
</g>
<!-- state_ready -->
<g id="node5" class="node">
<title>state_ready</title>
<polygon fill="#ffffff" stroke="transparent" points="1109,-97 1109,-263 1303,-263 1303,-97 1109,-97"/>
<polygon fill="#71717a" stroke="transparent" points="1110,-254 1110,-262 1302,-262 1302,-254 1110,-254"/>
<polygon fill="#f8fafc" stroke="transparent" points="1110,-223 1110,-254 1302,-254 1302,-223 1110,-223"/>
<text text-anchor="start" x="1114" y="-240.6" font-family="Arial" font-weight="bold" font-size="13.00">ready</text>
<text text-anchor="start" x="1114" y="-229.6" font-family="Arial" font-size="8.00" fill="#64748b">state</text>
<text text-anchor="start" x="1115" y="-211" font-family="Arial" font-weight="bold" font-size="10.00">copy:</text>
<text text-anchor="start" x="1141" y="-211" font-family="Arial" font-size="10.00">  text.project.list.ready.heading</text>
<text text-anchor="start" x="1114" y="-191" font-family="Arial" font-weight="bold" font-size="10.00">operation.project.list fields</text>
<text text-anchor="start" x="1114" y="-180" font-family="Arial" font-size="10.00">title</text>
<text text-anchor="start" x="1130" y="-180" font-family="Arial" font-size="8.00" fill="#94a3b8">  Text</text>
<text text-anchor="start" x="1114" y="-169" font-family="Arial" font-size="10.00">customer</text>
<text text-anchor="start" x="1155" y="-169" font-family="Arial" font-size="8.00" fill="#94a3b8">  Text</text>
<text text-anchor="start" x="1114" y="-158" font-family="Arial" font-size="10.00">priority</text>
<text text-anchor="start" x="1144" y="-158" font-family="Arial" font-size="8.00" fill="#94a3b8">  Text</text>
<text text-anchor="start" x="1114" y="-147" font-family="Arial" font-size="10.00">status</text>
<text text-anchor="start" x="1142" y="-147" font-family="Arial" font-size="8.00" fill="#94a3b8">  enum&lt;draft|submitted|approved|archived&gt;</text>
<text text-anchor="start" x="1114" y="-128" font-family="Arial" font-weight="bold" font-size="10.00">actions</text>
<text text-anchor="start" x="1114" y="-117" font-family="Arial" font-size="10.00">operation.project.create</text>
<text text-anchor="start" x="1217" y="-117" font-family="Arial" font-size="8.00" fill="#94a3b8">  Project</text>
<text text-anchor="start" x="1114" y="-106" font-family="Arial" font-size="10.00">operation.project.submit</text>
<text text-anchor="start" x="1219" y="-106" font-family="Arial" font-size="8.00" fill="#94a3b8">  Project</text>
<polygon fill="none" stroke="#71717a" points="1109,-97 1109,-263 1303,-263 1303,-97 1109,-97"/>
</g>
<!-- transition_4_ready_ready_message_project_select -->
<g id="node10" class="node">
<title>transition_4_ready_ready_message_project_select</title>
<polygon fill="#ffffff" stroke="transparent" points="1364,-143 1364,-217 1522,-217 1522,-143 1364,-143"/>
<polygon fill="#2563eb" stroke="transparent" points="1365,-208 1365,-216 1521,-216 1521,-208 1365,-208"/>
<polygon fill="#eff6ff" stroke="transparent" points="1365,-177 1365,-208 1521,-208 1521,-177 1365,-177"/>
<text text-anchor="start" x="1369" y="-194.6" font-family="Arial" font-weight="bold" font-size="13.00">message.project.select</text>
<text text-anchor="start" x="1369" y="-183.6" font-family="Arial" font-size="8.00" fill="#64748b">transition event</text>
<text text-anchor="start" x="1370" y="-165" font-family="Arial" font-weight="bold" font-size="10.00">emit:</text>
<text text-anchor="start" x="1394" y="-165" font-family="Arial" font-size="10.00">  message.project.selected</text>
<text text-anchor="start" x="1370" y="-153" font-family="Arial" font-weight="bold" font-size="10.00">payload:</text>
<text text-anchor="start" x="1410" y="-153" font-family="Arial" font-size="10.00">  project_id</text>
<text text-anchor="start" x="1459" y="-153" font-family="Arial" font-size="8.00" fill="#94a3b8">  ID</text>
<polygon fill="none" stroke="#2563eb" points="1364,-143 1364,-217 1522,-217 1522,-143 1364,-143"/>
</g>
<!-- state_ready&#45;&gt;transition_4_ready_ready_message_project_select -->
<g id="edge10" class="edge">
<title>state_ready&#45;&gt;transition_4_ready_ready_message_project_select</title>
<path fill="none" stroke="#3f3f46" d="M1303.26,-170.39C1320.58,-170.16 1338.54,-170.21 1355.56,-170.56"/>
<polygon fill="#3f3f46" stroke="#3f3f46" points="1355.77,-173.36 1363.83,-170.75 1355.9,-167.77 1355.77,-173.36"/>
</g>
<!-- transition_0_loading_empty_data_empty&#45;&gt;state_empty -->
<g id="edge3" class="edge">
<title>transition_0_loading_empty_data_empty&#45;&gt;state_empty</title>
<path fill="none" stroke="#3f3f46" d="M538.13,-223.52C555.24,-224.54 573.22,-225.6 590.7,-226.64"/>
<polygon fill="#3f3f46" stroke="#3f3f46" points="590.54,-229.43 598.69,-227.11 590.87,-223.84 590.54,-229.43"/>
</g>
<!-- transition_1_loading_ready_data_ready&#45;&gt;state_ready -->
<g id="edge5" class="edge">
<title>transition_1_loading_ready_data_ready&#45;&gt;state_ready</title>
<path fill="none" stroke="#3f3f46" d="M1048.09,-144.85C1065.31,-148.71 1083.39,-152.76 1100.9,-156.68"/>
<polygon fill="#3f3f46" stroke="#3f3f46" points="1100.49,-159.46 1108.91,-158.48 1101.71,-153.99 1100.49,-159.46"/>
</g>
<!-- transition_2_loading_error_data_error&#45;&gt;state_error -->
<g id="edge7" class="edge">
<title>transition_2_loading_error_data_error&#45;&gt;state_error</title>
<path fill="none" stroke="#3f3f46" d="M538.13,-43C566.35,-43 596.95,-43 623.76,-43"/>
<polygon fill="#3f3f46" stroke="#3f3f46" points="623.95,-45.8 631.95,-43 623.95,-40.2 623.95,-45.8"/>
</g>
<!-- transition_3_empty_ready_data_ready&#45;&gt;state_ready -->
<g id="edge9" class="edge">
<title>transition_3_empty_ready_data_ready&#45;&gt;state_ready</title>
<path fill="none" stroke="#3f3f46" d="M1048.09,-215.78C1065.31,-211.85 1083.39,-207.73 1100.9,-203.73"/>
<polygon fill="#3f3f46" stroke="#3f3f46" points="1101.73,-206.42 1108.91,-201.91 1100.49,-200.96 1101.73,-206.42"/>
</g>
<!-- transition_4_ready_ready_message_project_select&#45;&gt;state_ready -->
<g id="edge11" class="edge">
<title>transition_4_ready_ready_message_project_select&#45;&gt;state_ready</title>
<path fill="none" stroke="#3f3f46" d="M1363.83,-189.96C1347.01,-190.44 1328.97,-190.6 1311.33,-190.44"/>
<polygon fill="#3f3f46" stroke="#3f3f46" points="1311.29,-187.64 1303.26,-190.35 1311.23,-193.24 1311.29,-187.64"/>
</g>
</g>
</svg>
