<svg width="1163pt" height="322pt"
 viewBox="0.00 0.00 1163.00 322.00" xmlns="http://www.w3.org/2000/svg" xmlns:xlink="http://www.w3.org/1999/xlink">
<!-- pyspec-contract-input-sha256: 9e8be1379318229d60b51da9df0704662b0d675bf5fd715e51f950fbd5ba7230 -->
<g id="graph0" class="graph" transform="scale(1 1) rotate(0) translate(18 304)">
<title>workflow_project_approval_notice</title>
<!-- workflow_start -->
<g id="node1" class="node">
<title>workflow_start</title>
<ellipse fill="none" stroke="#4f46e5" cx="24.5" cy="-143" rx="24.5" ry="24.5"/>
<text text-anchor="middle" x="24.5" y="-140.8" font-family="Arial" font-size="9.00" fill="#312e81">trigger</text>
</g>
<!-- workflow_trigger_event_project_approved -->
<g id="node2" class="node">
<title>workflow_trigger_event_project_approved</title>
<polygon fill="#ffffff" stroke="transparent" points="112,-91 112,-195 325,-195 325,-91 112,-91"/>
<polygon fill="#4f46e5" stroke="transparent" points="113.5,-186 113.5,-194 324.5,-194 324.5,-186 113.5,-186"/>
<polygon fill="#eef2ff" stroke="transparent" points="113.5,-155 113.5,-186 324.5,-186 324.5,-155 113.5,-155"/>
<text text-anchor="start" x="117.5" y="-172.6" font-family="Arial" font-weight="bold" font-size="13.00">project.approved</text>
<text text-anchor="start" x="117.5" y="-161.6" font-family="Arial" font-size="8.00" fill="#64748b">event trigger</text>
<text text-anchor="start" x="117.5" y="-144" font-family="Arial" font-style="italic" font-size="10.00" fill="#3f3f46">Approval events carry the reviewer and project</text>
<text text-anchor="start" x="117.5" y="-133" font-family="Arial" font-style="italic" font-size="10.00" fill="#3f3f46">identity needed by notification workflows.</text>
<text text-anchor="start" x="118.5" y="-113" font-family="Arial" font-weight="bold" font-size="10.00">payload:</text>
<text text-anchor="start" x="158.5" y="-113" font-family="Arial" font-size="10.00">  payload</text>
<text text-anchor="start" x="198.5" y="-113" font-family="Arial" font-size="8.00" fill="#94a3b8">  ProjectApproved</text>
<text text-anchor="start" x="118.5" y="-101" font-family="Arial" font-weight="bold" font-size="10.00">emitted by:</text>
<text text-anchor="start" x="170.5" y="-101" font-family="Arial" font-size="10.00">  project.approve</text>
<polygon fill="none" stroke="#4f46e5" points="112,-91 112,-195 325,-195 325,-91 112,-91"/>
</g>
<!-- workflow_start&#45;&gt;workflow_trigger_event_project_approved -->
<g id="edge1" class="edge">
<title>workflow_start&#45;&gt;workflow_trigger_event_project_approved</title>
<path fill="none" stroke="#3f3f46" d="M49.04,-143C63.36,-143 82.83,-143 103.44,-143"/>
<polygon fill="#3f3f46" stroke="#3f3f46" points="103.71,-145.8 111.71,-143 103.71,-140.2 103.71,-145.8"/>
</g>
<!-- workflow_project_approval_notice -->
<g id="node3" class="node">
<title>workflow_project_approval_notice</title>
<polygon fill="#ffffff" stroke="transparent" points="388,-76 388,-210 630,-210 630,-76 388,-76"/>
<polygon fill="#a16207" stroke="transparent" points="389,-201 389,-209 629,-209 629,-201 389,-201"/>
<polygon fill="#fefce8" stroke="transparent" points="389,-170 389,-201 629,-201 629,-170 389,-170"/>
<text text-anchor="start" x="393" y="-187.6" font-family="Arial" font-weight="bold" font-size="13.00">project.approval_notice</text>
<text text-anchor="start" x="393" y="-176.6" font-family="Arial" font-size="8.00" fill="#64748b">workflow</text>
<text text-anchor="start" x="393" y="-159" font-family="Arial" font-style="italic" font-size="10.00" fill="#3f3f46">Approval event sends a downstream notice.</text>
<text text-anchor="start" x="394" y="-139" font-family="Arial" font-weight="bold" font-size="10.00">ref:</text>
<text text-anchor="start" x="410" y="-139" font-family="Arial" font-size="10.00">  workflow.project.approval_notice</text>
<text text-anchor="start" x="394" y="-127" font-family="Arial" font-weight="bold" font-size="10.00">steps:</text>
<text text-anchor="start" x="422" y="-127" font-family="Arial" font-size="10.00">  send_notice → project.send_approval_notice</text>
<text text-anchor="start" x="393" y="-107" font-family="Arial" font-weight="bold" font-size="10.00">outcomes</text>
<text text-anchor="start" x="393" y="-96" font-family="Arial" font-size="10.00">completed</text>
<text text-anchor="start" x="439" y="-96" font-family="Arial" font-size="8.00" fill="#94a3b8">  NoticeResult</text>
<text text-anchor="start" x="489" y="-96" font-family="Arial" font-size="8.00"> ← success</text>
<text text-anchor="start" x="393" y="-85" font-family="Arial" font-size="10.00">delivery_failed</text>
<text text-anchor="start" x="456" y="-85" font-family="Arial" font-size="8.00" fill="#94a3b8">  Problem</text>
<text text-anchor="start" x="491" y="-85" font-family="Arial" font-size="8.00"> ← failure</text>
<polygon fill="none" stroke="#a16207" points="388,-76 388,-210 630,-210 630,-76 388,-76"/>
</g>
<!-- workflow_trigger_event_project_approved&#45;&gt;workflow_project_approval_notice -->
<g id="edge2" class="edge">
<title>workflow_trigger_event_project_approved&#45;&gt;workflow_project_approval_notice</title>
<path fill="none" stroke="#3f3f46" d="M325.29,-143C342.86,-143 361.25,-143 379.32,-143"/>
<polygon fill="#3f3f46" stroke="#3f3f46" points="379.59,-145.8 387.59,-143 379.59,-140.2 379.59,-145.8"/>
</g>
<!-- workflow_step_project_approval_notice_send_notice -->
<g id="node4" class="node">
<title>workflow_step_project_approval_notice_send_notice</title>
<polygon fill="#ffffff" stroke="transparent" points="693,0 693,-286 897,-286 897,0 693,0"/>
<polygon fill="#71717a" stroke="transparent" points="694,-277 694,-285 896,-285 896,-277 694,-277"/>
<polygon fill="#f8fafc" stroke="transparent" points="694,-246 694,-277 896,-277 896,-246 694,-246"/>
<text text-anchor="start" x="698" y="-263.6" font-family="Arial" font-weight="bold" font-size="13.00">send_notice</text>
<text text-anchor="start" x="698" y="-252.6" font-family="Arial" font-size="8.00" fill="#64748b">workflow step</text>
<text text-anchor="start" x="698" y="-235" font-family="Arial" font-style="italic" font-size="10.00" fill="#3f3f46">Approval triggers a notification command for</text>
<text text-anchor="start" x="698" y="-224" font-family="Arial" font-style="italic" font-size="10.00" fill="#3f3f46">downstream coordination.</text>
<text text-anchor="start" x="699" y="-204" font-family="Arial" font-weight="bold" font-size="10.00">capability:</text>
<text text-anchor="start" x="748" y="-204" font-family="Arial" font-size="10.00">  project.send_approval_notice</text>
<text text-anchor="start" x="698" y="-184" font-family="Arial" font-weight="bold" font-size="10.00">with</text>
<text text-anchor="start" x="698" y="-172" font-family="Arial" font-size="10.00">approved_by ← trigger.payload.approved_by</text>
<text text-anchor="start" x="698" y="-161" font-family="Arial" font-size="10.00">project_id ← trigger.payload.project_id</text>
<text text-anchor="start" x="698" y="-143" font-family="Arial" font-weight="bold" font-size="10.00">routes</text>
<text text-anchor="start" x="698" y="-131" font-family="Arial" font-size="10.00">delivery_failed: fail → delivery_failed (retry 3</text>
<text text-anchor="start" x="698" y="-120" font-family="Arial" font-size="10.00">exponential)</text>
<text text-anchor="start" x="698" y="-109" font-family="Arial" font-size="10.00">sent: complete → completed</text>
<text text-anchor="start" x="698" y="-91" font-family="Arial" font-weight="bold" font-size="10.00">input</text>
<text text-anchor="start" x="698" y="-80" font-family="Arial" font-size="10.00">approved_by</text>
<text text-anchor="start" x="754" y="-80" font-family="Arial" font-size="8.00" fill="#94a3b8">  ID</text>
<text text-anchor="start" x="698" y="-69" font-family="Arial" font-size="10.00">project_id</text>
<text text-anchor="start" x="741" y="-69" font-family="Arial" font-size="8.00" fill="#94a3b8">  ID</text>
<text text-anchor="start" x="698" y="-50" font-family="Arial" font-weight="bold" font-size="10.00">failure</text>
<text text-anchor="start" x="698" y="-39" font-family="Arial" font-size="10.00">delivery_failed</text>
<text text-anchor="start" x="761" y="-39" font-family="Arial" font-size="8.00" fill="#94a3b8">  Problem</text>
<text text-anchor="start" x="698" y="-20" font-family="Arial" font-weight="bold" font-size="10.00">success</text>
<text text-anchor="start" x="698" y="-9" font-family="Arial" font-size="10.00">sent</text>
<text text-anchor="start" x="717" y="-9" font-family="Arial" font-size="8.00" fill="#94a3b8">  NoticeResult</text>
<polygon fill="none" stroke="#71717a" points="693,0 693,-286 897,-286 897,0 693,0"/>
</g>
<!-- workflow_project_approval_notice&#45;&gt;workflow_step_project_approval_notice_send_notice -->
<g id="edge3" class="edge">
<title>workflow_project_approval_notice&#45;&gt;workflow_step_project_approval_notice_send_notice</title>
<path fill="none" stroke="#3f3f46" d="M630.03,-143C648.15,-143 666.75,-143 684.63,-143"/>
<polygon fill="#3f3f46" stroke="#3f3f46" points="684.79,-145.8 692.79,-143 684.79,-140.2 684.79,-145.8"/>
</g>
<!-- workflow_outcome_project_approval_notice_completed -->
<g id="node5" class="node">
<title>workflow_outcome_project_approval_notice_completed</title>
<polygon fill="#ffffff" stroke="transparent" points="1022,-170.5 1022,-241.5 1127,-241.5 1127,-170.5 1022,-170.5"/>
<polygon fill="#64748b" stroke="transparent" points="1023.5,-232 1023.5,-240 1126.5,-240 1126.5,-232 1023.5,-232"/>
<polygon fill="#f8fafc" stroke="transparent" points="1023.5,-201 1023.5,-232 1126.5,-232 1126.5,-201 1023.5,-201"/>
<text text-anchor="start" x="1027.5" y="-218.6" font-family="Arial" font-weight="bold" font-size="13.00">completed</text>
<text text-anchor="start" x="1027.5" y="-207.6" font-family="Arial" font-size="8.00" fill="#64748b">success workflow outcome</text>
<text text-anchor="start" x="1027.5" y="-190" font-family="Arial" font-weight="bold" font-size="10.00">result</text>
<text text-anchor="start" x="1027.5" y="-179" font-family="Arial" font-size="10.00">result</text>
<text text-anchor="start" x="1052.5" y="-179" font-family="Arial" font-size="8.00" fill="#94a3b8">  NoticeResult</text>
<polygon fill="none" stroke="#64748b" points="1022,-170.5 1022,-241.5 1127,-241.5 1127,-170.5 1022,-170.5"/>
</g>
<!-- workflow_step_project_approval_notice_send_notice&#45;&gt;workflow_outcome_project_approval_notice_completed -->
<g id="edge5" class="edge">
<title>workflow_step_project_approval_notice_send_notice&#45;&gt;workflow_outcome_project_approval_notice_completed</title>
<path fill="none" stroke="#3f3f46" d="M897.36,-166.01C936.49,-174.9 979.91,-184.75 1013.85,-192.46"/>
<polygon fill="#3f3f46" stroke="#3f3f46" points="1013.4,-195.23 1021.82,-194.27 1014.64,-189.77 1013.4,-195.23"/>
<text text-anchor="middle" x="959.5" y="-188" font-family="Arial" font-size="10.00">sent</text>
</g>
<!-- workflow_outcome_project_approval_notice_delivery_failed -->
<g id="node6" class="node">
<title>workflow_outcome_project_approval_notice_delivery_failed</title>
<polygon fill="#ffffff" stroke="transparent" points="1022.5,-45.5 1022.5,-116.5 1126.5,-116.5 1126.5,-45.5 1022.5,-45.5"/>
<polygon fill="#64748b" stroke="transparent" points="1023.5,-107 1023.5,-115 1125.5,-115 1125.5,-107 1023.5,-107"/>
<polygon fill="#f8fafc" stroke="transparent" points="1023.5,-76 1023.5,-107 1125.5,-107 1125.5,-76 1023.5,-76"/>
<text text-anchor="start" x="1027.5" y="-93.6" font-family="Arial" font-weight="bold" font-size="13.00">delivery_failed</text>
<text text-anchor="start" x="1027.5" y="-82.6" font-family="Arial" font-size="8.00" fill="#64748b">failure workflow outcome</text>
<text text-anchor="start" x="1027.5" y="-65" font-family="Arial" font-weight="bold" font-size="10.00">result</text>
<text text-anchor="start" x="1027.5" y="-54" font-family="Arial" font-size="10.00">result</text>
<text text-anchor="start" x="1052.5" y="-54" font-family="Arial" font-size="8.00" fill="#94a3b8">  Problem</text>
<polygon fill="none" stroke="#64748b" points="1022.5,-45.5 1022.5,-116.5 1126.5,-116.5 1126.5,-45.5 1022.5,-45.5"/>
</g>
<!-- workflow_step_project_approval_notice_send_notice&#45;&gt;workflow_outcome_project_approval_notice_delivery_failed -->
<g id="edge4" class="edge">
<title>workflow_step_project_approval_notice_send_notice&#45;&gt;workflow_outcome_project_approval_notice_delivery_failed</title>
<path fill="none" stroke="#3f3f46" d="M897.36,-120.35C936.64,-111.58 980.23,-101.84 1014.22,-94.24"/>
<polygon fill="#3f3f46" stroke="#3f3f46" points="1015.01,-96.94 1022.2,-92.46 1013.79,-91.47 1015.01,-96.94"/>
<text text-anchor="middle" x="959.5" y="-115" font-family="Arial" font-size="10.00">delivery_failed</text>
</g>
<!-- workflow_outcome_project_approval_notice_completed&#45;&gt;workflow_outcome_project_approval_notice_delivery_failed -->
</g>
</svg>
