<svg width="951pt" height="202pt"
 viewBox="0.00 0.00 951.00 202.00" xmlns="http://www.w3.org/2000/svg" xmlns:xlink="http://www.w3.org/1999/xlink">
<g id="graph0" class="graph" transform="scale(1 1) rotate(0) translate(18 184)">
<title>workflow_project_approval_notice</title>
<!-- workflow_start -->
<g id="node1" class="node">
<title>workflow_start</title>
<ellipse fill="none" stroke="#4f46e5" cx="24.5" cy="-83" rx="24.5" ry="24.5"/>
<text text-anchor="middle" x="24.5" y="-80.8" font-family="Arial" font-size="9.00" fill="#312e81">trigger</text>
</g>
<!-- workflow_trigger_event_project_approved -->
<g id="node2" class="node">
<title>workflow_trigger_event_project_approved</title>
<polygon fill="#ffffff" stroke="transparent" points="110,-36.5 110,-129.5 349,-129.5 349,-36.5 110,-36.5"/>
<polygon fill="#4f46e5" stroke="transparent" points="111.5,-120 111.5,-128 348.5,-128 348.5,-120 111.5,-120"/>
<polygon fill="#eef2ff" stroke="transparent" points="111.5,-89 111.5,-120 348.5,-120 348.5,-89 111.5,-89"/>
<text text-anchor="start" x="115.5" y="-106.6" font-family="Arial" font-weight="bold" font-size="13.00">project.approved</text>
<text text-anchor="start" x="115.5" y="-95.6" font-family="Arial" font-size="8.00" fill="#64748b">event trigger</text>
<text text-anchor="start" x="115.5" y="-78" font-family="Arial" font-style="italic" font-size="10.00" fill="#3f3f46">Reviewers can approve submitted dispatch projects.</text>
<text text-anchor="start" x="116.5" y="-58" font-family="Arial" font-weight="bold" font-size="10.00">payload:</text>
<text text-anchor="start" x="156.5" y="-58" font-family="Arial" font-size="10.00">  payload</text>
<text text-anchor="start" x="196.5" y="-58" font-family="Arial" font-size="8.00" fill="#94a3b8">  Project</text>
<text text-anchor="start" x="116.5" y="-46" font-family="Arial" font-weight="bold" font-size="10.00">emitted by:</text>
<text text-anchor="start" x="168.5" y="-46" font-family="Arial" font-size="10.00">  project.approve</text>
<polygon fill="none" stroke="#4f46e5" points="110,-36.5 110,-129.5 349,-129.5 349,-36.5 110,-36.5"/>
</g>
<!-- workflow_start&#45;&gt;workflow_trigger_event_project_approved -->
<g id="edge1" class="edge">
<title>workflow_start&#45;&gt;workflow_trigger_event_project_approved</title>
<path fill="none" stroke="#3f3f46" d="M49.18,-83C63.03,-83 81.71,-83 101.8,-83"/>
<polygon fill="#3f3f46" stroke="#3f3f46" points="101.87,-85.8 109.87,-83 101.87,-80.2 101.87,-85.8"/>
</g>
<!-- workflow_project_approval_notice -->
<g id="node3" class="node">
<title>workflow_project_approval_notice</title>
<polygon fill="#ffffff" stroke="transparent" points="410,-36.5 410,-129.5 651,-129.5 651,-36.5 410,-36.5"/>
<polygon fill="#a16207" stroke="transparent" points="411.5,-120 411.5,-128 650.5,-128 650.5,-120 411.5,-120"/>
<polygon fill="#fefce8" stroke="transparent" points="411.5,-89 411.5,-120 650.5,-120 650.5,-89 411.5,-89"/>
<text text-anchor="start" x="415.5" y="-106.6" font-family="Arial" font-weight="bold" font-size="13.00">project.approval_notice</text>
<text text-anchor="start" x="415.5" y="-95.6" font-family="Arial" font-size="8.00" fill="#64748b">workflow</text>
<text text-anchor="start" x="415.5" y="-78" font-family="Arial" font-style="italic" font-size="10.00" fill="#3f3f46">Approval event sends a downstream notice.</text>
<text text-anchor="start" x="416.5" y="-58" font-family="Arial" font-weight="bold" font-size="10.00">ref:</text>
<text text-anchor="start" x="432.5" y="-58" font-family="Arial" font-size="10.00">  workflow.project.approval_notice</text>
<text text-anchor="start" x="416.5" y="-46" font-family="Arial" font-weight="bold" font-size="10.00">steps:</text>
<text text-anchor="start" x="444.5" y="-46" font-family="Arial" font-size="10.00">  send_notice &#45;&gt; project.send_approval_notice</text>
<polygon fill="none" stroke="#a16207" points="410,-36.5 410,-129.5 651,-129.5 651,-36.5 410,-36.5"/>
</g>
<!-- workflow_trigger_event_project_approved&#45;&gt;workflow_project_approval_notice -->
<g id="edge2" class="edge">
<title>workflow_trigger_event_project_approved&#45;&gt;workflow_project_approval_notice</title>
<path fill="none" stroke="#3f3f46" d="M349.1,-83C366.2,-83 383.85,-83 401.13,-83"/>
<polygon fill="#3f3f46" stroke="#3f3f46" points="401.57,-85.8 409.57,-83 401.57,-80.2 401.57,-85.8"/>
</g>
<!-- workflow_step_project_approval_notice_send_notice -->
<g id="node4" class="node">
<title>workflow_step_project_approval_notice_send_notice</title>
<polygon fill="#ffffff" stroke="transparent" points="712,0 712,-166 915,-166 915,0 712,0"/>
<polygon fill="#71717a" stroke="transparent" points="713.5,-157 713.5,-165 914.5,-165 914.5,-157 713.5,-157"/>
<polygon fill="#f8fafc" stroke="transparent" points="713.5,-126 713.5,-157 914.5,-157 914.5,-126 713.5,-126"/>
<text text-anchor="start" x="717.5" y="-143.6" font-family="Arial" font-weight="bold" font-size="13.00">send_notice</text>
<text text-anchor="start" x="717.5" y="-132.6" font-family="Arial" font-size="8.00" fill="#64748b">workflow step</text>
<text text-anchor="start" x="717.5" y="-115" font-family="Arial" font-style="italic" font-size="10.00" fill="#3f3f46">Approval triggers a notification command for</text>
<text text-anchor="start" x="717.5" y="-104" font-family="Arial" font-style="italic" font-size="10.00" fill="#3f3f46">downstream coordination.</text>
<text text-anchor="start" x="718.5" y="-84" font-family="Arial" font-weight="bold" font-size="10.00">capability:</text>
<text text-anchor="start" x="767.5" y="-84" font-family="Arial" font-size="10.00">  project.send_approval_notice</text>
<text text-anchor="start" x="718.5" y="-72" font-family="Arial" font-weight="bold" font-size="10.00">resource:</text>
<text text-anchor="start" x="762.5" y="-72" font-family="Arial" font-size="10.00">  Project</text>
<text text-anchor="start" x="717.5" y="-52" font-family="Arial" font-weight="bold" font-size="10.00">input</text>
<text text-anchor="start" x="717.5" y="-41" font-family="Arial" font-size="10.00">approved_by</text>
<text text-anchor="start" x="773.5" y="-41" font-family="Arial" font-size="8.00" fill="#94a3b8">  ID</text>
<text text-anchor="start" x="717.5" y="-30" font-family="Arial" font-size="10.00">project_id</text>
<text text-anchor="start" x="760.5" y="-30" font-family="Arial" font-size="8.00" fill="#94a3b8">  ID</text>
<text text-anchor="start" x="718.5" y="-10" font-family="Arial" font-weight="bold" font-size="10.00">output:</text>
<text text-anchor="start" x="752.5" y="-10" font-family="Arial" font-size="10.00">  result</text>
<text text-anchor="start" x="783.5" y="-10" font-family="Arial" font-size="8.00" fill="#94a3b8">  NoticeResult</text>
<polygon fill="none" stroke="#71717a" points="712,0 712,-166 915,-166 915,0 712,0"/>
</g>
<!-- workflow_project_approval_notice&#45;&gt;workflow_step_project_approval_notice_send_notice -->
<g id="edge3" class="edge">
<title>workflow_project_approval_notice&#45;&gt;workflow_step_project_approval_notice_send_notice</title>
<path fill="none" stroke="#3f3f46" d="M651.08,-83C668.41,-83 686.17,-83 703.28,-83"/>
<polygon fill="#3f3f46" stroke="#3f3f46" points="703.63,-85.8 711.63,-83 703.63,-80.2 703.63,-85.8"/>
</g>
</g>
</svg>
