<svg width="951pt" height="176pt"
 viewBox="0.00 0.00 951.00 176.00" xmlns="http://www.w3.org/2000/svg" xmlns:xlink="http://www.w3.org/1999/xlink">
<g id="graph0" class="graph" transform="scale(1 1) rotate(0) translate(18 158)">
<title>workflow_project_approval_notice</title>
<!-- workflow_start -->
<g id="node1" class="node">
<title>workflow_start</title>
<ellipse fill="none" stroke="#4f46e5" cx="24.5" cy="-70" rx="24.5" ry="24.5"/>
<text text-anchor="middle" x="24.5" y="-67.8" font-family="Arial" font-size="9.00" fill="#312e81">trigger</text>
</g>
<!-- workflow_trigger_event_project_approved -->
<g id="node2" class="node">
<title>workflow_trigger_event_project_approved</title>
<polygon fill="#ffffff" stroke="transparent" points="110,-23.5 110,-116.5 349,-116.5 349,-23.5 110,-23.5"/>
<polygon fill="#4f46e5" stroke="transparent" points="111.5,-107 111.5,-115 348.5,-115 348.5,-107 111.5,-107"/>
<polygon fill="#eef2ff" stroke="transparent" points="111.5,-76 111.5,-107 348.5,-107 348.5,-76 111.5,-76"/>
<text text-anchor="start" x="115.5" y="-93.6" font-family="Arial" font-weight="bold" font-size="13.00">project.approved</text>
<text text-anchor="start" x="115.5" y="-82.6" font-family="Arial" font-size="8.00" fill="#64748b">event trigger</text>
<text text-anchor="start" x="115.5" y="-65" font-family="Arial" font-style="italic" font-size="10.00" fill="#3f3f46">Reviewers can approve submitted dispatch projects.</text>
<text text-anchor="start" x="116.5" y="-45" font-family="Arial" font-weight="bold" font-size="10.00">payload:</text>
<text text-anchor="start" x="156.5" y="-45" font-family="Arial" font-size="10.00">  payload</text>
<text text-anchor="start" x="196.5" y="-45" font-family="Arial" font-size="8.00" fill="#94a3b8">  Project</text>
<text text-anchor="start" x="116.5" y="-33" font-family="Arial" font-weight="bold" font-size="10.00">emitted by:</text>
<text text-anchor="start" x="168.5" y="-33" font-family="Arial" font-size="10.00">  project.approve</text>
<polygon fill="none" stroke="#4f46e5" points="110,-23.5 110,-116.5 349,-116.5 349,-23.5 110,-23.5"/>
</g>
<!-- workflow_start&#45;&gt;workflow_trigger_event_project_approved -->
<g id="edge1" class="edge">
<title>workflow_start&#45;&gt;workflow_trigger_event_project_approved</title>
<path fill="none" stroke="#3f3f46" d="M49.18,-70C63.03,-70 81.71,-70 101.8,-70"/>
<polygon fill="#3f3f46" stroke="#3f3f46" points="101.87,-72.8 109.87,-70 101.87,-67.2 101.87,-72.8"/>
</g>
<!-- workflow_project_approval_notice -->
<g id="node3" class="node">
<title>workflow_project_approval_notice</title>
<polygon fill="#ffffff" stroke="transparent" points="410,-23.5 410,-116.5 651,-116.5 651,-23.5 410,-23.5"/>
<polygon fill="#a16207" stroke="transparent" points="411.5,-107 411.5,-115 650.5,-115 650.5,-107 411.5,-107"/>
<polygon fill="#fefce8" stroke="transparent" points="411.5,-76 411.5,-107 650.5,-107 650.5,-76 411.5,-76"/>
<text text-anchor="start" x="415.5" y="-93.6" font-family="Arial" font-weight="bold" font-size="13.00">project.approval_notice</text>
<text text-anchor="start" x="415.5" y="-82.6" font-family="Arial" font-size="8.00" fill="#64748b">workflow</text>
<text text-anchor="start" x="415.5" y="-65" font-family="Arial" font-style="italic" font-size="10.00" fill="#3f3f46">Approval event sends a downstream notice.</text>
<text text-anchor="start" x="416.5" y="-45" font-family="Arial" font-weight="bold" font-size="10.00">ref:</text>
<text text-anchor="start" x="432.5" y="-45" font-family="Arial" font-size="10.00">  workflow.project.approval_notice</text>
<text text-anchor="start" x="416.5" y="-33" font-family="Arial" font-weight="bold" font-size="10.00">steps:</text>
<text text-anchor="start" x="444.5" y="-33" font-family="Arial" font-size="10.00">  send_notice &#45;&gt; project.send_approval_notice</text>
<polygon fill="none" stroke="#a16207" points="410,-23.5 410,-116.5 651,-116.5 651,-23.5 410,-23.5"/>
</g>
<!-- workflow_trigger_event_project_approved&#45;&gt;workflow_project_approval_notice -->
<g id="edge2" class="edge">
<title>workflow_trigger_event_project_approved&#45;&gt;workflow_project_approval_notice</title>
<path fill="none" stroke="#3f3f46" d="M349.1,-70C366.2,-70 383.85,-70 401.13,-70"/>
<polygon fill="#3f3f46" stroke="#3f3f46" points="401.57,-72.8 409.57,-70 401.57,-67.2 401.57,-72.8"/>
</g>
<!-- workflow_step_project_approval_notice_send_notice -->
<g id="node4" class="node">
<title>workflow_step_project_approval_notice_send_notice</title>
<polygon fill="#ffffff" stroke="transparent" points="712,0 712,-140 915,-140 915,0 712,0"/>
<polygon fill="#71717a" stroke="transparent" points="713.5,-131 713.5,-139 914.5,-139 914.5,-131 713.5,-131"/>
<polygon fill="#f8fafc" stroke="transparent" points="713.5,-100 713.5,-131 914.5,-131 914.5,-100 713.5,-100"/>
<text text-anchor="start" x="717.5" y="-117.6" font-family="Arial" font-weight="bold" font-size="13.00">send_notice</text>
<text text-anchor="start" x="717.5" y="-106.6" font-family="Arial" font-size="8.00" fill="#64748b">workflow step</text>
<text text-anchor="start" x="717.5" y="-89" font-family="Arial" font-style="italic" font-size="10.00" fill="#3f3f46">Approval triggers a notification command for</text>
<text text-anchor="start" x="717.5" y="-78" font-family="Arial" font-style="italic" font-size="10.00" fill="#3f3f46">downstream coordination.</text>
<text text-anchor="start" x="718.5" y="-58" font-family="Arial" font-weight="bold" font-size="10.00">capability:</text>
<text text-anchor="start" x="767.5" y="-58" font-family="Arial" font-size="10.00">  project.send_approval_notice</text>
<text text-anchor="start" x="718.5" y="-46" font-family="Arial" font-weight="bold" font-size="10.00">resource:</text>
<text text-anchor="start" x="762.5" y="-46" font-family="Arial" font-size="10.00">  Project</text>
<text text-anchor="start" x="718.5" y="-34" font-family="Arial" font-weight="bold" font-size="10.00">input:</text>
<text text-anchor="start" x="746.5" y="-34" font-family="Arial" font-size="10.00">  approved_by</text>
<text text-anchor="start" x="808.5" y="-34" font-family="Arial" font-size="8.00" fill="#94a3b8">  ID</text>
<text text-anchor="start" x="718.5" y="-22" font-family="Arial" font-size="10.00">  project_id</text>
<text text-anchor="start" x="767.5" y="-22" font-family="Arial" font-size="8.00" fill="#94a3b8">  ID</text>
<text text-anchor="start" x="718.5" y="-10" font-family="Arial" font-weight="bold" font-size="10.00">output:</text>
<text text-anchor="start" x="752.5" y="-10" font-family="Arial" font-size="10.00">  result</text>
<text text-anchor="start" x="783.5" y="-10" font-family="Arial" font-size="8.00" fill="#94a3b8">  NoticeResult</text>
<polygon fill="none" stroke="#71717a" points="712,0 712,-140 915,-140 915,0 712,0"/>
</g>
<!-- workflow_project_approval_notice&#45;&gt;workflow_step_project_approval_notice_send_notice -->
<g id="edge3" class="edge">
<title>workflow_project_approval_notice&#45;&gt;workflow_step_project_approval_notice_send_notice</title>
<path fill="none" stroke="#3f3f46" d="M651.08,-70C668.41,-70 686.17,-70 703.28,-70"/>
<polygon fill="#3f3f46" stroke="#3f3f46" points="703.63,-72.8 711.63,-70 703.63,-67.2 703.63,-72.8"/>
</g>
</g>
</svg>
