<svg width="1181pt" height="272pt"
 viewBox="0.00 0.00 1181.00 272.00" xmlns="http://www.w3.org/2000/svg" xmlns:xlink="http://www.w3.org/1999/xlink">
<!-- pyspec-contract-input-sha256: a4fd36bc69806158402bc047648cca9a4666cd662adb52a403c6b453ed34eb36 -->
<g id="graph0" class="graph" transform="scale(1 1) rotate(0) translate(18 254)">
<title>entrypoint_entry_point_api_project_list</title>
<!-- entry_start -->
<g id="node1" class="node">
<title>entry_start</title>
<ellipse fill="none" stroke="#0891b2" cx="21" cy="-118" rx="21" ry="21"/>
<text text-anchor="middle" x="21" y="-115.8" font-family="Arial" font-size="9.00" fill="#155e75">entry</text>
</g>
<!-- entrypoint_entry_point_api_project_list -->
<g id="node2" class="node">
<title>entrypoint_entry_point_api_project_list</title>
<polygon fill="#ffffff" stroke="transparent" points="103,-71.5 103,-164.5 384,-164.5 384,-71.5 103,-71.5"/>
<polygon fill="#0891b2" stroke="transparent" points="104.5,-155 104.5,-163 383.5,-163 383.5,-155 104.5,-155"/>
<polygon fill="#ecfeff" stroke="transparent" points="104.5,-124 104.5,-155 383.5,-155 383.5,-124 104.5,-124"/>
<text text-anchor="start" x="108.5" y="-141.6" font-family="Arial" font-weight="bold" font-size="13.00">GET /workspaces/{workspace_id}/projects</text>
<text text-anchor="start" x="108.5" y="-130.6" font-family="Arial" font-size="8.00" fill="#64748b">http entry point</text>
<text text-anchor="start" x="108.5" y="-113" font-family="Arial" font-style="italic" font-size="10.00" fill="#3f3f46">HTTP endpoint for listing dispatch projects.</text>
<text text-anchor="start" x="109.5" y="-93" font-family="Arial" font-weight="bold" font-size="10.00">endpoint:</text>
<text text-anchor="start" x="154.5" y="-93" font-family="Arial" font-size="10.00">  endpoint.project.list</text>
<text text-anchor="start" x="109.5" y="-81" font-family="Arial" font-weight="bold" font-size="10.00">policy_guard:</text>
<text text-anchor="start" x="173.5" y="-81" font-family="Arial" font-size="10.00">  policy.project.list</text>
<polygon fill="none" stroke="#0891b2" points="103,-71.5 103,-164.5 384,-164.5 384,-71.5 103,-71.5"/>
</g>
<!-- entry_start&#45;&gt;entrypoint_entry_point_api_project_list -->
<g id="edge1" class="edge">
<title>entry_start&#45;&gt;entrypoint_entry_point_api_project_list</title>
<path fill="none" stroke="#3f3f46" d="M42.35,-118C55.63,-118 74.3,-118 94.95,-118"/>
<polygon fill="#3f3f46" stroke="#3f3f46" points="94.95,-120.8 102.95,-118 94.95,-115.2 94.95,-120.8"/>
</g>
<!-- entrypoint_input_entry_point_api_project_list -->
<g id="node3" class="node">
<title>entrypoint_input_entry_point_api_project_list</title>
<polygon fill="#ffffff" stroke="transparent" points="445,-82.5 445,-153.5 529,-153.5 529,-82.5 445,-82.5"/>
<polygon fill="#64748b" stroke="transparent" points="446,-144 446,-152 528,-152 528,-144 446,-144"/>
<polygon fill="#f8fafc" stroke="transparent" points="446,-113 446,-144 528,-144 528,-113 446,-113"/>
<text text-anchor="start" x="450" y="-130.6" font-family="Arial" font-weight="bold" font-size="13.00">request</text>
<text text-anchor="start" x="450" y="-119.6" font-family="Arial" font-size="8.00" fill="#64748b">external data</text>
<text text-anchor="start" x="450" y="-102" font-family="Arial" font-weight="bold" font-size="10.00">params</text>
<text text-anchor="start" x="450" y="-91" font-family="Arial" font-size="10.00">workspace_id</text>
<text text-anchor="start" x="511" y="-91" font-family="Arial" font-size="8.00" fill="#94a3b8">  ID</text>
<polygon fill="none" stroke="#64748b" points="445,-82.5 445,-153.5 529,-153.5 529,-82.5 445,-82.5"/>
</g>
<!-- entrypoint_entry_point_api_project_list&#45;&gt;entrypoint_input_entry_point_api_project_list -->
<g id="edge2" class="edge">
<title>entrypoint_entry_point_api_project_list&#45;&gt;entrypoint_input_entry_point_api_project_list</title>
<path fill="none" stroke="#3f3f46" d="M384.28,-118C402.94,-118 420.98,-118 436.55,-118"/>
<polygon fill="#3f3f46" stroke="#3f3f46" points="436.93,-120.8 444.93,-118 436.93,-115.2 436.93,-120.8"/>
</g>
<!-- entrypoint_target_operation_project_list -->
<g id="node4" class="node">
<title>entrypoint_target_operation_project_list</title>
<polygon fill="#ffffff" stroke="transparent" points="590,0 590,-236 813,-236 813,0 590,0"/>
<polygon fill="#2563eb" stroke="transparent" points="591.5,-227 591.5,-235 812.5,-235 812.5,-227 591.5,-227"/>
<polygon fill="#eff6ff" stroke="transparent" points="591.5,-196 591.5,-227 812.5,-227 812.5,-196 591.5,-196"/>
<text text-anchor="start" x="595.5" y="-213.6" font-family="Arial" font-weight="bold" font-size="13.00">operation.project.list</text>
<text text-anchor="start" x="595.5" y="-202.6" font-family="Arial" font-size="8.00" fill="#64748b">target operation</text>
<text text-anchor="start" x="595.5" y="-185" font-family="Arial" font-style="italic" font-size="10.00" fill="#3f3f46">The board requires a project list query scoped by</text>
<text text-anchor="start" x="595.5" y="-174" font-family="Arial" font-style="italic" font-size="10.00" fill="#3f3f46">workspace.</text>
<text text-anchor="start" x="596.5" y="-154" font-family="Arial" font-weight="bold" font-size="10.00">policy_guard:</text>
<text text-anchor="start" x="660.5" y="-154" font-family="Arial" font-size="10.00">  policy.project.list</text>
<text text-anchor="start" x="596.5" y="-142" font-family="Arial" font-weight="bold" font-size="10.00">policy_effect:</text>
<text text-anchor="start" x="658.5" y="-142" font-family="Arial" font-size="10.00">  allow</text>
<text text-anchor="start" x="596.5" y="-130" font-family="Arial" font-weight="bold" font-size="10.00">policy_subjects:</text>
<text text-anchor="start" x="672.5" y="-130" font-family="Arial" font-size="10.00">  actor</text>
<text text-anchor="start" x="596.5" y="-118" font-family="Arial" font-weight="bold" font-size="10.00">policy_actions:</text>
<text text-anchor="start" x="667.5" y="-118" font-family="Arial" font-size="10.00">  operation: operation.project.list</text>
<text text-anchor="start" x="596.5" y="-106" font-family="Arial" font-weight="bold" font-size="10.00">policy_resources:</text>
<text text-anchor="start" x="679.5" y="-106" font-family="Arial" font-size="10.00">  model: Project</text>
<text text-anchor="start" x="596.5" y="-94" font-family="Arial" font-weight="bold" font-size="10.00">policy_conditions:</text>
<text text-anchor="start" x="683.5" y="-94" font-family="Arial" font-size="10.00">  always true</text>
<text text-anchor="start" x="596.5" y="-82" font-family="Arial" font-weight="bold" font-size="10.00">reads:</text>
<text text-anchor="start" x="625.5" y="-82" font-family="Arial" font-size="10.00">  Project</text>
<text text-anchor="start" x="596.5" y="-70" font-family="Arial" font-weight="bold" font-size="10.00">input:</text>
<text text-anchor="start" x="624.5" y="-70" font-family="Arial" font-size="10.00">  workspace_id</text>
<text text-anchor="start" x="691.5" y="-70" font-family="Arial" font-size="8.00" fill="#94a3b8">  ID</text>
<text text-anchor="start" x="595.5" y="-50" font-family="Arial" font-weight="bold" font-size="10.00">success</text>
<text text-anchor="start" x="595.5" y="-39" font-family="Arial" font-size="10.00">listed</text>
<text text-anchor="start" x="619.5" y="-39" font-family="Arial" font-size="8.00" fill="#94a3b8">  array&lt;Project&gt;</text>
<text text-anchor="start" x="595.5" y="-20" font-family="Arial" font-weight="bold" font-size="10.00">failure</text>
<text text-anchor="start" x="595.5" y="-9" font-family="Arial" font-size="10.00">unavailable</text>
<text text-anchor="start" x="644.5" y="-9" font-family="Arial" font-size="8.00" fill="#94a3b8">  Problem</text>
<polygon fill="none" stroke="#2563eb" points="590,0 590,-236 813,-236 813,0 590,0"/>
</g>
<!-- entrypoint_input_entry_point_api_project_list&#45;&gt;entrypoint_target_operation_project_list -->
<g id="edge3" class="edge">
<title>entrypoint_input_entry_point_api_project_list&#45;&gt;entrypoint_target_operation_project_list</title>
<path fill="none" stroke="#3f3f46" d="M529.22,-118C544.54,-118 562.78,-118 581.56,-118"/>
<polygon fill="#3f3f46" stroke="#3f3f46" points="581.63,-120.8 589.63,-118 581.63,-115.2 581.63,-120.8"/>
</g>
<!-- entrypoint_response_entry_point_api_project_list_listed -->
<g id="node6" class="node">
<title>entrypoint_response_entry_point_api_project_list_listed</title>
<polygon fill="#ffffff" stroke="transparent" points="874,-132 874,-224 1034,-224 1034,-132 874,-132"/>
<polygon fill="#64748b" stroke="transparent" points="875,-215 875,-223 1033,-223 1033,-215 875,-215"/>
<polygon fill="#f8fafc" stroke="transparent" points="875,-184 875,-215 1033,-215 1033,-184 875,-184"/>
<text text-anchor="start" x="879" y="-201.6" font-family="Arial" font-weight="bold" font-size="13.00">listed</text>
<text text-anchor="start" x="879" y="-190.6" font-family="Arial" font-size="8.00" fill="#64748b">success response</text>
<text text-anchor="start" x="880" y="-172" font-family="Arial" font-weight="bold" font-size="10.00">status:</text>
<text text-anchor="start" x="911" y="-172" font-family="Arial" font-size="10.00">  200</text>
<text text-anchor="start" x="879" y="-152" font-family="Arial" font-weight="bold" font-size="10.00">body</text>
<text text-anchor="start" x="879" y="-141" font-family="Arial" font-size="10.00">body</text>
<text text-anchor="start" x="901" y="-141" font-family="Arial" font-size="8.00" fill="#94a3b8">  array&lt;Project&gt;</text>
<text text-anchor="start" x="959" y="-141" font-family="Arial" font-size="8.00"> ← $outcome.result</text>
<polygon fill="none" stroke="#64748b" points="874,-132 874,-224 1034,-224 1034,-132 874,-132"/>
</g>
<!-- entrypoint_target_operation_project_list&#45;&gt;entrypoint_response_entry_point_api_project_list_listed -->
<g id="edge4" class="edge">
<title>entrypoint_target_operation_project_list&#45;&gt;entrypoint_response_entry_point_api_project_list_listed</title>
<path fill="none" stroke="#3f3f46" d="M813.1,-144.49C830.67,-148.7 848.63,-153 865.58,-157.06"/>
<polygon fill="#3f3f46" stroke="#3f3f46" points="865.37,-159.89 873.8,-159.03 866.68,-154.44 865.37,-159.89"/>
</g>
<!-- entrypoint_response_entry_point_api_project_list_unavailable -->
<g id="node7" class="node">
<title>entrypoint_response_entry_point_api_project_list_unavailable</title>
<polygon fill="#ffffff" stroke="transparent" points="885.5,-13 885.5,-105 1022.5,-105 1022.5,-13 885.5,-13"/>
<polygon fill="#64748b" stroke="transparent" points="887,-96 887,-104 1022,-104 1022,-96 887,-96"/>
<polygon fill="#f8fafc" stroke="transparent" points="887,-65 887,-96 1022,-96 1022,-65 887,-65"/>
<text text-anchor="start" x="891" y="-82.6" font-family="Arial" font-weight="bold" font-size="13.00">unavailable</text>
<text text-anchor="start" x="891" y="-71.6" font-family="Arial" font-size="8.00" fill="#64748b">failure response</text>
<text text-anchor="start" x="892" y="-53" font-family="Arial" font-weight="bold" font-size="10.00">status:</text>
<text text-anchor="start" x="923" y="-53" font-family="Arial" font-size="10.00">  503</text>
<text text-anchor="start" x="891" y="-33" font-family="Arial" font-weight="bold" font-size="10.00">body</text>
<text text-anchor="start" x="891" y="-22" font-family="Arial" font-size="10.00">body</text>
<text text-anchor="start" x="913" y="-22" font-family="Arial" font-size="8.00" fill="#94a3b8">  Problem</text>
<text text-anchor="start" x="948" y="-22" font-family="Arial" font-size="8.00"> ← $outcome.result</text>
<polygon fill="none" stroke="#64748b" points="885.5,-13 885.5,-105 1022.5,-105 1022.5,-13 885.5,-13"/>
</g>
<!-- entrypoint_target_operation_project_list&#45;&gt;entrypoint_response_entry_point_api_project_list_unavailable -->
<g id="edge6" class="edge">
<title>entrypoint_target_operation_project_list&#45;&gt;entrypoint_response_entry_point_api_project_list_unavailable</title>
<path fill="none" stroke="#3f3f46" d="M813.1,-91.95C834.85,-86.83 857.21,-81.56 877.48,-76.79"/>
<polygon fill="#3f3f46" stroke="#3f3f46" points="878.29,-79.47 885.44,-74.91 877.01,-74.02 878.29,-79.47"/>
</g>
<!-- entry_exit -->
<g id="node5" class="node">
<title>entry_exit</title>
<ellipse fill="none" stroke="#0891b2" cx="1120" cy="-118" rx="21" ry="21"/>
<ellipse fill="none" stroke="#0891b2" cx="1120" cy="-118" rx="25" ry="25"/>
<text text-anchor="middle" x="1120" y="-115.8" font-family="Arial" font-size="9.00" fill="#155e75">exit</text>
</g>
<!-- entrypoint_response_entry_point_api_project_list_listed&#45;&gt;entry_exit -->
<g id="edge5" class="edge">
<title>entrypoint_response_entry_point_api_project_list_listed&#45;&gt;entry_exit</title>
<path fill="none" stroke="#3f3f46" d="M1034.12,-149.05C1053.51,-141.96 1073.11,-134.79 1088.59,-129.13"/>
<polygon fill="#3f3f46" stroke="#3f3f46" points="1089.73,-131.69 1096.29,-126.31 1087.81,-126.43 1089.73,-131.69"/>
</g>
<!-- entrypoint_response_entry_point_api_project_list_listed&#45;&gt;entrypoint_response_entry_point_api_project_list_unavailable -->
<!-- entrypoint_response_entry_point_api_project_list_unavailable&#45;&gt;entry_exit -->
<g id="edge7" class="edge">
<title>entrypoint_response_entry_point_api_project_list_unavailable&#45;&gt;entry_exit</title>
<path fill="none" stroke="#3f3f46" d="M1022.65,-83.34C1045.66,-91.62 1070.22,-100.45 1088.79,-107.13"/>
<polygon fill="#3f3f46" stroke="#3f3f46" points="1087.88,-109.78 1096.36,-109.85 1089.78,-104.51 1087.88,-109.78"/>
</g>
</g>
</svg>
