<svg width="1556pt" height="394pt"
 viewBox="0.00 0.00 1556.00 393.50" xmlns="http://www.w3.org/2000/svg" xmlns:xlink="http://www.w3.org/1999/xlink">
<!-- pyspec-contract-input-sha256: 4b504f4acdcbed6113ab7aaaaf8e3673b538832fbcee39e3558ded0a06721a87 -->
<g id="graph0" class="graph" transform="scale(1 1) rotate(0) translate(18 375.5)">
<title>state_machine_state_machine_project_list</title>
<!-- view_state_empty -->
<g id="node1" class="node">
<title>view_state_empty</title>
<polygon fill="#ffffff" stroke="transparent" points="516,-212.5 516,-357.5 767,-357.5 767,-212.5 516,-212.5"/>
<polygon fill="#71717a" stroke="transparent" points="517.5,-348 517.5,-356 766.5,-356 766.5,-348 517.5,-348"/>
<polygon fill="#f8fafc" stroke="transparent" points="517.5,-317 517.5,-348 766.5,-348 766.5,-317 517.5,-317"/>
<text text-anchor="start" x="521.5" y="-334.6" font-family="Arial" font-weight="bold" font-size="13.00">empty</text>
<text text-anchor="start" x="521.5" y="-323.6" font-family="Arial" font-size="8.00" fill="#64748b">view state</text>
<text text-anchor="start" x="521.5" y="-306" font-family="Arial" font-weight="bold" font-size="10.00">text</text>
<text text-anchor="start" x="521.5" y="-294" font-family="Arial" font-size="10.00">text.project.list.empty.heading</text>
<text text-anchor="start" x="521.5" y="-283" font-family="Arial" font-size="10.00">text.project.list.empty.body</text>
<text text-anchor="start" x="522.5" y="-264" font-family="Arial" font-weight="bold" font-size="10.00">assets:</text>
<text text-anchor="start" x="555.5" y="-264" font-family="Arial" font-size="10.00">  asset.project.list.empty.illustration</text>
<text text-anchor="start" x="522.5" y="-252" font-family="Arial" font-weight="bold" font-size="10.00">available_operations:</text>
<text text-anchor="start" x="622.5" y="-252" font-family="Arial" font-size="10.00">  operation.project.create</text>
<text text-anchor="start" x="731.5" y="-252" font-family="Arial" font-size="8.00" fill="#94a3b8">  Project</text>
<text text-anchor="start" x="521.5" y="-232" font-family="Arial" font-weight="bold" font-size="10.00">authorization_policies:</text>
<text text-anchor="start" x="628.5" y="-232" font-family="Arial" font-size="10.00">  operation.project.create:</text>
<text text-anchor="start" x="521.5" y="-220" font-family="Arial" font-size="10.00">  authorization_policy.project.member</text>
<polygon fill="none" stroke="#71717a" points="516,-212.5 516,-357.5 767,-357.5 767,-212.5 516,-212.5"/>
</g>
<!-- transition_3_empty_ready_data_signal_ready -->
<g id="node8" class="node">
<title>transition_3_empty_ready_data_signal_ready</title>
<polygon fill="#ffffff" stroke="transparent" points="828,-235 828,-351 1042,-351 1042,-235 828,-235"/>
<polygon fill="#2563eb" stroke="transparent" points="829,-342 829,-350 1041,-350 1041,-342 829,-342"/>
<polygon fill="#eff6ff" stroke="transparent" points="829,-311 829,-342 1041,-342 1041,-311 829,-311"/>
<text text-anchor="start" x="833" y="-328.6" font-family="Arial" font-weight="bold" font-size="13.00">data_signal.ready</text>
<text text-anchor="start" x="833" y="-317.6" font-family="Arial" font-size="8.00" fill="#64748b">transition signal</text>
<text text-anchor="start" x="834" y="-299" font-family="Arial" font-weight="bold" font-size="10.00">input:</text>
<text text-anchor="start" x="862" y="-299" font-family="Arial" font-size="10.00">  workspace_id</text>
<text text-anchor="start" x="929" y="-299" font-family="Arial" font-size="8.00" fill="#94a3b8">  ID</text>
<text text-anchor="start" x="834" y="-287" font-family="Arial" font-weight="bold" font-size="10.00">query:</text>
<text text-anchor="start" x="864" y="-287" font-family="Arial" font-size="10.00">  query.project.list.list</text>
<text text-anchor="start" x="834" y="-275" font-family="Arial" font-weight="bold" font-size="10.00">load:</text>
<text text-anchor="start" x="858" y="-275" font-family="Arial" font-size="10.00">  operation.project.list</text>
<text text-anchor="start" x="952" y="-275" font-family="Arial" font-size="8.00" fill="#94a3b8">  array&lt;Project&gt;</text>
<text text-anchor="start" x="833" y="-255" font-family="Arial" font-weight="bold" font-size="10.00">authorization_policies:</text>
<text text-anchor="start" x="940" y="-255" font-family="Arial" font-size="10.00">  operation.project.list:</text>
<text text-anchor="start" x="833" y="-243" font-family="Arial" font-size="10.00">  authorization_policy.project.member</text>
<polygon fill="none" stroke="#2563eb" points="828,-235 828,-351 1042,-351 1042,-235 828,-235"/>
</g>
<!-- view_state_empty&#45;&gt;transition_3_empty_ready_data_signal_ready -->
<g id="edge7" class="edge">
<title>view_state_empty&#45;&gt;transition_3_empty_ready_data_signal_ready</title>
<path fill="none" stroke="#3f3f46" d="M767.39,-288.43C784.65,-288.9 802.32,-289.39 819.38,-289.85"/>
<polygon fill="#3f3f46" stroke="#3f3f46" points="819.63,-292.66 827.71,-290.08 819.79,-287.06 819.63,-292.66"/>
</g>
<!-- view_state_error -->
<g id="node2" class="node">
<title>view_state_error</title>
<polygon fill="#ffffff" stroke="transparent" points="574.5,-17 574.5,-99 708.5,-99 708.5,-17 574.5,-17"/>
<polygon fill="#71717a" stroke="transparent" points="575.5,-90 575.5,-98 707.5,-98 707.5,-90 575.5,-90"/>
<polygon fill="#f8fafc" stroke="transparent" points="575.5,-59 575.5,-90 707.5,-90 707.5,-59 575.5,-59"/>
<text text-anchor="start" x="579.5" y="-76.6" font-family="Arial" font-weight="bold" font-size="13.00">error</text>
<text text-anchor="start" x="579.5" y="-65.6" font-family="Arial" font-size="8.00" fill="#64748b">view state</text>
<text text-anchor="start" x="579.5" y="-48" font-family="Arial" font-weight="bold" font-size="10.00">text</text>
<text text-anchor="start" x="579.5" y="-36" font-family="Arial" font-size="10.00">text.project.list.error.heading</text>
<text text-anchor="start" x="579.5" y="-25" font-family="Arial" font-size="10.00">text.project.list.error.body</text>
<polygon fill="none" stroke="#71717a" points="574.5,-17 574.5,-99 708.5,-99 708.5,-17 574.5,-17"/>
</g>
<!-- view_state_loading -->
<g id="node3" class="node">
<title>view_state_loading</title>
<polygon fill="#ffffff" stroke="transparent" points="0,-126 0,-188 180,-188 180,-126 0,-126"/>
<polygon fill="#0891b2" stroke="transparent" points="1,-179 1,-187 179,-187 179,-179 1,-179"/>
<polygon fill="#ecfeff" stroke="transparent" points="1,-148 1,-179 179,-179 179,-148 1,-148"/>
<text text-anchor="start" x="5" y="-165.6" font-family="Arial" font-weight="bold" font-size="13.00">loading</text>
<text text-anchor="start" x="5" y="-154.6" font-family="Arial" font-size="8.00" fill="#64748b">initial view state</text>
<text text-anchor="start" x="6" y="-136" font-family="Arial" font-weight="bold" font-size="10.00">text:</text>
<text text-anchor="start" x="26" y="-136" font-family="Arial" font-size="10.00">  text.project.list.loading.message</text>
<polygon fill="none" stroke="#0891b2" points="0,-126 0,-188 180,-188 180,-126 0,-126"/>
</g>
<!-- transition_0_loading_empty_data_signal_empty -->
<g id="node5" class="node">
<title>transition_0_loading_empty_data_signal_empty</title>
<polygon fill="#ffffff" stroke="transparent" points="241,-213 241,-329 455,-329 455,-213 241,-213"/>
<polygon fill="#2563eb" stroke="transparent" points="242,-320 242,-328 454,-328 454,-320 242,-320"/>
<polygon fill="#eff6ff" stroke="transparent" points="242,-289 242,-320 454,-320 454,-289 242,-289"/>
<text text-anchor="start" x="246" y="-306.6" font-family="Arial" font-weight="bold" font-size="13.00">data_signal.empty</text>
<text text-anchor="start" x="246" y="-295.6" font-family="Arial" font-size="8.00" fill="#64748b">transition signal</text>
<text text-anchor="start" x="247" y="-277" font-family="Arial" font-weight="bold" font-size="10.00">input:</text>
<text text-anchor="start" x="275" y="-277" font-family="Arial" font-size="10.00">  workspace_id</text>
<text text-anchor="start" x="342" y="-277" font-family="Arial" font-size="8.00" fill="#94a3b8">  ID</text>
<text text-anchor="start" x="247" y="-265" font-family="Arial" font-weight="bold" font-size="10.00">query:</text>
<text text-anchor="start" x="277" y="-265" font-family="Arial" font-size="10.00">  query.project.list.list</text>
<text text-anchor="start" x="247" y="-253" font-family="Arial" font-weight="bold" font-size="10.00">load:</text>
<text text-anchor="start" x="271" y="-253" font-family="Arial" font-size="10.00">  operation.project.list</text>
<text text-anchor="start" x="365" y="-253" font-family="Arial" font-size="8.00" fill="#94a3b8">  array&lt;Project&gt;</text>
<text text-anchor="start" x="246" y="-233" font-family="Arial" font-weight="bold" font-size="10.00">authorization_policies:</text>
<text text-anchor="start" x="353" y="-233" font-family="Arial" font-size="10.00">  operation.project.list:</text>
<text text-anchor="start" x="246" y="-221" font-family="Arial" font-size="10.00">  authorization_policy.project.member</text>
<polygon fill="none" stroke="#2563eb" points="241,-213 241,-329 455,-329 455,-213 241,-213"/>
</g>
<!-- view_state_loading&#45;&gt;transition_0_loading_empty_data_signal_empty -->
<g id="edge1" class="edge">
<title>view_state_loading&#45;&gt;transition_0_loading_empty_data_signal_empty</title>
<path fill="none" stroke="#3f3f46" d="M160.61,-188C183.12,-198.02 208.69,-209.41 233.52,-220.47"/>
<polygon fill="#3f3f46" stroke="#3f3f46" points="232.4,-223.03 240.85,-223.73 234.68,-217.92 232.4,-223.03"/>
</g>
<!-- transition_1_loading_ready_data_signal_ready -->
<g id="node6" class="node">
<title>transition_1_loading_ready_data_signal_ready</title>
<polygon fill="#ffffff" stroke="transparent" points="828,-92 828,-208 1042,-208 1042,-92 828,-92"/>
<polygon fill="#2563eb" stroke="transparent" points="829,-199 829,-207 1041,-207 1041,-199 829,-199"/>
<polygon fill="#eff6ff" stroke="transparent" points="829,-168 829,-199 1041,-199 1041,-168 829,-168"/>
<text text-anchor="start" x="833" y="-185.6" font-family="Arial" font-weight="bold" font-size="13.00">data_signal.ready</text>
<text text-anchor="start" x="833" y="-174.6" font-family="Arial" font-size="8.00" fill="#64748b">transition signal</text>
<text text-anchor="start" x="834" y="-156" font-family="Arial" font-weight="bold" font-size="10.00">input:</text>
<text text-anchor="start" x="862" y="-156" font-family="Arial" font-size="10.00">  workspace_id</text>
<text text-anchor="start" x="929" y="-156" font-family="Arial" font-size="8.00" fill="#94a3b8">  ID</text>
<text text-anchor="start" x="834" y="-144" font-family="Arial" font-weight="bold" font-size="10.00">query:</text>
<text text-anchor="start" x="864" y="-144" font-family="Arial" font-size="10.00">  query.project.list.list</text>
<text text-anchor="start" x="834" y="-132" font-family="Arial" font-weight="bold" font-size="10.00">load:</text>
<text text-anchor="start" x="858" y="-132" font-family="Arial" font-size="10.00">  operation.project.list</text>
<text text-anchor="start" x="952" y="-132" font-family="Arial" font-size="8.00" fill="#94a3b8">  array&lt;Project&gt;</text>
<text text-anchor="start" x="833" y="-112" font-family="Arial" font-weight="bold" font-size="10.00">authorization_policies:</text>
<text text-anchor="start" x="940" y="-112" font-family="Arial" font-size="10.00">  operation.project.list:</text>
<text text-anchor="start" x="833" y="-100" font-family="Arial" font-size="10.00">  authorization_policy.project.member</text>
<polygon fill="none" stroke="#2563eb" points="828,-92 828,-208 1042,-208 1042,-92 828,-92"/>
</g>
<!-- view_state_loading&#45;&gt;transition_1_loading_ready_data_signal_ready -->
<g id="edge3" class="edge">
<title>view_state_loading&#45;&gt;transition_1_loading_ready_data_signal_ready</title>
<path fill="none" stroke="#3f3f46" d="M180.02,-156.26C333.99,-154.98 649.81,-152.36 819.75,-150.95"/>
<polygon fill="#3f3f46" stroke="#3f3f46" points="820,-153.75 827.98,-150.88 819.96,-148.15 820,-153.75"/>
</g>
<!-- transition_2_loading_error_data_signal_error -->
<g id="node7" class="node">
<title>transition_2_loading_error_data_signal_error</title>
<polygon fill="#ffffff" stroke="transparent" points="241,0 241,-116 455,-116 455,0 241,0"/>
<polygon fill="#2563eb" stroke="transparent" points="242,-107 242,-115 454,-115 454,-107 242,-107"/>
<polygon fill="#eff6ff" stroke="transparent" points="242,-76 242,-107 454,-107 454,-76 242,-76"/>
<text text-anchor="start" x="246" y="-93.6" font-family="Arial" font-weight="bold" font-size="13.00">data_signal.error</text>
<text text-anchor="start" x="246" y="-82.6" font-family="Arial" font-size="8.00" fill="#64748b">transition signal</text>
<text text-anchor="start" x="247" y="-64" font-family="Arial" font-weight="bold" font-size="10.00">input:</text>
<text text-anchor="start" x="275" y="-64" font-family="Arial" font-size="10.00">  workspace_id</text>
<text text-anchor="start" x="342" y="-64" font-family="Arial" font-size="8.00" fill="#94a3b8">  ID</text>
<text text-anchor="start" x="247" y="-52" font-family="Arial" font-weight="bold" font-size="10.00">query:</text>
<text text-anchor="start" x="277" y="-52" font-family="Arial" font-size="10.00">  query.project.list.list</text>
<text text-anchor="start" x="247" y="-40" font-family="Arial" font-weight="bold" font-size="10.00">load:</text>
<text text-anchor="start" x="271" y="-40" font-family="Arial" font-size="10.00">  operation.project.list</text>
<text text-anchor="start" x="365" y="-40" font-family="Arial" font-size="8.00" fill="#94a3b8">  array&lt;Project&gt;</text>
<text text-anchor="start" x="246" y="-20" font-family="Arial" font-weight="bold" font-size="10.00">authorization_policies:</text>
<text text-anchor="start" x="353" y="-20" font-family="Arial" font-size="10.00">  operation.project.list:</text>
<text text-anchor="start" x="246" y="-8" font-family="Arial" font-size="10.00">  authorization_policy.project.member</text>
<polygon fill="none" stroke="#2563eb" points="241,0 241,-116 455,-116 455,0 241,0"/>
</g>
<!-- view_state_loading&#45;&gt;transition_2_loading_error_data_signal_error -->
<g id="edge5" class="edge">
<title>view_state_loading&#45;&gt;transition_2_loading_error_data_signal_error</title>
<path fill="none" stroke="#3f3f46" d="M171.3,-125.95C190.89,-118.37 212.22,-110.12 233.04,-102.07"/>
<polygon fill="#3f3f46" stroke="#3f3f46" points="234.24,-104.61 240.69,-99.11 232.22,-99.39 234.24,-104.61"/>
</g>
<!-- view_state_ready -->
<g id="node4" class="node">
<title>view_state_ready</title>
<polygon fill="#ffffff" stroke="transparent" points="1103,-106.5 1103,-335.5 1297,-335.5 1297,-106.5 1103,-106.5"/>
<polygon fill="#71717a" stroke="transparent" points="1104,-326 1104,-334 1296,-334 1296,-326 1104,-326"/>
<polygon fill="#f8fafc" stroke="transparent" points="1104,-295 1104,-326 1296,-326 1296,-295 1104,-295"/>
<text text-anchor="start" x="1108" y="-312.6" font-family="Arial" font-weight="bold" font-size="13.00">ready</text>
<text text-anchor="start" x="1108" y="-301.6" font-family="Arial" font-size="8.00" fill="#64748b">view state</text>
<text text-anchor="start" x="1109" y="-283" font-family="Arial" font-weight="bold" font-size="10.00">text:</text>
<text text-anchor="start" x="1129" y="-283" font-family="Arial" font-size="10.00">  text.project.list.ready.heading</text>
<text text-anchor="start" x="1108" y="-263" font-family="Arial" font-weight="bold" font-size="10.00">operation.project.list fields</text>
<text text-anchor="start" x="1108" y="-252" font-family="Arial" font-size="10.00">title</text>
<text text-anchor="start" x="1124" y="-252" font-family="Arial" font-size="8.00" fill="#94a3b8">  Text</text>
<text text-anchor="start" x="1108" y="-241" font-family="Arial" font-size="10.00">customer</text>
<text text-anchor="start" x="1149" y="-241" font-family="Arial" font-size="8.00" fill="#94a3b8">  Text</text>
<text text-anchor="start" x="1108" y="-230" font-family="Arial" font-size="10.00">priority</text>
<text text-anchor="start" x="1138" y="-230" font-family="Arial" font-size="8.00" fill="#94a3b8">  Text</text>
<text text-anchor="start" x="1108" y="-219" font-family="Arial" font-size="10.00">status</text>
<text text-anchor="start" x="1136" y="-219" font-family="Arial" font-size="8.00" fill="#94a3b8">  enum&lt;draft|submitted|approved|archived&gt;</text>
<text text-anchor="start" x="1108" y="-200" font-family="Arial" font-weight="bold" font-size="10.00">available_operations</text>
<text text-anchor="start" x="1108" y="-189" font-family="Arial" font-size="10.00">operation.project.create</text>
<text text-anchor="start" x="1211" y="-189" font-family="Arial" font-size="8.00" fill="#94a3b8">  Project</text>
<text text-anchor="start" x="1108" y="-178" font-family="Arial" font-size="10.00">operation.project.submit</text>
<text text-anchor="start" x="1213" y="-178" font-family="Arial" font-size="8.00" fill="#94a3b8">  Project</text>
<text text-anchor="start" x="1108" y="-159" font-family="Arial" font-weight="bold" font-size="10.00">authorization_policies</text>
<text text-anchor="start" x="1108" y="-147" font-family="Arial" font-size="10.00">operation.project.create:</text>
<text text-anchor="start" x="1108" y="-136" font-family="Arial" font-size="10.00">authorization_policy.project.member</text>
<text text-anchor="start" x="1108" y="-125" font-family="Arial" font-size="10.00">operation.project.submit:</text>
<text text-anchor="start" x="1108" y="-114" font-family="Arial" font-size="10.00">authorization_policy.project.member</text>
<polygon fill="none" stroke="#71717a" points="1103,-106.5 1103,-335.5 1297,-335.5 1297,-106.5 1103,-106.5"/>
</g>
<!-- transition_4_ready_ready_message_project_select -->
<g id="node9" class="node">
<title>transition_4_ready_ready_message_project_select</title>
<polygon fill="#ffffff" stroke="transparent" points="1358,-184 1358,-258 1520,-258 1520,-184 1358,-184"/>
<polygon fill="#2563eb" stroke="transparent" points="1359,-249 1359,-257 1519,-257 1519,-249 1359,-249"/>
<polygon fill="#eff6ff" stroke="transparent" points="1359,-218 1359,-249 1519,-249 1519,-218 1359,-218"/>
<text text-anchor="start" x="1363" y="-235.6" font-family="Arial" font-weight="bold" font-size="13.00">message.project_select</text>
<text text-anchor="start" x="1363" y="-224.6" font-family="Arial" font-size="8.00" fill="#64748b">transition signal</text>
<text text-anchor="start" x="1364" y="-206" font-family="Arial" font-weight="bold" font-size="10.00">emit:</text>
<text text-anchor="start" x="1388" y="-206" font-family="Arial" font-size="10.00">  message.project_selected</text>
<text text-anchor="start" x="1364" y="-194" font-family="Arial" font-weight="bold" font-size="10.00">payload:</text>
<text text-anchor="start" x="1404" y="-194" font-family="Arial" font-size="10.00">  project_id</text>
<text text-anchor="start" x="1453" y="-194" font-family="Arial" font-size="8.00" fill="#94a3b8">  ID</text>
<polygon fill="none" stroke="#2563eb" points="1358,-184 1358,-258 1520,-258 1520,-184 1358,-184"/>
</g>
<!-- view_state_ready&#45;&gt;transition_4_ready_ready_message_project_select -->
<g id="edge9" class="edge">
<title>view_state_ready&#45;&gt;transition_4_ready_ready_message_project_select</title>
<path fill="none" stroke="#3f3f46" d="M1297.06,-211.41C1314.37,-211.16 1332.34,-211.2 1349.43,-211.53"/>
<polygon fill="#3f3f46" stroke="#3f3f46" points="1349.68,-214.34 1357.74,-211.72 1349.8,-208.74 1349.68,-214.34"/>
</g>
<!-- transition_0_loading_empty_data_signal_empty&#45;&gt;view_state_empty -->
<g id="edge2" class="edge">
<title>transition_0_loading_empty_data_signal_empty&#45;&gt;view_state_empty</title>
<path fill="none" stroke="#3f3f46" d="M455.06,-276.09C472.21,-276.92 490.16,-277.78 507.85,-278.63"/>
<polygon fill="#3f3f46" stroke="#3f3f46" points="507.83,-281.43 515.95,-279.02 508.09,-275.84 507.83,-281.43"/>
</g>
<!-- transition_1_loading_ready_data_signal_ready&#45;&gt;view_state_ready -->
<g id="edge4" class="edge">
<title>transition_1_loading_ready_data_signal_ready&#45;&gt;view_state_ready</title>
<path fill="none" stroke="#3f3f46" d="M1042.21,-178.67C1059.52,-183.35 1077.44,-188.18 1094.7,-192.84"/>
<polygon fill="#3f3f46" stroke="#3f3f46" points="1094.13,-195.59 1102.58,-194.97 1095.59,-190.18 1094.13,-195.59"/>
</g>
<!-- transition_2_loading_error_data_signal_error&#45;&gt;view_state_error -->
<g id="edge6" class="edge">
<title>transition_2_loading_error_data_signal_error&#45;&gt;view_state_error</title>
<path fill="none" stroke="#3f3f46" d="M455.06,-58C491.83,-58 532.24,-58 565.93,-58"/>
<polygon fill="#3f3f46" stroke="#3f3f46" points="566.35,-60.8 574.35,-58 566.35,-55.2 566.35,-60.8"/>
</g>
<!-- transition_3_empty_ready_data_signal_ready&#45;&gt;view_state_ready -->
<g id="edge8" class="edge">
<title>transition_3_empty_ready_data_signal_ready&#45;&gt;view_state_ready</title>
<path fill="none" stroke="#3f3f46" d="M1042.21,-263.92C1059.52,-259.18 1077.44,-254.28 1094.7,-249.55"/>
<polygon fill="#3f3f46" stroke="#3f3f46" points="1095.6,-252.21 1102.58,-247.4 1094.12,-246.81 1095.6,-252.21"/>
</g>
<!-- transition_4_ready_ready_message_project_select&#45;&gt;view_state_ready -->
<g id="edge10" class="edge">
<title>transition_4_ready_ready_message_project_select&#45;&gt;view_state_ready</title>
<path fill="none" stroke="#3f3f46" d="M1357.74,-231C1340.83,-231.46 1322.76,-231.6 1305.12,-231.43"/>
<polygon fill="#3f3f46" stroke="#3f3f46" points="1305.09,-228.63 1297.06,-231.33 1305.02,-234.23 1305.09,-228.63"/>
</g>
</g>
</svg>
