<svg width="2259pt" height="590pt"
 viewBox="0.00 0.00 2259.00 590.39" xmlns="http://www.w3.org/2000/svg" xmlns:xlink="http://www.w3.org/1999/xlink">
<!-- pyspec-contract-input-sha256: 5d62d8971d77f18124262d3375d942141c7b41c3cc8daa66ad3028ba199684f1 -->
<g id="graph0" class="graph" transform="scale(1 1) rotate(0) translate(18 572.39)">
<title>state_machine_state_machine_project_list</title>
<!-- state_empty -->
<g id="node1" class="node">
<title>state_empty</title>
<polygon fill="#ffffff" stroke="transparent" points="648,-333.55 648,-460.55 987,-460.55 987,-333.55 648,-333.55"/>
<polygon fill="#71717a" stroke="transparent" points="649.5,-451.05 649.5,-459.05 986.5,-459.05 986.5,-451.05 649.5,-451.05"/>
<polygon fill="#f8fafc" stroke="transparent" points="649.5,-420.05 649.5,-451.05 986.5,-451.05 986.5,-420.05 649.5,-420.05"/>
<text text-anchor="start" x="653.5" y="-437.65" font-family="Arial" font-weight="bold" font-size="13.00">empty</text>
<text text-anchor="start" x="653.5" y="-426.65" font-family="Arial" font-size="8.00" fill="#64748b">state</text>
<text text-anchor="start" x="653.5" y="-409.05" font-family="Arial" font-weight="bold" font-size="10.00">text</text>
<text text-anchor="start" x="653.5" y="-397.05" font-family="Arial" font-size="10.00">text_resource.project.list.empty.heading</text>
<text text-anchor="start" x="653.5" y="-386.05" font-family="Arial" font-size="10.00">text_resource.project.list.empty.body</text>
<text text-anchor="start" x="654.5" y="-367.05" font-family="Arial" font-weight="bold" font-size="10.00">assets:</text>
<text text-anchor="start" x="687.5" y="-367.05" font-family="Arial" font-size="10.00">  media_asset.project.list.empty.illustration</text>
<text text-anchor="start" x="654.5" y="-355.05" font-family="Arial" font-weight="bold" font-size="10.00">command_bindings:</text>
<text text-anchor="start" x="751.5" y="-355.05" font-family="Arial" font-size="10.00">  create: command.project.create</text>
<text text-anchor="start" x="896.5" y="-355.05" font-family="Arial" font-size="8.00" fill="#94a3b8">  Project</text>
<text text-anchor="start" x="654.5" y="-343.05" font-family="Arial" font-weight="bold" font-size="10.00">access_policies:</text>
<text text-anchor="start" x="731.5" y="-343.05" font-family="Arial" font-size="10.00">  command.project.create: access_policy.project.member</text>
<polygon fill="none" stroke="#71717a" points="648,-333.55 648,-460.55 987,-460.55 987,-333.55 648,-333.55"/>
</g>
<!-- transition_3_empty_ready_data_refresh_signal_projects_loaded -->
<g id="node8" class="node">
<title>transition_3_empty_ready_data_refresh_signal_projects_loaded</title>
<polygon fill="#ffffff" stroke="transparent" points="1054,-270.05 1054,-356.05 1299,-356.05 1299,-270.05 1054,-270.05"/>
<polygon fill="#2563eb" stroke="transparent" points="1055.5,-347.05 1055.5,-355.05 1298.5,-355.05 1298.5,-347.05 1055.5,-347.05"/>
<polygon fill="#eff6ff" stroke="transparent" points="1055.5,-316.05 1055.5,-347.05 1298.5,-347.05 1298.5,-316.05 1055.5,-316.05"/>
<text text-anchor="start" x="1059.5" y="-333.65" font-family="Arial" font-weight="bold" font-size="13.00">data_refresh_signal.projects_loaded</text>
<text text-anchor="start" x="1059.5" y="-322.65" font-family="Arial" font-size="8.00" fill="#64748b">transition signal</text>
<text text-anchor="start" x="1060.5" y="-304.05" font-family="Arial" font-weight="bold" font-size="10.00">input:</text>
<text text-anchor="start" x="1088.5" y="-304.05" font-family="Arial" font-size="10.00">  list_projects.workspace_id</text>
<text text-anchor="start" x="1210.5" y="-304.05" font-family="Arial" font-size="8.00" fill="#94a3b8">  string</text>
<text text-anchor="start" x="1060.5" y="-292.05" font-family="Arial" font-weight="bold" font-size="10.00">query_bindings:</text>
<text text-anchor="start" x="1136.5" y="-292.05" font-family="Arial" font-size="10.00">  list_projects</text>
<text text-anchor="start" x="1060.5" y="-280.05" font-family="Arial" font-weight="bold" font-size="10.00">load:</text>
<text text-anchor="start" x="1084.5" y="-280.05" font-family="Arial" font-size="10.00">  query.project.list</text>
<text text-anchor="start" x="1162.5" y="-280.05" font-family="Arial" font-size="8.00" fill="#94a3b8">  array&lt;Project&gt;</text>
<polygon fill="none" stroke="#2563eb" points="1054,-270.05 1054,-356.05 1299,-356.05 1299,-270.05 1054,-270.05"/>
</g>
<!-- state_empty&#45;&gt;transition_3_empty_ready_data_refresh_signal_projects_loaded -->
<g id="edge7" class="edge">
<title>state_empty&#45;&gt;transition_3_empty_ready_data_refresh_signal_projects_loaded</title>
<path fill="none" stroke="#3f3f46" d="M987.07,-357.39C1006.9,-352.72 1026.9,-348.01 1046.08,-343.5"/>
<polygon fill="#3f3f46" stroke="#3f3f46" points="1046.81,-346.2 1053.96,-341.65 1045.53,-340.75 1046.81,-346.2"/>
</g>
<!-- transition_4_empty_empty_data_refresh_signal_projects_changed -->
<g id="node9" class="node">
<title>transition_4_empty_empty_data_refresh_signal_projects_changed</title>
<polygon fill="#ffffff" stroke="transparent" points="1048,-438.05 1048,-554.05 1305,-554.05 1305,-438.05 1048,-438.05"/>
<polygon fill="#2563eb" stroke="transparent" points="1049.5,-545.05 1049.5,-553.05 1304.5,-553.05 1304.5,-545.05 1049.5,-545.05"/>
<polygon fill="#eff6ff" stroke="transparent" points="1049.5,-514.05 1049.5,-545.05 1304.5,-545.05 1304.5,-514.05 1049.5,-514.05"/>
<text text-anchor="start" x="1053.5" y="-531.65" font-family="Arial" font-weight="bold" font-size="13.00">data_refresh_signal.projects_changed</text>
<text text-anchor="start" x="1053.5" y="-520.65" font-family="Arial" font-size="8.00" fill="#64748b">transition signal</text>
<text text-anchor="start" x="1053.5" y="-503.05" font-family="Arial" font-style="italic" font-size="10.00" fill="#3f3f46">List mutations invalidate the empty collection and</text>
<text text-anchor="start" x="1053.5" y="-492.05" font-family="Arial" font-style="italic" font-size="10.00" fill="#3f3f46">let the list query refresh it.</text>
<text text-anchor="start" x="1054.5" y="-472.05" font-family="Arial" font-weight="bold" font-size="10.00">input:</text>
<text text-anchor="start" x="1082.5" y="-472.05" font-family="Arial" font-size="10.00">  list_projects.workspace_id</text>
<text text-anchor="start" x="1204.5" y="-472.05" font-family="Arial" font-size="8.00" fill="#94a3b8">  string</text>
<text text-anchor="start" x="1054.5" y="-460.05" font-family="Arial" font-weight="bold" font-size="10.00">query_bindings:</text>
<text text-anchor="start" x="1130.5" y="-460.05" font-family="Arial" font-size="10.00">  list_projects</text>
<text text-anchor="start" x="1054.5" y="-448.05" font-family="Arial" font-weight="bold" font-size="10.00">load:</text>
<text text-anchor="start" x="1078.5" y="-448.05" font-family="Arial" font-size="10.00">  query.project.list</text>
<text text-anchor="start" x="1156.5" y="-448.05" font-family="Arial" font-size="8.00" fill="#94a3b8">  array&lt;Project&gt;</text>
<polygon fill="none" stroke="#2563eb" points="1048,-438.05 1048,-554.05 1305,-554.05 1305,-438.05 1048,-438.05"/>
</g>
<!-- state_empty&#45;&gt;transition_4_empty_empty_data_refresh_signal_projects_changed -->
<g id="edge9" class="edge">
<title>state_empty&#45;&gt;transition_4_empty_empty_data_refresh_signal_projects_changed</title>
<path fill="none" stroke="#3f3f46" d="M987.07,-434.06C1004.84,-438.94 1022.74,-443.98 1040.06,-449"/>
<polygon fill="#3f3f46" stroke="#3f3f46" points="1039.52,-451.75 1047.98,-451.3 1041.08,-446.38 1039.52,-451.75"/>
</g>
<!-- transition_5_empty_error_local_signal_show_transition_not_allowed -->
<g id="node10" class="node">
<title>transition_5_empty_error_local_signal_show_transition_not_allowed</title>
<polygon fill="#ffffff" stroke="transparent" points="1366,-467.55 1366,-538.55 1645,-538.55 1645,-467.55 1366,-467.55"/>
<polygon fill="#2563eb" stroke="transparent" points="1367.5,-529.05 1367.5,-537.05 1644.5,-537.05 1644.5,-529.05 1367.5,-529.05"/>
<polygon fill="#eff6ff" stroke="transparent" points="1367.5,-498.05 1367.5,-529.05 1644.5,-529.05 1644.5,-498.05 1367.5,-498.05"/>
<text text-anchor="start" x="1371.5" y="-515.65" font-family="Arial" font-weight="bold" font-size="13.00">local_signal.show_transition_not_allowed</text>
<text text-anchor="start" x="1371.5" y="-504.65" font-family="Arial" font-size="8.00" fill="#64748b">transition signal</text>
<text text-anchor="start" x="1371.5" y="-487.05" font-family="Arial" font-style="italic" font-size="10.00" fill="#3f3f46">Invalid create attempts move the list into its</text>
<text text-anchor="start" x="1371.5" y="-476.05" font-family="Arial" font-style="italic" font-size="10.00" fill="#3f3f46">displayable error state.</text>
<polygon fill="none" stroke="#2563eb" points="1366,-467.55 1366,-538.55 1645,-538.55 1645,-467.55 1366,-467.55"/>
</g>
<!-- state_empty&#45;&gt;transition_5_empty_error_local_signal_show_transition_not_allowed -->
<g id="edge11" class="edge">
<title>state_empty&#45;&gt;transition_5_empty_error_local_signal_show_transition_not_allowed</title>
<path fill="none" stroke="#3f3f46" d="M987.17,-393.78C1081.61,-395.17 1200.96,-402.32 1305,-425.05 1344.85,-433.76 1387.19,-449.32 1422.55,-464.27"/>
<polygon fill="#3f3f46" stroke="#3f3f46" points="1421.53,-466.88 1429.99,-467.45 1423.73,-461.73 1421.53,-466.88"/>
</g>
<!-- state_error -->
<g id="node2" class="node">
<title>state_error</title>
<polygon fill="#ffffff" stroke="transparent" points="2046,-452.05 2046,-534.05 2223,-534.05 2223,-452.05 2046,-452.05"/>
<polygon fill="#71717a" stroke="transparent" points="2047.5,-525.05 2047.5,-533.05 2222.5,-533.05 2222.5,-525.05 2047.5,-525.05"/>
<polygon fill="#f8fafc" stroke="transparent" points="2047.5,-494.05 2047.5,-525.05 2222.5,-525.05 2222.5,-494.05 2047.5,-494.05"/>
<text text-anchor="start" x="2051.5" y="-511.65" font-family="Arial" font-weight="bold" font-size="13.00">error</text>
<text text-anchor="start" x="2051.5" y="-500.65" font-family="Arial" font-size="8.00" fill="#64748b">state</text>
<text text-anchor="start" x="2051.5" y="-483.05" font-family="Arial" font-weight="bold" font-size="10.00">text</text>
<text text-anchor="start" x="2051.5" y="-471.05" font-family="Arial" font-size="10.00">text_resource.project.list.error.heading</text>
<text text-anchor="start" x="2051.5" y="-460.05" font-family="Arial" font-size="10.00">text_resource.project.list.error.body</text>
<polygon fill="none" stroke="#71717a" points="2046,-452.05 2046,-534.05 2223,-534.05 2223,-452.05 2046,-452.05"/>
</g>
<!-- state_loading -->
<g id="node3" class="node">
<title>state_loading</title>
<polygon fill="#ffffff" stroke="transparent" points="0,-198.05 0,-260.05 222,-260.05 222,-198.05 0,-198.05"/>
<polygon fill="#0891b2" stroke="transparent" points="1,-251.05 1,-259.05 221,-259.05 221,-251.05 1,-251.05"/>
<polygon fill="#ecfeff" stroke="transparent" points="1,-220.05 1,-251.05 221,-251.05 221,-220.05 1,-220.05"/>
<text text-anchor="start" x="5" y="-237.65" font-family="Arial" font-weight="bold" font-size="13.00">loading</text>
<text text-anchor="start" x="5" y="-226.65" font-family="Arial" font-size="8.00" fill="#64748b">initial state</text>
<text text-anchor="start" x="6" y="-208.05" font-family="Arial" font-weight="bold" font-size="10.00">text:</text>
<text text-anchor="start" x="26" y="-208.05" font-family="Arial" font-size="10.00">  text_resource.project.list.loading.message</text>
<polygon fill="none" stroke="#0891b2" points="0,-198.05 0,-260.05 222,-260.05 222,-198.05 0,-198.05"/>
</g>
<!-- transition_0_loading_empty_data_refresh_signal_project_collection_empty -->
<g id="node5" class="node">
<title>transition_0_loading_empty_data_refresh_signal_project_collection_empty</title>
<polygon fill="#ffffff" stroke="transparent" points="283,-327.05 283,-413.05 587,-413.05 587,-327.05 283,-327.05"/>
<polygon fill="#2563eb" stroke="transparent" points="284,-404.05 284,-412.05 586,-412.05 586,-404.05 284,-404.05"/>
<polygon fill="#eff6ff" stroke="transparent" points="284,-373.05 284,-404.05 586,-404.05 586,-373.05 284,-373.05"/>
<text text-anchor="start" x="288" y="-390.65" font-family="Arial" font-weight="bold" font-size="13.00">data_refresh_signal.project_collection_empty</text>
<text text-anchor="start" x="288" y="-379.65" font-family="Arial" font-size="8.00" fill="#64748b">transition signal</text>
<text text-anchor="start" x="289" y="-361.05" font-family="Arial" font-weight="bold" font-size="10.00">input:</text>
<text text-anchor="start" x="317" y="-361.05" font-family="Arial" font-size="10.00">  list_projects.workspace_id</text>
<text text-anchor="start" x="439" y="-361.05" font-family="Arial" font-size="8.00" fill="#94a3b8">  string</text>
<text text-anchor="start" x="289" y="-349.05" font-family="Arial" font-weight="bold" font-size="10.00">query_bindings:</text>
<text text-anchor="start" x="365" y="-349.05" font-family="Arial" font-size="10.00">  list_projects</text>
<text text-anchor="start" x="289" y="-337.05" font-family="Arial" font-weight="bold" font-size="10.00">load:</text>
<text text-anchor="start" x="313" y="-337.05" font-family="Arial" font-size="10.00">  query.project.list</text>
<text text-anchor="start" x="391" y="-337.05" font-family="Arial" font-size="8.00" fill="#94a3b8">  array&lt;Project&gt;</text>
<polygon fill="none" stroke="#2563eb" points="283,-327.05 283,-413.05 587,-413.05 587,-327.05 283,-327.05"/>
</g>
<!-- state_loading&#45;&gt;transition_0_loading_empty_data_refresh_signal_project_collection_empty -->
<g id="edge1" class="edge">
<title>state_loading&#45;&gt;transition_0_loading_empty_data_refresh_signal_project_collection_empty</title>
<path fill="none" stroke="#3f3f46" d="M183.06,-260.17C225.61,-278.8 280.49,-302.83 328.07,-323.66"/>
<polygon fill="#3f3f46" stroke="#3f3f46" points="327.19,-326.33 335.64,-326.98 329.44,-321.2 327.19,-326.33"/>
</g>
<!-- transition_1_loading_ready_data_refresh_signal_projects_loaded -->
<g id="node6" class="node">
<title>transition_1_loading_ready_data_refresh_signal_projects_loaded</title>
<polygon fill="#ffffff" stroke="transparent" points="312.5,-186.05 312.5,-272.05 557.5,-272.05 557.5,-186.05 312.5,-186.05"/>
<polygon fill="#2563eb" stroke="transparent" points="314,-263.05 314,-271.05 557,-271.05 557,-263.05 314,-263.05"/>
<polygon fill="#eff6ff" stroke="transparent" points="314,-232.05 314,-263.05 557,-263.05 557,-232.05 314,-232.05"/>
<text text-anchor="start" x="318" y="-249.65" font-family="Arial" font-weight="bold" font-size="13.00">data_refresh_signal.projects_loaded</text>
<text text-anchor="start" x="318" y="-238.65" font-family="Arial" font-size="8.00" fill="#64748b">transition signal</text>
<text text-anchor="start" x="319" y="-220.05" font-family="Arial" font-weight="bold" font-size="10.00">input:</text>
<text text-anchor="start" x="347" y="-220.05" font-family="Arial" font-size="10.00">  list_projects.workspace_id</text>
<text text-anchor="start" x="469" y="-220.05" font-family="Arial" font-size="8.00" fill="#94a3b8">  string</text>
<text text-anchor="start" x="319" y="-208.05" font-family="Arial" font-weight="bold" font-size="10.00">query_bindings:</text>
<text text-anchor="start" x="395" y="-208.05" font-family="Arial" font-size="10.00">  list_projects</text>
<text text-anchor="start" x="319" y="-196.05" font-family="Arial" font-weight="bold" font-size="10.00">load:</text>
<text text-anchor="start" x="343" y="-196.05" font-family="Arial" font-size="10.00">  query.project.list</text>
<text text-anchor="start" x="421" y="-196.05" font-family="Arial" font-size="8.00" fill="#94a3b8">  array&lt;Project&gt;</text>
<polygon fill="none" stroke="#2563eb" points="312.5,-186.05 312.5,-272.05 557.5,-272.05 557.5,-186.05 312.5,-186.05"/>
</g>
<!-- state_loading&#45;&gt;transition_1_loading_ready_data_refresh_signal_projects_loaded -->
<g id="edge3" class="edge">
<title>state_loading&#45;&gt;transition_1_loading_ready_data_refresh_signal_projects_loaded</title>
<path fill="none" stroke="#3f3f46" d="M222.36,-229.05C248.79,-229.05 277.25,-229.05 304.46,-229.05"/>
<polygon fill="#3f3f46" stroke="#3f3f46" points="304.47,-231.85 312.47,-229.05 304.47,-226.25 304.47,-231.85"/>
</g>
<!-- transition_2_loading_error_data_refresh_signal_project_list_failed -->
<g id="node7" class="node">
<title>transition_2_loading_error_data_refresh_signal_project_list_failed</title>
<polygon fill="#ffffff" stroke="transparent" points="689,-65.05 689,-151.05 946,-151.05 946,-65.05 689,-65.05"/>
<polygon fill="#2563eb" stroke="transparent" points="690.5,-142.05 690.5,-150.05 945.5,-150.05 945.5,-142.05 690.5,-142.05"/>
<polygon fill="#eff6ff" stroke="transparent" points="690.5,-111.05 690.5,-142.05 945.5,-142.05 945.5,-111.05 690.5,-111.05"/>
<text text-anchor="start" x="694.5" y="-128.65" font-family="Arial" font-weight="bold" font-size="13.00">data_refresh_signal.project_list_failed</text>
<text text-anchor="start" x="694.5" y="-117.65" font-family="Arial" font-size="8.00" fill="#64748b">transition signal</text>
<text text-anchor="start" x="695.5" y="-99.05" font-family="Arial" font-weight="bold" font-size="10.00">input:</text>
<text text-anchor="start" x="723.5" y="-99.05" font-family="Arial" font-size="10.00">  list_projects.workspace_id</text>
<text text-anchor="start" x="845.5" y="-99.05" font-family="Arial" font-size="8.00" fill="#94a3b8">  string</text>
<text text-anchor="start" x="695.5" y="-87.05" font-family="Arial" font-weight="bold" font-size="10.00">query_bindings:</text>
<text text-anchor="start" x="771.5" y="-87.05" font-family="Arial" font-size="10.00">  list_projects</text>
<text text-anchor="start" x="695.5" y="-75.05" font-family="Arial" font-weight="bold" font-size="10.00">load:</text>
<text text-anchor="start" x="719.5" y="-75.05" font-family="Arial" font-size="10.00">  query.project.list</text>
<text text-anchor="start" x="797.5" y="-75.05" font-family="Arial" font-size="8.00" fill="#94a3b8">  array&lt;Project&gt;</text>
<polygon fill="none" stroke="#2563eb" points="689,-65.05 689,-151.05 946,-151.05 946,-65.05 689,-65.05"/>
</g>
<!-- state_loading&#45;&gt;transition_2_loading_error_data_refresh_signal_project_list_failed -->
<g id="edge5" class="edge">
<title>state_loading&#45;&gt;transition_2_loading_error_data_refresh_signal_project_list_failed</title>
<path fill="none" stroke="#3f3f46" d="M194.11,-197.93C221.98,-188.38 253.53,-178.66 283,-172.05 416.54,-142.11 572.23,-125.46 680.82,-116.71"/>
<polygon fill="#3f3f46" stroke="#3f3f46" points="681.13,-119.5 688.89,-116.07 680.69,-113.91 681.13,-119.5"/>
</g>
<!-- state_ready -->
<g id="node4" class="node">
<title>state_ready</title>
<polygon fill="#ffffff" stroke="transparent" points="1377.5,-167.55 1377.5,-374.55 1633.5,-374.55 1633.5,-167.55 1377.5,-167.55"/>
<polygon fill="#71717a" stroke="transparent" points="1378.5,-365.05 1378.5,-373.05 1632.5,-373.05 1632.5,-365.05 1378.5,-365.05"/>
<polygon fill="#f8fafc" stroke="transparent" points="1378.5,-334.05 1378.5,-365.05 1632.5,-365.05 1632.5,-334.05 1378.5,-334.05"/>
<text text-anchor="start" x="1382.5" y="-351.65" font-family="Arial" font-weight="bold" font-size="13.00">ready</text>
<text text-anchor="start" x="1382.5" y="-340.65" font-family="Arial" font-size="8.00" fill="#64748b">state</text>
<text text-anchor="start" x="1383.5" y="-322.05" font-family="Arial" font-weight="bold" font-size="10.00">text:</text>
<text text-anchor="start" x="1403.5" y="-322.05" font-family="Arial" font-size="10.00">  text_resource.project.list.ready.heading</text>
<text text-anchor="start" x="1382.5" y="-302.05" font-family="Arial" font-weight="bold" font-size="10.00">query.project.list fields</text>
<text text-anchor="start" x="1382.5" y="-291.05" font-family="Arial" font-size="10.00">title</text>
<text text-anchor="start" x="1398.5" y="-291.05" font-family="Arial" font-size="8.00" fill="#94a3b8">  string</text>
<text text-anchor="start" x="1382.5" y="-280.05" font-family="Arial" font-size="10.00">customer</text>
<text text-anchor="start" x="1423.5" y="-280.05" font-family="Arial" font-size="8.00" fill="#94a3b8">  string</text>
<text text-anchor="start" x="1382.5" y="-269.05" font-family="Arial" font-size="10.00">priority</text>
<text text-anchor="start" x="1412.5" y="-269.05" font-family="Arial" font-size="8.00" fill="#94a3b8">  string</text>
<text text-anchor="start" x="1382.5" y="-258.05" font-family="Arial" font-size="10.00">status</text>
<text text-anchor="start" x="1410.5" y="-258.05" font-family="Arial" font-size="8.00" fill="#94a3b8">  enum&lt;draft|submitted|approved|archived&gt;</text>
<text text-anchor="start" x="1382.5" y="-239.05" font-family="Arial" font-weight="bold" font-size="10.00">command_bindings</text>
<text text-anchor="start" x="1382.5" y="-228.05" font-family="Arial" font-size="10.00">create: command.project.create</text>
<text text-anchor="start" x="1521.5" y="-228.05" font-family="Arial" font-size="8.00" fill="#94a3b8">  Project</text>
<text text-anchor="start" x="1382.5" y="-217.05" font-family="Arial" font-size="10.00">submit: command.project.submit</text>
<text text-anchor="start" x="1525.5" y="-217.05" font-family="Arial" font-size="8.00" fill="#94a3b8">  Project</text>
<text text-anchor="start" x="1382.5" y="-198.05" font-family="Arial" font-weight="bold" font-size="10.00">access_policies</text>
<text text-anchor="start" x="1382.5" y="-186.05" font-family="Arial" font-size="10.00">command.project.create: access_policy.project.member</text>
<text text-anchor="start" x="1382.5" y="-175.05" font-family="Arial" font-size="10.00">command.project.submit: access_policy.project.member</text>
<polygon fill="none" stroke="#71717a" points="1377.5,-167.55 1377.5,-374.55 1633.5,-374.55 1633.5,-167.55 1377.5,-167.55"/>
</g>
<!-- transition_6_ready_ready_local_signal_project_select -->
<g id="node11" class="node">
<title>transition_6_ready_ready_local_signal_project_select</title>
<polygon fill="#ffffff" stroke="transparent" points="1754.5,-356.05 1754.5,-430.05 1936.5,-430.05 1936.5,-356.05 1754.5,-356.05"/>
<polygon fill="#2563eb" stroke="transparent" points="1755.5,-421.05 1755.5,-429.05 1935.5,-429.05 1935.5,-421.05 1755.5,-421.05"/>
<polygon fill="#eff6ff" stroke="transparent" points="1755.5,-390.05 1755.5,-421.05 1935.5,-421.05 1935.5,-390.05 1755.5,-390.05"/>
<text text-anchor="start" x="1759.5" y="-407.65" font-family="Arial" font-weight="bold" font-size="13.00">local_signal.project_select</text>
<text text-anchor="start" x="1759.5" y="-396.65" font-family="Arial" font-size="8.00" fill="#64748b">transition signal</text>
<text text-anchor="start" x="1760.5" y="-378.05" font-family="Arial" font-weight="bold" font-size="10.00">emit:</text>
<text text-anchor="start" x="1784.5" y="-378.05" font-family="Arial" font-size="10.00">  local_signal.project_selected</text>
<text text-anchor="start" x="1760.5" y="-366.05" font-family="Arial" font-weight="bold" font-size="10.00">payload:</text>
<text text-anchor="start" x="1800.5" y="-366.05" font-family="Arial" font-size="10.00">  project_id</text>
<text text-anchor="start" x="1849.5" y="-366.05" font-family="Arial" font-size="8.00" fill="#94a3b8">  string</text>
<polygon fill="none" stroke="#2563eb" points="1754.5,-356.05 1754.5,-430.05 1936.5,-430.05 1936.5,-356.05 1754.5,-356.05"/>
</g>
<!-- state_ready&#45;&gt;transition_6_ready_ready_local_signal_project_select -->
<g id="edge13" class="edge">
<title>state_ready&#45;&gt;transition_6_ready_ready_local_signal_project_select</title>
<path fill="none" stroke="#3f3f46" d="M1633.8,-307.52C1674.86,-321.8 1719.42,-338.15 1756.94,-352.78"/>
<polygon fill="#3f3f46" stroke="#3f3f46" points="1756.36,-355.56 1764.83,-355.87 1758.41,-350.35 1756.36,-355.56"/>
</g>
<!-- transition_7_ready_ready_data_refresh_signal_projects_changed -->
<g id="node12" class="node">
<title>transition_7_ready_ready_data_refresh_signal_projects_changed</title>
<polygon fill="#ffffff" stroke="transparent" points="1717,-213.05 1717,-329.05 1974,-329.05 1974,-213.05 1717,-213.05"/>
<polygon fill="#2563eb" stroke="transparent" points="1718.5,-320.05 1718.5,-328.05 1973.5,-328.05 1973.5,-320.05 1718.5,-320.05"/>
<polygon fill="#eff6ff" stroke="transparent" points="1718.5,-289.05 1718.5,-320.05 1973.5,-320.05 1973.5,-289.05 1718.5,-289.05"/>
<text text-anchor="start" x="1722.5" y="-306.65" font-family="Arial" font-weight="bold" font-size="13.00">data_refresh_signal.projects_changed</text>
<text text-anchor="start" x="1722.5" y="-295.65" font-family="Arial" font-size="8.00" fill="#64748b">transition signal</text>
<text text-anchor="start" x="1722.5" y="-278.05" font-family="Arial" font-style="italic" font-size="10.00" fill="#3f3f46">List mutations mark ready&#45;state collection data</text>
<text text-anchor="start" x="1722.5" y="-267.05" font-family="Arial" font-style="italic" font-size="10.00" fill="#3f3f46">stale and trigger query refresh.</text>
<text text-anchor="start" x="1723.5" y="-247.05" font-family="Arial" font-weight="bold" font-size="10.00">input:</text>
<text text-anchor="start" x="1751.5" y="-247.05" font-family="Arial" font-size="10.00">  list_projects.workspace_id</text>
<text text-anchor="start" x="1873.5" y="-247.05" font-family="Arial" font-size="8.00" fill="#94a3b8">  string</text>
<text text-anchor="start" x="1723.5" y="-235.05" font-family="Arial" font-weight="bold" font-size="10.00">query_bindings:</text>
<text text-anchor="start" x="1799.5" y="-235.05" font-family="Arial" font-size="10.00">  list_projects</text>
<text text-anchor="start" x="1723.5" y="-223.05" font-family="Arial" font-weight="bold" font-size="10.00">load:</text>
<text text-anchor="start" x="1747.5" y="-223.05" font-family="Arial" font-size="10.00">  query.project.list</text>
<text text-anchor="start" x="1825.5" y="-223.05" font-family="Arial" font-size="8.00" fill="#94a3b8">  array&lt;Project&gt;</text>
<polygon fill="none" stroke="#2563eb" points="1717,-213.05 1717,-329.05 1974,-329.05 1974,-213.05 1717,-213.05"/>
</g>
<!-- state_ready&#45;&gt;transition_7_ready_ready_data_refresh_signal_projects_changed -->
<g id="edge15" class="edge">
<title>state_ready&#45;&gt;transition_7_ready_ready_data_refresh_signal_projects_changed</title>
<path fill="none" stroke="#3f3f46" d="M1633.8,-261.57C1658.18,-261.25 1683.79,-261.21 1708.44,-261.46"/>
<polygon fill="#3f3f46" stroke="#3f3f46" points="1708.72,-264.27 1716.75,-261.56 1708.78,-258.67 1708.72,-264.27"/>
</g>
<!-- transition_8_ready_ready_data_refresh_signal_projects_loaded -->
<g id="node13" class="node">
<title>transition_8_ready_ready_data_refresh_signal_projects_loaded</title>
<polygon fill="#ffffff" stroke="transparent" points="1723,-70.05 1723,-186.05 1968,-186.05 1968,-70.05 1723,-70.05"/>
<polygon fill="#2563eb" stroke="transparent" points="1724.5,-177.05 1724.5,-185.05 1967.5,-185.05 1967.5,-177.05 1724.5,-177.05"/>
<polygon fill="#eff6ff" stroke="transparent" points="1724.5,-146.05 1724.5,-177.05 1967.5,-177.05 1967.5,-146.05 1724.5,-146.05"/>
<text text-anchor="start" x="1728.5" y="-163.65" font-family="Arial" font-weight="bold" font-size="13.00">data_refresh_signal.projects_loaded</text>
<text text-anchor="start" x="1728.5" y="-152.65" font-family="Arial" font-size="8.00" fill="#64748b">transition signal</text>
<text text-anchor="start" x="1728.5" y="-135.05" font-family="Arial" font-style="italic" font-size="10.00" fill="#3f3f46">Successful list queries refresh ready&#45;state</text>
<text text-anchor="start" x="1728.5" y="-124.05" font-family="Arial" font-style="italic" font-size="10.00" fill="#3f3f46">collection data.</text>
<text text-anchor="start" x="1729.5" y="-104.05" font-family="Arial" font-weight="bold" font-size="10.00">input:</text>
<text text-anchor="start" x="1757.5" y="-104.05" font-family="Arial" font-size="10.00">  list_projects.workspace_id</text>
<text text-anchor="start" x="1879.5" y="-104.05" font-family="Arial" font-size="8.00" fill="#94a3b8">  string</text>
<text text-anchor="start" x="1729.5" y="-92.05" font-family="Arial" font-weight="bold" font-size="10.00">query_bindings:</text>
<text text-anchor="start" x="1805.5" y="-92.05" font-family="Arial" font-size="10.00">  list_projects</text>
<text text-anchor="start" x="1729.5" y="-80.05" font-family="Arial" font-weight="bold" font-size="10.00">load:</text>
<text text-anchor="start" x="1753.5" y="-80.05" font-family="Arial" font-size="10.00">  query.project.list</text>
<text text-anchor="start" x="1831.5" y="-80.05" font-family="Arial" font-size="8.00" fill="#94a3b8">  array&lt;Project&gt;</text>
<polygon fill="none" stroke="#2563eb" points="1723,-70.05 1723,-186.05 1968,-186.05 1968,-70.05 1723,-70.05"/>
</g>
<!-- state_ready&#45;&gt;transition_8_ready_ready_data_refresh_signal_projects_loaded -->
<g id="edge17" class="edge">
<title>state_ready&#45;&gt;transition_8_ready_ready_data_refresh_signal_projects_loaded</title>
<path fill="none" stroke="#3f3f46" d="M1633.8,-207.71C1660.49,-196.07 1688.65,-184.15 1715.4,-173.16"/>
<polygon fill="#3f3f46" stroke="#3f3f46" points="1716.56,-175.71 1722.9,-170.09 1714.44,-170.53 1716.56,-175.71"/>
</g>
<!-- transition_9_ready_error_local_signal_show_transition_not_allowed -->
<g id="node14" class="node">
<title>transition_9_ready_error_local_signal_show_transition_not_allowed</title>
<polygon fill="#ffffff" stroke="transparent" points="1706,-457.55 1706,-528.55 1985,-528.55 1985,-457.55 1706,-457.55"/>
<polygon fill="#2563eb" stroke="transparent" points="1707.5,-519.05 1707.5,-527.05 1984.5,-527.05 1984.5,-519.05 1707.5,-519.05"/>
<polygon fill="#eff6ff" stroke="transparent" points="1707.5,-488.05 1707.5,-519.05 1984.5,-519.05 1984.5,-488.05 1707.5,-488.05"/>
<text text-anchor="start" x="1711.5" y="-505.65" font-family="Arial" font-weight="bold" font-size="13.00">local_signal.show_transition_not_allowed</text>
<text text-anchor="start" x="1711.5" y="-494.65" font-family="Arial" font-size="8.00" fill="#64748b">transition signal</text>
<text text-anchor="start" x="1711.5" y="-477.05" font-family="Arial" font-style="italic" font-size="10.00" fill="#3f3f46">Invalid list queries move the list into its</text>
<text text-anchor="start" x="1711.5" y="-466.05" font-family="Arial" font-style="italic" font-size="10.00" fill="#3f3f46">displayable error state.</text>
<polygon fill="none" stroke="#2563eb" points="1706,-457.55 1706,-528.55 1985,-528.55 1985,-457.55 1706,-457.55"/>
</g>
<!-- state_ready&#45;&gt;transition_9_ready_error_local_signal_show_transition_not_allowed -->
<g id="edge19" class="edge">
<title>state_ready&#45;&gt;transition_9_ready_error_local_signal_show_transition_not_allowed</title>
<path fill="none" stroke="#3f3f46" d="M1612.31,-374.74C1641.13,-399.38 1673.43,-424.01 1706,-443.05 1712.7,-446.97 1719.77,-450.66 1727.01,-454.12"/>
<polygon fill="#3f3f46" stroke="#3f3f46" points="1725.87,-456.68 1734.3,-457.51 1728.23,-451.6 1725.87,-456.68"/>
</g>
<!-- transition_0_loading_empty_data_refresh_signal_project_collection_empty&#45;&gt;state_empty -->
<g id="edge2" class="edge">
<title>transition_0_loading_empty_data_refresh_signal_project_collection_empty&#45;&gt;state_empty</title>
<path fill="none" stroke="#3f3f46" d="M587.2,-380.78C604.47,-382 622.18,-383.26 639.74,-384.51"/>
<polygon fill="#3f3f46" stroke="#3f3f46" points="639.61,-387.3 647.79,-385.08 640.01,-381.72 639.61,-387.3"/>
</g>
<!-- transition_1_loading_ready_data_refresh_signal_projects_loaded&#45;&gt;state_ready -->
<g id="edge4" class="edge">
<title>transition_1_loading_ready_data_refresh_signal_projects_loaded&#45;&gt;state_ready</title>
<path fill="none" stroke="#3f3f46" d="M557.68,-231.14C725.81,-234.42 1038.59,-241.9 1305,-256.05 1325.76,-257.15 1347.72,-258.56 1369.18,-260.07"/>
<polygon fill="#3f3f46" stroke="#3f3f46" points="1369.2,-262.87 1377.38,-260.65 1369.59,-257.29 1369.2,-262.87"/>
</g>
<!-- transition_2_loading_error_data_refresh_signal_project_list_failed&#45;&gt;state_error -->
<g id="edge6" class="edge">
<title>transition_2_loading_error_data_refresh_signal_project_list_failed&#45;&gt;state_error</title>
<path fill="none" stroke="#3f3f46" d="M946.13,-83.21C1213.65,-34.14 1821.9,60.79 1985,-56.05 2110.99,-146.3 2131.37,-349.62 2133.8,-443.64"/>
<polygon fill="#3f3f46" stroke="#3f3f46" points="2131.01,-443.91 2133.98,-451.85 2136.61,-443.79 2131.01,-443.91"/>
</g>
<!-- transition_3_empty_ready_data_refresh_signal_projects_loaded&#45;&gt;state_ready -->
<g id="edge8" class="edge">
<title>transition_3_empty_ready_data_refresh_signal_projects_loaded&#45;&gt;state_ready</title>
<path fill="none" stroke="#3f3f46" d="M1299.26,-297.41C1322.08,-294.48 1346.07,-291.4 1369.27,-288.42"/>
<polygon fill="#3f3f46" stroke="#3f3f46" points="1369.86,-291.16 1377.44,-287.37 1369.15,-285.61 1369.86,-291.16"/>
</g>
<!-- transition_4_empty_empty_data_refresh_signal_projects_changed&#45;&gt;state_empty -->
<g id="edge10" class="edge">
<title>transition_4_empty_empty_data_refresh_signal_projects_changed&#45;&gt;state_empty</title>
<path fill="none" stroke="#3f3f46" d="M1047.98,-470.8C1030.85,-466.31 1013.03,-461.5 995.24,-456.56"/>
<polygon fill="#3f3f46" stroke="#3f3f46" points="995.53,-453.73 987.07,-454.28 994.02,-459.13 995.53,-453.73"/>
</g>
<!-- transition_5_empty_error_local_signal_show_transition_not_allowed&#45;&gt;state_error -->
<g id="edge12" class="edge">
<title>transition_5_empty_error_local_signal_show_transition_not_allowed&#45;&gt;state_error</title>
<path fill="none" stroke="#3f3f46" d="M1645.25,-533.73C1665.53,-537.18 1686.24,-540.14 1706,-542.05 1829.42,-554 1862.57,-561.73 1985,-542.05 2002.43,-539.25 2020.59,-534.71 2037.99,-529.49"/>
<polygon fill="#3f3f46" stroke="#3f3f46" points="2039.09,-532.08 2045.92,-527.05 2037.45,-526.73 2039.09,-532.08"/>
</g>
<!-- transition_6_ready_ready_local_signal_project_select&#45;&gt;state_ready -->
<g id="edge14" class="edge">
<title>transition_6_ready_ready_local_signal_project_select&#45;&gt;state_ready</title>
<path fill="none" stroke="#3f3f46" d="M1754.42,-369.94C1719.74,-358.46 1679.35,-344.18 1641.36,-330.03"/>
<polygon fill="#3f3f46" stroke="#3f3f46" points="1642.28,-327.39 1633.8,-327.21 1640.32,-332.63 1642.28,-327.39"/>
</g>
<!-- transition_7_ready_ready_data_refresh_signal_projects_changed&#45;&gt;state_ready -->
<g id="edge16" class="edge">
<title>transition_7_ready_ready_data_refresh_signal_projects_changed&#45;&gt;state_ready</title>
<path fill="none" stroke="#3f3f46" d="M1716.75,-281.27C1692.36,-281.61 1666.74,-281.64 1642.11,-281.36"/>
<polygon fill="#3f3f46" stroke="#3f3f46" points="1641.84,-278.56 1633.8,-281.26 1641.77,-284.16 1641.84,-278.56"/>
</g>
<!-- transition_8_ready_ready_data_refresh_signal_projects_loaded&#45;&gt;state_ready -->
<g id="edge18" class="edge">
<title>transition_8_ready_ready_data_refresh_signal_projects_loaded&#45;&gt;state_ready</title>
<path fill="none" stroke="#3f3f46" d="M1730.92,-186.08C1702.17,-198.8 1671.01,-212.1 1641.32,-224.32"/>
<polygon fill="#3f3f46" stroke="#3f3f46" points="1640.14,-221.77 1633.8,-227.4 1642.27,-226.95 1640.14,-221.77"/>
</g>
<!-- transition_9_ready_error_local_signal_show_transition_not_allowed&#45;&gt;state_error -->
<g id="edge20" class="edge">
<title>transition_9_ready_error_local_signal_show_transition_not_allowed&#45;&gt;state_error</title>
<path fill="none" stroke="#3f3f46" d="M1985.38,-493.05C2003.08,-493.05 2020.88,-493.05 2037.7,-493.05"/>
<polygon fill="#3f3f46" stroke="#3f3f46" points="2037.87,-495.85 2045.87,-493.05 2037.87,-490.25 2037.87,-495.85"/>
</g>
</g>
</svg>
