<svg width="2381pt" height="597pt"
 viewBox="0.00 0.00 2381.00 596.90" xmlns="http://www.w3.org/2000/svg" xmlns:xlink="http://www.w3.org/1999/xlink">
<!-- pyspec-contract-input-sha256: e8f24aea2aac15b75286ad3e04a4448faffe4f0a342e5fd06236381a42b06e10 -->
<g id="graph0" class="graph" transform="scale(1 1) rotate(0) translate(18 578.9)">
<title>state_machine_state_machine_project_list</title>
<!-- state_empty -->
<g id="node1" class="node">
<title>state_empty</title>
<polygon fill="#ffffff" stroke="transparent" points="648,-340.4 648,-467.4 987,-467.4 987,-340.4 648,-340.4"/>
<polygon fill="#71717a" stroke="transparent" points="649.5,-457.9 649.5,-465.9 986.5,-465.9 986.5,-457.9 649.5,-457.9"/>
<polygon fill="#f8fafc" stroke="transparent" points="649.5,-426.9 649.5,-457.9 986.5,-457.9 986.5,-426.9 649.5,-426.9"/>
<text text-anchor="start" x="653.5" y="-444.5" font-family="Arial" font-weight="bold" font-size="13.00">empty</text>
<text text-anchor="start" x="653.5" y="-433.5" font-family="Arial" font-size="8.00" fill="#64748b">state</text>
<text text-anchor="start" x="653.5" y="-415.9" font-family="Arial" font-weight="bold" font-size="10.00">text</text>
<text text-anchor="start" x="653.5" y="-403.9" font-family="Arial" font-size="10.00">text_resource.project.list.empty.heading</text>
<text text-anchor="start" x="653.5" y="-392.9" font-family="Arial" font-size="10.00">text_resource.project.list.empty.body</text>
<text text-anchor="start" x="654.5" y="-373.9" font-family="Arial" font-weight="bold" font-size="10.00">assets:</text>
<text text-anchor="start" x="687.5" y="-373.9" font-family="Arial" font-size="10.00">  media_asset.project.list.empty.illustration</text>
<text text-anchor="start" x="654.5" y="-361.9" font-family="Arial" font-weight="bold" font-size="10.00">command_bindings:</text>
<text text-anchor="start" x="751.5" y="-361.9" font-family="Arial" font-size="10.00">  create: command.project.create</text>
<text text-anchor="start" x="896.5" y="-361.9" font-family="Arial" font-size="8.00" fill="#94a3b8">  Project</text>
<text text-anchor="start" x="654.5" y="-349.9" font-family="Arial" font-weight="bold" font-size="10.00">access_policies:</text>
<text text-anchor="start" x="731.5" y="-349.9" font-family="Arial" font-size="10.00">  command.project.create: access_policy.project.member</text>
<polygon fill="none" stroke="#71717a" points="648,-340.4 648,-467.4 987,-467.4 987,-340.4 648,-340.4"/>
</g>
<!-- transition_3_empty_ready_data_refresh_signal_projects_loaded -->
<g id="node8" class="node">
<title>transition_3_empty_ready_data_refresh_signal_projects_loaded</title>
<polygon fill="#ffffff" stroke="transparent" points="1054,-276.9 1054,-362.9 1299,-362.9 1299,-276.9 1054,-276.9"/>
<polygon fill="#2563eb" stroke="transparent" points="1055.5,-353.9 1055.5,-361.9 1298.5,-361.9 1298.5,-353.9 1055.5,-353.9"/>
<polygon fill="#eff6ff" stroke="transparent" points="1055.5,-322.9 1055.5,-353.9 1298.5,-353.9 1298.5,-322.9 1055.5,-322.9"/>
<text text-anchor="start" x="1059.5" y="-340.5" font-family="Arial" font-weight="bold" font-size="13.00">data_refresh_signal.projects_loaded</text>
<text text-anchor="start" x="1059.5" y="-329.5" font-family="Arial" font-size="8.00" fill="#64748b">transition signal</text>
<text text-anchor="start" x="1060.5" y="-310.9" font-family="Arial" font-weight="bold" font-size="10.00">input:</text>
<text text-anchor="start" x="1088.5" y="-310.9" font-family="Arial" font-size="10.00">  list_projects.workspace_id</text>
<text text-anchor="start" x="1210.5" y="-310.9" font-family="Arial" font-size="8.00" fill="#94a3b8">  string</text>
<text text-anchor="start" x="1060.5" y="-298.9" font-family="Arial" font-weight="bold" font-size="10.00">query_bindings:</text>
<text text-anchor="start" x="1136.5" y="-298.9" font-family="Arial" font-size="10.00">  list_projects</text>
<text text-anchor="start" x="1060.5" y="-286.9" font-family="Arial" font-weight="bold" font-size="10.00">load:</text>
<text text-anchor="start" x="1084.5" y="-286.9" font-family="Arial" font-size="10.00">  query.project.list</text>
<text text-anchor="start" x="1162.5" y="-286.9" font-family="Arial" font-size="8.00" fill="#94a3b8">  array&lt;Project&gt;</text>
<polygon fill="none" stroke="#2563eb" points="1054,-276.9 1054,-362.9 1299,-362.9 1299,-276.9 1054,-276.9"/>
</g>
<!-- state_empty&#45;&gt;transition_3_empty_ready_data_refresh_signal_projects_loaded -->
<g id="edge7" class="edge">
<title>state_empty&#45;&gt;transition_3_empty_ready_data_refresh_signal_projects_loaded</title>
<path fill="none" stroke="#3f3f46" d="M987.07,-364.24C1006.9,-359.57 1026.9,-354.86 1046.08,-350.35"/>
<polygon fill="#3f3f46" stroke="#3f3f46" points="1046.81,-353.05 1053.96,-348.5 1045.53,-347.6 1046.81,-353.05"/>
</g>
<!-- transition_4_empty_empty_data_refresh_signal_projects_changed -->
<g id="node9" class="node">
<title>transition_4_empty_empty_data_refresh_signal_projects_changed</title>
<polygon fill="#ffffff" stroke="transparent" points="1048,-444.9 1048,-560.9 1305,-560.9 1305,-444.9 1048,-444.9"/>
<polygon fill="#2563eb" stroke="transparent" points="1049.5,-551.9 1049.5,-559.9 1304.5,-559.9 1304.5,-551.9 1049.5,-551.9"/>
<polygon fill="#eff6ff" stroke="transparent" points="1049.5,-520.9 1049.5,-551.9 1304.5,-551.9 1304.5,-520.9 1049.5,-520.9"/>
<text text-anchor="start" x="1053.5" y="-538.5" font-family="Arial" font-weight="bold" font-size="13.00">data_refresh_signal.projects_changed</text>
<text text-anchor="start" x="1053.5" y="-527.5" font-family="Arial" font-size="8.00" fill="#64748b">transition signal</text>
<text text-anchor="start" x="1053.5" y="-509.9" font-family="Arial" font-style="italic" font-size="10.00" fill="#3f3f46">List mutations invalidate the empty collection and</text>
<text text-anchor="start" x="1053.5" y="-498.9" font-family="Arial" font-style="italic" font-size="10.00" fill="#3f3f46">let the list query refresh it.</text>
<text text-anchor="start" x="1054.5" y="-478.9" font-family="Arial" font-weight="bold" font-size="10.00">input:</text>
<text text-anchor="start" x="1082.5" y="-478.9" font-family="Arial" font-size="10.00">  list_projects.workspace_id</text>
<text text-anchor="start" x="1204.5" y="-478.9" font-family="Arial" font-size="8.00" fill="#94a3b8">  string</text>
<text text-anchor="start" x="1054.5" y="-466.9" font-family="Arial" font-weight="bold" font-size="10.00">query_bindings:</text>
<text text-anchor="start" x="1130.5" y="-466.9" font-family="Arial" font-size="10.00">  list_projects</text>
<text text-anchor="start" x="1054.5" y="-454.9" font-family="Arial" font-weight="bold" font-size="10.00">load:</text>
<text text-anchor="start" x="1078.5" y="-454.9" font-family="Arial" font-size="10.00">  query.project.list</text>
<text text-anchor="start" x="1156.5" y="-454.9" font-family="Arial" font-size="8.00" fill="#94a3b8">  array&lt;Project&gt;</text>
<polygon fill="none" stroke="#2563eb" points="1048,-444.9 1048,-560.9 1305,-560.9 1305,-444.9 1048,-444.9"/>
</g>
<!-- state_empty&#45;&gt;transition_4_empty_empty_data_refresh_signal_projects_changed -->
<g id="edge9" class="edge">
<title>state_empty&#45;&gt;transition_4_empty_empty_data_refresh_signal_projects_changed</title>
<path fill="none" stroke="#3f3f46" d="M987.07,-440.91C1004.84,-445.79 1022.74,-450.83 1040.06,-455.85"/>
<polygon fill="#3f3f46" stroke="#3f3f46" points="1039.52,-458.6 1047.98,-458.15 1041.08,-453.23 1039.52,-458.6"/>
</g>
<!-- transition_5_empty_error_local_signal_show_lifecycle_transition_not_allowed -->
<g id="node10" class="node">
<title>transition_5_empty_error_local_signal_show_lifecycle_transition_not_allowed</title>
<polygon fill="#ffffff" stroke="transparent" points="1366,-474.4 1366,-545.4 1706,-545.4 1706,-474.4 1366,-474.4"/>
<polygon fill="#2563eb" stroke="transparent" points="1367,-535.9 1367,-543.9 1705,-543.9 1705,-535.9 1367,-535.9"/>
<polygon fill="#eff6ff" stroke="transparent" points="1367,-504.9 1367,-535.9 1705,-535.9 1705,-504.9 1367,-504.9"/>
<text text-anchor="start" x="1371" y="-522.5" font-family="Arial" font-weight="bold" font-size="13.00">local_signal.show_lifecycle_transition_not_allowed</text>
<text text-anchor="start" x="1371" y="-511.5" font-family="Arial" font-size="8.00" fill="#64748b">transition signal</text>
<text text-anchor="start" x="1371" y="-493.9" font-family="Arial" font-style="italic" font-size="10.00" fill="#3f3f46">Invalid create attempts move the list into its</text>
<text text-anchor="start" x="1371" y="-482.9" font-family="Arial" font-style="italic" font-size="10.00" fill="#3f3f46">displayable error state.</text>
<polygon fill="none" stroke="#2563eb" points="1366,-474.4 1366,-545.4 1706,-545.4 1706,-474.4 1366,-474.4"/>
</g>
<!-- state_empty&#45;&gt;transition_5_empty_error_local_signal_show_lifecycle_transition_not_allowed -->
<g id="edge11" class="edge">
<title>state_empty&#45;&gt;transition_5_empty_error_local_signal_show_lifecycle_transition_not_allowed</title>
<path fill="none" stroke="#3f3f46" d="M987.07,-402.48C1081.35,-404.46 1200.57,-411.57 1305,-431.9 1350.68,-440.79 1399.73,-456.51 1440.75,-471.53"/>
<polygon fill="#3f3f46" stroke="#3f3f46" points="1439.84,-474.18 1448.31,-474.32 1441.78,-468.92 1439.84,-474.18"/>
</g>
<!-- state_error -->
<g id="node2" class="node">
<title>state_error</title>
<polygon fill="#ffffff" stroke="transparent" points="2168,-458.9 2168,-540.9 2345,-540.9 2345,-458.9 2168,-458.9"/>
<polygon fill="#71717a" stroke="transparent" points="2169.5,-531.9 2169.5,-539.9 2344.5,-539.9 2344.5,-531.9 2169.5,-531.9"/>
<polygon fill="#f8fafc" stroke="transparent" points="2169.5,-500.9 2169.5,-531.9 2344.5,-531.9 2344.5,-500.9 2169.5,-500.9"/>
<text text-anchor="start" x="2173.5" y="-518.5" font-family="Arial" font-weight="bold" font-size="13.00">error</text>
<text text-anchor="start" x="2173.5" y="-507.5" font-family="Arial" font-size="8.00" fill="#64748b">state</text>
<text text-anchor="start" x="2173.5" y="-489.9" font-family="Arial" font-weight="bold" font-size="10.00">text</text>
<text text-anchor="start" x="2173.5" y="-477.9" font-family="Arial" font-size="10.00">text_resource.project.list.error.heading</text>
<text text-anchor="start" x="2173.5" y="-466.9" font-family="Arial" font-size="10.00">text_resource.project.list.error.body</text>
<polygon fill="none" stroke="#71717a" points="2168,-458.9 2168,-540.9 2345,-540.9 2345,-458.9 2168,-458.9"/>
</g>
<!-- state_loading -->
<g id="node3" class="node">
<title>state_loading</title>
<polygon fill="#ffffff" stroke="transparent" points="0,-204.9 0,-266.9 222,-266.9 222,-204.9 0,-204.9"/>
<polygon fill="#0891b2" stroke="transparent" points="1,-257.9 1,-265.9 221,-265.9 221,-257.9 1,-257.9"/>
<polygon fill="#ecfeff" stroke="transparent" points="1,-226.9 1,-257.9 221,-257.9 221,-226.9 1,-226.9"/>
<text text-anchor="start" x="5" y="-244.5" font-family="Arial" font-weight="bold" font-size="13.00">loading</text>
<text text-anchor="start" x="5" y="-233.5" font-family="Arial" font-size="8.00" fill="#64748b">initial state</text>
<text text-anchor="start" x="6" y="-214.9" font-family="Arial" font-weight="bold" font-size="10.00">text:</text>
<text text-anchor="start" x="26" y="-214.9" font-family="Arial" font-size="10.00">  text_resource.project.list.loading.message</text>
<polygon fill="none" stroke="#0891b2" points="0,-204.9 0,-266.9 222,-266.9 222,-204.9 0,-204.9"/>
</g>
<!-- transition_0_loading_empty_data_refresh_signal_project_collection_empty -->
<g id="node5" class="node">
<title>transition_0_loading_empty_data_refresh_signal_project_collection_empty</title>
<polygon fill="#ffffff" stroke="transparent" points="283,-333.9 283,-419.9 587,-419.9 587,-333.9 283,-333.9"/>
<polygon fill="#2563eb" stroke="transparent" points="284,-410.9 284,-418.9 586,-418.9 586,-410.9 284,-410.9"/>
<polygon fill="#eff6ff" stroke="transparent" points="284,-379.9 284,-410.9 586,-410.9 586,-379.9 284,-379.9"/>
<text text-anchor="start" x="288" y="-397.5" font-family="Arial" font-weight="bold" font-size="13.00">data_refresh_signal.project_collection_empty</text>
<text text-anchor="start" x="288" y="-386.5" font-family="Arial" font-size="8.00" fill="#64748b">transition signal</text>
<text text-anchor="start" x="289" y="-367.9" font-family="Arial" font-weight="bold" font-size="10.00">input:</text>
<text text-anchor="start" x="317" y="-367.9" font-family="Arial" font-size="10.00">  list_projects.workspace_id</text>
<text text-anchor="start" x="439" y="-367.9" font-family="Arial" font-size="8.00" fill="#94a3b8">  string</text>
<text text-anchor="start" x="289" y="-355.9" font-family="Arial" font-weight="bold" font-size="10.00">query_bindings:</text>
<text text-anchor="start" x="365" y="-355.9" font-family="Arial" font-size="10.00">  list_projects</text>
<text text-anchor="start" x="289" y="-343.9" font-family="Arial" font-weight="bold" font-size="10.00">load:</text>
<text text-anchor="start" x="313" y="-343.9" font-family="Arial" font-size="10.00">  query.project.list</text>
<text text-anchor="start" x="391" y="-343.9" font-family="Arial" font-size="8.00" fill="#94a3b8">  array&lt;Project&gt;</text>
<polygon fill="none" stroke="#2563eb" points="283,-333.9 283,-419.9 587,-419.9 587,-333.9 283,-333.9"/>
</g>
<!-- state_loading&#45;&gt;transition_0_loading_empty_data_refresh_signal_project_collection_empty -->
<g id="edge1" class="edge">
<title>state_loading&#45;&gt;transition_0_loading_empty_data_refresh_signal_project_collection_empty</title>
<path fill="none" stroke="#3f3f46" d="M183.06,-267.02C225.61,-285.65 280.49,-309.68 328.07,-330.51"/>
<polygon fill="#3f3f46" stroke="#3f3f46" points="327.19,-333.18 335.64,-333.83 329.44,-328.05 327.19,-333.18"/>
</g>
<!-- transition_1_loading_ready_data_refresh_signal_projects_loaded -->
<g id="node6" class="node">
<title>transition_1_loading_ready_data_refresh_signal_projects_loaded</title>
<polygon fill="#ffffff" stroke="transparent" points="312.5,-192.9 312.5,-278.9 557.5,-278.9 557.5,-192.9 312.5,-192.9"/>
<polygon fill="#2563eb" stroke="transparent" points="314,-269.9 314,-277.9 557,-277.9 557,-269.9 314,-269.9"/>
<polygon fill="#eff6ff" stroke="transparent" points="314,-238.9 314,-269.9 557,-269.9 557,-238.9 314,-238.9"/>
<text text-anchor="start" x="318" y="-256.5" font-family="Arial" font-weight="bold" font-size="13.00">data_refresh_signal.projects_loaded</text>
<text text-anchor="start" x="318" y="-245.5" font-family="Arial" font-size="8.00" fill="#64748b">transition signal</text>
<text text-anchor="start" x="319" y="-226.9" font-family="Arial" font-weight="bold" font-size="10.00">input:</text>
<text text-anchor="start" x="347" y="-226.9" font-family="Arial" font-size="10.00">  list_projects.workspace_id</text>
<text text-anchor="start" x="469" y="-226.9" font-family="Arial" font-size="8.00" fill="#94a3b8">  string</text>
<text text-anchor="start" x="319" y="-214.9" font-family="Arial" font-weight="bold" font-size="10.00">query_bindings:</text>
<text text-anchor="start" x="395" y="-214.9" font-family="Arial" font-size="10.00">  list_projects</text>
<text text-anchor="start" x="319" y="-202.9" font-family="Arial" font-weight="bold" font-size="10.00">load:</text>
<text text-anchor="start" x="343" y="-202.9" font-family="Arial" font-size="10.00">  query.project.list</text>
<text text-anchor="start" x="421" y="-202.9" font-family="Arial" font-size="8.00" fill="#94a3b8">  array&lt;Project&gt;</text>
<polygon fill="none" stroke="#2563eb" points="312.5,-192.9 312.5,-278.9 557.5,-278.9 557.5,-192.9 312.5,-192.9"/>
</g>
<!-- state_loading&#45;&gt;transition_1_loading_ready_data_refresh_signal_projects_loaded -->
<g id="edge3" class="edge">
<title>state_loading&#45;&gt;transition_1_loading_ready_data_refresh_signal_projects_loaded</title>
<path fill="none" stroke="#3f3f46" d="M222.36,-235.9C248.79,-235.9 277.25,-235.9 304.46,-235.9"/>
<polygon fill="#3f3f46" stroke="#3f3f46" points="304.47,-238.7 312.47,-235.9 304.47,-233.1 304.47,-238.7"/>
</g>
<!-- transition_2_loading_error_data_refresh_signal_project_list_failed -->
<g id="node7" class="node">
<title>transition_2_loading_error_data_refresh_signal_project_list_failed</title>
<polygon fill="#ffffff" stroke="transparent" points="689,-71.9 689,-157.9 946,-157.9 946,-71.9 689,-71.9"/>
<polygon fill="#2563eb" stroke="transparent" points="690.5,-148.9 690.5,-156.9 945.5,-156.9 945.5,-148.9 690.5,-148.9"/>
<polygon fill="#eff6ff" stroke="transparent" points="690.5,-117.9 690.5,-148.9 945.5,-148.9 945.5,-117.9 690.5,-117.9"/>
<text text-anchor="start" x="694.5" y="-135.5" font-family="Arial" font-weight="bold" font-size="13.00">data_refresh_signal.project_list_failed</text>
<text text-anchor="start" x="694.5" y="-124.5" font-family="Arial" font-size="8.00" fill="#64748b">transition signal</text>
<text text-anchor="start" x="695.5" y="-105.9" font-family="Arial" font-weight="bold" font-size="10.00">input:</text>
<text text-anchor="start" x="723.5" y="-105.9" font-family="Arial" font-size="10.00">  list_projects.workspace_id</text>
<text text-anchor="start" x="845.5" y="-105.9" font-family="Arial" font-size="8.00" fill="#94a3b8">  string</text>
<text text-anchor="start" x="695.5" y="-93.9" font-family="Arial" font-weight="bold" font-size="10.00">query_bindings:</text>
<text text-anchor="start" x="771.5" y="-93.9" font-family="Arial" font-size="10.00">  list_projects</text>
<text text-anchor="start" x="695.5" y="-81.9" font-family="Arial" font-weight="bold" font-size="10.00">load:</text>
<text text-anchor="start" x="719.5" y="-81.9" font-family="Arial" font-size="10.00">  query.project.list</text>
<text text-anchor="start" x="797.5" y="-81.9" font-family="Arial" font-size="8.00" fill="#94a3b8">  array&lt;Project&gt;</text>
<polygon fill="none" stroke="#2563eb" points="689,-71.9 689,-157.9 946,-157.9 946,-71.9 689,-71.9"/>
</g>
<!-- state_loading&#45;&gt;transition_2_loading_error_data_refresh_signal_project_list_failed -->
<g id="edge5" class="edge">
<title>state_loading&#45;&gt;transition_2_loading_error_data_refresh_signal_project_list_failed</title>
<path fill="none" stroke="#3f3f46" d="M194.11,-204.78C221.98,-195.23 253.53,-185.51 283,-178.9 416.54,-148.96 572.23,-132.31 680.82,-123.56"/>
<polygon fill="#3f3f46" stroke="#3f3f46" points="681.13,-126.35 688.89,-122.92 680.69,-120.76 681.13,-126.35"/>
</g>
<!-- state_ready -->
<g id="node4" class="node">
<title>state_ready</title>
<polygon fill="#ffffff" stroke="transparent" points="1408,-174.4 1408,-381.4 1664,-381.4 1664,-174.4 1408,-174.4"/>
<polygon fill="#71717a" stroke="transparent" points="1409,-371.9 1409,-379.9 1663,-379.9 1663,-371.9 1409,-371.9"/>
<polygon fill="#f8fafc" stroke="transparent" points="1409,-340.9 1409,-371.9 1663,-371.9 1663,-340.9 1409,-340.9"/>
<text text-anchor="start" x="1413" y="-358.5" font-family="Arial" font-weight="bold" font-size="13.00">ready</text>
<text text-anchor="start" x="1413" y="-347.5" font-family="Arial" font-size="8.00" fill="#64748b">state</text>
<text text-anchor="start" x="1414" y="-328.9" font-family="Arial" font-weight="bold" font-size="10.00">text:</text>
<text text-anchor="start" x="1434" y="-328.9" font-family="Arial" font-size="10.00">  text_resource.project.list.ready.heading</text>
<text text-anchor="start" x="1413" y="-308.9" font-family="Arial" font-weight="bold" font-size="10.00">query.project.list fields</text>
<text text-anchor="start" x="1413" y="-297.9" font-family="Arial" font-size="10.00">title</text>
<text text-anchor="start" x="1429" y="-297.9" font-family="Arial" font-size="8.00" fill="#94a3b8">  string</text>
<text text-anchor="start" x="1413" y="-286.9" font-family="Arial" font-size="10.00">customer</text>
<text text-anchor="start" x="1454" y="-286.9" font-family="Arial" font-size="8.00" fill="#94a3b8">  string</text>
<text text-anchor="start" x="1413" y="-275.9" font-family="Arial" font-size="10.00">priority</text>
<text text-anchor="start" x="1443" y="-275.9" font-family="Arial" font-size="8.00" fill="#94a3b8">  string</text>
<text text-anchor="start" x="1413" y="-264.9" font-family="Arial" font-size="10.00">status</text>
<text text-anchor="start" x="1441" y="-264.9" font-family="Arial" font-size="8.00" fill="#94a3b8">  enum&lt;draft|submitted|approved|archived&gt;</text>
<text text-anchor="start" x="1413" y="-245.9" font-family="Arial" font-weight="bold" font-size="10.00">command_bindings</text>
<text text-anchor="start" x="1413" y="-234.9" font-family="Arial" font-size="10.00">create: command.project.create</text>
<text text-anchor="start" x="1552" y="-234.9" font-family="Arial" font-size="8.00" fill="#94a3b8">  Project</text>
<text text-anchor="start" x="1413" y="-223.9" font-family="Arial" font-size="10.00">submit: command.project.submit</text>
<text text-anchor="start" x="1556" y="-223.9" font-family="Arial" font-size="8.00" fill="#94a3b8">  Project</text>
<text text-anchor="start" x="1413" y="-204.9" font-family="Arial" font-weight="bold" font-size="10.00">access_policies</text>
<text text-anchor="start" x="1413" y="-192.9" font-family="Arial" font-size="10.00">command.project.create: access_policy.project.member</text>
<text text-anchor="start" x="1413" y="-181.9" font-family="Arial" font-size="10.00">command.project.submit: access_policy.project.member</text>
<polygon fill="none" stroke="#71717a" points="1408,-174.4 1408,-381.4 1664,-381.4 1664,-174.4 1408,-174.4"/>
</g>
<!-- transition_6_ready_ready_local_signal_project_select -->
<g id="node11" class="node">
<title>transition_6_ready_ready_local_signal_project_select</title>
<polygon fill="#ffffff" stroke="transparent" points="1846,-362.9 1846,-436.9 2028,-436.9 2028,-362.9 1846,-362.9"/>
<polygon fill="#2563eb" stroke="transparent" points="1847,-427.9 1847,-435.9 2027,-435.9 2027,-427.9 1847,-427.9"/>
<polygon fill="#eff6ff" stroke="transparent" points="1847,-396.9 1847,-427.9 2027,-427.9 2027,-396.9 1847,-396.9"/>
<text text-anchor="start" x="1851" y="-414.5" font-family="Arial" font-weight="bold" font-size="13.00">local_signal.project_select</text>
<text text-anchor="start" x="1851" y="-403.5" font-family="Arial" font-size="8.00" fill="#64748b">transition signal</text>
<text text-anchor="start" x="1852" y="-384.9" font-family="Arial" font-weight="bold" font-size="10.00">emit:</text>
<text text-anchor="start" x="1876" y="-384.9" font-family="Arial" font-size="10.00">  local_signal.project_selected</text>
<text text-anchor="start" x="1852" y="-372.9" font-family="Arial" font-weight="bold" font-size="10.00">payload:</text>
<text text-anchor="start" x="1892" y="-372.9" font-family="Arial" font-size="10.00">  project_id</text>
<text text-anchor="start" x="1941" y="-372.9" font-family="Arial" font-size="8.00" fill="#94a3b8">  string</text>
<polygon fill="none" stroke="#2563eb" points="1846,-362.9 1846,-436.9 2028,-436.9 2028,-362.9 1846,-362.9"/>
</g>
<!-- state_ready&#45;&gt;transition_6_ready_ready_local_signal_project_select -->
<g id="edge13" class="edge">
<title>state_ready&#45;&gt;transition_6_ready_ready_local_signal_project_select</title>
<path fill="none" stroke="#3f3f46" d="M1664.09,-304.74C1697.55,-314.62 1733.63,-325.71 1767,-335.9 1792.5,-343.68 1820.19,-352.07 1845.63,-360.25"/>
<polygon fill="#3f3f46" stroke="#3f3f46" points="1844.98,-362.98 1853.45,-362.79 1846.7,-357.66 1844.98,-362.98"/>
</g>
<!-- transition_7_ready_ready_data_refresh_signal_projects_changed -->
<g id="node12" class="node">
<title>transition_7_ready_ready_data_refresh_signal_projects_changed</title>
<polygon fill="#ffffff" stroke="transparent" points="1808.5,-219.9 1808.5,-335.9 2065.5,-335.9 2065.5,-219.9 1808.5,-219.9"/>
<polygon fill="#2563eb" stroke="transparent" points="1810,-326.9 1810,-334.9 2065,-334.9 2065,-326.9 1810,-326.9"/>
<polygon fill="#eff6ff" stroke="transparent" points="1810,-295.9 1810,-326.9 2065,-326.9 2065,-295.9 1810,-295.9"/>
<text text-anchor="start" x="1814" y="-313.5" font-family="Arial" font-weight="bold" font-size="13.00">data_refresh_signal.projects_changed</text>
<text text-anchor="start" x="1814" y="-302.5" font-family="Arial" font-size="8.00" fill="#64748b">transition signal</text>
<text text-anchor="start" x="1814" y="-284.9" font-family="Arial" font-style="italic" font-size="10.00" fill="#3f3f46">List mutations mark ready&#45;state collection data</text>
<text text-anchor="start" x="1814" y="-273.9" font-family="Arial" font-style="italic" font-size="10.00" fill="#3f3f46">stale and trigger query refresh.</text>
<text text-anchor="start" x="1815" y="-253.9" font-family="Arial" font-weight="bold" font-size="10.00">input:</text>
<text text-anchor="start" x="1843" y="-253.9" font-family="Arial" font-size="10.00">  list_projects.workspace_id</text>
<text text-anchor="start" x="1965" y="-253.9" font-family="Arial" font-size="8.00" fill="#94a3b8">  string</text>
<text text-anchor="start" x="1815" y="-241.9" font-family="Arial" font-weight="bold" font-size="10.00">query_bindings:</text>
<text text-anchor="start" x="1891" y="-241.9" font-family="Arial" font-size="10.00">  list_projects</text>
<text text-anchor="start" x="1815" y="-229.9" font-family="Arial" font-weight="bold" font-size="10.00">load:</text>
<text text-anchor="start" x="1839" y="-229.9" font-family="Arial" font-size="10.00">  query.project.list</text>
<text text-anchor="start" x="1917" y="-229.9" font-family="Arial" font-size="8.00" fill="#94a3b8">  array&lt;Project&gt;</text>
<polygon fill="none" stroke="#2563eb" points="1808.5,-219.9 1808.5,-335.9 2065.5,-335.9 2065.5,-219.9 1808.5,-219.9"/>
</g>
<!-- state_ready&#45;&gt;transition_7_ready_ready_data_refresh_signal_projects_changed -->
<g id="edge15" class="edge">
<title>state_ready&#45;&gt;transition_7_ready_ready_data_refresh_signal_projects_changed</title>
<path fill="none" stroke="#3f3f46" d="M1664.07,-268.74C1707.45,-268 1756.12,-267.95 1800.16,-268.6"/>
<polygon fill="#3f3f46" stroke="#3f3f46" points="1800.29,-271.41 1808.33,-268.73 1800.38,-265.81 1800.29,-271.41"/>
</g>
<!-- transition_8_ready_ready_data_refresh_signal_projects_loaded -->
<g id="node13" class="node">
<title>transition_8_ready_ready_data_refresh_signal_projects_loaded</title>
<polygon fill="#ffffff" stroke="transparent" points="1814.5,-76.9 1814.5,-192.9 2059.5,-192.9 2059.5,-76.9 1814.5,-76.9"/>
<polygon fill="#2563eb" stroke="transparent" points="1816,-183.9 1816,-191.9 2059,-191.9 2059,-183.9 1816,-183.9"/>
<polygon fill="#eff6ff" stroke="transparent" points="1816,-152.9 1816,-183.9 2059,-183.9 2059,-152.9 1816,-152.9"/>
<text text-anchor="start" x="1820" y="-170.5" font-family="Arial" font-weight="bold" font-size="13.00">data_refresh_signal.projects_loaded</text>
<text text-anchor="start" x="1820" y="-159.5" font-family="Arial" font-size="8.00" fill="#64748b">transition signal</text>
<text text-anchor="start" x="1820" y="-141.9" font-family="Arial" font-style="italic" font-size="10.00" fill="#3f3f46">Successful list queries refresh ready&#45;state</text>
<text text-anchor="start" x="1820" y="-130.9" font-family="Arial" font-style="italic" font-size="10.00" fill="#3f3f46">collection data.</text>
<text text-anchor="start" x="1821" y="-110.9" font-family="Arial" font-weight="bold" font-size="10.00">input:</text>
<text text-anchor="start" x="1849" y="-110.9" font-family="Arial" font-size="10.00">  list_projects.workspace_id</text>
<text text-anchor="start" x="1971" y="-110.9" font-family="Arial" font-size="8.00" fill="#94a3b8">  string</text>
<text text-anchor="start" x="1821" y="-98.9" font-family="Arial" font-weight="bold" font-size="10.00">query_bindings:</text>
<text text-anchor="start" x="1897" y="-98.9" font-family="Arial" font-size="10.00">  list_projects</text>
<text text-anchor="start" x="1821" y="-86.9" font-family="Arial" font-weight="bold" font-size="10.00">load:</text>
<text text-anchor="start" x="1845" y="-86.9" font-family="Arial" font-size="10.00">  query.project.list</text>
<text text-anchor="start" x="1923" y="-86.9" font-family="Arial" font-size="8.00" fill="#94a3b8">  array&lt;Project&gt;</text>
<polygon fill="none" stroke="#2563eb" points="1814.5,-76.9 1814.5,-192.9 2059.5,-192.9 2059.5,-76.9 1814.5,-76.9"/>
</g>
<!-- state_ready&#45;&gt;transition_8_ready_ready_data_refresh_signal_projects_loaded -->
<g id="edge17" class="edge">
<title>state_ready&#45;&gt;transition_8_ready_ready_data_refresh_signal_projects_loaded</title>
<path fill="none" stroke="#3f3f46" d="M1664.07,-223.2C1709.67,-206.08 1761.1,-187.63 1806.87,-171.99"/>
<polygon fill="#3f3f46" stroke="#3f3f46" points="1807.79,-174.63 1814.46,-169.4 1805.99,-169.33 1807.79,-174.63"/>
</g>
<!-- transition_9_ready_error_local_signal_show_lifecycle_transition_not_allowed -->
<g id="node14" class="node">
<title>transition_9_ready_error_local_signal_show_lifecycle_transition_not_allowed</title>
<polygon fill="#ffffff" stroke="transparent" points="1767,-464.4 1767,-535.4 2107,-535.4 2107,-464.4 1767,-464.4"/>
<polygon fill="#2563eb" stroke="transparent" points="1768,-525.9 1768,-533.9 2106,-533.9 2106,-525.9 1768,-525.9"/>
<polygon fill="#eff6ff" stroke="transparent" points="1768,-494.9 1768,-525.9 2106,-525.9 2106,-494.9 1768,-494.9"/>
<text text-anchor="start" x="1772" y="-512.5" font-family="Arial" font-weight="bold" font-size="13.00">local_signal.show_lifecycle_transition_not_allowed</text>
<text text-anchor="start" x="1772" y="-501.5" font-family="Arial" font-size="8.00" fill="#64748b">transition signal</text>
<text text-anchor="start" x="1772" y="-483.9" font-family="Arial" font-style="italic" font-size="10.00" fill="#3f3f46">Invalid list queries move the list into its</text>
<text text-anchor="start" x="1772" y="-472.9" font-family="Arial" font-style="italic" font-size="10.00" fill="#3f3f46">displayable error state.</text>
<polygon fill="none" stroke="#2563eb" points="1767,-464.4 1767,-535.4 2107,-535.4 2107,-464.4 1767,-464.4"/>
</g>
<!-- state_ready&#45;&gt;transition_9_ready_error_local_signal_show_lifecycle_transition_not_allowed -->
<g id="edge19" class="edge">
<title>state_ready&#45;&gt;transition_9_ready_error_local_signal_show_lifecycle_transition_not_allowed</title>
<path fill="none" stroke="#3f3f46" d="M1658.86,-381.52C1692.38,-406.45 1729.78,-431.23 1767,-449.9 1775.23,-454.02 1783.85,-457.87 1792.67,-461.45"/>
<polygon fill="#3f3f46" stroke="#3f3f46" points="1791.65,-464.05 1800.12,-464.39 1793.71,-458.85 1791.65,-464.05"/>
</g>
<!-- transition_0_loading_empty_data_refresh_signal_project_collection_empty&#45;&gt;state_empty -->
<g id="edge2" class="edge">
<title>transition_0_loading_empty_data_refresh_signal_project_collection_empty&#45;&gt;state_empty</title>
<path fill="none" stroke="#3f3f46" d="M587.2,-387.63C604.47,-388.85 622.18,-390.11 639.74,-391.36"/>
<polygon fill="#3f3f46" stroke="#3f3f46" points="639.61,-394.15 647.79,-391.93 640.01,-388.57 639.61,-394.15"/>
</g>
<!-- transition_1_loading_ready_data_refresh_signal_projects_loaded&#45;&gt;state_ready -->
<g id="edge4" class="edge">
<title>transition_1_loading_ready_data_refresh_signal_projects_loaded&#45;&gt;state_ready</title>
<path fill="none" stroke="#3f3f46" d="M557.66,-238.37C725.77,-242.09 1038.52,-250.07 1305,-262.9 1335.64,-264.37 1368.55,-266.31 1399.62,-268.3"/>
<polygon fill="#3f3f46" stroke="#3f3f46" points="1399.74,-271.11 1407.91,-268.83 1400.1,-265.52 1399.74,-271.11"/>
</g>
<!-- transition_2_loading_error_data_refresh_signal_project_list_failed&#45;&gt;state_error -->
<g id="edge6" class="edge">
<title>transition_2_loading_error_data_refresh_signal_project_list_failed&#45;&gt;state_error</title>
<path fill="none" stroke="#3f3f46" d="M946.04,-90.59C1234.08,-38.65 1924.09,68.13 2107,-62.9 2232.99,-153.15 2253.37,-356.47 2255.8,-450.49"/>
<polygon fill="#3f3f46" stroke="#3f3f46" points="2253.01,-450.76 2255.98,-458.7 2258.61,-450.64 2253.01,-450.76"/>
</g>
<!-- transition_3_empty_ready_data_refresh_signal_projects_loaded&#45;&gt;state_ready -->
<g id="edge8" class="edge">
<title>transition_3_empty_ready_data_refresh_signal_projects_loaded&#45;&gt;state_ready</title>
<path fill="none" stroke="#3f3f46" d="M1299.03,-305.62C1331.32,-301.83 1366.38,-297.71 1399.37,-293.83"/>
<polygon fill="#3f3f46" stroke="#3f3f46" points="1400.08,-296.57 1407.7,-292.85 1399.43,-291.01 1400.08,-296.57"/>
</g>
<!-- transition_4_empty_empty_data_refresh_signal_projects_changed&#45;&gt;state_empty -->
<g id="edge10" class="edge">
<title>transition_4_empty_empty_data_refresh_signal_projects_changed&#45;&gt;state_empty</title>
<path fill="none" stroke="#3f3f46" d="M1047.98,-477.65C1030.85,-473.16 1013.03,-468.35 995.24,-463.41"/>
<polygon fill="#3f3f46" stroke="#3f3f46" points="995.53,-460.58 987.07,-461.13 994.02,-465.98 995.53,-460.58"/>
</g>
<!-- transition_5_empty_error_local_signal_show_lifecycle_transition_not_allowed&#45;&gt;state_error -->
<g id="edge12" class="edge">
<title>transition_5_empty_error_local_signal_show_lifecycle_transition_not_allowed&#45;&gt;state_error</title>
<path fill="none" stroke="#3f3f46" d="M1706.27,-541.5C1820.14,-557.87 1973.32,-570.38 2107,-548.9 2124.43,-546.1 2142.59,-541.56 2159.99,-536.34"/>
<polygon fill="#3f3f46" stroke="#3f3f46" points="2161.09,-538.93 2167.92,-533.9 2159.45,-533.58 2161.09,-538.93"/>
</g>
<!-- transition_6_ready_ready_local_signal_project_select&#45;&gt;state_ready -->
<g id="edge14" class="edge">
<title>transition_6_ready_ready_local_signal_project_select&#45;&gt;state_ready</title>
<path fill="none" stroke="#3f3f46" d="M1845.63,-386.19C1820.19,-379.07 1792.5,-370.68 1767,-362.9 1736.23,-353.51 1703.17,-343.34 1671.98,-333.34"/>
<polygon fill="#3f3f46" stroke="#3f3f46" points="1672.57,-330.59 1664.09,-330.8 1670.85,-335.92 1672.57,-330.59"/>
</g>
<!-- transition_7_ready_ready_data_refresh_signal_projects_changed&#45;&gt;state_ready -->
<g id="edge16" class="edge">
<title>transition_7_ready_ready_data_refresh_signal_projects_changed&#45;&gt;state_ready</title>
<path fill="none" stroke="#3f3f46" d="M1808.33,-287.77C1764.9,-288.56 1716.23,-288.61 1672.23,-287.9"/>
<polygon fill="#3f3f46" stroke="#3f3f46" points="1672.12,-285.1 1664.07,-287.76 1672.02,-290.7 1672.12,-285.1"/>
</g>
<!-- transition_8_ready_ready_data_refresh_signal_projects_loaded&#45;&gt;state_ready -->
<g id="edge18" class="edge">
<title>transition_8_ready_ready_data_refresh_signal_projects_loaded&#45;&gt;state_ready</title>
<path fill="none" stroke="#3f3f46" d="M1814.46,-188.21C1769.36,-205.28 1717.95,-223.79 1671.74,-239.6"/>
<polygon fill="#3f3f46" stroke="#3f3f46" points="1670.74,-236.98 1664.07,-242.22 1672.54,-242.28 1670.74,-236.98"/>
</g>
<!-- transition_9_ready_error_local_signal_show_lifecycle_transition_not_allowed&#45;&gt;state_error -->
<g id="edge20" class="edge">
<title>transition_9_ready_error_local_signal_show_lifecycle_transition_not_allowed&#45;&gt;state_error</title>
<path fill="none" stroke="#3f3f46" d="M2107.44,-499.9C2125.34,-499.9 2143.07,-499.9 2159.69,-499.9"/>
<polygon fill="#3f3f46" stroke="#3f3f46" points="2159.76,-502.7 2167.76,-499.9 2159.76,-497.1 2159.76,-502.7"/>
</g>
</g>
</svg>
