<svg width="1573pt" height="327pt"
 viewBox="0.00 0.00 1573.00 326.50" xmlns="http://www.w3.org/2000/svg" xmlns:xlink="http://www.w3.org/1999/xlink">
<!-- pyspec-contract-input-sha256: 58855f2b052d25c1f1bd25ea70f2374a1a3ce8df945a52be56dc54cc63a1c825 -->
<g id="graph0" class="graph" transform="scale(1 1) rotate(0) translate(18 308.5)">
<title>state_machine_state_machine_project_list</title>
<!-- initial_view_state -->
<g id="node1" class="node">
<title>initial_view_state</title>
<ellipse fill="none" stroke="#0891b2" cx="21" cy="-127" rx="21" ry="21"/>
<text text-anchor="middle" x="21" y="-124.8" font-family="Arial" font-size="9.00" fill="#155e75">initial_view_state</text>
</g>
<!-- view_state_loading -->
<g id="node4" class="node">
<title>view_state_loading</title>
<polygon fill="#ffffff" stroke="transparent" points="103,-96 103,-158 283,-158 283,-96 103,-96"/>
<polygon fill="#0891b2" stroke="transparent" points="104,-149 104,-157 282,-157 282,-149 104,-149"/>
<polygon fill="#ecfeff" stroke="transparent" points="104,-118 104,-149 282,-149 282,-118 104,-118"/>
<text text-anchor="start" x="108" y="-135.6" font-family="Arial" font-weight="bold" font-size="13.00">loading</text>
<text text-anchor="start" x="108" y="-124.6" font-family="Arial" font-size="8.00" fill="#64748b">initial view state</text>
<text text-anchor="start" x="109" y="-106" font-family="Arial" font-weight="bold" font-size="10.00">text:</text>
<text text-anchor="start" x="129" y="-106" font-family="Arial" font-size="10.00">  text.project.list.loading.message</text>
<polygon fill="none" stroke="#0891b2" points="103,-96 103,-158 283,-158 283,-96 103,-96"/>
</g>
<!-- initial_view_state&#45;&gt;view_state_loading -->
<g id="edge1" class="edge">
<title>initial_view_state&#45;&gt;view_state_loading</title>
<path fill="none" stroke="#3f3f46" d="M42.17,-127C55.7,-127 74.62,-127 94.47,-127"/>
<polygon fill="#3f3f46" stroke="#3f3f46" points="94.72,-129.8 102.72,-127 94.72,-124.2 94.72,-129.8"/>
</g>
<!-- view_state_empty -->
<g id="node2" class="node">
<title>view_state_empty</title>
<polygon fill="#ffffff" stroke="transparent" points="593,-175.5 593,-290.5 814,-290.5 814,-175.5 593,-175.5"/>
<polygon fill="#71717a" stroke="transparent" points="594.5,-281 594.5,-289 813.5,-289 813.5,-281 594.5,-281"/>
<polygon fill="#f8fafc" stroke="transparent" points="594.5,-250 594.5,-281 813.5,-281 813.5,-250 594.5,-250"/>
<text text-anchor="start" x="598.5" y="-267.6" font-family="Arial" font-weight="bold" font-size="13.00">empty</text>
<text text-anchor="start" x="598.5" y="-256.6" font-family="Arial" font-size="8.00" fill="#64748b">view state</text>
<text text-anchor="start" x="598.5" y="-239" font-family="Arial" font-weight="bold" font-size="10.00">text</text>
<text text-anchor="start" x="598.5" y="-227" font-family="Arial" font-size="10.00">text.project.list.empty.heading</text>
<text text-anchor="start" x="598.5" y="-216" font-family="Arial" font-size="10.00">text.project.list.empty.body</text>
<text text-anchor="start" x="599.5" y="-197" font-family="Arial" font-weight="bold" font-size="10.00">assets:</text>
<text text-anchor="start" x="632.5" y="-197" font-family="Arial" font-size="10.00">  asset.project.list.empty.illustration</text>
<text text-anchor="start" x="599.5" y="-185" font-family="Arial" font-weight="bold" font-size="10.00">operation_refs:</text>
<text text-anchor="start" x="669.5" y="-185" font-family="Arial" font-size="10.00">  operation.project.create</text>
<text text-anchor="start" x="778.5" y="-185" font-family="Arial" font-size="8.00" fill="#94a3b8">  Project</text>
<polygon fill="none" stroke="#71717a" points="593,-175.5 593,-290.5 814,-290.5 814,-175.5 593,-175.5"/>
</g>
<!-- transition_3_empty_ready_data_ready -->
<g id="node9" class="node">
<title>transition_3_empty_ready_data_ready</title>
<polygon fill="#ffffff" stroke="transparent" points="875,-194 875,-280 1063,-280 1063,-194 875,-194"/>
<polygon fill="#2563eb" stroke="transparent" points="876,-271 876,-279 1062,-279 1062,-271 876,-271"/>
<polygon fill="#eff6ff" stroke="transparent" points="876,-240 876,-271 1062,-271 1062,-240 876,-240"/>
<text text-anchor="start" x="880" y="-257.6" font-family="Arial" font-weight="bold" font-size="13.00">data.ready</text>
<text text-anchor="start" x="880" y="-246.6" font-family="Arial" font-size="8.00" fill="#64748b">transition event</text>
<text text-anchor="start" x="881" y="-228" font-family="Arial" font-weight="bold" font-size="10.00">input:</text>
<text text-anchor="start" x="909" y="-228" font-family="Arial" font-size="10.00">  workspace_id</text>
<text text-anchor="start" x="976" y="-228" font-family="Arial" font-size="8.00" fill="#94a3b8">  ID</text>
<text text-anchor="start" x="881" y="-216" font-family="Arial" font-weight="bold" font-size="10.00">query:</text>
<text text-anchor="start" x="911" y="-216" font-family="Arial" font-size="10.00">  query.project.list.list</text>
<text text-anchor="start" x="881" y="-204" font-family="Arial" font-weight="bold" font-size="10.00">load:</text>
<text text-anchor="start" x="905" y="-204" font-family="Arial" font-size="10.00">  operation.project.list</text>
<text text-anchor="start" x="999" y="-204" font-family="Arial" font-size="8.00" fill="#94a3b8">  array&lt;Project&gt;</text>
<polygon fill="none" stroke="#2563eb" points="875,-194 875,-280 1063,-280 1063,-194 875,-194"/>
</g>
<!-- view_state_empty&#45;&gt;transition_3_empty_ready_data_ready -->
<g id="edge8" class="edge">
<title>view_state_empty&#45;&gt;transition_3_empty_ready_data_ready</title>
<path fill="none" stroke="#3f3f46" d="M814.34,-234.67C831.57,-234.93 849.32,-235.2 866.36,-235.46"/>
<polygon fill="#3f3f46" stroke="#3f3f46" points="866.62,-238.26 874.66,-235.58 866.7,-232.66 866.62,-238.26"/>
</g>
<!-- view_state_error -->
<g id="node3" class="node">
<title>view_state_error</title>
<polygon fill="#ffffff" stroke="transparent" points="636.5,-2 636.5,-84 770.5,-84 770.5,-2 636.5,-2"/>
<polygon fill="#71717a" stroke="transparent" points="637.5,-75 637.5,-83 769.5,-83 769.5,-75 637.5,-75"/>
<polygon fill="#f8fafc" stroke="transparent" points="637.5,-44 637.5,-75 769.5,-75 769.5,-44 637.5,-44"/>
<text text-anchor="start" x="641.5" y="-61.6" font-family="Arial" font-weight="bold" font-size="13.00">error</text>
<text text-anchor="start" x="641.5" y="-50.6" font-family="Arial" font-size="8.00" fill="#64748b">view state</text>
<text text-anchor="start" x="641.5" y="-33" font-family="Arial" font-weight="bold" font-size="10.00">text</text>
<text text-anchor="start" x="641.5" y="-21" font-family="Arial" font-size="10.00">text.project.list.error.heading</text>
<text text-anchor="start" x="641.5" y="-10" font-family="Arial" font-size="10.00">text.project.list.error.body</text>
<polygon fill="none" stroke="#71717a" points="636.5,-2 636.5,-84 770.5,-84 770.5,-2 636.5,-2"/>
</g>
<!-- transition_0_loading_empty_data_empty -->
<g id="node6" class="node">
<title>transition_0_loading_empty_data_empty</title>
<polygon fill="#ffffff" stroke="transparent" points="344,-175 344,-261 532,-261 532,-175 344,-175"/>
<polygon fill="#2563eb" stroke="transparent" points="345,-252 345,-260 531,-260 531,-252 345,-252"/>
<polygon fill="#eff6ff" stroke="transparent" points="345,-221 345,-252 531,-252 531,-221 345,-221"/>
<text text-anchor="start" x="349" y="-238.6" font-family="Arial" font-weight="bold" font-size="13.00">data.empty</text>
<text text-anchor="start" x="349" y="-227.6" font-family="Arial" font-size="8.00" fill="#64748b">transition event</text>
<text text-anchor="start" x="350" y="-209" font-family="Arial" font-weight="bold" font-size="10.00">input:</text>
<text text-anchor="start" x="378" y="-209" font-family="Arial" font-size="10.00">  workspace_id</text>
<text text-anchor="start" x="445" y="-209" font-family="Arial" font-size="8.00" fill="#94a3b8">  ID</text>
<text text-anchor="start" x="350" y="-197" font-family="Arial" font-weight="bold" font-size="10.00">query:</text>
<text text-anchor="start" x="380" y="-197" font-family="Arial" font-size="10.00">  query.project.list.list</text>
<text text-anchor="start" x="350" y="-185" font-family="Arial" font-weight="bold" font-size="10.00">load:</text>
<text text-anchor="start" x="374" y="-185" font-family="Arial" font-size="10.00">  operation.project.list</text>
<text text-anchor="start" x="468" y="-185" font-family="Arial" font-size="8.00" fill="#94a3b8">  array&lt;Project&gt;</text>
<polygon fill="none" stroke="#2563eb" points="344,-175 344,-261 532,-261 532,-175 344,-175"/>
</g>
<!-- view_state_loading&#45;&gt;transition_0_loading_empty_data_empty -->
<g id="edge2" class="edge">
<title>view_state_loading&#45;&gt;transition_0_loading_empty_data_empty</title>
<path fill="none" stroke="#3f3f46" d="M276.95,-158.06C296.09,-165.23 316.65,-172.93 336.45,-180.35"/>
<polygon fill="#3f3f46" stroke="#3f3f46" points="335.52,-182.99 344,-183.17 337.49,-177.74 335.52,-182.99"/>
</g>
<!-- transition_1_loading_ready_data_ready -->
<g id="node7" class="node">
<title>transition_1_loading_ready_data_ready</title>
<polygon fill="#ffffff" stroke="transparent" points="875,-81 875,-167 1063,-167 1063,-81 875,-81"/>
<polygon fill="#2563eb" stroke="transparent" points="876,-158 876,-166 1062,-166 1062,-158 876,-158"/>
<polygon fill="#eff6ff" stroke="transparent" points="876,-127 876,-158 1062,-158 1062,-127 876,-127"/>
<text text-anchor="start" x="880" y="-144.6" font-family="Arial" font-weight="bold" font-size="13.00">data.ready</text>
<text text-anchor="start" x="880" y="-133.6" font-family="Arial" font-size="8.00" fill="#64748b">transition event</text>
<text text-anchor="start" x="881" y="-115" font-family="Arial" font-weight="bold" font-size="10.00">input:</text>
<text text-anchor="start" x="909" y="-115" font-family="Arial" font-size="10.00">  workspace_id</text>
<text text-anchor="start" x="976" y="-115" font-family="Arial" font-size="8.00" fill="#94a3b8">  ID</text>
<text text-anchor="start" x="881" y="-103" font-family="Arial" font-weight="bold" font-size="10.00">query:</text>
<text text-anchor="start" x="911" y="-103" font-family="Arial" font-size="10.00">  query.project.list.list</text>
<text text-anchor="start" x="881" y="-91" font-family="Arial" font-weight="bold" font-size="10.00">load:</text>
<text text-anchor="start" x="905" y="-91" font-family="Arial" font-size="10.00">  operation.project.list</text>
<text text-anchor="start" x="999" y="-91" font-family="Arial" font-size="8.00" fill="#94a3b8">  array&lt;Project&gt;</text>
<polygon fill="none" stroke="#2563eb" points="875,-81 875,-167 1063,-167 1063,-81 875,-81"/>
</g>
<!-- view_state_loading&#45;&gt;transition_1_loading_ready_data_ready -->
<g id="edge4" class="edge">
<title>view_state_loading&#45;&gt;transition_1_loading_ready_data_ready</title>
<path fill="none" stroke="#3f3f46" d="M283.17,-126.65C428.24,-126.09 714.47,-124.98 866.9,-124.39"/>
<polygon fill="#3f3f46" stroke="#3f3f46" points="866.96,-127.19 874.95,-124.36 866.94,-121.59 866.96,-127.19"/>
</g>
<!-- transition_2_loading_error_data_error -->
<g id="node8" class="node">
<title>transition_2_loading_error_data_error</title>
<polygon fill="#ffffff" stroke="transparent" points="344,0 344,-86 532,-86 532,0 344,0"/>
<polygon fill="#2563eb" stroke="transparent" points="345,-77 345,-85 531,-85 531,-77 345,-77"/>
<polygon fill="#eff6ff" stroke="transparent" points="345,-46 345,-77 531,-77 531,-46 345,-46"/>
<text text-anchor="start" x="349" y="-63.6" font-family="Arial" font-weight="bold" font-size="13.00">data.error</text>
<text text-anchor="start" x="349" y="-52.6" font-family="Arial" font-size="8.00" fill="#64748b">transition event</text>
<text text-anchor="start" x="350" y="-34" font-family="Arial" font-weight="bold" font-size="10.00">input:</text>
<text text-anchor="start" x="378" y="-34" font-family="Arial" font-size="10.00">  workspace_id</text>
<text text-anchor="start" x="445" y="-34" font-family="Arial" font-size="8.00" fill="#94a3b8">  ID</text>
<text text-anchor="start" x="350" y="-22" font-family="Arial" font-weight="bold" font-size="10.00">query:</text>
<text text-anchor="start" x="380" y="-22" font-family="Arial" font-size="10.00">  query.project.list.list</text>
<text text-anchor="start" x="350" y="-10" font-family="Arial" font-weight="bold" font-size="10.00">load:</text>
<text text-anchor="start" x="374" y="-10" font-family="Arial" font-size="10.00">  operation.project.list</text>
<text text-anchor="start" x="468" y="-10" font-family="Arial" font-size="8.00" fill="#94a3b8">  array&lt;Project&gt;</text>
<polygon fill="none" stroke="#2563eb" points="344,0 344,-86 532,-86 532,0 344,0"/>
</g>
<!-- view_state_loading&#45;&gt;transition_2_loading_error_data_error -->
<g id="edge6" class="edge">
<title>view_state_loading&#45;&gt;transition_2_loading_error_data_error</title>
<path fill="none" stroke="#3f3f46" d="M283.1,-96.2C300.25,-90.27 318.33,-84.02 335.83,-77.97"/>
<polygon fill="#3f3f46" stroke="#3f3f46" points="337.18,-80.47 343.83,-75.21 335.35,-75.18 337.18,-80.47"/>
</g>
<!-- view_state_ready -->
<g id="node5" class="node">
<title>view_state_ready</title>
<polygon fill="#ffffff" stroke="transparent" points="1124,-97 1124,-263 1318,-263 1318,-97 1124,-97"/>
<polygon fill="#71717a" stroke="transparent" points="1125,-254 1125,-262 1317,-262 1317,-254 1125,-254"/>
<polygon fill="#f8fafc" stroke="transparent" points="1125,-223 1125,-254 1317,-254 1317,-223 1125,-223"/>
<text text-anchor="start" x="1129" y="-240.6" font-family="Arial" font-weight="bold" font-size="13.00">ready</text>
<text text-anchor="start" x="1129" y="-229.6" font-family="Arial" font-size="8.00" fill="#64748b">view state</text>
<text text-anchor="start" x="1130" y="-211" font-family="Arial" font-weight="bold" font-size="10.00">text:</text>
<text text-anchor="start" x="1150" y="-211" font-family="Arial" font-size="10.00">  text.project.list.ready.heading</text>
<text text-anchor="start" x="1129" y="-191" font-family="Arial" font-weight="bold" font-size="10.00">operation.project.list fields</text>
<text text-anchor="start" x="1129" y="-180" font-family="Arial" font-size="10.00">title</text>
<text text-anchor="start" x="1145" y="-180" font-family="Arial" font-size="8.00" fill="#94a3b8">  Text</text>
<text text-anchor="start" x="1129" y="-169" font-family="Arial" font-size="10.00">customer</text>
<text text-anchor="start" x="1170" y="-169" font-family="Arial" font-size="8.00" fill="#94a3b8">  Text</text>
<text text-anchor="start" x="1129" y="-158" font-family="Arial" font-size="10.00">priority</text>
<text text-anchor="start" x="1159" y="-158" font-family="Arial" font-size="8.00" fill="#94a3b8">  Text</text>
<text text-anchor="start" x="1129" y="-147" font-family="Arial" font-size="10.00">status</text>
<text text-anchor="start" x="1157" y="-147" font-family="Arial" font-size="8.00" fill="#94a3b8">  enum&lt;draft|submitted|approved|archived&gt;</text>
<text text-anchor="start" x="1129" y="-128" font-family="Arial" font-weight="bold" font-size="10.00">operation_refs</text>
<text text-anchor="start" x="1129" y="-117" font-family="Arial" font-size="10.00">operation.project.create</text>
<text text-anchor="start" x="1232" y="-117" font-family="Arial" font-size="8.00" fill="#94a3b8">  Project</text>
<text text-anchor="start" x="1129" y="-106" font-family="Arial" font-size="10.00">operation.project.submit</text>
<text text-anchor="start" x="1234" y="-106" font-family="Arial" font-size="8.00" fill="#94a3b8">  Project</text>
<polygon fill="none" stroke="#71717a" points="1124,-97 1124,-263 1318,-263 1318,-97 1124,-97"/>
</g>
<!-- transition_4_ready_ready_message_project_select -->
<g id="node10" class="node">
<title>transition_4_ready_ready_message_project_select</title>
<polygon fill="#ffffff" stroke="transparent" points="1379,-143 1379,-217 1537,-217 1537,-143 1379,-143"/>
<polygon fill="#2563eb" stroke="transparent" points="1380,-208 1380,-216 1536,-216 1536,-208 1380,-208"/>
<polygon fill="#eff6ff" stroke="transparent" points="1380,-177 1380,-208 1536,-208 1536,-177 1380,-177"/>
<text text-anchor="start" x="1384" y="-194.6" font-family="Arial" font-weight="bold" font-size="13.00">message.project.select</text>
<text text-anchor="start" x="1384" y="-183.6" font-family="Arial" font-size="8.00" fill="#64748b">transition event</text>
<text text-anchor="start" x="1385" y="-165" font-family="Arial" font-weight="bold" font-size="10.00">emit:</text>
<text text-anchor="start" x="1409" y="-165" font-family="Arial" font-size="10.00">  message.project.selected</text>
<text text-anchor="start" x="1385" y="-153" font-family="Arial" font-weight="bold" font-size="10.00">payload:</text>
<text text-anchor="start" x="1425" y="-153" font-family="Arial" font-size="10.00">  project_id</text>
<text text-anchor="start" x="1474" y="-153" font-family="Arial" font-size="8.00" fill="#94a3b8">  ID</text>
<polygon fill="none" stroke="#2563eb" points="1379,-143 1379,-217 1537,-217 1537,-143 1379,-143"/>
</g>
<!-- view_state_ready&#45;&gt;transition_4_ready_ready_message_project_select -->
<g id="edge10" class="edge">
<title>view_state_ready&#45;&gt;transition_4_ready_ready_message_project_select</title>
<path fill="none" stroke="#3f3f46" d="M1318.26,-170.39C1335.58,-170.16 1353.54,-170.21 1370.56,-170.56"/>
<polygon fill="#3f3f46" stroke="#3f3f46" points="1370.77,-173.36 1378.83,-170.75 1370.9,-167.77 1370.77,-173.36"/>
</g>
<!-- transition_0_loading_empty_data_empty&#45;&gt;view_state_empty -->
<g id="edge3" class="edge">
<title>transition_0_loading_empty_data_empty&#45;&gt;view_state_empty</title>
<path fill="none" stroke="#3f3f46" d="M532.27,-223.31C549.22,-224.27 567.1,-225.29 584.64,-226.29"/>
<polygon fill="#3f3f46" stroke="#3f3f46" points="584.53,-229.09 592.68,-226.75 584.85,-223.5 584.53,-229.09"/>
</g>
<!-- transition_1_loading_ready_data_ready&#45;&gt;view_state_ready -->
<g id="edge5" class="edge">
<title>transition_1_loading_ready_data_ready&#45;&gt;view_state_ready</title>
<path fill="none" stroke="#3f3f46" d="M1063.09,-144.85C1080.31,-148.71 1098.39,-152.76 1115.9,-156.68"/>
<polygon fill="#3f3f46" stroke="#3f3f46" points="1115.49,-159.46 1123.91,-158.48 1116.71,-153.99 1115.49,-159.46"/>
</g>
<!-- transition_2_loading_error_data_error&#45;&gt;view_state_error -->
<g id="edge7" class="edge">
<title>transition_2_loading_error_data_error&#45;&gt;view_state_error</title>
<path fill="none" stroke="#3f3f46" d="M532.27,-43C563.67,-43 598.26,-43 628.01,-43"/>
<polygon fill="#3f3f46" stroke="#3f3f46" points="628.27,-45.8 636.27,-43 628.27,-40.2 628.27,-45.8"/>
</g>
<!-- transition_3_empty_ready_data_ready&#45;&gt;view_state_ready -->
<g id="edge9" class="edge">
<title>transition_3_empty_ready_data_ready&#45;&gt;view_state_ready</title>
<path fill="none" stroke="#3f3f46" d="M1063.09,-215.78C1080.31,-211.85 1098.39,-207.73 1115.9,-203.73"/>
<polygon fill="#3f3f46" stroke="#3f3f46" points="1116.73,-206.42 1123.91,-201.91 1115.49,-200.96 1116.73,-206.42"/>
</g>
<!-- transition_4_ready_ready_message_project_select&#45;&gt;view_state_ready -->
<g id="edge11" class="edge">
<title>transition_4_ready_ready_message_project_select&#45;&gt;view_state_ready</title>
<path fill="none" stroke="#3f3f46" d="M1378.83,-189.96C1362.01,-190.44 1343.97,-190.6 1326.33,-190.44"/>
<polygon fill="#3f3f46" stroke="#3f3f46" points="1326.29,-187.64 1318.26,-190.35 1326.23,-193.24 1326.29,-187.64"/>
</g>
</g>
</svg>
