<svg width="1888pt" height="579pt"
 viewBox="0.00 0.00 1888.00 578.68" xmlns="http://www.w3.org/2000/svg" xmlns:xlink="http://www.w3.org/1999/xlink">
<!-- pyspec-contract-input-sha256: 8b9c648121702046daec61af6fed773e0109fd5619f56fd10013d2dfe6a4eeed -->
<g id="graph0" class="graph" transform="scale(1 1) rotate(0) translate(18 560.68)">
<title>state_machine_state_machine_project_list</title>
<!-- view_state_empty -->
<g id="node1" class="node">
<title>view_state_empty</title>
<polygon fill="#ffffff" stroke="transparent" points="553,-295.68 553,-440.68 844,-440.68 844,-295.68 553,-295.68"/>
<polygon fill="#71717a" stroke="transparent" points="554.5,-431.18 554.5,-439.18 843.5,-439.18 843.5,-431.18 554.5,-431.18"/>
<polygon fill="#f8fafc" stroke="transparent" points="554.5,-400.18 554.5,-431.18 843.5,-431.18 843.5,-400.18 554.5,-400.18"/>
<text text-anchor="start" x="558.5" y="-417.78" font-family="Arial" font-weight="bold" font-size="13.00">empty</text>
<text text-anchor="start" x="558.5" y="-406.78" font-family="Arial" font-size="8.00" fill="#64748b">view state</text>
<text text-anchor="start" x="558.5" y="-389.18" font-family="Arial" font-weight="bold" font-size="10.00">text</text>
<text text-anchor="start" x="558.5" y="-377.18" font-family="Arial" font-size="10.00">text.project.list.empty.heading</text>
<text text-anchor="start" x="558.5" y="-366.18" font-family="Arial" font-size="10.00">text.project.list.empty.body</text>
<text text-anchor="start" x="559.5" y="-347.18" font-family="Arial" font-weight="bold" font-size="10.00">assets:</text>
<text text-anchor="start" x="592.5" y="-347.18" font-family="Arial" font-size="10.00">  asset.project.list.empty.illustration</text>
<text text-anchor="start" x="559.5" y="-335.18" font-family="Arial" font-weight="bold" font-size="10.00">operation_invocations:</text>
<text text-anchor="start" x="666.5" y="-335.18" font-family="Arial" font-size="10.00">  create: operation.project.create</text>
<text text-anchor="start" x="808.5" y="-335.18" font-family="Arial" font-size="8.00" fill="#94a3b8">  Project</text>
<text text-anchor="start" x="558.5" y="-315.18" font-family="Arial" font-weight="bold" font-size="10.00">authorization_policies:</text>
<text text-anchor="start" x="665.5" y="-315.18" font-family="Arial" font-size="10.00">  operation.project.create:</text>
<text text-anchor="start" x="558.5" y="-303.18" font-family="Arial" font-size="10.00">  authorization_policy.project.member</text>
<polygon fill="none" stroke="#71717a" points="553,-295.68 553,-440.68 844,-440.68 844,-295.68 553,-295.68"/>
</g>
<!-- transition_3_empty_ready_data_signal_projects_loaded -->
<g id="node8" class="node">
<title>transition_3_empty_ready_data_signal_projects_loaded</title>
<polygon fill="#ffffff" stroke="transparent" points="905,-291.18 905,-407.18 1119,-407.18 1119,-291.18 905,-291.18"/>
<polygon fill="#2563eb" stroke="transparent" points="906,-398.18 906,-406.18 1118,-406.18 1118,-398.18 906,-398.18"/>
<polygon fill="#eff6ff" stroke="transparent" points="906,-367.18 906,-398.18 1118,-398.18 1118,-367.18 906,-367.18"/>
<text text-anchor="start" x="910" y="-384.78" font-family="Arial" font-weight="bold" font-size="13.00">data_signal.projects_loaded</text>
<text text-anchor="start" x="910" y="-373.78" font-family="Arial" font-size="8.00" fill="#64748b">transition signal</text>
<text text-anchor="start" x="911" y="-355.18" font-family="Arial" font-weight="bold" font-size="10.00">input:</text>
<text text-anchor="start" x="939" y="-355.18" font-family="Arial" font-size="10.00">  list_projects.workspace_id</text>
<text text-anchor="start" x="1061" y="-355.18" font-family="Arial" font-size="8.00" fill="#94a3b8">  ID</text>
<text text-anchor="start" x="911" y="-343.18" font-family="Arial" font-weight="bold" font-size="10.00">query_invocations:</text>
<text text-anchor="start" x="1000" y="-343.18" font-family="Arial" font-size="10.00">  list_projects</text>
<text text-anchor="start" x="911" y="-331.18" font-family="Arial" font-weight="bold" font-size="10.00">load:</text>
<text text-anchor="start" x="935" y="-331.18" font-family="Arial" font-size="10.00">  operation.project.list</text>
<text text-anchor="start" x="1029" y="-331.18" font-family="Arial" font-size="8.00" fill="#94a3b8">  array&lt;Project&gt;</text>
<text text-anchor="start" x="910" y="-311.18" font-family="Arial" font-weight="bold" font-size="10.00">authorization_policies:</text>
<text text-anchor="start" x="1017" y="-311.18" font-family="Arial" font-size="10.00">  operation.project.list:</text>
<text text-anchor="start" x="910" y="-299.18" font-family="Arial" font-size="10.00">  authorization_policy.project.member</text>
<polygon fill="none" stroke="#2563eb" points="905,-291.18 905,-407.18 1119,-407.18 1119,-291.18 905,-291.18"/>
</g>
<!-- view_state_empty&#45;&gt;transition_3_empty_ready_data_signal_projects_loaded -->
<g id="edge7" class="edge">
<title>view_state_empty&#45;&gt;transition_3_empty_ready_data_signal_projects_loaded</title>
<path fill="none" stroke="#3f3f46" d="M844.31,-359.35C861.78,-358.28 879.44,-357.21 896.41,-356.17"/>
<polygon fill="#3f3f46" stroke="#3f3f46" points="896.86,-358.95 904.67,-355.67 896.51,-353.36 896.86,-358.95"/>
</g>
<!-- transition_4_empty_error_message_show_invalid_state -->
<g id="node9" class="node">
<title>transition_4_empty_error_message_show_invalid_state</title>
<polygon fill="#ffffff" stroke="transparent" points="1180,-471.68 1180,-542.68 1382,-542.68 1382,-471.68 1180,-471.68"/>
<polygon fill="#2563eb" stroke="transparent" points="1181,-533.18 1181,-541.18 1381,-541.18 1381,-533.18 1181,-533.18"/>
<polygon fill="#eff6ff" stroke="transparent" points="1181,-502.18 1181,-533.18 1381,-533.18 1381,-502.18 1181,-502.18"/>
<text text-anchor="start" x="1185" y="-519.78" font-family="Arial" font-weight="bold" font-size="13.00">message.show_invalid_state</text>
<text text-anchor="start" x="1185" y="-508.78" font-family="Arial" font-size="8.00" fill="#64748b">transition signal</text>
<text text-anchor="start" x="1185" y="-491.18" font-family="Arial" font-style="italic" font-size="10.00" fill="#3f3f46">Invalid create attempts move the list into its</text>
<text text-anchor="start" x="1185" y="-480.18" font-family="Arial" font-style="italic" font-size="10.00" fill="#3f3f46">displayable error state.</text>
<polygon fill="none" stroke="#2563eb" points="1180,-471.68 1180,-542.68 1382,-542.68 1382,-471.68 1180,-471.68"/>
</g>
<!-- view_state_empty&#45;&gt;transition_4_empty_error_message_show_invalid_state -->
<g id="edge9" class="edge">
<title>view_state_empty&#45;&gt;transition_4_empty_error_message_show_invalid_state</title>
<path fill="none" stroke="#3f3f46" d="M844.24,-405.19C864.63,-410.29 885.33,-415.41 905,-420.18 994.77,-441.95 1096.92,-465.57 1171.91,-482.7"/>
<polygon fill="#3f3f46" stroke="#3f3f46" points="1171.57,-485.5 1179.99,-484.55 1172.82,-480.04 1171.57,-485.5"/>
</g>
<!-- view_state_error -->
<g id="node2" class="node">
<title>view_state_error</title>
<polygon fill="#ffffff" stroke="transparent" points="1718,-389.18 1718,-471.18 1852,-471.18 1852,-389.18 1718,-389.18"/>
<polygon fill="#71717a" stroke="transparent" points="1719,-462.18 1719,-470.18 1851,-470.18 1851,-462.18 1719,-462.18"/>
<polygon fill="#f8fafc" stroke="transparent" points="1719,-431.18 1719,-462.18 1851,-462.18 1851,-431.18 1719,-431.18"/>
<text text-anchor="start" x="1723" y="-448.78" font-family="Arial" font-weight="bold" font-size="13.00">error</text>
<text text-anchor="start" x="1723" y="-437.78" font-family="Arial" font-size="8.00" fill="#64748b">view state</text>
<text text-anchor="start" x="1723" y="-420.18" font-family="Arial" font-weight="bold" font-size="10.00">text</text>
<text text-anchor="start" x="1723" y="-408.18" font-family="Arial" font-size="10.00">text.project.list.error.heading</text>
<text text-anchor="start" x="1723" y="-397.18" font-family="Arial" font-size="10.00">text.project.list.error.body</text>
<polygon fill="none" stroke="#71717a" points="1718,-389.18 1718,-471.18 1852,-471.18 1852,-389.18 1718,-389.18"/>
</g>
<!-- view_state_loading -->
<g id="node3" class="node">
<title>view_state_loading</title>
<polygon fill="#ffffff" stroke="transparent" points="0,-194.18 0,-256.18 180,-256.18 180,-194.18 0,-194.18"/>
<polygon fill="#0891b2" stroke="transparent" points="1,-247.18 1,-255.18 179,-255.18 179,-247.18 1,-247.18"/>
<polygon fill="#ecfeff" stroke="transparent" points="1,-216.18 1,-247.18 179,-247.18 179,-216.18 1,-216.18"/>
<text text-anchor="start" x="5" y="-233.78" font-family="Arial" font-weight="bold" font-size="13.00">loading</text>
<text text-anchor="start" x="5" y="-222.78" font-family="Arial" font-size="8.00" fill="#64748b">initial view state</text>
<text text-anchor="start" x="6" y="-204.18" font-family="Arial" font-weight="bold" font-size="10.00">text:</text>
<text text-anchor="start" x="26" y="-204.18" font-family="Arial" font-size="10.00">  text.project.list.loading.message</text>
<polygon fill="none" stroke="#0891b2" points="0,-194.18 0,-256.18 180,-256.18 180,-194.18 0,-194.18"/>
</g>
<!-- transition_0_loading_empty_data_signal_project_collection_empty -->
<g id="node5" class="node">
<title>transition_0_loading_empty_data_signal_project_collection_empty</title>
<polygon fill="#ffffff" stroke="transparent" points="241,-310.18 241,-426.18 492,-426.18 492,-310.18 241,-310.18"/>
<polygon fill="#2563eb" stroke="transparent" points="242.5,-417.18 242.5,-425.18 491.5,-425.18 491.5,-417.18 242.5,-417.18"/>
<polygon fill="#eff6ff" stroke="transparent" points="242.5,-386.18 242.5,-417.18 491.5,-417.18 491.5,-386.18 242.5,-386.18"/>
<text text-anchor="start" x="246.5" y="-403.78" font-family="Arial" font-weight="bold" font-size="13.00">data_signal.project_collection_empty</text>
<text text-anchor="start" x="246.5" y="-392.78" font-family="Arial" font-size="8.00" fill="#64748b">transition signal</text>
<text text-anchor="start" x="247.5" y="-374.18" font-family="Arial" font-weight="bold" font-size="10.00">input:</text>
<text text-anchor="start" x="275.5" y="-374.18" font-family="Arial" font-size="10.00">  list_projects.workspace_id</text>
<text text-anchor="start" x="397.5" y="-374.18" font-family="Arial" font-size="8.00" fill="#94a3b8">  ID</text>
<text text-anchor="start" x="247.5" y="-362.18" font-family="Arial" font-weight="bold" font-size="10.00">query_invocations:</text>
<text text-anchor="start" x="336.5" y="-362.18" font-family="Arial" font-size="10.00">  list_projects</text>
<text text-anchor="start" x="247.5" y="-350.18" font-family="Arial" font-weight="bold" font-size="10.00">load:</text>
<text text-anchor="start" x="271.5" y="-350.18" font-family="Arial" font-size="10.00">  operation.project.list</text>
<text text-anchor="start" x="365.5" y="-350.18" font-family="Arial" font-size="8.00" fill="#94a3b8">  array&lt;Project&gt;</text>
<text text-anchor="start" x="246.5" y="-330.18" font-family="Arial" font-weight="bold" font-size="10.00">authorization_policies:</text>
<text text-anchor="start" x="353.5" y="-330.18" font-family="Arial" font-size="10.00">  operation.project.list:</text>
<text text-anchor="start" x="246.5" y="-318.18" font-family="Arial" font-size="10.00">  authorization_policy.project.member</text>
<polygon fill="none" stroke="#2563eb" points="241,-310.18 241,-426.18 492,-426.18 492,-310.18 241,-310.18"/>
</g>
<!-- view_state_loading&#45;&gt;transition_0_loading_empty_data_signal_project_collection_empty -->
<g id="edge1" class="edge">
<title>view_state_loading&#45;&gt;transition_0_loading_empty_data_signal_project_collection_empty</title>
<path fill="none" stroke="#3f3f46" d="M150.56,-256.21C178.71,-270.87 213.35,-288.92 246.55,-306.21"/>
<polygon fill="#3f3f46" stroke="#3f3f46" points="245.66,-308.91 254.05,-310.12 248.25,-303.94 245.66,-308.91"/>
</g>
<!-- transition_1_loading_ready_data_signal_projects_loaded -->
<g id="node6" class="node">
<title>transition_1_loading_ready_data_signal_projects_loaded</title>
<polygon fill="#ffffff" stroke="transparent" points="259.5,-167.18 259.5,-283.18 473.5,-283.18 473.5,-167.18 259.5,-167.18"/>
<polygon fill="#2563eb" stroke="transparent" points="260.5,-274.18 260.5,-282.18 472.5,-282.18 472.5,-274.18 260.5,-274.18"/>
<polygon fill="#eff6ff" stroke="transparent" points="260.5,-243.18 260.5,-274.18 472.5,-274.18 472.5,-243.18 260.5,-243.18"/>
<text text-anchor="start" x="264.5" y="-260.78" font-family="Arial" font-weight="bold" font-size="13.00">data_signal.projects_loaded</text>
<text text-anchor="start" x="264.5" y="-249.78" font-family="Arial" font-size="8.00" fill="#64748b">transition signal</text>
<text text-anchor="start" x="265.5" y="-231.18" font-family="Arial" font-weight="bold" font-size="10.00">input:</text>
<text text-anchor="start" x="293.5" y="-231.18" font-family="Arial" font-size="10.00">  list_projects.workspace_id</text>
<text text-anchor="start" x="415.5" y="-231.18" font-family="Arial" font-size="8.00" fill="#94a3b8">  ID</text>
<text text-anchor="start" x="265.5" y="-219.18" font-family="Arial" font-weight="bold" font-size="10.00">query_invocations:</text>
<text text-anchor="start" x="354.5" y="-219.18" font-family="Arial" font-size="10.00">  list_projects</text>
<text text-anchor="start" x="265.5" y="-207.18" font-family="Arial" font-weight="bold" font-size="10.00">load:</text>
<text text-anchor="start" x="289.5" y="-207.18" font-family="Arial" font-size="10.00">  operation.project.list</text>
<text text-anchor="start" x="383.5" y="-207.18" font-family="Arial" font-size="8.00" fill="#94a3b8">  array&lt;Project&gt;</text>
<text text-anchor="start" x="264.5" y="-187.18" font-family="Arial" font-weight="bold" font-size="10.00">authorization_policies:</text>
<text text-anchor="start" x="371.5" y="-187.18" font-family="Arial" font-size="10.00">  operation.project.list:</text>
<text text-anchor="start" x="264.5" y="-175.18" font-family="Arial" font-size="10.00">  authorization_policy.project.member</text>
<polygon fill="none" stroke="#2563eb" points="259.5,-167.18 259.5,-283.18 473.5,-283.18 473.5,-167.18 259.5,-167.18"/>
</g>
<!-- view_state_loading&#45;&gt;transition_1_loading_ready_data_signal_projects_loaded -->
<g id="edge3" class="edge">
<title>view_state_loading&#45;&gt;transition_1_loading_ready_data_signal_projects_loaded</title>
<path fill="none" stroke="#3f3f46" d="M180.12,-225.18C202.77,-225.18 227.41,-225.18 251.12,-225.18"/>
<polygon fill="#3f3f46" stroke="#3f3f46" points="251.12,-227.98 259.12,-225.18 251.12,-222.38 251.12,-227.98"/>
</g>
<!-- transition_2_loading_error_data_signal_project_list_failed -->
<g id="node7" class="node">
<title>transition_2_loading_error_data_signal_project_list_failed</title>
<polygon fill="#ffffff" stroke="transparent" points="591.5,-50.18 591.5,-166.18 805.5,-166.18 805.5,-50.18 591.5,-50.18"/>
<polygon fill="#2563eb" stroke="transparent" points="592.5,-157.18 592.5,-165.18 804.5,-165.18 804.5,-157.18 592.5,-157.18"/>
<polygon fill="#eff6ff" stroke="transparent" points="592.5,-126.18 592.5,-157.18 804.5,-157.18 804.5,-126.18 592.5,-126.18"/>
<text text-anchor="start" x="596.5" y="-143.78" font-family="Arial" font-weight="bold" font-size="13.00">data_signal.project_list_failed</text>
<text text-anchor="start" x="596.5" y="-132.78" font-family="Arial" font-size="8.00" fill="#64748b">transition signal</text>
<text text-anchor="start" x="597.5" y="-114.18" font-family="Arial" font-weight="bold" font-size="10.00">input:</text>
<text text-anchor="start" x="625.5" y="-114.18" font-family="Arial" font-size="10.00">  list_projects.workspace_id</text>
<text text-anchor="start" x="747.5" y="-114.18" font-family="Arial" font-size="8.00" fill="#94a3b8">  ID</text>
<text text-anchor="start" x="597.5" y="-102.18" font-family="Arial" font-weight="bold" font-size="10.00">query_invocations:</text>
<text text-anchor="start" x="686.5" y="-102.18" font-family="Arial" font-size="10.00">  list_projects</text>
<text text-anchor="start" x="597.5" y="-90.18" font-family="Arial" font-weight="bold" font-size="10.00">load:</text>
<text text-anchor="start" x="621.5" y="-90.18" font-family="Arial" font-size="10.00">  operation.project.list</text>
<text text-anchor="start" x="715.5" y="-90.18" font-family="Arial" font-size="8.00" fill="#94a3b8">  array&lt;Project&gt;</text>
<text text-anchor="start" x="596.5" y="-70.18" font-family="Arial" font-weight="bold" font-size="10.00">authorization_policies:</text>
<text text-anchor="start" x="703.5" y="-70.18" font-family="Arial" font-size="10.00">  operation.project.list:</text>
<text text-anchor="start" x="596.5" y="-58.18" font-family="Arial" font-size="10.00">  authorization_policy.project.member</text>
<polygon fill="none" stroke="#2563eb" points="591.5,-50.18 591.5,-166.18 805.5,-166.18 805.5,-50.18 591.5,-50.18"/>
</g>
<!-- view_state_loading&#45;&gt;transition_2_loading_error_data_signal_project_list_failed -->
<g id="edge5" class="edge">
<title>view_state_loading&#45;&gt;transition_2_loading_error_data_signal_project_list_failed</title>
<path fill="none" stroke="#3f3f46" d="M144.07,-194.09C171.99,-179.2 207.34,-162.6 241,-153.18 354.64,-121.38 489.67,-111.31 583.26,-108.48"/>
<polygon fill="#3f3f46" stroke="#3f3f46" points="583.42,-111.28 591.33,-108.25 583.26,-105.68 583.42,-111.28"/>
</g>
<!-- view_state_ready -->
<g id="node4" class="node">
<title>view_state_ready</title>
<polygon fill="#ffffff" stroke="transparent" points="1184,-215.68 1184,-444.68 1378,-444.68 1378,-215.68 1184,-215.68"/>
<polygon fill="#71717a" stroke="transparent" points="1185,-435.18 1185,-443.18 1377,-443.18 1377,-435.18 1185,-435.18"/>
<polygon fill="#f8fafc" stroke="transparent" points="1185,-404.18 1185,-435.18 1377,-435.18 1377,-404.18 1185,-404.18"/>
<text text-anchor="start" x="1189" y="-421.78" font-family="Arial" font-weight="bold" font-size="13.00">ready</text>
<text text-anchor="start" x="1189" y="-410.78" font-family="Arial" font-size="8.00" fill="#64748b">view state</text>
<text text-anchor="start" x="1190" y="-392.18" font-family="Arial" font-weight="bold" font-size="10.00">text:</text>
<text text-anchor="start" x="1210" y="-392.18" font-family="Arial" font-size="10.00">  text.project.list.ready.heading</text>
<text text-anchor="start" x="1189" y="-372.18" font-family="Arial" font-weight="bold" font-size="10.00">operation.project.list fields</text>
<text text-anchor="start" x="1189" y="-361.18" font-family="Arial" font-size="10.00">title</text>
<text text-anchor="start" x="1205" y="-361.18" font-family="Arial" font-size="8.00" fill="#94a3b8">  Text</text>
<text text-anchor="start" x="1189" y="-350.18" font-family="Arial" font-size="10.00">customer</text>
<text text-anchor="start" x="1230" y="-350.18" font-family="Arial" font-size="8.00" fill="#94a3b8">  Text</text>
<text text-anchor="start" x="1189" y="-339.18" font-family="Arial" font-size="10.00">priority</text>
<text text-anchor="start" x="1219" y="-339.18" font-family="Arial" font-size="8.00" fill="#94a3b8">  Text</text>
<text text-anchor="start" x="1189" y="-328.18" font-family="Arial" font-size="10.00">status</text>
<text text-anchor="start" x="1217" y="-328.18" font-family="Arial" font-size="8.00" fill="#94a3b8">  enum&lt;draft|submitted|approved|archived&gt;</text>
<text text-anchor="start" x="1189" y="-309.18" font-family="Arial" font-weight="bold" font-size="10.00">operation_invocations</text>
<text text-anchor="start" x="1189" y="-298.18" font-family="Arial" font-size="10.00">create: operation.project.create</text>
<text text-anchor="start" x="1325" y="-298.18" font-family="Arial" font-size="8.00" fill="#94a3b8">  Project</text>
<text text-anchor="start" x="1189" y="-287.18" font-family="Arial" font-size="10.00">submit: operation.project.submit</text>
<text text-anchor="start" x="1329" y="-287.18" font-family="Arial" font-size="8.00" fill="#94a3b8">  Project</text>
<text text-anchor="start" x="1189" y="-268.18" font-family="Arial" font-weight="bold" font-size="10.00">authorization_policies</text>
<text text-anchor="start" x="1189" y="-256.18" font-family="Arial" font-size="10.00">operation.project.create:</text>
<text text-anchor="start" x="1189" y="-245.18" font-family="Arial" font-size="10.00">authorization_policy.project.member</text>
<text text-anchor="start" x="1189" y="-234.18" font-family="Arial" font-size="10.00">operation.project.submit:</text>
<text text-anchor="start" x="1189" y="-223.18" font-family="Arial" font-size="10.00">authorization_policy.project.member</text>
<polygon fill="none" stroke="#71717a" points="1184,-215.68 1184,-444.68 1378,-444.68 1378,-215.68 1184,-215.68"/>
</g>
<!-- transition_5_ready_ready_message_project_select -->
<g id="node10" class="node">
<title>transition_5_ready_ready_message_project_select</title>
<polygon fill="#ffffff" stroke="transparent" points="1469,-293.18 1469,-367.18 1631,-367.18 1631,-293.18 1469,-293.18"/>
<polygon fill="#2563eb" stroke="transparent" points="1470,-358.18 1470,-366.18 1630,-366.18 1630,-358.18 1470,-358.18"/>
<polygon fill="#eff6ff" stroke="transparent" points="1470,-327.18 1470,-358.18 1630,-358.18 1630,-327.18 1470,-327.18"/>
<text text-anchor="start" x="1474" y="-344.78" font-family="Arial" font-weight="bold" font-size="13.00">message.project_select</text>
<text text-anchor="start" x="1474" y="-333.78" font-family="Arial" font-size="8.00" fill="#64748b">transition signal</text>
<text text-anchor="start" x="1475" y="-315.18" font-family="Arial" font-weight="bold" font-size="10.00">emit:</text>
<text text-anchor="start" x="1499" y="-315.18" font-family="Arial" font-size="10.00">  message.project_selected</text>
<text text-anchor="start" x="1475" y="-303.18" font-family="Arial" font-weight="bold" font-size="10.00">payload:</text>
<text text-anchor="start" x="1515" y="-303.18" font-family="Arial" font-size="10.00">  project_id</text>
<text text-anchor="start" x="1564" y="-303.18" font-family="Arial" font-size="8.00" fill="#94a3b8">  ID</text>
<polygon fill="none" stroke="#2563eb" points="1469,-293.18 1469,-367.18 1631,-367.18 1631,-293.18 1469,-293.18"/>
</g>
<!-- view_state_ready&#45;&gt;transition_5_ready_ready_message_project_select -->
<g id="edge11" class="edge">
<title>view_state_ready&#45;&gt;transition_5_ready_ready_message_project_select</title>
<path fill="none" stroke="#3f3f46" d="M1378.02,-320.78C1404.98,-320.27 1434.16,-320.32 1460.65,-320.95"/>
<polygon fill="#3f3f46" stroke="#3f3f46" points="1460.71,-323.75 1468.78,-321.16 1460.86,-318.15 1460.71,-323.75"/>
</g>
<!-- transition_6_ready_ready_data_signal_projects_loaded -->
<g id="node11" class="node">
<title>transition_6_ready_ready_data_signal_projects_loaded</title>
<polygon fill="#ffffff" stroke="transparent" points="1443,-120.18 1443,-266.18 1657,-266.18 1657,-120.18 1443,-120.18"/>
<polygon fill="#2563eb" stroke="transparent" points="1444,-257.18 1444,-265.18 1656,-265.18 1656,-257.18 1444,-257.18"/>
<polygon fill="#eff6ff" stroke="transparent" points="1444,-226.18 1444,-257.18 1656,-257.18 1656,-226.18 1444,-226.18"/>
<text text-anchor="start" x="1448" y="-243.78" font-family="Arial" font-weight="bold" font-size="13.00">data_signal.projects_loaded</text>
<text text-anchor="start" x="1448" y="-232.78" font-family="Arial" font-size="8.00" fill="#64748b">transition signal</text>
<text text-anchor="start" x="1448" y="-215.18" font-family="Arial" font-style="italic" font-size="10.00" fill="#3f3f46">Successful list operations refresh ready&#45;state</text>
<text text-anchor="start" x="1448" y="-204.18" font-family="Arial" font-style="italic" font-size="10.00" fill="#3f3f46">collection data.</text>
<text text-anchor="start" x="1449" y="-184.18" font-family="Arial" font-weight="bold" font-size="10.00">input:</text>
<text text-anchor="start" x="1477" y="-184.18" font-family="Arial" font-size="10.00">  list_projects.workspace_id</text>
<text text-anchor="start" x="1599" y="-184.18" font-family="Arial" font-size="8.00" fill="#94a3b8">  ID</text>
<text text-anchor="start" x="1449" y="-172.18" font-family="Arial" font-weight="bold" font-size="10.00">query_invocations:</text>
<text text-anchor="start" x="1538" y="-172.18" font-family="Arial" font-size="10.00">  list_projects</text>
<text text-anchor="start" x="1449" y="-160.18" font-family="Arial" font-weight="bold" font-size="10.00">load:</text>
<text text-anchor="start" x="1473" y="-160.18" font-family="Arial" font-size="10.00">  operation.project.list</text>
<text text-anchor="start" x="1567" y="-160.18" font-family="Arial" font-size="8.00" fill="#94a3b8">  array&lt;Project&gt;</text>
<text text-anchor="start" x="1448" y="-140.18" font-family="Arial" font-weight="bold" font-size="10.00">authorization_policies:</text>
<text text-anchor="start" x="1555" y="-140.18" font-family="Arial" font-size="10.00">  operation.project.list:</text>
<text text-anchor="start" x="1448" y="-128.18" font-family="Arial" font-size="10.00">  authorization_policy.project.member</text>
<polygon fill="none" stroke="#2563eb" points="1443,-120.18 1443,-266.18 1657,-266.18 1657,-120.18 1443,-120.18"/>
</g>
<!-- view_state_ready&#45;&gt;transition_6_ready_ready_data_signal_projects_loaded -->
<g id="edge13" class="edge">
<title>view_state_ready&#45;&gt;transition_6_ready_ready_data_signal_projects_loaded</title>
<path fill="none" stroke="#3f3f46" d="M1378.02,-271.52C1396.71,-261.57 1416.47,-251.34 1435.66,-241.69"/>
<polygon fill="#3f3f46" stroke="#3f3f46" points="1437.08,-244.11 1442.98,-238.02 1434.57,-239.1 1437.08,-244.11"/>
</g>
<!-- transition_7_ready_error_message_show_invalid_state -->
<g id="node12" class="node">
<title>transition_7_ready_error_message_show_invalid_state</title>
<polygon fill="#ffffff" stroke="transparent" points="1453,-394.68 1453,-465.68 1647,-465.68 1647,-394.68 1453,-394.68"/>
<polygon fill="#2563eb" stroke="transparent" points="1454,-456.18 1454,-464.18 1646,-464.18 1646,-456.18 1454,-456.18"/>
<polygon fill="#eff6ff" stroke="transparent" points="1454,-425.18 1454,-456.18 1646,-456.18 1646,-425.18 1454,-425.18"/>
<text text-anchor="start" x="1458" y="-442.78" font-family="Arial" font-weight="bold" font-size="13.00">message.show_invalid_state</text>
<text text-anchor="start" x="1458" y="-431.78" font-family="Arial" font-size="8.00" fill="#64748b">transition signal</text>
<text text-anchor="start" x="1458" y="-414.18" font-family="Arial" font-style="italic" font-size="10.00" fill="#3f3f46">Invalid list operations move the list into its</text>
<text text-anchor="start" x="1458" y="-403.18" font-family="Arial" font-style="italic" font-size="10.00" fill="#3f3f46">displayable error state.</text>
<polygon fill="none" stroke="#2563eb" points="1453,-394.68 1453,-465.68 1647,-465.68 1647,-394.68 1453,-394.68"/>
</g>
<!-- view_state_ready&#45;&gt;transition_7_ready_error_message_show_invalid_state -->
<g id="edge15" class="edge">
<title>view_state_ready&#45;&gt;transition_7_ready_error_message_show_invalid_state</title>
<path fill="none" stroke="#3f3f46" d="M1378.02,-366.14C1400.18,-374.44 1423.84,-383.31 1446.28,-391.71"/>
<polygon fill="#3f3f46" stroke="#3f3f46" points="1445.36,-394.36 1453.84,-394.54 1447.33,-389.11 1445.36,-394.36"/>
</g>
<!-- transition_0_loading_empty_data_signal_project_collection_empty&#45;&gt;view_state_empty -->
<g id="edge2" class="edge">
<title>transition_0_loading_empty_data_signal_project_collection_empty&#45;&gt;view_state_empty</title>
<path fill="none" stroke="#3f3f46" d="M492.26,-368.18C509.43,-368.18 527.22,-368.18 544.83,-368.18"/>
<polygon fill="#3f3f46" stroke="#3f3f46" points="544.9,-370.98 552.9,-368.18 544.9,-365.38 544.9,-370.98"/>
</g>
<!-- transition_1_loading_ready_data_signal_projects_loaded&#45;&gt;view_state_ready -->
<g id="edge4" class="edge">
<title>transition_1_loading_ready_data_signal_projects_loaded&#45;&gt;view_state_ready</title>
<path fill="none" stroke="#3f3f46" d="M473.75,-224.26C620.32,-224.87 892.16,-232.72 1119,-277.18 1137.78,-280.86 1157.41,-286.09 1176.25,-291.85"/>
<polygon fill="#3f3f46" stroke="#3f3f46" points="1175.51,-294.56 1183.98,-294.26 1177.18,-289.21 1175.51,-294.56"/>
</g>
<!-- transition_2_loading_error_data_signal_project_list_failed&#45;&gt;view_state_error -->
<g id="edge6" class="edge">
<title>transition_2_loading_error_data_signal_project_list_failed&#45;&gt;view_state_error</title>
<path fill="none" stroke="#3f3f46" d="M805.58,-72.36C995.03,-15.51 1396.08,71.79 1657,-106.18 1748.07,-168.3 1773.84,-306.47 1781.13,-380.72"/>
<polygon fill="#3f3f46" stroke="#3f3f46" points="1778.37,-381.3 1781.89,-389.01 1783.94,-380.79 1778.37,-381.3"/>
</g>
<!-- transition_3_empty_ready_data_signal_projects_loaded&#45;&gt;view_state_ready -->
<g id="edge8" class="edge">
<title>transition_3_empty_ready_data_signal_projects_loaded&#45;&gt;view_state_ready</title>
<path fill="none" stroke="#3f3f46" d="M1119.29,-341.62C1137.7,-340.31 1156.84,-338.95 1175.21,-337.64"/>
<polygon fill="#3f3f46" stroke="#3f3f46" points="1175.81,-340.4 1183.59,-337.04 1175.41,-334.82 1175.81,-340.4"/>
</g>
<!-- transition_4_empty_error_message_show_invalid_state&#45;&gt;view_state_error -->
<g id="edge10" class="edge">
<title>transition_4_empty_error_message_show_invalid_state&#45;&gt;view_state_error</title>
<path fill="none" stroke="#3f3f46" d="M1382.26,-507.64C1458.47,-506.08 1565.44,-499.79 1657,-479.18 1674.59,-475.22 1692.98,-469.27 1710.13,-462.86"/>
<polygon fill="#3f3f46" stroke="#3f3f46" points="1711.44,-465.36 1717.92,-459.89 1709.44,-460.13 1711.44,-465.36"/>
</g>
<!-- transition_5_ready_ready_message_project_select&#45;&gt;view_state_ready -->
<g id="edge12" class="edge">
<title>transition_5_ready_ready_message_project_select&#45;&gt;view_state_ready</title>
<path fill="none" stroke="#3f3f46" d="M1468.78,-339.9C1442.79,-340.7 1413.57,-340.89 1386.1,-340.45"/>
<polygon fill="#3f3f46" stroke="#3f3f46" points="1386.07,-337.65 1378.02,-340.3 1385.96,-343.25 1386.07,-337.65"/>
</g>
<!-- transition_6_ready_ready_data_signal_projects_loaded&#45;&gt;view_state_ready -->
<g id="edge14" class="edge">
<title>transition_6_ready_ready_data_signal_projects_loaded&#45;&gt;view_state_ready</title>
<path fill="none" stroke="#3f3f46" d="M1442.98,-257.88C1423.96,-267.92 1404.17,-278.06 1385.23,-287.47"/>
<polygon fill="#3f3f46" stroke="#3f3f46" points="1383.95,-284.98 1378.02,-291.04 1386.43,-290 1383.95,-284.98"/>
</g>
<!-- transition_7_ready_error_message_show_invalid_state&#45;&gt;view_state_error -->
<g id="edge16" class="edge">
<title>transition_7_ready_error_message_show_invalid_state&#45;&gt;view_state_error</title>
<path fill="none" stroke="#3f3f46" d="M1647.12,-430.18C1668.05,-430.18 1689.89,-430.18 1709.82,-430.18"/>
<polygon fill="#3f3f46" stroke="#3f3f46" points="1709.94,-432.98 1717.94,-430.18 1709.94,-427.38 1709.94,-432.98"/>
</g>
</g>
</svg>
