<svg width="2053pt" height="682pt"
 viewBox="0.00 0.00 2053.00 682.04" xmlns="http://www.w3.org/2000/svg" xmlns:xlink="http://www.w3.org/1999/xlink">
<!-- pyspec-contract-input-sha256: 1c421fb4a6451afd10293ffacdda8ae70673f5811ca9b5c667480f04489281cb -->
<g id="graph0" class="graph" transform="scale(1 1) rotate(0) translate(18 664.04)">
<title>state_machine_state_machine_project_list</title>
<!-- view_state_empty -->
<g id="node1" class="node">
<title>view_state_empty</title>
<polygon fill="#ffffff" stroke="transparent" points="606,-386.54 606,-531.54 907,-531.54 907,-386.54 606,-386.54"/>
<polygon fill="#71717a" stroke="transparent" points="607.5,-522.04 607.5,-530.04 906.5,-530.04 906.5,-522.04 607.5,-522.04"/>
<polygon fill="#f8fafc" stroke="transparent" points="607.5,-491.04 607.5,-522.04 906.5,-522.04 906.5,-491.04 607.5,-491.04"/>
<text text-anchor="start" x="611.5" y="-508.64" font-family="Arial" font-weight="bold" font-size="13.00">empty</text>
<text text-anchor="start" x="611.5" y="-497.64" font-family="Arial" font-size="8.00" fill="#64748b">view state</text>
<text text-anchor="start" x="611.5" y="-480.04" font-family="Arial" font-weight="bold" font-size="10.00">text</text>
<text text-anchor="start" x="611.5" y="-468.04" font-family="Arial" font-size="10.00">text.project.list.empty.heading</text>
<text text-anchor="start" x="611.5" y="-457.04" font-family="Arial" font-size="10.00">text.project.list.empty.body</text>
<text text-anchor="start" x="612.5" y="-438.04" font-family="Arial" font-weight="bold" font-size="10.00">assets:</text>
<text text-anchor="start" x="645.5" y="-438.04" font-family="Arial" font-size="10.00">  asset.project.list.empty.illustration</text>
<text text-anchor="start" x="612.5" y="-426.04" font-family="Arial" font-weight="bold" font-size="10.00">action_bindings:</text>
<text text-anchor="start" x="691.5" y="-426.04" font-family="Arial" font-size="10.00">  create: application_action.project.create</text>
<text text-anchor="start" x="871.5" y="-426.04" font-family="Arial" font-size="8.00" fill="#94a3b8">  Project</text>
<text text-anchor="start" x="611.5" y="-406.04" font-family="Arial" font-weight="bold" font-size="10.00">authorization_policies:</text>
<text text-anchor="start" x="718.5" y="-406.04" font-family="Arial" font-size="10.00">  application_action.project.create:</text>
<text text-anchor="start" x="611.5" y="-394.04" font-family="Arial" font-size="10.00">  authorization_policy.project.member</text>
<polygon fill="none" stroke="#71717a" points="606,-386.54 606,-531.54 907,-531.54 907,-386.54 606,-386.54"/>
</g>
<!-- transition_3_empty_ready_data_refresh_signal_projects_loaded -->
<g id="node8" class="node">
<title>transition_3_empty_ready_data_refresh_signal_projects_loaded</title>
<polygon fill="#ffffff" stroke="transparent" points="970,-302.04 970,-418.04 1223,-418.04 1223,-302.04 970,-302.04"/>
<polygon fill="#2563eb" stroke="transparent" points="971.5,-409.04 971.5,-417.04 1222.5,-417.04 1222.5,-409.04 971.5,-409.04"/>
<polygon fill="#eff6ff" stroke="transparent" points="971.5,-378.04 971.5,-409.04 1222.5,-409.04 1222.5,-378.04 971.5,-378.04"/>
<text text-anchor="start" x="975.5" y="-395.64" font-family="Arial" font-weight="bold" font-size="13.00">data_refresh_signal.projects_loaded</text>
<text text-anchor="start" x="975.5" y="-384.64" font-family="Arial" font-size="8.00" fill="#64748b">transition signal</text>
<text text-anchor="start" x="976.5" y="-366.04" font-family="Arial" font-weight="bold" font-size="10.00">input:</text>
<text text-anchor="start" x="1004.5" y="-366.04" font-family="Arial" font-size="10.00">  list_projects.workspace_id</text>
<text text-anchor="start" x="1126.5" y="-366.04" font-family="Arial" font-size="8.00" fill="#94a3b8">  ID</text>
<text text-anchor="start" x="976.5" y="-354.04" font-family="Arial" font-weight="bold" font-size="10.00">data_loaders:</text>
<text text-anchor="start" x="1039.5" y="-354.04" font-family="Arial" font-size="10.00">  list_projects</text>
<text text-anchor="start" x="976.5" y="-342.04" font-family="Arial" font-weight="bold" font-size="10.00">load:</text>
<text text-anchor="start" x="1000.5" y="-342.04" font-family="Arial" font-size="10.00">  application_action.project.list</text>
<text text-anchor="start" x="1133.5" y="-342.04" font-family="Arial" font-size="8.00" fill="#94a3b8">  array&lt;Project&gt;</text>
<text text-anchor="start" x="975.5" y="-322.04" font-family="Arial" font-weight="bold" font-size="10.00">authorization_policies:</text>
<text text-anchor="start" x="1082.5" y="-322.04" font-family="Arial" font-size="10.00">  application_action.project.list:</text>
<text text-anchor="start" x="975.5" y="-310.04" font-family="Arial" font-size="10.00">  authorization_policy.project.member</text>
<polygon fill="none" stroke="#2563eb" points="970,-302.04 970,-418.04 1223,-418.04 1223,-302.04 970,-302.04"/>
</g>
<!-- view_state_empty&#45;&gt;transition_3_empty_ready_data_refresh_signal_projects_loaded -->
<g id="edge7" class="edge">
<title>view_state_empty&#45;&gt;transition_3_empty_ready_data_refresh_signal_projects_loaded</title>
<path fill="none" stroke="#3f3f46" d="M907.23,-415.19C925.54,-409.83 944.15,-404.37 962.2,-399.09"/>
<polygon fill="#3f3f46" stroke="#3f3f46" points="963,-401.77 969.89,-396.83 961.43,-396.4 963,-401.77"/>
</g>
<!-- transition_4_empty_empty_data_refresh_signal_projects_changed -->
<g id="node9" class="node">
<title>transition_4_empty_empty_data_refresh_signal_projects_changed</title>
<polygon fill="#ffffff" stroke="transparent" points="968,-500.04 968,-646.04 1225,-646.04 1225,-500.04 968,-500.04"/>
<polygon fill="#2563eb" stroke="transparent" points="969.5,-637.04 969.5,-645.04 1224.5,-645.04 1224.5,-637.04 969.5,-637.04"/>
<polygon fill="#eff6ff" stroke="transparent" points="969.5,-606.04 969.5,-637.04 1224.5,-637.04 1224.5,-606.04 969.5,-606.04"/>
<text text-anchor="start" x="973.5" y="-623.64" font-family="Arial" font-weight="bold" font-size="13.00">data_refresh_signal.projects_changed</text>
<text text-anchor="start" x="973.5" y="-612.64" font-family="Arial" font-size="8.00" fill="#64748b">transition signal</text>
<text text-anchor="start" x="973.5" y="-595.04" font-family="Arial" font-style="italic" font-size="10.00" fill="#3f3f46">List mutations invalidate the empty collection and</text>
<text text-anchor="start" x="973.5" y="-584.04" font-family="Arial" font-style="italic" font-size="10.00" fill="#3f3f46">let the list query refresh it.</text>
<text text-anchor="start" x="974.5" y="-564.04" font-family="Arial" font-weight="bold" font-size="10.00">input:</text>
<text text-anchor="start" x="1002.5" y="-564.04" font-family="Arial" font-size="10.00">  list_projects.workspace_id</text>
<text text-anchor="start" x="1124.5" y="-564.04" font-family="Arial" font-size="8.00" fill="#94a3b8">  ID</text>
<text text-anchor="start" x="974.5" y="-552.04" font-family="Arial" font-weight="bold" font-size="10.00">data_loaders:</text>
<text text-anchor="start" x="1037.5" y="-552.04" font-family="Arial" font-size="10.00">  list_projects</text>
<text text-anchor="start" x="974.5" y="-540.04" font-family="Arial" font-weight="bold" font-size="10.00">load:</text>
<text text-anchor="start" x="998.5" y="-540.04" font-family="Arial" font-size="10.00">  application_action.project.list</text>
<text text-anchor="start" x="1131.5" y="-540.04" font-family="Arial" font-size="8.00" fill="#94a3b8">  array&lt;Project&gt;</text>
<text text-anchor="start" x="973.5" y="-520.04" font-family="Arial" font-weight="bold" font-size="10.00">authorization_policies:</text>
<text text-anchor="start" x="1080.5" y="-520.04" font-family="Arial" font-size="10.00">  application_action.project.list:</text>
<text text-anchor="start" x="973.5" y="-508.04" font-family="Arial" font-size="10.00">  authorization_policy.project.member</text>
<polygon fill="none" stroke="#2563eb" points="968,-500.04 968,-646.04 1225,-646.04 1225,-500.04 968,-500.04"/>
</g>
<!-- view_state_empty&#45;&gt;transition_4_empty_empty_data_refresh_signal_projects_changed -->
<g id="edge9" class="edge">
<title>view_state_empty&#45;&gt;transition_4_empty_empty_data_refresh_signal_projects_changed</title>
<path fill="none" stroke="#3f3f46" d="M907.23,-499.85C924.76,-505.66 942.57,-511.71 959.9,-517.73"/>
<polygon fill="#3f3f46" stroke="#3f3f46" points="959.35,-520.5 967.82,-520.5 961.19,-515.22 959.35,-520.5"/>
</g>
<!-- transition_5_empty_error_local_signal_show_invalid_state -->
<g id="node10" class="node">
<title>transition_5_empty_error_local_signal_show_invalid_state</title>
<polygon fill="#ffffff" stroke="transparent" points="1287.5,-520.54 1287.5,-591.54 1502.5,-591.54 1502.5,-520.54 1287.5,-520.54"/>
<polygon fill="#2563eb" stroke="transparent" points="1289,-582.04 1289,-590.04 1502,-590.04 1502,-582.04 1289,-582.04"/>
<polygon fill="#eff6ff" stroke="transparent" points="1289,-551.04 1289,-582.04 1502,-582.04 1502,-551.04 1289,-551.04"/>
<text text-anchor="start" x="1293" y="-568.64" font-family="Arial" font-weight="bold" font-size="13.00">local_signal.show_invalid_state</text>
<text text-anchor="start" x="1293" y="-557.64" font-family="Arial" font-size="8.00" fill="#64748b">transition signal</text>
<text text-anchor="start" x="1293" y="-540.04" font-family="Arial" font-style="italic" font-size="10.00" fill="#3f3f46">Invalid create attempts move the list into its</text>
<text text-anchor="start" x="1293" y="-529.04" font-family="Arial" font-style="italic" font-size="10.00" fill="#3f3f46">displayable error state.</text>
<polygon fill="none" stroke="#2563eb" points="1287.5,-520.54 1287.5,-591.54 1502.5,-591.54 1502.5,-520.54 1287.5,-520.54"/>
</g>
<!-- view_state_empty&#45;&gt;transition_5_empty_error_local_signal_show_invalid_state -->
<g id="edge11" class="edge">
<title>view_state_empty&#45;&gt;transition_5_empty_error_local_signal_show_invalid_state</title>
<path fill="none" stroke="#3f3f46" d="M907.2,-455.05C999.83,-455.68 1120.59,-462.13 1225,-486.04 1255.55,-493.04 1287.66,-505.05 1315.58,-517.16"/>
<polygon fill="#3f3f46" stroke="#3f3f46" points="1314.52,-519.75 1322.97,-520.4 1316.77,-514.62 1314.52,-519.75"/>
</g>
<!-- view_state_error -->
<g id="node2" class="node">
<title>view_state_error</title>
<polygon fill="#ffffff" stroke="transparent" points="1883,-507.04 1883,-589.04 2017,-589.04 2017,-507.04 1883,-507.04"/>
<polygon fill="#71717a" stroke="transparent" points="1884,-580.04 1884,-588.04 2016,-588.04 2016,-580.04 1884,-580.04"/>
<polygon fill="#f8fafc" stroke="transparent" points="1884,-549.04 1884,-580.04 2016,-580.04 2016,-549.04 1884,-549.04"/>
<text text-anchor="start" x="1888" y="-566.64" font-family="Arial" font-weight="bold" font-size="13.00">error</text>
<text text-anchor="start" x="1888" y="-555.64" font-family="Arial" font-size="8.00" fill="#64748b">view state</text>
<text text-anchor="start" x="1888" y="-538.04" font-family="Arial" font-weight="bold" font-size="10.00">text</text>
<text text-anchor="start" x="1888" y="-526.04" font-family="Arial" font-size="10.00">text.project.list.error.heading</text>
<text text-anchor="start" x="1888" y="-515.04" font-family="Arial" font-size="10.00">text.project.list.error.body</text>
<polygon fill="none" stroke="#71717a" points="1883,-507.04 1883,-589.04 2017,-589.04 2017,-507.04 1883,-507.04"/>
</g>
<!-- view_state_loading -->
<g id="node3" class="node">
<title>view_state_loading</title>
<polygon fill="#ffffff" stroke="transparent" points="0,-230.04 0,-292.04 180,-292.04 180,-230.04 0,-230.04"/>
<polygon fill="#0891b2" stroke="transparent" points="1,-283.04 1,-291.04 179,-291.04 179,-283.04 1,-283.04"/>
<polygon fill="#ecfeff" stroke="transparent" points="1,-252.04 1,-283.04 179,-283.04 179,-252.04 1,-252.04"/>
<text text-anchor="start" x="5" y="-269.64" font-family="Arial" font-weight="bold" font-size="13.00">loading</text>
<text text-anchor="start" x="5" y="-258.64" font-family="Arial" font-size="8.00" fill="#64748b">initial view state</text>
<text text-anchor="start" x="6" y="-240.04" font-family="Arial" font-weight="bold" font-size="10.00">text:</text>
<text text-anchor="start" x="26" y="-240.04" font-family="Arial" font-size="10.00">  text.project.list.loading.message</text>
<polygon fill="none" stroke="#0891b2" points="0,-230.04 0,-292.04 180,-292.04 180,-230.04 0,-230.04"/>
</g>
<!-- transition_0_loading_empty_data_refresh_signal_project_collection_empty -->
<g id="node5" class="node">
<title>transition_0_loading_empty_data_refresh_signal_project_collection_empty</title>
<polygon fill="#ffffff" stroke="transparent" points="241,-374.04 241,-490.04 545,-490.04 545,-374.04 241,-374.04"/>
<polygon fill="#2563eb" stroke="transparent" points="242,-481.04 242,-489.04 544,-489.04 544,-481.04 242,-481.04"/>
<polygon fill="#eff6ff" stroke="transparent" points="242,-450.04 242,-481.04 544,-481.04 544,-450.04 242,-450.04"/>
<text text-anchor="start" x="246" y="-467.64" font-family="Arial" font-weight="bold" font-size="13.00">data_refresh_signal.project_collection_empty</text>
<text text-anchor="start" x="246" y="-456.64" font-family="Arial" font-size="8.00" fill="#64748b">transition signal</text>
<text text-anchor="start" x="247" y="-438.04" font-family="Arial" font-weight="bold" font-size="10.00">input:</text>
<text text-anchor="start" x="275" y="-438.04" font-family="Arial" font-size="10.00">  list_projects.workspace_id</text>
<text text-anchor="start" x="397" y="-438.04" font-family="Arial" font-size="8.00" fill="#94a3b8">  ID</text>
<text text-anchor="start" x="247" y="-426.04" font-family="Arial" font-weight="bold" font-size="10.00">data_loaders:</text>
<text text-anchor="start" x="310" y="-426.04" font-family="Arial" font-size="10.00">  list_projects</text>
<text text-anchor="start" x="247" y="-414.04" font-family="Arial" font-weight="bold" font-size="10.00">load:</text>
<text text-anchor="start" x="271" y="-414.04" font-family="Arial" font-size="10.00">  application_action.project.list</text>
<text text-anchor="start" x="404" y="-414.04" font-family="Arial" font-size="8.00" fill="#94a3b8">  array&lt;Project&gt;</text>
<text text-anchor="start" x="246" y="-394.04" font-family="Arial" font-weight="bold" font-size="10.00">authorization_policies:</text>
<text text-anchor="start" x="353" y="-394.04" font-family="Arial" font-size="10.00">  application_action.project.list:</text>
<text text-anchor="start" x="246" y="-382.04" font-family="Arial" font-size="10.00">  authorization_policy.project.member</text>
<polygon fill="none" stroke="#2563eb" points="241,-374.04 241,-490.04 545,-490.04 545,-374.04 241,-374.04"/>
</g>
<!-- view_state_loading&#45;&gt;transition_0_loading_empty_data_refresh_signal_project_collection_empty -->
<g id="edge1" class="edge">
<title>view_state_loading&#45;&gt;transition_0_loading_empty_data_refresh_signal_project_collection_empty</title>
<path fill="none" stroke="#3f3f46" d="M145.86,-292.21C184,-313.88 236.14,-343.5 282.62,-369.9"/>
<polygon fill="#3f3f46" stroke="#3f3f46" points="281.39,-372.43 289.73,-373.94 284.16,-367.56 281.39,-372.43"/>
</g>
<!-- transition_1_loading_ready_data_refresh_signal_projects_loaded -->
<g id="node6" class="node">
<title>transition_1_loading_ready_data_refresh_signal_projects_loaded</title>
<polygon fill="#ffffff" stroke="transparent" points="266.5,-203.04 266.5,-319.04 519.5,-319.04 519.5,-203.04 266.5,-203.04"/>
<polygon fill="#2563eb" stroke="transparent" points="268,-310.04 268,-318.04 519,-318.04 519,-310.04 268,-310.04"/>
<polygon fill="#eff6ff" stroke="transparent" points="268,-279.04 268,-310.04 519,-310.04 519,-279.04 268,-279.04"/>
<text text-anchor="start" x="272" y="-296.64" font-family="Arial" font-weight="bold" font-size="13.00">data_refresh_signal.projects_loaded</text>
<text text-anchor="start" x="272" y="-285.64" font-family="Arial" font-size="8.00" fill="#64748b">transition signal</text>
<text text-anchor="start" x="273" y="-267.04" font-family="Arial" font-weight="bold" font-size="10.00">input:</text>
<text text-anchor="start" x="301" y="-267.04" font-family="Arial" font-size="10.00">  list_projects.workspace_id</text>
<text text-anchor="start" x="423" y="-267.04" font-family="Arial" font-size="8.00" fill="#94a3b8">  ID</text>
<text text-anchor="start" x="273" y="-255.04" font-family="Arial" font-weight="bold" font-size="10.00">data_loaders:</text>
<text text-anchor="start" x="336" y="-255.04" font-family="Arial" font-size="10.00">  list_projects</text>
<text text-anchor="start" x="273" y="-243.04" font-family="Arial" font-weight="bold" font-size="10.00">load:</text>
<text text-anchor="start" x="297" y="-243.04" font-family="Arial" font-size="10.00">  application_action.project.list</text>
<text text-anchor="start" x="430" y="-243.04" font-family="Arial" font-size="8.00" fill="#94a3b8">  array&lt;Project&gt;</text>
<text text-anchor="start" x="272" y="-223.04" font-family="Arial" font-weight="bold" font-size="10.00">authorization_policies:</text>
<text text-anchor="start" x="379" y="-223.04" font-family="Arial" font-size="10.00">  application_action.project.list:</text>
<text text-anchor="start" x="272" y="-211.04" font-family="Arial" font-size="10.00">  authorization_policy.project.member</text>
<polygon fill="none" stroke="#2563eb" points="266.5,-203.04 266.5,-319.04 519.5,-319.04 519.5,-203.04 266.5,-203.04"/>
</g>
<!-- view_state_loading&#45;&gt;transition_1_loading_ready_data_refresh_signal_projects_loaded -->
<g id="edge3" class="edge">
<title>view_state_loading&#45;&gt;transition_1_loading_ready_data_refresh_signal_projects_loaded</title>
<path fill="none" stroke="#3f3f46" d="M180.09,-261.04C204.6,-261.04 231.73,-261.04 258.16,-261.04"/>
<polygon fill="#3f3f46" stroke="#3f3f46" points="258.34,-263.84 266.34,-261.04 258.34,-258.24 258.34,-263.84"/>
</g>
<!-- transition_2_loading_error_data_refresh_signal_project_list_failed -->
<g id="node7" class="node">
<title>transition_2_loading_error_data_refresh_signal_project_list_failed</title>
<polygon fill="#ffffff" stroke="transparent" points="628,-60.04 628,-176.04 885,-176.04 885,-60.04 628,-60.04"/>
<polygon fill="#2563eb" stroke="transparent" points="629.5,-167.04 629.5,-175.04 884.5,-175.04 884.5,-167.04 629.5,-167.04"/>
<polygon fill="#eff6ff" stroke="transparent" points="629.5,-136.04 629.5,-167.04 884.5,-167.04 884.5,-136.04 629.5,-136.04"/>
<text text-anchor="start" x="633.5" y="-153.64" font-family="Arial" font-weight="bold" font-size="13.00">data_refresh_signal.project_list_failed</text>
<text text-anchor="start" x="633.5" y="-142.64" font-family="Arial" font-size="8.00" fill="#64748b">transition signal</text>
<text text-anchor="start" x="634.5" y="-124.04" font-family="Arial" font-weight="bold" font-size="10.00">input:</text>
<text text-anchor="start" x="662.5" y="-124.04" font-family="Arial" font-size="10.00">  list_projects.workspace_id</text>
<text text-anchor="start" x="784.5" y="-124.04" font-family="Arial" font-size="8.00" fill="#94a3b8">  ID</text>
<text text-anchor="start" x="634.5" y="-112.04" font-family="Arial" font-weight="bold" font-size="10.00">data_loaders:</text>
<text text-anchor="start" x="697.5" y="-112.04" font-family="Arial" font-size="10.00">  list_projects</text>
<text text-anchor="start" x="634.5" y="-100.04" font-family="Arial" font-weight="bold" font-size="10.00">load:</text>
<text text-anchor="start" x="658.5" y="-100.04" font-family="Arial" font-size="10.00">  application_action.project.list</text>
<text text-anchor="start" x="791.5" y="-100.04" font-family="Arial" font-size="8.00" fill="#94a3b8">  array&lt;Project&gt;</text>
<text text-anchor="start" x="633.5" y="-80.04" font-family="Arial" font-weight="bold" font-size="10.00">authorization_policies:</text>
<text text-anchor="start" x="740.5" y="-80.04" font-family="Arial" font-size="10.00">  application_action.project.list:</text>
<text text-anchor="start" x="633.5" y="-68.04" font-family="Arial" font-size="10.00">  authorization_policy.project.member</text>
<polygon fill="none" stroke="#2563eb" points="628,-60.04 628,-176.04 885,-176.04 885,-60.04 628,-60.04"/>
</g>
<!-- view_state_loading&#45;&gt;transition_2_loading_error_data_refresh_signal_project_list_failed -->
<g id="edge5" class="edge">
<title>view_state_loading&#45;&gt;transition_2_loading_error_data_refresh_signal_project_list_failed</title>
<path fill="none" stroke="#3f3f46" d="M145.27,-229.95C173.07,-215.34 207.95,-198.99 241,-189.04 366.18,-151.37 514.58,-133.6 619.75,-125.27"/>
<polygon fill="#3f3f46" stroke="#3f3f46" points="620.12,-128.05 627.88,-124.64 619.69,-122.46 620.12,-128.05"/>
</g>
<!-- view_state_ready -->
<g id="node4" class="node">
<title>view_state_ready</title>
<polygon fill="#ffffff" stroke="transparent" points="1286,-196.54 1286,-425.54 1504,-425.54 1504,-196.54 1286,-196.54"/>
<polygon fill="#71717a" stroke="transparent" points="1287,-416.04 1287,-424.04 1503,-424.04 1503,-416.04 1287,-416.04"/>
<polygon fill="#f8fafc" stroke="transparent" points="1287,-385.04 1287,-416.04 1503,-416.04 1503,-385.04 1287,-385.04"/>
<text text-anchor="start" x="1291" y="-402.64" font-family="Arial" font-weight="bold" font-size="13.00">ready</text>
<text text-anchor="start" x="1291" y="-391.64" font-family="Arial" font-size="8.00" fill="#64748b">view state</text>
<text text-anchor="start" x="1292" y="-373.04" font-family="Arial" font-weight="bold" font-size="10.00">text:</text>
<text text-anchor="start" x="1312" y="-373.04" font-family="Arial" font-size="10.00">  text.project.list.ready.heading</text>
<text text-anchor="start" x="1291" y="-353.04" font-family="Arial" font-weight="bold" font-size="10.00">application_action.project.list fields</text>
<text text-anchor="start" x="1291" y="-342.04" font-family="Arial" font-size="10.00">title</text>
<text text-anchor="start" x="1307" y="-342.04" font-family="Arial" font-size="8.00" fill="#94a3b8">  Text</text>
<text text-anchor="start" x="1291" y="-331.04" font-family="Arial" font-size="10.00">customer</text>
<text text-anchor="start" x="1332" y="-331.04" font-family="Arial" font-size="8.00" fill="#94a3b8">  Text</text>
<text text-anchor="start" x="1291" y="-320.04" font-family="Arial" font-size="10.00">priority</text>
<text text-anchor="start" x="1321" y="-320.04" font-family="Arial" font-size="8.00" fill="#94a3b8">  Text</text>
<text text-anchor="start" x="1291" y="-309.04" font-family="Arial" font-size="10.00">status</text>
<text text-anchor="start" x="1319" y="-309.04" font-family="Arial" font-size="8.00" fill="#94a3b8">  enum&lt;draft|submitted|approved|archived&gt;</text>
<text text-anchor="start" x="1291" y="-290.04" font-family="Arial" font-weight="bold" font-size="10.00">action_bindings</text>
<text text-anchor="start" x="1291" y="-279.04" font-family="Arial" font-size="10.00">create: application_action.project.create</text>
<text text-anchor="start" x="1465" y="-279.04" font-family="Arial" font-size="8.00" fill="#94a3b8">  Project</text>
<text text-anchor="start" x="1291" y="-268.04" font-family="Arial" font-size="10.00">submit: application_action.project.submit</text>
<text text-anchor="start" x="1469" y="-268.04" font-family="Arial" font-size="8.00" fill="#94a3b8">  Project</text>
<text text-anchor="start" x="1291" y="-249.04" font-family="Arial" font-weight="bold" font-size="10.00">authorization_policies</text>
<text text-anchor="start" x="1291" y="-237.04" font-family="Arial" font-size="10.00">application_action.project.create:</text>
<text text-anchor="start" x="1291" y="-226.04" font-family="Arial" font-size="10.00">authorization_policy.project.member</text>
<text text-anchor="start" x="1291" y="-215.04" font-family="Arial" font-size="10.00">application_action.project.submit:</text>
<text text-anchor="start" x="1291" y="-204.04" font-family="Arial" font-size="10.00">authorization_policy.project.member</text>
<polygon fill="none" stroke="#71717a" points="1286,-196.54 1286,-425.54 1504,-425.54 1504,-196.54 1286,-196.54"/>
</g>
<!-- transition_6_ready_ready_local_signal_project_select -->
<g id="node11" class="node">
<title>transition_6_ready_ready_local_signal_project_select</title>
<polygon fill="#ffffff" stroke="transparent" points="1602.5,-411.04 1602.5,-485.04 1784.5,-485.04 1784.5,-411.04 1602.5,-411.04"/>
<polygon fill="#2563eb" stroke="transparent" points="1603.5,-476.04 1603.5,-484.04 1783.5,-484.04 1783.5,-476.04 1603.5,-476.04"/>
<polygon fill="#eff6ff" stroke="transparent" points="1603.5,-445.04 1603.5,-476.04 1783.5,-476.04 1783.5,-445.04 1603.5,-445.04"/>
<text text-anchor="start" x="1607.5" y="-462.64" font-family="Arial" font-weight="bold" font-size="13.00">local_signal.project_select</text>
<text text-anchor="start" x="1607.5" y="-451.64" font-family="Arial" font-size="8.00" fill="#64748b">transition signal</text>
<text text-anchor="start" x="1608.5" y="-433.04" font-family="Arial" font-weight="bold" font-size="10.00">emit:</text>
<text text-anchor="start" x="1632.5" y="-433.04" font-family="Arial" font-size="10.00">  local_signal.project_selected</text>
<text text-anchor="start" x="1608.5" y="-421.04" font-family="Arial" font-weight="bold" font-size="10.00">payload:</text>
<text text-anchor="start" x="1648.5" y="-421.04" font-family="Arial" font-size="10.00">  project_id</text>
<text text-anchor="start" x="1697.5" y="-421.04" font-family="Arial" font-size="8.00" fill="#94a3b8">  ID</text>
<polygon fill="none" stroke="#2563eb" points="1602.5,-411.04 1602.5,-485.04 1784.5,-485.04 1784.5,-411.04 1602.5,-411.04"/>
</g>
<!-- view_state_ready&#45;&gt;transition_6_ready_ready_local_signal_project_select -->
<g id="edge13" class="edge">
<title>view_state_ready&#45;&gt;transition_6_ready_ready_local_signal_project_select</title>
<path fill="none" stroke="#3f3f46" d="M1504.39,-355.24C1524.39,-365.01 1545.21,-375.07 1565,-384.04 1582.57,-392.01 1601.78,-400.04 1619.83,-407.7"/>
<polygon fill="#3f3f46" stroke="#3f3f46" points="1619.03,-410.4 1627.49,-410.96 1621.22,-405.25 1619.03,-410.4"/>
</g>
<!-- transition_7_ready_ready_data_refresh_signal_projects_changed -->
<g id="node12" class="node">
<title>transition_7_ready_ready_data_refresh_signal_projects_changed</title>
<polygon fill="#ffffff" stroke="transparent" points="1565,-238.04 1565,-384.04 1822,-384.04 1822,-238.04 1565,-238.04"/>
<polygon fill="#2563eb" stroke="transparent" points="1566.5,-375.04 1566.5,-383.04 1821.5,-383.04 1821.5,-375.04 1566.5,-375.04"/>
<polygon fill="#eff6ff" stroke="transparent" points="1566.5,-344.04 1566.5,-375.04 1821.5,-375.04 1821.5,-344.04 1566.5,-344.04"/>
<text text-anchor="start" x="1570.5" y="-361.64" font-family="Arial" font-weight="bold" font-size="13.00">data_refresh_signal.projects_changed</text>
<text text-anchor="start" x="1570.5" y="-350.64" font-family="Arial" font-size="8.00" fill="#64748b">transition signal</text>
<text text-anchor="start" x="1570.5" y="-333.04" font-family="Arial" font-style="italic" font-size="10.00" fill="#3f3f46">List mutations mark ready&#45;state collection data</text>
<text text-anchor="start" x="1570.5" y="-322.04" font-family="Arial" font-style="italic" font-size="10.00" fill="#3f3f46">stale and trigger query refresh.</text>
<text text-anchor="start" x="1571.5" y="-302.04" font-family="Arial" font-weight="bold" font-size="10.00">input:</text>
<text text-anchor="start" x="1599.5" y="-302.04" font-family="Arial" font-size="10.00">  list_projects.workspace_id</text>
<text text-anchor="start" x="1721.5" y="-302.04" font-family="Arial" font-size="8.00" fill="#94a3b8">  ID</text>
<text text-anchor="start" x="1571.5" y="-290.04" font-family="Arial" font-weight="bold" font-size="10.00">data_loaders:</text>
<text text-anchor="start" x="1634.5" y="-290.04" font-family="Arial" font-size="10.00">  list_projects</text>
<text text-anchor="start" x="1571.5" y="-278.04" font-family="Arial" font-weight="bold" font-size="10.00">load:</text>
<text text-anchor="start" x="1595.5" y="-278.04" font-family="Arial" font-size="10.00">  application_action.project.list</text>
<text text-anchor="start" x="1728.5" y="-278.04" font-family="Arial" font-size="8.00" fill="#94a3b8">  array&lt;Project&gt;</text>
<text text-anchor="start" x="1570.5" y="-258.04" font-family="Arial" font-weight="bold" font-size="10.00">authorization_policies:</text>
<text text-anchor="start" x="1677.5" y="-258.04" font-family="Arial" font-size="10.00">  application_action.project.list:</text>
<text text-anchor="start" x="1570.5" y="-246.04" font-family="Arial" font-size="10.00">  authorization_policy.project.member</text>
<polygon fill="none" stroke="#2563eb" points="1565,-238.04 1565,-384.04 1822,-384.04 1822,-238.04 1565,-238.04"/>
</g>
<!-- view_state_ready&#45;&gt;transition_7_ready_ready_data_refresh_signal_projects_changed -->
<g id="edge15" class="edge">
<title>view_state_ready&#45;&gt;transition_7_ready_ready_data_refresh_signal_projects_changed</title>
<path fill="none" stroke="#3f3f46" d="M1504.3,-301.62C1521.37,-301.34 1539.21,-301.24 1556.81,-301.33"/>
<polygon fill="#3f3f46" stroke="#3f3f46" points="1556.85,-304.13 1564.87,-301.38 1556.89,-298.53 1556.85,-304.13"/>
</g>
<!-- transition_8_ready_ready_data_refresh_signal_projects_loaded -->
<g id="node13" class="node">
<title>transition_8_ready_ready_data_refresh_signal_projects_loaded</title>
<polygon fill="#ffffff" stroke="transparent" points="1567,-65.04 1567,-211.04 1820,-211.04 1820,-65.04 1567,-65.04"/>
<polygon fill="#2563eb" stroke="transparent" points="1568.5,-202.04 1568.5,-210.04 1819.5,-210.04 1819.5,-202.04 1568.5,-202.04"/>
<polygon fill="#eff6ff" stroke="transparent" points="1568.5,-171.04 1568.5,-202.04 1819.5,-202.04 1819.5,-171.04 1568.5,-171.04"/>
<text text-anchor="start" x="1572.5" y="-188.64" font-family="Arial" font-weight="bold" font-size="13.00">data_refresh_signal.projects_loaded</text>
<text text-anchor="start" x="1572.5" y="-177.64" font-family="Arial" font-size="8.00" fill="#64748b">transition signal</text>
<text text-anchor="start" x="1572.5" y="-160.04" font-family="Arial" font-style="italic" font-size="10.00" fill="#3f3f46">Successful list queries refresh ready&#45;state</text>
<text text-anchor="start" x="1572.5" y="-149.04" font-family="Arial" font-style="italic" font-size="10.00" fill="#3f3f46">collection data.</text>
<text text-anchor="start" x="1573.5" y="-129.04" font-family="Arial" font-weight="bold" font-size="10.00">input:</text>
<text text-anchor="start" x="1601.5" y="-129.04" font-family="Arial" font-size="10.00">  list_projects.workspace_id</text>
<text text-anchor="start" x="1723.5" y="-129.04" font-family="Arial" font-size="8.00" fill="#94a3b8">  ID</text>
<text text-anchor="start" x="1573.5" y="-117.04" font-family="Arial" font-weight="bold" font-size="10.00">data_loaders:</text>
<text text-anchor="start" x="1636.5" y="-117.04" font-family="Arial" font-size="10.00">  list_projects</text>
<text text-anchor="start" x="1573.5" y="-105.04" font-family="Arial" font-weight="bold" font-size="10.00">load:</text>
<text text-anchor="start" x="1597.5" y="-105.04" font-family="Arial" font-size="10.00">  application_action.project.list</text>
<text text-anchor="start" x="1730.5" y="-105.04" font-family="Arial" font-size="8.00" fill="#94a3b8">  array&lt;Project&gt;</text>
<text text-anchor="start" x="1572.5" y="-85.04" font-family="Arial" font-weight="bold" font-size="10.00">authorization_policies:</text>
<text text-anchor="start" x="1679.5" y="-85.04" font-family="Arial" font-size="10.00">  application_action.project.list:</text>
<text text-anchor="start" x="1572.5" y="-73.04" font-family="Arial" font-size="10.00">  authorization_policy.project.member</text>
<polygon fill="none" stroke="#2563eb" points="1567,-65.04 1567,-211.04 1820,-211.04 1820,-65.04 1567,-65.04"/>
</g>
<!-- view_state_ready&#45;&gt;transition_8_ready_ready_data_refresh_signal_projects_loaded -->
<g id="edge17" class="edge">
<title>view_state_ready&#45;&gt;transition_8_ready_ready_data_refresh_signal_projects_loaded</title>
<path fill="none" stroke="#3f3f46" d="M1504.3,-238.43C1522.27,-227.65 1541.07,-216.58 1559.56,-205.91"/>
<polygon fill="#3f3f46" stroke="#3f3f46" points="1561.37,-208.1 1566.9,-201.68 1558.57,-203.24 1561.37,-208.1"/>
</g>
<!-- transition_9_ready_error_local_signal_show_invalid_state -->
<g id="node14" class="node">
<title>transition_9_ready_error_local_signal_show_invalid_state</title>
<polygon fill="#ffffff" stroke="transparent" points="1586,-512.54 1586,-583.54 1801,-583.54 1801,-512.54 1586,-512.54"/>
<polygon fill="#2563eb" stroke="transparent" points="1587.5,-574.04 1587.5,-582.04 1800.5,-582.04 1800.5,-574.04 1587.5,-574.04"/>
<polygon fill="#eff6ff" stroke="transparent" points="1587.5,-543.04 1587.5,-574.04 1800.5,-574.04 1800.5,-543.04 1587.5,-543.04"/>
<text text-anchor="start" x="1591.5" y="-560.64" font-family="Arial" font-weight="bold" font-size="13.00">local_signal.show_invalid_state</text>
<text text-anchor="start" x="1591.5" y="-549.64" font-family="Arial" font-size="8.00" fill="#64748b">transition signal</text>
<text text-anchor="start" x="1591.5" y="-532.04" font-family="Arial" font-style="italic" font-size="10.00" fill="#3f3f46">Invalid list application_actions move the list</text>
<text text-anchor="start" x="1591.5" y="-521.04" font-family="Arial" font-style="italic" font-size="10.00" fill="#3f3f46">into its displayable error state.</text>
<polygon fill="none" stroke="#2563eb" points="1586,-512.54 1586,-583.54 1801,-583.54 1801,-512.54 1586,-512.54"/>
</g>
<!-- view_state_ready&#45;&gt;transition_9_ready_error_local_signal_show_invalid_state -->
<g id="edge19" class="edge">
<title>view_state_ready&#45;&gt;transition_9_ready_error_local_signal_show_invalid_state</title>
<path fill="none" stroke="#3f3f46" d="M1484.52,-425.96C1508.56,-452.09 1536.02,-478.01 1565,-498.04 1570.48,-501.83 1576.29,-505.39 1582.29,-508.73"/>
<polygon fill="#3f3f46" stroke="#3f3f46" points="1581.04,-511.23 1589.42,-512.54 1583.68,-506.3 1581.04,-511.23"/>
</g>
<!-- transition_0_loading_empty_data_refresh_signal_project_collection_empty&#45;&gt;view_state_empty -->
<g id="edge2" class="edge">
<title>transition_0_loading_empty_data_refresh_signal_project_collection_empty&#45;&gt;view_state_empty</title>
<path fill="none" stroke="#3f3f46" d="M545.21,-443.34C562.58,-444.64 580.32,-445.96 597.77,-447.26"/>
<polygon fill="#3f3f46" stroke="#3f3f46" points="597.57,-450.06 605.76,-447.86 597.99,-444.47 597.57,-450.06"/>
</g>
<!-- transition_1_loading_ready_data_refresh_signal_projects_loaded&#45;&gt;view_state_ready -->
<g id="edge4" class="edge">
<title>transition_1_loading_ready_data_refresh_signal_projects_loaded&#45;&gt;view_state_ready</title>
<path fill="none" stroke="#3f3f46" d="M519.53,-261.11C682.45,-262.12 975.44,-267.06 1225,-288.04 1242.14,-289.49 1260.21,-291.46 1277.9,-293.65"/>
<polygon fill="#3f3f46" stroke="#3f3f46" points="1277.71,-296.44 1286,-294.66 1278.41,-290.89 1277.71,-296.44"/>
</g>
<!-- transition_2_loading_error_data_refresh_signal_project_list_failed&#45;&gt;view_state_error -->
<g id="edge6" class="edge">
<title>transition_2_loading_error_data_refresh_signal_project_list_failed&#45;&gt;view_state_error</title>
<path fill="none" stroke="#3f3f46" d="M885.25,-89.68C1135.71,-37.27 1679.31,59.77 1822,-51.04 1893.11,-106.27 1931.11,-384.28 1943.95,-498.72"/>
<polygon fill="#3f3f46" stroke="#3f3f46" points="1941.2,-499.35 1944.87,-507 1946.77,-498.74 1941.2,-499.35"/>
</g>
<!-- transition_3_empty_ready_data_refresh_signal_projects_loaded&#45;&gt;view_state_ready -->
<g id="edge8" class="edge">
<title>transition_3_empty_ready_data_refresh_signal_projects_loaded&#45;&gt;view_state_ready</title>
<path fill="none" stroke="#3f3f46" d="M1223.24,-339.26C1241.31,-336.28 1259.83,-333.22 1277.71,-330.26"/>
<polygon fill="#3f3f46" stroke="#3f3f46" points="1278.43,-332.98 1285.87,-328.91 1277.52,-327.46 1278.43,-332.98"/>
</g>
<!-- transition_4_empty_empty_data_refresh_signal_projects_changed&#45;&gt;view_state_empty -->
<g id="edge10" class="edge">
<title>transition_4_empty_empty_data_refresh_signal_projects_changed&#45;&gt;view_state_empty</title>
<path fill="none" stroke="#3f3f46" d="M967.82,-540.2C950.51,-534.6 932.58,-528.64 914.82,-522.58"/>
<polygon fill="#3f3f46" stroke="#3f3f46" points="915.7,-519.93 907.23,-519.98 913.89,-525.22 915.7,-519.93"/>
</g>
<!-- transition_5_empty_error_local_signal_show_invalid_state&#45;&gt;view_state_error -->
<g id="edge12" class="edge">
<title>transition_5_empty_error_local_signal_show_invalid_state&#45;&gt;view_state_error</title>
<path fill="none" stroke="#3f3f46" d="M1502.58,-585.96C1523.14,-590.57 1544.62,-594.61 1565,-597.04 1678.41,-610.61 1709.71,-617.96 1822,-597.04 1839.63,-593.76 1857.97,-588.12 1875.04,-581.81"/>
<polygon fill="#3f3f46" stroke="#3f3f46" points="1876.3,-584.32 1882.79,-578.86 1874.32,-579.09 1876.3,-584.32"/>
</g>
<!-- transition_6_ready_ready_local_signal_project_select&#45;&gt;view_state_ready -->
<g id="edge14" class="edge">
<title>transition_6_ready_ready_local_signal_project_select&#45;&gt;view_state_ready</title>
<path fill="none" stroke="#3f3f46" d="M1602.21,-426.97C1589.64,-421.9 1576.94,-416.46 1565,-411.04 1547.68,-403.2 1529.58,-394.51 1511.93,-385.61"/>
<polygon fill="#3f3f46" stroke="#3f3f46" points="1512.79,-382.91 1504.39,-381.78 1510.26,-387.9 1512.79,-382.91"/>
</g>
<!-- transition_7_ready_ready_data_refresh_signal_projects_changed&#45;&gt;view_state_ready -->
<g id="edge16" class="edge">
<title>transition_7_ready_ready_data_refresh_signal_projects_changed&#45;&gt;view_state_ready</title>
<path fill="none" stroke="#3f3f46" d="M1564.87,-321.45C1547.53,-321.61 1529.8,-321.57 1512.66,-321.33"/>
<polygon fill="#3f3f46" stroke="#3f3f46" points="1512.35,-318.52 1504.3,-321.2 1512.26,-324.12 1512.35,-318.52"/>
</g>
<!-- transition_8_ready_ready_data_refresh_signal_projects_loaded&#45;&gt;view_state_ready -->
<g id="edge18" class="edge">
<title>transition_8_ready_ready_data_refresh_signal_projects_loaded&#45;&gt;view_state_ready</title>
<path fill="none" stroke="#3f3f46" d="M1584.49,-211.21C1560.71,-225.51 1535.44,-240.3 1511.39,-253.99"/>
<polygon fill="#3f3f46" stroke="#3f3f46" points="1509.88,-251.62 1504.3,-258.01 1512.64,-256.49 1509.88,-251.62"/>
</g>
<!-- transition_9_ready_error_local_signal_show_invalid_state&#45;&gt;view_state_error -->
<g id="edge20" class="edge">
<title>transition_9_ready_error_local_signal_show_invalid_state&#45;&gt;view_state_error</title>
<path fill="none" stroke="#3f3f46" d="M1801.32,-548.04C1825.92,-548.04 1851.56,-548.04 1874.44,-548.04"/>
<polygon fill="#3f3f46" stroke="#3f3f46" points="1874.73,-550.84 1882.73,-548.04 1874.73,-545.24 1874.73,-550.84"/>
</g>
</g>
</svg>
