<svg width="1393pt" height="327pt"
 viewBox="0.00 0.00 1393.00 326.50" xmlns="http://www.w3.org/2000/svg" xmlns:xlink="http://www.w3.org/1999/xlink">
<g id="graph0" class="graph" transform="scale(1 1) rotate(0) translate(18 308.5)">
<title>fsm_panel_project_list</title>
<!-- initial -->
<g id="node1" class="node">
<title>initial</title>
<ellipse fill="none" stroke="#0891b2" cx="21" cy="-127" rx="21" ry="21"/>
<text text-anchor="middle" x="21" y="-124.8" font-family="Arial" font-size="9.00" fill="#155e75">initial</text>
</g>
<!-- state_loading -->
<g id="node4" class="node">
<title>state_loading</title>
<polygon fill="#ffffff" stroke="transparent" points="103,-96 103,-158 292,-158 292,-96 103,-96"/>
<polygon fill="#0891b2" stroke="transparent" points="104.5,-149 104.5,-157 291.5,-157 291.5,-149 104.5,-149"/>
<polygon fill="#ecfeff" stroke="transparent" points="104.5,-118 104.5,-149 291.5,-149 291.5,-118 104.5,-118"/>
<text text-anchor="start" x="108.5" y="-135.6" font-family="Arial" font-weight="bold" font-size="13.00">loading</text>
<text text-anchor="start" x="108.5" y="-124.6" font-family="Arial" font-size="8.00" fill="#64748b">initial state</text>
<text text-anchor="start" x="109.5" y="-106" font-family="Arial" font-weight="bold" font-size="10.00">copy:</text>
<text text-anchor="start" x="135.5" y="-106" font-family="Arial" font-size="10.00">  copy.project.list.loading.message</text>
<polygon fill="none" stroke="#0891b2" points="103,-96 103,-158 292,-158 292,-96 103,-96"/>
</g>
<!-- initial&#45;&gt;state_loading -->
<g id="edge1" class="edge">
<title>initial&#45;&gt;state_loading</title>
<path fill="none" stroke="#3f3f46" d="M42.02,-127C55.61,-127 74.73,-127 94.9,-127"/>
<polygon fill="#3f3f46" stroke="#3f3f46" points="94.98,-129.8 102.98,-127 94.98,-124.2 94.98,-129.8"/>
</g>
<!-- state_empty -->
<g id="node2" class="node">
<title>state_empty</title>
<polygon fill="#ffffff" stroke="transparent" points="550,-175.5 550,-290.5 750,-290.5 750,-175.5 550,-175.5"/>
<polygon fill="#71717a" stroke="transparent" points="551,-281 551,-289 749,-289 749,-281 551,-281"/>
<polygon fill="#f8fafc" stroke="transparent" points="551,-250 551,-281 749,-281 749,-250 551,-250"/>
<text text-anchor="start" x="555" y="-267.6" font-family="Arial" font-weight="bold" font-size="13.00">empty</text>
<text text-anchor="start" x="555" y="-256.6" font-family="Arial" font-size="8.00" fill="#64748b">state</text>
<text text-anchor="start" x="555" y="-239" font-family="Arial" font-weight="bold" font-size="10.00">copy</text>
<text text-anchor="start" x="555" y="-227" font-family="Arial" font-size="10.00">copy.project.list.empty.heading</text>
<text text-anchor="start" x="555" y="-216" font-family="Arial" font-size="10.00">copy.project.list.empty.body</text>
<text text-anchor="start" x="556" y="-197" font-family="Arial" font-weight="bold" font-size="10.00">assets:</text>
<text text-anchor="start" x="589" y="-197" font-family="Arial" font-size="10.00">  asset.project.list.empty.illustration</text>
<text text-anchor="start" x="556" y="-185" font-family="Arial" font-weight="bold" font-size="10.00">actions:</text>
<text text-anchor="start" x="593" y="-185" font-family="Arial" font-size="10.00">  project.create</text>
<polygon fill="none" stroke="#71717a" points="550,-175.5 550,-290.5 750,-290.5 750,-175.5 550,-175.5"/>
</g>
<!-- transition_3_empty_ready_data_ready -->
<g id="node9" class="node">
<title>transition_3_empty_ready_data_ready</title>
<polygon fill="#ffffff" stroke="transparent" points="811,-194 811,-280 947,-280 947,-194 811,-194"/>
<polygon fill="#2563eb" stroke="transparent" points="812,-271 812,-279 946,-279 946,-271 812,-271"/>
<polygon fill="#eff6ff" stroke="transparent" points="812,-240 812,-271 946,-271 946,-240 812,-240"/>
<text text-anchor="start" x="816" y="-257.6" font-family="Arial" font-weight="bold" font-size="13.00">data.ready</text>
<text text-anchor="start" x="816" y="-246.6" font-family="Arial" font-size="8.00" fill="#64748b">transition event</text>
<text text-anchor="start" x="817" y="-228" font-family="Arial" font-weight="bold" font-size="10.00">input:</text>
<text text-anchor="start" x="845" y="-228" font-family="Arial" font-size="10.00">  workspace_id</text>
<text text-anchor="start" x="912" y="-228" font-family="Arial" font-size="8.00" fill="#94a3b8">  ID</text>
<text text-anchor="start" x="817" y="-216" font-family="Arial" font-weight="bold" font-size="10.00">query:</text>
<text text-anchor="start" x="847" y="-216" font-family="Arial" font-size="10.00">  query.project.list.list</text>
<text text-anchor="start" x="817" y="-204" font-family="Arial" font-weight="bold" font-size="10.00">load:</text>
<text text-anchor="start" x="841" y="-204" font-family="Arial" font-size="10.00">  project.list</text>
<polygon fill="none" stroke="#2563eb" points="811,-194 811,-280 947,-280 947,-194 811,-194"/>
</g>
<!-- state_empty&#45;&gt;transition_3_empty_ready_data_ready -->
<g id="edge8" class="edge">
<title>state_empty&#45;&gt;transition_3_empty_ready_data_ready</title>
<path fill="none" stroke="#3f3f46" d="M750.24,-234.75C767.87,-235.06 785.97,-235.38 802.8,-235.67"/>
<polygon fill="#3f3f46" stroke="#3f3f46" points="802.9,-238.48 810.95,-235.82 803,-232.88 802.9,-238.48"/>
</g>
<!-- state_error -->
<g id="node3" class="node">
<title>state_error</title>
<polygon fill="#ffffff" stroke="transparent" points="581,-2 581,-84 719,-84 719,-2 581,-2"/>
<polygon fill="#71717a" stroke="transparent" points="582,-75 582,-83 718,-83 718,-75 582,-75"/>
<polygon fill="#f8fafc" stroke="transparent" points="582,-44 582,-75 718,-75 718,-44 582,-44"/>
<text text-anchor="start" x="586" y="-61.6" font-family="Arial" font-weight="bold" font-size="13.00">error</text>
<text text-anchor="start" x="586" y="-50.6" font-family="Arial" font-size="8.00" fill="#64748b">state</text>
<text text-anchor="start" x="586" y="-33" font-family="Arial" font-weight="bold" font-size="10.00">copy</text>
<text text-anchor="start" x="586" y="-21" font-family="Arial" font-size="10.00">copy.project.list.error.heading</text>
<text text-anchor="start" x="586" y="-10" font-family="Arial" font-size="10.00">copy.project.list.error.body</text>
<polygon fill="none" stroke="#71717a" points="581,-2 581,-84 719,-84 719,-2 581,-2"/>
</g>
<!-- transition_0_loading_empty_data_empty -->
<g id="node6" class="node">
<title>transition_0_loading_empty_data_empty</title>
<polygon fill="#ffffff" stroke="transparent" points="353,-175 353,-261 489,-261 489,-175 353,-175"/>
<polygon fill="#2563eb" stroke="transparent" points="354,-252 354,-260 488,-260 488,-252 354,-252"/>
<polygon fill="#eff6ff" stroke="transparent" points="354,-221 354,-252 488,-252 488,-221 354,-221"/>
<text text-anchor="start" x="358" y="-238.6" font-family="Arial" font-weight="bold" font-size="13.00">data.empty</text>
<text text-anchor="start" x="358" y="-227.6" font-family="Arial" font-size="8.00" fill="#64748b">transition event</text>
<text text-anchor="start" x="359" y="-209" font-family="Arial" font-weight="bold" font-size="10.00">input:</text>
<text text-anchor="start" x="387" y="-209" font-family="Arial" font-size="10.00">  workspace_id</text>
<text text-anchor="start" x="454" y="-209" font-family="Arial" font-size="8.00" fill="#94a3b8">  ID</text>
<text text-anchor="start" x="359" y="-197" font-family="Arial" font-weight="bold" font-size="10.00">query:</text>
<text text-anchor="start" x="389" y="-197" font-family="Arial" font-size="10.00">  query.project.list.list</text>
<text text-anchor="start" x="359" y="-185" font-family="Arial" font-weight="bold" font-size="10.00">load:</text>
<text text-anchor="start" x="383" y="-185" font-family="Arial" font-size="10.00">  project.list</text>
<polygon fill="none" stroke="#2563eb" points="353,-175 353,-261 489,-261 489,-175 353,-175"/>
</g>
<!-- state_loading&#45;&gt;transition_0_loading_empty_data_empty -->
<g id="edge2" class="edge">
<title>state_loading&#45;&gt;transition_0_loading_empty_data_empty</title>
<path fill="none" stroke="#3f3f46" d="M274.11,-158.06C297.08,-167.5 322.3,-177.86 345.21,-187.28"/>
<polygon fill="#3f3f46" stroke="#3f3f46" points="344.43,-189.98 352.89,-190.43 346.55,-184.8 344.43,-189.98"/>
</g>
<!-- transition_1_loading_ready_data_ready -->
<g id="node7" class="node">
<title>transition_1_loading_ready_data_ready</title>
<polygon fill="#ffffff" stroke="transparent" points="811,-81 811,-167 947,-167 947,-81 811,-81"/>
<polygon fill="#2563eb" stroke="transparent" points="812,-158 812,-166 946,-166 946,-158 812,-158"/>
<polygon fill="#eff6ff" stroke="transparent" points="812,-127 812,-158 946,-158 946,-127 812,-127"/>
<text text-anchor="start" x="816" y="-144.6" font-family="Arial" font-weight="bold" font-size="13.00">data.ready</text>
<text text-anchor="start" x="816" y="-133.6" font-family="Arial" font-size="8.00" fill="#64748b">transition event</text>
<text text-anchor="start" x="817" y="-115" font-family="Arial" font-weight="bold" font-size="10.00">input:</text>
<text text-anchor="start" x="845" y="-115" font-family="Arial" font-size="10.00">  workspace_id</text>
<text text-anchor="start" x="912" y="-115" font-family="Arial" font-size="8.00" fill="#94a3b8">  ID</text>
<text text-anchor="start" x="817" y="-103" font-family="Arial" font-weight="bold" font-size="10.00">query:</text>
<text text-anchor="start" x="847" y="-103" font-family="Arial" font-size="10.00">  query.project.list.list</text>
<text text-anchor="start" x="817" y="-91" font-family="Arial" font-weight="bold" font-size="10.00">load:</text>
<text text-anchor="start" x="841" y="-91" font-family="Arial" font-size="10.00">  project.list</text>
<polygon fill="none" stroke="#2563eb" points="811,-81 811,-167 947,-167 947,-81 811,-81"/>
</g>
<!-- state_loading&#45;&gt;transition_1_loading_ready_data_ready -->
<g id="edge4" class="edge">
<title>state_loading&#45;&gt;transition_1_loading_ready_data_ready</title>
<path fill="none" stroke="#3f3f46" d="M292.27,-126.59C428.36,-125.99 677.93,-124.88 802.75,-124.33"/>
<polygon fill="#3f3f46" stroke="#3f3f46" points="802.8,-127.13 810.79,-124.3 802.78,-121.53 802.8,-127.13"/>
</g>
<!-- transition_2_loading_error_data_error -->
<g id="node8" class="node">
<title>transition_2_loading_error_data_error</title>
<polygon fill="#ffffff" stroke="transparent" points="353,0 353,-86 489,-86 489,0 353,0"/>
<polygon fill="#2563eb" stroke="transparent" points="354,-77 354,-85 488,-85 488,-77 354,-77"/>
<polygon fill="#eff6ff" stroke="transparent" points="354,-46 354,-77 488,-77 488,-46 354,-46"/>
<text text-anchor="start" x="358" y="-63.6" font-family="Arial" font-weight="bold" font-size="13.00">data.error</text>
<text text-anchor="start" x="358" y="-52.6" font-family="Arial" font-size="8.00" fill="#64748b">transition event</text>
<text text-anchor="start" x="359" y="-34" font-family="Arial" font-weight="bold" font-size="10.00">input:</text>
<text text-anchor="start" x="387" y="-34" font-family="Arial" font-size="10.00">  workspace_id</text>
<text text-anchor="start" x="454" y="-34" font-family="Arial" font-size="8.00" fill="#94a3b8">  ID</text>
<text text-anchor="start" x="359" y="-22" font-family="Arial" font-weight="bold" font-size="10.00">query:</text>
<text text-anchor="start" x="389" y="-22" font-family="Arial" font-size="10.00">  query.project.list.list</text>
<text text-anchor="start" x="359" y="-10" font-family="Arial" font-weight="bold" font-size="10.00">load:</text>
<text text-anchor="start" x="383" y="-10" font-family="Arial" font-size="10.00">  project.list</text>
<polygon fill="none" stroke="#2563eb" points="353,0 353,-86 489,-86 489,0 353,0"/>
</g>
<!-- state_loading&#45;&gt;transition_2_loading_error_data_error -->
<g id="edge6" class="edge">
<title>state_loading&#45;&gt;transition_2_loading_error_data_error</title>
<path fill="none" stroke="#3f3f46" d="M280.35,-95.96C301.64,-87.89 324.47,-79.23 345.37,-71.3"/>
<polygon fill="#3f3f46" stroke="#3f3f46" points="346.48,-73.87 352.97,-68.42 344.5,-68.64 346.48,-73.87"/>
</g>
<!-- state_ready -->
<g id="node5" class="node">
<title>state_ready</title>
<polygon fill="#ffffff" stroke="transparent" points="1008,-97 1008,-263 1184,-263 1184,-97 1008,-97"/>
<polygon fill="#71717a" stroke="transparent" points="1009,-254 1009,-262 1183,-262 1183,-254 1009,-254"/>
<polygon fill="#f8fafc" stroke="transparent" points="1009,-223 1009,-254 1183,-254 1183,-223 1009,-223"/>
<text text-anchor="start" x="1013" y="-240.6" font-family="Arial" font-weight="bold" font-size="13.00">ready</text>
<text text-anchor="start" x="1013" y="-229.6" font-family="Arial" font-size="8.00" fill="#64748b">state</text>
<text text-anchor="start" x="1014" y="-211" font-family="Arial" font-weight="bold" font-size="10.00">copy:</text>
<text text-anchor="start" x="1040" y="-211" font-family="Arial" font-size="10.00">  copy.project.list.ready.heading</text>
<text text-anchor="start" x="1013" y="-191" font-family="Arial" font-weight="bold" font-size="10.00">project.list fields</text>
<text text-anchor="start" x="1013" y="-180" font-family="Arial" font-size="10.00">title</text>
<text text-anchor="start" x="1029" y="-180" font-family="Arial" font-size="8.00" fill="#94a3b8">  Text</text>
<text text-anchor="start" x="1013" y="-169" font-family="Arial" font-size="10.00">customer</text>
<text text-anchor="start" x="1054" y="-169" font-family="Arial" font-size="8.00" fill="#94a3b8">  Text</text>
<text text-anchor="start" x="1013" y="-158" font-family="Arial" font-size="10.00">priority</text>
<text text-anchor="start" x="1043" y="-158" font-family="Arial" font-size="8.00" fill="#94a3b8">  Text</text>
<text text-anchor="start" x="1013" y="-147" font-family="Arial" font-size="10.00">status</text>
<text text-anchor="start" x="1041" y="-147" font-family="Arial" font-size="8.00" fill="#94a3b8">  ProjectStatus</text>
<text text-anchor="start" x="1013" y="-128" font-family="Arial" font-weight="bold" font-size="10.00">actions</text>
<text text-anchor="start" x="1013" y="-116" font-family="Arial" font-size="10.00">project.create</text>
<text text-anchor="start" x="1013" y="-105" font-family="Arial" font-size="10.00">project.submit</text>
<polygon fill="none" stroke="#71717a" points="1008,-97 1008,-263 1184,-263 1184,-97 1008,-97"/>
</g>
<!-- transition_4_ready_ready_project_select -->
<g id="node10" class="node">
<title>transition_4_ready_ready_project_select</title>
<polygon fill="#ffffff" stroke="transparent" points="1245,-143 1245,-217 1357,-217 1357,-143 1245,-143"/>
<polygon fill="#2563eb" stroke="transparent" points="1246,-208 1246,-216 1356,-216 1356,-208 1246,-208"/>
<polygon fill="#eff6ff" stroke="transparent" points="1246,-177 1246,-208 1356,-208 1356,-177 1246,-177"/>
<text text-anchor="start" x="1250" y="-194.6" font-family="Arial" font-weight="bold" font-size="13.00">project.select</text>
<text text-anchor="start" x="1250" y="-183.6" font-family="Arial" font-size="8.00" fill="#64748b">transition event</text>
<text text-anchor="start" x="1251" y="-165" font-family="Arial" font-weight="bold" font-size="10.00">emit:</text>
<text text-anchor="start" x="1275" y="-165" font-family="Arial" font-size="10.00">  project.selected</text>
<text text-anchor="start" x="1251" y="-153" font-family="Arial" font-weight="bold" font-size="10.00">payload:</text>
<text text-anchor="start" x="1291" y="-153" font-family="Arial" font-size="10.00">  project_id</text>
<polygon fill="none" stroke="#2563eb" points="1245,-143 1245,-217 1357,-217 1357,-143 1245,-143"/>
</g>
<!-- state_ready&#45;&gt;transition_4_ready_ready_project_select -->
<g id="edge10" class="edge">
<title>state_ready&#45;&gt;transition_4_ready_ready_project_select</title>
<path fill="none" stroke="#3f3f46" d="M1184.27,-170.34C1201.91,-170.12 1220.13,-170.31 1236.75,-170.89"/>
<polygon fill="#3f3f46" stroke="#3f3f46" points="1236.67,-173.69 1244.77,-171.21 1236.89,-168.1 1236.67,-173.69"/>
</g>
<!-- transition_0_loading_empty_data_empty&#45;&gt;state_empty -->
<g id="edge3" class="edge">
<title>transition_0_loading_empty_data_empty&#45;&gt;state_empty</title>
<path fill="none" stroke="#3f3f46" d="M489.19,-222.44C505.63,-223.53 523.63,-224.72 541.44,-225.89"/>
<polygon fill="#3f3f46" stroke="#3f3f46" points="541.43,-228.7 549.6,-226.43 541.8,-223.11 541.43,-228.7"/>
</g>
<!-- transition_1_loading_ready_data_ready&#45;&gt;state_ready -->
<g id="edge5" class="edge">
<title>transition_1_loading_ready_data_ready&#45;&gt;state_ready</title>
<path fill="none" stroke="#3f3f46" d="M947.14,-141.49C963.81,-145.83 981.99,-150.57 999.73,-155.18"/>
<polygon fill="#3f3f46" stroke="#3f3f46" points="999.39,-157.99 1007.83,-157.3 1000.8,-152.57 999.39,-157.99"/>
</g>
<!-- transition_2_loading_error_data_error&#45;&gt;state_error -->
<g id="edge7" class="edge">
<title>transition_2_loading_error_data_error&#45;&gt;state_error</title>
<path fill="none" stroke="#3f3f46" d="M489.19,-43C515.37,-43 545.52,-43 572.53,-43"/>
<polygon fill="#3f3f46" stroke="#3f3f46" points="572.81,-45.8 580.81,-43 572.81,-40.2 572.81,-45.8"/>
</g>
<!-- transition_3_empty_ready_data_ready&#45;&gt;state_ready -->
<g id="edge9" class="edge">
<title>transition_3_empty_ready_data_ready&#45;&gt;state_ready</title>
<path fill="none" stroke="#3f3f46" d="M947.14,-219.2C963.81,-214.78 981.99,-209.96 999.73,-205.26"/>
<polygon fill="#3f3f46" stroke="#3f3f46" points="1000.82,-207.87 1007.83,-203.11 999.38,-202.45 1000.82,-207.87"/>
</g>
<!-- transition_4_ready_ready_project_select&#45;&gt;state_ready -->
<g id="edge11" class="edge">
<title>transition_4_ready_ready_project_select&#45;&gt;state_ready</title>
<path fill="none" stroke="#3f3f46" d="M1244.77,-189.46C1228.59,-190.24 1210.41,-190.58 1192.48,-190.48"/>
<polygon fill="#3f3f46" stroke="#3f3f46" points="1192.29,-187.68 1184.27,-190.41 1192.24,-193.28 1192.29,-187.68"/>
</g>
</g>
</svg>
