<svg width="579pt" height="187pt"
 viewBox="0.00 0.00 579.00 187.00" xmlns="http://www.w3.org/2000/svg" xmlns:xlink="http://www.w3.org/1999/xlink">
<!-- pyspec-contract-input-sha256: a71281aaba9f62b0917385a95887e8c5cbcb65a44e089741767e7a6e64f59e47 -->
<g id="graph0" class="graph" transform="scale(1 1) rotate(0) translate(18 169)">
<title>external_interface_external_interface_cli_project_board</title>
<!-- external_interface_external_interface_cli_project_board -->
<g id="node1" class="node">
<title>external_interface_external_interface_cli_project_board</title>
<polygon fill="#ffffff" stroke="transparent" points="0,-20 0,-131 201,-131 201,-20 0,-20"/>
<polygon fill="#0891b2" stroke="transparent" points="1.5,-121.5 1.5,-129.5 200.5,-129.5 200.5,-121.5 1.5,-121.5"/>
<polygon fill="#ecfeff" stroke="transparent" points="1.5,-90.5 1.5,-121.5 200.5,-121.5 200.5,-90.5 1.5,-90.5"/>
<text text-anchor="start" x="5.5" y="-108.1" font-family="Arial" font-weight="bold" font-size="13.00">project board</text>
<text text-anchor="start" x="5.5" y="-97.1" font-family="Arial" font-size="8.00" fill="#64748b">cli external interface</text>
<text text-anchor="start" x="5.5" y="-79.5" font-family="Arial" font-style="italic" font-size="10.00" fill="#3f3f46">CLI launcher for the Textual dispatch board.</text>
<text text-anchor="start" x="6.5" y="-59.5" font-family="Arial" font-weight="bold" font-size="10.00">cli command:</text>
<text text-anchor="start" x="70.5" y="-59.5" font-family="Arial" font-size="10.00">  cli_command.project.board</text>
<text text-anchor="start" x="5.5" y="-39.5" font-family="Arial" font-weight="bold" font-size="10.00">args</text>
<text text-anchor="start" x="5.5" y="-28.5" font-family="Arial" font-size="10.00">workspace_id</text>
<text text-anchor="start" x="66.5" y="-28.5" font-family="Arial" font-size="8.00" fill="#94a3b8">  string</text>
<polygon fill="none" stroke="#0891b2" points="0,-20 0,-131 201,-131 201,-20 0,-20"/>
</g>
<!-- external_interface_target_state_machine_project_board -->
<g id="node2" class="node">
<title>external_interface_target_state_machine_project_board</title>
<polygon fill="#ffffff" stroke="transparent" points="262,0 262,-151 543,-151 543,0 262,0"/>
<polygon fill="#9333ea" stroke="transparent" points="263.5,-141.5 263.5,-149.5 542.5,-149.5 542.5,-141.5 263.5,-141.5"/>
<polygon fill="#faf5ff" stroke="transparent" points="263.5,-110.5 263.5,-141.5 542.5,-141.5 542.5,-110.5 263.5,-110.5"/>
<text text-anchor="start" x="267.5" y="-128.1" font-family="Arial" font-weight="bold" font-size="13.00">state_machine.project.board</text>
<text text-anchor="start" x="267.5" y="-117.1" font-family="Arial" font-size="8.00" fill="#64748b">target state machine (textual)</text>
<text text-anchor="start" x="267.5" y="-99.5" font-family="Arial" font-style="italic" font-size="10.00" fill="#3f3f46">The dispatch board composes list, detail, and</text>
<text text-anchor="start" x="267.5" y="-88.5" font-family="Arial" font-style="italic" font-size="10.00" fill="#3f3f46">activity state machines through shared</text>
<text text-anchor="start" x="267.5" y="-77.5" font-family="Arial" font-style="italic" font-size="10.00" fill="#3f3f46">selected&#45;project context.</text>
<text text-anchor="start" x="268.5" y="-57.5" font-family="Arial" font-weight="bold" font-size="10.00">input:</text>
<text text-anchor="start" x="296.5" y="-57.5" font-family="Arial" font-size="10.00">  list_board.workspace_id</text>
<text text-anchor="start" x="408.5" y="-57.5" font-family="Arial" font-size="8.00" fill="#94a3b8">  string</text>
<text text-anchor="start" x="268.5" y="-45.5" font-family="Arial" font-weight="bold" font-size="10.00">data_loaders:</text>
<text text-anchor="start" x="331.5" y="-45.5" font-family="Arial" font-size="10.00">  list_board</text>
<text text-anchor="start" x="268.5" y="-33.5" font-family="Arial" font-weight="bold" font-size="10.00">load:</text>
<text text-anchor="start" x="292.5" y="-33.5" font-family="Arial" font-size="10.00">  query.project.list</text>
<text text-anchor="start" x="370.5" y="-33.5" font-family="Arial" font-size="8.00" fill="#94a3b8">  array&lt;Project&gt;</text>
<text text-anchor="start" x="268.5" y="-21.5" font-family="Arial" font-weight="bold" font-size="10.00">entity_type:</text>
<text text-anchor="start" x="322.5" y="-21.5" font-family="Arial" font-size="10.00">  entity_type.project</text>
<text text-anchor="start" x="268.5" y="-9.5" font-family="Arial" font-weight="bold" font-size="10.00">signal_sync_rules:</text>
<text text-anchor="start" x="356.5" y="-9.5" font-family="Arial" font-size="10.00">  select_project_updates_state_machines</text>
<polygon fill="none" stroke="#9333ea" points="262,0 262,-151 543,-151 543,0 262,0"/>
</g>
<!-- external_interface_external_interface_cli_project_board&#45;&gt;external_interface_target_state_machine_project_board -->
<g id="edge1" class="edge">
<title>external_interface_external_interface_cli_project_board&#45;&gt;external_interface_target_state_machine_project_board</title>
<path fill="none" stroke="#3f3f46" d="M201.4,-75.5C218.25,-75.5 236.05,-75.5 253.81,-75.5"/>
<polygon fill="#3f3f46" stroke="#3f3f46" points="253.96,-78.3 261.96,-75.5 253.96,-72.7 253.96,-78.3"/>
</g>
</g>
</svg>
