<svg width="715pt" height="187pt"
 viewBox="0.00 0.00 715.00 187.00" xmlns="http://www.w3.org/2000/svg" xmlns:xlink="http://www.w3.org/1999/xlink">
<!-- pyspec-contract-input-sha256: 913aba36166ecbe6341b2a719a90a81bacac1c8540b27194c516a73049f2b4fb -->
<g id="graph0" class="graph" transform="scale(1 1) rotate(0) translate(18 169)">
<title>external_interface_external_interface_cli_project_board</title>
<!-- external_interface_external_interface_cli_project_board -->
<g id="node1" class="node">
<title>external_interface_external_interface_cli_project_board</title>
<polygon fill="#ffffff" stroke="transparent" points="0,-9.5 0,-141.5 310,-141.5 310,-9.5 0,-9.5"/>
<polygon fill="#0891b2" stroke="transparent" points="1,-132.5 1,-140.5 309,-140.5 309,-132.5 1,-132.5"/>
<polygon fill="#ecfeff" stroke="transparent" points="1,-101.5 1,-132.5 309,-132.5 309,-101.5 1,-101.5"/>
<text text-anchor="start" x="5" y="-119.1" font-family="Arial" font-weight="bold" font-size="13.00">project board</text>
<text text-anchor="start" x="5" y="-108.1" font-family="Arial" font-size="8.00" fill="#64748b">cli external interface</text>
<text text-anchor="start" x="5" y="-90.5" font-family="Arial" font-style="italic" font-size="10.00" fill="#3f3f46">CLI launcher for the Textual dispatch board.</text>
<text text-anchor="start" x="6" y="-70.5" font-family="Arial" font-weight="bold" font-size="10.00">cli command:</text>
<text text-anchor="start" x="70" y="-70.5" font-family="Arial" font-size="10.00">  cli_command.project.board</text>
<text text-anchor="start" x="5" y="-50.5" font-family="Arial" font-weight="bold" font-size="10.00">args</text>
<text text-anchor="start" x="5" y="-39.5" font-family="Arial" font-size="10.00">workspace_id</text>
<text text-anchor="start" x="66" y="-39.5" font-family="Arial" font-size="8.00" fill="#94a3b8">  string</text>
<text text-anchor="start" x="6" y="-19.5" font-family="Arial" font-weight="bold" font-size="10.00">input mapping:</text>
<text text-anchor="start" x="78" y="-19.5" font-family="Arial" font-size="10.00">  workspace_id ← adapter_input.args.workspace_id</text>
<polygon fill="none" stroke="#0891b2" points="0,-9.5 0,-141.5 310,-141.5 310,-9.5 0,-9.5"/>
</g>
<!-- external_interface_invocation_state_machine_project_board -->
<g id="node2" class="node">
<title>external_interface_invocation_state_machine_project_board</title>
<polygon fill="#ffffff" stroke="transparent" points="371,0 371,-151 679,-151 679,0 371,0"/>
<polygon fill="#9333ea" stroke="transparent" points="372,-141.5 372,-149.5 678,-149.5 678,-141.5 372,-141.5"/>
<polygon fill="#faf5ff" stroke="transparent" points="372,-110.5 372,-141.5 678,-141.5 678,-110.5 372,-110.5"/>
<text text-anchor="start" x="376" y="-128.1" font-family="Arial" font-weight="bold" font-size="13.00">state_machine.project.board</text>
<text text-anchor="start" x="376" y="-117.1" font-family="Arial" font-size="8.00" fill="#64748b">invoked state machine (textual)</text>
<text text-anchor="start" x="376" y="-99.5" font-family="Arial" font-style="italic" font-size="10.00" fill="#3f3f46">The dispatch board composes list, detail, and</text>
<text text-anchor="start" x="376" y="-88.5" font-family="Arial" font-style="italic" font-size="10.00" fill="#3f3f46">activity state machines through shared</text>
<text text-anchor="start" x="376" y="-77.5" font-family="Arial" font-style="italic" font-size="10.00" fill="#3f3f46">selected&#45;project context_resource.</text>
<text text-anchor="start" x="377" y="-57.5" font-family="Arial" font-weight="bold" font-size="10.00">input:</text>
<text text-anchor="start" x="405" y="-57.5" font-family="Arial" font-size="10.00">  list_board.workspace_id</text>
<text text-anchor="start" x="517" y="-57.5" font-family="Arial" font-size="8.00" fill="#94a3b8">  string</text>
<text text-anchor="start" x="377" y="-45.5" font-family="Arial" font-weight="bold" font-size="10.00">query_bindings:</text>
<text text-anchor="start" x="453" y="-45.5" font-family="Arial" font-size="10.00">  list_board</text>
<text text-anchor="start" x="377" y="-33.5" font-family="Arial" font-weight="bold" font-size="10.00">load:</text>
<text text-anchor="start" x="401" y="-33.5" font-family="Arial" font-size="10.00">  query.project.list</text>
<text text-anchor="start" x="479" y="-33.5" font-family="Arial" font-size="8.00" fill="#94a3b8">  array&lt;Project&gt;</text>
<text text-anchor="start" x="377" y="-21.5" font-family="Arial" font-weight="bold" font-size="10.00">entity_type:</text>
<text text-anchor="start" x="431" y="-21.5" font-family="Arial" font-size="10.00">  entity_type.project</text>
<text text-anchor="start" x="377" y="-9.5" font-family="Arial" font-weight="bold" font-size="10.00">local_signal_sync_rules:</text>
<text text-anchor="start" x="492" y="-9.5" font-family="Arial" font-size="10.00">  select_project_updates_state_machines</text>
<polygon fill="none" stroke="#9333ea" points="371,0 371,-151 679,-151 679,0 371,0"/>
</g>
<!-- external_interface_external_interface_cli_project_board&#45;&gt;external_interface_invocation_state_machine_project_board -->
<g id="edge1" class="edge">
<title>external_interface_external_interface_cli_project_board&#45;&gt;external_interface_invocation_state_machine_project_board</title>
<path fill="none" stroke="#3f3f46" d="M310.2,-75.5C327.61,-75.5 345.38,-75.5 362.88,-75.5"/>
<polygon fill="#3f3f46" stroke="#3f3f46" points="362.9,-78.3 370.9,-75.5 362.9,-72.7 362.9,-78.3"/>
</g>
</g>
</svg>
