<svg width="1586pt" height="732pt"
 viewBox="0.00 0.00 1586.00 732.00" xmlns="http://www.w3.org/2000/svg" xmlns:xlink="http://www.w3.org/1999/xlink">
<!-- pyspec-contract-input-sha256: cb6f43cd523bb163343fba5bb170dcbac59e0407bfebe5dbbc8b5d68197837ba -->
<g id="graph0" class="graph" transform="scale(1 1) rotate(0) translate(18 714)">
<title>command_command_project_approve</title>
<!-- command_input_command_project_approve -->
<g id="node1" class="node">
<title>command_input_command_project_approve</title>
<polygon fill="#ffffff" stroke="transparent" points="0,-369.5 0,-451.5 91,-451.5 91,-369.5 0,-369.5"/>
<polygon fill="#64748b" stroke="transparent" points="1.5,-442.5 1.5,-450.5 90.5,-450.5 90.5,-442.5 1.5,-442.5"/>
<polygon fill="#f8fafc" stroke="transparent" points="1.5,-411.5 1.5,-442.5 90.5,-442.5 90.5,-411.5 1.5,-411.5"/>
<text text-anchor="start" x="5.5" y="-429.1" font-family="Arial" font-weight="bold" font-size="13.00">input</text>
<text text-anchor="start" x="5.5" y="-418.1" font-family="Arial" font-size="8.00" fill="#64748b">command input</text>
<text text-anchor="start" x="5.5" y="-400.5" font-family="Arial" font-weight="bold" font-size="10.00">fields</text>
<text text-anchor="start" x="5.5" y="-389.5" font-family="Arial" font-size="10.00">approved_by</text>
<text text-anchor="start" x="61.5" y="-389.5" font-family="Arial" font-size="8.00" fill="#94a3b8">  string</text>
<text text-anchor="start" x="5.5" y="-378.5" font-family="Arial" font-size="10.00">project_id</text>
<text text-anchor="start" x="48.5" y="-378.5" font-family="Arial" font-size="8.00" fill="#94a3b8">  string</text>
<polygon fill="none" stroke="#64748b" points="0,-369.5 0,-451.5 91,-451.5 91,-369.5 0,-369.5"/>
</g>
<!-- command_query_policy_access_policy_project_reviewer -->
<g id="node2" class="node">
<title>command_query_policy_access_policy_project_reviewer</title>
<polygon fill="#ffffff" stroke="transparent" points="193,-322 193,-499 443,-499 443,-322 193,-322"/>
<polygon fill="#c2410c" stroke="transparent" points="194,-489.5 194,-497.5 442,-497.5 442,-489.5 194,-489.5"/>
<polygon fill="#fff7ed" stroke="transparent" points="194,-458.5 194,-489.5 442,-489.5 442,-458.5 194,-458.5"/>
<text text-anchor="start" x="198" y="-476.1" font-family="Arial" font-weight="bold" font-size="13.00">access_policy.project.reviewer</text>
<text text-anchor="start" x="198" y="-465.1" font-family="Arial" font-size="8.00" fill="#64748b">authorization gate</text>
<text text-anchor="start" x="198" y="-447.5" font-family="Arial" font-style="italic" font-size="10.00" fill="#3f3f46">Reviewers may approve, archive, and send approval</text>
<text text-anchor="start" x="198" y="-436.5" font-family="Arial" font-style="italic" font-size="10.00" fill="#3f3f46">notices for dispatch projects.</text>
<text text-anchor="start" x="199" y="-416.5" font-family="Arial" font-weight="bold" font-size="10.00">combining_algorithm:</text>
<text text-anchor="start" x="303" y="-416.5" font-family="Arial" font-size="10.00">  all_permit_rules_must_match</text>
<text text-anchor="start" x="199" y="-404.5" font-family="Arial" font-weight="bold" font-size="10.00">subject:</text>
<text text-anchor="start" x="236" y="-404.5" font-family="Arial" font-size="10.00">  actor</text>
<text text-anchor="start" x="198" y="-384.5" font-family="Arial" font-weight="bold" font-size="10.00">action</text>
<text text-anchor="start" x="198" y="-372.5" font-family="Arial" font-size="10.00">command.project.approve</text>
<text text-anchor="start" x="198" y="-361.5" font-family="Arial" font-size="10.00">command.project.archive</text>
<text text-anchor="start" x="198" y="-350.5" font-family="Arial" font-size="10.00">command.project.send_approval_notice</text>
<text text-anchor="start" x="199" y="-331.5" font-family="Arial" font-weight="bold" font-size="10.00">rules:</text>
<text text-anchor="start" x="226" y="-331.5" font-family="Arial" font-size="10.00">  permit: subject_has_role reviewer</text>
<polygon fill="none" stroke="#c2410c" points="193,-322 193,-499 443,-499 443,-322 193,-322"/>
</g>
<!-- command_input_command_project_approve&#45;&gt;command_query_policy_access_policy_project_reviewer -->
<g id="edge1" class="edge">
<title>command_input_command_project_approve&#45;&gt;command_query_policy_access_policy_project_reviewer</title>
<path fill="none" stroke="#3f3f46" stroke-width="1.2" d="M91.17,-410.5C117.01,-410.5 151.01,-410.5 184.76,-410.5"/>
<polygon fill="#3f3f46" stroke="#3f3f46" stroke-width="1.2" points="184.87,-413.3 192.87,-410.5 184.87,-407.7 184.87,-413.3"/>
<text text-anchor="middle" x="142" y="-413.5" font-family="Arial" font-size="10.00">authorize</text>
</g>
<!-- command_query_resource_command_project_approve_entity_lifecycle_transition_entity_type_project_status -->
<g id="node3" class="node">
<title>command_query_resource_command_project_approve_entity_lifecycle_transition_entity_type_project_status</title>
<polygon fill="#ffffff" stroke="transparent" points="616,-250 616,-321 929,-321 929,-250 616,-250"/>
<polygon fill="#15803d" stroke="transparent" points="617.5,-311.5 617.5,-319.5 928.5,-319.5 928.5,-311.5 617.5,-311.5"/>
<polygon fill="#f0fdfa" stroke="transparent" points="617.5,-280.5 617.5,-311.5 928.5,-311.5 928.5,-280.5 617.5,-280.5"/>
<text text-anchor="start" x="621.5" y="-298.1" font-family="Arial" font-weight="bold" font-size="13.00">entity_type.project</text>
<text text-anchor="start" x="621.5" y="-287.1" font-family="Arial" font-size="8.00" fill="#64748b">entity_type resource</text>
<text text-anchor="start" x="621.5" y="-269.5" font-family="Arial" font-weight="bold" font-size="10.00">change</text>
<text text-anchor="start" x="621.5" y="-258.5" font-family="Arial" font-size="10.00">Project.status</text>
<text text-anchor="start" x="682.5" y="-258.5" font-family="Arial" font-size="8.00" fill="#94a3b8">  enum&lt;draft|submitted|approved|archived&gt;</text>
<text text-anchor="start" x="838.5" y="-258.5" font-family="Arial" font-size="8.00">  submitted → approved</text>
<polygon fill="none" stroke="#15803d" points="616,-250 616,-321 929,-321 929,-250 616,-250"/>
</g>
<!-- command_query_policy_access_policy_project_reviewer&#45;&gt;command_query_resource_command_project_approve_entity_lifecycle_transition_entity_type_project_status -->
<g id="edge2" class="edge">
<title>command_query_policy_access_policy_project_reviewer&#45;&gt;command_query_resource_command_project_approve_entity_lifecycle_transition_entity_type_project_status</title>
<path fill="none" stroke="#3f3f46" d="M443.25,-376.18C502.71,-359.75 574.06,-340.04 635.04,-323.2"/>
<polygon fill="#3f3f46" stroke="#3f3f46" points="635.83,-325.88 642.8,-321.05 634.34,-320.48 635.83,-325.88"/>
<text text-anchor="middle" x="529.5" y="-369.5" font-family="Arial" font-size="10.00">entity_lifecycle_transition</text>
</g>
<!-- command_outcome_command_project_approve_access_denied -->
<g id="node4" class="node">
<title>command_outcome_command_project_approve_access_denied</title>
<polygon fill="#ffffff" stroke="transparent" points="1083.5,-625 1083.5,-696 1190.5,-696 1190.5,-625 1083.5,-625"/>
<polygon fill="#dc2626" stroke="transparent" points="1085,-686.5 1085,-694.5 1190,-694.5 1190,-686.5 1085,-686.5"/>
<polygon fill="#fef2f2" stroke="transparent" points="1085,-655.5 1085,-686.5 1190,-686.5 1190,-655.5 1085,-655.5"/>
<text text-anchor="start" x="1089" y="-673.1" font-family="Arial" font-weight="bold" font-size="13.00">access_denied</text>
<text text-anchor="start" x="1089" y="-662.1" font-family="Arial" font-size="8.00" fill="#64748b">failure outcome</text>
<text text-anchor="start" x="1089" y="-644.5" font-family="Arial" font-weight="bold" font-size="10.00">result</text>
<text text-anchor="start" x="1089" y="-633.5" font-family="Arial" font-size="10.00">result</text>
<text text-anchor="start" x="1114" y="-633.5" font-family="Arial" font-size="8.00" fill="#94a3b8">  Problem</text>
<polygon fill="none" stroke="#dc2626" points="1083.5,-625 1083.5,-696 1190.5,-696 1190.5,-625 1083.5,-625"/>
</g>
<!-- command_query_policy_access_policy_project_reviewer&#45;&gt;command_outcome_command_project_approve_access_denied -->
<g id="edge3" class="edge">
<title>command_query_policy_access_policy_project_reviewer&#45;&gt;command_outcome_command_project_approve_access_denied</title>
<path fill="none" stroke="#3f3f46" d="M443.08,-448.47C621.22,-502.98 942.6,-601.32 1075.72,-642.05"/>
<polygon fill="#3f3f46" stroke="#3f3f46" points="1074.98,-644.76 1083.45,-644.42 1076.62,-639.4 1074.98,-644.76"/>
<text text-anchor="middle" x="772.5" y="-599.5" font-family="Arial" font-size="10.00">access_denied_as</text>
</g>
<!-- command_outcome_command_project_approve_authentication_required -->
<g id="node6" class="node">
<title>command_outcome_command_project_approve_authentication_required</title>
<polygon fill="#ffffff" stroke="transparent" points="1055,-375 1055,-446 1219,-446 1219,-375 1055,-375"/>
<polygon fill="#dc2626" stroke="transparent" points="1056,-436.5 1056,-444.5 1218,-444.5 1218,-436.5 1056,-436.5"/>
<polygon fill="#fef2f2" stroke="transparent" points="1056,-405.5 1056,-436.5 1218,-436.5 1218,-405.5 1056,-405.5"/>
<text text-anchor="start" x="1060" y="-423.1" font-family="Arial" font-weight="bold" font-size="13.00">authentication_required</text>
<text text-anchor="start" x="1060" y="-412.1" font-family="Arial" font-size="8.00" fill="#64748b">failure outcome</text>
<text text-anchor="start" x="1060" y="-394.5" font-family="Arial" font-weight="bold" font-size="10.00">result</text>
<text text-anchor="start" x="1060" y="-383.5" font-family="Arial" font-size="10.00">result</text>
<text text-anchor="start" x="1085" y="-383.5" font-family="Arial" font-size="8.00" fill="#94a3b8">  Problem</text>
<polygon fill="none" stroke="#dc2626" points="1055,-375 1055,-446 1219,-446 1219,-375 1055,-375"/>
</g>
<!-- command_query_policy_access_policy_project_reviewer&#45;&gt;command_outcome_command_project_approve_authentication_required -->
<g id="edge6" class="edge">
<title>command_query_policy_access_policy_project_reviewer&#45;&gt;command_outcome_command_project_approve_authentication_required</title>
<path fill="none" stroke="#3f3f46" d="M443.08,-410.5C609.35,-410.5 900.4,-410.5 1046.7,-410.5"/>
<polygon fill="#3f3f46" stroke="#3f3f46" points="1046.84,-413.3 1054.84,-410.5 1046.84,-407.7 1046.84,-413.3"/>
<text text-anchor="middle" x="772.5" y="-413.5" font-family="Arial" font-size="10.00">authentication_required_as</text>
</g>
<!-- command_outcome_command_project_approve_approved -->
<g id="node5" class="node">
<title>command_outcome_command_project_approve_approved</title>
<polygon fill="#ffffff" stroke="transparent" points="1101.5,-500 1101.5,-571 1172.5,-571 1172.5,-500 1101.5,-500"/>
<polygon fill="#16a34a" stroke="transparent" points="1103,-561.5 1103,-569.5 1172,-569.5 1172,-561.5 1103,-561.5"/>
<polygon fill="#f0fdf4" stroke="transparent" points="1103,-530.5 1103,-561.5 1172,-561.5 1172,-530.5 1103,-530.5"/>
<text text-anchor="start" x="1107" y="-548.1" font-family="Arial" font-weight="bold" font-size="13.00">approved</text>
<text text-anchor="start" x="1107" y="-537.1" font-family="Arial" font-size="8.00" fill="#64748b">success outcome</text>
<text text-anchor="start" x="1107" y="-519.5" font-family="Arial" font-weight="bold" font-size="10.00">result</text>
<text text-anchor="start" x="1107" y="-508.5" font-family="Arial" font-size="10.00">result</text>
<text text-anchor="start" x="1132" y="-508.5" font-family="Arial" font-size="8.00" fill="#94a3b8">  Project</text>
<polygon fill="none" stroke="#16a34a" points="1101.5,-500 1101.5,-571 1172.5,-571 1172.5,-500 1101.5,-500"/>
</g>
<!-- command_query_resource_command_project_approve_entity_lifecycle_transition_entity_type_project_status&#45;&gt;command_outcome_command_project_approve_approved -->
<g id="edge4" class="edge">
<title>command_query_resource_command_project_approve_entity_lifecycle_transition_entity_type_project_status&#45;&gt;command_outcome_command_project_approve_approved</title>
<path fill="none" stroke="#3f3f46" d="M838.86,-321.11C867.21,-337.33 900.39,-357.38 929,-377.5 975.73,-410.37 982.6,-424.81 1028,-459.5 1049.6,-476.01 1074.37,-493.53 1094.73,-507.59"/>
<polygon fill="#3f3f46" stroke="#3f3f46" points="1093.28,-509.99 1101.46,-512.21 1096.45,-505.37 1093.28,-509.99"/>
<text text-anchor="middle" x="978.5" y="-436.5" font-family="Arial" font-size="10.00">success</text>
</g>
<!-- command_outcome_command_project_approve_lifecycle_transition_not_allowed -->
<g id="node7" class="node">
<title>command_outcome_command_project_approve_lifecycle_transition_not_allowed</title>
<polygon fill="#ffffff" stroke="transparent" points="1028,-250 1028,-321 1246,-321 1246,-250 1028,-250"/>
<polygon fill="#dc2626" stroke="transparent" points="1029,-311.5 1029,-319.5 1245,-319.5 1245,-311.5 1029,-311.5"/>
<polygon fill="#fef2f2" stroke="transparent" points="1029,-280.5 1029,-311.5 1245,-311.5 1245,-280.5 1029,-280.5"/>
<text text-anchor="start" x="1033" y="-298.1" font-family="Arial" font-weight="bold" font-size="13.00">lifecycle_transition_not_allowed</text>
<text text-anchor="start" x="1033" y="-287.1" font-family="Arial" font-size="8.00" fill="#64748b">failure outcome</text>
<text text-anchor="start" x="1033" y="-269.5" font-family="Arial" font-weight="bold" font-size="10.00">result</text>
<text text-anchor="start" x="1033" y="-258.5" font-family="Arial" font-size="10.00">result</text>
<text text-anchor="start" x="1058" y="-258.5" font-family="Arial" font-size="8.00" fill="#94a3b8">  Problem</text>
<polygon fill="none" stroke="#dc2626" points="1028,-250 1028,-321 1246,-321 1246,-250 1028,-250"/>
</g>
<!-- command_query_resource_command_project_approve_entity_lifecycle_transition_entity_type_project_status&#45;&gt;command_outcome_command_project_approve_lifecycle_transition_not_allowed -->
<g id="edge7" class="edge">
<title>command_query_resource_command_project_approve_entity_lifecycle_transition_entity_type_project_status&#45;&gt;command_outcome_command_project_approve_lifecycle_transition_not_allowed</title>
<path fill="none" stroke="#3f3f46" d="M929.07,-285.5C959.53,-285.5 990.97,-285.5 1019.86,-285.5"/>
<polygon fill="#3f3f46" stroke="#3f3f46" points="1019.94,-288.3 1027.94,-285.5 1019.94,-282.7 1019.94,-288.3"/>
<text text-anchor="middle" x="978.5" y="-288.5" font-family="Arial" font-size="10.00">failure</text>
</g>
<!-- command_outcome_command_project_approve_not_found -->
<g id="node8" class="node">
<title>command_outcome_command_project_approve_not_found</title>
<polygon fill="#ffffff" stroke="transparent" points="1098.5,-125 1098.5,-196 1175.5,-196 1175.5,-125 1098.5,-125"/>
<polygon fill="#dc2626" stroke="transparent" points="1100,-186.5 1100,-194.5 1175,-194.5 1175,-186.5 1100,-186.5"/>
<polygon fill="#fef2f2" stroke="transparent" points="1100,-155.5 1100,-186.5 1175,-186.5 1175,-155.5 1100,-155.5"/>
<text text-anchor="start" x="1104" y="-173.1" font-family="Arial" font-weight="bold" font-size="13.00">not_found</text>
<text text-anchor="start" x="1104" y="-162.1" font-family="Arial" font-size="8.00" fill="#64748b">failure outcome</text>
<text text-anchor="start" x="1104" y="-144.5" font-family="Arial" font-weight="bold" font-size="10.00">result</text>
<text text-anchor="start" x="1104" y="-133.5" font-family="Arial" font-size="10.00">result</text>
<text text-anchor="start" x="1129" y="-133.5" font-family="Arial" font-size="8.00" fill="#94a3b8">  Problem</text>
<polygon fill="none" stroke="#dc2626" points="1098.5,-125 1098.5,-196 1175.5,-196 1175.5,-125 1098.5,-125"/>
</g>
<!-- command_query_resource_command_project_approve_entity_lifecycle_transition_entity_type_project_status&#45;&gt;command_outcome_command_project_approve_not_found -->
<g id="edge8" class="edge">
<title>command_query_resource_command_project_approve_entity_lifecycle_transition_entity_type_project_status&#45;&gt;command_outcome_command_project_approve_not_found</title>
<path fill="none" stroke="#3f3f46" d="M876.89,-249.85C947.5,-225.5 1037.57,-194.44 1090.79,-176.09"/>
<polygon fill="#3f3f46" stroke="#3f3f46" points="1091.72,-178.73 1098.37,-173.48 1089.89,-173.44 1091.72,-178.73"/>
<text text-anchor="middle" x="978.5" y="-222.5" font-family="Arial" font-size="10.00">failure</text>
</g>
<!-- command_outcome_command_project_approve_unavailable -->
<g id="node9" class="node">
<title>command_outcome_command_project_approve_unavailable</title>
<polygon fill="#ffffff" stroke="transparent" points="1095,0 1095,-71 1179,-71 1179,0 1095,0"/>
<polygon fill="#dc2626" stroke="transparent" points="1096,-61.5 1096,-69.5 1178,-69.5 1178,-61.5 1096,-61.5"/>
<polygon fill="#fef2f2" stroke="transparent" points="1096,-30.5 1096,-61.5 1178,-61.5 1178,-30.5 1096,-30.5"/>
<text text-anchor="start" x="1100" y="-48.1" font-family="Arial" font-weight="bold" font-size="13.00">unavailable</text>
<text text-anchor="start" x="1100" y="-37.1" font-family="Arial" font-size="8.00" fill="#64748b">failure outcome</text>
<text text-anchor="start" x="1100" y="-19.5" font-family="Arial" font-weight="bold" font-size="10.00">result</text>
<text text-anchor="start" x="1100" y="-8.5" font-family="Arial" font-size="10.00">result</text>
<text text-anchor="start" x="1125" y="-8.5" font-family="Arial" font-size="8.00" fill="#94a3b8">  Problem</text>
<polygon fill="none" stroke="#dc2626" points="1095,0 1095,-71 1179,-71 1179,0 1095,0"/>
</g>
<!-- command_query_resource_command_project_approve_entity_lifecycle_transition_entity_type_project_status&#45;&gt;command_outcome_command_project_approve_unavailable -->
<g id="edge9" class="edge">
<title>command_query_resource_command_project_approve_entity_lifecycle_transition_entity_type_project_status&#45;&gt;command_outcome_command_project_approve_unavailable</title>
<path fill="none" stroke="#3f3f46" d="M825.05,-249.95C895.16,-201.59 1019.65,-115.74 1087.91,-68.66"/>
<polygon fill="#3f3f46" stroke="#3f3f46" points="1089.75,-70.8 1094.74,-63.95 1086.57,-66.19 1089.75,-70.8"/>
<text text-anchor="middle" x="978.5" y="-156.5" font-family="Arial" font-size="10.00">failure</text>
</g>
<!-- command_outcome_command_project_approve_access_denied&#45;&gt;command_outcome_command_project_approve_approved -->
<!-- command_outcome_command_project_approve_approved&#45;&gt;command_outcome_command_project_approve_authentication_required -->
<!-- command_domain_event_command_project_approve_domain_event_project_approved -->
<g id="node10" class="node">
<title>command_domain_event_command_project_approve_domain_event_project_approved</title>
<polygon fill="#ffffff" stroke="transparent" points="1327,-485 1327,-586 1550,-586 1550,-485 1327,-485"/>
<polygon fill="#4f46e5" stroke="transparent" points="1328.5,-576.5 1328.5,-584.5 1549.5,-584.5 1549.5,-576.5 1328.5,-576.5"/>
<polygon fill="#eef2ff" stroke="transparent" points="1328.5,-545.5 1328.5,-576.5 1549.5,-576.5 1549.5,-545.5 1328.5,-545.5"/>
<text text-anchor="start" x="1332.5" y="-563.1" font-family="Arial" font-weight="bold" font-size="13.00">domain_event.project.approved</text>
<text text-anchor="start" x="1332.5" y="-552.1" font-family="Arial" font-size="8.00" fill="#64748b">emitted domain event</text>
<text text-anchor="start" x="1332.5" y="-534.5" font-family="Arial" font-style="italic" font-size="10.00" fill="#3f3f46">Approval domain events carry the reviewer and</text>
<text text-anchor="start" x="1332.5" y="-523.5" font-family="Arial" font-style="italic" font-size="10.00" fill="#3f3f46">project identity needed by notification workflows.</text>
<text text-anchor="start" x="1332.5" y="-504.5" font-family="Arial" font-weight="bold" font-size="10.00">payload</text>
<text text-anchor="start" x="1332.5" y="-493.5" font-family="Arial" font-size="10.00">payload</text>
<text text-anchor="start" x="1366.5" y="-493.5" font-family="Arial" font-size="8.00" fill="#94a3b8">  schema.project.approved</text>
<polygon fill="none" stroke="#4f46e5" points="1327,-485 1327,-586 1550,-586 1550,-485 1327,-485"/>
</g>
<!-- command_outcome_command_project_approve_approved&#45;&gt;command_domain_event_command_project_approve_domain_event_project_approved -->
<g id="edge5" class="edge">
<title>command_outcome_command_project_approve_approved&#45;&gt;command_domain_event_command_project_approve_domain_event_project_approved</title>
<path fill="none" stroke="#3f3f46" stroke-width="1.2" d="M1172.65,-535.5C1208.46,-535.5 1266.38,-535.5 1318.94,-535.5"/>
<polygon fill="#3f3f46" stroke="#3f3f46" stroke-width="1.2" points="1318.99,-538.3 1326.99,-535.5 1318.99,-532.7 1318.99,-538.3"/>
<text text-anchor="middle" x="1286.5" y="-538.5" font-family="Arial" font-size="10.00">emit</text>
</g>
<!-- command_outcome_command_project_approve_authentication_required&#45;&gt;command_outcome_command_project_approve_lifecycle_transition_not_allowed -->
<!-- command_outcome_command_project_approve_lifecycle_transition_not_allowed&#45;&gt;command_outcome_command_project_approve_not_found -->
<!-- command_outcome_command_project_approve_not_found&#45;&gt;command_outcome_command_project_approve_unavailable -->
</g>
</svg>
