<svg width="825pt" height="858pt"
 viewBox="0.00 0.00 825.00 858.00" xmlns="http://www.w3.org/2000/svg" xmlns:xlink="http://www.w3.org/1999/xlink">
<g id="graph0" class="graph" transform="scale(1 1) rotate(0) translate(18 840)">
<title>composition_project_board</title>
<g id="clust1" class="cluster">
<title>cluster_layout</title>
<polygon fill="transparent" stroke="#d4d4d8" points="8,-8 8,-527 781,-527 781,-8 8,-8"/>
<text text-anchor="middle" x="394.5" y="-513.4" font-family="Arial" font-size="12.00">Layout</text>
</g>
<g id="clust4" class="cluster">
<title>cluster_sync</title>
<polygon fill="transparent" stroke="#d4d4d8" points="74.5,-535 74.5,-814 753.5,-814 753.5,-535 74.5,-535"/>
<text text-anchor="middle" x="414" y="-800.4" font-family="Arial" font-size="12.00">Sync rules</text>
</g>
<!-- layout_view_project_board -->
<g id="node1" class="node">
<title>layout_view_project_board</title>
<polygon fill="#ffffff" stroke="transparent" points="16,-158 16,-368 231,-368 231,-158 16,-158"/>
<polygon fill="#15803d" stroke="transparent" points="17.5,-357 17.5,-367 230.5,-367 230.5,-357 17.5,-357"/>
<polygon fill="#f0fdf4" stroke="transparent" points="17.5,-332 17.5,-357 230.5,-357 230.5,-332 17.5,-332"/>
<text text-anchor="start" x="22.5" y="-341.8" font-family="Arial" font-weight="bold" font-size="14.00">project.board</text>
<text text-anchor="start" x="22.5" y="-319" font-family="Arial" font-size="10.00">dashboard view</text>
<text text-anchor="start" x="22.5" y="-299" font-family="Arial" font-style="italic" font-size="10.00" fill="#3f3f46">The dispatch board composes list, detail, and</text>
<text text-anchor="start" x="22.5" y="-288" font-family="Arial" font-style="italic" font-size="10.00" fill="#3f3f46">activity panels through shared selected&#45;project</text>
<text text-anchor="start" x="22.5" y="-277" font-family="Arial" font-style="italic" font-size="10.00" fill="#3f3f46">context.</text>
<text text-anchor="start" x="23.5" y="-255" font-family="Arial" font-weight="bold" font-size="10.00">resource:</text>
<text text-anchor="start" x="67.5" y="-255" font-family="Arial" font-size="10.00">  Project</text>
<text text-anchor="start" x="22.5" y="-233" font-family="Arial" font-weight="bold" font-size="10.00">context</text>
<text text-anchor="start" x="22.5" y="-221" font-family="Arial" font-size="10.00">selected_project_id: ID</text>
<text text-anchor="start" x="22.5" y="-210" font-family="Arial" font-size="10.00">workspace_id: ID</text>
<text text-anchor="start" x="22.5" y="-190" font-family="Arial" font-weight="bold" font-size="10.00">data</text>
<text text-anchor="start" x="22.5" y="-178" font-family="Arial" font-size="10.00">capability: project.list</text>
<text text-anchor="start" x="22.5" y="-167" font-family="Arial" font-size="10.00">query: query.project.board.list</text>
<polygon fill="none" stroke="#15803d" points="16,-158 16,-368 231,-368 231,-158 16,-158"/>
</g>
<!-- layout_region_aside -->
<g id="node2" class="node">
<title>layout_region_aside</title>
<polygon fill="#ffffff" stroke="transparent" points="339,-80.5 339,-185.5 448,-185.5 448,-80.5 339,-80.5"/>
<polygon fill="#71717a" stroke="transparent" points="340.5,-174 340.5,-184 447.5,-184 447.5,-174 340.5,-174"/>
<polygon fill="#f8fafc" stroke="transparent" points="340.5,-149 340.5,-174 447.5,-174 447.5,-149 340.5,-149"/>
<text text-anchor="start" x="345.5" y="-158.8" font-family="Arial" font-weight="bold" font-size="14.00">region: aside</text>
<text text-anchor="start" x="345.5" y="-136" font-family="Arial" font-size="10.00">order: 3</text>
<text text-anchor="start" x="346.5" y="-115" font-family="Arial" font-weight="bold" font-size="10.00">element:</text>
<text text-anchor="start" x="386.5" y="-115" font-family="Arial" font-size="10.00">  aside</text>
<text text-anchor="start" x="346.5" y="-103" font-family="Arial" font-weight="bold" font-size="10.00">role:</text>
<text text-anchor="start" x="368.5" y="-103" font-family="Arial" font-size="10.00">  complementary</text>
<text text-anchor="start" x="346.5" y="-91" font-family="Arial" font-weight="bold" font-size="10.00">required:</text>
<text text-anchor="start" x="389.5" y="-91" font-family="Arial" font-size="10.00">  true</text>
<polygon fill="none" stroke="#71717a" points="339,-80.5 339,-185.5 448,-185.5 448,-80.5 339,-80.5"/>
</g>
<!-- layout_view_project_board&#45;&gt;layout_region_aside -->
<g id="edge1" class="edge">
<title>layout_view_project_board&#45;&gt;layout_region_aside</title>
<path fill="none" stroke="#3f3f46" d="M231.19,-211.25C265.24,-194.73 301.74,-177.03 331.39,-162.64"/>
<polygon fill="#3f3f46" stroke="#3f3f46" points="332.8,-165.07 338.78,-159.06 330.36,-160.03 332.8,-165.07"/>
</g>
<!-- layout_region_main -->
<g id="node3" class="node">
<title>layout_region_main</title>
<polygon fill="#ffffff" stroke="transparent" points="346.5,-210.5 346.5,-315.5 440.5,-315.5 440.5,-210.5 346.5,-210.5"/>
<polygon fill="#71717a" stroke="transparent" points="347.5,-304 347.5,-314 439.5,-314 439.5,-304 347.5,-304"/>
<polygon fill="#f8fafc" stroke="transparent" points="347.5,-279 347.5,-304 439.5,-304 439.5,-279 347.5,-279"/>
<text text-anchor="start" x="352.5" y="-288.8" font-family="Arial" font-weight="bold" font-size="14.00">region: main</text>
<text text-anchor="start" x="352.5" y="-266" font-family="Arial" font-size="10.00">order: 2</text>
<text text-anchor="start" x="353.5" y="-245" font-family="Arial" font-weight="bold" font-size="10.00">element:</text>
<text text-anchor="start" x="393.5" y="-245" font-family="Arial" font-size="10.00">  main</text>
<text text-anchor="start" x="353.5" y="-233" font-family="Arial" font-weight="bold" font-size="10.00">role:</text>
<text text-anchor="start" x="375.5" y="-233" font-family="Arial" font-size="10.00">  main</text>
<text text-anchor="start" x="353.5" y="-221" font-family="Arial" font-weight="bold" font-size="10.00">required:</text>
<text text-anchor="start" x="396.5" y="-221" font-family="Arial" font-size="10.00">  true</text>
<polygon fill="none" stroke="#71717a" points="346.5,-210.5 346.5,-315.5 440.5,-315.5 440.5,-210.5 346.5,-210.5"/>
</g>
<!-- layout_view_project_board&#45;&gt;layout_region_main -->
<g id="edge2" class="edge">
<title>layout_view_project_board&#45;&gt;layout_region_main</title>
<path fill="none" stroke="#3f3f46" d="M231.19,-263C267.91,-263 307.48,-263 338.24,-263"/>
<polygon fill="#3f3f46" stroke="#3f3f46" points="338.26,-265.8 346.26,-263 338.26,-260.2 338.26,-265.8"/>
</g>
<!-- layout_region_nav -->
<g id="node4" class="node">
<title>layout_region_nav</title>
<polygon fill="#ffffff" stroke="transparent" points="350,-340.5 350,-445.5 437,-445.5 437,-340.5 350,-340.5"/>
<polygon fill="#71717a" stroke="transparent" points="351.5,-434 351.5,-444 436.5,-444 436.5,-434 351.5,-434"/>
<polygon fill="#f8fafc" stroke="transparent" points="351.5,-409 351.5,-434 436.5,-434 436.5,-409 351.5,-409"/>
<text text-anchor="start" x="356.5" y="-418.8" font-family="Arial" font-weight="bold" font-size="14.00">region: nav</text>
<text text-anchor="start" x="356.5" y="-396" font-family="Arial" font-size="10.00">order: 1</text>
<text text-anchor="start" x="357.5" y="-375" font-family="Arial" font-weight="bold" font-size="10.00">element:</text>
<text text-anchor="start" x="397.5" y="-375" font-family="Arial" font-size="10.00">  nav</text>
<text text-anchor="start" x="357.5" y="-363" font-family="Arial" font-weight="bold" font-size="10.00">role:</text>
<text text-anchor="start" x="379.5" y="-363" font-family="Arial" font-size="10.00">  navigation</text>
<text text-anchor="start" x="357.5" y="-351" font-family="Arial" font-weight="bold" font-size="10.00">required:</text>
<text text-anchor="start" x="400.5" y="-351" font-family="Arial" font-size="10.00">  true</text>
<polygon fill="none" stroke="#71717a" points="350,-340.5 350,-445.5 437,-445.5 437,-340.5 350,-340.5"/>
</g>
<!-- layout_view_project_board&#45;&gt;layout_region_nav -->
<g id="edge3" class="edge">
<title>layout_view_project_board&#45;&gt;layout_region_nav</title>
<path fill="none" stroke="#3f3f46" d="M231.19,-314.75C269.57,-333.37 311.07,-353.5 342.36,-368.68"/>
<polygon fill="#3f3f46" stroke="#3f3f46" points="341.27,-371.26 349.69,-372.23 343.71,-366.22 341.27,-371.26"/>
</g>
<!-- layout_region_aside&#45;&gt;layout_region_main -->
<!-- layout_instance_activity -->
<g id="node5" class="node">
<title>layout_instance_activity</title>
<polygon fill="#ffffff" stroke="transparent" points="556,-16 556,-164 773,-164 773,-16 556,-16"/>
<polygon fill="#c2410c" stroke="transparent" points="557.5,-153 557.5,-163 772.5,-163 772.5,-153 557.5,-153"/>
<polygon fill="#fff7ed" stroke="transparent" points="557.5,-128 557.5,-153 772.5,-153 772.5,-128 557.5,-128"/>
<text text-anchor="start" x="562.5" y="-137.8" font-family="Arial" font-weight="bold" font-size="14.00">instance: activity</text>
<text text-anchor="start" x="562.5" y="-115" font-family="Arial" font-size="10.00">panel.project.activity</text>
<text text-anchor="start" x="563.5" y="-94" font-family="Arial" font-weight="bold" font-size="10.00">region:</text>
<text text-anchor="start" x="597.5" y="-94" font-family="Arial" font-size="10.00">  aside</text>
<text text-anchor="start" x="563.5" y="-82" font-family="Arial" font-weight="bold" font-size="10.00">initial:</text>
<text text-anchor="start" x="593.5" y="-82" font-family="Arial" font-size="10.00">  empty</text>
<text text-anchor="start" x="563.5" y="-70" font-family="Arial" font-weight="bold" font-size="10.00">context:</text>
<text text-anchor="start" x="600.5" y="-70" font-family="Arial" font-size="10.00">  project_id: $view.selected_project_id</text>
<text text-anchor="start" x="562.5" y="-48" font-family="Arial" font-weight="bold" font-size="10.00">selected</text>
<text text-anchor="start" x="562.5" y="-36" font-family="Arial" font-size="10.00">selected state: ready</text>
<text text-anchor="start" x="562.5" y="-25" font-family="Arial" font-size="10.00">when context_present: selected_project_id</text>
<polygon fill="none" stroke="#c2410c" points="556,-16 556,-164 773,-164 773,-16 556,-16"/>
</g>
<!-- layout_region_aside&#45;&gt;layout_instance_activity -->
<g id="edge4" class="edge">
<title>layout_region_aside&#45;&gt;layout_instance_activity</title>
<path fill="none" stroke="#3f3f46" d="M448.29,-124.4C476.82,-119.84 513.04,-114.05 547.59,-108.53"/>
<polygon fill="#3f3f46" stroke="#3f3f46" points="548.4,-111.23 555.86,-107.21 547.52,-105.7 548.4,-111.23"/>
</g>
<!-- layout_region_main&#45;&gt;layout_region_nav -->
<!-- layout_instance_detail -->
<g id="node6" class="node">
<title>layout_instance_detail</title>
<polygon fill="#ffffff" stroke="transparent" points="556,-189 556,-337 773,-337 773,-189 556,-189"/>
<polygon fill="#c2410c" stroke="transparent" points="557.5,-326 557.5,-336 772.5,-336 772.5,-326 557.5,-326"/>
<polygon fill="#fff7ed" stroke="transparent" points="557.5,-301 557.5,-326 772.5,-326 772.5,-301 557.5,-301"/>
<text text-anchor="start" x="562.5" y="-310.8" font-family="Arial" font-weight="bold" font-size="14.00">instance: detail</text>
<text text-anchor="start" x="562.5" y="-288" font-family="Arial" font-size="10.00">panel.project.detail</text>
<text text-anchor="start" x="563.5" y="-267" font-family="Arial" font-weight="bold" font-size="10.00">region:</text>
<text text-anchor="start" x="597.5" y="-267" font-family="Arial" font-size="10.00">  main</text>
<text text-anchor="start" x="563.5" y="-255" font-family="Arial" font-weight="bold" font-size="10.00">initial:</text>
<text text-anchor="start" x="593.5" y="-255" font-family="Arial" font-size="10.00">  none</text>
<text text-anchor="start" x="563.5" y="-243" font-family="Arial" font-weight="bold" font-size="10.00">context:</text>
<text text-anchor="start" x="600.5" y="-243" font-family="Arial" font-size="10.00">  project_id: $view.selected_project_id</text>
<text text-anchor="start" x="562.5" y="-221" font-family="Arial" font-weight="bold" font-size="10.00">selected</text>
<text text-anchor="start" x="562.5" y="-209" font-family="Arial" font-size="10.00">selected state: loading</text>
<text text-anchor="start" x="562.5" y="-198" font-family="Arial" font-size="10.00">when context_present: selected_project_id</text>
<polygon fill="none" stroke="#c2410c" points="556,-189 556,-337 773,-337 773,-189 556,-189"/>
</g>
<!-- layout_region_main&#45;&gt;layout_instance_detail -->
<g id="edge5" class="edge">
<title>layout_region_main&#45;&gt;layout_instance_detail</title>
<path fill="none" stroke="#3f3f46" d="M440.74,-263C470.33,-263 510.13,-263 547.9,-263"/>
<polygon fill="#3f3f46" stroke="#3f3f46" points="547.92,-265.8 555.92,-263 547.92,-260.2 547.92,-265.8"/>
</g>
<!-- layout_instance_list -->
<g id="node7" class="node">
<title>layout_instance_list</title>
<polygon fill="#ffffff" stroke="transparent" points="557.5,-362 557.5,-498 771.5,-498 771.5,-362 557.5,-362"/>
<polygon fill="#c2410c" stroke="transparent" points="558.5,-487 558.5,-497 770.5,-497 770.5,-487 558.5,-487"/>
<polygon fill="#fff7ed" stroke="transparent" points="558.5,-462 558.5,-487 770.5,-487 770.5,-462 558.5,-462"/>
<text text-anchor="start" x="563.5" y="-471.8" font-family="Arial" font-weight="bold" font-size="14.00">instance: list</text>
<text text-anchor="start" x="563.5" y="-449" font-family="Arial" font-size="10.00">panel.project.list</text>
<text text-anchor="start" x="564.5" y="-428" font-family="Arial" font-weight="bold" font-size="10.00">region:</text>
<text text-anchor="start" x="598.5" y="-428" font-family="Arial" font-size="10.00">  nav</text>
<text text-anchor="start" x="564.5" y="-416" font-family="Arial" font-weight="bold" font-size="10.00">initial:</text>
<text text-anchor="start" x="594.5" y="-416" font-family="Arial" font-size="10.00">  loading</text>
<text text-anchor="start" x="563.5" y="-394" font-family="Arial" font-weight="bold" font-size="10.00">context</text>
<text text-anchor="start" x="563.5" y="-382" font-family="Arial" font-size="10.00">selected_project_id: $view.selected_project_id</text>
<text text-anchor="start" x="563.5" y="-371" font-family="Arial" font-size="10.00">workspace_id: $view.workspace_id</text>
<polygon fill="none" stroke="#c2410c" points="557.5,-362 557.5,-498 771.5,-498 771.5,-362 557.5,-362"/>
</g>
<!-- layout_region_nav&#45;&gt;layout_instance_list -->
<g id="edge6" class="edge">
<title>layout_region_nav&#45;&gt;layout_instance_list</title>
<path fill="none" stroke="#3f3f46" d="M437.12,-398.86C467.28,-403.01 509.23,-408.78 548.83,-414.23"/>
<polygon fill="#3f3f46" stroke="#3f3f46" points="548.93,-417.07 557.24,-415.38 549.7,-411.52 548.93,-417.07"/>
</g>
<!-- layout_instance_activity&#45;&gt;layout_instance_detail -->
<!-- layout_instance_detail&#45;&gt;layout_instance_list -->
<!-- sync_source_select_project_updates_panels -->
<g id="node8" class="node">
<title>sync_source_select_project_updates_panels</title>
<polygon fill="#ffffff" stroke="transparent" points="82.5,-629 82.5,-687 164.5,-687 164.5,-629 82.5,-629"/>
<polygon fill="#4f46e5" stroke="transparent" points="83.5,-676 83.5,-686 163.5,-686 163.5,-676 83.5,-676"/>
<polygon fill="#eef2ff" stroke="transparent" points="83.5,-651 83.5,-676 163.5,-676 163.5,-651 83.5,-651"/>
<text text-anchor="start" x="88.5" y="-660.8" font-family="Arial" font-weight="bold" font-size="14.00">list emits</text>
<text text-anchor="start" x="88.5" y="-638" font-family="Arial" font-size="10.00">project.selected</text>
<polygon fill="none" stroke="#4f46e5" points="82.5,-629 82.5,-687 164.5,-687 164.5,-629 82.5,-629"/>
</g>
<!-- sync_rule_select_project_updates_panels -->
<g id="node9" class="node">
<title>sync_rule_select_project_updates_panels</title>
<polygon fill="#ffffff" stroke="transparent" points="287,-580.5 287,-735.5 500,-735.5 500,-580.5 287,-580.5"/>
<polygon fill="#a16207" stroke="transparent" points="288.5,-724 288.5,-734 499.5,-734 499.5,-724 288.5,-724"/>
<polygon fill="#fefce8" stroke="transparent" points="288.5,-699 288.5,-724 499.5,-724 499.5,-699 288.5,-699"/>
<text text-anchor="start" x="293.5" y="-708.8" font-family="Arial" font-weight="bold" font-size="14.00">select_project_updates_panels</text>
<text text-anchor="start" x="293.5" y="-686" font-family="Arial" font-size="10.00">sync rule</text>
<text text-anchor="start" x="293.5" y="-666" font-family="Arial" font-weight="bold" font-size="10.00">when</text>
<text text-anchor="start" x="293.5" y="-654" font-family="Arial" font-size="10.00">panel: list</text>
<text text-anchor="start" x="293.5" y="-643" font-family="Arial" font-size="10.00">emits: project.selected</text>
<text text-anchor="start" x="293.5" y="-623" font-family="Arial" font-weight="bold" font-size="10.00">do</text>
<text text-anchor="start" x="293.5" y="-611" font-family="Arial" font-size="10.00">set selected_project_id from $event.project_id</text>
<text text-anchor="start" x="293.5" y="-600" font-family="Arial" font-size="10.00">send project.selection_changed to detail</text>
<text text-anchor="start" x="293.5" y="-589" font-family="Arial" font-size="10.00">send project.selection_changed to activity</text>
<polygon fill="none" stroke="#a16207" points="287,-580.5 287,-735.5 500,-735.5 500,-580.5 287,-580.5"/>
</g>
<!-- sync_source_select_project_updates_panels&#45;&gt;sync_rule_select_project_updates_panels -->
<g id="edge11" class="edge">
<title>sync_source_select_project_updates_panels&#45;&gt;sync_rule_select_project_updates_panels</title>
<path fill="none" stroke="#3f3f46" d="M164.62,-658C194.94,-658 238.16,-658 278.81,-658"/>
<polygon fill="#3f3f46" stroke="#3f3f46" points="278.9,-660.8 286.9,-658 278.9,-655.2 278.9,-660.8"/>
</g>
<!-- sync_action_select_project_updates_panels_2 -->
<g id="node10" class="node">
<title>sync_action_select_project_updates_panels_2</title>
<polygon fill="#ffffff" stroke="transparent" points="583.5,-543 583.5,-603 745.5,-603 745.5,-543 583.5,-543"/>
<polygon fill="#c2410c" stroke="transparent" points="584.5,-592 584.5,-602 744.5,-602 744.5,-592 584.5,-592"/>
<polygon fill="#fff7ed" stroke="transparent" points="584.5,-567 584.5,-592 744.5,-592 744.5,-567 584.5,-567"/>
<text text-anchor="start" x="589.5" y="-576.8" font-family="Arial" font-weight="bold" font-size="14.00">send to activity</text>
<text text-anchor="start" x="590.5" y="-554" font-family="Arial" font-weight="bold" font-size="10.00">event:</text>
<text text-anchor="start" x="618.5" y="-554" font-family="Arial" font-size="10.00">  project.selection_changed</text>
<polygon fill="none" stroke="#c2410c" points="583.5,-543 583.5,-603 745.5,-603 745.5,-543 583.5,-543"/>
</g>
<!-- sync_rule_select_project_updates_panels&#45;&gt;sync_action_select_project_updates_panels_2 -->
<g id="edge12" class="edge">
<title>sync_rule_select_project_updates_panels&#45;&gt;sync_action_select_project_updates_panels_2</title>
<path fill="none" stroke="#3f3f46" d="M500.04,-624.65C525.01,-616.76 551.38,-608.43 575.48,-600.81"/>
<polygon fill="#3f3f46" stroke="#3f3f46" points="576.43,-603.45 583.22,-598.37 574.75,-598.11 576.43,-603.45"/>
</g>
<!-- sync_action_select_project_updates_panels_1 -->
<g id="node11" class="node">
<title>sync_action_select_project_updates_panels_1</title>
<polygon fill="#ffffff" stroke="transparent" points="583.5,-628 583.5,-688 745.5,-688 745.5,-628 583.5,-628"/>
<polygon fill="#c2410c" stroke="transparent" points="584.5,-677 584.5,-687 744.5,-687 744.5,-677 584.5,-677"/>
<polygon fill="#fff7ed" stroke="transparent" points="584.5,-652 584.5,-677 744.5,-677 744.5,-652 584.5,-652"/>
<text text-anchor="start" x="589.5" y="-661.8" font-family="Arial" font-weight="bold" font-size="14.00">send to detail</text>
<text text-anchor="start" x="590.5" y="-639" font-family="Arial" font-weight="bold" font-size="10.00">event:</text>
<text text-anchor="start" x="618.5" y="-639" font-family="Arial" font-size="10.00">  project.selection_changed</text>
<polygon fill="none" stroke="#c2410c" points="583.5,-628 583.5,-688 745.5,-688 745.5,-628 583.5,-628"/>
</g>
<!-- sync_rule_select_project_updates_panels&#45;&gt;sync_action_select_project_updates_panels_1 -->
<g id="edge13" class="edge">
<title>sync_rule_select_project_updates_panels&#45;&gt;sync_action_select_project_updates_panels_1</title>
<path fill="none" stroke="#3f3f46" d="M500.04,-658C524.91,-658 551.15,-658 575.17,-658"/>
<polygon fill="#3f3f46" stroke="#3f3f46" points="575.22,-660.8 583.22,-658 575.22,-655.2 575.22,-660.8"/>
</g>
<!-- sync_action_select_project_updates_panels_0 -->
<g id="node12" class="node">
<title>sync_action_select_project_updates_panels_0</title>
<polygon fill="#ffffff" stroke="transparent" points="593.5,-713 593.5,-785 735.5,-785 735.5,-713 593.5,-713"/>
<polygon fill="#15803d" stroke="transparent" points="594.5,-774 594.5,-784 734.5,-784 734.5,-774 594.5,-774"/>
<polygon fill="#f0fdf4" stroke="transparent" points="594.5,-749 594.5,-774 734.5,-774 734.5,-749 594.5,-749"/>
<text text-anchor="start" x="599.5" y="-758.8" font-family="Arial" font-weight="bold" font-size="14.00">set view context</text>
<text text-anchor="start" x="600.5" y="-736" font-family="Arial" font-weight="bold" font-size="10.00">context:</text>
<text text-anchor="start" x="637.5" y="-736" font-family="Arial" font-size="10.00">  selected_project_id</text>
<text text-anchor="start" x="600.5" y="-724" font-family="Arial" font-weight="bold" font-size="10.00">from:</text>
<text text-anchor="start" x="625.5" y="-724" font-family="Arial" font-size="10.00">  $event.project_id</text>
<polygon fill="none" stroke="#15803d" points="593.5,-713 593.5,-785 735.5,-785 735.5,-713 593.5,-713"/>
</g>
<!-- sync_rule_select_project_updates_panels&#45;&gt;sync_action_select_project_updates_panels_0 -->
<g id="edge14" class="edge">
<title>sync_rule_select_project_updates_panels&#45;&gt;sync_action_select_project_updates_panels_0</title>
<path fill="none" stroke="#3f3f46" d="M500.04,-693.7C528.58,-703.36 558.94,-713.63 585.65,-722.66"/>
<polygon fill="#3f3f46" stroke="#3f3f46" points="584.97,-725.39 593.45,-725.3 586.77,-720.09 584.97,-725.39"/>
</g>
<!-- sync_action_select_project_updates_panels_2&#45;&gt;sync_action_select_project_updates_panels_1 -->
<!-- sync_action_select_project_updates_panels_1&#45;&gt;sync_action_select_project_updates_panels_0 -->
</g>
</svg>
