<svg width="993pt" height="312pt"
 viewBox="0.00 0.00 993.00 312.00" xmlns="http://www.w3.org/2000/svg" xmlns:xlink="http://www.w3.org/1999/xlink">
<g id="graph0" class="graph" transform="scale(1 1) rotate(0) translate(18 294)">
<title>entrypoint_web_project_board</title>
<!-- entry_start -->
<g id="node1" class="node">
<title>entry_start</title>
<ellipse fill="none" stroke="#0891b2" cx="21" cy="-138" rx="21" ry="21"/>
<text text-anchor="middle" x="21" y="-135.8" font-family="Arial" font-size="9.00" fill="#155e75">entry</text>
</g>
<!-- entrypoint_web_project_board -->
<g id="node2" class="node">
<title>entrypoint_web_project_board</title>
<polygon fill="#ffffff" stroke="transparent" points="103,-97.5 103,-178.5 356,-178.5 356,-97.5 103,-97.5"/>
<polygon fill="#0891b2" stroke="transparent" points="104.5,-169 104.5,-177 355.5,-177 355.5,-169 104.5,-169"/>
<polygon fill="#ecfeff" stroke="transparent" points="104.5,-138 104.5,-169 355.5,-169 355.5,-138 104.5,-138"/>
<text text-anchor="start" x="108.5" y="-155.6" font-family="Arial" font-weight="bold" font-size="13.00">/workspaces/{workspace_id}/dispatch</text>
<text text-anchor="start" x="108.5" y="-144.6" font-family="Arial" font-size="8.00" fill="#64748b">web entry</text>
<text text-anchor="start" x="108.5" y="-127" font-family="Arial" font-style="italic" font-size="10.00" fill="#3f3f46">Web entry for the dispatch board.</text>
<text text-anchor="start" x="109.5" y="-107" font-family="Arial" font-weight="bold" font-size="10.00">route:</text>
<text text-anchor="start" x="137.5" y="-107" font-family="Arial" font-size="10.00">  route.fsm.project.board</text>
<polygon fill="none" stroke="#0891b2" points="103,-97.5 103,-178.5 356,-178.5 356,-97.5 103,-97.5"/>
</g>
<!-- entry_start&#45;&gt;entrypoint_web_project_board -->
<g id="edge1" class="edge">
<title>entry_start&#45;&gt;entrypoint_web_project_board</title>
<path fill="none" stroke="#3f3f46" d="M42.18,-138C55.44,-138 74.06,-138 94.45,-138"/>
<polygon fill="#3f3f46" stroke="#3f3f46" points="94.66,-140.8 102.66,-138 94.66,-135.2 94.66,-140.8"/>
</g>
<!-- entrypoint_input_web_project_board -->
<g id="node3" class="node">
<title>entrypoint_input_web_project_board</title>
<polygon fill="#ffffff" stroke="transparent" points="417,-102.5 417,-173.5 501,-173.5 501,-102.5 417,-102.5"/>
<polygon fill="#64748b" stroke="transparent" points="418,-164 418,-172 500,-172 500,-164 418,-164"/>
<polygon fill="#f8fafc" stroke="transparent" points="418,-133 418,-164 500,-164 500,-133 418,-133"/>
<text text-anchor="start" x="422" y="-150.6" font-family="Arial" font-weight="bold" font-size="13.00">entry input</text>
<text text-anchor="start" x="422" y="-139.6" font-family="Arial" font-size="8.00" fill="#64748b">external data</text>
<text text-anchor="start" x="422" y="-122" font-family="Arial" font-weight="bold" font-size="10.00">params</text>
<text text-anchor="start" x="422" y="-111" font-family="Arial" font-size="10.00">workspace_id</text>
<text text-anchor="start" x="483" y="-111" font-family="Arial" font-size="8.00" fill="#94a3b8">  ID</text>
<polygon fill="none" stroke="#64748b" points="417,-102.5 417,-173.5 501,-173.5 501,-102.5 417,-102.5"/>
</g>
<!-- entrypoint_web_project_board&#45;&gt;entrypoint_input_web_project_board -->
<g id="edge2" class="edge">
<title>entrypoint_web_project_board&#45;&gt;entrypoint_input_web_project_board</title>
<path fill="none" stroke="#3f3f46" d="M356.23,-138C374.61,-138 392.57,-138 408.16,-138"/>
<polygon fill="#3f3f46" stroke="#3f3f46" points="408.56,-140.8 416.56,-138 408.56,-135.2 408.56,-140.8"/>
</g>
<!-- entrypoint_target_fsm_project_board -->
<g id="node4" class="node">
<title>entrypoint_target_fsm_project_board</title>
<polygon fill="#ffffff" stroke="transparent" points="562,-62.5 562,-213.5 773,-213.5 773,-62.5 562,-62.5"/>
<polygon fill="#047857" stroke="transparent" points="563.5,-204 563.5,-212 772.5,-212 772.5,-204 563.5,-204"/>
<polygon fill="#ecfdf5" stroke="transparent" points="563.5,-173 563.5,-204 772.5,-204 772.5,-173 563.5,-173"/>
<text text-anchor="start" x="567.5" y="-190.6" font-family="Arial" font-weight="bold" font-size="13.00">fsm.project.board</text>
<text text-anchor="start" x="567.5" y="-179.6" font-family="Arial" font-size="8.00" fill="#64748b">target FSM (html)</text>
<text text-anchor="start" x="567.5" y="-162" font-family="Arial" font-style="italic" font-size="10.00" fill="#3f3f46">The dispatch board composes list, detail, and</text>
<text text-anchor="start" x="567.5" y="-151" font-family="Arial" font-style="italic" font-size="10.00" fill="#3f3f46">activity FSMs through shared selected&#45;project</text>
<text text-anchor="start" x="567.5" y="-140" font-family="Arial" font-style="italic" font-size="10.00" fill="#3f3f46">context.</text>
<text text-anchor="start" x="568.5" y="-120" font-family="Arial" font-weight="bold" font-size="10.00">input:</text>
<text text-anchor="start" x="596.5" y="-120" font-family="Arial" font-size="10.00">  workspace_id</text>
<text text-anchor="start" x="663.5" y="-120" font-family="Arial" font-size="8.00" fill="#94a3b8">  ID</text>
<text text-anchor="start" x="568.5" y="-108" font-family="Arial" font-weight="bold" font-size="10.00">query:</text>
<text text-anchor="start" x="598.5" y="-108" font-family="Arial" font-size="10.00">  query.project.board.list</text>
<text text-anchor="start" x="568.5" y="-96" font-family="Arial" font-weight="bold" font-size="10.00">load:</text>
<text text-anchor="start" x="592.5" y="-96" font-family="Arial" font-size="10.00">  project.list</text>
<text text-anchor="start" x="644.5" y="-96" font-family="Arial" font-size="8.00" fill="#94a3b8">  list[Project]</text>
<text text-anchor="start" x="568.5" y="-84" font-family="Arial" font-weight="bold" font-size="10.00">resource:</text>
<text text-anchor="start" x="612.5" y="-84" font-family="Arial" font-size="10.00">  Project</text>
<text text-anchor="start" x="568.5" y="-72" font-family="Arial" font-weight="bold" font-size="10.00">sync:</text>
<text text-anchor="start" x="593.5" y="-72" font-family="Arial" font-size="10.00">  select_project_updates_fsms</text>
<polygon fill="none" stroke="#047857" points="562,-62.5 562,-213.5 773,-213.5 773,-62.5 562,-62.5"/>
</g>
<!-- entrypoint_input_web_project_board&#45;&gt;entrypoint_target_fsm_project_board -->
<g id="edge3" class="edge">
<title>entrypoint_input_web_project_board&#45;&gt;entrypoint_target_fsm_project_board</title>
<path fill="none" stroke="#3f3f46" d="M501.29,-138C516.74,-138 535.12,-138 553.92,-138"/>
<polygon fill="#3f3f46" stroke="#3f3f46" points="554,-140.8 562,-138 554,-135.2 554,-140.8"/>
</g>
<!-- entrypoint_mount_fsm_project_board_ready_list -->
<g id="node5" class="node">
<title>entrypoint_mount_fsm_project_board_ready_list</title>
<polygon fill="#ffffff" stroke="transparent" points="843.5,-202 843.5,-276 947.5,-276 947.5,-202 843.5,-202"/>
<polygon fill="#047857" stroke="transparent" points="844.5,-267 844.5,-275 946.5,-275 946.5,-267 844.5,-267"/>
<polygon fill="#ecfdf5" stroke="transparent" points="844.5,-236 844.5,-267 946.5,-267 946.5,-236 844.5,-236"/>
<text text-anchor="start" x="848.5" y="-253.6" font-family="Arial" font-weight="bold" font-size="13.00">list</text>
<text text-anchor="start" x="848.5" y="-242.6" font-family="Arial" font-size="8.00" fill="#64748b">nav mount</text>
<text text-anchor="start" x="849.5" y="-224" font-family="Arial" font-weight="bold" font-size="10.00">fsm:</text>
<text text-anchor="start" x="870.5" y="-224" font-family="Arial" font-size="10.00">  fsm.project.list</text>
<text text-anchor="start" x="849.5" y="-212" font-family="Arial" font-weight="bold" font-size="10.00">initial:</text>
<text text-anchor="start" x="879.5" y="-212" font-family="Arial" font-size="10.00">  loading</text>
<polygon fill="none" stroke="#047857" points="843.5,-202 843.5,-276 947.5,-276 947.5,-202 843.5,-202"/>
</g>
<!-- entrypoint_target_fsm_project_board&#45;&gt;entrypoint_mount_fsm_project_board_ready_list -->
<g id="edge4" class="edge">
<title>entrypoint_target_fsm_project_board&#45;&gt;entrypoint_mount_fsm_project_board_ready_list</title>
<path fill="none" stroke="#3f3f46" d="M773.23,-184.8C794.74,-194.42 816.65,-204.21 835.82,-212.78"/>
<polygon fill="#3f3f46" stroke="#3f3f46" points="834.86,-215.41 843.3,-216.12 837.14,-210.3 834.86,-215.41"/>
</g>
<!-- entrypoint_mount_fsm_project_board_ready_detail -->
<g id="node6" class="node">
<title>entrypoint_mount_fsm_project_board_ready_detail</title>
<polygon fill="#ffffff" stroke="transparent" points="838,-101 838,-175 953,-175 953,-101 838,-101"/>
<polygon fill="#047857" stroke="transparent" points="839.5,-166 839.5,-174 952.5,-174 952.5,-166 839.5,-166"/>
<polygon fill="#ecfdf5" stroke="transparent" points="839.5,-135 839.5,-166 952.5,-166 952.5,-135 839.5,-135"/>
<text text-anchor="start" x="843.5" y="-152.6" font-family="Arial" font-weight="bold" font-size="13.00">detail</text>
<text text-anchor="start" x="843.5" y="-141.6" font-family="Arial" font-size="8.00" fill="#64748b">main mount</text>
<text text-anchor="start" x="844.5" y="-123" font-family="Arial" font-weight="bold" font-size="10.00">fsm:</text>
<text text-anchor="start" x="865.5" y="-123" font-family="Arial" font-size="10.00">  fsm.project.detail</text>
<text text-anchor="start" x="844.5" y="-111" font-family="Arial" font-weight="bold" font-size="10.00">initial:</text>
<text text-anchor="start" x="874.5" y="-111" font-family="Arial" font-size="10.00">  none</text>
<polygon fill="none" stroke="#047857" points="838,-101 838,-175 953,-175 953,-101 838,-101"/>
</g>
<!-- entrypoint_target_fsm_project_board&#45;&gt;entrypoint_mount_fsm_project_board_ready_detail -->
<g id="edge5" class="edge">
<title>entrypoint_target_fsm_project_board&#45;&gt;entrypoint_mount_fsm_project_board_ready_detail</title>
<path fill="none" stroke="#3f3f46" d="M773.23,-138C792.38,-138 811.85,-138 829.42,-138"/>
<polygon fill="#3f3f46" stroke="#3f3f46" points="829.89,-140.8 837.89,-138 829.89,-135.2 829.89,-140.8"/>
</g>
<!-- entrypoint_mount_fsm_project_board_ready_activity -->
<g id="node7" class="node">
<title>entrypoint_mount_fsm_project_board_ready_activity</title>
<polygon fill="#ffffff" stroke="transparent" points="834,0 834,-74 957,-74 957,0 834,0"/>
<polygon fill="#047857" stroke="transparent" points="835.5,-65 835.5,-73 956.5,-73 956.5,-65 835.5,-65"/>
<polygon fill="#ecfdf5" stroke="transparent" points="835.5,-34 835.5,-65 956.5,-65 956.5,-34 835.5,-34"/>
<text text-anchor="start" x="839.5" y="-51.6" font-family="Arial" font-weight="bold" font-size="13.00">activity</text>
<text text-anchor="start" x="839.5" y="-40.6" font-family="Arial" font-size="8.00" fill="#64748b">aside mount</text>
<text text-anchor="start" x="840.5" y="-22" font-family="Arial" font-weight="bold" font-size="10.00">fsm:</text>
<text text-anchor="start" x="861.5" y="-22" font-family="Arial" font-size="10.00">  fsm.project.activity</text>
<text text-anchor="start" x="840.5" y="-10" font-family="Arial" font-weight="bold" font-size="10.00">initial:</text>
<text text-anchor="start" x="870.5" y="-10" font-family="Arial" font-size="10.00">  empty</text>
<polygon fill="none" stroke="#047857" points="834,0 834,-74 957,-74 957,0 834,0"/>
</g>
<!-- entrypoint_target_fsm_project_board&#45;&gt;entrypoint_mount_fsm_project_board_ready_activity -->
<g id="edge6" class="edge">
<title>entrypoint_target_fsm_project_board&#45;&gt;entrypoint_mount_fsm_project_board_ready_activity</title>
<path fill="none" stroke="#3f3f46" d="M773.23,-91.2C791.25,-83.14 809.56,-74.96 826.3,-67.48"/>
<polygon fill="#3f3f46" stroke="#3f3f46" points="827.71,-69.91 833.87,-64.09 825.43,-64.8 827.71,-69.91"/>
</g>
<!-- entrypoint_mount_fsm_project_board_ready_list&#45;&gt;entrypoint_mount_fsm_project_board_ready_detail -->
<!-- entrypoint_mount_fsm_project_board_ready_detail&#45;&gt;entrypoint_mount_fsm_project_board_ready_activity -->
</g>
</svg>
