<svg width="809pt" height="187pt"
 viewBox="0.00 0.00 809.00 187.00" xmlns="http://www.w3.org/2000/svg" xmlns:xlink="http://www.w3.org/1999/xlink">
<g id="graph0" class="graph" transform="scale(1 1) rotate(0) translate(18 169)">
<title>entrypoint_web_project_board</title>
<!-- entry_start -->
<g id="node1" class="node">
<title>entry_start</title>
<ellipse fill="none" stroke="#0891b2" cx="21" cy="-75.5" rx="21" ry="21"/>
<text text-anchor="middle" x="21" y="-73.3" font-family="Arial" font-size="9.00" fill="#155e75">entry</text>
</g>
<!-- entrypoint_web_project_board -->
<g id="node2" class="node">
<title>entrypoint_web_project_board</title>
<polygon fill="#ffffff" stroke="transparent" points="103,-35 103,-116 356,-116 356,-35 103,-35"/>
<polygon fill="#0891b2" stroke="transparent" points="104.5,-106.5 104.5,-114.5 355.5,-114.5 355.5,-106.5 104.5,-106.5"/>
<polygon fill="#ecfeff" stroke="transparent" points="104.5,-75.5 104.5,-106.5 355.5,-106.5 355.5,-75.5 104.5,-75.5"/>
<text text-anchor="start" x="108.5" y="-93.1" font-family="Arial" font-weight="bold" font-size="13.00">/workspaces/{workspace_id}/dispatch</text>
<text text-anchor="start" x="108.5" y="-82.1" font-family="Arial" font-size="8.00" fill="#64748b">web entry</text>
<text text-anchor="start" x="108.5" y="-64.5" font-family="Arial" font-style="italic" font-size="10.00" fill="#3f3f46">Web entry for the dispatch board.</text>
<text text-anchor="start" x="109.5" y="-44.5" font-family="Arial" font-weight="bold" font-size="10.00">route:</text>
<text text-anchor="start" x="137.5" y="-44.5" font-family="Arial" font-size="10.00">  route.fsm.project.board</text>
<polygon fill="none" stroke="#0891b2" points="103,-35 103,-116 356,-116 356,-35 103,-35"/>
</g>
<!-- entry_start&#45;&gt;entrypoint_web_project_board -->
<g id="edge1" class="edge">
<title>entry_start&#45;&gt;entrypoint_web_project_board</title>
<path fill="none" stroke="#3f3f46" d="M42.18,-75.5C55.44,-75.5 74.06,-75.5 94.45,-75.5"/>
<polygon fill="#3f3f46" stroke="#3f3f46" points="94.66,-78.3 102.66,-75.5 94.66,-72.7 94.66,-78.3"/>
</g>
<!-- entrypoint_input_web_project_board -->
<g id="node3" class="node">
<title>entrypoint_input_web_project_board</title>
<polygon fill="#ffffff" stroke="transparent" points="417,-40 417,-111 501,-111 501,-40 417,-40"/>
<polygon fill="#64748b" stroke="transparent" points="418,-101.5 418,-109.5 500,-109.5 500,-101.5 418,-101.5"/>
<polygon fill="#f8fafc" stroke="transparent" points="418,-70.5 418,-101.5 500,-101.5 500,-70.5 418,-70.5"/>
<text text-anchor="start" x="422" y="-88.1" font-family="Arial" font-weight="bold" font-size="13.00">request</text>
<text text-anchor="start" x="422" y="-77.1" font-family="Arial" font-size="8.00" fill="#64748b">external data</text>
<text text-anchor="start" x="422" y="-59.5" font-family="Arial" font-weight="bold" font-size="10.00">params</text>
<text text-anchor="start" x="422" y="-48.5" font-family="Arial" font-size="10.00">workspace_id</text>
<text text-anchor="start" x="483" y="-48.5" font-family="Arial" font-size="8.00" fill="#94a3b8">  ID</text>
<polygon fill="none" stroke="#64748b" points="417,-40 417,-111 501,-111 501,-40 417,-40"/>
</g>
<!-- entrypoint_web_project_board&#45;&gt;entrypoint_input_web_project_board -->
<g id="edge2" class="edge">
<title>entrypoint_web_project_board&#45;&gt;entrypoint_input_web_project_board</title>
<path fill="none" stroke="#3f3f46" d="M356.23,-75.5C374.61,-75.5 392.57,-75.5 408.16,-75.5"/>
<polygon fill="#3f3f46" stroke="#3f3f46" points="408.56,-78.3 416.56,-75.5 408.56,-72.7 408.56,-78.3"/>
</g>
<!-- entrypoint_target_fsm_project_board -->
<g id="node4" class="node">
<title>entrypoint_target_fsm_project_board</title>
<polygon fill="#ffffff" stroke="transparent" points="562,0 562,-151 773,-151 773,0 562,0"/>
<polygon fill="#047857" stroke="transparent" points="563.5,-141.5 563.5,-149.5 772.5,-149.5 772.5,-141.5 563.5,-141.5"/>
<polygon fill="#ecfdf5" stroke="transparent" points="563.5,-110.5 563.5,-141.5 772.5,-141.5 772.5,-110.5 563.5,-110.5"/>
<text text-anchor="start" x="567.5" y="-128.1" font-family="Arial" font-weight="bold" font-size="13.00">fsm.project.board</text>
<text text-anchor="start" x="567.5" y="-117.1" font-family="Arial" font-size="8.00" fill="#64748b">target FSM (html)</text>
<text text-anchor="start" x="567.5" y="-99.5" font-family="Arial" font-style="italic" font-size="10.00" fill="#3f3f46">The dispatch board composes list, detail, and</text>
<text text-anchor="start" x="567.5" y="-88.5" font-family="Arial" font-style="italic" font-size="10.00" fill="#3f3f46">activity FSMs through shared selected&#45;project</text>
<text text-anchor="start" x="567.5" y="-77.5" font-family="Arial" font-style="italic" font-size="10.00" fill="#3f3f46">context.</text>
<text text-anchor="start" x="568.5" y="-57.5" font-family="Arial" font-weight="bold" font-size="10.00">input:</text>
<text text-anchor="start" x="596.5" y="-57.5" font-family="Arial" font-size="10.00">  workspace_id</text>
<text text-anchor="start" x="663.5" y="-57.5" font-family="Arial" font-size="8.00" fill="#94a3b8">  ID</text>
<text text-anchor="start" x="568.5" y="-45.5" font-family="Arial" font-weight="bold" font-size="10.00">query:</text>
<text text-anchor="start" x="598.5" y="-45.5" font-family="Arial" font-size="10.00">  query.project.board.list</text>
<text text-anchor="start" x="568.5" y="-33.5" font-family="Arial" font-weight="bold" font-size="10.00">load:</text>
<text text-anchor="start" x="592.5" y="-33.5" font-family="Arial" font-size="10.00">  project.list</text>
<text text-anchor="start" x="644.5" y="-33.5" font-family="Arial" font-size="8.00" fill="#94a3b8">  list[Project]</text>
<text text-anchor="start" x="568.5" y="-21.5" font-family="Arial" font-weight="bold" font-size="10.00">model:</text>
<text text-anchor="start" x="601.5" y="-21.5" font-family="Arial" font-size="10.00">  Project</text>
<text text-anchor="start" x="568.5" y="-9.5" font-family="Arial" font-weight="bold" font-size="10.00">sync:</text>
<text text-anchor="start" x="593.5" y="-9.5" font-family="Arial" font-size="10.00">  select_project_updates_fsms</text>
<polygon fill="none" stroke="#047857" points="562,0 562,-151 773,-151 773,0 562,0"/>
</g>
<!-- entrypoint_input_web_project_board&#45;&gt;entrypoint_target_fsm_project_board -->
<g id="edge3" class="edge">
<title>entrypoint_input_web_project_board&#45;&gt;entrypoint_target_fsm_project_board</title>
<path fill="none" stroke="#3f3f46" d="M501.29,-75.5C516.74,-75.5 535.12,-75.5 553.92,-75.5"/>
<polygon fill="#3f3f46" stroke="#3f3f46" points="554,-78.3 562,-75.5 554,-72.7 554,-78.3"/>
</g>
</g>
</svg>
