<svg width="1149pt" height="371pt"
 viewBox="0.00 0.00 1149.00 371.00" xmlns="http://www.w3.org/2000/svg" xmlns:xlink="http://www.w3.org/1999/xlink">
<!-- pyspec-contract-input-sha256: 057ce1eccfd451e4b6f0466d6f78e8b8debb322fde4ba1dffae6ef850a3eaae5 -->
<g id="graph0" class="graph" transform="scale(1 1) rotate(0) translate(18 353)">
<title>entrypoint_entry_point_api_project_create</title>
<!-- entry_start -->
<g id="node1" class="node">
<title>entry_start</title>
<ellipse fill="none" stroke="#0891b2" cx="21" cy="-167.5" rx="21" ry="21"/>
<text text-anchor="middle" x="21" y="-165.3" font-family="Arial" font-size="9.00" fill="#155e75">entry</text>
</g>
<!-- entrypoint_entry_point_api_project_create -->
<g id="node2" class="node">
<title>entrypoint_entry_point_api_project_create</title>
<polygon fill="#ffffff" stroke="transparent" points="103,-121 103,-214 393,-214 393,-121 103,-121"/>
<polygon fill="#0891b2" stroke="transparent" points="104,-204.5 104,-212.5 392,-212.5 392,-204.5 104,-204.5"/>
<polygon fill="#ecfeff" stroke="transparent" points="104,-173.5 104,-204.5 392,-204.5 392,-173.5 104,-173.5"/>
<text text-anchor="start" x="108" y="-191.1" font-family="Arial" font-weight="bold" font-size="13.00">POST /workspaces/{workspace_id}/projects</text>
<text text-anchor="start" x="108" y="-180.1" font-family="Arial" font-size="8.00" fill="#64748b">http entry point</text>
<text text-anchor="start" x="108" y="-162.5" font-family="Arial" font-style="italic" font-size="10.00" fill="#3f3f46">HTTP endpoint for creating a dispatch project.</text>
<text text-anchor="start" x="109" y="-142.5" font-family="Arial" font-weight="bold" font-size="10.00">endpoint:</text>
<text text-anchor="start" x="154" y="-142.5" font-family="Arial" font-size="10.00">  endpoint.project.create</text>
<text text-anchor="start" x="109" y="-130.5" font-family="Arial" font-weight="bold" font-size="10.00">authorization_policy:</text>
<text text-anchor="start" x="208" y="-130.5" font-family="Arial" font-size="10.00">  policy.project.create</text>
<polygon fill="none" stroke="#0891b2" points="103,-121 103,-214 393,-214 393,-121 103,-121"/>
</g>
<!-- entry_start&#45;&gt;entrypoint_entry_point_api_project_create -->
<g id="edge1" class="edge">
<title>entry_start&#45;&gt;entrypoint_entry_point_api_project_create</title>
<path fill="none" stroke="#3f3f46" d="M42.36,-167.5C55.6,-167.5 74.2,-167.5 94.84,-167.5"/>
<polygon fill="#3f3f46" stroke="#3f3f46" points="94.85,-170.3 102.85,-167.5 94.85,-164.7 94.85,-170.3"/>
</g>
<!-- entrypoint_input_entry_point_api_project_create -->
<g id="node3" class="node">
<title>entrypoint_input_entry_point_api_project_create</title>
<polygon fill="#ffffff" stroke="transparent" points="454,-106 454,-229 538,-229 538,-106 454,-106"/>
<polygon fill="#64748b" stroke="transparent" points="455,-219.5 455,-227.5 537,-227.5 537,-219.5 455,-219.5"/>
<polygon fill="#f8fafc" stroke="transparent" points="455,-188.5 455,-219.5 537,-219.5 537,-188.5 455,-188.5"/>
<text text-anchor="start" x="459" y="-206.1" font-family="Arial" font-weight="bold" font-size="13.00">request</text>
<text text-anchor="start" x="459" y="-195.1" font-family="Arial" font-size="8.00" fill="#64748b">external data</text>
<text text-anchor="start" x="459" y="-177.5" font-family="Arial" font-weight="bold" font-size="10.00">params</text>
<text text-anchor="start" x="459" y="-166.5" font-family="Arial" font-size="10.00">workspace_id</text>
<text text-anchor="start" x="520" y="-166.5" font-family="Arial" font-size="8.00" fill="#94a3b8">  ID</text>
<text text-anchor="start" x="459" y="-147.5" font-family="Arial" font-weight="bold" font-size="10.00">body</text>
<text text-anchor="start" x="459" y="-136.5" font-family="Arial" font-size="10.00">customer</text>
<text text-anchor="start" x="500" y="-136.5" font-family="Arial" font-size="8.00" fill="#94a3b8">  Text</text>
<text text-anchor="start" x="459" y="-125.5" font-family="Arial" font-size="10.00">priority</text>
<text text-anchor="start" x="489" y="-125.5" font-family="Arial" font-size="8.00" fill="#94a3b8">  Text</text>
<text text-anchor="start" x="459" y="-114.5" font-family="Arial" font-size="10.00">title</text>
<text text-anchor="start" x="475" y="-114.5" font-family="Arial" font-size="8.00" fill="#94a3b8">  Text</text>
<polygon fill="none" stroke="#64748b" points="454,-106 454,-229 538,-229 538,-106 454,-106"/>
</g>
<!-- entrypoint_entry_point_api_project_create&#45;&gt;entrypoint_input_entry_point_api_project_create -->
<g id="edge2" class="edge">
<title>entrypoint_entry_point_api_project_create&#45;&gt;entrypoint_input_entry_point_api_project_create</title>
<path fill="none" stroke="#3f3f46" d="M393.17,-167.5C411.92,-167.5 430,-167.5 445.59,-167.5"/>
<polygon fill="#3f3f46" stroke="#3f3f46" points="445.98,-170.3 453.98,-167.5 445.98,-164.7 445.98,-170.3"/>
</g>
<!-- entrypoint_target_operation_project_create -->
<g id="node4" class="node">
<title>entrypoint_target_operation_project_create</title>
<polygon fill="#ffffff" stroke="transparent" points="599,0 599,-335 804,-335 804,0 599,0"/>
<polygon fill="#2563eb" stroke="transparent" points="600.5,-325.5 600.5,-333.5 803.5,-333.5 803.5,-325.5 600.5,-325.5"/>
<polygon fill="#eff6ff" stroke="transparent" points="600.5,-294.5 600.5,-325.5 803.5,-325.5 803.5,-294.5 600.5,-294.5"/>
<text text-anchor="start" x="604.5" y="-312.1" font-family="Arial" font-weight="bold" font-size="13.00">operation.project.create</text>
<text text-anchor="start" x="604.5" y="-301.1" font-family="Arial" font-size="8.00" fill="#64748b">target operation</text>
<text text-anchor="start" x="604.5" y="-283.5" font-family="Arial" font-style="italic" font-size="10.00" fill="#3f3f46">Members can create a new dispatch project.</text>
<text text-anchor="start" x="605.5" y="-263.5" font-family="Arial" font-weight="bold" font-size="10.00">authorization_policy:</text>
<text text-anchor="start" x="704.5" y="-263.5" font-family="Arial" font-size="10.00">  policy.project.create</text>
<text text-anchor="start" x="605.5" y="-251.5" font-family="Arial" font-weight="bold" font-size="10.00">policy_effect:</text>
<text text-anchor="start" x="667.5" y="-251.5" font-family="Arial" font-size="10.00">  allow</text>
<text text-anchor="start" x="605.5" y="-239.5" font-family="Arial" font-weight="bold" font-size="10.00">policy_subjects:</text>
<text text-anchor="start" x="681.5" y="-239.5" font-family="Arial" font-size="10.00">  actor</text>
<text text-anchor="start" x="604.5" y="-219.5" font-family="Arial" font-weight="bold" font-size="10.00">policy_targets</text>
<text text-anchor="start" x="604.5" y="-207.5" font-family="Arial" font-size="10.00">operation: operation.project.create</text>
<text text-anchor="start" x="604.5" y="-196.5" font-family="Arial" font-size="10.00">model: Project</text>
<text text-anchor="start" x="605.5" y="-177.5" font-family="Arial" font-weight="bold" font-size="10.00">policy_conditions:</text>
<text text-anchor="start" x="692.5" y="-177.5" font-family="Arial" font-size="10.00">  always true</text>
<text text-anchor="start" x="605.5" y="-165.5" font-family="Arial" font-weight="bold" font-size="10.00">creates:</text>
<text text-anchor="start" x="642.5" y="-165.5" font-family="Arial" font-size="10.00">  Project</text>
<text text-anchor="start" x="604.5" y="-145.5" font-family="Arial" font-weight="bold" font-size="10.00">input</text>
<text text-anchor="start" x="604.5" y="-134.5" font-family="Arial" font-size="10.00">customer</text>
<text text-anchor="start" x="645.5" y="-134.5" font-family="Arial" font-size="8.00" fill="#94a3b8">  Text</text>
<text text-anchor="start" x="604.5" y="-123.5" font-family="Arial" font-size="10.00">priority</text>
<text text-anchor="start" x="634.5" y="-123.5" font-family="Arial" font-size="8.00" fill="#94a3b8">  Text</text>
<text text-anchor="start" x="604.5" y="-112.5" font-family="Arial" font-size="10.00">title</text>
<text text-anchor="start" x="620.5" y="-112.5" font-family="Arial" font-size="8.00" fill="#94a3b8">  Text</text>
<text text-anchor="start" x="604.5" y="-101.5" font-family="Arial" font-size="10.00">workspace_id</text>
<text text-anchor="start" x="665.5" y="-101.5" font-family="Arial" font-size="8.00" fill="#94a3b8">  ID</text>
<text text-anchor="start" x="604.5" y="-82.5" font-family="Arial" font-weight="bold" font-size="10.00">success</text>
<text text-anchor="start" x="604.5" y="-71.5" font-family="Arial" font-size="10.00">created</text>
<text text-anchor="start" x="637.5" y="-71.5" font-family="Arial" font-size="8.00" fill="#94a3b8">  Project</text>
<text text-anchor="start" x="604.5" y="-52.5" font-family="Arial" font-weight="bold" font-size="10.00">failure</text>
<text text-anchor="start" x="604.5" y="-41.5" font-family="Arial" font-size="10.00">validation_failed</text>
<text text-anchor="start" x="674.5" y="-41.5" font-family="Arial" font-size="8.00" fill="#94a3b8">  Problem</text>
<text text-anchor="start" x="605.5" y="-21.5" font-family="Arial" font-weight="bold" font-size="10.00">emit:</text>
<text text-anchor="start" x="629.5" y="-21.5" font-family="Arial" font-size="10.00">  created → event.project.created</text>
<text text-anchor="start" x="605.5" y="-9.5" font-family="Arial" font-weight="bold" font-size="10.00">payload_schema:</text>
<text text-anchor="start" x="687.5" y="-9.5" font-family="Arial" font-size="10.00">  payload_schema</text>
<text text-anchor="start" x="767.5" y="-9.5" font-family="Arial" font-size="8.00" fill="#94a3b8">  Project</text>
<polygon fill="none" stroke="#2563eb" points="599,0 599,-335 804,-335 804,0 599,0"/>
</g>
<!-- entrypoint_input_entry_point_api_project_create&#45;&gt;entrypoint_target_operation_project_create -->
<g id="edge3" class="edge">
<title>entrypoint_input_entry_point_api_project_create&#45;&gt;entrypoint_target_operation_project_create</title>
<path fill="none" stroke="#3f3f46" d="M538.18,-167.5C553.63,-167.5 572,-167.5 590.74,-167.5"/>
<polygon fill="#3f3f46" stroke="#3f3f46" points="590.79,-170.3 598.79,-167.5 590.79,-164.7 590.79,-170.3"/>
</g>
<!-- entrypoint_response_entry_point_api_project_create_created -->
<g id="node6" class="node">
<title>entrypoint_response_entry_point_api_project_create_created</title>
<polygon fill="#ffffff" stroke="transparent" points="867.5,-181.5 867.5,-273.5 999.5,-273.5 999.5,-181.5 867.5,-181.5"/>
<polygon fill="#64748b" stroke="transparent" points="868.5,-264.5 868.5,-272.5 998.5,-272.5 998.5,-264.5 868.5,-264.5"/>
<polygon fill="#f8fafc" stroke="transparent" points="868.5,-233.5 868.5,-264.5 998.5,-264.5 998.5,-233.5 868.5,-233.5"/>
<text text-anchor="start" x="872.5" y="-251.1" font-family="Arial" font-weight="bold" font-size="13.00">created</text>
<text text-anchor="start" x="872.5" y="-240.1" font-family="Arial" font-size="8.00" fill="#64748b">success response</text>
<text text-anchor="start" x="873.5" y="-221.5" font-family="Arial" font-weight="bold" font-size="10.00">status:</text>
<text text-anchor="start" x="904.5" y="-221.5" font-family="Arial" font-size="10.00">  201</text>
<text text-anchor="start" x="872.5" y="-201.5" font-family="Arial" font-weight="bold" font-size="10.00">body</text>
<text text-anchor="start" x="872.5" y="-190.5" font-family="Arial" font-size="10.00">body</text>
<text text-anchor="start" x="894.5" y="-190.5" font-family="Arial" font-size="8.00" fill="#94a3b8">  Project</text>
<text text-anchor="start" x="924.5" y="-190.5" font-family="Arial" font-size="8.00"> ← $outcome.result</text>
<polygon fill="none" stroke="#64748b" points="867.5,-181.5 867.5,-273.5 999.5,-273.5 999.5,-181.5 867.5,-181.5"/>
</g>
<!-- entrypoint_target_operation_project_create&#45;&gt;entrypoint_response_entry_point_api_project_create_created -->
<g id="edge4" class="edge">
<title>entrypoint_target_operation_project_create&#45;&gt;entrypoint_response_entry_point_api_project_create_created</title>
<path fill="none" stroke="#3f3f46" d="M804.05,-193.99C822.63,-198.84 841.68,-203.81 859.23,-208.39"/>
<polygon fill="#3f3f46" stroke="#3f3f46" points="858.73,-211.15 867.18,-210.46 860.14,-205.73 858.73,-211.15"/>
</g>
<!-- entrypoint_response_entry_point_api_project_create_validation_failed -->
<g id="node7" class="node">
<title>entrypoint_response_entry_point_api_project_create_validation_failed</title>
<polygon fill="#ffffff" stroke="transparent" points="865,-62.5 865,-154.5 1002,-154.5 1002,-62.5 865,-62.5"/>
<polygon fill="#64748b" stroke="transparent" points="866.5,-145.5 866.5,-153.5 1001.5,-153.5 1001.5,-145.5 866.5,-145.5"/>
<polygon fill="#f8fafc" stroke="transparent" points="866.5,-114.5 866.5,-145.5 1001.5,-145.5 1001.5,-114.5 866.5,-114.5"/>
<text text-anchor="start" x="870.5" y="-132.1" font-family="Arial" font-weight="bold" font-size="13.00">validation_failed</text>
<text text-anchor="start" x="870.5" y="-121.1" font-family="Arial" font-size="8.00" fill="#64748b">failure response</text>
<text text-anchor="start" x="871.5" y="-102.5" font-family="Arial" font-weight="bold" font-size="10.00">status:</text>
<text text-anchor="start" x="902.5" y="-102.5" font-family="Arial" font-size="10.00">  422</text>
<text text-anchor="start" x="870.5" y="-82.5" font-family="Arial" font-weight="bold" font-size="10.00">body</text>
<text text-anchor="start" x="870.5" y="-71.5" font-family="Arial" font-size="10.00">body</text>
<text text-anchor="start" x="892.5" y="-71.5" font-family="Arial" font-size="8.00" fill="#94a3b8">  Problem</text>
<text text-anchor="start" x="927.5" y="-71.5" font-family="Arial" font-size="8.00"> ← $outcome.result</text>
<polygon fill="none" stroke="#64748b" points="865,-62.5 865,-154.5 1002,-154.5 1002,-62.5 865,-62.5"/>
</g>
<!-- entrypoint_target_operation_project_create&#45;&gt;entrypoint_response_entry_point_api_project_create_validation_failed -->
<g id="edge6" class="edge">
<title>entrypoint_target_operation_project_create&#45;&gt;entrypoint_response_entry_point_api_project_create_validation_failed</title>
<path fill="none" stroke="#3f3f46" d="M804.05,-141.45C821.74,-136.91 839.85,-132.27 856.69,-127.95"/>
<polygon fill="#3f3f46" stroke="#3f3f46" points="857.79,-130.55 864.85,-125.85 856.4,-125.13 857.79,-130.55"/>
</g>
<!-- entry_exit -->
<g id="node5" class="node">
<title>entry_exit</title>
<ellipse fill="none" stroke="#0891b2" cx="1088" cy="-167.5" rx="21" ry="21"/>
<ellipse fill="none" stroke="#0891b2" cx="1088" cy="-167.5" rx="25" ry="25"/>
<text text-anchor="middle" x="1088" y="-165.3" font-family="Arial" font-size="9.00" fill="#155e75">exit</text>
</g>
<!-- entrypoint_response_entry_point_api_project_create_created&#45;&gt;entry_exit -->
<g id="edge5" class="edge">
<title>entrypoint_response_entry_point_api_project_create_created&#45;&gt;entry_exit</title>
<path fill="none" stroke="#3f3f46" d="M999.62,-201.88C1019.51,-194.05 1040.44,-185.82 1056.83,-179.37"/>
<polygon fill="#3f3f46" stroke="#3f3f46" points="1058.07,-181.89 1064.49,-176.36 1056.02,-176.68 1058.07,-181.89"/>
</g>
<!-- entrypoint_response_entry_point_api_project_create_created&#45;&gt;entrypoint_response_entry_point_api_project_create_validation_failed -->
<!-- entrypoint_response_entry_point_api_project_create_validation_failed&#45;&gt;entry_exit -->
<g id="edge7" class="edge">
<title>entrypoint_response_entry_point_api_project_create_validation_failed&#45;&gt;entry_exit</title>
<path fill="none" stroke="#3f3f46" d="M1002.28,-134.72C1021.24,-142.06 1040.92,-149.67 1056.53,-155.71"/>
<polygon fill="#3f3f46" stroke="#3f3f46" points="1055.83,-158.44 1064.3,-158.72 1057.85,-153.22 1055.83,-158.44"/>
</g>
</g>
</svg>
