<svg width="1181pt" height="345pt"
 viewBox="0.00 0.00 1181.00 345.00" xmlns="http://www.w3.org/2000/svg" xmlns:xlink="http://www.w3.org/1999/xlink">
<!-- pyspec-contract-input-sha256: 2b7cbc266408405aa3cc0a27fe50e2cac6bded06d232e60e1563663795dc8b68 -->
<g id="graph0" class="graph" transform="scale(1 1) rotate(0) translate(18 327)">
<title>entrypoint_entry_point_api_project_create</title>
<!-- entry_start -->
<g id="node1" class="node">
<title>entry_start</title>
<ellipse fill="none" stroke="#0891b2" cx="21" cy="-154.5" rx="21" ry="21"/>
<text text-anchor="middle" x="21" y="-152.3" font-family="Arial" font-size="9.00" fill="#155e75">entry</text>
</g>
<!-- entrypoint_entry_point_api_project_create -->
<g id="node2" class="node">
<title>entrypoint_entry_point_api_project_create</title>
<polygon fill="#ffffff" stroke="transparent" points="103,-108 103,-201 393,-201 393,-108 103,-108"/>
<polygon fill="#0891b2" stroke="transparent" points="104,-191.5 104,-199.5 392,-199.5 392,-191.5 104,-191.5"/>
<polygon fill="#ecfeff" stroke="transparent" points="104,-160.5 104,-191.5 392,-191.5 392,-160.5 104,-160.5"/>
<text text-anchor="start" x="108" y="-178.1" font-family="Arial" font-weight="bold" font-size="13.00">POST /workspaces/{workspace_id}/projects</text>
<text text-anchor="start" x="108" y="-167.1" font-family="Arial" font-size="8.00" fill="#64748b">http entry point</text>
<text text-anchor="start" x="108" y="-149.5" font-family="Arial" font-style="italic" font-size="10.00" fill="#3f3f46">HTTP endpoint for creating a dispatch project.</text>
<text text-anchor="start" x="109" y="-129.5" font-family="Arial" font-weight="bold" font-size="10.00">endpoint:</text>
<text text-anchor="start" x="154" y="-129.5" font-family="Arial" font-size="10.00">  endpoint.project.create</text>
<text text-anchor="start" x="109" y="-117.5" font-family="Arial" font-weight="bold" font-size="10.00">policy_guard:</text>
<text text-anchor="start" x="173" y="-117.5" font-family="Arial" font-size="10.00">  policy.project.create</text>
<polygon fill="none" stroke="#0891b2" points="103,-108 103,-201 393,-201 393,-108 103,-108"/>
</g>
<!-- entry_start&#45;&gt;entrypoint_entry_point_api_project_create -->
<g id="edge1" class="edge">
<title>entry_start&#45;&gt;entrypoint_entry_point_api_project_create</title>
<path fill="none" stroke="#3f3f46" d="M42.36,-154.5C55.6,-154.5 74.2,-154.5 94.84,-154.5"/>
<polygon fill="#3f3f46" stroke="#3f3f46" points="94.85,-157.3 102.85,-154.5 94.85,-151.7 94.85,-157.3"/>
</g>
<!-- entrypoint_input_entry_point_api_project_create -->
<g id="node3" class="node">
<title>entrypoint_input_entry_point_api_project_create</title>
<polygon fill="#ffffff" stroke="transparent" points="454,-93 454,-216 538,-216 538,-93 454,-93"/>
<polygon fill="#64748b" stroke="transparent" points="455,-206.5 455,-214.5 537,-214.5 537,-206.5 455,-206.5"/>
<polygon fill="#f8fafc" stroke="transparent" points="455,-175.5 455,-206.5 537,-206.5 537,-175.5 455,-175.5"/>
<text text-anchor="start" x="459" y="-193.1" font-family="Arial" font-weight="bold" font-size="13.00">request</text>
<text text-anchor="start" x="459" y="-182.1" font-family="Arial" font-size="8.00" fill="#64748b">external data</text>
<text text-anchor="start" x="459" y="-164.5" font-family="Arial" font-weight="bold" font-size="10.00">params</text>
<text text-anchor="start" x="459" y="-153.5" font-family="Arial" font-size="10.00">workspace_id</text>
<text text-anchor="start" x="520" y="-153.5" font-family="Arial" font-size="8.00" fill="#94a3b8">  ID</text>
<text text-anchor="start" x="459" y="-134.5" font-family="Arial" font-weight="bold" font-size="10.00">body</text>
<text text-anchor="start" x="459" y="-123.5" font-family="Arial" font-size="10.00">customer</text>
<text text-anchor="start" x="500" y="-123.5" font-family="Arial" font-size="8.00" fill="#94a3b8">  Text</text>
<text text-anchor="start" x="459" y="-112.5" font-family="Arial" font-size="10.00">priority</text>
<text text-anchor="start" x="489" y="-112.5" font-family="Arial" font-size="8.00" fill="#94a3b8">  Text</text>
<text text-anchor="start" x="459" y="-101.5" font-family="Arial" font-size="10.00">title</text>
<text text-anchor="start" x="475" y="-101.5" font-family="Arial" font-size="8.00" fill="#94a3b8">  Text</text>
<polygon fill="none" stroke="#64748b" points="454,-93 454,-216 538,-216 538,-93 454,-93"/>
</g>
<!-- entrypoint_entry_point_api_project_create&#45;&gt;entrypoint_input_entry_point_api_project_create -->
<g id="edge2" class="edge">
<title>entrypoint_entry_point_api_project_create&#45;&gt;entrypoint_input_entry_point_api_project_create</title>
<path fill="none" stroke="#3f3f46" d="M393.17,-154.5C411.92,-154.5 430,-154.5 445.59,-154.5"/>
<polygon fill="#3f3f46" stroke="#3f3f46" points="445.98,-157.3 453.98,-154.5 445.98,-151.7 445.98,-157.3"/>
</g>
<!-- entrypoint_target_operation_project_create -->
<g id="node4" class="node">
<title>entrypoint_target_operation_project_create</title>
<polygon fill="#ffffff" stroke="transparent" points="599,0 599,-309 836,-309 836,0 599,0"/>
<polygon fill="#2563eb" stroke="transparent" points="600.5,-299.5 600.5,-307.5 835.5,-307.5 835.5,-299.5 600.5,-299.5"/>
<polygon fill="#eff6ff" stroke="transparent" points="600.5,-268.5 600.5,-299.5 835.5,-299.5 835.5,-268.5 600.5,-268.5"/>
<text text-anchor="start" x="604.5" y="-286.1" font-family="Arial" font-weight="bold" font-size="13.00">operation.project.create</text>
<text text-anchor="start" x="604.5" y="-275.1" font-family="Arial" font-size="8.00" fill="#64748b">target operation</text>
<text text-anchor="start" x="604.5" y="-257.5" font-family="Arial" font-style="italic" font-size="10.00" fill="#3f3f46">Members can create a new dispatch project.</text>
<text text-anchor="start" x="605.5" y="-237.5" font-family="Arial" font-weight="bold" font-size="10.00">policy_guard:</text>
<text text-anchor="start" x="669.5" y="-237.5" font-family="Arial" font-size="10.00">  policy.project.create</text>
<text text-anchor="start" x="605.5" y="-225.5" font-family="Arial" font-weight="bold" font-size="10.00">policy_effect:</text>
<text text-anchor="start" x="667.5" y="-225.5" font-family="Arial" font-size="10.00">  allow</text>
<text text-anchor="start" x="605.5" y="-213.5" font-family="Arial" font-weight="bold" font-size="10.00">policy_subjects:</text>
<text text-anchor="start" x="681.5" y="-213.5" font-family="Arial" font-size="10.00">  actor</text>
<text text-anchor="start" x="605.5" y="-201.5" font-family="Arial" font-weight="bold" font-size="10.00">policy_actions:</text>
<text text-anchor="start" x="676.5" y="-201.5" font-family="Arial" font-size="10.00">  operation: operation.project.create</text>
<text text-anchor="start" x="605.5" y="-189.5" font-family="Arial" font-weight="bold" font-size="10.00">policy_resources:</text>
<text text-anchor="start" x="688.5" y="-189.5" font-family="Arial" font-size="10.00">  model: Project</text>
<text text-anchor="start" x="605.5" y="-177.5" font-family="Arial" font-weight="bold" font-size="10.00">policy_conditions:</text>
<text text-anchor="start" x="692.5" y="-177.5" font-family="Arial" font-size="10.00">  always true</text>
<text text-anchor="start" x="605.5" y="-165.5" font-family="Arial" font-weight="bold" font-size="10.00">creates:</text>
<text text-anchor="start" x="642.5" y="-165.5" font-family="Arial" font-size="10.00">  Project</text>
<text text-anchor="start" x="604.5" y="-145.5" font-family="Arial" font-weight="bold" font-size="10.00">input</text>
<text text-anchor="start" x="604.5" y="-134.5" font-family="Arial" font-size="10.00">customer</text>
<text text-anchor="start" x="645.5" y="-134.5" font-family="Arial" font-size="8.00" fill="#94a3b8">  Text</text>
<text text-anchor="start" x="604.5" y="-123.5" font-family="Arial" font-size="10.00">priority</text>
<text text-anchor="start" x="634.5" y="-123.5" font-family="Arial" font-size="8.00" fill="#94a3b8">  Text</text>
<text text-anchor="start" x="604.5" y="-112.5" font-family="Arial" font-size="10.00">title</text>
<text text-anchor="start" x="620.5" y="-112.5" font-family="Arial" font-size="8.00" fill="#94a3b8">  Text</text>
<text text-anchor="start" x="604.5" y="-101.5" font-family="Arial" font-size="10.00">workspace_id</text>
<text text-anchor="start" x="665.5" y="-101.5" font-family="Arial" font-size="8.00" fill="#94a3b8">  ID</text>
<text text-anchor="start" x="604.5" y="-82.5" font-family="Arial" font-weight="bold" font-size="10.00">success</text>
<text text-anchor="start" x="604.5" y="-71.5" font-family="Arial" font-size="10.00">created</text>
<text text-anchor="start" x="637.5" y="-71.5" font-family="Arial" font-size="8.00" fill="#94a3b8">  Project</text>
<text text-anchor="start" x="604.5" y="-52.5" font-family="Arial" font-weight="bold" font-size="10.00">failure</text>
<text text-anchor="start" x="604.5" y="-41.5" font-family="Arial" font-size="10.00">validation_failed</text>
<text text-anchor="start" x="674.5" y="-41.5" font-family="Arial" font-size="8.00" fill="#94a3b8">  Problem</text>
<text text-anchor="start" x="605.5" y="-21.5" font-family="Arial" font-weight="bold" font-size="10.00">emit:</text>
<text text-anchor="start" x="629.5" y="-21.5" font-family="Arial" font-size="10.00">  created → event.project.created</text>
<text text-anchor="start" x="605.5" y="-9.5" font-family="Arial" font-weight="bold" font-size="10.00">payload_schema:</text>
<text text-anchor="start" x="687.5" y="-9.5" font-family="Arial" font-size="10.00">  payload_schema</text>
<text text-anchor="start" x="767.5" y="-9.5" font-family="Arial" font-size="8.00" fill="#94a3b8">  Project</text>
<polygon fill="none" stroke="#2563eb" points="599,0 599,-309 836,-309 836,0 599,0"/>
</g>
<!-- entrypoint_input_entry_point_api_project_create&#45;&gt;entrypoint_target_operation_project_create -->
<g id="edge3" class="edge">
<title>entrypoint_input_entry_point_api_project_create&#45;&gt;entrypoint_target_operation_project_create</title>
<path fill="none" stroke="#3f3f46" d="M538.03,-154.5C553.34,-154.5 571.63,-154.5 590.58,-154.5"/>
<polygon fill="#3f3f46" stroke="#3f3f46" points="590.74,-157.3 598.74,-154.5 590.74,-151.7 590.74,-157.3"/>
</g>
<!-- entrypoint_response_entry_point_api_project_create_created -->
<g id="node6" class="node">
<title>entrypoint_response_entry_point_api_project_create_created</title>
<polygon fill="#ffffff" stroke="transparent" points="899.5,-168.5 899.5,-260.5 1031.5,-260.5 1031.5,-168.5 899.5,-168.5"/>
<polygon fill="#64748b" stroke="transparent" points="900.5,-251.5 900.5,-259.5 1030.5,-259.5 1030.5,-251.5 900.5,-251.5"/>
<polygon fill="#f8fafc" stroke="transparent" points="900.5,-220.5 900.5,-251.5 1030.5,-251.5 1030.5,-220.5 900.5,-220.5"/>
<text text-anchor="start" x="904.5" y="-238.1" font-family="Arial" font-weight="bold" font-size="13.00">created</text>
<text text-anchor="start" x="904.5" y="-227.1" font-family="Arial" font-size="8.00" fill="#64748b">success response</text>
<text text-anchor="start" x="905.5" y="-208.5" font-family="Arial" font-weight="bold" font-size="10.00">status:</text>
<text text-anchor="start" x="936.5" y="-208.5" font-family="Arial" font-size="10.00">  201</text>
<text text-anchor="start" x="904.5" y="-188.5" font-family="Arial" font-weight="bold" font-size="10.00">body</text>
<text text-anchor="start" x="904.5" y="-177.5" font-family="Arial" font-size="10.00">body</text>
<text text-anchor="start" x="926.5" y="-177.5" font-family="Arial" font-size="8.00" fill="#94a3b8">  Project</text>
<text text-anchor="start" x="956.5" y="-177.5" font-family="Arial" font-size="8.00"> ← $outcome.result</text>
<polygon fill="none" stroke="#64748b" points="899.5,-168.5 899.5,-260.5 1031.5,-260.5 1031.5,-168.5 899.5,-168.5"/>
</g>
<!-- entrypoint_target_operation_project_create&#45;&gt;entrypoint_response_entry_point_api_project_create_created -->
<g id="edge4" class="edge">
<title>entrypoint_target_operation_project_create&#45;&gt;entrypoint_response_entry_point_api_project_create_created</title>
<path fill="none" stroke="#3f3f46" d="M836.1,-183.18C854.95,-187.78 873.97,-192.42 891.39,-196.67"/>
<polygon fill="#3f3f46" stroke="#3f3f46" points="890.84,-199.42 899.27,-198.59 892.16,-193.97 890.84,-199.42"/>
</g>
<!-- entrypoint_response_entry_point_api_project_create_validation_failed -->
<g id="node7" class="node">
<title>entrypoint_response_entry_point_api_project_create_validation_failed</title>
<polygon fill="#ffffff" stroke="transparent" points="897,-49.5 897,-141.5 1034,-141.5 1034,-49.5 897,-49.5"/>
<polygon fill="#64748b" stroke="transparent" points="898.5,-132.5 898.5,-140.5 1033.5,-140.5 1033.5,-132.5 898.5,-132.5"/>
<polygon fill="#f8fafc" stroke="transparent" points="898.5,-101.5 898.5,-132.5 1033.5,-132.5 1033.5,-101.5 898.5,-101.5"/>
<text text-anchor="start" x="902.5" y="-119.1" font-family="Arial" font-weight="bold" font-size="13.00">validation_failed</text>
<text text-anchor="start" x="902.5" y="-108.1" font-family="Arial" font-size="8.00" fill="#64748b">failure response</text>
<text text-anchor="start" x="903.5" y="-89.5" font-family="Arial" font-weight="bold" font-size="10.00">status:</text>
<text text-anchor="start" x="934.5" y="-89.5" font-family="Arial" font-size="10.00">  422</text>
<text text-anchor="start" x="902.5" y="-69.5" font-family="Arial" font-weight="bold" font-size="10.00">body</text>
<text text-anchor="start" x="902.5" y="-58.5" font-family="Arial" font-size="10.00">body</text>
<text text-anchor="start" x="924.5" y="-58.5" font-family="Arial" font-size="8.00" fill="#94a3b8">  Problem</text>
<text text-anchor="start" x="959.5" y="-58.5" font-family="Arial" font-size="8.00"> ← $outcome.result</text>
<polygon fill="none" stroke="#64748b" points="897,-49.5 897,-141.5 1034,-141.5 1034,-49.5 897,-49.5"/>
</g>
<!-- entrypoint_target_operation_project_create&#45;&gt;entrypoint_response_entry_point_api_project_create_validation_failed -->
<g id="edge6" class="edge">
<title>entrypoint_target_operation_project_create&#45;&gt;entrypoint_response_entry_point_api_project_create_validation_failed</title>
<path fill="none" stroke="#3f3f46" d="M836.1,-126.3C854.04,-121.99 872.13,-117.65 888.85,-113.64"/>
<polygon fill="#3f3f46" stroke="#3f3f46" points="889.81,-116.29 896.94,-111.7 888.51,-110.85 889.81,-116.29"/>
</g>
<!-- entry_exit -->
<g id="node5" class="node">
<title>entry_exit</title>
<ellipse fill="none" stroke="#0891b2" cx="1120" cy="-154.5" rx="21" ry="21"/>
<ellipse fill="none" stroke="#0891b2" cx="1120" cy="-154.5" rx="25" ry="25"/>
<text text-anchor="middle" x="1120" y="-152.3" font-family="Arial" font-size="9.00" fill="#155e75">exit</text>
</g>
<!-- entrypoint_response_entry_point_api_project_create_created&#45;&gt;entry_exit -->
<g id="edge5" class="edge">
<title>entrypoint_response_entry_point_api_project_create_created&#45;&gt;entry_exit</title>
<path fill="none" stroke="#3f3f46" d="M1031.62,-188.88C1051.51,-181.05 1072.44,-172.82 1088.83,-166.37"/>
<polygon fill="#3f3f46" stroke="#3f3f46" points="1090.07,-168.89 1096.49,-163.36 1088.02,-163.68 1090.07,-168.89"/>
</g>
<!-- entrypoint_response_entry_point_api_project_create_created&#45;&gt;entrypoint_response_entry_point_api_project_create_validation_failed -->
<!-- entrypoint_response_entry_point_api_project_create_validation_failed&#45;&gt;entry_exit -->
<g id="edge7" class="edge">
<title>entrypoint_response_entry_point_api_project_create_validation_failed&#45;&gt;entry_exit</title>
<path fill="none" stroke="#3f3f46" d="M1034.28,-121.72C1053.24,-129.06 1072.92,-136.67 1088.53,-142.71"/>
<polygon fill="#3f3f46" stroke="#3f3f46" points="1087.83,-145.44 1096.3,-145.72 1089.85,-140.22 1087.83,-145.44"/>
</g>
</g>
</svg>
