<svg width="757pt" height="187pt"
 viewBox="0.00 0.00 757.00 187.00" xmlns="http://www.w3.org/2000/svg" xmlns:xlink="http://www.w3.org/1999/xlink">
<g id="graph0" class="graph" transform="scale(1 1) rotate(0) translate(18 169)">
<title>entrypoint_cli_project_board</title>
<!-- entry_start -->
<g id="node1" class="node">
<title>entry_start</title>
<ellipse fill="none" stroke="#0891b2" cx="21" cy="-75.5" rx="21" ry="21"/>
<text text-anchor="middle" x="21" y="-73.3" font-family="Arial" font-size="9.00" fill="#155e75">entry</text>
</g>
<!-- entrypoint_cli_project_board -->
<g id="node2" class="node">
<title>entrypoint_cli_project_board</title>
<polygon fill="#ffffff" stroke="transparent" points="103,-35 103,-116 304,-116 304,-35 103,-35"/>
<polygon fill="#0891b2" stroke="transparent" points="104.5,-106.5 104.5,-114.5 303.5,-114.5 303.5,-106.5 104.5,-106.5"/>
<polygon fill="#ecfeff" stroke="transparent" points="104.5,-75.5 104.5,-106.5 303.5,-106.5 303.5,-75.5 104.5,-75.5"/>
<text text-anchor="start" x="108.5" y="-93.1" font-family="Arial" font-weight="bold" font-size="13.00">project board</text>
<text text-anchor="start" x="108.5" y="-82.1" font-family="Arial" font-size="8.00" fill="#64748b">cli entry</text>
<text text-anchor="start" x="108.5" y="-64.5" font-family="Arial" font-style="italic" font-size="10.00" fill="#3f3f46">CLI launcher for the Textual dispatch board.</text>
<text text-anchor="start" x="109.5" y="-44.5" font-family="Arial" font-weight="bold" font-size="10.00">command:</text>
<text text-anchor="start" x="159.5" y="-44.5" font-family="Arial" font-size="10.00">  command.fsm.project.board</text>
<polygon fill="none" stroke="#0891b2" points="103,-35 103,-116 304,-116 304,-35 103,-35"/>
</g>
<!-- entry_start&#45;&gt;entrypoint_cli_project_board -->
<g id="edge1" class="edge">
<title>entry_start&#45;&gt;entrypoint_cli_project_board</title>
<path fill="none" stroke="#3f3f46" d="M42.01,-75.5C55.54,-75.5 74.58,-75.5 94.85,-75.5"/>
<polygon fill="#3f3f46" stroke="#3f3f46" points="94.97,-78.3 102.97,-75.5 94.97,-72.7 94.97,-78.3"/>
</g>
<!-- entrypoint_input_cli_project_board -->
<g id="node3" class="node">
<title>entrypoint_input_cli_project_board</title>
<polygon fill="#ffffff" stroke="transparent" points="365,-40 365,-111 449,-111 449,-40 365,-40"/>
<polygon fill="#64748b" stroke="transparent" points="366,-101.5 366,-109.5 448,-109.5 448,-101.5 366,-101.5"/>
<polygon fill="#f8fafc" stroke="transparent" points="366,-70.5 366,-101.5 448,-101.5 448,-70.5 366,-70.5"/>
<text text-anchor="start" x="370" y="-88.1" font-family="Arial" font-weight="bold" font-size="13.00">entry input</text>
<text text-anchor="start" x="370" y="-77.1" font-family="Arial" font-size="8.00" fill="#64748b">external data</text>
<text text-anchor="start" x="370" y="-59.5" font-family="Arial" font-weight="bold" font-size="10.00">args</text>
<text text-anchor="start" x="370" y="-48.5" font-family="Arial" font-size="10.00">workspace_id</text>
<text text-anchor="start" x="431" y="-48.5" font-family="Arial" font-size="8.00" fill="#94a3b8">  ID</text>
<polygon fill="none" stroke="#64748b" points="365,-40 365,-111 449,-111 449,-40 365,-40"/>
</g>
<!-- entrypoint_cli_project_board&#45;&gt;entrypoint_input_cli_project_board -->
<g id="edge2" class="edge">
<title>entrypoint_cli_project_board&#45;&gt;entrypoint_input_cli_project_board</title>
<path fill="none" stroke="#3f3f46" d="M304.07,-75.5C322.31,-75.5 340.6,-75.5 356.55,-75.5"/>
<polygon fill="#3f3f46" stroke="#3f3f46" points="356.66,-78.3 364.66,-75.5 356.66,-72.7 356.66,-78.3"/>
</g>
<!-- entrypoint_target_fsm_project_board -->
<g id="node4" class="node">
<title>entrypoint_target_fsm_project_board</title>
<polygon fill="#ffffff" stroke="transparent" points="510,0 510,-151 721,-151 721,0 510,0"/>
<polygon fill="#047857" stroke="transparent" points="511.5,-141.5 511.5,-149.5 720.5,-149.5 720.5,-141.5 511.5,-141.5"/>
<polygon fill="#ecfdf5" stroke="transparent" points="511.5,-110.5 511.5,-141.5 720.5,-141.5 720.5,-110.5 511.5,-110.5"/>
<text text-anchor="start" x="515.5" y="-128.1" font-family="Arial" font-weight="bold" font-size="13.00">fsm.project.board</text>
<text text-anchor="start" x="515.5" y="-117.1" font-family="Arial" font-size="8.00" fill="#64748b">target FSM (textual)</text>
<text text-anchor="start" x="515.5" y="-99.5" font-family="Arial" font-style="italic" font-size="10.00" fill="#3f3f46">The dispatch board composes list, detail, and</text>
<text text-anchor="start" x="515.5" y="-88.5" font-family="Arial" font-style="italic" font-size="10.00" fill="#3f3f46">activity FSMs through shared selected&#45;project</text>
<text text-anchor="start" x="515.5" y="-77.5" font-family="Arial" font-style="italic" font-size="10.00" fill="#3f3f46">context.</text>
<text text-anchor="start" x="516.5" y="-57.5" font-family="Arial" font-weight="bold" font-size="10.00">input:</text>
<text text-anchor="start" x="544.5" y="-57.5" font-family="Arial" font-size="10.00">  workspace_id</text>
<text text-anchor="start" x="611.5" y="-57.5" font-family="Arial" font-size="8.00" fill="#94a3b8">  ID</text>
<text text-anchor="start" x="516.5" y="-45.5" font-family="Arial" font-weight="bold" font-size="10.00">query:</text>
<text text-anchor="start" x="546.5" y="-45.5" font-family="Arial" font-size="10.00">  query.project.board.list</text>
<text text-anchor="start" x="516.5" y="-33.5" font-family="Arial" font-weight="bold" font-size="10.00">load:</text>
<text text-anchor="start" x="540.5" y="-33.5" font-family="Arial" font-size="10.00">  project.list</text>
<text text-anchor="start" x="592.5" y="-33.5" font-family="Arial" font-size="8.00" fill="#94a3b8">  list[Project]</text>
<text text-anchor="start" x="516.5" y="-21.5" font-family="Arial" font-weight="bold" font-size="10.00">model:</text>
<text text-anchor="start" x="549.5" y="-21.5" font-family="Arial" font-size="10.00">  Project</text>
<text text-anchor="start" x="516.5" y="-9.5" font-family="Arial" font-weight="bold" font-size="10.00">sync:</text>
<text text-anchor="start" x="541.5" y="-9.5" font-family="Arial" font-size="10.00">  select_project_updates_fsms</text>
<polygon fill="none" stroke="#047857" points="510,0 510,-151 721,-151 721,0 510,0"/>
</g>
<!-- entrypoint_input_cli_project_board&#45;&gt;entrypoint_target_fsm_project_board -->
<g id="edge3" class="edge">
<title>entrypoint_input_cli_project_board&#45;&gt;entrypoint_target_fsm_project_board</title>
<path fill="none" stroke="#3f3f46" d="M449.29,-75.5C464.74,-75.5 483.12,-75.5 501.92,-75.5"/>
<polygon fill="#3f3f46" stroke="#3f3f46" points="502,-78.3 510,-75.5 502,-72.7 502,-78.3"/>
</g>
</g>
</svg>
