<svg width="941pt" height="312pt"
 viewBox="0.00 0.00 941.00 312.00" xmlns="http://www.w3.org/2000/svg" xmlns:xlink="http://www.w3.org/1999/xlink">
<g id="graph0" class="graph" transform="scale(1 1) rotate(0) translate(18 294)">
<title>entrypoint_cli_project_board</title>
<!-- entry_start -->
<g id="node1" class="node">
<title>entry_start</title>
<ellipse fill="none" stroke="#0891b2" cx="21" cy="-138" rx="21" ry="21"/>
<text text-anchor="middle" x="21" y="-135.8" font-family="Arial" font-size="9.00" fill="#155e75">entry</text>
</g>
<!-- entrypoint_cli_project_board -->
<g id="node2" class="node">
<title>entrypoint_cli_project_board</title>
<polygon fill="#ffffff" stroke="transparent" points="103,-97.5 103,-178.5 304,-178.5 304,-97.5 103,-97.5"/>
<polygon fill="#0891b2" stroke="transparent" points="104.5,-169 104.5,-177 303.5,-177 303.5,-169 104.5,-169"/>
<polygon fill="#ecfeff" stroke="transparent" points="104.5,-138 104.5,-169 303.5,-169 303.5,-138 104.5,-138"/>
<text text-anchor="start" x="108.5" y="-155.6" font-family="Arial" font-weight="bold" font-size="13.00">project board</text>
<text text-anchor="start" x="108.5" y="-144.6" font-family="Arial" font-size="8.00" fill="#64748b">cli entry</text>
<text text-anchor="start" x="108.5" y="-127" font-family="Arial" font-style="italic" font-size="10.00" fill="#3f3f46">CLI launcher for the Textual dispatch board.</text>
<text text-anchor="start" x="109.5" y="-107" font-family="Arial" font-weight="bold" font-size="10.00">command:</text>
<text text-anchor="start" x="159.5" y="-107" font-family="Arial" font-size="10.00">  command.fsm.project.board</text>
<polygon fill="none" stroke="#0891b2" points="103,-97.5 103,-178.5 304,-178.5 304,-97.5 103,-97.5"/>
</g>
<!-- entry_start&#45;&gt;entrypoint_cli_project_board -->
<g id="edge1" class="edge">
<title>entry_start&#45;&gt;entrypoint_cli_project_board</title>
<path fill="none" stroke="#3f3f46" d="M42.01,-138C55.54,-138 74.58,-138 94.85,-138"/>
<polygon fill="#3f3f46" stroke="#3f3f46" points="94.97,-140.8 102.97,-138 94.97,-135.2 94.97,-140.8"/>
</g>
<!-- entrypoint_input_cli_project_board -->
<g id="node3" class="node">
<title>entrypoint_input_cli_project_board</title>
<polygon fill="#ffffff" stroke="transparent" points="365,-102.5 365,-173.5 449,-173.5 449,-102.5 365,-102.5"/>
<polygon fill="#64748b" stroke="transparent" points="366,-164 366,-172 448,-172 448,-164 366,-164"/>
<polygon fill="#f8fafc" stroke="transparent" points="366,-133 366,-164 448,-164 448,-133 366,-133"/>
<text text-anchor="start" x="370" y="-150.6" font-family="Arial" font-weight="bold" font-size="13.00">entry input</text>
<text text-anchor="start" x="370" y="-139.6" font-family="Arial" font-size="8.00" fill="#64748b">external data</text>
<text text-anchor="start" x="370" y="-122" font-family="Arial" font-weight="bold" font-size="10.00">args</text>
<text text-anchor="start" x="370" y="-111" font-family="Arial" font-size="10.00">workspace_id</text>
<text text-anchor="start" x="431" y="-111" font-family="Arial" font-size="8.00" fill="#94a3b8">  ID</text>
<polygon fill="none" stroke="#64748b" points="365,-102.5 365,-173.5 449,-173.5 449,-102.5 365,-102.5"/>
</g>
<!-- entrypoint_cli_project_board&#45;&gt;entrypoint_input_cli_project_board -->
<g id="edge2" class="edge">
<title>entrypoint_cli_project_board&#45;&gt;entrypoint_input_cli_project_board</title>
<path fill="none" stroke="#3f3f46" d="M304.07,-138C322.31,-138 340.6,-138 356.55,-138"/>
<polygon fill="#3f3f46" stroke="#3f3f46" points="356.66,-140.8 364.66,-138 356.66,-135.2 356.66,-140.8"/>
</g>
<!-- entrypoint_target_fsm_project_board -->
<g id="node4" class="node">
<title>entrypoint_target_fsm_project_board</title>
<polygon fill="#ffffff" stroke="transparent" points="510,-62.5 510,-213.5 721,-213.5 721,-62.5 510,-62.5"/>
<polygon fill="#047857" stroke="transparent" points="511.5,-204 511.5,-212 720.5,-212 720.5,-204 511.5,-204"/>
<polygon fill="#ecfdf5" stroke="transparent" points="511.5,-173 511.5,-204 720.5,-204 720.5,-173 511.5,-173"/>
<text text-anchor="start" x="515.5" y="-190.6" font-family="Arial" font-weight="bold" font-size="13.00">fsm.project.board</text>
<text text-anchor="start" x="515.5" y="-179.6" font-family="Arial" font-size="8.00" fill="#64748b">target FSM (textual)</text>
<text text-anchor="start" x="515.5" y="-162" font-family="Arial" font-style="italic" font-size="10.00" fill="#3f3f46">The dispatch board composes list, detail, and</text>
<text text-anchor="start" x="515.5" y="-151" font-family="Arial" font-style="italic" font-size="10.00" fill="#3f3f46">activity FSMs through shared selected&#45;project</text>
<text text-anchor="start" x="515.5" y="-140" font-family="Arial" font-style="italic" font-size="10.00" fill="#3f3f46">context.</text>
<text text-anchor="start" x="516.5" y="-120" font-family="Arial" font-weight="bold" font-size="10.00">input:</text>
<text text-anchor="start" x="544.5" y="-120" font-family="Arial" font-size="10.00">  workspace_id</text>
<text text-anchor="start" x="611.5" y="-120" font-family="Arial" font-size="8.00" fill="#94a3b8">  ID</text>
<text text-anchor="start" x="516.5" y="-108" font-family="Arial" font-weight="bold" font-size="10.00">query:</text>
<text text-anchor="start" x="546.5" y="-108" font-family="Arial" font-size="10.00">  query.project.board.list</text>
<text text-anchor="start" x="516.5" y="-96" font-family="Arial" font-weight="bold" font-size="10.00">load:</text>
<text text-anchor="start" x="540.5" y="-96" font-family="Arial" font-size="10.00">  project.list</text>
<text text-anchor="start" x="592.5" y="-96" font-family="Arial" font-size="8.00" fill="#94a3b8">  list[Project]</text>
<text text-anchor="start" x="516.5" y="-84" font-family="Arial" font-weight="bold" font-size="10.00">resource:</text>
<text text-anchor="start" x="560.5" y="-84" font-family="Arial" font-size="10.00">  Project</text>
<text text-anchor="start" x="516.5" y="-72" font-family="Arial" font-weight="bold" font-size="10.00">sync:</text>
<text text-anchor="start" x="541.5" y="-72" font-family="Arial" font-size="10.00">  select_project_updates_fsms</text>
<polygon fill="none" stroke="#047857" points="510,-62.5 510,-213.5 721,-213.5 721,-62.5 510,-62.5"/>
</g>
<!-- entrypoint_input_cli_project_board&#45;&gt;entrypoint_target_fsm_project_board -->
<g id="edge3" class="edge">
<title>entrypoint_input_cli_project_board&#45;&gt;entrypoint_target_fsm_project_board</title>
<path fill="none" stroke="#3f3f46" d="M449.29,-138C464.74,-138 483.12,-138 501.92,-138"/>
<polygon fill="#3f3f46" stroke="#3f3f46" points="502,-140.8 510,-138 502,-135.2 502,-140.8"/>
</g>
<!-- entrypoint_mount_fsm_project_board_ready_list -->
<g id="node5" class="node">
<title>entrypoint_mount_fsm_project_board_ready_list</title>
<polygon fill="#ffffff" stroke="transparent" points="791.5,-202 791.5,-276 895.5,-276 895.5,-202 791.5,-202"/>
<polygon fill="#047857" stroke="transparent" points="792.5,-267 792.5,-275 894.5,-275 894.5,-267 792.5,-267"/>
<polygon fill="#ecfdf5" stroke="transparent" points="792.5,-236 792.5,-267 894.5,-267 894.5,-236 792.5,-236"/>
<text text-anchor="start" x="796.5" y="-253.6" font-family="Arial" font-weight="bold" font-size="13.00">list</text>
<text text-anchor="start" x="796.5" y="-242.6" font-family="Arial" font-size="8.00" fill="#64748b">nav mount</text>
<text text-anchor="start" x="797.5" y="-224" font-family="Arial" font-weight="bold" font-size="10.00">fsm:</text>
<text text-anchor="start" x="818.5" y="-224" font-family="Arial" font-size="10.00">  fsm.project.list</text>
<text text-anchor="start" x="797.5" y="-212" font-family="Arial" font-weight="bold" font-size="10.00">initial:</text>
<text text-anchor="start" x="827.5" y="-212" font-family="Arial" font-size="10.00">  loading</text>
<polygon fill="none" stroke="#047857" points="791.5,-202 791.5,-276 895.5,-276 895.5,-202 791.5,-202"/>
</g>
<!-- entrypoint_target_fsm_project_board&#45;&gt;entrypoint_mount_fsm_project_board_ready_list -->
<g id="edge4" class="edge">
<title>entrypoint_target_fsm_project_board&#45;&gt;entrypoint_mount_fsm_project_board_ready_list</title>
<path fill="none" stroke="#3f3f46" d="M721.23,-184.8C742.74,-194.42 764.65,-204.21 783.82,-212.78"/>
<polygon fill="#3f3f46" stroke="#3f3f46" points="782.86,-215.41 791.3,-216.12 785.14,-210.3 782.86,-215.41"/>
</g>
<!-- entrypoint_mount_fsm_project_board_ready_detail -->
<g id="node6" class="node">
<title>entrypoint_mount_fsm_project_board_ready_detail</title>
<polygon fill="#ffffff" stroke="transparent" points="786,-101 786,-175 901,-175 901,-101 786,-101"/>
<polygon fill="#047857" stroke="transparent" points="787.5,-166 787.5,-174 900.5,-174 900.5,-166 787.5,-166"/>
<polygon fill="#ecfdf5" stroke="transparent" points="787.5,-135 787.5,-166 900.5,-166 900.5,-135 787.5,-135"/>
<text text-anchor="start" x="791.5" y="-152.6" font-family="Arial" font-weight="bold" font-size="13.00">detail</text>
<text text-anchor="start" x="791.5" y="-141.6" font-family="Arial" font-size="8.00" fill="#64748b">main mount</text>
<text text-anchor="start" x="792.5" y="-123" font-family="Arial" font-weight="bold" font-size="10.00">fsm:</text>
<text text-anchor="start" x="813.5" y="-123" font-family="Arial" font-size="10.00">  fsm.project.detail</text>
<text text-anchor="start" x="792.5" y="-111" font-family="Arial" font-weight="bold" font-size="10.00">initial:</text>
<text text-anchor="start" x="822.5" y="-111" font-family="Arial" font-size="10.00">  none</text>
<polygon fill="none" stroke="#047857" points="786,-101 786,-175 901,-175 901,-101 786,-101"/>
</g>
<!-- entrypoint_target_fsm_project_board&#45;&gt;entrypoint_mount_fsm_project_board_ready_detail -->
<g id="edge5" class="edge">
<title>entrypoint_target_fsm_project_board&#45;&gt;entrypoint_mount_fsm_project_board_ready_detail</title>
<path fill="none" stroke="#3f3f46" d="M721.23,-138C740.38,-138 759.85,-138 777.42,-138"/>
<polygon fill="#3f3f46" stroke="#3f3f46" points="777.89,-140.8 785.89,-138 777.89,-135.2 777.89,-140.8"/>
</g>
<!-- entrypoint_mount_fsm_project_board_ready_activity -->
<g id="node7" class="node">
<title>entrypoint_mount_fsm_project_board_ready_activity</title>
<polygon fill="#ffffff" stroke="transparent" points="782,0 782,-74 905,-74 905,0 782,0"/>
<polygon fill="#047857" stroke="transparent" points="783.5,-65 783.5,-73 904.5,-73 904.5,-65 783.5,-65"/>
<polygon fill="#ecfdf5" stroke="transparent" points="783.5,-34 783.5,-65 904.5,-65 904.5,-34 783.5,-34"/>
<text text-anchor="start" x="787.5" y="-51.6" font-family="Arial" font-weight="bold" font-size="13.00">activity</text>
<text text-anchor="start" x="787.5" y="-40.6" font-family="Arial" font-size="8.00" fill="#64748b">aside mount</text>
<text text-anchor="start" x="788.5" y="-22" font-family="Arial" font-weight="bold" font-size="10.00">fsm:</text>
<text text-anchor="start" x="809.5" y="-22" font-family="Arial" font-size="10.00">  fsm.project.activity</text>
<text text-anchor="start" x="788.5" y="-10" font-family="Arial" font-weight="bold" font-size="10.00">initial:</text>
<text text-anchor="start" x="818.5" y="-10" font-family="Arial" font-size="10.00">  empty</text>
<polygon fill="none" stroke="#047857" points="782,0 782,-74 905,-74 905,0 782,0"/>
</g>
<!-- entrypoint_target_fsm_project_board&#45;&gt;entrypoint_mount_fsm_project_board_ready_activity -->
<g id="edge6" class="edge">
<title>entrypoint_target_fsm_project_board&#45;&gt;entrypoint_mount_fsm_project_board_ready_activity</title>
<path fill="none" stroke="#3f3f46" d="M721.23,-91.2C739.25,-83.14 757.56,-74.96 774.3,-67.48"/>
<polygon fill="#3f3f46" stroke="#3f3f46" points="775.71,-69.91 781.87,-64.09 773.43,-64.8 775.71,-69.91"/>
</g>
<!-- entrypoint_mount_fsm_project_board_ready_list&#45;&gt;entrypoint_mount_fsm_project_board_ready_detail -->
<!-- entrypoint_mount_fsm_project_board_ready_detail&#45;&gt;entrypoint_mount_fsm_project_board_ready_activity -->
</g>
</svg>
