<svg width="972pt" height="312pt"
 viewBox="0.00 0.00 972.00 312.00" xmlns="http://www.w3.org/2000/svg" xmlns:xlink="http://www.w3.org/1999/xlink">
<g id="graph0" class="graph" transform="scale(1 1) rotate(0) translate(18 294)">
<title>entrypoint_cli_project_board</title>
<!-- entry_start -->
<g id="node1" class="node">
<title>entry_start</title>
<ellipse fill="none" stroke="#0891b2" cx="21" cy="-138" rx="21" ry="21"/>
<text text-anchor="middle" x="21" y="-135.8" font-family="Arial" font-size="9.00" fill="#155e75">entry</text>
</g>
<!-- entrypoint_cli_project_board -->
<g id="node2" class="node">
<title>entrypoint_cli_project_board</title>
<polygon fill="#ffffff" stroke="transparent" points="103,-97.5 103,-178.5 304,-178.5 304,-97.5 103,-97.5"/>
<polygon fill="#0891b2" stroke="transparent" points="104.5,-169 104.5,-177 303.5,-177 303.5,-169 104.5,-169"/>
<polygon fill="#ecfeff" stroke="transparent" points="104.5,-138 104.5,-169 303.5,-169 303.5,-138 104.5,-138"/>
<text text-anchor="start" x="108.5" y="-155.6" font-family="Arial" font-weight="bold" font-size="13.00">project board</text>
<text text-anchor="start" x="108.5" y="-144.6" font-family="Arial" font-size="8.00" fill="#64748b">cli entry</text>
<text text-anchor="start" x="108.5" y="-127" font-family="Arial" font-style="italic" font-size="10.00" fill="#3f3f46">CLI launcher for the Textual dispatch board.</text>
<text text-anchor="start" x="109.5" y="-107" font-family="Arial" font-weight="bold" font-size="10.00">command:</text>
<text text-anchor="start" x="159.5" y="-107" font-family="Arial" font-size="10.00">  command.project.board</text>
<polygon fill="none" stroke="#0891b2" points="103,-97.5 103,-178.5 304,-178.5 304,-97.5 103,-97.5"/>
</g>
<!-- entry_start&#45;&gt;entrypoint_cli_project_board -->
<g id="edge1" class="edge">
<title>entry_start&#45;&gt;entrypoint_cli_project_board</title>
<path fill="none" stroke="#3f3f46" d="M42.01,-138C55.54,-138 74.58,-138 94.85,-138"/>
<polygon fill="#3f3f46" stroke="#3f3f46" points="94.97,-140.8 102.97,-138 94.97,-135.2 94.97,-140.8"/>
</g>
<!-- entrypoint_input_cli_project_board -->
<g id="node3" class="node">
<title>entrypoint_input_cli_project_board</title>
<polygon fill="#ffffff" stroke="transparent" points="365,-102.5 365,-173.5 449,-173.5 449,-102.5 365,-102.5"/>
<polygon fill="#64748b" stroke="transparent" points="366,-164 366,-172 448,-172 448,-164 366,-164"/>
<polygon fill="#f8fafc" stroke="transparent" points="366,-133 366,-164 448,-164 448,-133 366,-133"/>
<text text-anchor="start" x="370" y="-150.6" font-family="Arial" font-weight="bold" font-size="13.00">entry input</text>
<text text-anchor="start" x="370" y="-139.6" font-family="Arial" font-size="8.00" fill="#64748b">external data</text>
<text text-anchor="start" x="370" y="-122" font-family="Arial" font-weight="bold" font-size="10.00">args</text>
<text text-anchor="start" x="370" y="-111" font-family="Arial" font-size="10.00">workspace_id</text>
<text text-anchor="start" x="431" y="-111" font-family="Arial" font-size="8.00" fill="#94a3b8">  ID</text>
<polygon fill="none" stroke="#64748b" points="365,-102.5 365,-173.5 449,-173.5 449,-102.5 365,-102.5"/>
</g>
<!-- entrypoint_cli_project_board&#45;&gt;entrypoint_input_cli_project_board -->
<g id="edge2" class="edge">
<title>entrypoint_cli_project_board&#45;&gt;entrypoint_input_cli_project_board</title>
<path fill="none" stroke="#3f3f46" d="M304.07,-138C322.31,-138 340.6,-138 356.55,-138"/>
<polygon fill="#3f3f46" stroke="#3f3f46" points="356.66,-140.8 364.66,-138 356.66,-135.2 356.66,-140.8"/>
</g>
<!-- entrypoint_target_project_board -->
<g id="node4" class="node">
<title>entrypoint_target_project_board</title>
<polygon fill="#ffffff" stroke="transparent" points="510,-62.5 510,-213.5 723,-213.5 723,-62.5 510,-62.5"/>
<polygon fill="#047857" stroke="transparent" points="511.5,-204 511.5,-212 722.5,-212 722.5,-204 511.5,-204"/>
<polygon fill="#ecfdf5" stroke="transparent" points="511.5,-173 511.5,-204 722.5,-204 722.5,-173 511.5,-173"/>
<text text-anchor="start" x="515.5" y="-190.6" font-family="Arial" font-weight="bold" font-size="13.00">project.board</text>
<text text-anchor="start" x="515.5" y="-179.6" font-family="Arial" font-size="8.00" fill="#64748b">target view (textual)</text>
<text text-anchor="start" x="515.5" y="-162" font-family="Arial" font-style="italic" font-size="10.00" fill="#3f3f46">The dispatch board composes list, detail, and</text>
<text text-anchor="start" x="515.5" y="-151" font-family="Arial" font-style="italic" font-size="10.00" fill="#3f3f46">activity panels through shared selected&#45;project</text>
<text text-anchor="start" x="515.5" y="-140" font-family="Arial" font-style="italic" font-size="10.00" fill="#3f3f46">context.</text>
<text text-anchor="start" x="516.5" y="-120" font-family="Arial" font-weight="bold" font-size="10.00">input:</text>
<text text-anchor="start" x="544.5" y="-120" font-family="Arial" font-size="10.00">  workspace_id</text>
<text text-anchor="start" x="611.5" y="-120" font-family="Arial" font-size="8.00" fill="#94a3b8">  ID</text>
<text text-anchor="start" x="516.5" y="-108" font-family="Arial" font-weight="bold" font-size="10.00">query:</text>
<text text-anchor="start" x="546.5" y="-108" font-family="Arial" font-size="10.00">  query.project.board.list</text>
<text text-anchor="start" x="516.5" y="-96" font-family="Arial" font-weight="bold" font-size="10.00">load:</text>
<text text-anchor="start" x="540.5" y="-96" font-family="Arial" font-size="10.00">  project.list</text>
<text text-anchor="start" x="592.5" y="-96" font-family="Arial" font-size="8.00" fill="#94a3b8">  list[Project]</text>
<text text-anchor="start" x="516.5" y="-84" font-family="Arial" font-weight="bold" font-size="10.00">resource:</text>
<text text-anchor="start" x="560.5" y="-84" font-family="Arial" font-size="10.00">  Project</text>
<text text-anchor="start" x="516.5" y="-72" font-family="Arial" font-weight="bold" font-size="10.00">sync:</text>
<text text-anchor="start" x="541.5" y="-72" font-family="Arial" font-size="10.00">  select_project_updates_panels</text>
<polygon fill="none" stroke="#047857" points="510,-62.5 510,-213.5 723,-213.5 723,-62.5 510,-62.5"/>
</g>
<!-- entrypoint_input_cli_project_board&#45;&gt;entrypoint_target_project_board -->
<g id="edge3" class="edge">
<title>entrypoint_input_cli_project_board&#45;&gt;entrypoint_target_project_board</title>
<path fill="none" stroke="#3f3f46" d="M449.49,-138C464.81,-138 483,-138 501.62,-138"/>
<polygon fill="#3f3f46" stroke="#3f3f46" points="501.63,-140.8 509.63,-138 501.63,-135.2 501.63,-140.8"/>
</g>
<!-- entrypoint_instance_project_board_list -->
<g id="node5" class="node">
<title>entrypoint_instance_project_board_list</title>
<polygon fill="#ffffff" stroke="transparent" points="793.5,-202 793.5,-276 926.5,-276 926.5,-202 793.5,-202"/>
<polygon fill="#047857" stroke="transparent" points="795,-267 795,-275 926,-275 926,-267 795,-267"/>
<polygon fill="#ecfdf5" stroke="transparent" points="795,-236 795,-267 926,-267 926,-236 795,-236"/>
<text text-anchor="start" x="799" y="-253.6" font-family="Arial" font-weight="bold" font-size="13.00">nav</text>
<text text-anchor="start" x="799" y="-242.6" font-family="Arial" font-size="8.00" fill="#64748b">region</text>
<text text-anchor="start" x="800" y="-224" font-family="Arial" font-weight="bold" font-size="10.00">instance:</text>
<text text-anchor="start" x="843" y="-224" font-family="Arial" font-size="10.00">  panel.project.list</text>
<text text-anchor="start" x="800" y="-212" font-family="Arial" font-weight="bold" font-size="10.00">initial:</text>
<text text-anchor="start" x="830" y="-212" font-family="Arial" font-size="10.00">  loading</text>
<polygon fill="none" stroke="#047857" points="793.5,-202 793.5,-276 926.5,-276 926.5,-202 793.5,-202"/>
</g>
<!-- entrypoint_target_project_board&#45;&gt;entrypoint_instance_project_board_list -->
<g id="edge4" class="edge">
<title>entrypoint_target_project_board&#45;&gt;entrypoint_instance_project_board_list</title>
<path fill="none" stroke="#3f3f46" d="M723.07,-182.15C744.23,-191 766.02,-200.11 785.79,-208.38"/>
<polygon fill="#3f3f46" stroke="#3f3f46" points="784.8,-211 793.26,-211.51 786.96,-205.84 784.8,-211"/>
</g>
<!-- entrypoint_instance_project_board_detail -->
<g id="node6" class="node">
<title>entrypoint_instance_project_board_detail</title>
<polygon fill="#ffffff" stroke="transparent" points="788.5,-101 788.5,-175 931.5,-175 931.5,-101 788.5,-101"/>
<polygon fill="#047857" stroke="transparent" points="790,-166 790,-174 931,-174 931,-166 790,-166"/>
<polygon fill="#ecfdf5" stroke="transparent" points="790,-135 790,-166 931,-166 931,-135 790,-135"/>
<text text-anchor="start" x="794" y="-152.6" font-family="Arial" font-weight="bold" font-size="13.00">main</text>
<text text-anchor="start" x="794" y="-141.6" font-family="Arial" font-size="8.00" fill="#64748b">region</text>
<text text-anchor="start" x="795" y="-123" font-family="Arial" font-weight="bold" font-size="10.00">instance:</text>
<text text-anchor="start" x="838" y="-123" font-family="Arial" font-size="10.00">  panel.project.detail</text>
<text text-anchor="start" x="795" y="-111" font-family="Arial" font-weight="bold" font-size="10.00">initial:</text>
<text text-anchor="start" x="825" y="-111" font-family="Arial" font-size="10.00">  none</text>
<polygon fill="none" stroke="#047857" points="788.5,-101 788.5,-175 931.5,-175 931.5,-101 788.5,-101"/>
</g>
<!-- entrypoint_target_project_board&#45;&gt;entrypoint_instance_project_board_detail -->
<g id="edge5" class="edge">
<title>entrypoint_target_project_board&#45;&gt;entrypoint_instance_project_board_detail</title>
<path fill="none" stroke="#3f3f46" d="M723.07,-138C742.23,-138 761.89,-138 780.11,-138"/>
<polygon fill="#3f3f46" stroke="#3f3f46" points="780.37,-140.8 788.37,-138 780.37,-135.2 780.37,-140.8"/>
</g>
<!-- entrypoint_instance_project_board_activity -->
<g id="node7" class="node">
<title>entrypoint_instance_project_board_activity</title>
<polygon fill="#ffffff" stroke="transparent" points="784,0 784,-74 936,-74 936,0 784,0"/>
<polygon fill="#047857" stroke="transparent" points="785,-65 785,-73 935,-73 935,-65 785,-65"/>
<polygon fill="#ecfdf5" stroke="transparent" points="785,-34 785,-65 935,-65 935,-34 785,-34"/>
<text text-anchor="start" x="789" y="-51.6" font-family="Arial" font-weight="bold" font-size="13.00">aside</text>
<text text-anchor="start" x="789" y="-40.6" font-family="Arial" font-size="8.00" fill="#64748b">region</text>
<text text-anchor="start" x="790" y="-22" font-family="Arial" font-weight="bold" font-size="10.00">instance:</text>
<text text-anchor="start" x="833" y="-22" font-family="Arial" font-size="10.00">  panel.project.activity</text>
<text text-anchor="start" x="790" y="-10" font-family="Arial" font-weight="bold" font-size="10.00">initial:</text>
<text text-anchor="start" x="820" y="-10" font-family="Arial" font-size="10.00">  empty</text>
<polygon fill="none" stroke="#047857" points="784,0 784,-74 936,-74 936,0 784,0"/>
</g>
<!-- entrypoint_target_project_board&#45;&gt;entrypoint_instance_project_board_activity -->
<g id="edge6" class="edge">
<title>entrypoint_target_project_board&#45;&gt;entrypoint_instance_project_board_activity</title>
<path fill="none" stroke="#3f3f46" d="M723.07,-93.85C740.79,-86.44 758.96,-78.84 776.01,-71.71"/>
<polygon fill="#3f3f46" stroke="#3f3f46" points="777.45,-74.14 783.75,-68.47 775.29,-68.97 777.45,-74.14"/>
</g>
<!-- entrypoint_instance_project_board_list&#45;&gt;entrypoint_instance_project_board_detail -->
<!-- entrypoint_instance_project_board_detail&#45;&gt;entrypoint_instance_project_board_activity -->
</g>
</svg>
