<svg width="395pt" height="482pt"
 viewBox="0.00 0.00 395.00 482.00" xmlns="http://www.w3.org/2000/svg" xmlns:xlink="http://www.w3.org/1999/xlink">
<!-- pyspec-contract-input-sha256: 6e051291d7e3dacb8e9d9d20f9f6d425cb57dec5a1455f4474e59a90b5d98d42 -->
<g id="graph0" class="graph" transform="scale(1 1) rotate(0) translate(18 464)">
<title>query_query_project_list</title>
<!-- query_input_query_project_list -->
<g id="node1" class="node">
<title>query_input_query_project_list</title>
<polygon fill="#ffffff" stroke="transparent" points="0,-166 0,-237 96,-237 96,-166 0,-166"/>
<polygon fill="#64748b" stroke="transparent" points="1,-227.5 1,-235.5 95,-235.5 95,-227.5 1,-227.5"/>
<polygon fill="#f8fafc" stroke="transparent" points="1,-196.5 1,-227.5 95,-227.5 95,-196.5 1,-196.5"/>
<text text-anchor="start" x="5" y="-214.1" font-family="Arial" font-weight="bold" font-size="13.00">input</text>
<text text-anchor="start" x="5" y="-203.1" font-family="Arial" font-size="8.00" fill="#64748b">query input</text>
<text text-anchor="start" x="5" y="-185.5" font-family="Arial" font-weight="bold" font-size="10.00">fields</text>
<text text-anchor="start" x="5" y="-174.5" font-family="Arial" font-size="10.00">workspace_id</text>
<text text-anchor="start" x="66" y="-174.5" font-family="Arial" font-size="8.00" fill="#94a3b8">  string</text>
<polygon fill="none" stroke="#64748b" points="0,-166 0,-237 96,-237 96,-166 0,-166"/>
</g>
<!-- query_outcome_query_project_list_access_denied -->
<g id="node2" class="node">
<title>query_outcome_query_project_list_access_denied</title>
<polygon fill="#ffffff" stroke="transparent" points="223.5,-375 223.5,-446 330.5,-446 330.5,-375 223.5,-375"/>
<polygon fill="#dc2626" stroke="transparent" points="225,-436.5 225,-444.5 330,-444.5 330,-436.5 225,-436.5"/>
<polygon fill="#fef2f2" stroke="transparent" points="225,-405.5 225,-436.5 330,-436.5 330,-405.5 225,-405.5"/>
<text text-anchor="start" x="229" y="-423.1" font-family="Arial" font-weight="bold" font-size="13.00">access_denied</text>
<text text-anchor="start" x="229" y="-412.1" font-family="Arial" font-size="8.00" fill="#64748b">failure outcome</text>
<text text-anchor="start" x="229" y="-394.5" font-family="Arial" font-weight="bold" font-size="10.00">result</text>
<text text-anchor="start" x="229" y="-383.5" font-family="Arial" font-size="10.00">result</text>
<text text-anchor="start" x="254" y="-383.5" font-family="Arial" font-size="8.00" fill="#94a3b8">  Problem</text>
<polygon fill="none" stroke="#dc2626" points="223.5,-375 223.5,-446 330.5,-446 330.5,-375 223.5,-375"/>
</g>
<!-- query_input_query_project_list&#45;&gt;query_outcome_query_project_list_access_denied -->
<g id="edge1" class="edge">
<title>query_input_query_project_list&#45;&gt;query_outcome_query_project_list_access_denied</title>
<path fill="none" stroke="#3f3f46" d="M87.76,-237.19C127.59,-273.86 189.52,-330.88 231.37,-369.41"/>
<polygon fill="#3f3f46" stroke="#3f3f46" points="229.61,-371.6 237.4,-374.96 233.41,-367.48 229.61,-371.6"/>
<text text-anchor="middle" x="145.5" y="-308.5" font-family="Arial" font-size="10.00">failure</text>
</g>
<!-- query_outcome_query_project_list_authentication_required -->
<g id="node3" class="node">
<title>query_outcome_query_project_list_authentication_required</title>
<polygon fill="#ffffff" stroke="transparent" points="195,-250 195,-321 359,-321 359,-250 195,-250"/>
<polygon fill="#dc2626" stroke="transparent" points="196,-311.5 196,-319.5 358,-319.5 358,-311.5 196,-311.5"/>
<polygon fill="#fef2f2" stroke="transparent" points="196,-280.5 196,-311.5 358,-311.5 358,-280.5 196,-280.5"/>
<text text-anchor="start" x="200" y="-298.1" font-family="Arial" font-weight="bold" font-size="13.00">authentication_required</text>
<text text-anchor="start" x="200" y="-287.1" font-family="Arial" font-size="8.00" fill="#64748b">failure outcome</text>
<text text-anchor="start" x="200" y="-269.5" font-family="Arial" font-weight="bold" font-size="10.00">result</text>
<text text-anchor="start" x="200" y="-258.5" font-family="Arial" font-size="10.00">result</text>
<text text-anchor="start" x="225" y="-258.5" font-family="Arial" font-size="8.00" fill="#94a3b8">  Problem</text>
<polygon fill="none" stroke="#dc2626" points="195,-250 195,-321 359,-321 359,-250 195,-250"/>
</g>
<!-- query_input_query_project_list&#45;&gt;query_outcome_query_project_list_authentication_required -->
<g id="edge2" class="edge">
<title>query_input_query_project_list&#45;&gt;query_outcome_query_project_list_authentication_required</title>
<path fill="none" stroke="#3f3f46" d="M96.03,-218.9C122.25,-228.61 155.78,-241.01 186.77,-252.48"/>
<polygon fill="#3f3f46" stroke="#3f3f46" points="186.11,-255.22 194.59,-255.37 188.06,-249.97 186.11,-255.22"/>
<text text-anchor="middle" x="145.5" y="-246.5" font-family="Arial" font-size="10.00">failure</text>
</g>
<!-- query_outcome_query_project_list_listed -->
<g id="node4" class="node">
<title>query_outcome_query_project_list_listed</title>
<polygon fill="#ffffff" stroke="transparent" points="230.5,-125 230.5,-196 323.5,-196 323.5,-125 230.5,-125"/>
<polygon fill="#16a34a" stroke="transparent" points="232,-186.5 232,-194.5 323,-194.5 323,-186.5 232,-186.5"/>
<polygon fill="#f0fdf4" stroke="transparent" points="232,-155.5 232,-186.5 323,-186.5 323,-155.5 232,-155.5"/>
<text text-anchor="start" x="236" y="-173.1" font-family="Arial" font-weight="bold" font-size="13.00">listed</text>
<text text-anchor="start" x="236" y="-162.1" font-family="Arial" font-size="8.00" fill="#64748b">success outcome</text>
<text text-anchor="start" x="236" y="-144.5" font-family="Arial" font-weight="bold" font-size="10.00">result</text>
<text text-anchor="start" x="236" y="-133.5" font-family="Arial" font-size="10.00">result</text>
<text text-anchor="start" x="261" y="-133.5" font-family="Arial" font-size="8.00" fill="#94a3b8">  array&lt;Project&gt;</text>
<polygon fill="none" stroke="#16a34a" points="230.5,-125 230.5,-196 323.5,-196 323.5,-125 230.5,-125"/>
</g>
<!-- query_input_query_project_list&#45;&gt;query_outcome_query_project_list_listed -->
<g id="edge3" class="edge">
<title>query_input_query_project_list&#45;&gt;query_outcome_query_project_list_listed</title>
<path fill="none" stroke="#3f3f46" d="M96.03,-193C132.77,-186.37 183.85,-177.14 222.21,-170.22"/>
<polygon fill="#3f3f46" stroke="#3f3f46" points="222.81,-172.95 230.19,-168.77 221.82,-167.44 222.81,-172.95"/>
<text text-anchor="middle" x="145.5" y="-189.5" font-family="Arial" font-size="10.00">success</text>
</g>
<!-- query_outcome_query_project_list_unavailable -->
<g id="node5" class="node">
<title>query_outcome_query_project_list_unavailable</title>
<polygon fill="#ffffff" stroke="transparent" points="235,0 235,-71 319,-71 319,0 235,0"/>
<polygon fill="#dc2626" stroke="transparent" points="236,-61.5 236,-69.5 318,-69.5 318,-61.5 236,-61.5"/>
<polygon fill="#fef2f2" stroke="transparent" points="236,-30.5 236,-61.5 318,-61.5 318,-30.5 236,-30.5"/>
<text text-anchor="start" x="240" y="-48.1" font-family="Arial" font-weight="bold" font-size="13.00">unavailable</text>
<text text-anchor="start" x="240" y="-37.1" font-family="Arial" font-size="8.00" fill="#64748b">failure outcome</text>
<text text-anchor="start" x="240" y="-19.5" font-family="Arial" font-weight="bold" font-size="10.00">result</text>
<text text-anchor="start" x="240" y="-8.5" font-family="Arial" font-size="10.00">result</text>
<text text-anchor="start" x="265" y="-8.5" font-family="Arial" font-size="8.00" fill="#94a3b8">  Problem</text>
<polygon fill="none" stroke="#dc2626" points="235,0 235,-71 319,-71 319,0 235,0"/>
</g>
<!-- query_input_query_project_list&#45;&gt;query_outcome_query_project_list_unavailable -->
<g id="edge4" class="edge">
<title>query_input_query_project_list&#45;&gt;query_outcome_query_project_list_unavailable</title>
<path fill="none" stroke="#3f3f46" d="M96.03,-167.1C134.7,-138.83 189.27,-98.93 228.16,-70.49"/>
<polygon fill="#3f3f46" stroke="#3f3f46" points="229.94,-72.65 234.74,-65.67 226.63,-68.13 229.94,-72.65"/>
<text text-anchor="middle" x="145.5" y="-145.5" font-family="Arial" font-size="10.00">failure</text>
</g>
<!-- query_outcome_query_project_list_access_denied&#45;&gt;query_outcome_query_project_list_authentication_required -->
<!-- query_outcome_query_project_list_authentication_required&#45;&gt;query_outcome_query_project_list_listed -->
<!-- query_outcome_query_project_list_listed&#45;&gt;query_outcome_query_project_list_unavailable -->
</g>
</svg>
