<svg width="1473pt" height="383pt"
 viewBox="0.00 0.00 1473.00 383.27" xmlns="http://www.w3.org/2000/svg" xmlns:xlink="http://www.w3.org/1999/xlink">
<g id="graph0" class="graph" transform="scale(1 1) rotate(0) translate(18 365.27)">
<title>fsm_fsm_project_detail</title>
<!-- initial -->
<g id="node1" class="node">
<title>initial</title>
<ellipse fill="none" stroke="#0891b2" cx="21" cy="-49.77" rx="21" ry="21"/>
<text text-anchor="middle" x="21" y="-47.57" font-family="Arial" font-size="9.00" fill="#155e75">initial</text>
</g>
<!-- state_none -->
<g id="node4" class="node">
<title>state_none</title>
<polygon fill="#ffffff" stroke="transparent" points="103,-8.77 103,-90.77 253,-90.77 253,-8.77 103,-8.77"/>
<polygon fill="#0891b2" stroke="transparent" points="104,-81.77 104,-89.77 252,-89.77 252,-81.77 104,-81.77"/>
<polygon fill="#ecfeff" stroke="transparent" points="104,-50.77 104,-81.77 252,-81.77 252,-50.77 104,-50.77"/>
<text text-anchor="start" x="108" y="-68.37" font-family="Arial" font-weight="bold" font-size="13.00">none</text>
<text text-anchor="start" x="108" y="-57.37" font-family="Arial" font-size="8.00" fill="#64748b">initial state</text>
<text text-anchor="start" x="108" y="-39.77" font-family="Arial" font-weight="bold" font-size="10.00">copy</text>
<text text-anchor="start" x="108" y="-27.77" font-family="Arial" font-size="10.00">copy.project.detail.none.heading</text>
<text text-anchor="start" x="108" y="-16.77" font-family="Arial" font-size="10.00">copy.project.detail.none.body</text>
<polygon fill="none" stroke="#0891b2" points="103,-8.77 103,-90.77 253,-90.77 253,-8.77 103,-8.77"/>
</g>
<!-- initial&#45;&gt;state_none -->
<g id="edge1" class="edge">
<title>initial&#45;&gt;state_none</title>
<path fill="none" stroke="#3f3f46" d="M42.26,-49.77C55.97,-49.77 75.06,-49.77 94.58,-49.77"/>
<polygon fill="#3f3f46" stroke="#3f3f46" points="94.66,-52.57 102.66,-49.77 94.66,-46.97 94.66,-52.57"/>
</g>
<!-- state_error -->
<g id="node2" class="node">
<title>state_error</title>
<polygon fill="#ffffff" stroke="transparent" points="1067.5,-48.77 1067.5,-130.77 1216.5,-130.77 1216.5,-48.77 1067.5,-48.77"/>
<polygon fill="#71717a" stroke="transparent" points="1069,-121.77 1069,-129.77 1216,-129.77 1216,-121.77 1069,-121.77"/>
<polygon fill="#f8fafc" stroke="transparent" points="1069,-90.77 1069,-121.77 1216,-121.77 1216,-90.77 1069,-90.77"/>
<text text-anchor="start" x="1073" y="-108.37" font-family="Arial" font-weight="bold" font-size="13.00">error</text>
<text text-anchor="start" x="1073" y="-97.37" font-family="Arial" font-size="8.00" fill="#64748b">state</text>
<text text-anchor="start" x="1073" y="-79.77" font-family="Arial" font-weight="bold" font-size="10.00">copy</text>
<text text-anchor="start" x="1073" y="-67.77" font-family="Arial" font-size="10.00">copy.project.detail.error.heading</text>
<text text-anchor="start" x="1073" y="-56.77" font-family="Arial" font-size="10.00">copy.project.detail.error.body</text>
<polygon fill="none" stroke="#71717a" points="1067.5,-48.77 1067.5,-130.77 1216.5,-130.77 1216.5,-48.77 1067.5,-48.77"/>
</g>
<!-- state_loading -->
<g id="node3" class="node">
<title>state_loading</title>
<polygon fill="#ffffff" stroke="transparent" points="556,-60.77 556,-122.77 756,-122.77 756,-60.77 556,-60.77"/>
<polygon fill="#71717a" stroke="transparent" points="557,-113.77 557,-121.77 755,-121.77 755,-113.77 557,-113.77"/>
<polygon fill="#f8fafc" stroke="transparent" points="557,-82.77 557,-113.77 755,-113.77 755,-82.77 557,-82.77"/>
<text text-anchor="start" x="561" y="-100.37" font-family="Arial" font-weight="bold" font-size="13.00">loading</text>
<text text-anchor="start" x="561" y="-89.37" font-family="Arial" font-size="8.00" fill="#64748b">state</text>
<text text-anchor="start" x="562" y="-70.77" font-family="Arial" font-weight="bold" font-size="10.00">copy:</text>
<text text-anchor="start" x="588" y="-70.77" font-family="Arial" font-size="10.00">  copy.project.detail.loading.message</text>
<polygon fill="none" stroke="#71717a" points="556,-60.77 556,-122.77 756,-122.77 756,-60.77 556,-60.77"/>
</g>
<!-- transition_1_loading_ready_data_ready -->
<g id="node7" class="node">
<title>transition_1_loading_ready_data_ready</title>
<polygon fill="#ffffff" stroke="transparent" points="817,-185.77 817,-271.77 969,-271.77 969,-185.77 817,-185.77"/>
<polygon fill="#2563eb" stroke="transparent" points="818,-262.77 818,-270.77 968,-270.77 968,-262.77 818,-262.77"/>
<polygon fill="#eff6ff" stroke="transparent" points="818,-231.77 818,-262.77 968,-262.77 968,-231.77 818,-231.77"/>
<text text-anchor="start" x="822" y="-249.37" font-family="Arial" font-weight="bold" font-size="13.00">data.ready</text>
<text text-anchor="start" x="822" y="-238.37" font-family="Arial" font-size="8.00" fill="#64748b">transition event</text>
<text text-anchor="start" x="823" y="-219.77" font-family="Arial" font-weight="bold" font-size="10.00">input:</text>
<text text-anchor="start" x="851" y="-219.77" font-family="Arial" font-size="10.00">  project_id</text>
<text text-anchor="start" x="900" y="-219.77" font-family="Arial" font-size="8.00" fill="#94a3b8">  ID</text>
<text text-anchor="start" x="823" y="-207.77" font-family="Arial" font-weight="bold" font-size="10.00">query:</text>
<text text-anchor="start" x="853" y="-207.77" font-family="Arial" font-size="10.00">  query.project.detail.read</text>
<text text-anchor="start" x="823" y="-195.77" font-family="Arial" font-weight="bold" font-size="10.00">load:</text>
<text text-anchor="start" x="847" y="-195.77" font-family="Arial" font-size="10.00">  project.read</text>
<text text-anchor="start" x="905" y="-195.77" font-family="Arial" font-size="8.00" fill="#94a3b8">  Project</text>
<polygon fill="none" stroke="#2563eb" points="817,-185.77 817,-271.77 969,-271.77 969,-185.77 817,-185.77"/>
</g>
<!-- state_loading&#45;&gt;transition_1_loading_ready_data_ready -->
<g id="edge4" class="edge">
<title>state_loading&#45;&gt;transition_1_loading_ready_data_ready</title>
<path fill="none" stroke="#3f3f46" d="M710.33,-122.86C740.04,-140.18 777.64,-162.1 810.92,-181.5"/>
<polygon fill="#3f3f46" stroke="#3f3f46" points="809.63,-183.99 817.95,-185.6 812.45,-179.15 809.63,-183.99"/>
</g>
<!-- transition_2_loading_error_data_error -->
<g id="node8" class="node">
<title>transition_2_loading_error_data_error</title>
<polygon fill="#ffffff" stroke="transparent" points="817,-48.77 817,-134.77 969,-134.77 969,-48.77 817,-48.77"/>
<polygon fill="#2563eb" stroke="transparent" points="818,-125.77 818,-133.77 968,-133.77 968,-125.77 818,-125.77"/>
<polygon fill="#eff6ff" stroke="transparent" points="818,-94.77 818,-125.77 968,-125.77 968,-94.77 818,-94.77"/>
<text text-anchor="start" x="822" y="-112.37" font-family="Arial" font-weight="bold" font-size="13.00">data.error</text>
<text text-anchor="start" x="822" y="-101.37" font-family="Arial" font-size="8.00" fill="#64748b">transition event</text>
<text text-anchor="start" x="823" y="-82.77" font-family="Arial" font-weight="bold" font-size="10.00">input:</text>
<text text-anchor="start" x="851" y="-82.77" font-family="Arial" font-size="10.00">  project_id</text>
<text text-anchor="start" x="900" y="-82.77" font-family="Arial" font-size="8.00" fill="#94a3b8">  ID</text>
<text text-anchor="start" x="823" y="-70.77" font-family="Arial" font-weight="bold" font-size="10.00">query:</text>
<text text-anchor="start" x="853" y="-70.77" font-family="Arial" font-size="10.00">  query.project.detail.read</text>
<text text-anchor="start" x="823" y="-58.77" font-family="Arial" font-weight="bold" font-size="10.00">load:</text>
<text text-anchor="start" x="847" y="-58.77" font-family="Arial" font-size="10.00">  project.read</text>
<text text-anchor="start" x="905" y="-58.77" font-family="Arial" font-size="8.00" fill="#94a3b8">  Project</text>
<polygon fill="none" stroke="#2563eb" points="817,-48.77 817,-134.77 969,-134.77 969,-48.77 817,-48.77"/>
</g>
<!-- state_loading&#45;&gt;transition_2_loading_error_data_error -->
<g id="edge6" class="edge">
<title>state_loading&#45;&gt;transition_2_loading_error_data_error</title>
<path fill="none" stroke="#3f3f46" d="M756.32,-91.77C773.76,-91.77 791.75,-91.77 808.69,-91.77"/>
<polygon fill="#3f3f46" stroke="#3f3f46" points="808.92,-94.57 816.92,-91.77 808.92,-88.97 808.92,-94.57"/>
</g>
<!-- transition_0_none_loading_project_selection_changed -->
<g id="node6" class="node">
<title>transition_0_none_loading_project_selection_changed</title>
<polygon fill="#ffffff" stroke="transparent" points="314,-48.77 314,-134.77 495,-134.77 495,-48.77 314,-48.77"/>
<polygon fill="#2563eb" stroke="transparent" points="315.5,-125.77 315.5,-133.77 494.5,-133.77 494.5,-125.77 315.5,-125.77"/>
<polygon fill="#eff6ff" stroke="transparent" points="315.5,-94.77 315.5,-125.77 494.5,-125.77 494.5,-94.77 315.5,-94.77"/>
<text text-anchor="start" x="319.5" y="-112.37" font-family="Arial" font-weight="bold" font-size="13.00">project.selection_changed</text>
<text text-anchor="start" x="319.5" y="-101.37" font-family="Arial" font-size="8.00" fill="#64748b">transition event</text>
<text text-anchor="start" x="320.5" y="-82.77" font-family="Arial" font-weight="bold" font-size="10.00">input:</text>
<text text-anchor="start" x="348.5" y="-82.77" font-family="Arial" font-size="10.00">  project_id</text>
<text text-anchor="start" x="397.5" y="-82.77" font-family="Arial" font-size="8.00" fill="#94a3b8">  ID</text>
<text text-anchor="start" x="320.5" y="-70.77" font-family="Arial" font-weight="bold" font-size="10.00">query:</text>
<text text-anchor="start" x="350.5" y="-70.77" font-family="Arial" font-size="10.00">  query.project.detail.read</text>
<text text-anchor="start" x="320.5" y="-58.77" font-family="Arial" font-weight="bold" font-size="10.00">load:</text>
<text text-anchor="start" x="344.5" y="-58.77" font-family="Arial" font-size="10.00">  project.read</text>
<text text-anchor="start" x="402.5" y="-58.77" font-family="Arial" font-size="8.00" fill="#94a3b8">  Project</text>
<polygon fill="none" stroke="#2563eb" points="314,-48.77 314,-134.77 495,-134.77 495,-48.77 314,-48.77"/>
</g>
<!-- state_none&#45;&gt;transition_0_none_loading_project_selection_changed -->
<g id="edge2" class="edge">
<title>state_none&#45;&gt;transition_0_none_loading_project_selection_changed</title>
<path fill="none" stroke="#3f3f46" d="M253.13,-63.64C269.97,-66.79 288.1,-70.18 305.75,-73.48"/>
<polygon fill="#3f3f46" stroke="#3f3f46" points="305.44,-76.27 313.81,-74.99 306.47,-70.77 305.44,-76.27"/>
</g>
<!-- state_ready -->
<g id="node5" class="node">
<title>state_ready</title>
<polygon fill="#ffffff" stroke="transparent" points="1030,-158.27 1030,-347.27 1254,-347.27 1254,-158.27 1030,-158.27"/>
<polygon fill="#71717a" stroke="transparent" points="1031,-337.77 1031,-345.77 1253,-345.77 1253,-337.77 1031,-337.77"/>
<polygon fill="#f8fafc" stroke="transparent" points="1031,-306.77 1031,-337.77 1253,-337.77 1253,-306.77 1031,-306.77"/>
<text text-anchor="start" x="1035" y="-324.37" font-family="Arial" font-weight="bold" font-size="13.00">ready</text>
<text text-anchor="start" x="1035" y="-313.37" font-family="Arial" font-size="8.00" fill="#64748b">state</text>
<text text-anchor="start" x="1036" y="-294.77" font-family="Arial" font-weight="bold" font-size="10.00">copy:</text>
<text text-anchor="start" x="1062" y="-294.77" font-family="Arial" font-size="10.00">  copy.project.detail.ready.heading</text>
<text text-anchor="start" x="1036" y="-282.77" font-family="Arial" font-weight="bold" font-size="10.00">assets:</text>
<text text-anchor="start" x="1069" y="-282.77" font-family="Arial" font-size="10.00">  asset.project.detail.ready.priority_badge</text>
<text text-anchor="start" x="1035" y="-262.77" font-family="Arial" font-weight="bold" font-size="10.00">project.read fields</text>
<text text-anchor="start" x="1035" y="-251.77" font-family="Arial" font-size="10.00">title</text>
<text text-anchor="start" x="1051" y="-251.77" font-family="Arial" font-size="8.00" fill="#94a3b8">  Text</text>
<text text-anchor="start" x="1035" y="-240.77" font-family="Arial" font-size="10.00">customer</text>
<text text-anchor="start" x="1076" y="-240.77" font-family="Arial" font-size="8.00" fill="#94a3b8">  Text</text>
<text text-anchor="start" x="1035" y="-229.77" font-family="Arial" font-size="10.00">status</text>
<text text-anchor="start" x="1063" y="-229.77" font-family="Arial" font-size="8.00" fill="#94a3b8">  ProjectStatus</text>
<text text-anchor="start" x="1035" y="-218.77" font-family="Arial" font-size="10.00">assignee</text>
<text text-anchor="start" x="1075" y="-218.77" font-family="Arial" font-size="8.00" fill="#94a3b8">  Text</text>
<text text-anchor="start" x="1035" y="-207.77" font-family="Arial" font-size="10.00">summary</text>
<text text-anchor="start" x="1076" y="-207.77" font-family="Arial" font-size="8.00" fill="#94a3b8">  Text</text>
<text text-anchor="start" x="1035" y="-188.77" font-family="Arial" font-weight="bold" font-size="10.00">actions</text>
<text text-anchor="start" x="1035" y="-177.77" font-family="Arial" font-size="10.00">project.approve</text>
<text text-anchor="start" x="1102" y="-177.77" font-family="Arial" font-size="8.00" fill="#94a3b8">  Project</text>
<text text-anchor="start" x="1035" y="-166.77" font-family="Arial" font-size="10.00">project.archive</text>
<text text-anchor="start" x="1099" y="-166.77" font-family="Arial" font-size="8.00" fill="#94a3b8">  Project</text>
<polygon fill="none" stroke="#71717a" points="1030,-158.27 1030,-347.27 1254,-347.27 1254,-158.27 1030,-158.27"/>
</g>
<!-- transition_3_ready_none_selection_cleared -->
<g id="node9" class="node">
<title>transition_3_ready_none_selection_cleared</title>
<polygon fill="#ffffff" stroke="transparent" points="1315,-98.77 1315,-160.77 1437,-160.77 1437,-98.77 1315,-98.77"/>
<polygon fill="#2563eb" stroke="transparent" points="1316,-151.77 1316,-159.77 1436,-159.77 1436,-151.77 1316,-151.77"/>
<polygon fill="#eff6ff" stroke="transparent" points="1316,-120.77 1316,-151.77 1436,-151.77 1436,-120.77 1316,-120.77"/>
<text text-anchor="start" x="1320" y="-138.37" font-family="Arial" font-weight="bold" font-size="13.00">selection.cleared</text>
<text text-anchor="start" x="1320" y="-127.37" font-family="Arial" font-size="8.00" fill="#64748b">transition event</text>
<text text-anchor="start" x="1321" y="-108.77" font-family="Arial" font-weight="bold" font-size="10.00">set:</text>
<text text-anchor="start" x="1338" y="-108.77" font-family="Arial" font-size="10.00">  project_id</text>
<text text-anchor="start" x="1387" y="-108.77" font-family="Arial" font-size="8.00" fill="#94a3b8">  ID</text>
<text text-anchor="start" x="1400" y="-108.77" font-family="Arial" font-size="10.00"> &lt;&#45; null</text>
<polygon fill="none" stroke="#2563eb" points="1315,-98.77 1315,-160.77 1437,-160.77 1437,-98.77 1315,-98.77"/>
</g>
<!-- state_ready&#45;&gt;transition_3_ready_none_selection_cleared -->
<g id="edge8" class="edge">
<title>state_ready&#45;&gt;transition_3_ready_none_selection_cleared</title>
<path fill="none" stroke="#3f3f46" d="M1254.24,-193.79C1273.07,-183.81 1292.06,-173.74 1309.23,-164.64"/>
<polygon fill="#3f3f46" stroke="#3f3f46" points="1310.72,-167.02 1316.47,-160.8 1308.09,-162.07 1310.72,-167.02"/>
</g>
<!-- transition_0_none_loading_project_selection_changed&#45;&gt;state_loading -->
<g id="edge3" class="edge">
<title>transition_0_none_loading_project_selection_changed&#45;&gt;state_loading</title>
<path fill="none" stroke="#3f3f46" d="M495.22,-91.77C512.3,-91.77 530.34,-91.77 547.9,-91.77"/>
<polygon fill="#3f3f46" stroke="#3f3f46" points="547.93,-94.57 555.93,-91.77 547.93,-88.97 547.93,-94.57"/>
</g>
<!-- transition_1_loading_ready_data_ready&#45;&gt;state_ready -->
<g id="edge5" class="edge">
<title>transition_1_loading_ready_data_ready&#45;&gt;state_ready</title>
<path fill="none" stroke="#3f3f46" d="M969.11,-236.07C985.73,-237.68 1003.73,-239.43 1021.62,-241.17"/>
<polygon fill="#3f3f46" stroke="#3f3f46" points="1021.59,-243.98 1029.83,-241.97 1022.14,-238.41 1021.59,-243.98"/>
</g>
<!-- transition_2_loading_error_data_error&#45;&gt;state_error -->
<g id="edge7" class="edge">
<title>transition_2_loading_error_data_error&#45;&gt;state_error</title>
<path fill="none" stroke="#3f3f46" d="M969.11,-91.16C997.53,-90.93 1030,-90.67 1059.01,-90.43"/>
<polygon fill="#3f3f46" stroke="#3f3f46" points="1059.12,-93.23 1067.09,-90.37 1059.07,-87.63 1059.12,-93.23"/>
</g>
<!-- transition_3_ready_none_selection_cleared&#45;&gt;state_none -->
<g id="edge9" class="edge">
<title>transition_3_ready_none_selection_cleared&#45;&gt;state_none</title>
<path fill="none" stroke="#3f3f46" d="M1345.35,-98.55C1322.61,-76.83 1289.23,-49.39 1254,-35.77 1104.32,22.12 1054.48,-7.77 894,-7.77 655,-7.77 655,-7.77 655,-7.77 516.35,-7.77 355.86,-25.67 261.14,-38.1"/>
<polygon fill="#3f3f46" stroke="#3f3f46" points="260.59,-35.35 253.03,-39.17 261.32,-40.9 260.59,-35.35"/>
</g>
</g>
</svg>
