<svg class="rich-terminal" viewBox="0 0 1482 928.4" xmlns="http://www.w3.org/2000/svg">
<!-- pyspec-contract-textual-input-sha256: 59efc2df9d636c7945b7bd21476e2e1812dac38a524721c234a33701de5ba3a4 -->
    <!-- Generated with Rich https://www.textualize.io -->
    <style>

    @font-face {
        font-family: "Fira Code";
        src: local("FiraCode-Regular"),
                url("https://cdnjs.cloudflare.com/ajax/libs/firacode/6.2.0/woff2/FiraCode-Regular.woff2") format("woff2"),
                url("https://cdnjs.cloudflare.com/ajax/libs/firacode/6.2.0/woff/FiraCode-Regular.woff") format("woff");
        font-style: normal;
        font-weight: 400;
    }
    @font-face {
        font-family: "Fira Code";
        src: local("FiraCode-Bold"),
                url("https://cdnjs.cloudflare.com/ajax/libs/firacode/6.2.0/woff2/FiraCode-Bold.woff2") format("woff2"),
                url("https://cdnjs.cloudflare.com/ajax/libs/firacode/6.2.0/woff/FiraCode-Bold.woff") format("woff");
        font-style: bold;
        font-weight: 700;
    }

    .terminal-4255138434-matrix {
        font-family: Fira Code, monospace;
        font-size: 20px;
        line-height: 24.4px;
        font-variant-east-asian: full-width;
    }

    .terminal-4255138434-title {
        font-size: 18px;
        font-weight: bold;
        font-family: arial;
    }

    .terminal-4255138434-r1 { fill: #c5c8c6 }
.terminal-4255138434-r2 { fill: #e0e0e0 }
.terminal-4255138434-r3 { fill: #2d2d2d }
.terminal-4255138434-r4 { fill: #272727;font-weight: bold }
.terminal-4255138434-r5 { fill: #0d0d0d }
.terminal-4255138434-r6 { fill: #e0e0e0;font-weight: bold }
    </style>

    <defs>
    <clipPath id="terminal-4255138434-clip-terminal">
      <rect x="0" y="0" width="1463.0" height="877.4" />
    </clipPath>
    <clipPath id="terminal-4255138434-line-0">
    <rect x="0" y="1.5" width="1464" height="24.65"/>
            </clipPath>
<clipPath id="terminal-4255138434-line-1">
    <rect x="0" y="25.9" width="1464" height="24.65"/>
            </clipPath>
<clipPath id="terminal-4255138434-line-2">
    <rect x="0" y="50.3" width="1464" height="24.65"/>
            </clipPath>
<clipPath id="terminal-4255138434-line-3">
    <rect x="0" y="74.7" width="1464" height="24.65"/>
            </clipPath>
<clipPath id="terminal-4255138434-line-4">
    <rect x="0" y="99.1" width="1464" height="24.65"/>
            </clipPath>
<clipPath id="terminal-4255138434-line-5">
    <rect x="0" y="123.5" width="1464" height="24.65"/>
            </clipPath>
<clipPath id="terminal-4255138434-line-6">
    <rect x="0" y="147.9" width="1464" height="24.65"/>
            </clipPath>
<clipPath id="terminal-4255138434-line-7">
    <rect x="0" y="172.3" width="1464" height="24.65"/>
            </clipPath>
<clipPath id="terminal-4255138434-line-8">
    <rect x="0" y="196.7" width="1464" height="24.65"/>
            </clipPath>
<clipPath id="terminal-4255138434-line-9">
    <rect x="0" y="221.1" width="1464" height="24.65"/>
            </clipPath>
<clipPath id="terminal-4255138434-line-10">
    <rect x="0" y="245.5" width="1464" height="24.65"/>
            </clipPath>
<clipPath id="terminal-4255138434-line-11">
    <rect x="0" y="269.9" width="1464" height="24.65"/>
            </clipPath>
<clipPath id="terminal-4255138434-line-12">
    <rect x="0" y="294.3" width="1464" height="24.65"/>
            </clipPath>
<clipPath id="terminal-4255138434-line-13">
    <rect x="0" y="318.7" width="1464" height="24.65"/>
            </clipPath>
<clipPath id="terminal-4255138434-line-14">
    <rect x="0" y="343.1" width="1464" height="24.65"/>
            </clipPath>
<clipPath id="terminal-4255138434-line-15">
    <rect x="0" y="367.5" width="1464" height="24.65"/>
            </clipPath>
<clipPath id="terminal-4255138434-line-16">
    <rect x="0" y="391.9" width="1464" height="24.65"/>
            </clipPath>
<clipPath id="terminal-4255138434-line-17">
    <rect x="0" y="416.3" width="1464" height="24.65"/>
            </clipPath>
<clipPath id="terminal-4255138434-line-18">
    <rect x="0" y="440.7" width="1464" height="24.65"/>
            </clipPath>
<clipPath id="terminal-4255138434-line-19">
    <rect x="0" y="465.1" width="1464" height="24.65"/>
            </clipPath>
<clipPath id="terminal-4255138434-line-20">
    <rect x="0" y="489.5" width="1464" height="24.65"/>
            </clipPath>
<clipPath id="terminal-4255138434-line-21">
    <rect x="0" y="513.9" width="1464" height="24.65"/>
            </clipPath>
<clipPath id="terminal-4255138434-line-22">
    <rect x="0" y="538.3" width="1464" height="24.65"/>
            </clipPath>
<clipPath id="terminal-4255138434-line-23">
    <rect x="0" y="562.7" width="1464" height="24.65"/>
            </clipPath>
<clipPath id="terminal-4255138434-line-24">
    <rect x="0" y="587.1" width="1464" height="24.65"/>
            </clipPath>
<clipPath id="terminal-4255138434-line-25">
    <rect x="0" y="611.5" width="1464" height="24.65"/>
            </clipPath>
<clipPath id="terminal-4255138434-line-26">
    <rect x="0" y="635.9" width="1464" height="24.65"/>
            </clipPath>
<clipPath id="terminal-4255138434-line-27">
    <rect x="0" y="660.3" width="1464" height="24.65"/>
            </clipPath>
<clipPath id="terminal-4255138434-line-28">
    <rect x="0" y="684.7" width="1464" height="24.65"/>
            </clipPath>
<clipPath id="terminal-4255138434-line-29">
    <rect x="0" y="709.1" width="1464" height="24.65"/>
            </clipPath>
<clipPath id="terminal-4255138434-line-30">
    <rect x="0" y="733.5" width="1464" height="24.65"/>
            </clipPath>
<clipPath id="terminal-4255138434-line-31">
    <rect x="0" y="757.9" width="1464" height="24.65"/>
            </clipPath>
<clipPath id="terminal-4255138434-line-32">
    <rect x="0" y="782.3" width="1464" height="24.65"/>
            </clipPath>
<clipPath id="terminal-4255138434-line-33">
    <rect x="0" y="806.7" width="1464" height="24.65"/>
            </clipPath>
<clipPath id="terminal-4255138434-line-34">
    <rect x="0" y="831.1" width="1464" height="24.65"/>
            </clipPath>
    </defs>

    <rect fill="#292929" stroke="rgba(255,255,255,0.35)" stroke-width="1" x="1" y="1" width="1480" height="926.4" rx="8"/><text class="terminal-4255138434-title" fill="#c5c8c6" text-anchor="middle" x="740" y="27">AuditApp</text>
            <g transform="translate(26,22)">
            <circle cx="0" cy="0" r="7" fill="#ff5f57"/>
            <circle cx="22" cy="0" r="7" fill="#febc2e"/>
            <circle cx="44" cy="0" r="7" fill="#28c840"/>
            </g>
        
    <g transform="translate(9, 41)" clip-path="url(#terminal-4255138434-clip-terminal)">
    <rect fill="#121212" x="0" y="1.5" width="1464" height="24.65" shape-rendering="crispEdges"/><rect fill="#121212" x="0" y="25.9" width="12.2" height="24.65" shape-rendering="crispEdges"/><rect fill="#121212" x="12.2" y="25.9" width="170.8" height="24.65" shape-rendering="crispEdges"/><rect fill="#121212" x="183" y="25.9" width="1268.8" height="24.65" shape-rendering="crispEdges"/><rect fill="#121212" x="1451.8" y="25.9" width="12.2" height="24.65" shape-rendering="crispEdges"/><rect fill="#121212" x="0" y="50.3" width="12.2" height="24.65" shape-rendering="crispEdges"/><rect fill="#121212" x="12.2" y="50.3" width="1439.6" height="24.65" shape-rendering="crispEdges"/><rect fill="#121212" x="1451.8" y="50.3" width="12.2" height="24.65" shape-rendering="crispEdges"/><rect fill="#121212" x="0" y="74.7" width="12.2" height="24.65" shape-rendering="crispEdges"/><rect fill="#121212" x="12.2" y="74.7" width="439.2" height="24.65" shape-rendering="crispEdges"/><rect fill="#121212" x="451.4" y="74.7" width="1000.4" height="24.65" shape-rendering="crispEdges"/><rect fill="#121212" x="1451.8" y="74.7" width="12.2" height="24.65" shape-rendering="crispEdges"/><rect fill="#121212" x="0" y="99.1" width="12.2" height="24.65" shape-rendering="crispEdges"/><rect fill="#121212" x="12.2" y="99.1" width="1439.6" height="24.65" shape-rendering="crispEdges"/><rect fill="#121212" x="1451.8" y="99.1" width="12.2" height="24.65" shape-rendering="crispEdges"/><rect fill="#121212" x="0" y="123.5" width="12.2" height="24.65" shape-rendering="crispEdges"/><rect fill="#121212" x="12.2" y="123.5" width="256.2" height="24.65" shape-rendering="crispEdges"/><rect fill="#121212" x="268.4" y="123.5" width="1183.4" height="24.65" shape-rendering="crispEdges"/><rect fill="#121212" x="1451.8" y="123.5" width="12.2" height="24.65" shape-rendering="crispEdges"/><rect fill="#121212" x="0" y="147.9" width="12.2" height="24.65" shape-rendering="crispEdges"/><rect fill="#121212" x="12.2" y="147.9" width="1439.6" height="24.65" shape-rendering="crispEdges"/><rect fill="#121212" x="1451.8" y="147.9" width="12.2" height="24.65" shape-rendering="crispEdges"/><rect fill="#121212" x="0" y="172.3" width="12.2" height="24.65" shape-rendering="crispEdges"/><rect fill="#121212" x="12.2" y="172.3" width="170.8" height="24.65" shape-rendering="crispEdges"/><rect fill="#121212" x="183" y="172.3" width="1268.8" height="24.65" shape-rendering="crispEdges"/><rect fill="#121212" x="1451.8" y="172.3" width="12.2" height="24.65" shape-rendering="crispEdges"/><rect fill="#121212" x="0" y="196.7" width="12.2" height="24.65" shape-rendering="crispEdges"/><rect fill="#121212" x="12.2" y="196.7" width="1439.6" height="24.65" shape-rendering="crispEdges"/><rect fill="#121212" x="1451.8" y="196.7" width="12.2" height="24.65" shape-rendering="crispEdges"/><rect fill="#121212" x="0" y="221.1" width="12.2" height="24.65" shape-rendering="crispEdges"/><rect fill="#121212" x="12.2" y="221.1" width="207.4" height="24.65" shape-rendering="crispEdges"/><rect fill="#121212" x="219.6" y="221.1" width="1232.2" height="24.65" shape-rendering="crispEdges"/><rect fill="#121212" x="1451.8" y="221.1" width="12.2" height="24.65" shape-rendering="crispEdges"/><rect fill="#121212" x="0" y="245.5" width="12.2" height="24.65" shape-rendering="crispEdges"/><rect fill="#121212" x="12.2" y="245.5" width="1439.6" height="24.65" shape-rendering="crispEdges"/><rect fill="#121212" x="1451.8" y="245.5" width="12.2" height="24.65" shape-rendering="crispEdges"/><rect fill="#121212" x="0" y="269.9" width="12.2" height="24.65" shape-rendering="crispEdges"/><rect fill="#121212" x="12.2" y="269.9" width="414.8" height="24.65" shape-rendering="crispEdges"/><rect fill="#121212" x="427" y="269.9" width="1024.8" height="24.65" shape-rendering="crispEdges"/><rect fill="#121212" x="1451.8" y="269.9" width="12.2" height="24.65" shape-rendering="crispEdges"/><rect fill="#121212" x="0" y="294.3" width="12.2" height="24.65" shape-rendering="crispEdges"/><rect fill="#121212" x="12.2" y="294.3" width="1439.6" height="24.65" shape-rendering="crispEdges"/><rect fill="#121212" x="1451.8" y="294.3" width="12.2" height="24.65" shape-rendering="crispEdges"/><rect fill="#121212" x="0" y="318.7" width="12.2" height="24.65" shape-rendering="crispEdges"/><rect fill="#121212" x="12.2" y="318.7" width="317.2" height="24.65" shape-rendering="crispEdges"/><rect fill="#121212" x="329.4" y="318.7" width="1122.4" height="24.65" shape-rendering="crispEdges"/><rect fill="#121212" x="1451.8" y="318.7" width="12.2" height="24.65" shape-rendering="crispEdges"/><rect fill="#121212" x="0" y="343.1" width="12.2" height="24.65" shape-rendering="crispEdges"/><rect fill="#121212" x="12.2" y="343.1" width="1439.6" height="24.65" shape-rendering="crispEdges"/><rect fill="#121212" x="1451.8" y="343.1" width="12.2" height="24.65" shape-rendering="crispEdges"/><rect fill="#121212" x="0" y="367.5" width="12.2" height="24.65" shape-rendering="crispEdges"/><rect fill="#121212" x="12.2" y="367.5" width="195.2" height="24.65" shape-rendering="crispEdges"/><rect fill="#121212" x="207.4" y="367.5" width="1244.4" height="24.65" shape-rendering="crispEdges"/><rect fill="#121212" x="1451.8" y="367.5" width="12.2" height="24.65" shape-rendering="crispEdges"/><rect fill="#121212" x="0" y="391.9" width="12.2" height="24.65" shape-rendering="crispEdges"/><rect fill="#121212" x="12.2" y="391.9" width="1439.6" height="24.65" shape-rendering="crispEdges"/><rect fill="#121212" x="1451.8" y="391.9" width="12.2" height="24.65" shape-rendering="crispEdges"/><rect fill="#121212" x="0" y="416.3" width="12.2" height="24.65" shape-rendering="crispEdges"/><rect fill="#121212" x="12.2" y="416.3" width="158.6" height="24.65" shape-rendering="crispEdges"/><rect fill="#121212" x="170.8" y="416.3" width="1281" height="24.65" shape-rendering="crispEdges"/><rect fill="#121212" x="1451.8" y="416.3" width="12.2" height="24.65" shape-rendering="crispEdges"/><rect fill="#121212" x="0" y="440.7" width="12.2" height="24.65" shape-rendering="crispEdges"/><rect fill="#121212" x="12.2" y="440.7" width="1439.6" height="24.65" shape-rendering="crispEdges"/><rect fill="#121212" x="1451.8" y="440.7" width="12.2" height="24.65" shape-rendering="crispEdges"/><rect fill="#121212" x="0" y="465.1" width="12.2" height="24.65" shape-rendering="crispEdges"/><rect fill="#272727" x="12.2" y="465.1" width="195.2" height="24.65" shape-rendering="crispEdges"/><rect fill="#121212" x="207.4" y="465.1" width="1244.4" height="24.65" shape-rendering="crispEdges"/><rect fill="#121212" x="1451.8" y="465.1" width="12.2" height="24.65" shape-rendering="crispEdges"/><rect fill="#121212" x="0" y="489.5" width="12.2" height="24.65" shape-rendering="crispEdges"/><rect fill="#272727" x="12.2" y="489.5" width="48.8" height="24.65" shape-rendering="crispEdges"/><rect fill="#e0e0e0" x="61" y="489.5" width="97.6" height="24.65" shape-rendering="crispEdges"/><rect fill="#272727" x="158.6" y="489.5" width="48.8" height="24.65" shape-rendering="crispEdges"/><rect fill="#121212" x="207.4" y="489.5" width="1244.4" height="24.65" shape-rendering="crispEdges"/><rect fill="#121212" x="1451.8" y="489.5" width="12.2" height="24.65" shape-rendering="crispEdges"/><rect fill="#121212" x="0" y="513.9" width="12.2" height="24.65" shape-rendering="crispEdges"/><rect fill="#272727" x="12.2" y="513.9" width="195.2" height="24.65" shape-rendering="crispEdges"/><rect fill="#121212" x="207.4" y="513.9" width="1244.4" height="24.65" shape-rendering="crispEdges"/><rect fill="#121212" x="1451.8" y="513.9" width="12.2" height="24.65" shape-rendering="crispEdges"/><rect fill="#121212" x="0" y="538.3" width="12.2" height="24.65" shape-rendering="crispEdges"/><rect fill="#121212" x="12.2" y="538.3" width="1439.6" height="24.65" shape-rendering="crispEdges"/><rect fill="#121212" x="1451.8" y="538.3" width="12.2" height="24.65" shape-rendering="crispEdges"/><rect fill="#121212" x="0" y="562.7" width="12.2" height="24.65" shape-rendering="crispEdges"/><rect fill="#1e1e1e" x="12.2" y="562.7" width="195.2" height="24.65" shape-rendering="crispEdges"/><rect fill="#121212" x="207.4" y="562.7" width="1244.4" height="24.65" shape-rendering="crispEdges"/><rect fill="#121212" x="1451.8" y="562.7" width="12.2" height="24.65" shape-rendering="crispEdges"/><rect fill="#121212" x="0" y="587.1" width="12.2" height="24.65" shape-rendering="crispEdges"/><rect fill="#1e1e1e" x="12.2" y="587.1" width="48.8" height="24.65" shape-rendering="crispEdges"/><rect fill="#1e1e1e" x="61" y="587.1" width="97.6" height="24.65" shape-rendering="crispEdges"/><rect fill="#1e1e1e" x="158.6" y="587.1" width="48.8" height="24.65" shape-rendering="crispEdges"/><rect fill="#121212" x="207.4" y="587.1" width="1244.4" height="24.65" shape-rendering="crispEdges"/><rect fill="#121212" x="1451.8" y="587.1" width="12.2" height="24.65" shape-rendering="crispEdges"/><rect fill="#121212" x="0" y="611.5" width="12.2" height="24.65" shape-rendering="crispEdges"/><rect fill="#1e1e1e" x="12.2" y="611.5" width="195.2" height="24.65" shape-rendering="crispEdges"/><rect fill="#121212" x="207.4" y="611.5" width="1244.4" height="24.65" shape-rendering="crispEdges"/><rect fill="#121212" x="1451.8" y="611.5" width="12.2" height="24.65" shape-rendering="crispEdges"/><rect fill="#121212" x="0" y="635.9" width="12.2" height="24.65" shape-rendering="crispEdges"/><rect fill="#121212" x="12.2" y="635.9" width="1439.6" height="24.65" shape-rendering="crispEdges"/><rect fill="#121212" x="1451.8" y="635.9" width="12.2" height="24.65" shape-rendering="crispEdges"/><rect fill="#121212" x="0" y="660.3" width="12.2" height="24.65" shape-rendering="crispEdges"/><rect fill="#121212" x="12.2" y="660.3" width="524.6" height="24.65" shape-rendering="crispEdges"/><rect fill="#121212" x="536.8" y="660.3" width="915" height="24.65" shape-rendering="crispEdges"/><rect fill="#121212" x="1451.8" y="660.3" width="12.2" height="24.65" shape-rendering="crispEdges"/><rect fill="#121212" x="0" y="684.7" width="12.2" height="24.65" shape-rendering="crispEdges"/><rect fill="#121212" x="12.2" y="684.7" width="1439.6" height="24.65" shape-rendering="crispEdges"/><rect fill="#121212" x="1451.8" y="684.7" width="12.2" height="24.65" shape-rendering="crispEdges"/><rect fill="#121212" x="0" y="709.1" width="12.2" height="24.65" shape-rendering="crispEdges"/><rect fill="#121212" x="12.2" y="709.1" width="158.6" height="24.65" shape-rendering="crispEdges"/><rect fill="#121212" x="170.8" y="709.1" width="1281" height="24.65" shape-rendering="crispEdges"/><rect fill="#121212" x="1451.8" y="709.1" width="12.2" height="24.65" shape-rendering="crispEdges"/><rect fill="#121212" x="0" y="733.5" width="12.2" height="24.65" shape-rendering="crispEdges"/><rect fill="#121212" x="12.2" y="733.5" width="1439.6" height="24.65" shape-rendering="crispEdges"/><rect fill="#121212" x="1451.8" y="733.5" width="12.2" height="24.65" shape-rendering="crispEdges"/><rect fill="#121212" x="0" y="757.9" width="12.2" height="24.65" shape-rendering="crispEdges"/><rect fill="#121212" x="12.2" y="757.9" width="439.2" height="24.65" shape-rendering="crispEdges"/><rect fill="#121212" x="451.4" y="757.9" width="1000.4" height="24.65" shape-rendering="crispEdges"/><rect fill="#121212" x="1451.8" y="757.9" width="12.2" height="24.65" shape-rendering="crispEdges"/><rect fill="#121212" x="0" y="782.3" width="12.2" height="24.65" shape-rendering="crispEdges"/><rect fill="#121212" x="12.2" y="782.3" width="1439.6" height="24.65" shape-rendering="crispEdges"/><rect fill="#121212" x="1451.8" y="782.3" width="12.2" height="24.65" shape-rendering="crispEdges"/><rect fill="#121212" x="0" y="806.7" width="12.2" height="24.65" shape-rendering="crispEdges"/><rect fill="#121212" x="12.2" y="806.7" width="256.2" height="24.65" shape-rendering="crispEdges"/><rect fill="#121212" x="268.4" y="806.7" width="1183.4" height="24.65" shape-rendering="crispEdges"/><rect fill="#121212" x="1451.8" y="806.7" width="12.2" height="24.65" shape-rendering="crispEdges"/><rect fill="#121212" x="0" y="831.1" width="12.2" height="24.65" shape-rendering="crispEdges"/><rect fill="#121212" x="12.2" y="831.1" width="1439.6" height="24.65" shape-rendering="crispEdges"/><rect fill="#121212" x="1451.8" y="831.1" width="12.2" height="24.65" shape-rendering="crispEdges"/><rect fill="#121212" x="0" y="855.5" width="1464" height="24.65" shape-rendering="crispEdges"/>
    <g class="terminal-4255138434-matrix">
    <text class="terminal-4255138434-r1" x="1464" y="20" textLength="12.2" clip-path="url(#terminal-4255138434-line-0)">
</text><text class="terminal-4255138434-r2" x="12.2" y="44.4" textLength="170.8" clip-path="url(#terminal-4255138434-line-1)">Dispatch&#160;queue</text><text class="terminal-4255138434-r1" x="1464" y="44.4" textLength="12.2" clip-path="url(#terminal-4255138434-line-1)">
</text><text class="terminal-4255138434-r1" x="1464" y="68.8" textLength="12.2" clip-path="url(#terminal-4255138434-line-2)">
</text><text class="terminal-4255138434-r2" x="12.2" y="93.2" textLength="439.2" clip-path="url(#terminal-4255138434-line-3)">Title:&#160;Replace&#160;rooftop&#160;condenser&#160;fan</text><text class="terminal-4255138434-r1" x="1464" y="93.2" textLength="12.2" clip-path="url(#terminal-4255138434-line-3)">
</text><text class="terminal-4255138434-r1" x="1464" y="117.6" textLength="12.2" clip-path="url(#terminal-4255138434-line-4)">
</text><text class="terminal-4255138434-r2" x="12.2" y="142" textLength="256.2" clip-path="url(#terminal-4255138434-line-5)">Customer:&#160;Atlas&#160;Foods</text><text class="terminal-4255138434-r1" x="1464" y="142" textLength="12.2" clip-path="url(#terminal-4255138434-line-5)">
</text><text class="terminal-4255138434-r1" x="1464" y="166.4" textLength="12.2" clip-path="url(#terminal-4255138434-line-6)">
</text><text class="terminal-4255138434-r2" x="12.2" y="190.8" textLength="170.8" clip-path="url(#terminal-4255138434-line-7)">Priority:&#160;High</text><text class="terminal-4255138434-r1" x="1464" y="190.8" textLength="12.2" clip-path="url(#terminal-4255138434-line-7)">
</text><text class="terminal-4255138434-r1" x="1464" y="215.2" textLength="12.2" clip-path="url(#terminal-4255138434-line-8)">
</text><text class="terminal-4255138434-r2" x="12.2" y="239.6" textLength="207.4" clip-path="url(#terminal-4255138434-line-9)">Status:&#160;submitted</text><text class="terminal-4255138434-r1" x="1464" y="239.6" textLength="12.2" clip-path="url(#terminal-4255138434-line-9)">
</text><text class="terminal-4255138434-r1" x="1464" y="264" textLength="12.2" clip-path="url(#terminal-4255138434-line-10)">
</text><text class="terminal-4255138434-r2" x="12.2" y="288.4" textLength="414.8" clip-path="url(#terminal-4255138434-line-11)">Title:&#160;Inspect&#160;loading&#160;dock&#160;sensor</text><text class="terminal-4255138434-r1" x="1464" y="288.4" textLength="12.2" clip-path="url(#terminal-4255138434-line-11)">
</text><text class="terminal-4255138434-r1" x="1464" y="312.8" textLength="12.2" clip-path="url(#terminal-4255138434-line-12)">
</text><text class="terminal-4255138434-r2" x="12.2" y="337.2" textLength="317.2" clip-path="url(#terminal-4255138434-line-13)">Customer:&#160;Harbor&#160;Logistics</text><text class="terminal-4255138434-r1" x="1464" y="337.2" textLength="12.2" clip-path="url(#terminal-4255138434-line-13)">
</text><text class="terminal-4255138434-r1" x="1464" y="361.6" textLength="12.2" clip-path="url(#terminal-4255138434-line-14)">
</text><text class="terminal-4255138434-r2" x="12.2" y="386" textLength="195.2" clip-path="url(#terminal-4255138434-line-15)">Priority:&#160;Normal</text><text class="terminal-4255138434-r1" x="1464" y="386" textLength="12.2" clip-path="url(#terminal-4255138434-line-15)">
</text><text class="terminal-4255138434-r1" x="1464" y="410.4" textLength="12.2" clip-path="url(#terminal-4255138434-line-16)">
</text><text class="terminal-4255138434-r2" x="12.2" y="434.8" textLength="158.6" clip-path="url(#terminal-4255138434-line-17)">Status:&#160;draft</text><text class="terminal-4255138434-r1" x="1464" y="434.8" textLength="12.2" clip-path="url(#terminal-4255138434-line-17)">
</text><text class="terminal-4255138434-r1" x="1464" y="459.2" textLength="12.2" clip-path="url(#terminal-4255138434-line-18)">
</text><text class="terminal-4255138434-r3" x="12.2" y="483.6" textLength="195.2" clip-path="url(#terminal-4255138434-line-19)">▔▔▔▔▔▔▔▔▔▔▔▔▔▔▔▔</text><text class="terminal-4255138434-r1" x="1464" y="483.6" textLength="12.2" clip-path="url(#terminal-4255138434-line-19)">
</text><text class="terminal-4255138434-r4" x="61" y="508" textLength="97.6" clip-path="url(#terminal-4255138434-line-20)">&#160;Create&#160;</text><text class="terminal-4255138434-r1" x="1464" y="508" textLength="12.2" clip-path="url(#terminal-4255138434-line-20)">
</text><text class="terminal-4255138434-r5" x="12.2" y="532.4" textLength="195.2" clip-path="url(#terminal-4255138434-line-21)">▁▁▁▁▁▁▁▁▁▁▁▁▁▁▁▁</text><text class="terminal-4255138434-r1" x="1464" y="532.4" textLength="12.2" clip-path="url(#terminal-4255138434-line-21)">
</text><text class="terminal-4255138434-r1" x="1464" y="556.8" textLength="12.2" clip-path="url(#terminal-4255138434-line-22)">
</text><text class="terminal-4255138434-r3" x="12.2" y="581.2" textLength="195.2" clip-path="url(#terminal-4255138434-line-23)">▔▔▔▔▔▔▔▔▔▔▔▔▔▔▔▔</text><text class="terminal-4255138434-r1" x="1464" y="581.2" textLength="12.2" clip-path="url(#terminal-4255138434-line-23)">
</text><text class="terminal-4255138434-r6" x="61" y="605.6" textLength="97.6" clip-path="url(#terminal-4255138434-line-24)">&#160;Submit&#160;</text><text class="terminal-4255138434-r1" x="1464" y="605.6" textLength="12.2" clip-path="url(#terminal-4255138434-line-24)">
</text><text class="terminal-4255138434-r5" x="12.2" y="630" textLength="195.2" clip-path="url(#terminal-4255138434-line-25)">▁▁▁▁▁▁▁▁▁▁▁▁▁▁▁▁</text><text class="terminal-4255138434-r1" x="1464" y="630" textLength="12.2" clip-path="url(#terminal-4255138434-line-25)">
</text><text class="terminal-4255138434-r1" x="1464" y="654.4" textLength="12.2" clip-path="url(#terminal-4255138434-line-26)">
</text><text class="terminal-4255138434-r2" x="12.2" y="678.8" textLength="524.6" clip-path="url(#terminal-4255138434-line-27)">Replace&#160;rooftop&#160;condenser&#160;fan&#160;·&#160;Atlas&#160;Foods</text><text class="terminal-4255138434-r1" x="1464" y="678.8" textLength="12.2" clip-path="url(#terminal-4255138434-line-27)">
</text><text class="terminal-4255138434-r1" x="1464" y="703.2" textLength="12.2" clip-path="url(#terminal-4255138434-line-28)">
</text><text class="terminal-4255138434-r2" x="12.2" y="727.6" textLength="158.6" clip-path="url(#terminal-4255138434-line-29)">High&#160;priority</text><text class="terminal-4255138434-r1" x="1464" y="727.6" textLength="12.2" clip-path="url(#terminal-4255138434-line-29)">
</text><text class="terminal-4255138434-r1" x="1464" y="752" textLength="12.2" clip-path="url(#terminal-4255138434-line-30)">
</text><text class="terminal-4255138434-r2" x="12.2" y="776.4" textLength="439.2" clip-path="url(#terminal-4255138434-line-31)">Title:&#160;Replace&#160;rooftop&#160;condenser&#160;fan</text><text class="terminal-4255138434-r1" x="1464" y="776.4" textLength="12.2" clip-path="url(#terminal-4255138434-line-31)">
</text><text class="terminal-4255138434-r1" x="1464" y="800.8" textLength="12.2" clip-path="url(#terminal-4255138434-line-32)">
</text><text class="terminal-4255138434-r2" x="12.2" y="825.2" textLength="256.2" clip-path="url(#terminal-4255138434-line-33)">Customer:&#160;Atlas&#160;Foods</text><text class="terminal-4255138434-r1" x="1464" y="825.2" textLength="12.2" clip-path="url(#terminal-4255138434-line-33)">
</text><text class="terminal-4255138434-r1" x="1464" y="849.6" textLength="12.2" clip-path="url(#terminal-4255138434-line-34)">
</text>
    </g>
    </g>
</svg>
