<svg width="858pt" height="485pt"
 viewBox="0.00 0.00 858.00 485.00" xmlns="http://www.w3.org/2000/svg" xmlns:xlink="http://www.w3.org/1999/xlink">
<!-- pyspec-contract-input-sha256: c1c4d2cc80daa733059ae103d197265626ec7954d8185e21142403ba01b0d144 -->
<g id="graph0" class="graph" transform="scale(1 1) rotate(0) translate(18 467)">
<title>entrypoint_entry_point_api_project_list</title>
<!-- entrypoint_entry_point_api_project_list -->
<g id="node1" class="node">
<title>entrypoint_entry_point_api_project_list</title>
<polygon fill="#ffffff" stroke="transparent" points="0,-162.5 0,-285.5 281,-285.5 281,-162.5 0,-162.5"/>
<polygon fill="#0891b2" stroke="transparent" points="1.5,-276 1.5,-284 280.5,-284 280.5,-276 1.5,-276"/>
<polygon fill="#ecfeff" stroke="transparent" points="1.5,-245 1.5,-276 280.5,-276 280.5,-245 1.5,-245"/>
<text text-anchor="start" x="5.5" y="-262.6" font-family="Arial" font-weight="bold" font-size="13.00">GET /workspaces/{workspace_id}/projects</text>
<text text-anchor="start" x="5.5" y="-251.6" font-family="Arial" font-size="8.00" fill="#64748b">http_api entry point</text>
<text text-anchor="start" x="5.5" y="-234" font-family="Arial" font-style="italic" font-size="10.00" fill="#3f3f46">HTTP endpoint for listing dispatch projects.</text>
<text text-anchor="start" x="6.5" y="-214" font-family="Arial" font-weight="bold" font-size="10.00">endpoint:</text>
<text text-anchor="start" x="51.5" y="-214" font-family="Arial" font-size="10.00">  endpoint.project.list</text>
<text text-anchor="start" x="6.5" y="-202" font-family="Arial" font-weight="bold" font-size="10.00">authorization_policy:</text>
<text text-anchor="start" x="105.5" y="-202" font-family="Arial" font-size="10.00">  authorization_policy.project.member</text>
<text text-anchor="start" x="5.5" y="-182" font-family="Arial" font-weight="bold" font-size="10.00">path params</text>
<text text-anchor="start" x="5.5" y="-171" font-family="Arial" font-size="10.00">workspace_id</text>
<text text-anchor="start" x="66.5" y="-171" font-family="Arial" font-size="8.00" fill="#94a3b8">  string</text>
<polygon fill="none" stroke="#0891b2" points="0,-162.5 0,-285.5 281,-285.5 281,-162.5 0,-162.5"/>
</g>
<!-- entrypoint_target_application_action_project_list -->
<g id="node2" class="node">
<title>entrypoint_target_application_action_project_list</title>
<polygon fill="#ffffff" stroke="transparent" points="342,-152 342,-296 575,-296 575,-152 342,-152"/>
<polygon fill="#2563eb" stroke="transparent" points="343.5,-287 343.5,-295 574.5,-295 574.5,-287 343.5,-287"/>
<polygon fill="#eff6ff" stroke="transparent" points="343.5,-256 343.5,-287 574.5,-287 574.5,-256 343.5,-256"/>
<text text-anchor="start" x="347.5" y="-273.6" font-family="Arial" font-weight="bold" font-size="13.00">application_action.project.list</text>
<text text-anchor="start" x="347.5" y="-262.6" font-family="Arial" font-size="8.00" fill="#64748b">target application action</text>
<text text-anchor="start" x="347.5" y="-245" font-family="Arial" font-style="italic" font-size="10.00" fill="#3f3f46">The board requires a project list query scoped by</text>
<text text-anchor="start" x="347.5" y="-234" font-family="Arial" font-style="italic" font-size="10.00" fill="#3f3f46">workspace.</text>
<text text-anchor="start" x="348.5" y="-214" font-family="Arial" font-weight="bold" font-size="10.00">kind:</text>
<text text-anchor="start" x="372.5" y="-214" font-family="Arial" font-size="10.00">  query</text>
<text text-anchor="start" x="347.5" y="-194" font-family="Arial" font-weight="bold" font-size="10.00">authorization</text>
<text text-anchor="start" x="347.5" y="-182" font-family="Arial" font-size="10.00">policy: authorization_policy.project.member</text>
<text text-anchor="start" x="347.5" y="-171" font-family="Arial" font-size="10.00">authentication_required_as: authentication_required</text>
<text text-anchor="start" x="347.5" y="-160" font-family="Arial" font-size="10.00">access_denied_as: access_denied</text>
<polygon fill="none" stroke="#2563eb" points="342,-152 342,-296 575,-296 575,-152 342,-152"/>
</g>
<!-- entrypoint_entry_point_api_project_list&#45;&gt;entrypoint_target_application_action_project_list -->
<g id="edge1" class="edge">
<title>entrypoint_entry_point_api_project_list&#45;&gt;entrypoint_target_application_action_project_list</title>
<path fill="none" stroke="#3f3f46" d="M281.02,-224C298.5,-224 316.28,-224 333.5,-224"/>
<polygon fill="#3f3f46" stroke="#3f3f46" points="333.9,-226.8 341.9,-224 333.9,-221.2 333.9,-226.8"/>
</g>
<!-- entrypoint_response_entry_point_api_project_list_access_denied -->
<g id="node3" class="node">
<title>entrypoint_response_entry_point_api_project_list_access_denied</title>
<polygon fill="#ffffff" stroke="transparent" points="647.5,-357 647.5,-449 810.5,-449 810.5,-357 647.5,-357"/>
<polygon fill="#dc2626" stroke="transparent" points="649,-440 649,-448 810,-448 810,-440 649,-440"/>
<polygon fill="#fef2f2" stroke="transparent" points="649,-409 649,-440 810,-440 810,-409 649,-409"/>
<text text-anchor="start" x="653" y="-426.6" font-family="Arial" font-weight="bold" font-size="13.00">access_denied</text>
<text text-anchor="start" x="653" y="-415.6" font-family="Arial" font-size="8.00" fill="#64748b">failure response</text>
<text text-anchor="start" x="654" y="-397" font-family="Arial" font-weight="bold" font-size="10.00">status:</text>
<text text-anchor="start" x="685" y="-397" font-family="Arial" font-size="10.00">  403</text>
<text text-anchor="start" x="653" y="-377" font-family="Arial" font-weight="bold" font-size="10.00">body</text>
<text text-anchor="start" x="653" y="-366" font-family="Arial" font-size="10.00">body</text>
<text text-anchor="start" x="675" y="-366" font-family="Arial" font-size="8.00" fill="#94a3b8">  Problem</text>
<text text-anchor="start" x="710" y="-366" font-family="Arial" font-size="8.00"> ← $action_outcome.result</text>
<polygon fill="none" stroke="#dc2626" points="647.5,-357 647.5,-449 810.5,-449 810.5,-357 647.5,-357"/>
</g>
<!-- entrypoint_target_application_action_project_list&#45;&gt;entrypoint_response_entry_point_api_project_list_access_denied -->
<g id="edge2" class="edge">
<title>entrypoint_target_application_action_project_list&#45;&gt;entrypoint_response_entry_point_api_project_list_access_denied</title>
<path fill="none" stroke="#3f3f46" d="M564.65,-296.17C588.06,-312.04 612.81,-328.69 636,-344 640.16,-346.74 644.43,-349.55 648.75,-352.37"/>
<polygon fill="#3f3f46" stroke="#3f3f46" points="647.33,-354.79 655.56,-356.8 650.39,-350.09 647.33,-354.79"/>
</g>
<!-- entrypoint_response_entry_point_api_project_list_authentication_required -->
<g id="node4" class="node">
<title>entrypoint_response_entry_point_api_project_list_authentication_required</title>
<polygon fill="#ffffff" stroke="transparent" points="647,-238 647,-330 811,-330 811,-238 647,-238"/>
<polygon fill="#dc2626" stroke="transparent" points="648,-321 648,-329 810,-329 810,-321 648,-321"/>
<polygon fill="#fef2f2" stroke="transparent" points="648,-290 648,-321 810,-321 810,-290 648,-290"/>
<text text-anchor="start" x="652" y="-307.6" font-family="Arial" font-weight="bold" font-size="13.00">authentication_required</text>
<text text-anchor="start" x="652" y="-296.6" font-family="Arial" font-size="8.00" fill="#64748b">failure response</text>
<text text-anchor="start" x="653" y="-278" font-family="Arial" font-weight="bold" font-size="10.00">status:</text>
<text text-anchor="start" x="684" y="-278" font-family="Arial" font-size="10.00">  401</text>
<text text-anchor="start" x="652" y="-258" font-family="Arial" font-weight="bold" font-size="10.00">body</text>
<text text-anchor="start" x="652" y="-247" font-family="Arial" font-size="10.00">body</text>
<text text-anchor="start" x="674" y="-247" font-family="Arial" font-size="8.00" fill="#94a3b8">  Problem</text>
<text text-anchor="start" x="709" y="-247" font-family="Arial" font-size="8.00"> ← $action_outcome.result</text>
<polygon fill="none" stroke="#dc2626" points="647,-238 647,-330 811,-330 811,-238 647,-238"/>
</g>
<!-- entrypoint_target_application_action_project_list&#45;&gt;entrypoint_response_entry_point_api_project_list_authentication_required -->
<g id="edge3" class="edge">
<title>entrypoint_target_application_action_project_list&#45;&gt;entrypoint_response_entry_point_api_project_list_authentication_required</title>
<path fill="none" stroke="#3f3f46" d="M575.32,-249.88C596.62,-254.64 618.55,-259.54 638.91,-264.09"/>
<polygon fill="#3f3f46" stroke="#3f3f46" points="638.52,-266.87 646.93,-265.88 639.74,-261.41 638.52,-266.87"/>
</g>
<!-- entrypoint_response_entry_point_api_project_list_listed -->
<g id="node5" class="node">
<title>entrypoint_response_entry_point_api_project_list_listed</title>
<polygon fill="#ffffff" stroke="transparent" points="636,-119 636,-211 822,-211 822,-119 636,-119"/>
<polygon fill="#16a34a" stroke="transparent" points="637,-202 637,-210 821,-210 821,-202 637,-202"/>
<polygon fill="#f0fdf4" stroke="transparent" points="637,-171 637,-202 821,-202 821,-171 637,-171"/>
<text text-anchor="start" x="641" y="-188.6" font-family="Arial" font-weight="bold" font-size="13.00">listed</text>
<text text-anchor="start" x="641" y="-177.6" font-family="Arial" font-size="8.00" fill="#64748b">success response</text>
<text text-anchor="start" x="642" y="-159" font-family="Arial" font-weight="bold" font-size="10.00">status:</text>
<text text-anchor="start" x="673" y="-159" font-family="Arial" font-size="10.00">  200</text>
<text text-anchor="start" x="641" y="-139" font-family="Arial" font-weight="bold" font-size="10.00">body</text>
<text text-anchor="start" x="641" y="-128" font-family="Arial" font-size="10.00">body</text>
<text text-anchor="start" x="663" y="-128" font-family="Arial" font-size="8.00" fill="#94a3b8">  array&lt;Project&gt;</text>
<text text-anchor="start" x="721" y="-128" font-family="Arial" font-size="8.00"> ← $action_outcome.result</text>
<polygon fill="none" stroke="#16a34a" points="636,-119 636,-211 822,-211 822,-119 636,-119"/>
</g>
<!-- entrypoint_target_application_action_project_list&#45;&gt;entrypoint_response_entry_point_api_project_list_listed -->
<g id="edge4" class="edge">
<title>entrypoint_target_application_action_project_list&#45;&gt;entrypoint_response_entry_point_api_project_list_listed</title>
<path fill="none" stroke="#3f3f46" d="M575.32,-198.55C592.64,-194.74 610.37,-190.85 627.35,-187.12"/>
<polygon fill="#3f3f46" stroke="#3f3f46" points="628.4,-189.75 635.61,-185.3 627.2,-184.28 628.4,-189.75"/>
</g>
<!-- entrypoint_response_entry_point_api_project_list_unavailable -->
<g id="node6" class="node">
<title>entrypoint_response_entry_point_api_project_list_unavailable</title>
<polygon fill="#ffffff" stroke="transparent" points="647.5,0 647.5,-92 810.5,-92 810.5,0 647.5,0"/>
<polygon fill="#dc2626" stroke="transparent" points="649,-83 649,-91 810,-91 810,-83 649,-83"/>
<polygon fill="#fef2f2" stroke="transparent" points="649,-52 649,-83 810,-83 810,-52 649,-52"/>
<text text-anchor="start" x="653" y="-69.6" font-family="Arial" font-weight="bold" font-size="13.00">unavailable</text>
<text text-anchor="start" x="653" y="-58.6" font-family="Arial" font-size="8.00" fill="#64748b">failure response</text>
<text text-anchor="start" x="654" y="-40" font-family="Arial" font-weight="bold" font-size="10.00">status:</text>
<text text-anchor="start" x="685" y="-40" font-family="Arial" font-size="10.00">  503</text>
<text text-anchor="start" x="653" y="-20" font-family="Arial" font-weight="bold" font-size="10.00">body</text>
<text text-anchor="start" x="653" y="-9" font-family="Arial" font-size="10.00">body</text>
<text text-anchor="start" x="675" y="-9" font-family="Arial" font-size="8.00" fill="#94a3b8">  Problem</text>
<text text-anchor="start" x="710" y="-9" font-family="Arial" font-size="8.00"> ← $action_outcome.result</text>
<polygon fill="none" stroke="#dc2626" points="647.5,0 647.5,-92 810.5,-92 810.5,0 647.5,0"/>
</g>
<!-- entrypoint_target_application_action_project_list&#45;&gt;entrypoint_response_entry_point_api_project_list_unavailable -->
<g id="edge5" class="edge">
<title>entrypoint_target_application_action_project_list&#45;&gt;entrypoint_response_entry_point_api_project_list_unavailable</title>
<path fill="none" stroke="#3f3f46" d="M567.18,-151.73C589.87,-136.57 613.7,-120.73 636,-106 640.6,-102.96 645.33,-99.85 650.11,-96.71"/>
<polygon fill="#3f3f46" stroke="#3f3f46" points="651.97,-98.84 657.13,-92.11 648.9,-94.15 651.97,-98.84"/>
</g>
<!-- entrypoint_response_entry_point_api_project_list_access_denied&#45;&gt;entrypoint_response_entry_point_api_project_list_authentication_required -->
<!-- entrypoint_response_entry_point_api_project_list_authentication_required&#45;&gt;entrypoint_response_entry_point_api_project_list_listed -->
<!-- entrypoint_response_entry_point_api_project_list_listed&#45;&gt;entrypoint_response_entry_point_api_project_list_unavailable -->
</g>
</svg>
