<svg width="967pt" height="247pt"
 viewBox="0.00 0.00 967.00 247.00" xmlns="http://www.w3.org/2000/svg" xmlns:xlink="http://www.w3.org/1999/xlink">
<!-- pyspec-contract-input-sha256: 5b68c72f5aa64a9bc601fe96fd735432d3fe11936391a71f4c7606aa5b7daba3 -->
<g id="graph0" class="graph" transform="scale(1 1) rotate(0) translate(18 229)">
<title>entrypoint_entry_point_api_project_list</title>
<!-- entrypoint_entry_point_api_project_list -->
<g id="node1" class="node">
<title>entrypoint_entry_point_api_project_list</title>
<polygon fill="#ffffff" stroke="transparent" points="0,-58.5 0,-151.5 281,-151.5 281,-58.5 0,-58.5"/>
<polygon fill="#0891b2" stroke="transparent" points="1.5,-142 1.5,-150 280.5,-150 280.5,-142 1.5,-142"/>
<polygon fill="#ecfeff" stroke="transparent" points="1.5,-111 1.5,-142 280.5,-142 280.5,-111 1.5,-111"/>
<text text-anchor="start" x="5.5" y="-128.6" font-family="Arial" font-weight="bold" font-size="13.00">GET /workspaces/{workspace_id}/projects</text>
<text text-anchor="start" x="5.5" y="-117.6" font-family="Arial" font-size="8.00" fill="#64748b">http_api entry point</text>
<text text-anchor="start" x="5.5" y="-100" font-family="Arial" font-style="italic" font-size="10.00" fill="#3f3f46">HTTP endpoint for listing dispatch projects.</text>
<text text-anchor="start" x="6.5" y="-80" font-family="Arial" font-weight="bold" font-size="10.00">endpoint:</text>
<text text-anchor="start" x="51.5" y="-80" font-family="Arial" font-size="10.00">  endpoint.project.list</text>
<text text-anchor="start" x="6.5" y="-68" font-family="Arial" font-weight="bold" font-size="10.00">authorization_policy:</text>
<text text-anchor="start" x="105.5" y="-68" font-family="Arial" font-size="10.00">  authorization_policy.project.list</text>
<polygon fill="none" stroke="#0891b2" points="0,-58.5 0,-151.5 281,-151.5 281,-58.5 0,-58.5"/>
</g>
<!-- entrypoint_input_entry_point_api_project_list -->
<g id="node2" class="node">
<title>entrypoint_input_entry_point_api_project_list</title>
<polygon fill="#ffffff" stroke="transparent" points="342,-69.5 342,-140.5 426,-140.5 426,-69.5 342,-69.5"/>
<polygon fill="#64748b" stroke="transparent" points="343,-131 343,-139 425,-139 425,-131 343,-131"/>
<polygon fill="#f8fafc" stroke="transparent" points="343,-100 343,-131 425,-131 425,-100 343,-100"/>
<text text-anchor="start" x="347" y="-117.6" font-family="Arial" font-weight="bold" font-size="13.00">request</text>
<text text-anchor="start" x="347" y="-106.6" font-family="Arial" font-size="8.00" fill="#64748b">external data</text>
<text text-anchor="start" x="347" y="-89" font-family="Arial" font-weight="bold" font-size="10.00">path params</text>
<text text-anchor="start" x="347" y="-78" font-family="Arial" font-size="10.00">workspace_id</text>
<text text-anchor="start" x="408" y="-78" font-family="Arial" font-size="8.00" fill="#94a3b8">  ID</text>
<polygon fill="none" stroke="#64748b" points="342,-69.5 342,-140.5 426,-140.5 426,-69.5 342,-69.5"/>
</g>
<!-- entrypoint_entry_point_api_project_list&#45;&gt;entrypoint_input_entry_point_api_project_list -->
<g id="edge1" class="edge">
<title>entrypoint_entry_point_api_project_list&#45;&gt;entrypoint_input_entry_point_api_project_list</title>
<path fill="none" stroke="#3f3f46" d="M281.28,-105C299.94,-105 317.98,-105 333.55,-105"/>
<polygon fill="#3f3f46" stroke="#3f3f46" points="333.93,-107.8 341.93,-105 333.93,-102.2 333.93,-107.8"/>
</g>
<!-- entrypoint_target_operation_project_list -->
<g id="node3" class="node">
<title>entrypoint_target_operation_project_list</title>
<polygon fill="#ffffff" stroke="transparent" points="487,-59 487,-151 710,-151 710,-59 487,-59"/>
<polygon fill="#2563eb" stroke="transparent" points="488.5,-142 488.5,-150 709.5,-150 709.5,-142 488.5,-142"/>
<polygon fill="#eff6ff" stroke="transparent" points="488.5,-111 488.5,-142 709.5,-142 709.5,-111 488.5,-111"/>
<text text-anchor="start" x="492.5" y="-128.6" font-family="Arial" font-weight="bold" font-size="13.00">operation.project.list</text>
<text text-anchor="start" x="492.5" y="-117.6" font-family="Arial" font-size="8.00" fill="#64748b">target operation</text>
<text text-anchor="start" x="492.5" y="-100" font-family="Arial" font-style="italic" font-size="10.00" fill="#3f3f46">The board requires a project list query scoped by</text>
<text text-anchor="start" x="492.5" y="-89" font-family="Arial" font-style="italic" font-size="10.00" fill="#3f3f46">workspace.</text>
<text text-anchor="start" x="493.5" y="-69" font-family="Arial" font-weight="bold" font-size="10.00">kind:</text>
<text text-anchor="start" x="517.5" y="-69" font-family="Arial" font-size="10.00">  query</text>
<polygon fill="none" stroke="#2563eb" points="487,-59 487,-151 710,-151 710,-59 487,-59"/>
</g>
<!-- entrypoint_input_entry_point_api_project_list&#45;&gt;entrypoint_target_operation_project_list -->
<g id="edge2" class="edge">
<title>entrypoint_input_entry_point_api_project_list&#45;&gt;entrypoint_target_operation_project_list</title>
<path fill="none" stroke="#3f3f46" d="M426.22,-105C441.54,-105 459.78,-105 478.56,-105"/>
<polygon fill="#3f3f46" stroke="#3f3f46" points="478.63,-107.8 486.63,-105 478.63,-102.2 478.63,-107.8"/>
</g>
<!-- entrypoint_response_entry_point_api_project_list_listed -->
<g id="node4" class="node">
<title>entrypoint_response_entry_point_api_project_list_listed</title>
<polygon fill="#ffffff" stroke="transparent" points="771,-119 771,-211 931,-211 931,-119 771,-119"/>
<polygon fill="#16a34a" stroke="transparent" points="772,-202 772,-210 930,-210 930,-202 772,-202"/>
<polygon fill="#f0fdf4" stroke="transparent" points="772,-171 772,-202 930,-202 930,-171 772,-171"/>
<text text-anchor="start" x="776" y="-188.6" font-family="Arial" font-weight="bold" font-size="13.00">listed</text>
<text text-anchor="start" x="776" y="-177.6" font-family="Arial" font-size="8.00" fill="#64748b">success response</text>
<text text-anchor="start" x="777" y="-159" font-family="Arial" font-weight="bold" font-size="10.00">status:</text>
<text text-anchor="start" x="808" y="-159" font-family="Arial" font-size="10.00">  200</text>
<text text-anchor="start" x="776" y="-139" font-family="Arial" font-weight="bold" font-size="10.00">body</text>
<text text-anchor="start" x="776" y="-128" font-family="Arial" font-size="10.00">body</text>
<text text-anchor="start" x="798" y="-128" font-family="Arial" font-size="8.00" fill="#94a3b8">  array&lt;Project&gt;</text>
<text text-anchor="start" x="856" y="-128" font-family="Arial" font-size="8.00"> ← $outcome.result</text>
<polygon fill="none" stroke="#16a34a" points="771,-119 771,-211 931,-211 931,-119 771,-119"/>
</g>
<!-- entrypoint_target_operation_project_list&#45;&gt;entrypoint_response_entry_point_api_project_list_listed -->
<g id="edge3" class="edge">
<title>entrypoint_target_operation_project_list&#45;&gt;entrypoint_response_entry_point_api_project_list_listed</title>
<path fill="none" stroke="#3f3f46" d="M710.1,-131.49C727.67,-135.7 745.63,-140 762.58,-144.06"/>
<polygon fill="#3f3f46" stroke="#3f3f46" points="762.37,-146.89 770.8,-146.03 763.68,-141.44 762.37,-146.89"/>
</g>
<!-- entrypoint_response_entry_point_api_project_list_unavailable -->
<g id="node5" class="node">
<title>entrypoint_response_entry_point_api_project_list_unavailable</title>
<polygon fill="#ffffff" stroke="transparent" points="782.5,0 782.5,-92 919.5,-92 919.5,0 782.5,0"/>
<polygon fill="#dc2626" stroke="transparent" points="784,-83 784,-91 919,-91 919,-83 784,-83"/>
<polygon fill="#fef2f2" stroke="transparent" points="784,-52 784,-83 919,-83 919,-52 784,-52"/>
<text text-anchor="start" x="788" y="-69.6" font-family="Arial" font-weight="bold" font-size="13.00">unavailable</text>
<text text-anchor="start" x="788" y="-58.6" font-family="Arial" font-size="8.00" fill="#64748b">failure response</text>
<text text-anchor="start" x="789" y="-40" font-family="Arial" font-weight="bold" font-size="10.00">status:</text>
<text text-anchor="start" x="820" y="-40" font-family="Arial" font-size="10.00">  503</text>
<text text-anchor="start" x="788" y="-20" font-family="Arial" font-weight="bold" font-size="10.00">body</text>
<text text-anchor="start" x="788" y="-9" font-family="Arial" font-size="10.00">body</text>
<text text-anchor="start" x="810" y="-9" font-family="Arial" font-size="8.00" fill="#94a3b8">  Problem</text>
<text text-anchor="start" x="845" y="-9" font-family="Arial" font-size="8.00"> ← $outcome.result</text>
<polygon fill="none" stroke="#dc2626" points="782.5,0 782.5,-92 919.5,-92 919.5,0 782.5,0"/>
</g>
<!-- entrypoint_target_operation_project_list&#45;&gt;entrypoint_response_entry_point_api_project_list_unavailable -->
<g id="edge4" class="edge">
<title>entrypoint_target_operation_project_list&#45;&gt;entrypoint_response_entry_point_api_project_list_unavailable</title>
<path fill="none" stroke="#3f3f46" d="M710.1,-78.95C731.85,-73.83 754.21,-68.56 774.48,-63.79"/>
<polygon fill="#3f3f46" stroke="#3f3f46" points="775.29,-66.47 782.44,-61.91 774.01,-61.02 775.29,-66.47"/>
</g>
<!-- entrypoint_response_entry_point_api_project_list_listed&#45;&gt;entrypoint_response_entry_point_api_project_list_unavailable -->
</g>
</svg>
