<svg width="822pt" height="247pt"
 viewBox="0.00 0.00 822.00 247.00" xmlns="http://www.w3.org/2000/svg" xmlns:xlink="http://www.w3.org/1999/xlink">
<!-- pyspec-contract-input-sha256: aed50f53acd8bf2d16f10cdf5f796e2409eeebe8c3852db3b119151d0136e397 -->
<g id="graph0" class="graph" transform="scale(1 1) rotate(0) translate(18 229)">
<title>entrypoint_entry_point_api_project_list</title>
<!-- entrypoint_entry_point_api_project_list -->
<g id="node1" class="node">
<title>entrypoint_entry_point_api_project_list</title>
<polygon fill="#ffffff" stroke="transparent" points="0,-43.5 0,-166.5 281,-166.5 281,-43.5 0,-43.5"/>
<polygon fill="#0891b2" stroke="transparent" points="1.5,-157 1.5,-165 280.5,-165 280.5,-157 1.5,-157"/>
<polygon fill="#ecfeff" stroke="transparent" points="1.5,-126 1.5,-157 280.5,-157 280.5,-126 1.5,-126"/>
<text text-anchor="start" x="5.5" y="-143.6" font-family="Arial" font-weight="bold" font-size="13.00">GET /workspaces/{workspace_id}/projects</text>
<text text-anchor="start" x="5.5" y="-132.6" font-family="Arial" font-size="8.00" fill="#64748b">http_api entry point</text>
<text text-anchor="start" x="5.5" y="-115" font-family="Arial" font-style="italic" font-size="10.00" fill="#3f3f46">HTTP endpoint for listing dispatch projects.</text>
<text text-anchor="start" x="6.5" y="-95" font-family="Arial" font-weight="bold" font-size="10.00">endpoint:</text>
<text text-anchor="start" x="51.5" y="-95" font-family="Arial" font-size="10.00">  endpoint.project.list</text>
<text text-anchor="start" x="6.5" y="-83" font-family="Arial" font-weight="bold" font-size="10.00">authorization_policy:</text>
<text text-anchor="start" x="105.5" y="-83" font-family="Arial" font-size="10.00">  authorization_policy.project.list</text>
<text text-anchor="start" x="5.5" y="-63" font-family="Arial" font-weight="bold" font-size="10.00">path params</text>
<text text-anchor="start" x="5.5" y="-52" font-family="Arial" font-size="10.00">workspace_id</text>
<text text-anchor="start" x="66.5" y="-52" font-family="Arial" font-size="8.00" fill="#94a3b8">  ID</text>
<polygon fill="none" stroke="#0891b2" points="0,-43.5 0,-166.5 281,-166.5 281,-43.5 0,-43.5"/>
</g>
<!-- entrypoint_target_operation_project_list -->
<g id="node2" class="node">
<title>entrypoint_target_operation_project_list</title>
<polygon fill="#ffffff" stroke="transparent" points="342,-59 342,-151 565,-151 565,-59 342,-59"/>
<polygon fill="#2563eb" stroke="transparent" points="343.5,-142 343.5,-150 564.5,-150 564.5,-142 343.5,-142"/>
<polygon fill="#eff6ff" stroke="transparent" points="343.5,-111 343.5,-142 564.5,-142 564.5,-111 343.5,-111"/>
<text text-anchor="start" x="347.5" y="-128.6" font-family="Arial" font-weight="bold" font-size="13.00">operation.project.list</text>
<text text-anchor="start" x="347.5" y="-117.6" font-family="Arial" font-size="8.00" fill="#64748b">target operation</text>
<text text-anchor="start" x="347.5" y="-100" font-family="Arial" font-style="italic" font-size="10.00" fill="#3f3f46">The board requires a project list query scoped by</text>
<text text-anchor="start" x="347.5" y="-89" font-family="Arial" font-style="italic" font-size="10.00" fill="#3f3f46">workspace.</text>
<text text-anchor="start" x="348.5" y="-69" font-family="Arial" font-weight="bold" font-size="10.00">kind:</text>
<text text-anchor="start" x="372.5" y="-69" font-family="Arial" font-size="10.00">  query</text>
<polygon fill="none" stroke="#2563eb" points="342,-59 342,-151 565,-151 565,-59 342,-59"/>
</g>
<!-- entrypoint_entry_point_api_project_list&#45;&gt;entrypoint_target_operation_project_list -->
<g id="edge1" class="edge">
<title>entrypoint_entry_point_api_project_list&#45;&gt;entrypoint_target_operation_project_list</title>
<path fill="none" stroke="#3f3f46" d="M281.08,-105C298.57,-105 316.32,-105 333.45,-105"/>
<polygon fill="#3f3f46" stroke="#3f3f46" points="333.81,-107.8 341.81,-105 333.81,-102.2 333.81,-107.8"/>
</g>
<!-- entrypoint_response_entry_point_api_project_list_listed -->
<g id="node3" class="node">
<title>entrypoint_response_entry_point_api_project_list_listed</title>
<polygon fill="#ffffff" stroke="transparent" points="626,-119 626,-211 786,-211 786,-119 626,-119"/>
<polygon fill="#16a34a" stroke="transparent" points="627,-202 627,-210 785,-210 785,-202 627,-202"/>
<polygon fill="#f0fdf4" stroke="transparent" points="627,-171 627,-202 785,-202 785,-171 627,-171"/>
<text text-anchor="start" x="631" y="-188.6" font-family="Arial" font-weight="bold" font-size="13.00">listed</text>
<text text-anchor="start" x="631" y="-177.6" font-family="Arial" font-size="8.00" fill="#64748b">success response</text>
<text text-anchor="start" x="632" y="-159" font-family="Arial" font-weight="bold" font-size="10.00">status:</text>
<text text-anchor="start" x="663" y="-159" font-family="Arial" font-size="10.00">  200</text>
<text text-anchor="start" x="631" y="-139" font-family="Arial" font-weight="bold" font-size="10.00">body</text>
<text text-anchor="start" x="631" y="-128" font-family="Arial" font-size="10.00">body</text>
<text text-anchor="start" x="653" y="-128" font-family="Arial" font-size="8.00" fill="#94a3b8">  array&lt;Project&gt;</text>
<text text-anchor="start" x="711" y="-128" font-family="Arial" font-size="8.00"> ← $outcome.result</text>
<polygon fill="none" stroke="#16a34a" points="626,-119 626,-211 786,-211 786,-119 626,-119"/>
</g>
<!-- entrypoint_target_operation_project_list&#45;&gt;entrypoint_response_entry_point_api_project_list_listed -->
<g id="edge2" class="edge">
<title>entrypoint_target_operation_project_list&#45;&gt;entrypoint_response_entry_point_api_project_list_listed</title>
<path fill="none" stroke="#3f3f46" d="M565.1,-131.49C582.67,-135.7 600.63,-140 617.58,-144.06"/>
<polygon fill="#3f3f46" stroke="#3f3f46" points="617.37,-146.89 625.8,-146.03 618.68,-141.44 617.37,-146.89"/>
</g>
<!-- entrypoint_response_entry_point_api_project_list_unavailable -->
<g id="node4" class="node">
<title>entrypoint_response_entry_point_api_project_list_unavailable</title>
<polygon fill="#ffffff" stroke="transparent" points="637.5,0 637.5,-92 774.5,-92 774.5,0 637.5,0"/>
<polygon fill="#dc2626" stroke="transparent" points="639,-83 639,-91 774,-91 774,-83 639,-83"/>
<polygon fill="#fef2f2" stroke="transparent" points="639,-52 639,-83 774,-83 774,-52 639,-52"/>
<text text-anchor="start" x="643" y="-69.6" font-family="Arial" font-weight="bold" font-size="13.00">unavailable</text>
<text text-anchor="start" x="643" y="-58.6" font-family="Arial" font-size="8.00" fill="#64748b">failure response</text>
<text text-anchor="start" x="644" y="-40" font-family="Arial" font-weight="bold" font-size="10.00">status:</text>
<text text-anchor="start" x="675" y="-40" font-family="Arial" font-size="10.00">  503</text>
<text text-anchor="start" x="643" y="-20" font-family="Arial" font-weight="bold" font-size="10.00">body</text>
<text text-anchor="start" x="643" y="-9" font-family="Arial" font-size="10.00">body</text>
<text text-anchor="start" x="665" y="-9" font-family="Arial" font-size="8.00" fill="#94a3b8">  Problem</text>
<text text-anchor="start" x="700" y="-9" font-family="Arial" font-size="8.00"> ← $outcome.result</text>
<polygon fill="none" stroke="#dc2626" points="637.5,0 637.5,-92 774.5,-92 774.5,0 637.5,0"/>
</g>
<!-- entrypoint_target_operation_project_list&#45;&gt;entrypoint_response_entry_point_api_project_list_unavailable -->
<g id="edge3" class="edge">
<title>entrypoint_target_operation_project_list&#45;&gt;entrypoint_response_entry_point_api_project_list_unavailable</title>
<path fill="none" stroke="#3f3f46" d="M565.1,-78.95C586.85,-73.83 609.21,-68.56 629.48,-63.79"/>
<polygon fill="#3f3f46" stroke="#3f3f46" points="630.29,-66.47 637.44,-61.91 629.01,-61.02 630.29,-66.47"/>
</g>
<!-- entrypoint_response_entry_point_api_project_list_listed&#45;&gt;entrypoint_response_entry_point_api_project_list_unavailable -->
</g>
</svg>
