<svg width="822pt" height="485pt"
 viewBox="0.00 0.00 822.00 485.00" xmlns="http://www.w3.org/2000/svg" xmlns:xlink="http://www.w3.org/1999/xlink">
<!-- pyspec-contract-input-sha256: 9fee6d499751227eeb31d183a183a12ea2fa2c4163ca227d162072864fcab7b0 -->
<g id="graph0" class="graph" transform="scale(1 1) rotate(0) translate(18 467)">
<title>entrypoint_entry_point_api_project_list</title>
<!-- entrypoint_entry_point_api_project_list -->
<g id="node1" class="node">
<title>entrypoint_entry_point_api_project_list</title>
<polygon fill="#ffffff" stroke="transparent" points="0,-162.5 0,-285.5 281,-285.5 281,-162.5 0,-162.5"/>
<polygon fill="#0891b2" stroke="transparent" points="1.5,-276 1.5,-284 280.5,-284 280.5,-276 1.5,-276"/>
<polygon fill="#ecfeff" stroke="transparent" points="1.5,-245 1.5,-276 280.5,-276 280.5,-245 1.5,-245"/>
<text text-anchor="start" x="5.5" y="-262.6" font-family="Arial" font-weight="bold" font-size="13.00">GET /workspaces/{workspace_id}/projects</text>
<text text-anchor="start" x="5.5" y="-251.6" font-family="Arial" font-size="8.00" fill="#64748b">http_api entry point</text>
<text text-anchor="start" x="5.5" y="-234" font-family="Arial" font-style="italic" font-size="10.00" fill="#3f3f46">HTTP endpoint for listing dispatch projects.</text>
<text text-anchor="start" x="6.5" y="-214" font-family="Arial" font-weight="bold" font-size="10.00">endpoint:</text>
<text text-anchor="start" x="51.5" y="-214" font-family="Arial" font-size="10.00">  endpoint.project.list</text>
<text text-anchor="start" x="6.5" y="-202" font-family="Arial" font-weight="bold" font-size="10.00">authorization_policy:</text>
<text text-anchor="start" x="105.5" y="-202" font-family="Arial" font-size="10.00">  authorization_policy.project.list</text>
<text text-anchor="start" x="5.5" y="-182" font-family="Arial" font-weight="bold" font-size="10.00">path params</text>
<text text-anchor="start" x="5.5" y="-171" font-family="Arial" font-size="10.00">workspace_id</text>
<text text-anchor="start" x="66.5" y="-171" font-family="Arial" font-size="8.00" fill="#94a3b8">  ID</text>
<polygon fill="none" stroke="#0891b2" points="0,-162.5 0,-285.5 281,-285.5 281,-162.5 0,-162.5"/>
</g>
<!-- entrypoint_target_operation_project_list -->
<g id="node2" class="node">
<title>entrypoint_target_operation_project_list</title>
<polygon fill="#ffffff" stroke="transparent" points="342,-152 342,-296 565,-296 565,-152 342,-152"/>
<polygon fill="#2563eb" stroke="transparent" points="343.5,-287 343.5,-295 564.5,-295 564.5,-287 343.5,-287"/>
<polygon fill="#eff6ff" stroke="transparent" points="343.5,-256 343.5,-287 564.5,-287 564.5,-256 343.5,-256"/>
<text text-anchor="start" x="347.5" y="-273.6" font-family="Arial" font-weight="bold" font-size="13.00">operation.project.list</text>
<text text-anchor="start" x="347.5" y="-262.6" font-family="Arial" font-size="8.00" fill="#64748b">target operation</text>
<text text-anchor="start" x="347.5" y="-245" font-family="Arial" font-style="italic" font-size="10.00" fill="#3f3f46">The board requires a project list query scoped by</text>
<text text-anchor="start" x="347.5" y="-234" font-family="Arial" font-style="italic" font-size="10.00" fill="#3f3f46">workspace.</text>
<text text-anchor="start" x="348.5" y="-214" font-family="Arial" font-weight="bold" font-size="10.00">kind:</text>
<text text-anchor="start" x="372.5" y="-214" font-family="Arial" font-size="10.00">  query</text>
<text text-anchor="start" x="347.5" y="-194" font-family="Arial" font-weight="bold" font-size="10.00">authorization</text>
<text text-anchor="start" x="347.5" y="-182" font-family="Arial" font-size="10.00">policy: authorization_policy.project.list</text>
<text text-anchor="start" x="347.5" y="-171" font-family="Arial" font-size="10.00">unauthenticated_as: unauthenticated</text>
<text text-anchor="start" x="347.5" y="-160" font-family="Arial" font-size="10.00">forbidden_as: forbidden</text>
<polygon fill="none" stroke="#2563eb" points="342,-152 342,-296 565,-296 565,-152 342,-152"/>
</g>
<!-- entrypoint_entry_point_api_project_list&#45;&gt;entrypoint_target_operation_project_list -->
<g id="edge1" class="edge">
<title>entrypoint_entry_point_api_project_list&#45;&gt;entrypoint_target_operation_project_list</title>
<path fill="none" stroke="#3f3f46" d="M281.08,-224C298.57,-224 316.32,-224 333.45,-224"/>
<polygon fill="#3f3f46" stroke="#3f3f46" points="333.81,-226.8 341.81,-224 333.81,-221.2 333.81,-226.8"/>
</g>
<!-- entrypoint_response_entry_point_api_project_list_forbidden -->
<g id="node3" class="node">
<title>entrypoint_response_entry_point_api_project_list_forbidden</title>
<polygon fill="#ffffff" stroke="transparent" points="637.5,-357 637.5,-449 774.5,-449 774.5,-357 637.5,-357"/>
<polygon fill="#dc2626" stroke="transparent" points="639,-440 639,-448 774,-448 774,-440 639,-440"/>
<polygon fill="#fef2f2" stroke="transparent" points="639,-409 639,-440 774,-440 774,-409 639,-409"/>
<text text-anchor="start" x="643" y="-426.6" font-family="Arial" font-weight="bold" font-size="13.00">forbidden</text>
<text text-anchor="start" x="643" y="-415.6" font-family="Arial" font-size="8.00" fill="#64748b">failure response</text>
<text text-anchor="start" x="644" y="-397" font-family="Arial" font-weight="bold" font-size="10.00">status:</text>
<text text-anchor="start" x="675" y="-397" font-family="Arial" font-size="10.00">  403</text>
<text text-anchor="start" x="643" y="-377" font-family="Arial" font-weight="bold" font-size="10.00">body</text>
<text text-anchor="start" x="643" y="-366" font-family="Arial" font-size="10.00">body</text>
<text text-anchor="start" x="665" y="-366" font-family="Arial" font-size="8.00" fill="#94a3b8">  Problem</text>
<text text-anchor="start" x="700" y="-366" font-family="Arial" font-size="8.00"> ← $outcome.result</text>
<polygon fill="none" stroke="#dc2626" points="637.5,-357 637.5,-449 774.5,-449 774.5,-357 637.5,-357"/>
</g>
<!-- entrypoint_target_operation_project_list&#45;&gt;entrypoint_response_entry_point_api_project_list_forbidden -->
<g id="edge2" class="edge">
<title>entrypoint_target_operation_project_list&#45;&gt;entrypoint_response_entry_point_api_project_list_forbidden</title>
<path fill="none" stroke="#3f3f46" d="M555.31,-296.03C581.53,-314.77 609.23,-334.57 633.59,-351.97"/>
<polygon fill="#3f3f46" stroke="#3f3f46" points="632.23,-354.44 640.36,-356.81 635.48,-349.88 632.23,-354.44"/>
</g>
<!-- entrypoint_response_entry_point_api_project_list_listed -->
<g id="node4" class="node">
<title>entrypoint_response_entry_point_api_project_list_listed</title>
<polygon fill="#ffffff" stroke="transparent" points="626,-238 626,-330 786,-330 786,-238 626,-238"/>
<polygon fill="#16a34a" stroke="transparent" points="627,-321 627,-329 785,-329 785,-321 627,-321"/>
<polygon fill="#f0fdf4" stroke="transparent" points="627,-290 627,-321 785,-321 785,-290 627,-290"/>
<text text-anchor="start" x="631" y="-307.6" font-family="Arial" font-weight="bold" font-size="13.00">listed</text>
<text text-anchor="start" x="631" y="-296.6" font-family="Arial" font-size="8.00" fill="#64748b">success response</text>
<text text-anchor="start" x="632" y="-278" font-family="Arial" font-weight="bold" font-size="10.00">status:</text>
<text text-anchor="start" x="663" y="-278" font-family="Arial" font-size="10.00">  200</text>
<text text-anchor="start" x="631" y="-258" font-family="Arial" font-weight="bold" font-size="10.00">body</text>
<text text-anchor="start" x="631" y="-247" font-family="Arial" font-size="10.00">body</text>
<text text-anchor="start" x="653" y="-247" font-family="Arial" font-size="8.00" fill="#94a3b8">  array&lt;Project&gt;</text>
<text text-anchor="start" x="711" y="-247" font-family="Arial" font-size="8.00"> ← $outcome.result</text>
<polygon fill="none" stroke="#16a34a" points="626,-238 626,-330 786,-330 786,-238 626,-238"/>
</g>
<!-- entrypoint_target_operation_project_list&#45;&gt;entrypoint_response_entry_point_api_project_list_listed -->
<g id="edge3" class="edge">
<title>entrypoint_target_operation_project_list&#45;&gt;entrypoint_response_entry_point_api_project_list_listed</title>
<path fill="none" stroke="#3f3f46" d="M565.1,-250.49C582.67,-254.7 600.63,-259 617.58,-263.06"/>
<polygon fill="#3f3f46" stroke="#3f3f46" points="617.37,-265.89 625.8,-265.03 618.68,-260.44 617.37,-265.89"/>
</g>
<!-- entrypoint_response_entry_point_api_project_list_unauthenticated -->
<g id="node5" class="node">
<title>entrypoint_response_entry_point_api_project_list_unauthenticated</title>
<polygon fill="#ffffff" stroke="transparent" points="637.5,-119 637.5,-211 774.5,-211 774.5,-119 637.5,-119"/>
<polygon fill="#dc2626" stroke="transparent" points="639,-202 639,-210 774,-210 774,-202 639,-202"/>
<polygon fill="#fef2f2" stroke="transparent" points="639,-171 639,-202 774,-202 774,-171 639,-171"/>
<text text-anchor="start" x="643" y="-188.6" font-family="Arial" font-weight="bold" font-size="13.00">unauthenticated</text>
<text text-anchor="start" x="643" y="-177.6" font-family="Arial" font-size="8.00" fill="#64748b">failure response</text>
<text text-anchor="start" x="644" y="-159" font-family="Arial" font-weight="bold" font-size="10.00">status:</text>
<text text-anchor="start" x="675" y="-159" font-family="Arial" font-size="10.00">  401</text>
<text text-anchor="start" x="643" y="-139" font-family="Arial" font-weight="bold" font-size="10.00">body</text>
<text text-anchor="start" x="643" y="-128" font-family="Arial" font-size="10.00">body</text>
<text text-anchor="start" x="665" y="-128" font-family="Arial" font-size="8.00" fill="#94a3b8">  Problem</text>
<text text-anchor="start" x="700" y="-128" font-family="Arial" font-size="8.00"> ← $outcome.result</text>
<polygon fill="none" stroke="#dc2626" points="637.5,-119 637.5,-211 774.5,-211 774.5,-119 637.5,-119"/>
</g>
<!-- entrypoint_target_operation_project_list&#45;&gt;entrypoint_response_entry_point_api_project_list_unauthenticated -->
<g id="edge4" class="edge">
<title>entrypoint_target_operation_project_list&#45;&gt;entrypoint_response_entry_point_api_project_list_unauthenticated</title>
<path fill="none" stroke="#3f3f46" d="M565.1,-197.95C586.85,-192.83 609.21,-187.56 629.48,-182.79"/>
<polygon fill="#3f3f46" stroke="#3f3f46" points="630.29,-185.47 637.44,-180.91 629.01,-180.02 630.29,-185.47"/>
</g>
<!-- entrypoint_response_entry_point_api_project_list_unavailable -->
<g id="node6" class="node">
<title>entrypoint_response_entry_point_api_project_list_unavailable</title>
<polygon fill="#ffffff" stroke="transparent" points="637.5,0 637.5,-92 774.5,-92 774.5,0 637.5,0"/>
<polygon fill="#dc2626" stroke="transparent" points="639,-83 639,-91 774,-91 774,-83 639,-83"/>
<polygon fill="#fef2f2" stroke="transparent" points="639,-52 639,-83 774,-83 774,-52 639,-52"/>
<text text-anchor="start" x="643" y="-69.6" font-family="Arial" font-weight="bold" font-size="13.00">unavailable</text>
<text text-anchor="start" x="643" y="-58.6" font-family="Arial" font-size="8.00" fill="#64748b">failure response</text>
<text text-anchor="start" x="644" y="-40" font-family="Arial" font-weight="bold" font-size="10.00">status:</text>
<text text-anchor="start" x="675" y="-40" font-family="Arial" font-size="10.00">  503</text>
<text text-anchor="start" x="643" y="-20" font-family="Arial" font-weight="bold" font-size="10.00">body</text>
<text text-anchor="start" x="643" y="-9" font-family="Arial" font-size="10.00">body</text>
<text text-anchor="start" x="665" y="-9" font-family="Arial" font-size="8.00" fill="#94a3b8">  Problem</text>
<text text-anchor="start" x="700" y="-9" font-family="Arial" font-size="8.00"> ← $outcome.result</text>
<polygon fill="none" stroke="#dc2626" points="637.5,0 637.5,-92 774.5,-92 774.5,0 637.5,0"/>
</g>
<!-- entrypoint_target_operation_project_list&#45;&gt;entrypoint_response_entry_point_api_project_list_unavailable -->
<g id="edge5" class="edge">
<title>entrypoint_target_operation_project_list&#45;&gt;entrypoint_response_entry_point_api_project_list_unavailable</title>
<path fill="none" stroke="#3f3f46" d="M556.03,-151.86C581.94,-133.45 609.25,-114.04 633.31,-96.94"/>
<polygon fill="#3f3f46" stroke="#3f3f46" points="635.11,-99.1 640.01,-92.18 631.87,-94.53 635.11,-99.1"/>
</g>
<!-- entrypoint_response_entry_point_api_project_list_forbidden&#45;&gt;entrypoint_response_entry_point_api_project_list_listed -->
<!-- entrypoint_response_entry_point_api_project_list_listed&#45;&gt;entrypoint_response_entry_point_api_project_list_unauthenticated -->
<!-- entrypoint_response_entry_point_api_project_list_unauthenticated&#45;&gt;entrypoint_response_entry_point_api_project_list_unavailable -->
</g>
</svg>
