<svg width="858pt" height="485pt"
 viewBox="0.00 0.00 858.00 485.00" xmlns="http://www.w3.org/2000/svg" xmlns:xlink="http://www.w3.org/1999/xlink">
<!-- pyspec-contract-input-sha256: 7e44d0620bd4914db5d8a5eaa8718bf90e132616352588603fd1ed44b2f87bc7 -->
<g id="graph0" class="graph" transform="scale(1 1) rotate(0) translate(18 467)">
<title>external_interface_external_interface_api_project_create</title>
<!-- external_interface_external_interface_api_project_create -->
<g id="node1" class="node">
<title>external_interface_external_interface_api_project_create</title>
<polygon fill="#ffffff" stroke="transparent" points="0,-105 0,-343 290,-343 290,-105 0,-105"/>
<polygon fill="#0891b2" stroke="transparent" points="1,-334 1,-342 289,-342 289,-334 1,-334"/>
<polygon fill="#ecfeff" stroke="transparent" points="1,-303 1,-334 289,-334 289,-303 1,-303"/>
<text text-anchor="start" x="5" y="-320.6" font-family="Arial" font-weight="bold" font-size="13.00">POST /workspaces/{workspace_id}/projects</text>
<text text-anchor="start" x="5" y="-309.6" font-family="Arial" font-size="8.00" fill="#64748b">http_api external interface</text>
<text text-anchor="start" x="5" y="-292" font-family="Arial" font-style="italic" font-size="10.00" fill="#3f3f46">HTTP endpoint for creating a dispatch project.</text>
<text text-anchor="start" x="6" y="-272" font-family="Arial" font-weight="bold" font-size="10.00">http operation:</text>
<text text-anchor="start" x="75" y="-272" font-family="Arial" font-size="10.00">  http_operation.project.create</text>
<text text-anchor="start" x="6" y="-260" font-family="Arial" font-weight="bold" font-size="10.00">access_policy:</text>
<text text-anchor="start" x="75" y="-260" font-family="Arial" font-size="10.00">  access_policy.project.member</text>
<text text-anchor="start" x="5" y="-240" font-family="Arial" font-weight="bold" font-size="10.00">path params</text>
<text text-anchor="start" x="5" y="-229" font-family="Arial" font-size="10.00">workspace_id</text>
<text text-anchor="start" x="66" y="-229" font-family="Arial" font-size="8.00" fill="#94a3b8">  string</text>
<text text-anchor="start" x="5" y="-210" font-family="Arial" font-weight="bold" font-size="10.00">body</text>
<text text-anchor="start" x="5" y="-199" font-family="Arial" font-size="10.00">customer</text>
<text text-anchor="start" x="46" y="-199" font-family="Arial" font-size="8.00" fill="#94a3b8">  string</text>
<text text-anchor="start" x="5" y="-188" font-family="Arial" font-size="10.00">priority</text>
<text text-anchor="start" x="35" y="-188" font-family="Arial" font-size="8.00" fill="#94a3b8">  string</text>
<text text-anchor="start" x="5" y="-177" font-family="Arial" font-size="10.00">title</text>
<text text-anchor="start" x="21" y="-177" font-family="Arial" font-size="8.00" fill="#94a3b8">  string</text>
<text text-anchor="start" x="5" y="-158" font-family="Arial" font-weight="bold" font-size="10.00">input mapping</text>
<text text-anchor="start" x="5" y="-146" font-family="Arial" font-size="10.00">customer ← adapter_input.body.customer</text>
<text text-anchor="start" x="5" y="-135" font-family="Arial" font-size="10.00">priority ← adapter_input.body.priority</text>
<text text-anchor="start" x="5" y="-124" font-family="Arial" font-size="10.00">title ← adapter_input.body.title</text>
<text text-anchor="start" x="5" y="-113" font-family="Arial" font-size="10.00">workspace_id ← adapter_input.path_params.workspace_id</text>
<polygon fill="none" stroke="#0891b2" points="0,-105 0,-343 290,-343 290,-105 0,-105"/>
</g>
<!-- external_interface_invocation_command_project_create -->
<g id="node2" class="node">
<title>external_interface_invocation_command_project_create</title>
<polygon fill="#ffffff" stroke="transparent" points="351,-157.5 351,-290.5 584,-290.5 584,-157.5 351,-157.5"/>
<polygon fill="#2563eb" stroke="transparent" points="352.5,-281 352.5,-289 583.5,-289 583.5,-281 352.5,-281"/>
<polygon fill="#eff6ff" stroke="transparent" points="352.5,-250 352.5,-281 583.5,-281 583.5,-250 352.5,-250"/>
<text text-anchor="start" x="356.5" y="-267.6" font-family="Arial" font-weight="bold" font-size="13.00">command.project.create</text>
<text text-anchor="start" x="356.5" y="-256.6" font-family="Arial" font-size="8.00" fill="#64748b">invoked command</text>
<text text-anchor="start" x="356.5" y="-239" font-family="Arial" font-style="italic" font-size="10.00" fill="#3f3f46">Members can create a new dispatch project.</text>
<text text-anchor="start" x="357.5" y="-219" font-family="Arial" font-weight="bold" font-size="10.00">kind:</text>
<text text-anchor="start" x="381.5" y="-219" font-family="Arial" font-size="10.00">  command</text>
<text text-anchor="start" x="356.5" y="-199" font-family="Arial" font-weight="bold" font-size="10.00">authorization</text>
<text text-anchor="start" x="356.5" y="-187" font-family="Arial" font-size="10.00">policy: access_policy.project.member</text>
<text text-anchor="start" x="356.5" y="-176" font-family="Arial" font-size="10.00">authentication_required_as: authentication_required</text>
<text text-anchor="start" x="356.5" y="-165" font-family="Arial" font-size="10.00">access_denied_as: access_denied</text>
<polygon fill="none" stroke="#2563eb" points="351,-157.5 351,-290.5 584,-290.5 584,-157.5 351,-157.5"/>
</g>
<!-- external_interface_external_interface_api_project_create&#45;&gt;external_interface_invocation_command_project_create -->
<g id="edge1" class="edge">
<title>external_interface_external_interface_api_project_create&#45;&gt;external_interface_invocation_command_project_create</title>
<path fill="none" stroke="#3f3f46" d="M290.31,-224C307.73,-224 325.4,-224 342.5,-224"/>
<polygon fill="#3f3f46" stroke="#3f3f46" points="342.84,-226.8 350.84,-224 342.84,-221.2 342.84,-226.8"/>
</g>
<!-- external_interface_response_external_interface_api_project_create_access_denied -->
<g id="node3" class="node">
<title>external_interface_response_external_interface_api_project_create_access_denied</title>
<polygon fill="#ffffff" stroke="transparent" points="645,-357 645,-449 822,-449 822,-357 645,-357"/>
<polygon fill="#dc2626" stroke="transparent" points="646.5,-440 646.5,-448 821.5,-448 821.5,-440 646.5,-440"/>
<polygon fill="#fef2f2" stroke="transparent" points="646.5,-409 646.5,-440 821.5,-440 821.5,-409 646.5,-409"/>
<text text-anchor="start" x="650.5" y="-426.6" font-family="Arial" font-weight="bold" font-size="13.00">access_denied</text>
<text text-anchor="start" x="650.5" y="-415.6" font-family="Arial" font-size="8.00" fill="#64748b">failure response</text>
<text text-anchor="start" x="651.5" y="-397" font-family="Arial" font-weight="bold" font-size="10.00">status:</text>
<text text-anchor="start" x="682.5" y="-397" font-family="Arial" font-size="10.00">  403</text>
<text text-anchor="start" x="650.5" y="-377" font-family="Arial" font-weight="bold" font-size="10.00">body</text>
<text text-anchor="start" x="650.5" y="-366" font-family="Arial" font-size="10.00">body</text>
<text text-anchor="start" x="672.5" y="-366" font-family="Arial" font-size="8.00" fill="#94a3b8">  Problem</text>
<text text-anchor="start" x="707.5" y="-366" font-family="Arial" font-size="8.00"> ← $invocation_outcome.result</text>
<polygon fill="none" stroke="#dc2626" points="645,-357 645,-449 822,-449 822,-357 645,-357"/>
</g>
<!-- external_interface_invocation_command_project_create&#45;&gt;external_interface_response_external_interface_api_project_create_access_denied -->
<g id="edge2" class="edge">
<title>external_interface_invocation_command_project_create&#45;&gt;external_interface_response_external_interface_api_project_create_access_denied</title>
<path fill="none" stroke="#3f3f46" d="M566.48,-290.71C592.03,-308.08 619.53,-326.76 645,-344 649.08,-346.76 653.27,-349.6 657.5,-352.46"/>
<polygon fill="#3f3f46" stroke="#3f3f46" points="655.98,-354.81 664.18,-356.97 659.12,-350.17 655.98,-354.81"/>
</g>
<!-- external_interface_response_external_interface_api_project_create_authentication_required -->
<g id="node4" class="node">
<title>external_interface_response_external_interface_api_project_create_authentication_required</title>
<polygon fill="#ffffff" stroke="transparent" points="645,-238 645,-330 822,-330 822,-238 645,-238"/>
<polygon fill="#dc2626" stroke="transparent" points="646.5,-321 646.5,-329 821.5,-329 821.5,-321 646.5,-321"/>
<polygon fill="#fef2f2" stroke="transparent" points="646.5,-290 646.5,-321 821.5,-321 821.5,-290 646.5,-290"/>
<text text-anchor="start" x="650.5" y="-307.6" font-family="Arial" font-weight="bold" font-size="13.00">authentication_required</text>
<text text-anchor="start" x="650.5" y="-296.6" font-family="Arial" font-size="8.00" fill="#64748b">failure response</text>
<text text-anchor="start" x="651.5" y="-278" font-family="Arial" font-weight="bold" font-size="10.00">status:</text>
<text text-anchor="start" x="682.5" y="-278" font-family="Arial" font-size="10.00">  401</text>
<text text-anchor="start" x="650.5" y="-258" font-family="Arial" font-weight="bold" font-size="10.00">body</text>
<text text-anchor="start" x="650.5" y="-247" font-family="Arial" font-size="10.00">body</text>
<text text-anchor="start" x="672.5" y="-247" font-family="Arial" font-size="8.00" fill="#94a3b8">  Problem</text>
<text text-anchor="start" x="707.5" y="-247" font-family="Arial" font-size="8.00"> ← $invocation_outcome.result</text>
<polygon fill="none" stroke="#dc2626" points="645,-238 645,-330 822,-330 822,-238 645,-238"/>
</g>
<!-- external_interface_invocation_command_project_create&#45;&gt;external_interface_response_external_interface_api_project_create_authentication_required -->
<g id="edge3" class="edge">
<title>external_interface_invocation_command_project_create&#45;&gt;external_interface_response_external_interface_api_project_create_authentication_required</title>
<path fill="none" stroke="#3f3f46" d="M584.29,-250.32C601.96,-254.33 620.01,-258.43 637.17,-262.33"/>
<polygon fill="#3f3f46" stroke="#3f3f46" points="636.56,-265.07 644.98,-264.11 637.8,-259.61 636.56,-265.07"/>
</g>
<!-- external_interface_response_external_interface_api_project_create_created -->
<g id="node5" class="node">
<title>external_interface_response_external_interface_api_project_create_created</title>
<polygon fill="#ffffff" stroke="transparent" points="647.5,-119 647.5,-211 819.5,-211 819.5,-119 647.5,-119"/>
<polygon fill="#16a34a" stroke="transparent" points="648.5,-202 648.5,-210 818.5,-210 818.5,-202 648.5,-202"/>
<polygon fill="#f0fdf4" stroke="transparent" points="648.5,-171 648.5,-202 818.5,-202 818.5,-171 648.5,-171"/>
<text text-anchor="start" x="652.5" y="-188.6" font-family="Arial" font-weight="bold" font-size="13.00">created</text>
<text text-anchor="start" x="652.5" y="-177.6" font-family="Arial" font-size="8.00" fill="#64748b">success response</text>
<text text-anchor="start" x="653.5" y="-159" font-family="Arial" font-weight="bold" font-size="10.00">status:</text>
<text text-anchor="start" x="684.5" y="-159" font-family="Arial" font-size="10.00">  201</text>
<text text-anchor="start" x="652.5" y="-139" font-family="Arial" font-weight="bold" font-size="10.00">body</text>
<text text-anchor="start" x="652.5" y="-128" font-family="Arial" font-size="10.00">body</text>
<text text-anchor="start" x="674.5" y="-128" font-family="Arial" font-size="8.00" fill="#94a3b8">  Project</text>
<text text-anchor="start" x="704.5" y="-128" font-family="Arial" font-size="8.00"> ← $invocation_outcome.result</text>
<polygon fill="none" stroke="#16a34a" points="647.5,-119 647.5,-211 819.5,-211 819.5,-119 647.5,-119"/>
</g>
<!-- external_interface_invocation_command_project_create&#45;&gt;external_interface_response_external_interface_api_project_create_created -->
<g id="edge4" class="edge">
<title>external_interface_invocation_command_project_create&#45;&gt;external_interface_response_external_interface_api_project_create_created</title>
<path fill="none" stroke="#3f3f46" d="M584.29,-198.12C602.68,-194.01 621.48,-189.81 639.26,-185.84"/>
<polygon fill="#3f3f46" stroke="#3f3f46" points="640.16,-188.51 647.35,-184.03 638.93,-183.04 640.16,-188.51"/>
</g>
<!-- external_interface_response_external_interface_api_project_create_validation_failed -->
<g id="node6" class="node">
<title>external_interface_response_external_interface_api_project_create_validation_failed</title>
<polygon fill="#ffffff" stroke="transparent" points="645,0 645,-92 822,-92 822,0 645,0"/>
<polygon fill="#dc2626" stroke="transparent" points="646.5,-83 646.5,-91 821.5,-91 821.5,-83 646.5,-83"/>
<polygon fill="#fef2f2" stroke="transparent" points="646.5,-52 646.5,-83 821.5,-83 821.5,-52 646.5,-52"/>
<text text-anchor="start" x="650.5" y="-69.6" font-family="Arial" font-weight="bold" font-size="13.00">validation_failed</text>
<text text-anchor="start" x="650.5" y="-58.6" font-family="Arial" font-size="8.00" fill="#64748b">failure response</text>
<text text-anchor="start" x="651.5" y="-40" font-family="Arial" font-weight="bold" font-size="10.00">status:</text>
<text text-anchor="start" x="682.5" y="-40" font-family="Arial" font-size="10.00">  422</text>
<text text-anchor="start" x="650.5" y="-20" font-family="Arial" font-weight="bold" font-size="10.00">body</text>
<text text-anchor="start" x="650.5" y="-9" font-family="Arial" font-size="10.00">body</text>
<text text-anchor="start" x="672.5" y="-9" font-family="Arial" font-size="8.00" fill="#94a3b8">  Problem</text>
<text text-anchor="start" x="707.5" y="-9" font-family="Arial" font-size="8.00"> ← $invocation_outcome.result</text>
<polygon fill="none" stroke="#dc2626" points="645,0 645,-92 822,-92 822,0 645,0"/>
</g>
<!-- external_interface_invocation_command_project_create&#45;&gt;external_interface_response_external_interface_api_project_create_validation_failed -->
<g id="edge5" class="edge">
<title>external_interface_invocation_command_project_create&#45;&gt;external_interface_response_external_interface_api_project_create_validation_failed</title>
<path fill="none" stroke="#3f3f46" d="M567.18,-157.47C597.01,-137.35 629.27,-115.6 657.3,-96.7"/>
<polygon fill="#3f3f46" stroke="#3f3f46" points="658.89,-99.01 663.96,-92.21 655.76,-94.36 658.89,-99.01"/>
</g>
<!-- external_interface_response_external_interface_api_project_create_access_denied&#45;&gt;external_interface_response_external_interface_api_project_create_authentication_required -->
<!-- external_interface_response_external_interface_api_project_create_authentication_required&#45;&gt;external_interface_response_external_interface_api_project_create_created -->
<!-- external_interface_response_external_interface_api_project_create_created&#45;&gt;external_interface_response_external_interface_api_project_create_validation_failed -->
</g>
</svg>
