<svg width="1610pt" height="369pt"
 viewBox="0.00 0.00 1610.00 369.00" xmlns="http://www.w3.org/2000/svg" xmlns:xlink="http://www.w3.org/1999/xlink">
<g id="graph0" class="graph" transform="scale(1 1) rotate(0) translate(18 351)">
<title>composition_project_board</title>
<!-- view_project_board -->
<g id="node1" class="node">
<title>view_project_board</title>
<polygon fill="#ffffff" stroke="transparent" points="0,-73.5 0,-283.5 215,-283.5 215,-73.5 0,-73.5"/>
<polygon fill="#15803d" stroke="transparent" points="1.5,-272.5 1.5,-282.5 214.5,-282.5 214.5,-272.5 1.5,-272.5"/>
<polygon fill="#f0fdf4" stroke="transparent" points="1.5,-247.5 1.5,-272.5 214.5,-272.5 214.5,-247.5 1.5,-247.5"/>
<text text-anchor="start" x="6.5" y="-257.3" font-family="Arial" font-weight="bold" font-size="14.00">project.board</text>
<text text-anchor="start" x="6.5" y="-234.5" font-family="Arial" font-size="10.00">dashboard view</text>
<text text-anchor="start" x="6.5" y="-214.5" font-family="Arial" font-style="italic" font-size="10.00" fill="#3f3f46">The dispatch board composes list, detail, and</text>
<text text-anchor="start" x="6.5" y="-203.5" font-family="Arial" font-style="italic" font-size="10.00" fill="#3f3f46">activity panels through shared selected&#45;project</text>
<text text-anchor="start" x="6.5" y="-192.5" font-family="Arial" font-style="italic" font-size="10.00" fill="#3f3f46">context.</text>
<text text-anchor="start" x="7.5" y="-170.5" font-family="Arial" font-weight="bold" font-size="10.00">resource:</text>
<text text-anchor="start" x="51.5" y="-170.5" font-family="Arial" font-size="10.00">  Project</text>
<text text-anchor="start" x="6.5" y="-148.5" font-family="Arial" font-weight="bold" font-size="10.00">context</text>
<text text-anchor="start" x="6.5" y="-136.5" font-family="Arial" font-size="10.00">selected_project_id: ID</text>
<text text-anchor="start" x="6.5" y="-125.5" font-family="Arial" font-size="10.00">workspace_id: ID</text>
<text text-anchor="start" x="6.5" y="-105.5" font-family="Arial" font-weight="bold" font-size="10.00">data</text>
<text text-anchor="start" x="6.5" y="-93.5" font-family="Arial" font-size="10.00">capability: project.list</text>
<text text-anchor="start" x="6.5" y="-82.5" font-family="Arial" font-size="10.00">query: query.project.board.list</text>
<polygon fill="none" stroke="#15803d" points="0,-73.5 0,-283.5 215,-283.5 215,-73.5 0,-73.5"/>
</g>
<!-- panel_instance_list -->
<g id="node2" class="node">
<title>panel_instance_list</title>
<polygon fill="#ffffff" stroke="transparent" points="276,-110.5 276,-246.5 490,-246.5 490,-110.5 276,-110.5"/>
<polygon fill="#c2410c" stroke="transparent" points="277,-235.5 277,-245.5 489,-245.5 489,-235.5 277,-235.5"/>
<polygon fill="#fff7ed" stroke="transparent" points="277,-210.5 277,-235.5 489,-235.5 489,-210.5 277,-210.5"/>
<text text-anchor="start" x="282" y="-220.3" font-family="Arial" font-weight="bold" font-size="14.00">instance: list</text>
<text text-anchor="start" x="282" y="-197.5" font-family="Arial" font-size="10.00">panel.project.list</text>
<text text-anchor="start" x="283" y="-176.5" font-family="Arial" font-weight="bold" font-size="10.00">region:</text>
<text text-anchor="start" x="317" y="-176.5" font-family="Arial" font-size="10.00">  nav</text>
<text text-anchor="start" x="283" y="-164.5" font-family="Arial" font-weight="bold" font-size="10.00">initial:</text>
<text text-anchor="start" x="313" y="-164.5" font-family="Arial" font-size="10.00">  loading</text>
<text text-anchor="start" x="282" y="-142.5" font-family="Arial" font-weight="bold" font-size="10.00">panel context</text>
<text text-anchor="start" x="282" y="-130.5" font-family="Arial" font-size="10.00">selected_project_id: $view.selected_project_id</text>
<text text-anchor="start" x="282" y="-119.5" font-family="Arial" font-size="10.00">workspace_id: $view.workspace_id</text>
<polygon fill="none" stroke="#c2410c" points="276,-110.5 276,-246.5 490,-246.5 490,-110.5 276,-110.5"/>
</g>
<!-- view_project_board&#45;&gt;panel_instance_list -->
<!-- message_emit_select_project_updates_panels_list_project_selected -->
<g id="node5" class="node">
<title>message_emit_select_project_updates_panels_list_project_selected</title>
<polygon fill="#ffffff" stroke="transparent" points="551,-132 551,-225 749,-225 749,-132 551,-132"/>
<polygon fill="#4f46e5" stroke="transparent" points="552,-213.5 552,-223.5 748,-223.5 748,-213.5 552,-213.5"/>
<polygon fill="#eef2ff" stroke="transparent" points="552,-188.5 552,-213.5 748,-213.5 748,-188.5 552,-188.5"/>
<text text-anchor="start" x="557" y="-198.3" font-family="Arial" font-weight="bold" font-size="14.00">project.selected</text>
<text text-anchor="start" x="557" y="-175.5" font-family="Arial" font-size="10.00">emitted message</text>
<text text-anchor="start" x="558" y="-154.5" font-family="Arial" font-weight="bold" font-size="10.00">transition:</text>
<text text-anchor="start" x="606" y="-154.5" font-family="Arial" font-size="10.00">  project.select (ready to ready)</text>
<text text-anchor="start" x="558" y="-142.5" font-family="Arial" font-weight="bold" font-size="10.00">data:</text>
<text text-anchor="start" x="581" y="-142.5" font-family="Arial" font-size="10.00">  project_id: $event.project_id</text>
<polygon fill="none" stroke="#4f46e5" points="551,-132 551,-225 749,-225 749,-132 551,-132"/>
</g>
<!-- panel_instance_list&#45;&gt;message_emit_select_project_updates_panels_list_project_selected -->
<g id="edge4" class="edge">
<title>panel_instance_list&#45;&gt;message_emit_select_project_updates_panels_list_project_selected</title>
<path fill="none" stroke="#4f46e5" stroke-width="1.4" d="M490.26,-178.5C507.46,-178.5 525.27,-178.5 542.48,-178.5"/>
<polygon fill="#4f46e5" stroke="#4f46e5" stroke-width="1.4" points="542.87,-181.3 550.87,-178.5 542.87,-175.7 542.87,-181.3"/>
</g>
<!-- panel_instance_detail -->
<g id="node3" class="node">
<title>panel_instance_detail</title>
<polygon fill="#ffffff" stroke="transparent" points="1328,-132 1328,-237 1574,-237 1574,-132 1328,-132"/>
<polygon fill="#c2410c" stroke="transparent" points="1329,-225.5 1329,-235.5 1573,-235.5 1573,-225.5 1329,-225.5"/>
<polygon fill="#fff7ed" stroke="transparent" points="1329,-200.5 1329,-225.5 1573,-225.5 1573,-200.5 1329,-200.5"/>
<text text-anchor="start" x="1334" y="-210.3" font-family="Arial" font-weight="bold" font-size="14.00">instance: detail</text>
<text text-anchor="start" x="1334" y="-187.5" font-family="Arial" font-size="10.00">panel.project.detail</text>
<text text-anchor="start" x="1335" y="-166.5" font-family="Arial" font-weight="bold" font-size="10.00">region:</text>
<text text-anchor="start" x="1369" y="-166.5" font-family="Arial" font-size="10.00">  main</text>
<text text-anchor="start" x="1335" y="-154.5" font-family="Arial" font-weight="bold" font-size="10.00">initial:</text>
<text text-anchor="start" x="1365" y="-154.5" font-family="Arial" font-size="10.00">  none</text>
<text text-anchor="start" x="1335" y="-142.5" font-family="Arial" font-weight="bold" font-size="10.00">panel context:</text>
<text text-anchor="start" x="1401" y="-142.5" font-family="Arial" font-size="10.00">  project_id: $view.selected_project_id</text>
<polygon fill="none" stroke="#c2410c" points="1328,-132 1328,-237 1574,-237 1574,-132 1328,-132"/>
</g>
<!-- panel_instance_activity -->
<g id="node4" class="node">
<title>panel_instance_activity</title>
<polygon fill="#ffffff" stroke="transparent" points="1328,0 1328,-105 1574,-105 1574,0 1328,0"/>
<polygon fill="#c2410c" stroke="transparent" points="1329,-93.5 1329,-103.5 1573,-103.5 1573,-93.5 1329,-93.5"/>
<polygon fill="#fff7ed" stroke="transparent" points="1329,-68.5 1329,-93.5 1573,-93.5 1573,-68.5 1329,-68.5"/>
<text text-anchor="start" x="1334" y="-78.3" font-family="Arial" font-weight="bold" font-size="14.00">instance: activity</text>
<text text-anchor="start" x="1334" y="-55.5" font-family="Arial" font-size="10.00">panel.project.activity</text>
<text text-anchor="start" x="1335" y="-34.5" font-family="Arial" font-weight="bold" font-size="10.00">region:</text>
<text text-anchor="start" x="1369" y="-34.5" font-family="Arial" font-size="10.00">  aside</text>
<text text-anchor="start" x="1335" y="-22.5" font-family="Arial" font-weight="bold" font-size="10.00">initial:</text>
<text text-anchor="start" x="1365" y="-22.5" font-family="Arial" font-size="10.00">  empty</text>
<text text-anchor="start" x="1335" y="-10.5" font-family="Arial" font-weight="bold" font-size="10.00">panel context:</text>
<text text-anchor="start" x="1401" y="-10.5" font-family="Arial" font-size="10.00">  project_id: $view.selected_project_id</text>
<polygon fill="none" stroke="#c2410c" points="1328,0 1328,-105 1574,-105 1574,0 1328,0"/>
</g>
<!-- message_route_select_project_updates_panels -->
<g id="node6" class="node">
<title>message_route_select_project_updates_panels</title>
<polygon fill="#ffffff" stroke="transparent" points="810,-138 810,-219 1023,-219 1023,-138 810,-138"/>
<polygon fill="#a16207" stroke="transparent" points="811.5,-207.5 811.5,-217.5 1022.5,-217.5 1022.5,-207.5 811.5,-207.5"/>
<polygon fill="#fefce8" stroke="transparent" points="811.5,-182.5 811.5,-207.5 1022.5,-207.5 1022.5,-182.5 811.5,-182.5"/>
<text text-anchor="start" x="816.5" y="-192.3" font-family="Arial" font-weight="bold" font-size="14.00">select_project_updates_panels</text>
<text text-anchor="start" x="816.5" y="-169.5" font-family="Arial" font-size="10.00">message route</text>
<text text-anchor="start" x="817.5" y="-148.5" font-family="Arial" font-weight="bold" font-size="10.00">data:</text>
<text text-anchor="start" x="840.5" y="-148.5" font-family="Arial" font-size="10.00">  selected_project_id: $event.project_id</text>
<polygon fill="none" stroke="#a16207" points="810,-138 810,-219 1023,-219 1023,-138 810,-138"/>
</g>
<!-- message_emit_select_project_updates_panels_list_project_selected&#45;&gt;message_route_select_project_updates_panels -->
<g id="edge5" class="edge">
<title>message_emit_select_project_updates_panels_list_project_selected&#45;&gt;message_route_select_project_updates_panels</title>
<path fill="none" stroke="#4f46e5" stroke-width="1.2" d="M749.11,-178.5C766.33,-178.5 784.37,-178.5 801.95,-178.5"/>
<polygon fill="#4f46e5" stroke="#4f46e5" stroke-width="1.2" points="802,-181.3 810,-178.5 802,-175.7 802,-181.3"/>
</g>
<!-- message_effect_select_project_updates_panels_0 -->
<g id="node7" class="node">
<title>message_effect_select_project_updates_panels_0</title>
<polygon fill="#ffffff" stroke="transparent" points="1094.5,-252 1094.5,-333 1256.5,-333 1256.5,-252 1094.5,-252"/>
<polygon fill="#15803d" stroke="transparent" points="1095.5,-321.5 1095.5,-331.5 1255.5,-331.5 1255.5,-321.5 1095.5,-321.5"/>
<polygon fill="#f0fdf4" stroke="transparent" points="1095.5,-296.5 1095.5,-321.5 1255.5,-321.5 1255.5,-296.5 1095.5,-296.5"/>
<text text-anchor="start" x="1100.5" y="-306.3" font-family="Arial" font-weight="bold" font-size="14.00">set selected_project_id</text>
<text text-anchor="start" x="1100.5" y="-283.5" font-family="Arial" font-size="10.00">view context</text>
<text text-anchor="start" x="1101.5" y="-262.5" font-family="Arial" font-weight="bold" font-size="10.00">value:</text>
<text text-anchor="start" x="1129.5" y="-262.5" font-family="Arial" font-size="10.00">  $event.project_id</text>
<polygon fill="none" stroke="#15803d" points="1094.5,-252 1094.5,-333 1256.5,-333 1256.5,-252 1094.5,-252"/>
</g>
<!-- message_route_select_project_updates_panels&#45;&gt;message_effect_select_project_updates_panels_0 -->
<g id="edge6" class="edge">
<title>message_route_select_project_updates_panels&#45;&gt;message_effect_select_project_updates_panels_0</title>
<path fill="none" stroke="#15803d" stroke-width="1.3" stroke-dasharray="1,5" d="M1008.83,-219.01C1034.18,-230.25 1061.63,-242.43 1086.76,-253.58"/>
<polygon fill="#15803d" stroke="#15803d" stroke-width="1.3" points="1085.69,-256.17 1094.13,-256.85 1087.96,-251.05 1085.69,-256.17"/>
</g>
<!-- message_effect_select_project_updates_panels_1 -->
<g id="node8" class="node">
<title>message_effect_select_project_updates_panels_1</title>
<polygon fill="#ffffff" stroke="transparent" points="1084,-132 1084,-225 1267,-225 1267,-132 1084,-132"/>
<polygon fill="#be185d" stroke="transparent" points="1085.5,-213.5 1085.5,-223.5 1266.5,-223.5 1266.5,-213.5 1085.5,-213.5"/>
<polygon fill="#fdf2f8" stroke="transparent" points="1085.5,-188.5 1085.5,-213.5 1266.5,-213.5 1266.5,-188.5 1085.5,-188.5"/>
<text text-anchor="start" x="1090.5" y="-198.3" font-family="Arial" font-weight="bold" font-size="14.00">project.selection_changed</text>
<text text-anchor="start" x="1090.5" y="-175.5" font-family="Arial" font-size="10.00">sent message</text>
<text text-anchor="start" x="1091.5" y="-154.5" font-family="Arial" font-weight="bold" font-size="10.00">transition:</text>
<text text-anchor="start" x="1139.5" y="-154.5" font-family="Arial" font-size="10.00">  to loading</text>
<text text-anchor="start" x="1091.5" y="-142.5" font-family="Arial" font-weight="bold" font-size="10.00">data:</text>
<text text-anchor="start" x="1114.5" y="-142.5" font-family="Arial" font-size="10.00">  project_id: $event.project_id</text>
<polygon fill="none" stroke="#be185d" points="1084,-132 1084,-225 1267,-225 1267,-132 1084,-132"/>
</g>
<!-- message_route_select_project_updates_panels&#45;&gt;message_effect_select_project_updates_panels_1 -->
<g id="edge7" class="edge">
<title>message_route_select_project_updates_panels&#45;&gt;message_effect_select_project_updates_panels_1</title>
<path fill="none" stroke="#be185d" stroke-width="1.3" d="M1023.14,-178.5C1040.4,-178.5 1058.22,-178.5 1075.3,-178.5"/>
<polygon fill="#be185d" stroke="#be185d" stroke-width="1.3" points="1075.63,-181.3 1083.63,-178.5 1075.63,-175.7 1075.63,-181.3"/>
</g>
<!-- message_effect_select_project_updates_panels_2 -->
<g id="node9" class="node">
<title>message_effect_select_project_updates_panels_2</title>
<polygon fill="#ffffff" stroke="transparent" points="1084,-12 1084,-105 1267,-105 1267,-12 1084,-12"/>
<polygon fill="#be185d" stroke="transparent" points="1085.5,-93.5 1085.5,-103.5 1266.5,-103.5 1266.5,-93.5 1085.5,-93.5"/>
<polygon fill="#fdf2f8" stroke="transparent" points="1085.5,-68.5 1085.5,-93.5 1266.5,-93.5 1266.5,-68.5 1085.5,-68.5"/>
<text text-anchor="start" x="1090.5" y="-78.3" font-family="Arial" font-weight="bold" font-size="14.00">project.selection_changed</text>
<text text-anchor="start" x="1090.5" y="-55.5" font-family="Arial" font-size="10.00">sent message</text>
<text text-anchor="start" x="1091.5" y="-34.5" font-family="Arial" font-weight="bold" font-size="10.00">transition:</text>
<text text-anchor="start" x="1139.5" y="-34.5" font-family="Arial" font-size="10.00">  to ready</text>
<text text-anchor="start" x="1091.5" y="-22.5" font-family="Arial" font-weight="bold" font-size="10.00">data:</text>
<text text-anchor="start" x="1114.5" y="-22.5" font-family="Arial" font-size="10.00">  project_id: $event.project_id</text>
<polygon fill="none" stroke="#be185d" points="1084,-12 1084,-105 1267,-105 1267,-12 1084,-12"/>
</g>
<!-- message_route_select_project_updates_panels&#45;&gt;message_effect_select_project_updates_panels_2 -->
<g id="edge9" class="edge">
<title>message_route_select_project_updates_panels&#45;&gt;message_effect_select_project_updates_panels_2</title>
<path fill="none" stroke="#be185d" stroke-width="1.3" d="M1004.51,-137.87C1027.6,-127.09 1052.7,-115.37 1076.34,-104.33"/>
<polygon fill="#be185d" stroke="#be185d" stroke-width="1.3" points="1077.57,-106.85 1083.63,-100.93 1075.2,-101.78 1077.57,-106.85"/>
</g>
<!-- message_effect_select_project_updates_panels_0&#45;&gt;message_effect_select_project_updates_panels_1 -->
<!-- message_effect_select_project_updates_panels_1&#45;&gt;panel_instance_detail -->
<g id="edge8" class="edge">
<title>message_effect_select_project_updates_panels_1&#45;&gt;panel_instance_detail</title>
<path fill="none" stroke="#be185d" stroke-width="1.4" d="M1267.19,-180.49C1284.05,-180.86 1301.96,-181.25 1319.73,-181.64"/>
<polygon fill="#be185d" stroke="#be185d" stroke-width="1.4" points="1319.81,-184.44 1327.87,-181.82 1319.94,-178.85 1319.81,-184.44"/>
</g>
<!-- message_effect_select_project_updates_panels_1&#45;&gt;message_effect_select_project_updates_panels_2 -->
<!-- message_effect_select_project_updates_panels_2&#45;&gt;panel_instance_activity -->
<g id="edge10" class="edge">
<title>message_effect_select_project_updates_panels_2&#45;&gt;panel_instance_activity</title>
<path fill="none" stroke="#be185d" stroke-width="1.4" d="M1267.19,-56.51C1284.05,-56.14 1301.96,-55.75 1319.73,-55.36"/>
<polygon fill="#be185d" stroke="#be185d" stroke-width="1.4" points="1319.94,-58.15 1327.87,-55.18 1319.81,-52.56 1319.94,-58.15"/>
</g>
</g>
</svg>
