<svg width="1547pt" height="369pt"
 viewBox="0.00 0.00 1547.00 369.00" xmlns="http://www.w3.org/2000/svg" xmlns:xlink="http://www.w3.org/1999/xlink">
<g id="graph0" class="graph" transform="scale(1 1) rotate(0) translate(18 351)">
<title>composition_project_board</title>
<!-- view_project_board -->
<g id="node1" class="node">
<title>view_project_board</title>
<polygon fill="#ffffff" stroke="transparent" points="0,-73.5 0,-283.5 215,-283.5 215,-73.5 0,-73.5"/>
<polygon fill="#15803d" stroke="transparent" points="1.5,-272.5 1.5,-282.5 214.5,-282.5 214.5,-272.5 1.5,-272.5"/>
<polygon fill="#f0fdf4" stroke="transparent" points="1.5,-247.5 1.5,-272.5 214.5,-272.5 214.5,-247.5 1.5,-247.5"/>
<text text-anchor="start" x="6.5" y="-257.3" font-family="Arial" font-weight="bold" font-size="14.00">project.board</text>
<text text-anchor="start" x="6.5" y="-234.5" font-family="Arial" font-size="10.00">dashboard view</text>
<text text-anchor="start" x="6.5" y="-214.5" font-family="Arial" font-style="italic" font-size="10.00" fill="#3f3f46">The dispatch board composes list, detail, and</text>
<text text-anchor="start" x="6.5" y="-203.5" font-family="Arial" font-style="italic" font-size="10.00" fill="#3f3f46">activity panels through shared selected&#45;project</text>
<text text-anchor="start" x="6.5" y="-192.5" font-family="Arial" font-style="italic" font-size="10.00" fill="#3f3f46">context.</text>
<text text-anchor="start" x="7.5" y="-170.5" font-family="Arial" font-weight="bold" font-size="10.00">resource:</text>
<text text-anchor="start" x="51.5" y="-170.5" font-family="Arial" font-size="10.00">  Project</text>
<text text-anchor="start" x="6.5" y="-148.5" font-family="Arial" font-weight="bold" font-size="10.00">context</text>
<text text-anchor="start" x="6.5" y="-136.5" font-family="Arial" font-size="10.00">selected_project_id: ID</text>
<text text-anchor="start" x="6.5" y="-125.5" font-family="Arial" font-size="10.00">workspace_id: ID</text>
<text text-anchor="start" x="6.5" y="-105.5" font-family="Arial" font-weight="bold" font-size="10.00">data</text>
<text text-anchor="start" x="6.5" y="-93.5" font-family="Arial" font-size="10.00">capability: project.list</text>
<text text-anchor="start" x="6.5" y="-82.5" font-family="Arial" font-size="10.00">query: query.project.board.list</text>
<polygon fill="none" stroke="#15803d" points="0,-73.5 0,-283.5 215,-283.5 215,-73.5 0,-73.5"/>
</g>
<!-- panel_instance_list -->
<g id="node2" class="node">
<title>panel_instance_list</title>
<polygon fill="#ffffff" stroke="transparent" points="276,-110.5 276,-246.5 494,-246.5 494,-110.5 276,-110.5"/>
<polygon fill="#c2410c" stroke="transparent" points="277,-235.5 277,-245.5 493,-245.5 493,-235.5 277,-235.5"/>
<polygon fill="#fff7ed" stroke="transparent" points="277,-210.5 277,-235.5 493,-235.5 493,-210.5 277,-210.5"/>
<text text-anchor="start" x="282" y="-220.3" font-family="Arial" font-weight="bold" font-size="14.00">instance: list</text>
<text text-anchor="start" x="282" y="-197.5" font-family="Arial" font-size="10.00">panel.project.list</text>
<text text-anchor="start" x="283" y="-176.5" font-family="Arial" font-weight="bold" font-size="10.00">region:</text>
<text text-anchor="start" x="317" y="-176.5" font-family="Arial" font-size="10.00">  nav</text>
<text text-anchor="start" x="283" y="-164.5" font-family="Arial" font-weight="bold" font-size="10.00">initial:</text>
<text text-anchor="start" x="313" y="-164.5" font-family="Arial" font-size="10.00">  loading</text>
<text text-anchor="start" x="282" y="-142.5" font-family="Arial" font-weight="bold" font-size="10.00">context binding</text>
<text text-anchor="start" x="282" y="-130.5" font-family="Arial" font-size="10.00">selected_project_id &lt;&#45; view.selected_project_id</text>
<text text-anchor="start" x="282" y="-119.5" font-family="Arial" font-size="10.00">workspace_id &lt;&#45; view.workspace_id</text>
<polygon fill="none" stroke="#c2410c" points="276,-110.5 276,-246.5 494,-246.5 494,-110.5 276,-110.5"/>
</g>
<!-- view_project_board&#45;&gt;panel_instance_list -->
<!-- message_emit_select_project_updates_panels_list_project_selected -->
<g id="node5" class="node">
<title>message_emit_select_project_updates_panels_list_project_selected</title>
<polygon fill="#ffffff" stroke="transparent" points="555,-132 555,-225 670,-225 670,-132 555,-132"/>
<polygon fill="#4f46e5" stroke="transparent" points="556.5,-213.5 556.5,-223.5 669.5,-223.5 669.5,-213.5 556.5,-213.5"/>
<polygon fill="#eef2ff" stroke="transparent" points="556.5,-188.5 556.5,-213.5 669.5,-213.5 669.5,-188.5 556.5,-188.5"/>
<text text-anchor="start" x="561.5" y="-198.3" font-family="Arial" font-weight="bold" font-size="14.00">project.selected</text>
<text text-anchor="start" x="561.5" y="-175.5" font-family="Arial" font-size="10.00">emitted message</text>
<text text-anchor="start" x="562.5" y="-154.5" font-family="Arial" font-weight="bold" font-size="10.00">source:</text>
<text text-anchor="start" x="597.5" y="-154.5" font-family="Arial" font-size="10.00">  project.select</text>
<text text-anchor="start" x="562.5" y="-142.5" font-family="Arial" font-weight="bold" font-size="10.00">data:</text>
<text text-anchor="start" x="585.5" y="-142.5" font-family="Arial" font-size="10.00">  project_id</text>
<polygon fill="none" stroke="#4f46e5" points="555,-132 555,-225 670,-225 670,-132 555,-132"/>
</g>
<!-- panel_instance_list&#45;&gt;message_emit_select_project_updates_panels_list_project_selected -->
<g id="edge4" class="edge">
<title>panel_instance_list&#45;&gt;message_emit_select_project_updates_panels_list_project_selected</title>
<path fill="none" stroke="#4f46e5" stroke-width="1.4" d="M494.13,-178.5C512.03,-178.5 530.09,-178.5 546.49,-178.5"/>
<polygon fill="#4f46e5" stroke="#4f46e5" stroke-width="1.4" points="546.91,-181.3 554.91,-178.5 546.91,-175.7 546.91,-181.3"/>
</g>
<!-- panel_instance_detail -->
<g id="node3" class="node">
<title>panel_instance_detail</title>
<polygon fill="#ffffff" stroke="transparent" points="1251,-132 1251,-237 1511,-237 1511,-132 1251,-132"/>
<polygon fill="#c2410c" stroke="transparent" points="1252,-225.5 1252,-235.5 1510,-235.5 1510,-225.5 1252,-225.5"/>
<polygon fill="#fff7ed" stroke="transparent" points="1252,-200.5 1252,-225.5 1510,-225.5 1510,-200.5 1252,-200.5"/>
<text text-anchor="start" x="1257" y="-210.3" font-family="Arial" font-weight="bold" font-size="14.00">instance: detail</text>
<text text-anchor="start" x="1257" y="-187.5" font-family="Arial" font-size="10.00">panel.project.detail</text>
<text text-anchor="start" x="1258" y="-166.5" font-family="Arial" font-weight="bold" font-size="10.00">region:</text>
<text text-anchor="start" x="1292" y="-166.5" font-family="Arial" font-size="10.00">  main</text>
<text text-anchor="start" x="1258" y="-154.5" font-family="Arial" font-weight="bold" font-size="10.00">initial:</text>
<text text-anchor="start" x="1288" y="-154.5" font-family="Arial" font-size="10.00">  none</text>
<text text-anchor="start" x="1258" y="-142.5" font-family="Arial" font-weight="bold" font-size="10.00">context binding:</text>
<text text-anchor="start" x="1334" y="-142.5" font-family="Arial" font-size="10.00">  project_id &lt;&#45; view.selected_project_id</text>
<polygon fill="none" stroke="#c2410c" points="1251,-132 1251,-237 1511,-237 1511,-132 1251,-132"/>
</g>
<!-- panel_instance_activity -->
<g id="node4" class="node">
<title>panel_instance_activity</title>
<polygon fill="#ffffff" stroke="transparent" points="1251,0 1251,-105 1511,-105 1511,0 1251,0"/>
<polygon fill="#c2410c" stroke="transparent" points="1252,-93.5 1252,-103.5 1510,-103.5 1510,-93.5 1252,-93.5"/>
<polygon fill="#fff7ed" stroke="transparent" points="1252,-68.5 1252,-93.5 1510,-93.5 1510,-68.5 1252,-68.5"/>
<text text-anchor="start" x="1257" y="-78.3" font-family="Arial" font-weight="bold" font-size="14.00">instance: activity</text>
<text text-anchor="start" x="1257" y="-55.5" font-family="Arial" font-size="10.00">panel.project.activity</text>
<text text-anchor="start" x="1258" y="-34.5" font-family="Arial" font-weight="bold" font-size="10.00">region:</text>
<text text-anchor="start" x="1292" y="-34.5" font-family="Arial" font-size="10.00">  aside</text>
<text text-anchor="start" x="1258" y="-22.5" font-family="Arial" font-weight="bold" font-size="10.00">initial:</text>
<text text-anchor="start" x="1288" y="-22.5" font-family="Arial" font-size="10.00">  empty</text>
<text text-anchor="start" x="1258" y="-10.5" font-family="Arial" font-weight="bold" font-size="10.00">context binding:</text>
<text text-anchor="start" x="1334" y="-10.5" font-family="Arial" font-size="10.00">  project_id &lt;&#45; view.selected_project_id</text>
<polygon fill="none" stroke="#c2410c" points="1251,0 1251,-105 1511,-105 1511,0 1251,0"/>
</g>
<!-- message_route_select_project_updates_panels -->
<g id="node6" class="node">
<title>message_route_select_project_updates_panels</title>
<polygon fill="#ffffff" stroke="transparent" points="731,-138 731,-219 944,-219 944,-138 731,-138"/>
<polygon fill="#a16207" stroke="transparent" points="732.5,-207.5 732.5,-217.5 943.5,-217.5 943.5,-207.5 732.5,-207.5"/>
<polygon fill="#fefce8" stroke="transparent" points="732.5,-182.5 732.5,-207.5 943.5,-207.5 943.5,-182.5 732.5,-182.5"/>
<text text-anchor="start" x="737.5" y="-192.3" font-family="Arial" font-weight="bold" font-size="14.00">select_project_updates_panels</text>
<text text-anchor="start" x="737.5" y="-169.5" font-family="Arial" font-size="10.00">message route</text>
<text text-anchor="start" x="738.5" y="-148.5" font-family="Arial" font-weight="bold" font-size="10.00">data:</text>
<text text-anchor="start" x="761.5" y="-148.5" font-family="Arial" font-size="10.00">  selected_project_id &lt;&#45; project_id</text>
<polygon fill="none" stroke="#a16207" points="731,-138 731,-219 944,-219 944,-138 731,-138"/>
</g>
<!-- message_emit_select_project_updates_panels_list_project_selected&#45;&gt;message_route_select_project_updates_panels -->
<g id="edge5" class="edge">
<title>message_emit_select_project_updates_panels_list_project_selected&#45;&gt;message_route_select_project_updates_panels</title>
<path fill="none" stroke="#4f46e5" stroke-width="1.2" d="M670.06,-178.5C686.17,-178.5 704.33,-178.5 722.57,-178.5"/>
<polygon fill="#4f46e5" stroke="#4f46e5" stroke-width="1.2" points="722.95,-181.3 730.95,-178.5 722.95,-175.7 722.95,-181.3"/>
</g>
<!-- message_effect_select_project_updates_panels_0 -->
<g id="node7" class="node">
<title>message_effect_select_project_updates_panels_0</title>
<polygon fill="#ffffff" stroke="transparent" points="1005,-252 1005,-333 1190,-333 1190,-252 1005,-252"/>
<polygon fill="#15803d" stroke="transparent" points="1006.5,-321.5 1006.5,-331.5 1189.5,-331.5 1189.5,-321.5 1006.5,-321.5"/>
<polygon fill="#f0fdf4" stroke="transparent" points="1006.5,-296.5 1006.5,-321.5 1189.5,-321.5 1189.5,-296.5 1006.5,-296.5"/>
<text text-anchor="start" x="1011.5" y="-306.3" font-family="Arial" font-weight="bold" font-size="14.00">set selected_project_id</text>
<text text-anchor="start" x="1011.5" y="-283.5" font-family="Arial" font-size="10.00">view context</text>
<text text-anchor="start" x="1012.5" y="-262.5" font-family="Arial" font-weight="bold" font-size="10.00">flow:</text>
<text text-anchor="start" x="1035.5" y="-262.5" font-family="Arial" font-size="10.00">  selected_project_id &lt;&#45; project_id</text>
<polygon fill="none" stroke="#15803d" points="1005,-252 1005,-333 1190,-333 1190,-252 1005,-252"/>
</g>
<!-- message_route_select_project_updates_panels&#45;&gt;message_effect_select_project_updates_panels_0 -->
<g id="edge6" class="edge">
<title>message_route_select_project_updates_panels&#45;&gt;message_effect_select_project_updates_panels_0</title>
<path fill="none" stroke="#15803d" stroke-width="1.3" stroke-dasharray="1,5" d="M930.19,-219.01C951.92,-228.62 975.2,-238.9 997.25,-248.64"/>
<polygon fill="#15803d" stroke="#15803d" stroke-width="1.3" points="996.22,-251.25 1004.67,-251.93 998.49,-246.13 996.22,-251.25"/>
</g>
<!-- message_effect_select_project_updates_panels_1 -->
<g id="node8" class="node">
<title>message_effect_select_project_updates_panels_1</title>
<polygon fill="#ffffff" stroke="transparent" points="1006,-132 1006,-225 1189,-225 1189,-132 1006,-132"/>
<polygon fill="#be185d" stroke="transparent" points="1007.5,-213.5 1007.5,-223.5 1188.5,-223.5 1188.5,-213.5 1007.5,-213.5"/>
<polygon fill="#fdf2f8" stroke="transparent" points="1007.5,-188.5 1007.5,-213.5 1188.5,-213.5 1188.5,-188.5 1007.5,-188.5"/>
<text text-anchor="start" x="1012.5" y="-198.3" font-family="Arial" font-weight="bold" font-size="14.00">project.selection_changed</text>
<text text-anchor="start" x="1012.5" y="-175.5" font-family="Arial" font-size="10.00">sent message</text>
<text text-anchor="start" x="1013.5" y="-154.5" font-family="Arial" font-weight="bold" font-size="10.00">causes:</text>
<text text-anchor="start" x="1049.5" y="-154.5" font-family="Arial" font-size="10.00">  to loading</text>
<text text-anchor="start" x="1013.5" y="-142.5" font-family="Arial" font-weight="bold" font-size="10.00">data:</text>
<text text-anchor="start" x="1036.5" y="-142.5" font-family="Arial" font-size="10.00">  project_id</text>
<polygon fill="none" stroke="#be185d" points="1006,-132 1006,-225 1189,-225 1189,-132 1006,-132"/>
</g>
<!-- message_route_select_project_updates_panels&#45;&gt;message_effect_select_project_updates_panels_1 -->
<g id="edge7" class="edge">
<title>message_route_select_project_updates_panels&#45;&gt;message_effect_select_project_updates_panels_1</title>
<path fill="none" stroke="#be185d" stroke-width="1.3" d="M944.18,-178.5C961.92,-178.5 980.27,-178.5 997.82,-178.5"/>
<polygon fill="#be185d" stroke="#be185d" stroke-width="1.3" points="997.83,-181.3 1005.83,-178.5 997.83,-175.7 997.83,-181.3"/>
</g>
<!-- message_effect_select_project_updates_panels_2 -->
<g id="node9" class="node">
<title>message_effect_select_project_updates_panels_2</title>
<polygon fill="#ffffff" stroke="transparent" points="1006,-12 1006,-105 1189,-105 1189,-12 1006,-12"/>
<polygon fill="#be185d" stroke="transparent" points="1007.5,-93.5 1007.5,-103.5 1188.5,-103.5 1188.5,-93.5 1007.5,-93.5"/>
<polygon fill="#fdf2f8" stroke="transparent" points="1007.5,-68.5 1007.5,-93.5 1188.5,-93.5 1188.5,-68.5 1007.5,-68.5"/>
<text text-anchor="start" x="1012.5" y="-78.3" font-family="Arial" font-weight="bold" font-size="14.00">project.selection_changed</text>
<text text-anchor="start" x="1012.5" y="-55.5" font-family="Arial" font-size="10.00">sent message</text>
<text text-anchor="start" x="1013.5" y="-34.5" font-family="Arial" font-weight="bold" font-size="10.00">causes:</text>
<text text-anchor="start" x="1049.5" y="-34.5" font-family="Arial" font-size="10.00">  to ready</text>
<text text-anchor="start" x="1013.5" y="-22.5" font-family="Arial" font-weight="bold" font-size="10.00">data:</text>
<text text-anchor="start" x="1036.5" y="-22.5" font-family="Arial" font-size="10.00">  project_id</text>
<polygon fill="none" stroke="#be185d" points="1006,-12 1006,-105 1189,-105 1189,-12 1006,-12"/>
</g>
<!-- message_route_select_project_updates_panels&#45;&gt;message_effect_select_project_updates_panels_2 -->
<g id="edge9" class="edge">
<title>message_route_select_project_updates_panels&#45;&gt;message_effect_select_project_updates_panels_2</title>
<path fill="none" stroke="#be185d" stroke-width="1.3" d="M925.85,-137.87C949.16,-127.03 974.51,-115.24 998.37,-104.14"/>
<polygon fill="#be185d" stroke="#be185d" stroke-width="1.3" points="999.65,-106.64 1005.72,-100.72 997.29,-101.56 999.65,-106.64"/>
</g>
<!-- message_effect_select_project_updates_panels_0&#45;&gt;message_effect_select_project_updates_panels_1 -->
<!-- message_effect_select_project_updates_panels_1&#45;&gt;panel_instance_detail -->
<g id="edge8" class="edge">
<title>message_effect_select_project_updates_panels_1&#45;&gt;panel_instance_detail</title>
<path fill="none" stroke="#be185d" stroke-width="1.4" d="M1189.12,-180.43C1206.19,-180.8 1224.4,-181.18 1242.53,-181.57"/>
<polygon fill="#be185d" stroke="#be185d" stroke-width="1.4" points="1242.8,-184.38 1250.85,-181.75 1242.91,-178.78 1242.8,-184.38"/>
</g>
<!-- message_effect_select_project_updates_panels_1&#45;&gt;message_effect_select_project_updates_panels_2 -->
<!-- message_effect_select_project_updates_panels_2&#45;&gt;panel_instance_activity -->
<g id="edge10" class="edge">
<title>message_effect_select_project_updates_panels_2&#45;&gt;panel_instance_activity</title>
<path fill="none" stroke="#be185d" stroke-width="1.4" d="M1189.12,-56.57C1206.19,-56.2 1224.4,-55.82 1242.53,-55.43"/>
<polygon fill="#be185d" stroke="#be185d" stroke-width="1.4" points="1242.91,-58.22 1250.85,-55.25 1242.8,-52.62 1242.91,-58.22"/>
</g>
</g>
</svg>
