<svg width="1070pt" height="211pt"
 viewBox="0.00 0.00 1070.00 211.00" xmlns="http://www.w3.org/2000/svg" xmlns:xlink="http://www.w3.org/1999/xlink">
<g id="graph0" class="graph" transform="scale(1 1) rotate(0) translate(18 193)">
<title>composition_project_board</title>
<!-- panel_instance_list -->
<g id="node1" class="node">
<title>panel_instance_list</title>
<polygon fill="#ffffff" stroke="transparent" points="0,-50 0,-124 133,-124 133,-50 0,-50"/>
<polygon fill="#047857" stroke="transparent" points="1.5,-115 1.5,-123 132.5,-123 132.5,-115 1.5,-115"/>
<polygon fill="#ecfdf5" stroke="transparent" points="1.5,-84 1.5,-115 132.5,-115 132.5,-84 1.5,-84"/>
<text text-anchor="start" x="5.5" y="-101.6" font-family="Arial" font-weight="bold" font-size="13.00">nav</text>
<text text-anchor="start" x="5.5" y="-90.6" font-family="Arial" font-size="8.00" fill="#64748b">region</text>
<text text-anchor="start" x="6.5" y="-72" font-family="Arial" font-weight="bold" font-size="10.00">instance:</text>
<text text-anchor="start" x="49.5" y="-72" font-family="Arial" font-size="10.00">  panel.project.list</text>
<text text-anchor="start" x="6.5" y="-60" font-family="Arial" font-weight="bold" font-size="10.00">initial:</text>
<text text-anchor="start" x="36.5" y="-60" font-family="Arial" font-size="10.00">  loading</text>
<polygon fill="none" stroke="#047857" points="0,-50 0,-124 133,-124 133,-50 0,-50"/>
</g>
<!-- message_emit_select_project_updates_panels_list_project_selected -->
<g id="node4" class="node">
<title>message_emit_select_project_updates_panels_list_project_selected</title>
<polygon fill="#ffffff" stroke="transparent" points="194,-50 194,-124 307,-124 307,-50 194,-50"/>
<polygon fill="#4f46e5" stroke="transparent" points="195.5,-115 195.5,-123 306.5,-123 306.5,-115 195.5,-115"/>
<polygon fill="#eef2ff" stroke="transparent" points="195.5,-84 195.5,-115 306.5,-115 306.5,-84 195.5,-84"/>
<text text-anchor="start" x="199.5" y="-101.6" font-family="Arial" font-weight="bold" font-size="13.00">project.selected</text>
<text text-anchor="start" x="199.5" y="-90.6" font-family="Arial" font-size="8.00" fill="#64748b">emitted message</text>
<text text-anchor="start" x="200.5" y="-72" font-family="Arial" font-weight="bold" font-size="10.00">source:</text>
<text text-anchor="start" x="235.5" y="-72" font-family="Arial" font-size="10.00">  project.select</text>
<text text-anchor="start" x="200.5" y="-60" font-family="Arial" font-weight="bold" font-size="10.00">data:</text>
<text text-anchor="start" x="223.5" y="-60" font-family="Arial" font-size="10.00">  project_id</text>
<text text-anchor="start" x="272.5" y="-60" font-family="Arial" font-size="8.00" fill="#94a3b8">  ID</text>
<polygon fill="none" stroke="#4f46e5" points="194,-50 194,-124 307,-124 307,-50 194,-50"/>
</g>
<!-- panel_instance_list&#45;&gt;message_emit_select_project_updates_panels_list_project_selected -->
<g id="edge2" class="edge">
<title>panel_instance_list&#45;&gt;message_emit_select_project_updates_panels_list_project_selected</title>
<path fill="none" stroke="#4f46e5" stroke-width="1.4" d="M133.21,-87C150.27,-87 168.62,-87 185.59,-87"/>
<polygon fill="#4f46e5" stroke="#4f46e5" stroke-width="1.4" points="185.8,-89.8 193.8,-87 185.8,-84.2 185.8,-89.8"/>
</g>
<!-- panel_instance_detail -->
<g id="node2" class="node">
<title>panel_instance_detail</title>
<polygon fill="#ffffff" stroke="transparent" points="886.5,-101 886.5,-175 1029.5,-175 1029.5,-101 886.5,-101"/>
<polygon fill="#047857" stroke="transparent" points="888,-166 888,-174 1029,-174 1029,-166 888,-166"/>
<polygon fill="#ecfdf5" stroke="transparent" points="888,-135 888,-166 1029,-166 1029,-135 888,-135"/>
<text text-anchor="start" x="892" y="-152.6" font-family="Arial" font-weight="bold" font-size="13.00">main</text>
<text text-anchor="start" x="892" y="-141.6" font-family="Arial" font-size="8.00" fill="#64748b">region</text>
<text text-anchor="start" x="893" y="-123" font-family="Arial" font-weight="bold" font-size="10.00">instance:</text>
<text text-anchor="start" x="936" y="-123" font-family="Arial" font-size="10.00">  panel.project.detail</text>
<text text-anchor="start" x="893" y="-111" font-family="Arial" font-weight="bold" font-size="10.00">initial:</text>
<text text-anchor="start" x="923" y="-111" font-family="Arial" font-size="10.00">  none</text>
<polygon fill="none" stroke="#047857" points="886.5,-101 886.5,-175 1029.5,-175 1029.5,-101 886.5,-101"/>
</g>
<!-- panel_instance_activity -->
<g id="node3" class="node">
<title>panel_instance_activity</title>
<polygon fill="#ffffff" stroke="transparent" points="882,0 882,-74 1034,-74 1034,0 882,0"/>
<polygon fill="#047857" stroke="transparent" points="883,-65 883,-73 1033,-73 1033,-65 883,-65"/>
<polygon fill="#ecfdf5" stroke="transparent" points="883,-34 883,-65 1033,-65 1033,-34 883,-34"/>
<text text-anchor="start" x="887" y="-51.6" font-family="Arial" font-weight="bold" font-size="13.00">aside</text>
<text text-anchor="start" x="887" y="-40.6" font-family="Arial" font-size="8.00" fill="#64748b">region</text>
<text text-anchor="start" x="888" y="-22" font-family="Arial" font-weight="bold" font-size="10.00">instance:</text>
<text text-anchor="start" x="931" y="-22" font-family="Arial" font-size="10.00">  panel.project.activity</text>
<text text-anchor="start" x="888" y="-10" font-family="Arial" font-weight="bold" font-size="10.00">initial:</text>
<text text-anchor="start" x="918" y="-10" font-family="Arial" font-size="10.00">  empty</text>
<polygon fill="none" stroke="#047857" points="882,0 882,-74 1034,-74 1034,0 882,0"/>
</g>
<!-- message_route_select_project_updates_panels -->
<g id="node5" class="node">
<title>message_route_select_project_updates_panels</title>
<polygon fill="#ffffff" stroke="transparent" points="368,-56 368,-118 579,-118 579,-56 368,-56"/>
<polygon fill="#a16207" stroke="transparent" points="369.5,-109 369.5,-117 578.5,-117 578.5,-109 369.5,-109"/>
<polygon fill="#fefce8" stroke="transparent" points="369.5,-78 369.5,-109 578.5,-109 578.5,-78 369.5,-78"/>
<text text-anchor="start" x="373.5" y="-95.6" font-family="Arial" font-weight="bold" font-size="13.00">select_project_updates_panels</text>
<text text-anchor="start" x="373.5" y="-84.6" font-family="Arial" font-size="8.00" fill="#64748b">message route</text>
<text text-anchor="start" x="374.5" y="-66" font-family="Arial" font-weight="bold" font-size="10.00">set:</text>
<text text-anchor="start" x="391.5" y="-66" font-family="Arial" font-size="10.00">  selected_project_id</text>
<text text-anchor="start" x="482.5" y="-66" font-family="Arial" font-size="8.00" fill="#94a3b8">  ID</text>
<text text-anchor="start" x="495.5" y="-66" font-family="Arial" font-size="10.00"> &lt;&#45; project_id</text>
<polygon fill="none" stroke="#a16207" points="368,-56 368,-118 579,-118 579,-56 368,-56"/>
</g>
<!-- message_emit_select_project_updates_panels_list_project_selected&#45;&gt;message_route_select_project_updates_panels -->
<g id="edge3" class="edge">
<title>message_emit_select_project_updates_panels_list_project_selected&#45;&gt;message_route_select_project_updates_panels</title>
<path fill="none" stroke="#4f46e5" stroke-width="1.2" d="M307.27,-87C323.24,-87 341.24,-87 359.35,-87"/>
<polygon fill="#4f46e5" stroke="#4f46e5" stroke-width="1.2" points="359.66,-89.8 367.66,-87 359.66,-84.2 359.66,-89.8"/>
</g>
<!-- message_effect_select_project_updates_panels_1 -->
<g id="node6" class="node">
<title>message_effect_select_project_updates_panels_1</title>
<polygon fill="#ffffff" stroke="transparent" points="640,-101 640,-175 821,-175 821,-101 640,-101"/>
<polygon fill="#be185d" stroke="transparent" points="641.5,-166 641.5,-174 820.5,-174 820.5,-166 641.5,-166"/>
<polygon fill="#fdf2f8" stroke="transparent" points="641.5,-135 641.5,-166 820.5,-166 820.5,-135 641.5,-135"/>
<text text-anchor="start" x="645.5" y="-152.6" font-family="Arial" font-weight="bold" font-size="13.00">project.selection_changed</text>
<text text-anchor="start" x="645.5" y="-141.6" font-family="Arial" font-size="8.00" fill="#64748b">sent message</text>
<text text-anchor="start" x="646.5" y="-123" font-family="Arial" font-weight="bold" font-size="10.00">causes:</text>
<text text-anchor="start" x="682.5" y="-123" font-family="Arial" font-size="10.00">  to loading</text>
<text text-anchor="start" x="646.5" y="-111" font-family="Arial" font-weight="bold" font-size="10.00">data:</text>
<text text-anchor="start" x="669.5" y="-111" font-family="Arial" font-size="10.00">  project_id</text>
<text text-anchor="start" x="718.5" y="-111" font-family="Arial" font-size="8.00" fill="#94a3b8">  ID</text>
<polygon fill="none" stroke="#be185d" points="640,-101 640,-175 821,-175 821,-101 640,-101"/>
</g>
<!-- message_route_select_project_updates_panels&#45;&gt;message_effect_select_project_updates_panels_1 -->
<g id="edge4" class="edge">
<title>message_route_select_project_updates_panels&#45;&gt;message_effect_select_project_updates_panels_1</title>
<path fill="none" stroke="#be185d" stroke-width="1.3" d="M579.32,-107.96C596.71,-111.44 614.69,-115.04 631.89,-118.48"/>
<polygon fill="#be185d" stroke="#be185d" stroke-width="1.3" points="631.34,-121.22 639.74,-120.05 632.44,-115.73 631.34,-121.22"/>
</g>
<!-- message_effect_select_project_updates_panels_2 -->
<g id="node7" class="node">
<title>message_effect_select_project_updates_panels_2</title>
<polygon fill="#ffffff" stroke="transparent" points="640,0 640,-74 821,-74 821,0 640,0"/>
<polygon fill="#be185d" stroke="transparent" points="641.5,-65 641.5,-73 820.5,-73 820.5,-65 641.5,-65"/>
<polygon fill="#fdf2f8" stroke="transparent" points="641.5,-34 641.5,-65 820.5,-65 820.5,-34 641.5,-34"/>
<text text-anchor="start" x="645.5" y="-51.6" font-family="Arial" font-weight="bold" font-size="13.00">project.selection_changed</text>
<text text-anchor="start" x="645.5" y="-40.6" font-family="Arial" font-size="8.00" fill="#64748b">sent message</text>
<text text-anchor="start" x="646.5" y="-22" font-family="Arial" font-weight="bold" font-size="10.00">causes:</text>
<text text-anchor="start" x="682.5" y="-22" font-family="Arial" font-size="10.00">  to ready</text>
<text text-anchor="start" x="646.5" y="-10" font-family="Arial" font-weight="bold" font-size="10.00">data:</text>
<text text-anchor="start" x="669.5" y="-10" font-family="Arial" font-size="10.00">  project_id</text>
<text text-anchor="start" x="718.5" y="-10" font-family="Arial" font-size="8.00" fill="#94a3b8">  ID</text>
<polygon fill="none" stroke="#be185d" points="640,0 640,-74 821,-74 821,0 640,0"/>
</g>
<!-- message_route_select_project_updates_panels&#45;&gt;message_effect_select_project_updates_panels_2 -->
<g id="edge6" class="edge">
<title>message_route_select_project_updates_panels&#45;&gt;message_effect_select_project_updates_panels_2</title>
<path fill="none" stroke="#be185d" stroke-width="1.3" d="M579.32,-66.45C596.56,-63.07 614.36,-59.58 631.43,-56.23"/>
<polygon fill="#be185d" stroke="#be185d" stroke-width="1.3" points="632.43,-58.89 639.74,-54.6 631.35,-53.39 632.43,-58.89"/>
</g>
<!-- message_effect_select_project_updates_panels_1&#45;&gt;panel_instance_detail -->
<g id="edge5" class="edge">
<title>message_effect_select_project_updates_panels_1&#45;&gt;panel_instance_detail</title>
<path fill="none" stroke="#be185d" stroke-width="1.4" d="M821.27,-138C840.02,-138 859.65,-138 877.97,-138"/>
<polygon fill="#be185d" stroke="#be185d" stroke-width="1.4" points="878.29,-140.8 886.29,-138 878.29,-135.2 878.29,-140.8"/>
</g>
<!-- message_effect_select_project_updates_panels_1&#45;&gt;message_effect_select_project_updates_panels_2 -->
<!-- message_effect_select_project_updates_panels_2&#45;&gt;panel_instance_activity -->
<g id="edge7" class="edge">
<title>message_effect_select_project_updates_panels_2&#45;&gt;panel_instance_activity</title>
<path fill="none" stroke="#be185d" stroke-width="1.4" d="M821.27,-37C838.48,-37 856.43,-37 873.43,-37"/>
<polygon fill="#be185d" stroke="#be185d" stroke-width="1.4" points="873.69,-39.8 881.69,-37 873.69,-34.2 873.69,-39.8"/>
</g>
</g>
</svg>
