<svg width="1244pt" height="242pt"
 viewBox="0.00 0.00 1244.00 241.50" xmlns="http://www.w3.org/2000/svg" xmlns:xlink="http://www.w3.org/1999/xlink">
<!-- pyspec-contract-input-sha256: 1b602004d78ddb9ba785b2751bfcc56ea051367ecb23589e26b9019cdc464845 -->
<g id="graph0" class="graph" transform="scale(1 1) rotate(0) translate(18 223.5)">
<title>operation_operation_project_create</title>
<!-- operation_input_operation_project_create -->
<g id="node1" class="node">
<title>operation_input_operation_project_create</title>
<polygon fill="#ffffff" stroke="transparent" points="0,-45.5 0,-149.5 84,-149.5 84,-45.5 0,-45.5"/>
<polygon fill="#64748b" stroke="transparent" points="1,-140.5 1,-148.5 83,-148.5 83,-140.5 1,-140.5"/>
<polygon fill="#f8fafc" stroke="transparent" points="1,-109.5 1,-140.5 83,-140.5 83,-109.5 1,-109.5"/>
<text text-anchor="start" x="5" y="-127.1" font-family="Arial" font-weight="bold" font-size="13.00">input</text>
<text text-anchor="start" x="5" y="-116.1" font-family="Arial" font-size="8.00" fill="#64748b">operation input</text>
<text text-anchor="start" x="5" y="-98.5" font-family="Arial" font-weight="bold" font-size="10.00">fields</text>
<text text-anchor="start" x="5" y="-87.5" font-family="Arial" font-size="10.00">customer</text>
<text text-anchor="start" x="46" y="-87.5" font-family="Arial" font-size="8.00" fill="#94a3b8">  Text</text>
<text text-anchor="start" x="5" y="-76.5" font-family="Arial" font-size="10.00">priority</text>
<text text-anchor="start" x="35" y="-76.5" font-family="Arial" font-size="8.00" fill="#94a3b8">  Text</text>
<text text-anchor="start" x="5" y="-65.5" font-family="Arial" font-size="10.00">title</text>
<text text-anchor="start" x="21" y="-65.5" font-family="Arial" font-size="8.00" fill="#94a3b8">  Text</text>
<text text-anchor="start" x="5" y="-54.5" font-family="Arial" font-size="10.00">workspace_id</text>
<text text-anchor="start" x="66" y="-54.5" font-family="Arial" font-size="8.00" fill="#94a3b8">  ID</text>
<polygon fill="none" stroke="#64748b" points="0,-45.5 0,-149.5 84,-149.5 84,-45.5 0,-45.5"/>
</g>
<!-- operation_policy_authorization_policy_project_create -->
<g id="node2" class="node">
<title>operation_policy_authorization_policy_project_create</title>
<polygon fill="#ffffff" stroke="transparent" points="186,-45 186,-150 419,-150 419,-45 186,-45"/>
<polygon fill="#c2410c" stroke="transparent" points="187.5,-140.5 187.5,-148.5 418.5,-148.5 418.5,-140.5 187.5,-140.5"/>
<polygon fill="#fff7ed" stroke="transparent" points="187.5,-109.5 187.5,-140.5 418.5,-140.5 418.5,-109.5 187.5,-109.5"/>
<text text-anchor="start" x="191.5" y="-127.1" font-family="Arial" font-weight="bold" font-size="13.00">authorization_policy.project.create</text>
<text text-anchor="start" x="191.5" y="-116.1" font-family="Arial" font-size="8.00" fill="#64748b">authorization gate</text>
<text text-anchor="start" x="191.5" y="-98.5" font-family="Arial" font-style="italic" font-size="10.00" fill="#3f3f46">Members can create a new dispatch project.</text>
<text text-anchor="start" x="192.5" y="-78.5" font-family="Arial" font-weight="bold" font-size="10.00">effect:</text>
<text text-anchor="start" x="220.5" y="-78.5" font-family="Arial" font-size="10.00">  allow</text>
<text text-anchor="start" x="192.5" y="-66.5" font-family="Arial" font-weight="bold" font-size="10.00">subjects:</text>
<text text-anchor="start" x="235.5" y="-66.5" font-family="Arial" font-size="10.00">  actor</text>
<text text-anchor="start" x="192.5" y="-54.5" font-family="Arial" font-weight="bold" font-size="10.00">conditions:</text>
<text text-anchor="start" x="245.5" y="-54.5" font-family="Arial" font-size="10.00">  unconditional true</text>
<polygon fill="none" stroke="#c2410c" points="186,-45 186,-150 419,-150 419,-45 186,-45"/>
</g>
<!-- operation_input_operation_project_create&#45;&gt;operation_policy_authorization_policy_project_create -->
<g id="edge1" class="edge">
<title>operation_input_operation_project_create&#45;&gt;operation_policy_authorization_policy_project_create</title>
<path fill="none" stroke="#c2410c" stroke-width="1.2" d="M84.25,-97.5C109.78,-97.5 144.04,-97.5 177.8,-97.5"/>
<polygon fill="#c2410c" stroke="#c2410c" stroke-width="1.2" points="177.9,-100.3 185.9,-97.5 177.9,-94.7 177.9,-100.3"/>
<text text-anchor="middle" x="135" y="-100.5" font-family="Arial" font-size="10.00">authorize</text>
</g>
<!-- operation_resource_operation_project_create_creates_Project -->
<g id="node3" class="node">
<title>operation_resource_operation_project_create_creates_Project</title>
<polygon fill="#ffffff" stroke="transparent" points="514,-12.5 514,-182.5 708,-182.5 708,-12.5 514,-12.5"/>
<polygon fill="#15803d" stroke="transparent" points="515,-173.5 515,-181.5 707,-181.5 707,-173.5 515,-173.5"/>
<polygon fill="#f0fdfa" stroke="transparent" points="515,-142.5 515,-173.5 707,-173.5 707,-142.5 515,-142.5"/>
<text text-anchor="start" x="519" y="-160.1" font-family="Arial" font-weight="bold" font-size="13.00">Project</text>
<text text-anchor="start" x="519" y="-149.1" font-family="Arial" font-size="8.00" fill="#64748b">model resource</text>
<text text-anchor="start" x="519" y="-131.5" font-family="Arial" font-weight="bold" font-size="10.00">fields</text>
<text text-anchor="start" x="519" y="-120.5" font-family="Arial" font-size="10.00">assignee</text>
<text text-anchor="start" x="559" y="-120.5" font-family="Arial" font-size="8.00" fill="#94a3b8">  Text</text>
<text text-anchor="start" x="519" y="-109.5" font-family="Arial" font-size="10.00">created_at</text>
<text text-anchor="start" x="565" y="-109.5" font-family="Arial" font-size="8.00" fill="#94a3b8">  Timestamp</text>
<text text-anchor="start" x="519" y="-98.5" font-family="Arial" font-size="10.00">customer</text>
<text text-anchor="start" x="560" y="-98.5" font-family="Arial" font-size="8.00" fill="#94a3b8">  Text</text>
<text text-anchor="start" x="519" y="-87.5" font-family="Arial" font-size="10.00">id</text>
<text text-anchor="start" x="527" y="-87.5" font-family="Arial" font-size="8.00" fill="#94a3b8">  ID</text>
<text text-anchor="start" x="519" y="-76.5" font-family="Arial" font-size="10.00">priority</text>
<text text-anchor="start" x="549" y="-76.5" font-family="Arial" font-size="8.00" fill="#94a3b8">  Text</text>
<text text-anchor="start" x="519" y="-65.5" font-family="Arial" font-size="10.00">status</text>
<text text-anchor="start" x="547" y="-65.5" font-family="Arial" font-size="8.00" fill="#94a3b8">  enum&lt;draft|submitted|approved|archived&gt;</text>
<text text-anchor="start" x="519" y="-54.5" font-family="Arial" font-size="10.00">summary</text>
<text text-anchor="start" x="560" y="-54.5" font-family="Arial" font-size="8.00" fill="#94a3b8">  Text</text>
<text text-anchor="start" x="519" y="-43.5" font-family="Arial" font-size="10.00">title</text>
<text text-anchor="start" x="535" y="-43.5" font-family="Arial" font-size="8.00" fill="#94a3b8">  Text</text>
<text text-anchor="start" x="519" y="-32.5" font-family="Arial" font-size="10.00">updated_at</text>
<text text-anchor="start" x="568" y="-32.5" font-family="Arial" font-size="8.00" fill="#94a3b8">  Timestamp</text>
<text text-anchor="start" x="519" y="-21.5" font-family="Arial" font-size="10.00">workspace_id</text>
<text text-anchor="start" x="580" y="-21.5" font-family="Arial" font-size="8.00" fill="#94a3b8">  ID</text>
<polygon fill="none" stroke="#15803d" points="514,-12.5 514,-182.5 708,-182.5 708,-12.5 514,-12.5"/>
</g>
<!-- operation_policy_authorization_policy_project_create&#45;&gt;operation_resource_operation_project_create_creates_Project -->
<g id="edge2" class="edge">
<title>operation_policy_authorization_policy_project_create&#45;&gt;operation_resource_operation_project_create_creates_Project</title>
<path fill="none" stroke="#15803d" d="M419.37,-97.5C447.76,-97.5 477.98,-97.5 505.78,-97.5"/>
<polygon fill="#15803d" stroke="#15803d" points="505.94,-100.3 513.94,-97.5 505.94,-94.7 505.94,-100.3"/>
<text text-anchor="middle" x="466.5" y="-100.5" font-family="Arial" font-size="10.00">creates</text>
</g>
<!-- operation_outcome_operation_project_create_created -->
<g id="node4" class="node">
<title>operation_outcome_operation_project_create_created</title>
<polygon fill="#ffffff" stroke="transparent" points="829.5,-125 829.5,-196 900.5,-196 900.5,-125 829.5,-125"/>
<polygon fill="#16a34a" stroke="transparent" points="831,-186.5 831,-194.5 900,-194.5 900,-186.5 831,-186.5"/>
<polygon fill="#f0fdf4" stroke="transparent" points="831,-155.5 831,-186.5 900,-186.5 900,-155.5 831,-155.5"/>
<text text-anchor="start" x="835" y="-173.1" font-family="Arial" font-weight="bold" font-size="13.00">created</text>
<text text-anchor="start" x="835" y="-162.1" font-family="Arial" font-size="8.00" fill="#64748b">success outcome</text>
<text text-anchor="start" x="835" y="-144.5" font-family="Arial" font-weight="bold" font-size="10.00">result</text>
<text text-anchor="start" x="835" y="-133.5" font-family="Arial" font-size="10.00">result</text>
<text text-anchor="start" x="860" y="-133.5" font-family="Arial" font-size="8.00" fill="#94a3b8">  Project</text>
<polygon fill="none" stroke="#16a34a" points="829.5,-125 829.5,-196 900.5,-196 900.5,-125 829.5,-125"/>
</g>
<!-- operation_resource_operation_project_create_creates_Project&#45;&gt;operation_outcome_operation_project_create_created -->
<g id="edge3" class="edge">
<title>operation_resource_operation_project_create_creates_Project&#45;&gt;operation_outcome_operation_project_create_created</title>
<path fill="none" stroke="#16a34a" d="M708.35,-121.59C747.38,-131.34 790.43,-142.11 821.35,-149.84"/>
<polygon fill="#16a34a" stroke="#16a34a" points="820.89,-152.61 829.33,-151.83 822.25,-147.18 820.89,-152.61"/>
<text text-anchor="middle" x="757.5" y="-141.5" font-family="Arial" font-size="10.00">success</text>
</g>
<!-- operation_outcome_operation_project_create_validation_failed -->
<g id="node5" class="node">
<title>operation_outcome_operation_project_create_validation_failed</title>
<polygon fill="#ffffff" stroke="transparent" points="807,0 807,-71 923,-71 923,0 807,0"/>
<polygon fill="#dc2626" stroke="transparent" points="808,-61.5 808,-69.5 922,-69.5 922,-61.5 808,-61.5"/>
<polygon fill="#fef2f2" stroke="transparent" points="808,-30.5 808,-61.5 922,-61.5 922,-30.5 808,-30.5"/>
<text text-anchor="start" x="812" y="-48.1" font-family="Arial" font-weight="bold" font-size="13.00">validation_failed</text>
<text text-anchor="start" x="812" y="-37.1" font-family="Arial" font-size="8.00" fill="#64748b">failure outcome</text>
<text text-anchor="start" x="812" y="-19.5" font-family="Arial" font-weight="bold" font-size="10.00">result</text>
<text text-anchor="start" x="812" y="-8.5" font-family="Arial" font-size="10.00">result</text>
<text text-anchor="start" x="837" y="-8.5" font-family="Arial" font-size="8.00" fill="#94a3b8">  Problem</text>
<polygon fill="none" stroke="#dc2626" points="807,0 807,-71 923,-71 923,0 807,0"/>
</g>
<!-- operation_resource_operation_project_create_creates_Project&#45;&gt;operation_outcome_operation_project_create_validation_failed -->
<g id="edge5" class="edge">
<title>operation_resource_operation_project_create_creates_Project&#45;&gt;operation_outcome_operation_project_create_validation_failed</title>
<path fill="none" stroke="#dc2626" d="M708.35,-73.8C738.57,-66.36 771.21,-58.33 798.76,-51.55"/>
<polygon fill="#dc2626" stroke="#dc2626" points="799.66,-54.21 806.76,-49.58 798.32,-48.78 799.66,-54.21"/>
<text text-anchor="middle" x="757.5" y="-68.5" font-family="Arial" font-size="10.00">failure</text>
</g>
<!-- operation_outcome_operation_project_create_created&#45;&gt;operation_outcome_operation_project_create_validation_failed -->
<!-- operation_event_operation_project_create_event_project_created -->
<g id="node6" class="node">
<title>operation_event_operation_project_create_event_project_created</title>
<polygon fill="#ffffff" stroke="transparent" points="1004,-115.5 1004,-205.5 1208,-205.5 1208,-115.5 1004,-115.5"/>
<polygon fill="#4f46e5" stroke="transparent" points="1005,-196.5 1005,-204.5 1207,-204.5 1207,-196.5 1005,-196.5"/>
<polygon fill="#eef2ff" stroke="transparent" points="1005,-165.5 1005,-196.5 1207,-196.5 1207,-165.5 1005,-165.5"/>
<text text-anchor="start" x="1009" y="-183.1" font-family="Arial" font-weight="bold" font-size="13.00">event.project.created</text>
<text text-anchor="start" x="1009" y="-172.1" font-family="Arial" font-size="8.00" fill="#64748b">emitted event</text>
<text text-anchor="start" x="1009" y="-154.5" font-family="Arial" font-style="italic" font-size="10.00" fill="#3f3f46">Members can create a new dispatch project.</text>
<text text-anchor="start" x="1009" y="-135.5" font-family="Arial" font-weight="bold" font-size="10.00">payload</text>
<text text-anchor="start" x="1009" y="-124.5" font-family="Arial" font-size="10.00">payload</text>
<text text-anchor="start" x="1043" y="-124.5" font-family="Arial" font-size="8.00" fill="#94a3b8">  Project</text>
<polygon fill="none" stroke="#4f46e5" points="1004,-115.5 1004,-205.5 1208,-205.5 1208,-115.5 1004,-115.5"/>
</g>
<!-- operation_outcome_operation_project_create_created&#45;&gt;operation_event_operation_project_create_event_project_created -->
<g id="edge4" class="edge">
<title>operation_outcome_operation_project_create_created&#45;&gt;operation_event_operation_project_create_event_project_created</title>
<path fill="none" stroke="#4f46e5" stroke-width="1.2" d="M900.75,-160.5C925.86,-160.5 961.26,-160.5 995.54,-160.5"/>
<polygon fill="#4f46e5" stroke="#4f46e5" stroke-width="1.2" points="995.76,-163.3 1003.76,-160.5 995.76,-157.7 995.76,-163.3"/>
<text text-anchor="middle" x="963.5" y="-163.5" font-family="Arial" font-size="10.00">emit</text>
</g>
</g>
</svg>
