<svg width="1247pt" height="492pt"
 viewBox="0.00 0.00 1247.00 491.50" xmlns="http://www.w3.org/2000/svg" xmlns:xlink="http://www.w3.org/1999/xlink">
<!-- pyspec-contract-input-sha256: 73a9fffb82f7c3999c0ff72bf9011403e3ceac1e99842a37031323dccfaac034 -->
<g id="graph0" class="graph" transform="scale(1 1) rotate(0) translate(18 473.5)">
<title>operation_operation_project_create</title>
<!-- operation_input_operation_project_create -->
<g id="node1" class="node">
<title>operation_input_operation_project_create</title>
<polygon fill="#ffffff" stroke="transparent" points="0,-162.5 0,-266.5 84,-266.5 84,-162.5 0,-162.5"/>
<polygon fill="#64748b" stroke="transparent" points="1,-257.5 1,-265.5 83,-265.5 83,-257.5 1,-257.5"/>
<polygon fill="#f8fafc" stroke="transparent" points="1,-226.5 1,-257.5 83,-257.5 83,-226.5 1,-226.5"/>
<text text-anchor="start" x="5" y="-244.1" font-family="Arial" font-weight="bold" font-size="13.00">input</text>
<text text-anchor="start" x="5" y="-233.1" font-family="Arial" font-size="8.00" fill="#64748b">operation input</text>
<text text-anchor="start" x="5" y="-215.5" font-family="Arial" font-weight="bold" font-size="10.00">fields</text>
<text text-anchor="start" x="5" y="-204.5" font-family="Arial" font-size="10.00">customer</text>
<text text-anchor="start" x="46" y="-204.5" font-family="Arial" font-size="8.00" fill="#94a3b8">  Text</text>
<text text-anchor="start" x="5" y="-193.5" font-family="Arial" font-size="10.00">priority</text>
<text text-anchor="start" x="35" y="-193.5" font-family="Arial" font-size="8.00" fill="#94a3b8">  Text</text>
<text text-anchor="start" x="5" y="-182.5" font-family="Arial" font-size="10.00">title</text>
<text text-anchor="start" x="21" y="-182.5" font-family="Arial" font-size="8.00" fill="#94a3b8">  Text</text>
<text text-anchor="start" x="5" y="-171.5" font-family="Arial" font-size="10.00">workspace_id</text>
<text text-anchor="start" x="66" y="-171.5" font-family="Arial" font-size="8.00" fill="#94a3b8">  ID</text>
<polygon fill="none" stroke="#64748b" points="0,-162.5 0,-266.5 84,-266.5 84,-162.5 0,-162.5"/>
</g>
<!-- operation_policy_authorization_policy_project_create -->
<g id="node2" class="node">
<title>operation_policy_authorization_policy_project_create</title>
<polygon fill="#ffffff" stroke="transparent" points="186,-162 186,-267 422,-267 422,-162 186,-162"/>
<polygon fill="#c2410c" stroke="transparent" points="187,-257.5 187,-265.5 421,-265.5 421,-257.5 187,-257.5"/>
<polygon fill="#fff7ed" stroke="transparent" points="187,-226.5 187,-257.5 421,-257.5 421,-226.5 187,-226.5"/>
<text text-anchor="start" x="191" y="-244.1" font-family="Arial" font-weight="bold" font-size="13.00">authorization_policy.project.create</text>
<text text-anchor="start" x="191" y="-233.1" font-family="Arial" font-size="8.00" fill="#64748b">authorization gate</text>
<text text-anchor="start" x="191" y="-215.5" font-family="Arial" font-style="italic" font-size="10.00" fill="#3f3f46">Workspace members may create dispatch projects.</text>
<text text-anchor="start" x="192" y="-195.5" font-family="Arial" font-weight="bold" font-size="10.00">effect:</text>
<text text-anchor="start" x="220" y="-195.5" font-family="Arial" font-size="10.00">  allow</text>
<text text-anchor="start" x="192" y="-183.5" font-family="Arial" font-weight="bold" font-size="10.00">subjects:</text>
<text text-anchor="start" x="235" y="-183.5" font-family="Arial" font-size="10.00">  actor</text>
<text text-anchor="start" x="192" y="-171.5" font-family="Arial" font-weight="bold" font-size="10.00">conditions:</text>
<text text-anchor="start" x="245" y="-171.5" font-family="Arial" font-size="10.00">  subject_has_role member</text>
<polygon fill="none" stroke="#c2410c" points="186,-162 186,-267 422,-267 422,-162 186,-162"/>
</g>
<!-- operation_input_operation_project_create&#45;&gt;operation_policy_authorization_policy_project_create -->
<g id="edge1" class="edge">
<title>operation_input_operation_project_create&#45;&gt;operation_policy_authorization_policy_project_create</title>
<path fill="none" stroke="#3f3f46" stroke-width="1.2" d="M84.2,-214.5C109.72,-214.5 143.98,-214.5 177.81,-214.5"/>
<polygon fill="#3f3f46" stroke="#3f3f46" stroke-width="1.2" points="177.93,-217.3 185.93,-214.5 177.93,-211.7 177.93,-217.3"/>
<text text-anchor="middle" x="135" y="-217.5" font-family="Arial" font-size="10.00">authorize</text>
</g>
<!-- operation_resource_operation_project_create_creates_Project -->
<g id="node3" class="node">
<title>operation_resource_operation_project_create_creates_Project</title>
<polygon fill="#ffffff" stroke="transparent" points="517,-129.5 517,-299.5 711,-299.5 711,-129.5 517,-129.5"/>
<polygon fill="#15803d" stroke="transparent" points="518,-290.5 518,-298.5 710,-298.5 710,-290.5 518,-290.5"/>
<polygon fill="#f0fdfa" stroke="transparent" points="518,-259.5 518,-290.5 710,-290.5 710,-259.5 518,-259.5"/>
<text text-anchor="start" x="522" y="-277.1" font-family="Arial" font-weight="bold" font-size="13.00">Project</text>
<text text-anchor="start" x="522" y="-266.1" font-family="Arial" font-size="8.00" fill="#64748b">model resource</text>
<text text-anchor="start" x="522" y="-248.5" font-family="Arial" font-weight="bold" font-size="10.00">fields</text>
<text text-anchor="start" x="522" y="-237.5" font-family="Arial" font-size="10.00">assignee</text>
<text text-anchor="start" x="562" y="-237.5" font-family="Arial" font-size="8.00" fill="#94a3b8">  Text</text>
<text text-anchor="start" x="522" y="-226.5" font-family="Arial" font-size="10.00">created_at</text>
<text text-anchor="start" x="568" y="-226.5" font-family="Arial" font-size="8.00" fill="#94a3b8">  Timestamp</text>
<text text-anchor="start" x="522" y="-215.5" font-family="Arial" font-size="10.00">customer</text>
<text text-anchor="start" x="563" y="-215.5" font-family="Arial" font-size="8.00" fill="#94a3b8">  Text</text>
<text text-anchor="start" x="522" y="-204.5" font-family="Arial" font-size="10.00">id</text>
<text text-anchor="start" x="530" y="-204.5" font-family="Arial" font-size="8.00" fill="#94a3b8">  ID</text>
<text text-anchor="start" x="522" y="-193.5" font-family="Arial" font-size="10.00">priority</text>
<text text-anchor="start" x="552" y="-193.5" font-family="Arial" font-size="8.00" fill="#94a3b8">  Text</text>
<text text-anchor="start" x="522" y="-182.5" font-family="Arial" font-size="10.00">status</text>
<text text-anchor="start" x="550" y="-182.5" font-family="Arial" font-size="8.00" fill="#94a3b8">  enum&lt;draft|submitted|approved|archived&gt;</text>
<text text-anchor="start" x="522" y="-171.5" font-family="Arial" font-size="10.00">summary</text>
<text text-anchor="start" x="563" y="-171.5" font-family="Arial" font-size="8.00" fill="#94a3b8">  Text</text>
<text text-anchor="start" x="522" y="-160.5" font-family="Arial" font-size="10.00">title</text>
<text text-anchor="start" x="538" y="-160.5" font-family="Arial" font-size="8.00" fill="#94a3b8">  Text</text>
<text text-anchor="start" x="522" y="-149.5" font-family="Arial" font-size="10.00">updated_at</text>
<text text-anchor="start" x="571" y="-149.5" font-family="Arial" font-size="8.00" fill="#94a3b8">  Timestamp</text>
<text text-anchor="start" x="522" y="-138.5" font-family="Arial" font-size="10.00">workspace_id</text>
<text text-anchor="start" x="583" y="-138.5" font-family="Arial" font-size="8.00" fill="#94a3b8">  ID</text>
<polygon fill="none" stroke="#15803d" points="517,-129.5 517,-299.5 711,-299.5 711,-129.5 517,-129.5"/>
</g>
<!-- operation_policy_authorization_policy_project_create&#45;&gt;operation_resource_operation_project_create_creates_Project -->
<g id="edge2" class="edge">
<title>operation_policy_authorization_policy_project_create&#45;&gt;operation_resource_operation_project_create_creates_Project</title>
<path fill="none" stroke="#3f3f46" d="M422.32,-214.5C450.64,-214.5 480.71,-214.5 508.4,-214.5"/>
<polygon fill="#3f3f46" stroke="#3f3f46" points="508.52,-217.3 516.52,-214.5 508.52,-211.7 508.52,-217.3"/>
<text text-anchor="middle" x="469.5" y="-217.5" font-family="Arial" font-size="10.00">creates</text>
</g>
<!-- operation_outcome_operation_project_create_forbidden -->
<g id="node5" class="node">
<title>operation_outcome_operation_project_create_forbidden</title>
<polygon fill="#ffffff" stroke="transparent" points="831.5,-250 831.5,-321 904.5,-321 904.5,-250 831.5,-250"/>
<polygon fill="#dc2626" stroke="transparent" points="833,-311.5 833,-319.5 904,-319.5 904,-311.5 833,-311.5"/>
<polygon fill="#fef2f2" stroke="transparent" points="833,-280.5 833,-311.5 904,-311.5 904,-280.5 833,-280.5"/>
<text text-anchor="start" x="837" y="-298.1" font-family="Arial" font-weight="bold" font-size="13.00">forbidden</text>
<text text-anchor="start" x="837" y="-287.1" font-family="Arial" font-size="8.00" fill="#64748b">failure outcome</text>
<text text-anchor="start" x="837" y="-269.5" font-family="Arial" font-weight="bold" font-size="10.00">result</text>
<text text-anchor="start" x="837" y="-258.5" font-family="Arial" font-size="10.00">result</text>
<text text-anchor="start" x="862" y="-258.5" font-family="Arial" font-size="8.00" fill="#94a3b8">  Problem</text>
<polygon fill="none" stroke="#dc2626" points="831.5,-250 831.5,-321 904.5,-321 904.5,-250 831.5,-250"/>
</g>
<!-- operation_policy_authorization_policy_project_create&#45;&gt;operation_outcome_operation_project_create_forbidden -->
<g id="edge5" class="edge">
<title>operation_policy_authorization_policy_project_create&#45;&gt;operation_outcome_operation_project_create_forbidden</title>
<path fill="none" stroke="#3f3f46" d="M399.73,-267.13C435.47,-284.71 477.13,-302.59 517,-313.5 629.71,-344.35 666.02,-365.35 779,-335.5 794.62,-331.37 810.38,-323.76 824.16,-315.69"/>
<polygon fill="#3f3f46" stroke="#3f3f46" points="825.77,-317.99 831.17,-311.45 822.87,-313.2 825.77,-317.99"/>
<text text-anchor="middle" x="614" y="-352.5" font-family="Arial" font-size="10.00">forbidden_as</text>
</g>
<!-- operation_outcome_operation_project_create_unauthenticated -->
<g id="node6" class="node">
<title>operation_outcome_operation_project_create_unauthenticated</title>
<polygon fill="#ffffff" stroke="transparent" points="810.5,-125 810.5,-196 925.5,-196 925.5,-125 810.5,-125"/>
<polygon fill="#dc2626" stroke="transparent" points="812,-186.5 812,-194.5 925,-194.5 925,-186.5 812,-186.5"/>
<polygon fill="#fef2f2" stroke="transparent" points="812,-155.5 812,-186.5 925,-186.5 925,-155.5 812,-155.5"/>
<text text-anchor="start" x="816" y="-173.1" font-family="Arial" font-weight="bold" font-size="13.00">unauthenticated</text>
<text text-anchor="start" x="816" y="-162.1" font-family="Arial" font-size="8.00" fill="#64748b">failure outcome</text>
<text text-anchor="start" x="816" y="-144.5" font-family="Arial" font-weight="bold" font-size="10.00">result</text>
<text text-anchor="start" x="816" y="-133.5" font-family="Arial" font-size="10.00">result</text>
<text text-anchor="start" x="841" y="-133.5" font-family="Arial" font-size="8.00" fill="#94a3b8">  Problem</text>
<polygon fill="none" stroke="#dc2626" points="810.5,-125 810.5,-196 925.5,-196 925.5,-125 810.5,-125"/>
</g>
<!-- operation_policy_authorization_policy_project_create&#45;&gt;operation_outcome_operation_project_create_unauthenticated -->
<g id="edge6" class="edge">
<title>operation_policy_authorization_policy_project_create&#45;&gt;operation_outcome_operation_project_create_unauthenticated</title>
<path fill="none" stroke="#3f3f46" d="M384.99,-161.91C423.26,-139.83 470.74,-116.7 517,-105.5 630.19,-78.11 667.47,-75.98 779,-109.5 788.47,-112.35 798.02,-116.39 807.14,-120.97"/>
<polygon fill="#3f3f46" stroke="#3f3f46" points="805.98,-123.52 814.36,-124.75 808.57,-118.56 805.98,-123.52"/>
<text text-anchor="middle" x="614" y="-108.5" font-family="Arial" font-size="10.00">unauthenticated_as</text>
</g>
<!-- operation_outcome_operation_project_create_created -->
<g id="node4" class="node">
<title>operation_outcome_operation_project_create_created</title>
<polygon fill="#ffffff" stroke="transparent" points="832.5,-375 832.5,-446 903.5,-446 903.5,-375 832.5,-375"/>
<polygon fill="#16a34a" stroke="transparent" points="834,-436.5 834,-444.5 903,-444.5 903,-436.5 834,-436.5"/>
<polygon fill="#f0fdf4" stroke="transparent" points="834,-405.5 834,-436.5 903,-436.5 903,-405.5 834,-405.5"/>
<text text-anchor="start" x="838" y="-423.1" font-family="Arial" font-weight="bold" font-size="13.00">created</text>
<text text-anchor="start" x="838" y="-412.1" font-family="Arial" font-size="8.00" fill="#64748b">success outcome</text>
<text text-anchor="start" x="838" y="-394.5" font-family="Arial" font-weight="bold" font-size="10.00">result</text>
<text text-anchor="start" x="838" y="-383.5" font-family="Arial" font-size="10.00">result</text>
<text text-anchor="start" x="863" y="-383.5" font-family="Arial" font-size="8.00" fill="#94a3b8">  Project</text>
<polygon fill="none" stroke="#16a34a" points="832.5,-375 832.5,-446 903.5,-446 903.5,-375 832.5,-375"/>
</g>
<!-- operation_resource_operation_project_create_creates_Project&#45;&gt;operation_outcome_operation_project_create_created -->
<g id="edge3" class="edge">
<title>operation_resource_operation_project_create_creates_Project&#45;&gt;operation_outcome_operation_project_create_created</title>
<path fill="none" stroke="#3f3f46" d="M711.35,-289.44C751.04,-320.31 794.9,-354.42 825.92,-378.55"/>
<polygon fill="#3f3f46" stroke="#3f3f46" points="824.3,-380.84 832.33,-383.54 827.74,-376.42 824.3,-380.84"/>
<text text-anchor="middle" x="760.5" y="-344.5" font-family="Arial" font-size="10.00">success</text>
</g>
<!-- operation_outcome_operation_project_create_validation_failed -->
<g id="node7" class="node">
<title>operation_outcome_operation_project_create_validation_failed</title>
<polygon fill="#ffffff" stroke="transparent" points="810,0 810,-71 926,-71 926,0 810,0"/>
<polygon fill="#dc2626" stroke="transparent" points="811,-61.5 811,-69.5 925,-69.5 925,-61.5 811,-61.5"/>
<polygon fill="#fef2f2" stroke="transparent" points="811,-30.5 811,-61.5 925,-61.5 925,-30.5 811,-30.5"/>
<text text-anchor="start" x="815" y="-48.1" font-family="Arial" font-weight="bold" font-size="13.00">validation_failed</text>
<text text-anchor="start" x="815" y="-37.1" font-family="Arial" font-size="8.00" fill="#64748b">failure outcome</text>
<text text-anchor="start" x="815" y="-19.5" font-family="Arial" font-weight="bold" font-size="10.00">result</text>
<text text-anchor="start" x="815" y="-8.5" font-family="Arial" font-size="10.00">result</text>
<text text-anchor="start" x="840" y="-8.5" font-family="Arial" font-size="8.00" fill="#94a3b8">  Problem</text>
<polygon fill="none" stroke="#dc2626" points="810,0 810,-71 926,-71 926,0 810,0"/>
</g>
<!-- operation_resource_operation_project_create_creates_Project&#45;&gt;operation_outcome_operation_project_create_validation_failed -->
<g id="edge7" class="edge">
<title>operation_resource_operation_project_create_creates_Project&#45;&gt;operation_outcome_operation_project_create_validation_failed</title>
<path fill="none" stroke="#3f3f46" d="M711.35,-146.06C744.67,-122.4 780.91,-96.65 810.04,-75.96"/>
<polygon fill="#3f3f46" stroke="#3f3f46" points="812,-78 816.9,-71.08 808.76,-73.43 812,-78"/>
<text text-anchor="middle" x="760.5" y="-122.5" font-family="Arial" font-size="10.00">failure</text>
</g>
<!-- operation_outcome_operation_project_create_created&#45;&gt;operation_outcome_operation_project_create_forbidden -->
<!-- operation_event_operation_project_create_event_project_created -->
<g id="node8" class="node">
<title>operation_event_operation_project_create_event_project_created</title>
<polygon fill="#ffffff" stroke="transparent" points="1007,-365.5 1007,-455.5 1211,-455.5 1211,-365.5 1007,-365.5"/>
<polygon fill="#4f46e5" stroke="transparent" points="1008,-446.5 1008,-454.5 1210,-454.5 1210,-446.5 1008,-446.5"/>
<polygon fill="#eef2ff" stroke="transparent" points="1008,-415.5 1008,-446.5 1210,-446.5 1210,-415.5 1008,-415.5"/>
<text text-anchor="start" x="1012" y="-433.1" font-family="Arial" font-weight="bold" font-size="13.00">event.project.created</text>
<text text-anchor="start" x="1012" y="-422.1" font-family="Arial" font-size="8.00" fill="#64748b">emitted event</text>
<text text-anchor="start" x="1012" y="-404.5" font-family="Arial" font-style="italic" font-size="10.00" fill="#3f3f46">Members can create a new dispatch project.</text>
<text text-anchor="start" x="1012" y="-385.5" font-family="Arial" font-weight="bold" font-size="10.00">payload</text>
<text text-anchor="start" x="1012" y="-374.5" font-family="Arial" font-size="10.00">payload</text>
<text text-anchor="start" x="1046" y="-374.5" font-family="Arial" font-size="8.00" fill="#94a3b8">  Project</text>
<polygon fill="none" stroke="#4f46e5" points="1007,-365.5 1007,-455.5 1211,-455.5 1211,-365.5 1007,-365.5"/>
</g>
<!-- operation_outcome_operation_project_create_created&#45;&gt;operation_event_operation_project_create_event_project_created -->
<g id="edge4" class="edge">
<title>operation_outcome_operation_project_create_created&#45;&gt;operation_event_operation_project_create_event_project_created</title>
<path fill="none" stroke="#3f3f46" stroke-width="1.2" d="M903.75,-410.5C928.86,-410.5 964.26,-410.5 998.54,-410.5"/>
<polygon fill="#3f3f46" stroke="#3f3f46" stroke-width="1.2" points="998.76,-413.3 1006.76,-410.5 998.76,-407.7 998.76,-413.3"/>
<text text-anchor="middle" x="966.5" y="-413.5" font-family="Arial" font-size="10.00">emit</text>
</g>
<!-- operation_outcome_operation_project_create_forbidden&#45;&gt;operation_outcome_operation_project_create_unauthenticated -->
<!-- operation_outcome_operation_project_create_unauthenticated&#45;&gt;operation_outcome_operation_project_create_validation_failed -->
</g>
</svg>
